<?xml version="1.0" encoding="utf-8"?>
<!-- Generator: Adobe Illustrator 20.1.0, SVG Export Plug-In . SVG Version: 6.00 Build 0)  -->
<svg version="1.1" id="Layer_1" xmlns="http://www.w3.org/2000/svg" xmlns:xlink="http://www.w3.org/1999/xlink" x="0px" y="0px"
	 viewBox="0 0 772.1 447.4" style="enable-background:new 0 0 772.1 447.4;" xml:space="preserve">
<style type="text/css">
	.st0{clip-path:url(#SVGID_2_);}
	.st1{clip-path:url(#SVGID_4_);fill:#020203;}
	.st2{clip-path:url(#SVGID_4_);fill:#4BA9DF;}
	.st3{clip-path:url(#SVGID_4_);fill:#6C6B6A;}
	.st4{clip-path:url(#SVGID_4_);fill:#8ED2EC;}
	.st5{clip-path:url(#SVGID_4_);fill:#2F76AA;}
	.st6{clip-path:url(#SVGID_4_);fill:#FFFFFF;}
	.st7{clip-path:url(#SVGID_4_);fill:#2F76A9;}
	.st8{clip-path:url(#SVGID_4_);fill:#6B6A69;}
	.st9{clip-path:url(#SVGID_4_);fill:#B8E1EF;}
	.st10{clip-path:url(#SVGID_4_);fill:#2F75A7;}
	.st11{clip-path:url(#SVGID_4_);fill:#95A1A1;}
	.st12{clip-path:url(#SVGID_4_);fill:#FEFEFE;}
	.st13{clip-path:url(#SVGID_4_);fill:#2E77A8;}
	.st14{clip-path:url(#SVGID_4_);fill:#8CD1EB;}
	.st15{clip-path:url(#SVGID_4_);fill:#94A0A0;}
	.st16{clip-path:url(#SVGID_4_);fill:#060707;}
	.st17{clip-path:url(#SVGID_4_);fill:#F9F9F9;}
	.st18{clip-path:url(#SVGID_4_);fill:#66C1BD;}
	.st19{clip-path:url(#SVGID_4_);fill:#2F74A6;}
	.st20{clip-path:url(#SVGID_4_);fill:#929E9E;}
	.st21{clip-path:url(#SVGID_4_);fill:#949F9F;}
	.st22{clip-path:url(#SVGID_4_);fill:#FDFDFD;}
	.st23{clip-path:url(#SVGID_4_);fill:#8C9798;}
	.st24{clip-path:url(#SVGID_4_);fill:#939F9F;}
	.st25{clip-path:url(#SVGID_4_);fill:#F8F8F6;}
	.st26{clip-path:url(#SVGID_4_);fill:#2F75A6;}
	.st27{clip-path:url(#SVGID_4_);fill:#939E9E;}
	.st28{clip-path:url(#SVGID_4_);fill:#49A7DE;}
	.st29{clip-path:url(#SVGID_4_);fill:#2E79AA;}
	.st30{clip-path:url(#SVGID_4_);fill:#929D9D;}
	.st31{clip-path:url(#SVGID_4_);fill:#FCFCFC;}
	.st32{clip-path:url(#SVGID_4_);fill:#3075A6;}
	.st33{clip-path:url(#SVGID_4_);fill:#919D9D;}
	.st34{clip-path:url(#SVGID_4_);fill:#909C9B;}
	.st35{clip-path:url(#SVGID_4_);fill:#2D7AAA;}
	.st36{clip-path:url(#SVGID_4_);fill:#2F77A8;}
	.st37{clip-path:url(#SVGID_4_);fill:#929E9F;}
	.st38{clip-path:url(#SVGID_4_);fill:#89CEE6;}
	.st39{clip-path:url(#SVGID_4_);fill:#FBFBFB;}
	.st40{clip-path:url(#SVGID_4_);fill:#879291;}
	.st41{clip-path:url(#SVGID_4_);fill:#3075A4;}
	.st42{clip-path:url(#SVGID_4_);fill:#F7F6F6;}
	.st43{clip-path:url(#SVGID_4_);fill:#56BEC4;}
	.st44{clip-path:url(#SVGID_4_);fill:#49BBBA;}
	.st45{clip-path:url(#SVGID_4_);fill:#2C71A1;}
	.st46{clip-path:url(#SVGID_4_);fill:#8F9B9A;}
	.st47{clip-path:url(#SVGID_4_);fill:#889292;}
	.st48{clip-path:url(#SVGID_4_);fill:#F7F8F7;}
	.st49{clip-path:url(#SVGID_4_);fill:#F0F0F0;}
	.st50{clip-path:url(#SVGID_4_);fill:#EAEAEA;}
	.st51{clip-path:url(#SVGID_4_);fill:#676665;}
	.st52{clip-path:url(#SVGID_4_);fill:#5F6465;}
	.st53{clip-path:url(#SVGID_4_);fill:#686766;}
	.st54{clip-path:url(#SVGID_4_);fill:#E9EAEA;}
	.st55{clip-path:url(#SVGID_4_);fill:#8A9593;}
	.st56{clip-path:url(#SVGID_4_);fill:#C5BF47;}
	.st57{clip-path:url(#SVGID_4_);fill:#F5F5F5;}
	.st58{clip-path:url(#SVGID_4_);fill:#8B9696;}
	.st59{clip-path:url(#SVGID_4_);fill:#CAC349;}
	.st60{clip-path:url(#SVGID_4_);fill:#667378;}
	.st61{clip-path:url(#SVGID_4_);fill:#7D8686;}
	.st62{clip-path:url(#SVGID_4_);fill:#7C8282;}
	.st63{clip-path:url(#SVGID_4_);fill:#DEDEDE;}
	.st64{clip-path:url(#SVGID_4_);fill:#656D6D;}
	.st65{clip-path:url(#SVGID_4_);fill:#E8EAEA;}
	.st66{clip-path:url(#SVGID_4_);fill:#6E7877;}
	.st67{clip-path:url(#SVGID_4_);fill:#2F71A0;}
	.st68{clip-path:url(#SVGID_4_);fill:#727B7B;}
	.st69{clip-path:url(#SVGID_4_);fill:#5E6A6E;}
	.st70{clip-path:url(#SVGID_4_);fill:#728287;}
	.st71{clip-path:url(#SVGID_4_);fill:#505C5F;}
	.st72{clip-path:url(#SVGID_4_);fill:#757E7E;}
	.st73{clip-path:url(#SVGID_4_);fill:#515B5F;}
	.st74{clip-path:url(#SVGID_4_);fill:#3F4140;}
	.st75{clip-path:url(#SVGID_4_);fill:#757D7E;}
	.st76{clip-path:url(#SVGID_4_);fill:#646D6C;}
	.st77{clip-path:url(#SVGID_4_);fill:#758489;}
	.st78{clip-path:url(#SVGID_4_);fill:#79898F;}
	.st79{clip-path:url(#SVGID_4_);fill:#6D7C81;}
	.st80{clip-path:url(#SVGID_4_);fill:#68767B;}
	.st81{clip-path:url(#SVGID_4_);fill:#67757A;}
	.st82{clip-path:url(#SVGID_4_);fill:#8A9CA3;}
	.st83{clip-path:url(#SVGID_4_);fill:#7D8D93;}
	.st84{clip-path:url(#SVGID_4_);fill:#6B7171;}
	.st85{clip-path:url(#SVGID_4_);fill:#D4D8DB;}
	.st86{clip-path:url(#SVGID_4_);fill:#78888D;}
	.st87{clip-path:url(#SVGID_4_);fill:#737B7A;}
	.st88{clip-path:url(#SVGID_4_);fill:#76848A;}
	.st89{clip-path:url(#SVGID_4_);fill:#787E7E;}
	.st90{clip-path:url(#SVGID_4_);fill:#AFC6CE;}
	.st91{clip-path:url(#SVGID_4_);fill:#67C1BF;}
	.st92{clip-path:url(#SVGID_4_);fill:#66C1BF;}
	.st93{clip-path:url(#SVGID_4_);fill:#040608;}
	.st94{clip-path:url(#SVGID_4_);fill:#66C1C0;}
	.st95{clip-path:url(#SVGID_4_);fill:#64C0BE;}
	.st96{clip-path:url(#SVGID_4_);fill:#5DC0C8;}
	.st97{clip-path:url(#SVGID_4_);fill:#66C1C1;}
	.st98{clip-path:url(#SVGID_4_);fill:#65C1C2;}
	.st99{clip-path:url(#SVGID_4_);fill:#040506;}
	.st100{clip-path:url(#SVGID_4_);fill:#080909;}
	.st101{clip-path:url(#SVGID_4_);fill:#141515;}
	.st102{clip-path:url(#SVGID_4_);fill:#141414;}
	.st103{clip-path:url(#SVGID_4_);fill:#0C0D0D;}
	.st104{clip-path:url(#SVGID_4_);fill:#030405;}
	.st105{clip-path:url(#SVGID_4_);fill:#030404;}
	.st106{clip-path:url(#SVGID_4_);fill:#8AD1EA;}
	.st107{clip-path:url(#SVGID_4_);fill:#3BB0DE;}
	.st108{clip-path:url(#SVGID_4_);fill:#4AA9DF;}
	.st109{clip-path:url(#SVGID_4_);fill:#46ABE1;}
	.st110{clip-path:url(#SVGID_4_);fill:#2D79AA;}
	.st111{clip-path:url(#SVGID_4_);fill:#45ACE2;}
	.st112{clip-path:url(#SVGID_4_);fill:#44ADE3;}
	.st113{clip-path:url(#SVGID_4_);fill:#47ABE1;}
	.st114{clip-path:url(#SVGID_4_);fill:#43ADE3;}
	.st115{clip-path:url(#SVGID_4_);fill:#43AFE4;}
	.st116{clip-path:url(#SVGID_4_);fill:#E6EDEF;}
	.st117{fill:#65BCE3;stroke:#67BDE4;stroke-miterlimit:10;}
	.st118{fill:#020203;stroke:#F6F6F6;stroke-width:4;stroke-miterlimit:10;}
	.st119{fill:#346892;stroke:#F6F6F6;stroke-width:3;stroke-miterlimit:10;}
	.st120{fill:none;stroke:#F6F6F6;stroke-width:4;stroke-miterlimit:10;}
	.st121{fill:#FFFFFF;stroke:#F6F6F6;stroke-width:4;stroke-miterlimit:10;}
</style>
<g>
	<g>
		<defs>
			<rect id="SVGID_1_" x="364" y="11.8" width="447.4" height="447.4"/>
		</defs>
		<clipPath id="SVGID_2_">
			<use xlink:href="#SVGID_1_"  style="overflow:visible;"/>
		</clipPath>
		<g class="st0">
			<defs>
				<rect id="SVGID_3_" x="364" y="11.8" width="447.4" height="447.4"/>
			</defs>
			<clipPath id="SVGID_4_">
				<use xlink:href="#SVGID_3_"  style="overflow:visible;"/>
			</clipPath>
			<path class="st1" d="M689.2,296.4c2.2,3.4,5,5.3,7.9,7c3.1,1.9,6,4,8.5,6.6c8,6.8,9.5,15.3,9.4,18.9c-0.1,2.3-0.4,4.7-0.7,7
				c-0.3,2.6-1.5,4.8-3.2,6.7c-0.8,0.9-1.6,1.7-2.4,2.6c-5.8,7-13.7,9.3-22.4,9.7c-4.2,0.2-8.4,0-12.6-0.7c-1.1-0.2-1.3,0.3-1.6,1
				c-0.9,2.6-2.2,4.9-4,6.9c-4.5,5-10,8-16.7,8.3c-6.3,0.3-12.6,0.1-18.7-1.8c-4.2-1.3-6.3-2.4-9.1-5c-0.4,0.8,0,1.9-0.8,2.4
				c-0.8,0.5-1.5,1-2.3,1.5c-4.2,2.9-9.2,3.6-14.1,4.4c-3.6,0.6-7.3,1.3-10.9,2.1c-4.4,0.9-8.8,1.2-13.3,0.8
				c-1.7-0.1-3.5,0.2-5.3,0.2c-13,0.3-26-0.4-39.1-0.7c-5.4-0.1-10.8-0.1-16.1-0.3c-4.4-0.2-8.7-0.5-13.1-0.8c-1-0.1-2-0.2-3-0.1
				c-3.2,0.1-4.5-1.5-4.2-5.1c0.1-1.6,0.1-3.1-0.3-4.6c-3.1-12.8-6.5-25.6-9.8-38.3c-2-7.6-3.8-15.3-5.8-23
				c-0.5-1.9,0.4-3.2,1.4-4.6c0.6-0.8,1.5-0.5,2.4-0.5c7.7,0,15.5-0.1,23.2,0c2.1,0,3.4-0.5,4.5-2.4c2-3.3,5.3-4.8,8.9-5.7
				c1.9-0.4,2.6-1.5,2.5-3.1c-0.2-3.8,1.3-7.1,2.4-10.5c1.6-4.5,2.7-9.1,4.5-13.6c1.8-4.6,4.6-8.6,7.3-12.6c0.3-0.5,0.8-0.9,1.3-1.2
				c1.2-0.7,1.8-1.9,2.4-3.1c1.3-2.9,2.4-5.6,1.6-9.1c-0.7-3.1,0-6.5-0.8-9.7c-0.3-1.2-0.8-2.3-1.8-3.2
				c-6.3-5.7-10.7-12.7-12.1-21.2c-0.3-1.8-1-3.4-1.8-4.9c-0.6-1-1.1-1.8-2.4-2.3c-1.9-0.7-2.3-3.5-0.9-5.1c1.1-1.4,2.6-2.4,4.2-3.1
				c3-1.4,6.1-2.6,9.1-3.8c0.4-2.3,0.7-4.7,1.2-7c0.8-4.2,1-8.5,1.3-12.8c0.3-3.2,0.9-6.2,2.5-9.1c1.3-2.5,2.3-5.2,3.4-7.9
				c3.7-8.4,8.9-15.8,15.3-22.3c1.3-1.3,2.8-2.4,4.4-3.4c3.1-1.9,5.8-4.3,8.9-6.2c6.5-3.8,13.5-6.1,21-7.4c6.1-1,12.3-1.2,18.3-0.8
				c6.7,0.5,13.2,2.1,19.5,4.4c2.9,1.1,5.7,2.5,8.3,4.2c1.3,0.9,2.7,1.7,4.1,2.5c5.4,3.2,9.3,7.9,13.4,12.5
				c3.8,4.3,6.8,9.2,9.9,13.9c0.2,0.3,0.3,0.8,0.8,1c3.5,0.9,6,3.9,9.7,4.4c0.1,0,0.2,0.1,0.2,0.1c2.9,2.1,6.3,3.4,9.3,5.4
				c1.4,1,8.5,10.1,9.3,11.7c0.6,1.1,1.2,2.1,2.1,3.1c1.4,1.5,2.7,3.2,3,5.4c0.2,1.3,0.9,2.5,1.7,3.6c2.6,3.5,4.4,7.3,5,11.7
				c0.2,1.5,0.9,2.9,1.6,4.2c0.3,0.6,0.9,1.2,0.9,1.8c0.2,4.2,2.6,7.9,2.5,12.2c-0.1,3.8,0,7.7,1.1,11.5c0.6,2.1,0.2,4.3-0.2,6.5
				c-0.4,1.9-0.3,3.7,0.4,5.6c1.3,3.6,1.1,7.4,0.4,11.2c-0.3,1.7-0.8,3.4-0.8,5.2c0,1.1-0.1,2.3-0.9,3.1c-1.1,1.1-1,2.3-0.7,3.5
				c0.8,3.1,0.2,5.9-0.8,8.8c-1,2.8-1.5,5.8-3.6,8.1c-0.5,0.6-0.4,1.4-0.5,2.2c-0.2,2.6-1.4,4.8-3.3,6.6c-1,0.9-1.8,1.9-2.2,3.3
				c-0.4,1.7-1.7,2.7-3.2,3.3c-1.8,0.8-3.1,1.9-4,3.7c-0.2,0.4-0.4,0.8-0.7,1C696.4,292.5,694.1,296.6,689.2,296.4"/>
			<path class="st2" d="M669.9,239.9c-2.5,2.8-5.2,5.4-6.9,8.9c-2.5,5.1-4.7,10.4-5.9,16c-0.2,1.1-0.6,1.8-1.6,2.3
				c-2.1,1-3.3,2.8-2.7,5.1c0.7,3.2-0.6,5.4-3,7.3c-1.4,1.2-2.4,2.8-4,3.8c-1.4-1-1-2.8-1.7-4.1c-3.5-7.1-6.3-14.6-11.9-20.6
				c-7.3-7.7-15.8-12.8-26.5-14.1c-9.7-1.1-19.3-0.5-28.8,0.7c-10,1.2-17.8,6.5-23.4,14.9c-0.3,0.5-0.5,1.8-1.1,2.1
				c-1.1-3.9-1.5-9-1.2-13.2c0.2-3.3,0.3-6.5,0.4-9.8c0-0.9-0.2-1.8-0.5-2.7c-1.1-3.6-0.9-7.3-1-11c0-1.1,0.5-1.3,1.5-1.1
				c1.6,0.3,3.2,0,4.8-0.1c7.1-0.5,12.4-4.4,16.7-9.7c1.9-2.3,2.6-5.4,3.7-8.2c1.1-3.1,1.2-6.4,1.4-9.6c0.1-1.8-0.7-3.6-0.2-5.6
				c1.7,0.6,3.4,0.6,5.1-0.1c0.7-0.3,1.6-0.3,2.5-0.3c1.2-0.1,2,0.4,2.4,1.7c1.6,4.8,3,9.6,4.1,14.5c1.8,7.6,10.6,13.1,15.6,13.8
				c5.3,0.8,10.2-0.2,15-2.1c3.9-1.5,6.8-4.5,9.2-8c1.4-2.1,2.4-4.4,3.3-6.7c1.6-2.6,2.3-5.5,2.4-8.5c0-2.7,0-5.5,0-8.2
				c0-1.1-0.1-2.2,1.2-2.7c2.2-1.5,2.4-2.3,1.4-5.6c0.2-4.8-0.1-5.2-5-6.3c-15.2-3.3-30.1-2.1-44.7,2.8c-1.3,0.4-2.6,0.7-3.9,0.2
				c-3.6-1.2-7-0.6-10.2,1.3c-2,1.1-3.8,1.1-6,0.5c-5.5-1.6-11.2-2.2-17-1.9c-1.8,0.1-3.5,0.6-5.1,1.2c-0.9,0.3-1.9,0.8-2.9,0
				c0.2-5.5,0.5-11,1.5-16.5c0.8-4.4,2.8-8.2,4.4-12.2c2.6-6.6,6.3-12.5,10.7-18.1c1.1-1.5,2.9-3.5,4.4-4.6c2.6-1.5,4.8-2.1,7.5-3.5
				c1.4-0.7,2.4-1.7,3.2-3.1c0.6-1.1,1.3-2.1,2.6-2.5c6.7-1.9,13.6-2.5,20.5-2.7c0.7,0,2.8,1,3.8,1c2.7,0.1,4.7,0,7.4-0.1
				c2.4,0.5,4.9,0.9,7.3,1.5c1.2,1.8,3.1,0.5,4.6,1.1c1.5,0.6,3.2,0.8,4.5,1.8c0.4,0.9,0.6,2,0.3,2.9c-0.8,2.2,0.4,2,1.9,2.1
				c3,0,5.9-1,9-0.6c5.2,3.9,11.4,6.8,14.8,12.6c3.9,6.7,7.8,13.5,10.1,21c1.3,4.3,2.9,8.6,3.8,13c1.5,7.9,3.3,15.8,3.5,23.8
				c0.1,3.4,0.3,6.9,0.4,10.3c0.3,5.8-0.3,11.6-0.8,17.3c-0.3,4.4,0.3,8.9-0.1,13.3C670.4,236.5,670.7,238.2,669.9,239.9"/>
			<path class="st3" d="M570,299.8c2.9,7.9,4.4,16.1,6.5,24.2c3.4,12.8,6.8,25.6,10.1,38.3c0.1,2.1-0.6,3.9-1.6,4.1
				c-0.8-3-3-3.7-4.2-3.7c-1.2,0-2.2,0.3-2.6,1.5c-0.3,1-1,1.2-1.9,1.2c-4.5-0.1-9.1,0.1-13.6-0.4c-0.7-0.1-1.5-0.1-2.3-0.1
				c-15.3-0.6-30.6-0.6-45.8-0.5c-1.3,0-2.2-0.2-3.1-1.2c-2.2-2.5-3.5-2.5-5.9-0.2c-0.8,0.7-1.2,0.4-1.4-0.4c-0.5-1.9-1-3.9-1.5-5.8
				c-4.5-17.8-9.1-35.6-13.6-53.4c-0.9-3.4-0.8-3.4,2.5-3.5c10.4,0,20.8,0,31.2-0.1c4.3-0.1,8.5,0.1,12.8,0
				c7.6-0.1,15.1-0.3,22.7-0.5c1.3,0,2.7-0.3,4-0.4c0.1,0,0.1-0.1,0.2-0.1c5.1-0.5,5-0.5,6.3,4.5c4.5,17.5,9.2,35,13.9,52.5
				c0.3,1.1,0.5,2.2,0.9,3.3c-4.2-15.9-8.4-31.9-12.5-47.8c-0.8-3.2-1.5-6.4-2.5-9.5C568.3,300.5,568.1,299.3,570,299.8"/>
			<path class="st4" d="M552.3,261.6c0.4-2.1,1.8-3.7,3.2-5.3c2.7-3.1,6-5.6,9.5-7.8c2.8-1.8,6.3-2.7,9.6-3.4
				c3.8-0.8,7.6-1,11.5-1.1c4-0.1,8-0.5,12-0.5c5.5,0,10.8,1,16.1,2.4c4.7,1.3,8.5,4.1,12.4,6.9c2.7,1.9,5.1,4.1,7.1,6.7
				c2.2,2.8,4.5,5.6,6,8.9c1.2,2.7,2.4,5.3,3.8,7.9c1.2,2.2,2,4.6,2.3,7.1c-3,3.3-6.4,6.2-10,8.7c-2.3,1.6-4.1,3.7-6.7,4.8
				c-5-2.7-10.1-5.3-15.6-6.7c-8-2.1-15.6-1.8-22.7,2.9c-1.1,0.7-2.1,1.4-2.2,2.9c-0.2,2.2,1.3,3.9,3.6,3.9c1.1,0,2.2-0.1,3.2-0.6
				c2.7-1.3,5.3-1.1,8.1-0.2c3.8,1.2,7.3,2.9,10.6,5.2c1.1,0.8,2.6,1.5,2,3.4c-1.5,1.4-1.5,1.4-3,0.4c-2.6-1.9-5.6-2.8-8.8-3.5
				c-5-1.2-10-1-15-0.7c-1.4,0.1-2.8,0.6-4.1,1.1c-1.3,0.5-2.6,1.1-3.9,1.6c-1.7,0.7-2.6,2-3.2,3.7c-0.4,0.6-0.1,1.3-0.2,1.9
				c-0.1,0.5,0.3,1.8,0.7,2.2c-0.7,0.2-2-1.2-2.4-1.7c-1.1-4.5-2.2-8.9-4.1-13.2c-0.6-1.3-1.3-2.3-2.6-2.9c-1.6-0.7-3.3-0.3-4.9-0.2
				c-1.7,0-2.9-0.5-4.1-1.9c-2.2-2.6-3.4-5.7-4.9-8.7c-0.7-1.3-1.3-2.7-2.2-3.9c-1.2-3.5-1-6.9,0.5-10.2c0.6-1.3,1.1-2.6,1.4-4
				c0.3-1.2,0-2.8-1.2-3C552.2,264.1,552.3,262.9,552.3,261.6"/>
			<path class="st5" d="M590.6,305.9c2.1-0.9,4.3-0.5,6.5-0.3c3,0.3,6,0.9,8.9,1.6c3.7,0.8,6.6,3,9.2,5.8c2.5,2.8,5.2,5.5,7.9,8.1
				c3.1,3,6,6.1,9,9.1c3.5,3.5,7.6,5.7,12.8,5.5c1.8-0.1,3.2-0.8,4.4-2.2c-1.5,0.1-2.9,0.1-4.3,0c-3.2-0.2-5.9-1.8-8.8-2.9
				c-0.2-0.1-0.4-0.3-0.6-0.4c-0.8-0.7-0.7-1.4,0.3-1.6c2.2-0.6,4.1-1.9,6.3-2.5c4-1,7.3-3.4,10.6-5.6c4.1-2.8,8.6-5,12.6-7.8
				c2.4-1.7,4.9-3.2,6.9-5.4c0.5-0.5,1-0.9,1.5-1.3c3.9-2.8,7.4-6,10.4-9.8c0.1-0.1,0.3-0.2,0.6-0.3c0.9,0.9,2,1.7,2.8,2.8
				c3.2,4.3,7.3,7.3,11.9,9.9c2.2,1.2,3.9,3.2,5.5,5.1c1.7,2.1,3.3,4.2,4.9,6.4c1.8,2.3,2.8,4.9,2.8,7.9c0,0.4,0,0.8,0,1.3
				c0.9,6.1-1.7,10.7-5.8,14.9c-5.1,5.3-11.6,7.6-18.7,8.1c-3.9,0.2-7.9,0.1-11.8-0.4c-0.5-0.1-1-0.2-1.5-0.2
				c-1.2-0.1-1.7-0.8-1.6-2c0.2-2.1,0-4.2,0.3-6.3c0.4-3-0.1-5.8-0.9-8.7c-0.8-3.2-0.2-4.5,2.7-6.2c1.4-0.8,2.8-1.6,4.3-2.1
				c2.3-0.8,3.8-2.5,5-4.4c0.2-0.3,0.5-0.7,0.6-1.1c0.2-0.7,0.3-1.6-0.6-2c-1-0.3-1.1,0.6-1.2,1.2c-0.4,1.8-1.8,2.6-3.4,3
				c-3.3,1-6.3,2.3-8.5,5c-0.7,0.8-1.4,0.7-2.2,0.1c-1.4-1.2-2.8-2.3-4.3-3.5c-0.6-0.5-1.2-1.2-2.1-1.5c0,1.5,0.7,2.5,1.6,3.3
				c6.2,4.4,6.4,16.6,6.4,19.8c0.1,3.5-0.9,6.5-2.2,9.6c-2.4,5.8-6.9,9.4-12.7,10.9c-5.6,1.5-11.5,1.3-17.2,0.1
				c-1.6-0.3-3.3-0.7-4.9-1.1c-3.4-0.7-6.6-2.2-9.3-4.2c-1.5-1.1-2.7-2.7-4.3-3.7c0.8-0.8,1.7-0.3,2.6-0.1c9.6,2.3,18.6,1,26.8-4.8
				c0.6-0.4,1.2-1,1.8-1.4c7.2-4.4,7.7-11.5,7.3-18.8c-0.1-1.9-1.9-2.2-3.4-2.4c-1.7-0.2-3.6-0.1-4.1,2c-0.8,3.4-3.2,4.6-6.3,5.1
				c-4.3,0.7-8.2-0.1-12.1-2.1c-9.4-5-16.6-12.4-22.6-21c-2.3-3.3-6-4.5-9.6-5.7c-3-1-6-2.3-9.2-2.3
				C591.3,306.5,590.9,306.3,590.6,305.9"/>
			<path class="st5" d="M669.9,239.9c-0.5-2.4,0.1-4.8,0-7.2c0-1.6,0-3.1,0-4.7c-0.1-6,0.4-12,0.9-18c0.2-2.7,0.3-5.4-0.2-8
				c-0.2-0.9-0.2-1.8-0.2-2.8c0.2-5.6-0.6-11.2-1.1-16.8c-0.1-1.2-0.5-2.4-0.8-3.7c-0.9-4.6-1.9-9.1-2.7-13.7
				c-0.3-1.4-1.1-2.6-1.5-3.9c-1.6-5.9-3.7-11.6-6.9-16.9c-0.8-1.3-1.4-2.7-2-4.1c-2.1-4.8-5.5-8.5-9.9-11.3
				c-2.4-1.6-4.5-3.5-6.7-5.2c1.5-1.4,3.5-1.1,5.3-1.2c2.3-0.1,3.8-0.9,4.8-2.8c2.9,1.9,5.3,4.3,7.7,6.8c3.6,3.7,6.5,8,9.3,12.4
				c2.4,3.8,5.3,7.3,7.2,11.5c2,4.7,4.8,9.1,5.9,14.1c0.8,3.6,0.8,7.3,1.1,11c0.1,0.9,0,1.9,0.2,2.8c1.1,4.9,1.4,9.9,2,14.9
				c0.6,4.7,1,9.5,1.6,14.2c0.1,1.1,0.2,2.2,0.2,3.3c0,1.9,0.2,3.7,0.8,5.4c0.5,1.4,0.7,2.9,0.7,4.5c0,2.9,0,5.9-0.1,8.8
				c-0.1,2-0.9,3-2.8,3.2c-3.1,0.3-5.5,1.9-7.8,3.8C673.2,237.4,671.8,239,669.9,239.9"/>
			<path class="st5" d="M672.3,261.5c2.3-4.6,4.1-9.6,6.8-14c1-1.7,2.3-3.1,3.8-4.3c1.7-1.4,3.3-1.1,4.4,0.8
				c0.6,1.1,1.2,2.3,1.1,3.6c0,2.1,0.4,4.2,0.9,6.2c1,4.3,0.9,8.7,1.7,13c0.5,2.8-0.6,5.6-0.7,8.5c-0.2,5.9-3.2,10.7-6.4,15.3
				c-4.2,6.1-9.4,11.4-15.2,16c-4.2,3.3-8.4,6.6-13.3,9.1c-3.6,1.8-6.9,4.2-10.2,6.4c-1.2,0.8-2.5,1.4-3.8,1.9c-2.3,0.7-4.7,1-7,2
				c-1.3,0.6-2.6,0.3-3.7-0.7c-2.5-2.3-5.2-4.4-7.5-7c-2.3-2.6-4.7-5-7.1-7.6c2.2-2.6,5.3-4,7.9-6.1c2.9,1.1,4.9,3.5,7.1,5.4
				c2.3,2,4.3,4.2,6.4,6.3c2.6,4,2.6,4,6.2,0.9c2.5-2.1,5-4.2,7.5-6.4c9-7.8,14.9-17.8,20.7-28C675.9,275.8,675.8,268.7,672.3,261.5
				"/>
			<path class="st4" d="M618.4,355.9c-2.1-2.1-3.1-4.6-3.6-7.5c-0.7-3.8-2-7.4-3.6-10.9c-2.5-5.7-7.1-9.7-10.8-14.3
				c-3.1-3.9-6.9-7.2-11.5-9.1c-1.1-0.5-0.6-1.6-1.5-2.2c-0.7,0.6-1.4,1.3-2.2,1.9c-1.6,1.3-3.5,1.4-4.5,0.3c-1-1.1-0.6-4.2,0.8-5.3
				c0.5-0.4,1.1-0.8,1.8-0.8c8.5-2,15.8,1.2,22.8,5.6c1.1,0.7,2,1.8,2.6,3c1.8,3.5,4.2,6.5,7.1,9.1c3.1,2.8,4.7,6.7,7.9,9.5
				c4.7,4.1,9.6,7.7,16,8.5c1.9,0.2,3.4,1.2,4,3c0.6,1.8-0.6,3-1.7,4.2C637.3,356.1,626.5,359.7,618.4,355.9"/>
			<path class="st2" d="M672.3,261.5c0.5,0.1,0.9,0.3,1.1,0.9c0.9,2.9,2.2,5.7,2.4,8.7c0.2,3.4-0.7,6.6-2.2,9.7
				c-2.7,5.5-6,10.6-9.2,15.8c-4.1,6.8-9.9,12-15.7,17.2c-2.3,2.1-4.7,4-7.1,6c-1.8,1.5-2.2,1.4-3.3-0.7c-0.4-0.8-0.9-1.6-1.3-2.4
				c3.1-4.2,7-7.7,10.7-11.3c4-4,3.1-7.2,0.7-11.3c-1.3-2.2-3.5-1.5-5.5-1.1c-1.3,0.3-2.7,1.3-3.8-0.5c6.1-4.6,11.2-10.4,17.2-15.1
				c2.8-2.2,5.8-4.3,8.6-6.5c2.5-1.9,4.4-4.6,6.1-7.3C671.5,262.8,671.9,262.2,672.3,261.5"/>
			<path class="st2" d="M618.4,355.9c1,0,2-0.2,3,0.2c3.3,1.4,6.7,0.9,9.9,0c4.1-1.1,8.1-2.9,10.8-6.5c0.7-0.9,1.5-1.8,1-2.9
				c-0.6-1.2-1.4-2.4-3-2.4c-5-0.3-9.2-2.5-13-5.4c-3.6-2.7-17.1-18.1-19.2-22.3c-1.1-2.2-3.2-3.5-5.3-4.5
				c-5.3-2.5-10.8-4.6-16.9-4.1c-0.8,0.1-1.7,0-2.5,0c2.4-1.2,4.9-1.7,7.5-2.1c6.2-0.1,11.6,2.4,16.9,5c1.6,0.8,3,2,3.9,3.7
				c1.1,2,2.5,3.8,4.1,5.4c1.8,1.8,3.2,3.8,5.1,5.6c3.4,3.3,7,6.2,11.3,8.3c0.2,0.1,6.1,5.3,14.8,2.8c2.1-0.4,3.8-2,4-4.2
				c0.1-1.3,0.7-1.9,1.8-2.4c2.1-0.9,4.1-0.4,6.1,0.5c0.8,0.4,1.1,0.9,1.1,1.8c0,3.7-0.1,7.3-0.9,11c-0.9,4-3.3,6.5-6.5,8.5
				c-1.5,1-2.9,2.3-4.5,3.2c-3.3,2.1-6.8,3.1-10.6,3.8c-3.5,0.7-7,0.4-10.5,0.5c-1.3,0-2.5-0.4-3.6-0.9c-0.9-0.4-1.7-0.7-2.7-0.6
				C619.6,357.4,618.9,356.8,618.4,355.9"/>
			<path class="st6" d="M597.7,208.7c-2-3.4-4.8-15-5-17.2c-0.3-3.7,0.4-5.2,3.9-6.6c5.7-2.3,11.7-3.5,17.9-3
				c4.5,0.4,9,0.9,13.5,1.5c2.2,0.3,2.5,0.6,2.5,2.9c0.1,2.3,0.2,4.7,0.3,7c0.3,5.7-1.7,10.7-5,15.2c-1,0.9-1.9,1.8-3.5,1.1
				c-0.4-0.6-0.2-1.1,0-1.7c1.2-5.3-1.2-9.9-5.5-13.2c-5.6-4.2-15.1-1.3-17.6,5.1c-1,2.7-1.6,5.3-0.1,8c0.3,0.5,0.6,1.2,0.1,1.6
				C598.4,210.1,598.2,209,597.7,208.7"/>
			<path class="st6" d="M546,216.3c-2-1.6-3.9-3.9-4.9-6.3c-2.5-5.5-3.7-11.3-4.2-17.2c-0.1-1.2,0.2-1.6,1.2-2.1
				c10.1-4.9,21.5-4.4,24.3-4.3c2.6,0.1,5.2,0.6,7.2,2.4c0.6,0.5,1.1,1,1.4,1.8c1.8,5.5,2.3,11,0.3,16.5c-0.3,0.8-0.7,1.5-1.4,2.8
				c-1.3,0.1-1.2-1.7-1.4-2.6c-0.5-3.1-2.4-5.3-4.7-7.2c-2.8-2.3-6-3.1-9.6-1.7c-3.3,1.3-6.5,2.6-8.3,6.1c-0.7,1.4-1,2.8-0.3,4.3
				c0.8,1.7,1.1,3.5,1.8,5.2C548,215.6,547.8,216.9,546,216.3"/>
			<path class="st7" d="M545.3,176.9c0.6,0,1.2,0,1.7-0.3c4.6-2.4,9.5-1.9,14.3-1.5c3.1,0.2,6.3,0.8,9.3,1.8
				c0.5,0.2,1.2,0.2,1.6,0.6c0.6,0.6,1.1,0.2,1.8-0.1c1.2-0.7,2.5-1.3,3.8-1.9c2.6-1.2,5.4-1.4,8.1-0.5c1.7,0.6,3.1,0.4,4.8-0.4
				c2.3-1,5-1.5,7.5-2.1c5.6-1.3,11.3-2.3,17.1-2.2c4.8,0.1,9.6-0.4,14.3,0.5c2.7,0.5,5.4,1,8.1,1.7c3.4,0.9,4.3,3.6,2.4,6.5
				c-3.1-1.2-6.3-2.1-9.7-2.3c-3.4-0.3-6.8-0.7-10.2-1.2c-5.3-0.8-10.5,0.1-15.8,0.6c-4.8,0.5-9.1,2.2-13.3,4.3c-2,1-2.4,1-3.9-0.8
				c-0.6-0.7-1.2-0.8-2-0.8c-3.2,0.1-6.3,0.8-9.3,1.9c-0.3,0.1-0.7,0.2-0.9,0.5c-1.1,2.2-2.6,1.3-4.2,0.8
				c-6.5-2.3-13.2-2.2-19.9-1.2c-1.8,0.2-3.6,0.7-5.6,0.7V176.9z"/>
			<path class="st5" d="M616,307.5c-0.2-1.5-1.4-2.3-2.5-3c-3.6-2.2-7.3-4.2-11.4-5.2c-2.1-0.5-4.2-0.8-6.3,0.5
				c-0.9,0.6-2,0.7-3.1,0.8c-2.1,0.1-3.9-0.7-4.5-2.4c-0.9-2.6-0.5-3.9,1.7-5.4c7.1-4.9,14.9-5.5,23.1-3.4c5.1,1.3,10,3.2,14.6,6
				c0.7,0.4,1.3,0.8,1.5,1.5c-0.2,0.5-0.6,0.8-1,1.1C623.7,300.7,620,304.4,616,307.5"/>
			<path class="st8" d="M621,364.3c-2.2,1.8-4,3.8-7,4.4c-5.7,1.2-11.5,2.2-17.5,3.2c0.4-0.9,1-1.5,0.6-2.4
				c-0.2-0.4-0.4-0.7-0.8-0.9c-0.9-0.5-3.1,0-3.5,0.8c-0.3,1.9,2.8,0.9,4.4,1c0.8,0,0.5,0.7,0.6,1.3c-5.4,0.9-12.9,1.5-17.6,1.1
				c-0.8-0.1-1.7-0.2-2.5-0.3c-8.4-0.2-16.8-0.3-25.2-0.6c-11.2-0.5-22.3-0.4-33.5-0.4c-4.3,0-8.6,0.1-12.8-0.4
				c-2-0.2-3-1.5-2.5-3.4c0.1-0.5,0.2-1.2,1-1.2c0.6,0,1.2,0.1,1.4,0.8c0.8,2.1,2.4,2.3,4.3,2.1c1.3-0.1,2.6-0.1,2.7-1.9
				c0.1-0.7,0.7-0.8,1.4-0.7c11.7,0.3,23.3,0.4,35,0.8c9,0.3,17.9,1,26.9,0.9c1.1,0,1.9,0.3,2.6,1.2c1,1.3,4.4,1.9,5.8,1.2
				c0.2-0.1,0.5-0.3,0.5-0.5c0.3-1.9,1.8-1.7,3.1-1.8c6.4-0.4,12.6-1.5,18.9-2.4C611.9,365.6,616.4,364.9,621,364.3"/>
			<path class="st9" d="M597.7,208.7c0.4,0.2,0.9,0.4,1.3,0.6c0.3-0.4,0-0.6-0.2-0.9c-2-2.9-1.5-5.8-0.1-8.7
				c0.8-1.8,1.9-3.3,3.3-4.7c3.3-3.1,10.1-3.8,14-1.4c0.1,0,0.1,0.1,0.2,0.1c4.3,1.8,6.2,5.2,7.1,9.6c0.5,2.3-0.1,4.3-0.8,6.3
				c0,0.6-0.3,1-0.8,1.1c-3.7,1.4-7.5,2.5-11.6,2.1c-0.6-0.4-0.7-1.1-0.8-1.7c-0.2-1.8-1.1-2.9-3-3c-2.1,0-3.2,1.1-3.4,3.1
				c-1,2-2.2,1-3.4,0.3C598.7,210.8,598,209.9,597.7,208.7"/>
			<path class="st4" d="M639.1,292.4c0.9,0.6,1.9,0.5,2.9,0.1c1.1-0.4,2.2-0.6,3.4-0.6c2-0.1,3.2,0.8,3.9,2.5
				c0.5,1.2,1.2,2.4,1.6,3.7c0.7,2.6,0,5-1.9,6.9c-2,2.1-4.2,4.1-6.3,6.2c-1.2,1.2-2.5,2.4-3.5,3.9c-0.5,0.7-1.1,1.5-2.2,1.6
				c-3.2-2.8-6-6-9.2-8.7c-1-0.9-1.9-1.8-3.2-2.3c-0.4-0.2-0.6-0.5-0.7-1c1-0.8,2.2-1.6,3.1-2.5
				C630.7,298.3,634.8,295.2,639.1,292.4"/>
			<path class="st4" d="M553.3,286.5c1.2,2.7,2.4,5.3,3.6,8c0.7,1.7,0.5,2.1-1.2,2.2c-3.6,0.2-7.2,0.3-10.8,0.4
				c-4.1,0.1-8.2,0.1-12.3,0.2c-1.3,0-2-0.5-2.2-1.8c-0.7-4-0.6-8,0.4-11.9c0.9-3,3.1-3.9,6-4.3
				C543.8,278.2,548.8,281.7,553.3,286.5"/>
			<path class="st4" d="M584.6,316.7c2.1-1.9,4.1-1.1,6.1,0.3c3.6,2.4,6.2,5.8,9.1,9c0.6,0.7,0.3,1.1-0.3,1.7
				c-2,1.9-3.6,4.1-5.2,6.4c-1.4,2-2.3,4.2-2.6,6.7c-0.2,1.6-0.8,3.1-1,4.6c-0.7,4.3,0.5,6.5,5.1,7.6c-0.9,2.9-5,4.4-8,3
				c-1.2-4.8-2.6-9.5-4.2-14.2c-0.7-2-1.3-4.1-1.9-6.2c0.8-0.7,1.7-0.5,2.5-0.7c2.1-0.5,2.9-1.4,3-3.7c0.1-3.5-1.7-5.8-4.5-7.5
				c0.5-2.2,0.1-4.3,0-6.5l0,0C583.8,317.1,584,317.1,584.6,316.7"/>
			<path class="st9" d="M545.8,216.1c0.9-0.2,2-0.5,1.1-1.9c-1.2-1.9-1.5-4.2-2.3-6.3c-0.8-2.2,0.8-4,2-5.7c1.3-1.9,3.5-2.8,5.6-3.7
				c6.9-3.1,14,0,16.7,7.1c0.2,0.6,0.3,1.1,0.3,1.7c0,0.8,0.3,1.6,1.1,2c-0.8,1.5-1.8,2.6-2.8,3.8c-1.4,1.5-2.2,0.6-2.8-0.8
				c-0.4-0.8-0.9-1.7-1.9-1.8c-1.2-0.2-2.6-0.6-3.6,0.4c-0.9,0.9-0.5,2-0.1,3.1c0.1,0.5,0.3,0.9,0.2,1.5c-1,1.4-2.6,1.1-3.9,1.2
				c-3,0.4-6,0.8-8.9-0.4C546,216.2,546.2,216.3,545.8,216.1"/>
			<path class="st2" d="M553.4,286.8c-3-1.5-5.2-4.5-8.3-5.7c-2.4-0.9-4.7-1.6-7.3-1c-0.4,0.1-0.8,0.1-1.2,0.1c-2.4-0.2-4,1-5.2,2.8
				c-0.2,0.3-0.4,0.5-0.6,0.8c-0.1-1.7,0.3-3.3,0.8-4.9c1.4-3.8,2.8-7.7,4.2-11.5c2.1-5.5,4.2-11.2,8.4-15.6
				c0.2-0.2,0.3-0.6,0.6-0.8c0.6,0.8,0.4,1.4,0.3,2c-0.6,6.2-0.7,12.4,1.3,18.4c0.5,1.6,1.3,3.1,2,4.6
				C550.1,279.6,552.3,283,553.4,286.8"/>
			<path class="st10" d="M587.7,355.9c2.6,0.1,5-0.3,7.1-1.9c0.4-0.3,0.8-0.6,1-1.1c3.5-1.1,4.9-2.9,4.6-6.5
				c-0.1-1.6,0.4-2.4,1.6-3.3c2.2-1.5,4.2-3.2,6.4-5c2,4.7,4.6,8.9,4.7,14.1c-1.7,0.7-3.8,0.7-5.7,1.1c-4.1,0.9-7.7,2.7-10.9,5.3
				c-1.1,0.9-2.1,0.9-3.4,0.8c-1-0.1-2.1,0-3.1,0.1c-1.3,0.1-1.8-0.4-1.8-1.7C588,357.2,587.8,356.5,587.7,355.9"/>
			<path class="st11" d="M709.7,236.9c0,1.2-0.9,1.3-1.7,1.4c-1.5,0.2-2.9,0.8-4.2,1.6c-3,1.7-5.9,3.4-8.9,5.1
				c-0.4,0.2-0.7,0.5-1.1,0.6c-1.9,0.9-2.7,0.4-2.9-1.5c-0.1-1.3-0.2-2.7,0.3-4c0.2-0.5,0.4-1.2,0.3-1.7c-0.5-2.3,0.9-3.4,2.5-4.5
				c3.2-2.3,6.5-4.7,9.7-7.1c0.5,3,2.3,5.4,3.5,8.1C707.8,236.3,708.5,236.7,709.7,236.9"/>
			<path class="st11" d="M702.6,211.6c-5.2,2.8-9.5,6.9-14.3,10.6c0.2-3.6,0.4-6.9-0.6-10.2c-0.3-1.2,0.1-2.5,1.1-3.4
				c1.5-1.4,3-2.9,4.6-4.2c1.3-1.2,2.6-2.3,3.7-3.7c0.7,1.6,1.6,3,2.8,4.4C701.5,206.9,702.2,209.2,702.6,211.6"/>
			<path class="st12" d="M672.5,247.6c-3,5-5.4,10.4-7.2,16c-1,3-2.4,5.9-5.4,7.6c-0.4,0.2-0.8,0.7-1.6,0.4c0.4-2.6,0.7-5.4,1.3-8.1
				c1-5.2,3.2-10,5.9-14.6c1.2-2,2.6-3.9,4.4-5.4C671.2,244.5,672.2,245.8,672.5,247.6"/>
			<path class="st13" d="M602.2,114.3c-7.8-0.1-15.4,1.1-23.1,2.5c-0.2-0.1-1.9,0.5-1.9,0.2c4.6-2.5,10.7-5.6,15.9-6.7
				c0.2,0.6-0.5,1.9,1.3,1.4c3.9-1.1,8.1-1.1,11.4-3.9c6.3-0.8,14.5-0.8,20.7,1c-2.4,2.2-4.9,5.6-7.6,7.6c-2.6-0.1-5.1-0.6-7.5-1.4
				c2-1.3,3.9-2.7,5.4-4.9c-4.9-0.2-9.7-0.9-13.1,3.5C603.4,114,602.9,114.3,602.2,114.3"/>
			<path class="st11" d="M703.6,224.8c-0.3,0.7-1,0.9-1.6,1.1c-3.8,1.6-7.1,4.2-10.5,6.4c-1,0.6-1.8,0.9-2.8,0.3
				c-1-0.6-0.9-1.5-0.7-2.4c0.2-0.7,0.2-1.5,0.2-2.2c0-1.4,0.7-2.3,1.7-3.2c3.6-3.1,7.2-6.3,10.8-9.4
				C702.4,218.2,704.5,221,703.6,224.8"/>
			<path class="st11" d="M696.6,197.6c-1.8,2-3.5,4-5.8,5.4c-0.6,0.4-1.1,0.8-1.8,0.9c-1.4,0.4-2.2-0.2-2.4-1.6
				c-0.2-1.6-0.6-3.3-0.7-4.9c-0.3-2.6,0.5-5,2.4-6.8c1.3-1.2,2.2-2.7,3.7-3.7c0.8,2.4,2,4.5,3.7,6.4
				C696.6,194.4,697,196,696.6,197.6"/>
			<path class="st14" d="M596.7,342.7c-0.4,0.2-0.4,0.6-0.5,1c0,2,1.6,3.6,1.1,5.7c-0.8,1.3-1.9,1.2-3.1,0.7c-1.1-0.5-2-1.3-2-2.7
				c0-0.7,0-1.5,0.1-2.2c0.8-4.9,2.2-9.6,5.7-13.4c0.8-0.9,1.5-2,2.2-3.1c1-1.3,1.1-1.3,2.1,0c0.9,1.2,1.8,2.4,2.7,3.6
				c0.8,0.5,0.3,1.1,0,1.5c-2.5,2.6-4.9,5.4-7.2,8.2C597.7,342.4,597.2,342.5,596.7,342.7"/>
			<path class="st15" d="M711.6,220.6c2.6,4.1,4.5,7.9,6.4,11.7c1.5,3,1.4,6.1,0.7,9.3c-1.2-0.2-1.6-1.4-2.3-2.2
				c-1.9-1.9-3.8-3.9-4.6-6.7c-0.3-1.2-1.3-2.1-1.9-3.2c-0.7-1.4-1.1-2.7,0.1-4.2C711,224.1,711.1,222.6,711.6,220.6"/>
			<path class="st16" d="M570,299.9c-0.7,0.1-1.4,0.3-1,1.2c1,2,1.4,4.3,2,6.5c4,16.7,8.6,33.3,12.8,49.9c0.4,1.4,0.8,2.8,0.4,4.3
				c-2.1-5-3.2-10.3-4.7-15.5c-1.5-5.2-2.8-10.5-4.2-15.8c-1.4-5.2-2.9-10.3-4.2-15.6c-1.3-5.3-3.3-10.4-3.6-16
				c-1.7-0.4-3.5,0.1-5.2-0.1c2.2-0.9,4.4-0.4,6.6-0.3C569.7,298.6,570,299.3,570,299.9"/>
			<path class="st15" d="M705.8,250.6c-3.7,1.8-7.9,2.3-11.8,3.3c-1.1,0.3-1.9-0.1-2.2-1.1c-0.5-1.2-1.1-2.5,0-3.8
				c0.4-0.5,1-0.9,1.6-1.2c4.1-1.6,7.6-4.2,11.4-6.3c0.8,1,0.3,2.1,0,3.1C704.2,246.8,704.4,248.8,705.8,250.6"/>
			<path class="st15" d="M709.3,205.6c1.8,1,2.9,2.2,3.6,3.7c1.1,2.6,3.3,4.4,4.4,7c1.3,2.7,1.3,5.4,0.7,8.7
				c-2.8-4.4-6.4-7.3-9.2-11.1c-0.5-0.8-1-1.6-1.4-2.4c-0.4-0.8-0.4-1.4,0.2-2.1C708.4,208.3,708.8,207.1,709.3,205.6"/>
			<path class="st17" d="M548.7,245.5c0.3,0.3,0.3,0.8,0.2,1.1c-0.7,6.1,0.1,12,1.8,17.9c0.3,1,0.4,2.2,0.4,3.2
				c0,0.9-0.1,1.8-0.9,2.5c-1.2,1-2.1,0.9-2.6-0.6c-0.8-2.4-1.4-4.8-1.4-7.4c0-2.3,0.2-4.7,0.2-7c0.1-2.9,1-5.8,1.6-8.6
				C548.1,246.2,548.1,245.7,548.7,245.5"/>
			<path class="st12" d="M696.6,197.6c-0.3-0.9-0.8-1.9-1-2.8c-0.2-1-0.6-1.7-1.4-2.3c-1.9-1.4-2.5-3.3-2.2-5.5c1-1.3,2.6-2,4.1-3.1
				c1,2.4,2.3,4.5,4.3,6.1c0.7,0.6,0.7,1.4,0.6,2.3C700.6,195,699.4,196.9,696.6,197.6"/>
			<path class="st18" d="M648.7,119.6c-0.2,3-0.6,3.3-3.4,3.4c-2.2,0.1-4.5,0.4-6.7,0.6c-3.8,0.7-7.6,0.7-11.4,1.2
				c-0.5,0.1-0.9-0.5-0.7-0.8c1-1.5,0.6-3.3,1-4.9c0.6-1.1,1.7-1.2,2.8-1.3c3.9-0.4,7.8-0.8,11.7-1.2c0.9-0.1,2-0.2,2.8,0.3
				c0.3,0.2,0.6,0.4,0.9,0.6c-1.1,1.4-1.8,1.5-2.9,1.6c-3.6,0.6-7.3,0.8-10.9,1.3c-0.6,0.4-1,1-0.7,1.7c0.3,0.7,1,0.3,1.6,0.3
				c0.9,0,1.8-0.2,2.7-0.4c2.4-0.2,4.8-0.8,7.2-0.7c1.3,0,2.2-0.5,2.7-1.8c0.3-0.6,0.5-1.6,1.6-1.1
				C647.6,118.8,648.2,119.2,648.7,119.6"/>
			<path class="st15" d="M704.1,260.5c-0.8,1.8-2.6,1.2-3.9,1.3c-1.6,0.2-3.3-0.1-5-0.4c-2-0.3-3.5-3.3-2.6-5.1
				c0.3-0.6,1-0.6,1.5-0.7c3.2-0.7,6.4-1.4,9.6-2.1c0.3,0.5,0.1,1-0.1,1.4C702.4,257,702.8,258.8,704.1,260.5"/>
			<path class="st19" d="M599.4,211.7c0.6,0.1,1.3,0.3,1.9,0.4c0.8,0.2,1-0.3,1.1-0.9c0.4-0.1,0.6,0.1,0.8,0.3
				c1.5,2,3.3,2.3,5.5,1.2c0.4-0.2,0.8-0.3,1.2-0.1c4.3-0.4,8.6-1,12.6-2.9c1.1-0.4,2.2-0.8,3.4-1.2c-2.9,4.3-7.2,6.2-12.1,7.4
				c-4.1,1-8,0.4-11.6-1.8C601.1,213.5,600.1,212.8,599.4,211.7"/>
			<path class="st13" d="M626.1,108.8c1.1,0.2,2.7,0.8,4.1,1.2c3.9,1.3,7.8,2.2,11.4,4.3c-0.8,0.9-1.8,0.7-2.8,0.8
				c-4.4,0-8.8,0.9-13.2,1.3c-0.8,0.1-1.5,0.2-2.2,0c-1-0.3-1.5-1.1-0.9-1.9C623.6,112.6,624.1,110.1,626.1,108.8"/>
			<path class="st20" d="M672.5,247.6c0-0.1,0-0.2-0.1-0.2c0,0-2.6-3.9-2.6-3.9c0.2-0.3,0.3-0.6,0.5-0.8c3.3-2.3,6.1-5.2,9.7-7.1
				c1.2-0.6,2.5-1.1,3.8-1.4c1.8-0.4,2.6,0.1,3.8,1.9c0,0.3-0.3,0.4-0.5,0.3c-3.6-0.3-6.3,1.3-8.6,3.8
				C676.4,242.6,674.3,245,672.5,247.6"/>
			<path class="st21" d="M707.7,192c1.1,1.2,2.2,2.5,3.4,3.7c2.2,2,3.8,4.5,5.2,7.1c1,2,0.9,4.3,1,7.1c-1.1-1.4-1.9-2.3-2.6-3.3
				c-1.9-2.5-3.8-4.9-6.2-6.9c-0.5-0.4-0.9-1-1.3-1.5C706.3,196,705.9,193.9,707.7,192"/>
			<path class="st22" d="M702.6,211.6c-0.8-0.3-0.9-0.9-1-1.6c-0.4-2.3-1.5-4.2-3.2-5.8c-1.1-1-1.5-2.1-1.2-3.6
				c1-1.1,2.1-2.1,3.4-2.9c1.2,1.1,1.2,2.7,2,4c0.6,1.1,1.3,2.1,2.2,2.9c1.3,1.3,1.5,2.7,0.4,4.2
				C704.4,209.9,703.9,211.2,702.6,211.6"/>
			<path class="st18" d="M626.2,108.8c-1,1.9-1.6,4.2-3.3,5.7c-0.3,0.2-0.5,0.5-0.4,0.9c0.1,0.5,0.6,0.5,1,0.5
				c2.1-0.2,4.2-0.3,6.2-0.6c3.9-0.6,7.8-1,11.7-0.9c0.2,0.2,0.6,0.4,0.8,0.6c-0.2,1.1-1.3,1.4-2.2,1.5c-5.4,0.2-10.8,1.4-16.2,1.2
				c-0.3,0-0.7,0-0.9-0.2c-1.1-0.1-2.2,0.3-3.3,0.4c-1.2,0.2-1-0.6-0.7-1.4c0.9-2,2.5-3.7,3.2-5.8c0.4-1.1,1.7-1.6,2.6-2.2
				C625.2,108.5,625.7,108.7,626.2,108.8"/>
			<path class="st15" d="M693.5,183.4c-2.6,1.9-5.6,3.1-8.4,5.5c-0.2-1.8-0.5-3.3-0.6-4.8c-0.1-0.7,0.1-1.3,0.5-1.9
				c1.5-2.3,3-4.5,4.6-6.8C690.5,178.3,691.4,181.2,693.5,183.4"/>
			<path class="st23" d="M668,262.8c1.7-6.5,4.2-12.6,8.6-17.6c2.3-2.6,4.8-5.2,8.4-6.2c1.2-0.3,2.2-0.7,3.4,0.3
				c-0.8,0.8-1.9,0.6-2.8,0.7c-1.7,0.2-3,0.8-4.3,2.3c-3.1,3.7-5.9,7.5-7.8,12C672.2,257.4,669.7,259.9,668,262.8"/>
			<path class="st24" d="M709.7,258.4c2.8,1.9,3.9,4.2,4.4,6.9c0.2,1-0.1,1.8-0.7,2.6c-0.8,1-1.6,2.1-2.5,3.3
				c-1.1-1.3-2.1-2.8-3.8-3.6c-0.8-0.4-0.7-1.4-0.2-2C708.8,263.7,709.7,261.4,709.7,258.4"/>
			<path class="st25" d="M599,359.4c2.1-1.7,4.6-2.4,7.1-2.8c2.4-0.4,4.8-0.7,7.2-1.2c1.1-0.2,1.9,0,2.5,1.1
				c0.5,0.9,1.3,1.7,2.2,2.9C611.5,359,605.3,359.7,599,359.4"/>
			<path class="st22" d="M693.5,183.4c-1.8-0.4-2.4-2-3-3.2c-0.7-1.4-1.2-3.1-0.9-4.8c0.9-1,1.8-2,2.8-3c0.8,1.5,1.7,2.6,3,3.5
				c2,1.5,2,4.2,0.2,6C694.9,182.5,694.2,182.9,693.5,183.4"/>
			<path class="st26" d="M545.8,216.1c1.9,0,4.3,0.2,6.2,0.1c2.1-0.1,4.3-0.4,6.4-0.7c0.4,0,0.5-0.4,0.6-0.7
				c0.1-0.1,0.3-0.3,0.4-0.2c2.7,1,4.5-0.1,5.8-2.4c0.3,1.4,1.2,1.4,2.3,0.9c-2.7,3.5-6.5,5.1-10.7,5.7c-1.2,0.2-2.3,0.1-3.5,0.3
				C550.3,219.7,547.5,218.5,545.8,216.1"/>
			<path class="st27" d="M713,238.8c2.2,2.1,4.1,4.3,4.5,7.4c0.1,0.6,0.1,1.2,0.1,1.7c0.1,0.9-0.2,1.8-1.1,2.1
				c-0.8,0.3-1.2-0.5-1.6-1c-0.9-1.1-1.9-2-3.2-2.8c-1.8-1.1-2-2-0.9-3.9c0.4-0.7,0.8-1.4,1.3-2.2
				C712.4,239.7,712.7,239.3,713,238.8"/>
			<path class="st28" d="M528.5,296.9h-10c-0.2-0.8,0.2-1.4,0.6-1.7c2.2-2,4.4-4.1,7.4-5c1-0.3,1.4-0.1,1.5,0.9
				C528.1,293,528.3,294.9,528.5,296.9"/>
			<path class="st29" d="M647.1,118.4c-1,0.2-0.8,1.1-1,1.8c-0.4,1-0.9,1.8-2.2,1.7c-2.9-0.2-5.8,0.7-8.8,0.6
				c-1.6-0.5-3.4-0.6-4.1-2.5c2.4-0.9,4.9-0.6,7.4-1c1.7-0.3,3.5-0.4,5.2-0.6c0.7-0.1,1.6-0.3,2.2-0.8
				C646.2,117.8,646.6,118,647.1,118.4"/>
			<path class="st30" d="M703.7,180.4c3.6,4.6,7.9,8.7,9.9,14.4c-3-2.2-5.9-4.6-8.5-7.2c-1.1-1.1-2.7-1.9-2.9-3.6
				C703,182.9,702.7,181.4,703.7,180.4"/>
			<path class="st31" d="M703.6,224.8c-0.3-0.3-0.4-0.7-0.4-1.1c0.2-2.1-0.6-3.9-1.8-5.5c-0.7-0.9-0.8-1.8-0.8-2.8
				c0.8-0.8,1.6-1.6,2.8-2.8c0,2.5,1.1,3.8,2.6,4.7c1.4,0.9,1.7,2.2,1.6,3.7c-0.1,1.1-0.3,2.1-1.7,2.5
				C705.2,223.7,704.4,224.3,703.6,224.8"/>
			<path class="st32" d="M582.7,317.1c1.2,2.2,1.7,4.4,0,6.5c-3.4-1-5-3.3-5.5-6.7c-0.2-1.5-0.7-2.9-1.1-4.4
				c0.5,0.1,0.7,0.8,1.3,0.7c1.3,0.3,1.7,3,4.3,3.7C582,317,582.3,317,582.7,317.1"/>
			<path class="st20" d="M689.6,172.4c-1.9,2.1-3.3,4.6-5.9,6.5c-0.4-1.5-0.6-2.8-0.5-4.1c0.1-1.8,0.2-3.5,0.3-5.3
				c0.1-1.1,0.5-2.1,1.4-2.8C686.3,168.7,688,170.5,689.6,172.4"/>
			<path class="st33" d="M705.9,270.9c1.5,0.3,2.5,1.1,3.3,2.4c1.3,2.3,1,3.8-1,5.4c-1,0.8-1.8,1-2.9,0.2c-0.9-0.6-1.9-0.8-3.2-1.3
				c1-1,2.2-1.8,2.8-3C705.4,273.5,705,272.1,705.9,270.9"/>
			<path class="st34" d="M715.6,260.5c-1.6-2.1-2.8-4.3-5.2-5.2c-1-0.4-1.3-1.3-1-2.3c0.4-1.2,0.8-2.4,1.5-3.5
				C715.1,251.9,717,256.1,715.6,260.5"/>
			<path class="st35" d="M622.8,117.4c5.6-0.6,11.1-1.4,16.7-1.6c0.9,0,2-0.2,2.7-0.9c0.9,0.6,1.9,1.3,2.6,1.9
				c-5.7,0.9-11.7,1.1-17.4,2.2C625.8,118.7,624.3,118.3,622.8,117.4"/>
			<path class="st17" d="M585,180.7c0.4,1.3-0.2,2.3-0.3,3.3c-0.2,1.2-1.4,0.4-1.7,1.1c-0.4,0.9-0.9,0.7-1.6,0.3
				c-1.5-1.1-1.7,0.8-2.7,1.3c-1.1-0.7-2-1.7-2.6-3.2C578.6,181.2,581.8,180.8,585,180.7"/>
			<path class="st36" d="M596.7,342.7c2.6-3.1,4.8-6.4,7.9-9.1c0.4-0.4,0.3-1.2,0.3-1.7c0.3,0.3,1.1,0.9,1.4,1.3
				c1.5,2.1,1.5,2.1-0.5,3.8c-2,1.6-4,3.1-5.9,4.7C598.9,342.6,598,342.9,596.7,342.7"/>
			<path class="st37" d="M700.2,270c-0.3,2-1.4,3.5-2.6,5.1c-0.6,0.8-1.4,1-2.4,0.8c-0.9-0.2-1.3-0.5-1.3-1.5c0.1-1.5,0.1-3,0.2-4.5
				c0-0.8,0.3-1.4,1.2-1.1C696.9,269.3,698.6,269,700.2,270"/>
			<path class="st38" d="M579.1,324c2.1,1.1,4.1,2,5.2,4.1c0.4,0.7,0.7,1.5,0.8,2.4c0.1,1.6-0.2,2.1-1.6,2.3c-1.8,0.3-2.5,0-2.9-1.5
				C580,329,579.3,326.6,579.1,324"/>
			<path class="st39" d="M689.6,172.4c-2.3-1.3-4.1-3-4.7-5.7c0.8-1.3,1.7-2.6,3-3.9c0.3,1.2,0.6,2.1,0.7,3.1c0.2,1.3,0.9,2,2.2,2.4
				c1.4,0.4,1.6,0.9,0.8,2C691,171,690.2,171.6,689.6,172.4"/>
			<path class="st40" d="M704.1,172.6c-1.8-0.8-3-2.3-4.4-3.7c-1.3-1.3-2.4-2.8-3.7-4.1c-0.9-0.9-1.9-1.9-3.3-2.1
				c-2.7-0.5-3.3-2.4-3.4-5.1C694.8,162.3,700.5,166.3,704.1,172.6"/>
			<path class="st41" d="M553.4,281.7c1.2,0.7,1.9,1.8,2.5,3c1.7,3.3,3,6.9,5.5,9.7c0.9,1,1.8,1.6,3.2,1.5c1-0.1,2-0.1,3-0.1
				c0.7,0,1.4-0.1,1.8,0.6c-2.3,0-4.7-0.2-7,0c-1.6,0.1-2.6-0.6-3.3-1.8c-1.7-2.8-3.3-5.6-4.4-8.7
				C554.3,284.6,553.9,283.1,553.4,281.7"/>
			<path class="st42" d="M709.7,236.9c-0.7,0.3-1.3,0.6-2.2,1.1c-0.5-2.5-1.5-4.6-3.1-6.5c-1.1-1.3-0.7-3-0.7-4.6
				c0.7-1.1,1.9-1.6,2.8-2.4c0.5,0.4,0.3,0.8,0.1,1.1c-1.7,3.4-0.3,6,2,8.4C709.4,234.9,710.1,235.7,709.7,236.9"/>
			<path class="st43" d="M578.7,116.3c0.2,0.2,0.3,0.4,0.5,0.6c-0.7,0.7-1.3,1.5-1.7,2.4c-0.6,1.4-1.6,2.3-2.9,3
				c-2.5,1.3-5,2.6-7.5,3.9c-0.4,0.2-0.8,0.2-1.2,0.1c0-0.7,0.6-0.9,1.1-1.2c3.5-2.7,7.1-5.5,10.6-8.2
				C577.9,116.6,578.3,116.5,578.7,116.3"/>
			<path class="st33" d="M693.6,263.7c2.5,0,4.9,0,7.2,0c0.6,0,1.2-0.1,1.5,0.6c0.3,0.8,0.1,1.5-0.5,2c-0.5,0.5-1.1,0.7-1.8,0.8
				c-1.9,0.3-3.7-0.2-5.4-0.6C693.6,266.4,693.6,266,693.6,263.7"/>
			<path class="st44" d="M605.8,107.9c-1.3,2.2-3.4,3.1-5.8,3.4c-2.2,0.3-4.4,0.8-6.6,1.4c-0.5,0.1-1.1,0.3-1.4-0.1
				c-0.5-0.6,0.2-1,0.5-1.5c0.2-0.3,0.4-0.5,0.6-0.8c1.3-0.4,2.2-0.7,3.4-0.8c2.5-0.4,4.8-1,7.4-1.4
				C604.6,108,605.1,108,605.8,107.9"/>
			<path class="st45" d="M638.6,184.6c-0.6,0.8-0.5,1.7-0.5,2.6c0,2.6-0.1,5.2,0,7.7c0,3.1-1.1,5.8-2.3,8.6
				c-0.1,0.3-0.5,0.5-0.8,0.5c2.3-5.7,1.5-11.6,1.6-17.5C636.6,184.7,636.5,184.7,638.6,184.6"/>
			<path class="st46" d="M697.8,285c0.8-1.5,1.8-2.8,1.9-4.7c1.3,0.5,2.6,0.9,3.8,1.4c1.4,0.6,1.5,1,0.3,2.1
				C702.2,285.5,700.2,286,697.8,285"/>
			<path class="st47" d="M701.6,173.4c2.9,3,5.6,6.1,8,9.6c0.4,0.5,0.7,1.1,0.9,2.2c-3.8-3.1-6.3-6.9-9.8-9.8
				C700.9,174.7,701,173.9,701.6,173.4"/>
			<path class="st48" d="M705.8,250.6c-1.9-0.9-2.4-2.1-2-4.5c0.3-1.6,0.6-3.1,0.9-4.7c0.6-0.4,1.3-0.7,2.2-1.3
				c-0.1,1.4-1.3,1.9-1.2,3.1c0.1,1.7,0.1,3.3,1.1,4.8C707.8,249.6,707.5,250.2,705.8,250.6"/>
			<path class="st49" d="M701.6,173.4c0,0.8,0,1.6-0.9,2c-1.6-1.2-2.9-2.8-4-4.5c-0.7-1.1-1.1-2.2-0.7-3.8
				C698.5,168.8,699.8,171.3,701.6,173.4"/>
			<path class="st50" d="M707.7,192c0,0.6,0.1,1.1-0.2,1.7c-0.6,1.2-0.8,2.3,0,3.5c0.3,0.4,0.1,0.8-0.3,1c-2.4-2.6-3.3-5.6-2.4-9.4
				C705.8,190,706.7,191,707.7,192"/>
			<path class="st50" d="M585.7,188.9c-2,0.3-3.7,0.5-5.5,0.8c-2.4,0.4-3.4-0.3-4-2.8c0.7,0,0.9,0.5,1.3,0.9c0.7,0.6,1.3,0.6,2,0
				c0.5-0.4,0.8-1.5,1.5-1.1c1.3,0.8,3.1-0.2,4.1,1.4C585.2,188.3,585.4,188.4,585.7,188.9"/>
			<path class="st51" d="M509.6,367.9c-1.6,0-3.3-2.7-2.4-4.2c0.4-0.8,1.4-1,2.4-0.3c1.3,0.9,1.5,2.4,1.8,3.7
				C511.5,367.9,510.5,368,509.6,367.9"/>
			<path class="st52" d="M702.8,191.1c-1.4-1.8-2.5-3.2-3.6-4.7c-1.2-1.5-1.9-3.1-1.2-5.1c0.5-1.5,0.2-3.1,0.2-4.9
				c1.4,1.1,1.3,2.3,0.9,3.4c-1,3.1,0,5.6,2.2,7.7C702.3,188.3,703.4,189.2,702.8,191.1"/>
			<path class="st30" d="M684.4,162.7c-0.5,1-1.4,1.7-2.3,2.7c-0.6-1.5-0.9-2.8-1.6-3.9c-0.7-1.2,0.2-2,0.9-2.8
				C683.7,159.1,684.6,160.5,684.4,162.7"/>
			<path class="st47" d="M692.2,289.8c0.3-0.8,1.1-0.9,1.3-1.4c1.1-2.2,2.9-1.3,4.5-1c0.9,0.2,0.7,0.8,0.3,1.3
				C696.6,290.4,694.6,290.8,692.2,289.8"/>
			<path class="st53" d="M582.7,369.6c-1.9,0-3.5-2.5-2.8-4c0.4-0.9,1.8-1,2.5-0.1c0.8,0.9,1.1,2,1.2,3.2
				C583.6,369.5,583.1,369.6,582.7,369.6"/>
			<path class="st54" d="M704.1,260.5c-1.8-1.2-2.3-2.3-1.8-4.1c0.3-1,0.9-1.9,1.4-2.9c0.5-0.1,1-0.5,1.9-0.1
				C704.5,255.7,704.1,258.1,704.1,260.5"/>
			<path class="st55" d="M692.9,292.8c-1.9,1.6-3.7,1.5-5.6,0.7c-0.9-0.4-0.9-1.1-0.2-1.8c0.9-0.8,2.2-1,3.2-0.3
				C691.1,292,691.8,292.3,692.9,292.8"/>
			<path class="st56" d="M554,268c-0.6,2.2-1.4,4.1-3.3,5.2c-0.3,0.2-0.6,0.3-0.9,0.4c-0.4,0.1-0.6-0.1-0.8-0.4
				c-0.2-0.4,0-0.7,0.2-0.8c0.4-0.3,0.9-0.5,1.3-0.7c1.3-0.8,1.7-2,1.8-3.4c0-0.4,0.1-0.8,0.1-1.2c0.1-0.3,0.1-0.7,0.5-0.7
				c0.5-0.1,0.7,0.3,0.8,0.7C553.9,267.3,553.9,267.7,554,268"/>
			<path class="st57" d="M703.7,180.4c0,0.7,0,1.3,0,2c0,0.9-0.6,1.5-1.5,1.6c-2.7-1.6-1-3.9-1-6.3
				C702.3,178.6,703.2,179.3,703.7,180.4"/>
			<path class="st58" d="M695.1,280.2c-0.3,1.3-0.4,2.6-1.5,3.5c-0.5,0.4-0.9,0.8-1.5,0.4c-0.5-0.4-0.7-1-0.3-1.5
				c0.7-0.9,1.1-1.8,1.3-2.9c0.1-0.5,0.6-1.1,1.3-0.9C695.2,278.9,695.1,279.6,695.1,280.2"/>
			<path class="st59" d="M655.7,268.4c1,1.8,0.4,3.2,1.2,4.4c0.3,0.4-1,1.7-1.6,1.6c-0.8-0.1-1-0.7-1-1.4
				C654.2,271.4,654.9,270.2,655.7,268.4"/>
			<path class="st60" d="M610.8,360.4c1.8-1.4,3,0.1,4.2,0.6c0.7,0.3-0.6,0.9-0.2,1.5c0.2,0.4,1.2,0.4,0.7,1.1
				c-0.5,0.7-1.6,0.7-2,0.3c-0.4-0.4-1.1-1.2-1.1-1.3C612.9,361.3,611.6,361,610.8,360.4"/>
			<path class="st61" d="M703.6,268.4c0.2,4-1.7,6.6-4.7,8.8c-0.4-0.5-0.1-0.8,0.2-1.1c1.4-1.6,2.8-3.3,3.2-5.6
				C702.4,269.8,702.6,268.7,703.6,268.4"/>
			<path class="st62" d="M707.3,203.8c-1.7-2.5-4.6-3.7-5-7.2c1.6,1.8,3,3.5,4.8,4.7C707.8,201.8,707.9,202.6,707.3,203.8"/>
			<path class="st63" d="M709,219c-1-1.5-2-2.9-3.3-4c-0.9-0.8-0.8-1.9-0.5-3.1C707.4,214,709.3,217.2,709,219"/>
			<path class="st64" d="M707.4,253.8c0,2.4-0.5,4.7-0.7,7.1c0,0.3-0.4,0.6-1,0.4C705.8,258.7,705.5,256.1,707.4,253.8"/>
			<path class="st65" d="M684.4,162.7c-0.5-0.3-0.5-0.8-0.6-1.3c-0.3-0.9-0.5-1.7-1.7-1.8c-0.5,0-0.5-0.6-0.6-1
				c1.4-1.4,1.9-1.4,2.6,0.1c0.2,0.4,0.3,0.8,0.5,1.1C685.8,160.9,685.5,161.8,684.4,162.7"/>
			<path class="st66" d="M691,156.3c-2.2-0.5-4.7-0.6-6.4-3C687.5,153.2,689.5,154.2,691,156.3L691,156.3z"/>
			<path class="st67" d="M597.4,349.4c-0.5-1.2-1-2.4-1.5-3.7c-0.2-0.7-0.5-1.4,0.3-2c1,0.5,1.3,1.7,1.9,2.6
				C598.7,347.2,598.5,348.6,597.4,349.4"/>
			<path class="st68" d="M698.3,279.2c1.3,1.1,0.3,2-0.1,2.8c-0.9,2-1,2.1-3.2,2.6C696.4,282.8,697.3,281.1,698.3,279.2"/>
			<path class="st69" d="M598.3,365.1c-0.8-0.2-1.7,0.3-2.5-0.7c2.1-1.2,3.6,0.1,5.3,1.1c-1,0.7-2,0.4-2.9,0.7
				c-0.5,0.2-1.1,0.3-1.3-0.3C596.7,365.1,597.7,365.5,598.3,365.1"/>
			<path class="st70" d="M606.5,364.8c-0.7,0.5-1.4,0.8-2.3,0.8c-0.7,0-2.1,0.2-2-0.1c0.6-1.3-1.5-0.6-0.9-1.6
				C602.4,363.4,602.4,363.4,606.5,364.8"/>
			<path class="st71" d="M593.2,364.9c0.1,0.9,1.9-0.5,1.2,0.9c-0.1,0.1,1-0.1,1.5,0.4c-1.6,1.1-2.3,1.1-3.1,0.4
				c-0.9-0.8-1.4-0.6-0.7-1.5C592.1,364.7,593,365.1,593.2,364.9"/>
			<path class="st72" d="M690.2,164.3c1.4,0.5,3.1,0.6,3.3,2.7C690.2,166.4,690.2,166.4,690.2,164.3"/>
			<path class="st17" d="M587,187.8c-2.1-1.2-2.1-1.2-0.5-4.5C587.1,184.8,587.4,186.2,587,187.8"/>
			<path class="st73" d="M619.9,362.8c-1.8,0.7-1.8,0.7-3.4-0.8C618.1,361.1,618.1,361.1,619.9,362.8"/>
			<path class="st74" d="M708.3,228.9c1,1.4,2.3,2.7,2,4.7c-0.8-1.5-1.6-3-2.4-4.4C708,229.1,708.2,229,708.3,228.9"/>
			<path class="st75" d="M707.9,242.3c0.2,1.4,0.6,2.8,0.3,4.2C706.7,245,706.6,243.9,707.9,242.3"/>
			<path class="st76" d="M678.7,154.3c1.2,0.3,1.3,1.2,1.4,2.1c0.1,0.4,0.1,0.9-0.5,1c-0.6,0.1-0.6-0.5-0.6-0.8
				C678.8,155.9,678.3,155.2,678.7,154.3"/>
			<path class="st77" d="M600.7,362.4c1.4-0.5,2.9-0.5,4.3-0.2C603.6,362.6,602.2,363.5,600.7,362.4"/>
			<path class="st78" d="M594.5,363.2c1.3-1,2.6-0.9,3.9-0.1C597.2,363.6,595.8,363.6,594.5,363.2"/>
			<path class="st79" d="M604.1,360.8c-1.3,0.8-2.3,0.6-3.3,0.6c-0.2,0-0.4-0.2-0.4-0.5c0-0.3,0.3-0.4,0.5-0.4
				C601.8,360.4,602.8,360.2,604.1,360.8"/>
			<path class="st80" d="M606.7,361c1.2-0.4,2.3-0.3,3.5,0C608.3,362.2,608,362.2,606.7,361"/>
			<path class="st52" d="M693.7,170.1c0.8,1.4,1.3,2.4,1.9,3.3C694,173.1,693.7,172.6,693.7,170.1"/>
			<path class="st81" d="M607.1,363.3c1-0.7,2-1.1,3.4-0.5C609.3,363.9,608.1,363.3,607.1,363.3"/>
			<path class="st82" d="M595.5,361.6c0.4-0.4,0.4-0.4,0.5-0.5c0.9-0.2,1.9-0.6,2.8,0.2c0,0,0,0.2,0,0.2
				C597.8,362.2,596.8,362,595.5,361.6"/>
			<path class="st83" d="M594.5,361.7c-1.2,1.1-2.1,0.8-3.3,0.5C592.3,361.1,593.2,361.4,594.5,361.7"/>
			<path class="st84" d="M683.7,156c-0.7,0.2-1.4,0.3-2-0.1c-0.3-0.2-0.4-0.6-0.3-0.9c0.1-0.4,0.5-0.4,0.8-0.2
				C682.7,155.1,683.4,155.2,683.7,156"/>
			<path class="st85" d="M551.1,277.8c-0.7-1.3-1.3-2.1-0.6-3c0.1-0.1,0.6-0.2,0.6-0.1C551.8,275.6,551.4,276.4,551.1,277.8"/>
			<path class="st86" d="M587.9,366.1c1.5-0.4,2.4-0.5,3.4,0.4C590.1,367.2,589.2,367,587.9,366.1"/>
			<path class="st87" d="M683.5,151c-1.6,0.2-1.6,0.2-2.9-0.6C681.8,149.8,682.6,150,683.5,151"/>
			<path class="st88" d="M608,364.5c0.9-0.8,2-0.6,3.5-0.6C610.1,364.7,609.1,364.9,608,364.5"/>
			<path class="st89" d="M685.6,157.5c1.3,0.6,1.5,1.3,1.5,2.5C686,159.5,685.6,158.9,685.6,157.5"/>
			<path class="st66" d="M691.1,156.2c1,0.3,1.7,0.9,2.6,1.6C692.2,157.8,692.2,157.8,691.1,156.2
				C691,156.3,691.1,156.2,691.1,156.2"/>
			<path class="st90" d="M592.9,363.6c0.2-0.4-0.9-0.6-1.2-0.6c-0.7,0.2-2.3-0.2-1.7,0.8C591.2,363.5,592.6,364.3,592.9,363.6"/>
			<path class="st86" d="M619.1,360.7c-0.6,0.5-1.2,0.5-1.9,0C617.9,360.2,618.5,360.2,619.1,360.7"/>
			<path class="st71" d="M589.6,364.5c0.7,0,1.3,0.1,2,0.1C590.9,365.1,590.2,365.3,589.6,364.5"/>
			<path class="st83" d="M590.7,360.7c-0.7,0.6-1.2,0.4-1.9,0.1C589.5,360.2,590,360.1,590.7,360.7"/>
			<path class="st83" d="M590,361.9c-0.1,0.2-0.3,0.4-0.5,0.3c-0.2-0.1-0.2-0.4-0.3-0.6c0.1-0.1,0.3-0.2,0.4-0.2
				C589.9,361.5,590,361.6,590,361.9"/>
			<path class="st52" d="M696.8,174.5c0.1,0.2,0.4,0.3,0.4,0.6c0,0.2-0.2,0.3-0.4,0.1c-0.2-0.1-0.4-0.3-0.5-0.5
				C696.5,174.6,696.6,174.5,696.8,174.5"/>
			<path class="st91" d="M573,139.3c0-0.6,0.1-1.2,0-1.8c-0.7-2.2,0.5-3.5,2.1-4.5c5.1-3.1,10.5-5.4,16.4-6.8
				c2.1-0.5,2.8,0.1,2.1,2.2c-0.5,1.5-1,3-0.9,4.6c0.1,1.3-1,1.7-1.9,2c-2.1,0.7-4.3,1.2-6.4,2c-3.2,1.2-6.3,2.8-9.1,4.7
				c-0.5,0.4-0.9,1.1-1.7,0.7c-0.6-0.3-0.4-1-0.5-1.6C573,140.3,573,139.8,573,139.3L573,139.3z"/>
			<path class="st92" d="M601.1,151.7c-0.1,0.5-0.5,0.8-0.9,0.9c-2,0.2-3.6,1.2-5.5,1.8c-2.3,0.7-4.3,2-6.1,3.5
				c-1.9,1.6-2,1.6-3.5-0.3c-1-1.2-2.1-2.4-3.1-3.6c-1.5-2-1.3-2.9,0.8-4.2c2.8-1.7,5.8-2.7,8.9-3.5c1.3-0.4,2.6-0.6,3.9-0.9
				c1.6-0.3,2.6,0.2,2.9,1.8c0.3,1.4,1.2,2.4,1.9,3.5C600.8,151,601.1,151.3,601.1,151.7"/>
			<path class="st93" d="M587.3,228.9c-1.5,0-3,0.1-4.5,0c-2.4-0.2-3.3-1.6-2.4-3.8c0.7-1.7,1.6-3.3,2.4-5c0.2-0.3,0.4-0.6,0.7-0.5
				c0.5,0.1,0.7,0.4,0.9,0.8c0.3,0.8-0.2,1.5-0.5,2.1c-1.8,4.1-1.6,4.4,2.8,4.3c1.2,0,2.3-0.1,3.5-0.3c1.2-0.1,2.5-0.2,2.9-1.8
				c0.1-0.5,0.7-1,1.4-0.7c0.8,0.3,0.7,1,0.6,1.7c-0.5,2.5-1.5,3.4-4.1,3.4c-1.3,0-2.5,0-3.8,0V228.9z"/>
			<path class="st94" d="M597.5,115.6c0.2,0.7-0.4,1-0.7,1.4c-0.5,0.6-1.2,1.1-1.4,1.7c-0.9,2.4-2.9,3.3-5.2,3.9
				c-3.3,0.8-6.7,1.4-9.9,2.7c-0.2,0.1-0.5,0-0.7-0.1c0.4-3.6,2.6-6,5.8-7c3.6-1.1,7.3-1.7,10.9-2.7
				C596.7,115.5,597.1,115.3,597.5,115.6"/>
			<path class="st95" d="M602.2,114.3c0.8-0.8,1.7-1.6,2.4-2.5c1.5-1.8,3.4-2.3,5.6-2.4c2.2-0.1,4.3,0,6.5,0c0.5,0,0.7-0.2,1.2,0.5
				c-1.3,1.3-3.1,5-6.5,5.1c-3.2,0.7-6.4,1.1-9.6,0.9C601.3,115.2,601.7,114.9,602.2,114.3"/>
			<path class="st92" d="M598.9,130.8c-0.1-1.8,0-2.2,1.8-2.7c3.4-0.9,6.8-1.7,10.2-2.5c0.9-0.2,1.4,0.2,1.6,1.1
				c0.7,2.3-0.2,3.9-2.5,4.4c-2.6,0.5-5.2,1.2-7.8,1.8c-0.2,0.1-0.5,0.1-0.7,0.2C599.3,133.3,599,133.1,598.9,130.8"/>
			<path class="st92" d="M613.5,117.4c-0.6,3.3-2.3,5.2-5,5.5c-2.7,0.3-5.3,0.6-7.9,1.1c-0.4,0.1-0.8,0.1-1.2-0.4
				c0.2-1.8,1.2-3.1,2.5-4.4c0.4-0.4,0.7-0.7,1.3-0.7c3,0.2,6-0.7,8.9-1C612.5,117.3,612.9,117.4,613.5,117.4"/>
			<path class="st94" d="M580.8,146.3c-1-1.1-0.9-2.7-1.9-3.8c-0.4-0.4-0.1-0.9,0.3-1.3c0.5-0.4,1.1-0.8,1.7-1.1
				c2.3-1.1,4.7-2.1,7.1-3.2c0.4-0.2,0.8-0.3,1.2-0.4c1.7-0.4,2.5,0,2.9,1.2c0.6,1.8,0.2,3.2-1.3,3.8
				C587.3,142.8,584.2,144.7,580.8,146.3"/>
			<path class="st92" d="M607.9,135.9c0,2.4-0.4,2.8-2.8,3.3c-1.8,0.4-3.6,0.8-5.4,1.2c-0.6,0.1-1.1,0.2-1.7,0.3
				c-0.7,0-1.6,0.2-2-0.7c-0.4-0.9-0.4-1.8,0.2-2.6c0.8-1.2,2.2-1.6,3.5-1.7c2.1-0.3,4.1-0.7,6.1-1.3
				C607.6,133.8,607.9,134,607.9,135.9"/>
			<path class="st96" d="M568.9,153.1c-0.9-1.1-1.4-2.2-1.8-3.2c-0.4-0.9-0.3-1.7,0.3-2.6c0.8-1.1,1.6-2.1,2.6-3
				c0.9-0.8,1.4-0.2,1.7,0.5c0.5,1.3,0.6,2.7,0.1,3.9C571.2,150.2,570,151.5,568.9,153.1"/>
			<path class="st97" d="M567.4,133.5c-0.6-3.2,0.3-5.3,2.8-6.6c1.8-1,3.7-1.9,5.7-3c0.2,2.6-0.4,4.7-2.4,5.8
				C571.5,130.8,569.6,132.2,567.4,133.5"/>
			<path class="st98" d="M564.9,146.4c-1.8-3.6-1.1-6,1.4-7.9c1.2-0.9,2.4-2.7,3.6-2.2c1.3,0.6-0.3,2.5,0.1,3.8
				c0.1,0.4,0,0.8-0.2,1.2C569.6,142,565.6,146,564.9,146.4"/>
			<path class="st99" d="M534.2,329.2c0.9-0.2,1.4,0.2,1.9,0.9c1.2,1.6,2.6,3,3.6,4.8c0.5,0.9,1.3,1.8,1.9,2.6
				c0.5,0.7,1.4,1.3,0.2,2.3c-0.6,0.5,0.2,0.8,0.4,1.2c0.8,1.8,0.5,2.5-1.4,2.7c-2.9,0.3-5.9,0.6-8.5-1.3c-0.7-0.5-2.2-0.7-1.1-2.2
				c0.2-0.3-0.1-0.4-0.3-0.5c-0.9-0.5-0.6-1.2-0.6-1.9c0.4-3.4,1.6-6.6,1.8-10.1c0.1-1.1,2.4-1.8,3.2-1c0.5,0.5,0,0.9-0.5,1
				c-0.9,0.1-1.5,0.4-1.1,1.5c0.3,3.3,1.6,6.4,2,8.9c-0.5-1.7-0.9-4.2-1.7-6.7C533.9,330.6,533.8,329.9,534.2,329.2"/>
			<path class="st3" d="M534.2,329.1c-0.2,1.5,0.5,2.8,0.8,4.1c0.4,1.8,1,3.7,1.5,5.5c0.2,0.8,0.2,1.3-0.8,1.4c-0.3,0-0.8,0-0.6-0.5
				c0.7-2.4-0.6-4.5-1-6.7c-0.2-1.3-0.5-2.6-0.3-3.9C534,329,534.1,329,534.2,329.1"/>
			<path class="st2" d="M679.9,346.7c-0.2-1.1,0.4-2,0.6-3c0.6-2.7,0.4-5.3-0.6-7.9c-0.5-1.3-0.1-1.9,1.1-2.3
				c1.5-0.6,2.9-1.2,4.5-1.7c2.9-0.9,4.8-0.1,6.7,2.4c1.3,1.7,1.9,3.7,2.8,5.6c0.3,0.7,0.3,1.5-0.2,2.2c-1.4,1.8-2.5,3.6-5.2,4
				C686.3,346.4,683.2,347.1,679.9,346.7"/>
			<path class="st100" d="M599.8,370.5c-0.4,0-1.1-0.1-1.3-0.9c-0.3-0.9,0.4-1.2,1-1.4c1-0.3,2.1-0.5,3.2-0.5c0.6,0,1.4,0.2,1.6,0.9
				c0.2,0.9-0.6,1.1-1.2,1.3C602,370.1,601,370.2,599.8,370.5"/>
			<path class="st101" d="M606.7,369.1c-0.6,0-0.9-0.1-1.1-0.4c-0.2-0.5,0.1-0.8,0.5-1c0.4-0.2,0.9-0.4,1.4-0.5
				c0.5-0.1,1,0.1,1.2,0.6c0.3,0.7-0.4,0.8-0.8,1C607.4,368.9,606.9,369,606.7,369.1"/>
			<path class="st102" d="M590.6,371.1c0,0.6-0.4,0.9-1,0.9c-1.1,0-0.9-1-1.1-1.7c-0.2-0.5,0.1-0.8,0.6-0.8
				C589.9,369.4,590.6,370.2,590.6,371.1"/>
			<path class="st103" d="M611,366.6c0.5,0,1.1,0.1,1.1,0.8c0,0.6-0.5,0.8-1,0.9c-0.5,0.1-1.1-0.1-1.2-0.6
				C609.8,366.9,610.4,366.7,611,366.6"/>
			<path class="st104" d="M609.8,212.7c-0.9,0.7-1.9,1.3-3.1,1.4c-2.1,0.1-3.5-0.9-4.4-2.8c0-2.6,1.2-3.7,3.7-3.7
				c2.1,0,3.8,1.6,3.9,3.7C610,211.7,609.9,212.2,609.8,212.7"/>
			<path class="st105" d="M565.1,212.2c-0.5,3-2.2,4-5,3c-0.4-0.1-0.8-0.3-1.1-0.4c-1.4-0.9-1.2-2.3-1.1-3.6c0-0.6,0.4-1.1,1-1.4
				C561.2,208.6,564.5,209.3,565.1,212.2"/>
			<path class="st106" d="M608.2,341.8c0.3,0.3,0.4,0.3,0.5,0.4c0.7,1.8,1.9,3.8,1.5,5.5c-0.5,1.9-3.2,1.2-4.7,2.1
				c-0.4,0.3-1,0.6-1.8,0.4c1.2-1.6,2.1-3.3,2.4-5.3C606.1,343.7,607.4,342.8,608.2,341.8"/>
			<path class="st107" d="M631,119.9c1.2,1.2,3,1.3,4.1,2.5c-1.5,0.7-3.2,0.4-5.1,1C630.6,122.1,630.3,120.9,631,119.9"/>
			<path class="st108" d="M574.7,139.8c-0.2-1.4-0.1-2.9,0-4.4c0-0.9,0.6-1.5,1.4-1.9c4.6-2.4,9.3-4.6,14.4-5.7
				c0.3-0.1,0.6-0.3,1.1,0.1c-0.5,1.8-1.7,3.5-1.9,5.5c-0.1,0.5-0.6,0.5-1,0.6c-1.7,0.6-3.3,1.2-5,1.7c-2.6,0.8-4.8,2.3-7.2,3.5
				C576,139.6,575.5,140,574.7,139.8"/>
			<path class="st108" d="M598.7,151.1c-1.3,1-2.7,1.3-4,1.7c-2.4,0.7-4.5,1.9-6.5,3.2c-1,0.7-1.6,0.6-2.3-0.3
				c-0.8-0.9-1.7-1.8-2.6-2.8c-0.7-0.8-0.6-1.5,0.4-2c3.5-2,7.3-3.3,11.2-4.3c0.9-0.2,1.4,0.4,1.7,1.1
				C597,149,597.6,150.2,598.7,151.1"/>
			<path class="st109" d="M581.6,123.5c0.7-2.3,1.7-3.6,3.8-4.1c2.8-0.6,5.6-1.3,8.8-2.1c-0.9,1.5-1.9,2.3-2.4,3.5
				c-0.2,0.4-0.5,0.6-1,0.7C587.8,121.8,585,122.7,581.6,123.5"/>
			<path class="st110" d="M614.7,110.5c-2.2,4.2-6.1,3.2-9.8,4c1.1-2.4,2.6-3.6,4.8-3.7C611.2,110.7,612.8,110,614.7,110.5"/>
			<path class="st111" d="M609.8,128.8c0,0.9-0.4,1.6-1.4,1.6c-1.9,0-3.8,0.4-5.6,0.9c-0.6,0.2-1.2,0.2-1.4-0.6
				c-0.2-0.8-0.3-1.8,0.8-2.1c2.1-0.6,4.2-1.1,6.3-1.5C609.4,127,609.9,127.6,609.8,128.8"/>
			<path class="st112" d="M602.5,122.2c-0.1-1.8,0.9-2.6,2.1-2.7c1.5-0.2,3-0.3,4.5-0.6c0.4-0.1,0.9-0.1,1.1,0.4
				c0.2,0.4-0.1,0.6-0.2,0.9c-0.3,0.6-0.7,1.1-1.5,1.2C606.5,121.7,604.5,121.9,602.5,122.2"/>
			<path class="st113" d="M582,144.5c-0.2-1.2-1.3-2.1-0.9-2.9c0.4-0.9,1.8-1.1,2.7-1.6c1.3-0.7,2.7-1.3,4.1-1.9
				c0.7-0.3,1.5-1.1,2.1,0.1c0.5,1.1,0,2.2-1.1,2.6c-1.2,0.4-2.3,1.1-3.4,1.7C584.5,143.2,583.1,143.4,582,144.5"/>
			<path class="st114" d="M604.5,135.8c0.7-0.2,0.8,0.2,0.8,0.8c0,0.4-0.2,0.9-0.5,1.1c-1.8,0.8-3.8,1-5.7,1.3
				c-0.5,0.1-0.7-0.4-0.7-0.8c0-0.8,0.3-1.4,1-1.5C601,136.3,602.8,136.1,604.5,135.8"/>
			<path class="st115" d="M569.1,130.8c-0.4-3.7,3.1-3.1,4.6-5c0.7,1.6,0.1,2.5-1,3.1C571.6,129.5,570.5,130,569.1,130.8"/>
			<path class="st114" d="M565.8,144.2c-1.7-2.4-0.8-4.5,2.7-5.9C568.8,140.9,568.8,140.9,565.8,144.2"/>
			<path class="st116" d="M534.1,338.1c-0.7-0.1-1.5,0.3-2.3-0.1c0.3-2,0.5-5.5,0.9-7.8c1,1.7,1.2,4.9,1.7,6.4
				C534.4,337.2,534.7,337.8,534.1,338.1"/>
			<path class="st116" d="M535.6,331.5c1.7,1.6,3,4.8,4.3,6.3c-2.3,0.5-2.5,0.4-3-1.4C536.7,335.4,535.9,333,535.6,331.5"/>
			<path class="st116" d="M541.3,342.1c-1.7,0.5-6.4,0.7-8.2-0.7C534.9,340.6,541.7,341.2,541.3,342.1"/>
			<path class="st114" d="M569,150.9c-1.7-2.4-0.9-3.3,1.8-5C571.1,148.5,570.7,148.4,569,150.9"/>
		</g>
	</g>
</g>
<path class="st117" d="M516.5,148.2c-2.6-3.2,1.4,3.5-9.6,9.6c-4.6,2.6-9.6-4.3-9.6-9.6c0-5.3,4.3-9.6,9.6-9.6
	S519.9,152.3,516.5,148.2z"/>
<path class="st117" d="M369.2,168.1c0,6.8-12.8,5.8-18.4,5.8s-10.6-3-10.6-9.8s4.9-14.9,10.6-14.9S369.2,161.3,369.2,168.1z"/>
<circle class="st117" cx="431" cy="185.4" r="12.8"/>
<ellipse class="st117" cx="158.9" cy="250.2" rx="10" ry="12"/>
<ellipse class="st117" cx="179.3" cy="177.6" rx="126.5" ry="72.7"/>
<ellipse class="st117" cx="207" cy="251.4" rx="10.9" ry="13.2"/>
<path class="st117" d="M255,237.4c2.4,9.2-3.9,19.7-14,23.5c-10.1,3.8-20.2-0.5-22.6-9.6c-2.4-9.2,3.9-19.7,14-23.5
	C242.5,223.9,252.6,228.2,255,237.4z"/>
<path class="st117" d="M119.7,231.3c2.4,9.2-3.9,19.7-14,23.5s-20.2-0.5-22.6-9.6c-2.4-9.2,3.9-19.7,14-23.5
	S117.4,222.1,119.7,231.3z"/>
<path class="st117" d="M148.4,237.4c2.4,9.2-3.9,19.7-14,23.5c-10.1,3.8-20.2-0.5-22.6-9.6c-2.4-9.2,3.9-19.7,14-23.5
	S146,228.2,148.4,237.4z"/>
<path class="st117" d="M202.9,244.4c2.4,9.2-3.9,19.7-14,23.5c-10.1,3.8-20.2-0.5-22.6-9.6c-2.4-9.2,3.9-19.7,14-23.5
	C190.4,231,200.5,235.3,202.9,244.4z"/>
<path class="st117" d="M308.7,198.5c2.4,9.2-3.9,19.7-14,23.5c-10.1,3.8-20.2-0.5-22.6-9.6c-2.4-9.2,3.9-19.7,14-23.5
	C296.2,185,306.3,189.3,308.7,198.5z"/>
<path class="st117" d="M289.9,224.2c2.4,9.2-3.9,19.7-14,23.5c-10.1,3.8-20.2-0.5-22.6-9.6c-2.4-9.2,3.9-19.7,14-23.5
	S287.5,215,289.9,224.2z"/>
<path class="st117" d="M287.8,117.9c2.4,9.2-3.9,19.7-14,23.5c-10.1,3.8-20.2-0.5-22.6-9.6c-2.4-9.2,3.9-19.7,14-23.5
	C275.3,104.4,285.4,108.7,287.8,117.9z"/>
<path class="st117" d="M266.6,106.6c2.4,9.2-3.9,19.7-14,23.5c-10.1,3.8-20.2-0.5-22.6-9.6s3.9-19.7,14-23.5
	C254.1,93.1,264.2,97.4,266.6,106.6z"/>
<path class="st117" d="M236.2,99.6c2.4,9.2-3.9,19.7-14,23.5c-10.1,3.8-20.2-0.5-22.6-9.6c-2.4-9.2,3.9-19.7,14-23.5
	C223.7,86.1,233.8,90.4,236.2,99.6z"/>
<path class="st117" d="M206.6,91.9c2.4,9.2-3.9,19.7-14,23.5c-10.1,3.8-20.2-0.5-22.6-9.6c-2.4-9.2,3.9-19.7,14-23.5
	C194.1,78.4,204.2,82.7,206.6,91.9z"/>
<path class="st117" d="M173.3,97.9c2.4,9.2-3.9,19.7-14,23.5c-10.1,3.8-20.2-0.5-22.6-9.6s3.9-19.7,14-23.5
	C160.8,84.5,170.9,88.8,173.3,97.9z"/>
<path class="st117" d="M138.5,106.6c2.4,9.2-3.9,19.7-14,23.5s-20.2-0.5-22.6-9.6c-2.4-9.2,3.9-19.7,14-23.5S136.1,97.4,138.5,106.6
	z"/>
<path class="st117" d="M103.7,106.6c2.4,9.2-3.9,19.7-14,23.5s-20.2-0.5-22.6-9.6c-2.4-9.2,3.9-19.7,14-23.5S101.3,97.4,103.7,106.6
	z"/>
<path class="st117" d="M84.9,138c2.4,9.2-3.9,19.7-14,23.5s-20.2-0.5-22.6-9.6s3.9-19.7,14-23.5S82.5,128.8,84.9,138z"/>
<path class="st117" d="M66.1,164c2.4,9.2-3.9,19.7-14,23.5s-12,6.1-14.3-3.1c-2.4-9.2,3.9-19.7,14-23.5
	C61.8,157.1,63.7,154.9,66.1,164z"/>
<path class="st117" d="M75,198.5c2.4,9.2-3.9,19.7-14,23.5c-10.1,3.8-12,6.1-14.3-3.1c-2.4-9.2-4.4-26.2,5.7-30.1
	C62.5,185,72.6,189.3,75,198.5z"/>
<path class="st117" d="M93.8,224.2c2.4,9.2-3.9,19.7-14,23.5s-20.2-0.5-22.6-9.6c-2.4-9.2,3.9-19.7,14-23.5S91.4,215,93.8,224.2z"/>
<path class="st117" d="M324.6,170.6c2.4,9.2-3.9,19.7-14,23.5c-10.1,3.8-20.2-0.5-22.6-9.6s3.9-19.7,14-23.5
	S322.3,161.5,324.6,170.6z"/>
<path class="st117" d="M315,158.3c-4,8.3-14.6,9.9-23.8,3.5c-9.2-6.4-13.4-18.3-9.4-26.6c4-8.3,14.6-9.9,23.8-3.5
	C314.7,138.1,318.9,150,315,158.3z"/>
<g>
	<g id="orginal_1_">
	</g>
	<g id="Layer_x0020_3_1_">
		<path class="st118" d="M206.4,214.6c-0.2-7.8-0.6-8.9,4.3-8.2l1.2,0c3.7-0.3,8.3-1.8,10.9-3.7c5.6-4.1,8.5-10.2,2.7-8
			c-13.1,5.1-14.7-0.4-14.7-0.4c11.1-27.4,13-60.7,6.9-68.1c-16.8-20-39.9-6.7-40.2-6.4l-0.1,0c-2.8-0.3-5.8-0.4-9.2,0
			c-6.1,0.6-10.5,3.3-13.7,7c0,0-46.1-16.2-38,32.4c1.7,10.3,22.1,77.1,33.7,54.7c4.2-8.2,8.5-15.2,8.5-15.2
			c2.7,1.7,5.8,2.3,8.9,1.6l0.2-0.3c0,0.9,0.2,1.9,0.5,2.9c-3,5.4-1.9,6.1-8.9,8.9c-7.2,2.8-2.4,5.5,0.5,6
			c3.6,0.6,11.7,1.1,15.9-8.7l-0.1,1.1c1.6,1.2,2.6,9.8,3.5,15.9c1,6.1,2,11.8,3.5,15c1.5,3.2,3.8,11.8,13,8.1
			C203.5,246.3,209.3,242.5,206.4,214.6"/>
		<path class="st119" d="M227.2,196.6c-13.1,5.1-14.7-0.4-14.7-0.4c11.1-27.4,13-60.7,6.9-68.1c-16.8-20-39.9-6.7-40.2-6.4l-0.1,0
			c-2.8-0.3-5.8-0.4-9.2,0c-6.1,0.6-10.5,3.3-13.7,7c0,0-46.1-16.2-38,32.4c1.7,10.3,22.1,77.1,33.7,54.7c4.2-8.2,8.5-15.2,8.5-15.2
			c2.7,1.7,5.8,2.3,8.9,1.6l0.2-0.3c0,0.9,0.2,1.9,0.5,2.9c-3,5.4-1.9,6.1-8.9,8.9c-7.2,2.8-2.4,5.5,0.5,6
			c3.6,0.6,11.7,1.1,15.9-8.7l-0.1,1.1c1.6,1.2,3.6,8.7,4.3,15.7c0.7,6.9,1.2,11.7,2.8,15.3c1.6,3.6,3.8,11.8,13,8.1
			c7.8-3.1,11.3-9,10.7-18c-0.4-6.4,0.7-5.6,0-11.3l0.4-2.8c-0.2-8.8-1.3-11.5,3.8-10.8l1.2,0c3.7-0.3,8.3-1.8,10.9-3.7
			C230.1,200.4,232.9,194.3,227.2,196.6L227.2,196.6z"/>
		<path class="st120" d="M175.9,205.9c1.6,16.2,4.1,32.3,5.9,36.1c1.8,3.8,5.5,11.1,14.8,7.4c7.8-3.1,10.2-7.5,10.3-16.5
			c0.1-6.7-0.3-25-0.6-28.8"/>
		<path class="st120" d="M154.4,126.6c0,0-46.2-16.1-38,32.5c1.7,10.3,22.1,77.1,33.7,54.7c4.2-8.2,8.2-14.7,8.2-14.7"/>
		<path class="st120" d="M177.4,119.7c-1.4,0.8,22.8-14.4,40.2,6.4c6.1,7.3,4.2,40.6-6.9,68.1"/>
		<path class="st120" d="M210.7,194.2c0,0,1.6,5.4,14.7,0.4c5.7-2.2,2.9,3.9-2.7,8c-4.6,3.4-15.6,5.5-16.2,1.7
			C204.8,194.4,211.4,196.6,210.7,194.2c-0.7-2.2-3.8-4-6.3-9.2c-2.2-4.6-27.4-38.5,1.3-36.6c1-0.4-11.3-31.3-37.6-28.6
			c-26.3,2.7-20.5,42.1-20.5,42.1"/>
		<path class="st120" d="M168.1,202.9c-3,5.4-1.9,6.1-8.9,8.9c-7.2,2.8-2.4,5.5,0.5,6c3.6,0.6,11.7,1.1,15.9-8.7
			c1.3-3-0.9-7.2-3.3-8C171.2,200.6,169.7,200.1,168.1,202.9L168.1,202.9z"/>
		<path class="st120" d="M167.9,202.8c-0.7-2.9,0-6.5,0.7-10.6c1.1-6.3,4.7-12.9-1.2-31.7c-4.3-14-20.1-0.5-19.9,1.4
			c0.2,1.9,2,9.8,2.1,19.1c0.1,12.2,9.1,21.4,17.8,19.2"/>
		<path class="st121" d="M158.4,160.3c0,0.7,1.3,2.3,2.7,2.4c1.4,0.1,2.5-1.5,2.5-2.1c0-0.7-1.2-1.3-2.6-1.3
			C159.6,159.1,158.4,159.6,158.4,160.3L158.4,160.3z"/>
		<path class="st121" d="M201.1,153.6c0.2,0.7-0.7,2.6-2.1,3c-1.4,0.4-2.8-0.8-2.9-1.5c-0.2-0.7,0.8-1.5,2.2-1.9
			S201,152.9,201.1,153.6L201.1,153.6z"/>
		<path class="st120" d="M205.6,148.4c0.9,5.2,0.2,8.9,0.7,14.4c0.8,8.1,5.3,16.9,1.4,26.7"/>
		<path class="st120" d="M108.7,139.5"/>
	</g>
</g>
<circle class="st117" cx="464.9" cy="141.5" r="3.2"/>
<circle class="st117" cx="546.5" cy="124.5" r="3.2"/>
<circle class="st117" cx="400" cy="161.5" r="7"/>
</svg>
