<?xml version="1.0" encoding="utf-8"?>
<!-- Generator: Adobe Illustrator 19.2.1, SVG Export Plug-In . SVG Version: 6.00 Build 0)  -->
<svg version="1.1" id="Layer_1" xmlns="http://www.w3.org/2000/svg" xmlns:xlink="http://www.w3.org/1999/xlink" x="0px" y="0px"
	 viewBox="0 0 1477.3 1326.6" style="enable-background:new 0 0 1477.3 1326.6;" xml:space="preserve">
<style type="text/css">
	.st0{fill:#46AAE5;}
	.st1{fill:#2F75A8;}
	.st2{fill:#FFFFFF;}
	.st3{fill:#BA9613;}
	.st4{fill:#726E28;}
	.st5{fill:#F4D1A6;}
	.st6{fill:#ABA639;}
	.st7{fill:#7C0734;}
	.st8{fill:#F4EDA5;}
	.st9{fill:#FDFDFD;}
	.st10{fill:#95A1A1;}
	.st11{fill:#F4EEA6;}
	.st12{fill:#1A75B9;}
	.st13{fill:#FCFDFD;}
	.st14{fill:#FEFEFE;}
	.st15{fill:#54160D;}
	.st16{fill:#ADB81A;}
	.st17{fill:#A74F2F;}
	.st18{fill:#B99613;}
	.st19{fill:#0C3755;}
	.st20{fill:#F3D1A6;}
	.st21{fill:#F2D0A5;}
	.st22{fill:#F5F7F7;}
	.st23{fill:#A44D2E;}
	.st24{fill:#A54E2E;}
	.st25{fill:#FBFCFC;}
	.st26{fill:#F1CFA4;}
	.st27{fill:#96A2A2;}
	.st28{fill:#137FB8;}
	.st29{fill:#94A0A0;}
	.st30{fill:#A54D2E;}
	.st31{fill:#593A75;}
	.st32{fill:#2F75A7;}
	.st33{fill:#939F9F;}
	.st34{fill:#593B76;}
	.st35{fill:#44A7E2;}
	.st36{fill:#45A9E3;}
	.st37{fill:#A6B219;}
	.st38{fill:#46A9E4;}
	.st39{fill:#583A74;}
	.st40{fill:#F7FAFA;}
	.st41{fill:#2F74A7;}
	.st42{fill:#593A76;}
	.st43{fill:#45AAE5;}
	.st44{fill:#45A9E4;}
	.st45{fill:#F3D0A5;}
	.st46{fill:#03F7DB;}
	.st47{fill:#0C3553;}
	.st48{fill:#B89513;}
	.st49{fill:#5B3B77;}
	.st50{fill:#195437;}
	.st51{fill:#12665B;}
	.st52{fill:#ECF3F3;}
	.st53{fill:#9AA69C;}
	.st54{fill:#0D0B09;}
	.st55{fill:#2F74A6;}
	.st56{fill:#9B1649;}
	.st57{fill:#55160D;}
	.st58{fill:#949F9F;}
	.st59{fill:#E4C89F;}
	.st60{fill:#9AA6A6;}
	.st61{fill:#DECE54;}
	.st62{fill:#929F9F;}
	.st63{fill:#3F1F13;}
	.st64{fill:#FAFBFB;}
	.st65{fill:#164D32;}
	.st66{fill:#65122C;}
	.st67{fill:#919D9D;}
	.st68{fill:#F7F9F9;}
	.st69{fill:#866AD6;}
	.st70{fill:#979F9B;}
	.st71{fill:#07F2DB;}
	.st72{fill:#929E9E;}
	.st73{fill:#959F9F;}
	.st74{fill:#909E9E;}
	.st75{fill:#F9FAFA;}
	.st76{fill:#07F4DC;}
	.st77{fill:#8F9C9C;}
	.st78{fill:#919C9C;}
	.st79{fill:#F7F8F8;}
	.st80{fill:#A2B018;}
	.st81{fill:#F1F5F6;}
	.st82{fill:#E3E5E1;}
	.st83{fill:#CDC04E;}
	.st84{fill:#EDCBA2;}
	.st85{fill:#919E9E;}
	.st86{fill:#185034;}
	.st87{fill:#42ADE4;}
	.st88{fill:#41ACE2;}
	.st89{fill:#D8BF98;}
	.st90{fill:#C8CBCB;}
	.st91{fill:#65CCBF;}
	.st92{fill:#F4F6F6;}
	.st93{fill:#DBBD96;}
	.st94{fill:#F3F5F5;}
	.st95{fill:#175034;}
	.st96{fill:#F9FBFB;}
	.st97{fill:#8E9B9B;}
	.st98{fill:#879494;}
	.st99{fill:#8E9C9C;}
	.st100{fill:#F2F3F3;}
	.st101{fill:#9AA2A2;}
	.st102{fill:#B4B2B2;}
	.st103{fill:#0C3451;}
	.st104{fill:#2A6A98;}
	.st105{fill:#F0F4F4;}
	.st106{fill:#8C9393;}
	.st107{fill:#E3E8E8;}
	.st108{fill:#D9C19B;}
	.st109{fill:#A49073;}
	.st110{fill:#981547;}
	.st111{fill:#F1F4F4;}
	.st112{fill:#899595;}
	.st113{fill:#EEF3F3;}
	.st114{fill:#A2B0B0;}
	.st115{fill:#849090;}
	.st116{fill:#E8ECEC;}
	.st117{fill:#7E8D8D;}
	.st118{fill:#737F7F;}
	.st119{fill:#5D4747;}
	.st120{fill:#7B8686;}
	.st121{fill:#818C8C;}
	.st122{fill:#DDE8E8;}
	.st123{fill:#7E8B8B;}
	.st124{fill:#0A4362;}
	.st125{fill:#727D7D;}
	.st126{fill:#A9A573;}
	.st127{fill:#EEF2F2;}
	.st128{fill:#A3B37D;}
	.st129{fill:#453838;}
	.st130{fill:#8B9B9B;}
	.st131{fill:#4A5454;}
	.st132{fill:#ACA6A6;}
	.st133{fill:#767F7F;}
	.st134{fill:#849595;}
	.st135{fill:#738484;}
	.st136{fill:#859595;}
	.st137{fill:#CAD2D2;}
	.st138{fill:#6D7777;}
	.st139{fill:#73644F;}
	.st140{fill:#106693;}
	.st141{fill:#BBC7C7;}
	.st142{fill:#798888;}
	.st143{fill:#5B6F6F;}
	.st144{fill:#BDD9D9;}
	.st145{fill:#817C7C;}
	.st146{fill:#6F7B7B;}
	.st147{fill:#8C7E58;}
	.st148{fill:#A8A07F;}
	.st149{fill:#04F7DB;}
	.st150{fill:#07F5DC;}
	.st151{fill:#020405;}
	.st152{fill:#05F6DC;}
	.st153{fill:#06F5DC;}
	.st154{fill:#13E6DE;}
	.st155{fill:#09F0DC;}
	.st156{fill:#030303;}
	.st157{fill:#040404;}
	.st158{fill:#060502;}
	.st159{fill:#050502;}
	.st160{fill:#070602;}
	.st161{fill:#0C0B04;}
	.st162{fill:#0B0903;}
	.st163{fill:#040301;}
	.st164{fill:#121106;}
	.st165{fill:#161106;}
	.st166{fill:#302B0F;}
	.st167{fill:#060002;}
	.st168{fill:#0B0004;}
	.st169{fill:#051624;}
	.st170{fill:#02070C;}
	.st171{fill:#0A0808;}
	.st172{fill:#726868;}
	.st173{fill:#362D2D;}
	.st174{fill:#110F0F;}
	.st175{fill:#33130F;}
	.st176{fill:#020F16;}
	.st177{fill:#01080B;}
	.st178{fill:#041721;}
	.st179{fill:#307EB0;}
	.st180{fill:#43ADE4;}
	.st181{fill:#44ABE5;}
	.st182{fill:#44ACE5;}
	.st183{fill:#43ACE5;}
	.st184{fill:#42ADE5;}
	.st185{fill:#43ADE5;}
	.st186{fill:#42AEE4;}
	.st187{fill:#6F062D;}
</style>
<g>
	<path d="M85.9,1110.1c-13.5,2.6-26.9,5.5-40.5,7.9c-10.7,1.9-21.3,4.5-31.8,7.4c-2.9,0.8-5.6,1.5-8.4,0.3
		c-5.2-2.2-7.3-9.4-2.8-12.2c8-4.9,11.7-11.4,14.1-20.3c1.6-5.9,8.1-10.1,13.3-14c26.2-19.8,55.7-33.7,85.7-46.6
		c7.9-3.4,9.2-11.4,14.6-16.4c1.6-1.5-0.7-3.8-1.8-5.7c-6.4-10.6-3.7-16.8,8.3-19.5c9.7-2.2,11.1-3.9,11.4-13.7
		c0.1-2.2-0.1-4.4,0-6.5c0.2-3.7-0.5-5.9-5.1-6.4c-7.1-0.7-10.7-7-15-11.7c-2.8-3.1-0.2-7-0.6-10.4c-1.8-1.8-4.1-1.7-6.1-2.3
		c-15.6-4.4-24.1-15.8-25.9-32c-1.9-17.4,4.1-30.3,18.7-39.8c6.8-4.4,7-6,1.2-11.6c-14.5-14.1-10-38.8,3.9-49c3-2.2,5.8-4,9.7-4.2
		c4.7-0.3,9.3-1.5,14-1.9c5.6-0.5,8.3-2.2,7.4-8.9c-0.9-7.1,2.7-10.6,10.1-13.2c9.7-3.4,10.6-4.3,8.3-13.7
		c-1.5-5.8-1.4-11.5-1.5-17.3c0-3.2-0.3-5.6-4.5-5.8c-8.5-0.4-13.4-4.4-13.1-13.6c0.2-5.4-4.1-6-8.3-6.3c-5.9-0.3-10.3-2.4-12.3-8.6
		c-1.6-4.9-0.8-8.4,3.9-10.9c3.9-2,8.1-3,12.2-4.4c7-2.4,8.3-5.1,6.9-12.5c-1.5-8.2-4.3-15.3-13.1-18.4c-2.3-0.8-4.2-2.5-5.7-4.8
		c-4.8-7.2-4.3-9.2,3.7-13c5-2.4,10.1-3.7,15.7-3.6c48.7,0.8,97.2-3.8,145.8-4.4c27.2-0.3,54.5,0.3,81.7,0.5
		c7.6,0.1,15.2,0.1,23.4-3c-5.6-14-9.4-28.2,0.7-42.9c-8-1.6-14.7-0.4-21.3-0.3c-3.7,0-8.9,1.8-10.4-3.3c-1.5-4.9,0.7-7.9,6.3-10.4
		c10.8-4.8,11.8-12.2,5.3-22.9c-3.2-5.2-6-10.4-12.3-12.9c-3.2-1.2-4.6-4.6-4.2-8.2c0.4-3.8,3.3-5.4,6.6-6.4c6.3-2,12.8-2.6,19.3-3
		c12-0.7,23.9-1,35.9-0.7c11.6,0.3,11.7-0.1,11.6-11.3c0-1.8-0.2-3.6,0-5.4c0.5-5-1.1-7.4-6.6-7.1c-6.1,0.4-12.3,0.1-18.5-0.1
		c-13.9-0.4-23-9-24.5-22.8c-0.4-4-1-7.9-1.1-11.9c-0.8-20.7,12.5-34.5,33.2-34.5c12.3,0,24.6-0.5,37.8-3.1
		c-1.1-6.8-1.6-13.5-1.4-20.3c0.3-11.1,4-15,15-15.8c4.3-0.3,8.6,0,13,0c0.8-4.9-0.5-8.6-1.5-12.4c-4.1-15.1-7.2-30.3-7.3-46.1
		c0-4.5-0.5-8.3-6.2-9.9c-5.1-1.4-7-5.9-6.4-11.2c0.6-5.6-0.4-11.6,6.8-14.5c4.8-1.9,9.7-2.7,14.5-4.2c3.4-1.1,7-1.8,10.5-2.6
		c5.9-1.2,8.1-5.1,8.8-10.8c1.6-13.7,4.2-27.2,7.5-40.6c2-7.9,5.3-15,8.3-22.4c7.9-19.5,13.4-39.9,23.1-58.7
		c5-9.7,10.4-19.1,18-27.1c3.8-4,6.3-8.8,9.3-13.4c9.1-13.8,21.7-24.3,33.3-35.8C627.1,66.1,651.1,49.9,676,35
		c10.2-6.1,21.1-11.2,32.8-14.5c9.1-2.6,17.1-8.2,26.4-10c12.1-2.4,24.3-4.3,36.4-6.7c25.6-5.1,51.5-4.1,77.1-2.6
		c32.9,1.9,65.6,9,95.7,22.4c28.7,12.8,56.4,28.2,79.3,50.7c9,8.9,18.6,17.2,27.6,26.2c14.7,14.8,25.5,32.5,37.6,49.1
		c2.5,3.4,4.3,6.2,8.8,7.1c3,0.6,6.7,2.2,8.4,4.6c5.5,7.5,14,10.2,21.6,14.1c9.1,4.7,17.5,10.2,24.4,17.9c1.7,1.9,3.7,3.6,5.9,4.7
		c16.3,8.4,28.3,21.2,37.8,36.6c2.3,3.7,4.7,7.2,8.3,9.9c2,1.5,3.9,3.4,5.2,5.5c8.3,13.5,19.5,25.7,25.5,39.9
		c6.5,15.4,14.7,29.7,22.2,44.4c1.3,2.5,2.1,5.4,2.6,8.3c2.3,13.6,5,27,12.8,38.8c0.7,15.9,9.4,30.1,9.1,46.2
		c-0.1,6.2,0.1,12.3,0,18.5c-0.1,8,0.1,15.9,2.3,23.7c3.2,11.1,2.8,22.3-0.6,33.3c-2.4,7.9-1.8,15.2,0.9,23.2
		c5.2,15.4,5.2,31.3-0.2,46.8c-2,5.9-3.8,11.7-3.3,18c0.4,5.2-0.6,10.4-4.2,14.2c-3.6,3.7-3.2,7.9-3,12.2c0.4,7.6,1.3,8.1,9.2,8.2
		c15.2,0.2,30.5,0.6,45.7,0.8c12.6,0.2,17,4.1,18,16.6c1,12.2,1,12.2,13.5,12.3c4,0,8,0.1,12,0.3c12.2,0.8,19.2,8,19.6,20
		c0.1,3.6,0,7.3,0,10.9c0,3.6,0,7.2,0,11.1c6.8,1.9,13.3,0.5,19.7,1.1c6.5,0.6,13.1,1,19.5,2.2c7,1.3,11.6,7,11.8,13.6
		c0.2,6.9-2.6,11.1-9.3,10.3c-12.2-1.4-15,9.4-21.6,15c-5.5,4.6-7.6,11.5-6.3,18.8c1.1,6.3,0.4,13,5.6,18.4c2.8,2.9,5.2,4.4,9.2,4.3
		c5.4-0.2,10.9-0.6,16.3,0.5c7,1.4,9.5,3.1,8.6,10c-0.8,6,2.3,7.3,6.1,9.5c11.6,6.7,18,23.9,12.7,35.9c-2.8,6.4-8.7,10.5-15.2,13.3
		c-9.3,4-18.8,7.6-29.6,9.9c4.9,13.2,5.8,25.7-6,35.9c5.1,4.7,10.8,2.8,16,3.1c10.6,0.6,11.6,1.3,12,12.1c0.3,6.5-0.1,13.1-1.5,19.5
		c-1.7,7.6-1,8.6,6.5,9.8c3.2,0.5,6.5,0.6,9.8,0.6c5.5,0.1,10.8,0.8,16.5,2.2c-0.4,2.9-0.8,5.7-1,8.4c-0.5,6.6-3.4,10.9-10.5,11.7
		c-6.2,0.7-9.6,5.2-11.3,10.3c-3.8,11.4-6.5,23.1-5.5,35.2c0.8,9.4,2.8,11.3,12.5,11.8c8.8,0.5,11.1,3.1,8.9,11.5
		c-0.8,3-0.9,4.6,1.8,6.2c8.6,5.1,10.1,13.2,10,22.5c-0.1,9.1-3.2,17.1-7.7,24.6c-3.5,5.8-8.3,9.1-15.7,10.1
		c-23.4,3.1-46.9,5.2-70.5,5.4c-16.4,0.1-32.2,4.6-48.5,5.7c-14.2,1-28.2,1.4-42.4,0.3c-19.2-1.5-38.4-2.1-57.6-3.2
		c-3.4-0.2-6.3-0.5-7.3,4.1c-2.2,10.8-8.5,19-17.1,25.7c-3.8,3-3.4,5.3,1.4,6.5c10.2,2.7,19.5,7.6,29.8,10.2
		c11,2.7,20.4,8.5,28.8,16.7c10.1,9.8,21.5,18.3,32.3,27.4c13.6,11.4,25.3,24.6,37.6,37.4c5.6,5.9,2.7,12.3-5.6,13.8
		c-11.3,2-22.5,0.4-33.6-0.7c-6.9-0.7-13.8-0.9-20.7-0.7c-38.5,0.8-77,1-115.4,2.4c-32,1.2-63.9,1.2-95.8,0.1
		c-3.5-0.1-6.2,0.4-8.3,3.7c-7.2,11.7-19.2,15.4-31.5,16.8c-18.5,2.1-36.2-1-51.3-13c-2.9-2.3-5.8-2.6-9.1-2.5
		c-42.5,0.4-85,1.7-126.9,9.4c-22.1,4.1-43.6,10.8-65.5,16.1c-21.1,5.1-42,11.3-63.5,15.2c-23.2,4.1-28.3,1.4-35.4-20.7
		c-4.3-13.5-9-26.8-15-39.7c-2.4-5.2-5-10.5-4.9-16.5c0.1-3.9-2.7-6.6-4.4-10.2c3.7-4.2,10.7-5,12.4-12.5
		c-11.5,2.9-22.9,4.2-34.3,5.5c-17.8,1.9-35.5,2.1-53.2-0.4c-5.6-0.8-9.9,0.3-13.6,4.5c-2.2,2.5-4.8,4.6-6.5,7.3
		c-3.5,5.9-8.7,8.8-15.1,9.3c-7.3,0.5-13.1,3.7-18.5,8.2c-6.2,5.1-13,9.3-20,13.2c-20.1,11.1-37.9,25.7-56.3,39.1
		c-20.9,15.2-43.6,27.4-64.5,42.4c-5.3,3.8-11,4.9-17.5,4.3c-7.3-0.7-14.4-2.1-21.3-4.3c-19.7-6.5-40.3-8.9-60.6-12.8
		c-33.5-6.5-66.7-13.8-98.7-26.1c-12.1-4.7-22.1-12.3-32.2-19.9c-4.4-3.3-6.4-8.7-7.2-14.2c-0.3-2.1-0.1-4.4-0.1-6.5
		c0-11.2,0.1-11.1-11.6-11.4c-10.5-0.3-21-0.7-31.6-1c-3-0.1-5.9-0.4-7.8-2.9c-8.1-10.5-18.4-19.7-20.7-33.9
		c-0.9-5.7-2.9-11.2-4.5-16.8c-4.1-14.2-2.2-28,3.1-41.5C76.7,1126.6,80.8,1118.6,85.9,1110.1z"/>
	<path class="st0" d="M1061.7,579.1c-13.5,18.5-30.7,33.7-44.1,52.3c-5.1,7.1-9.7,14.3-13.3,22.3c-3.3,7.2-7.4,14.1-11.1,21.2
		c-1.1,2-2.6,3.3-4.8,4c-11.7,3.5-16.4,12.1-17.2,23.6c-0.6,8.3-0.8,8.4-8.8,5.9c-28.6-9.1-58-7.9-87.4-6.3
		c-20.7,1.1-40.9,5.4-60.7,11.5c-13.5,4.1-27.4,6.6-40.7,11.6c-16.3,6.1-31.4,14.7-47.1,22.1c-19.5,9.2-36.3,22.4-54.2,33.9
		c-4.2,2.7-6.8,3.3-10.8-1c-15.3-16.5-33.7-29.7-50.6-44.4c-12.1-10.6-26.5-17.7-41.5-23.3c-9.7-3.7-10-3.8-9.6-14
		c0.4-9.1-1.8-17.2-7-24.6c-2.3-3.3-4.8-6.8-9-7.5c-4.4-0.7-6.3-3.3-7.1-7c-4.3-18.3-12.8-35.4-15.5-54.2c-0.8-5.5-1-10.8-0.3-16.2
		c1.6-11.6,1.4-23.1,0.3-34.7c-0.7-7.6-1.4-15.2-1.2-22.8c0.7-24.7-0.3-49.3-2.7-73.8c-0.5-5.4-0.1-10.9-0.1-17.1
		c5.7,3,11.4,5.6,16.8,8.8c12.1,7,25.3,8.2,38.8,8c7.2-0.1,14.5-0.5,21.7-0.8c8.6-0.8,16.9-3.3,25.3-5.6
		c34.6-9.4,57.9-42.1,55.5-77.3c-1.1-15.5,4-21.6,19.1-22.2c5.2-0.2,10.7-3.3,15.7,0.8c3.1,10.9,2.9,22.1,4.3,33.2
		c3.4,26.3,13,49.9,35.9,65.1c22.4,14.9,47.2,21,74.2,15.3c1.8-0.4,3.6-0.4,5.4-0.6c19.1-3.1,36.9-9.6,53.1-20.5
		c5.5-3.7,10.5-7.9,13.7-13.6c12.9-23.2,24.7-46.8,24.3-74.3c-0.1-6,0.7-11.6,7.1-14.6c4.9-2.3,8.3-5.9,7.4-11.9
		c-0.8-5.8-5.4-7.2-10-8.5c-1.4-0.4-2.5-1.4-3.6-2.4c0.6-6-2.7-9.1-8-10.7c-5.4-1.6-10.8-3.2-16.2-4.9c-19.5-7.7-39.8-12.8-60-18.1
		c-20.3-5.3-41.5-3.6-62.3-0.4c-5.2,0.8-8.3,5.6-12.9,7.7c-9.7,1.1-19.3,2.3-28.5,5.8c-7.1,2.6-13.9,3.3-18.9-4.4
		c-3.5-5.5-9.7-5.8-15.3-6.6c-8.7-1.1-17.4,0.4-25.8,1.7c-4.3,0.7-9.6,2.6-11.8,6.9c-2.8,5.4-5.9,5.4-11.2,4
		c-17.1-4.3-34.4-7.9-51.7-11.8c-21.7-8.6-48.8-8.3-71.6-5.5c-12.3,1.5-9.2,0.7-7-18.3c1.2-9.7,3.1-19.2,6.5-28.4
		c5-13.5,9.2-27.4,14-41c9.2-25.9,24.8-48,41.7-69.3c16.1-20.2,34.6-37.6,55.5-52.8c3,3.1,0,6-0.2,9.9c19.5-7.4,38.5-14.4,47.7-35.7
		c-3-0.5-7,2.9-10-0.6c3.4-4.7,8.9-5.8,13.8-8c20.4-9,41.3-16.5,63-21.7c1.7-0.4,3.5-0.2,5.3-0.3c1.5,5.8-4.7,7.7-6.9,14.4
		c19.7-6.9,41.4-1.1,56.4-18.6c1.4-1.7,3.4-2.7,5.6-3.2c27.9-2.5,55.2,0.4,82.3,7.3c1,0.2,1.8,1.1,2.7,1.7c0.2,1.6-0.3,3.2-1.8,3.6
		c-14,3.2-17.9,15.9-24.7,25.9c-1.2,1.8-3,3.8-2,5.9c1.4,3,4.4,1.5,6.8,1.4c27.5-0.7,54.9-3.9,82.4-4.9c5.5-0.2,10.9,0.3,15.9,2.8
		c4,1.1,7.6,2.8,9.9,6.5c-9.7,6.3-21,3.9-31.4,4.9c-12.1,1.2-24.3,3.1-36.6,3c-8.4-0.1-13.8,6.2-14.4,14.5c-0.4,6,3.9,4.9,7.3,5.3
		c12.7,1.2,25.1-3,37.8-2.2c3.2,0.2,6.5-0.7,9.7,0.1c8.2,4.4,14.2,11.4,20,18.2c12.9,15.2,26.3,30.1,33.7,49.1
		c1.5,3.7,3,7.4,3.3,11.5c2.4,26.8,9.2,52.9,11.7,79.7c1.8,19.8,0.5,39.7,1.3,59.6c2.2,54.4-3.5,108.8-1.9,163.3
		c1,34.8,11.4,67,28.9,96.9C1056.8,568.7,1061,573,1061.7,579.1z"/>
	<path class="st0" d="M635.8,1156.1c10.4-11.8,12.2-26.1,11.4-41c9.2-4.5,19.8-5.9,27-14.7c7.4-9.1,8.2-14.6,0.7-23.9
		c-7-8.8-17.1-11.6-27.4-14.1c-8.4-2-17.2-2.6-24.2-8.6c-7.4-7.9-13.5-17-21.9-24.1c-3.7-3.2-3.8-7.5-3.9-11.9
		c-1-40,18-68.3,51.1-88.5c2.1-1.3,5-1.5,5.9-4.4c-13.5,0.4-42.4,18.3-52.1,31.3c-13,17.3-17.7,37-18.3,57.5
		c-2.6,1.7-4.2,0.6-5.7-0.3c-29.7-17.2-62-21.5-95.6-19.3c-12.7,0.8-25.4-0.1-38,2c-3.2,0.5-4.5-1.1-6.1-3.2
		c-5.4-7-9.7-14.4-10.3-23.5c-0.2-3.2-0.7-6.5-1.1-9.7c-3.9-26.4,14.1-40,31.6-54c2-1.6,4.7-1.9,7.2-2c18.9-1,36-8.1,52.4-16.8
		c15.1-8,23.6-20.7,25.8-37.9c1.6-12.3,2.1-12.3,14.1-13.2c28.3-2.2,55.4,3.4,82.3,12.1c23.8,7.6,47.3,16.4,72.2,20.1
		c6.6,1,11.7,5.5,17.1,9c9.4,6.1,17.6,14.2,28.6,17.5c12.4,3.7,23.8,4.1,33.8-6.9c6.5-7.2,13.6-14.2,22.1-19.2
		c8.8-5.2,17.7-9.8,28.1-8c4.6,25,17,44.6,37.3,60.2c-10.4,8.5-24.2,10.8-34.7,22.9c13.2-4.8,23.9-8.6,35.2-10.5
		c8.5-1.5,16-0.8,24,3.3c25.3,12.8,51.6,23.3,80.1,26.5c12.4,2.4,25.2,2.2,37,7.5c21.7,9.7,27.2,18.6,26.9,45.2
		c-0.3,19.3-8.4,30-28.3,38c-14.8,6-29.9,11.2-44.9,16.6c-11.9,4.3-22.1,10.7-27.3,23.3c-5.1,12.4-2.4,22.7,8.4,30.5
		c5.1,3.7,10.7,5.9,16.8,7.6c3.1,0.9,7.8,0.2,7.5,5.8c-5.8,6.4-13.8,10.7-17.7,18.8c-1,2-2.8,2.2-4.6,1.4c-2.6-1.2-5.3-2.4-7.7-3.9
		c-14.3-9.5-29.5-16.5-46.7-18.7c-4.4-4.6-4.9-10.4-5-16.2c-0.1-10.2,0.1-20.3-0.1-30.5c-0.2-17.9-7.9-31.9-21.5-43.3
		c-9.7-8.1-22.3-12.5-29.7-23.4c-6.9-15.2-17.4-27.4-31.2-36.7c-9.8-6.5-20.7-10.1-32.2-12.2c-17.4-3.1-34.8-7.1-52.7-5.4
		c-2.3,0.2-4.9-0.5-7.6,2.1c2.7,1.9,5.6,1.4,8.2,1.4c22.4,0.1,43.1,5.5,63.5,15.5c45.1,19,45.9,65.2,45,70
		c-7.8-0.4-10.7-13.1-16.6-16.3c-0.5,8.6,2.7,16.6,1.3,25c-4.9,29.3-24.4,47.2-48.4,60.6c-27.6,15.4-58.7,22.7-87.7,34.9
		c-14.3,6-30,4.1-45.1,2C641,1161.8,635.9,1161.9,635.8,1156.1z"/>
	<path class="st1" d="M1061.7,579.1c-11.5-13.6-21-28.3-25.9-45.8c-4.1-15-9.7-29.5-12.8-44.8c-0.8-4-1.3-7.8-1.3-11.8
		c0-25-1-50.1,0.3-75.1c1.8-33.3,1.8-66.7,1.7-100c0-6.5-3.6-74.1-7.2-95.7c-2.1-12.8-3.8-25.7-5.4-38.6
		c-1.4-11.2-5.7-21.1-11.9-29.8c-12.8-18-26.4-35.4-43-50.3c3.1-4.8,8.1-3.6,12.5-3.7c6.7-0.1,13.4-0.3,20-1.2
		c4.1-0.5,7.9,0.7,11.4,2.7c19.5,11,37,24.2,49.3,43.5c8,12.6,16.3,24.9,25.8,36.4c10.6,12.8,16.4,27.7,21.7,43.4
		c7.1,21.2,12.3,43.3,22.8,63.3c3.5,18.5,0.2,37.6,5.9,55.9c0.3,1,0.3,2.2,0.3,3.2c0.4,27.1,3.5,54.2,2.9,81.4
		c-0.2,10.2-3.2,20.1-2.9,30.2c0.3,15-6,28.7-7.2,43.4c-0.9,10.8-1.9,21.5,0.3,32.4c4,19.7,1.2,24.6-17.7,31.5
		c-9.1,3.3-16.8,8.1-23.5,15.1C1072.9,570,1067.9,575.2,1061.7,579.1z"/>
	<path class="st1" d="M864.7,827.2c13.8-17.4,37.7-22,56.1-10.9c14.3,8.6,16.4,30.4,4.2,41.8c-8.4,7.8-17.9,12.1-29.5,11.1
		c-1.8-0.2-3.5,0-5.4,0c2.2,7.9,4.5,9.3,12.8,10.3c18.5,2.1,32.3-4.3,40.5-21.5c26.8,20.1,58,29.7,90.4,35.3
		c14.5,2.5,28.8-1.5,41.8-9.1c5-2.9,7.8-7.4,9.8-12.6c9.3-25.3,11.4-51.5,9.2-78.2c-2.3-27.3-10-53.5-18.5-79.1
		c-11.2-33.5-5.8-64.9,6.5-96.2c15-13,29.3-26.7,46.9-37.1c8.6,22.4,16.7,43.8,20.9,66.7c4.2,22.8,3.9,45.6,1.9,68.3
		c-1.9,21.3-1.6,42.7-3.5,64.1c-0.5,5.4-1.1,10.7-2.4,16c-4.6,19-8,38.3-13.4,57.1c-6,20.9-13.7,41.3-30.3,56.8
		c-4.8,4.5-9.6,8.9-14,13.7c-18.2,19.5-41.5,25.7-67.1,25.2c-21.4-0.4-42.8-1.6-63.8-5.8c-8.8-1.8-17.6-4.1-25.7-8.3
		c-14.1-11.6-26.7-24.9-39.7-37.7C872.9,877.6,865.5,853.7,864.7,827.2z"/>
	<path class="st2" d="M115.1,1134.3c20.7,2.8,40.8-2.3,61-5.7c-22.2-3.7-44.6,0.5-68.1-1.2c4-7,8.3-10.3,15.8-10.3
		c34.5,0.1,69-0.2,103.4-0.4c5,0,9.1,1,14,3.7c13,7,27.2,8.6,40-1.1c5-3.8,10-4.9,16-5.1c22.5-0.5,44.9-1.6,67.4,0.3
		c7.9,0.6,15.9-0.6,23.9-0.9c31.6-0.9,62.9,4.4,94.5,4.9c4.6,0.1,8.3,2.4,12.3,3.9c1.7,0.6,3.5,1.5,2.8,3.9
		c-0.8,2.6-2.5,2.8-5.1,2.4c-16-2.1-31.8,0.9-47.8,1.8c-0.7,0-1.4,0.1-2.2,0.2c-1.5,0.2-3.1,0.8-3.2,2.3c-0.1,2.2,1.7,3.1,3.7,2.9
		c13.1-1.3,26.1,1.4,39.1,0.6c2.5-0.1,5.1,0,7.6-0.1c3.6-0.2,6.4,0,6.1,5c-0.2,4.1-0.5,6.8-5.7,6.8c-4.9,0.1-9.8,1.1-15.4,5
		c7,2.6,12.5-0.3,18,0.3c2.3,2,1.4,4.7,1.3,7.1c-0.5,8.4-0.5,8.2-9.5,8.2c-27.6,0.1-54.8,4.1-83.4,10.3c7.5,3.4,13.6,2.7,19.7,2.3
		c21.4-1.3,42.7-2.8,64.1-4.2c9.2-0.6,9.2-0.6,10.9,8.7c0.6,3.5,1.1,7.1,1.7,10.7c-18.5,0.9-36.9,2.8-55.3,2.6
		c-42.9-0.6-85.6,1.9-128.4,3.7c-50.5,2.1-100.8-0.7-151.3-1c-6.9,0-13.9-0.7-20.7,0.3c-12.5,1.8-22.7-4.1-30.4-11.6
		c-14.7-14.4-18.1-37.9-9.3-55.4c2.1-4.2,4.7-3.6,7.9-2.4c0.9,2.2,0.2,4.5,0.6,6.7c-3.1,11,1,21.5,2.5,32.2
		c0.8,5.6,5.8,7.3,10.7,7.4c12.6,0.2,25.4,1.8,37.8-2.3c-11,2.8-22.1,2.2-33.3,2c-4-0.1-8-0.4-11.3-3.2c-2.6-2.2-4.4-5-3.5-8.6
		c0.9-3.3,3.8-4.2,6.7-4.6c6.8-1,13.8-0.3,23.2-0.6c-8.4-0.3-14.2-0.2-20.1-0.4c-12.1-0.5-13.8-2.7-12.9-15.6
		c4.5-8.1,11.9-3.7,17.5-4.4c-3.6-1-8,0.3-12-0.8C112.7,1139.8,109.6,1137.8,115.1,1134.3z"/>
	<path class="st3" d="M1043.6,863.9c-9.1-2.7-17.3-4.9-25.4-7.7c-20.4-7.1-41.4-10.5-62.8-11.8c-8.9-0.5-8.9-0.5-10-9.7
		c-2.4-18.6-18.2-32.7-37-33.4c-9.5-0.3-18.9,0.6-28,3.1c-18.6,5.1-31.1,16.7-34.8,36c-1.1,5.5-2.7,8.1-8.6,8.8
		c-15.3,1.9-28,9.3-39.1,19.7c-1.3,1.2-2.6,2.5-3.8,3.9c-3.1,3.6-6,3.5-9-0.1c-2.3-2.8-4.4-5.8-6.9-8.4
		c-17.3-18.7-35.7-36.1-56.5-50.9c-6.8-4.8-13.2-10.1-19.8-15.1c1.4-3.6,4.6-3.5,7.2-4.5c21.1-7.6,42.2-15.4,63.8-21.7
		c25-7.4,49.9-15,75.3-20.8c12.8-2.9,25.9-3,38.8-4.3c28.5-3,57.3-3.3,85.9-1.9c14.9,0.8,30.5,1.7,43.9,10.5c5.1,3.3,8.2,7,9.8,13.3
		c6.6,26.1,11.6,52.3,14.1,79.1C1041.3,853.2,1043,857.9,1043.6,863.9z"/>
	<path class="st1" d="M1175.6,1067.4c-6.1,1.5-11.5,2.5-16.9,1.9c-5.9-0.7-6.8-2.8-3.4-7.7c9.1-13.3,30.8-16.1,44.9-5.2
		c9.2,7,15.9,15.7,15.5,28.4c-0.2,5.8,0.4,11.6,0.1,17.4c-0.9,19.1-11.7,23.7-26.5,25.8c-17.8,2.5-35.4-1-52.8-4.4
		c-5.9-1.1-3.9-5.4-2.9-8.5c3.5-11,0-20.4-4.9-30.1c-5.2-10.3-13.8-15.7-23.8-19.4c-10.9-4-22.1-6.8-35.3-7
		c13.4-15.5,25.6-30.7,22.4-51.8c-3-19.5-14.4-34.4-28.3-48.2c15.7-10,29.8-22.4,44.4-34.3c13.9-11.3,25.5-24.6,32.3-41.7
		c4.1-10.3,6.2-10.9,16.5-7.1c8.1,3,16.3,5.8,22.7,12.3c5.6,5.6,9.5,11.7,11.1,19.5c2.5,12.3,2.5,24.7,0.5,36.8
		c-2,11.7-10.7,20.5-18.1,29.3c-13.5,16.2-25.2,33.6-36.8,51.1c-7.2,10.8-7.3,23.5-5.1,35.8c1.9,10.6,15,19.2,25.6,17.1
		C1163.3,1076,1171.1,1075.9,1175.6,1067.4z"/>
	<path class="st2" d="M684.3,1185.6c7.2-6.4,14.2-11.7,22.1-15.3c21.5-9.7,43.1-18.7,66.6-22.6c11.8-2,23.3-5.4,35-7.9
		c4.9-1.1,10-2.2,15-2.1c25.8,0.2,51.5,0.5,76.7,7c3.1,0.8,6.4,1.6,9.6,1.7c17.1,1,30.7,9.2,43.8,19.5
		c12.8,10.1,24.8,21.1,36.7,32.3c5.6,5.3,8.5,12.6,14.2,17.7c-1.5,2.5-3.1,1.2-4.5,0.5c-20.2-10-41.3-18-63.5-21.6
		c-21.8-3.6-44-3.3-66,0.3c-6.8,1.1-13.6,2.2-20.4,3.4c-18.2,3.2-35.9,7.5-53.1,14.9c-18.5,8-38.4,12.8-57.7,19.1
		c-4.5,1.4-9.2,2.4-12.9,5.6c-4.3,3.8-7.2,1.8-11.2-1.1c-7-5.2-9.3-12.6-12-20.1c-2.1-5.8-3.1-11.9-7-16.9
		C692.3,1195.5,689.5,1190.3,684.3,1185.6z"/>
	<path class="st2" d="M1297.1,1206.5c-14.5-2.3-28.6-1.7-42.5-4.3c-29-5.3-58.6-4.8-87.7-9c-16.2-2.4-32.6-1.9-48.8-3.5
		c-8.5-0.9-17.5,0.3-25.9,2c-20.9,4.4-41.8,8.9-61.2,18.6c-1.3,0.6-2.6,1.3-3.8,2.1c-8.2,5.8-8.4,6-14.8-0.6
		c-12.6-13.1-26.6-24.7-37.9-39c-6.5-8.3-6.5-8.8,0.7-16.2c3.6-3.6,7.4-6.9,11.9-9.4c20-10.9,41-18.5,64.2-17.8
		c28.3,0.8,56.5,2.8,84.6,6.8c34.9,5,69.2,12.7,102.4,24.7c15.2,5.5,28.7,13.9,40.2,25.2C1284.8,1192.4,1293,1197,1297.1,1206.5z"/>
	<path class="st2" d="M796.9,313.7c15.4,1.4,35.7,2.6,55.8,6.1c9,1.6,16.8,6.5,25.4,9.5c4.6,1.6,6,6.6,5.7,10.9
		c-1.3,22.4-2.8,44.9-13,65.5c-13.9,28.1-37.1,43.4-67.9,45.3c-18,1.1-38.8-7.1-50-20.5c-23.2-27.9-23.8-62-19-97.2
		c1-7,7-11.4,14.1-13.4C762.4,315.6,777.1,313.4,796.9,313.7z"/>
	<path class="st3" d="M357.8,754.7c24.1-12.9,48.8-17.9,74.4-19.1c18.5-0.9,36.9-1.1,55.4-1.4c25.6-0.3,50.5,4,75.1,10.6
		c11.4,3.1,21,9.7,31.3,15.1c13.1,6.9,26.5,13.5,36.8,24.7c2.7,2.9,5.1,4.8,3.7,10c-2,7.4,3.5,12.9,9.1,17.2
		c13.5,10.4,27.1,20.7,40.6,31.1c1.9,1.5,4.5,2.4,5.2,5.3c-2.5,1.5-4.8,0.2-7.1-0.5c-12.9-3.8-25.7-7.7-38.6-11.4
		c-23.3-6.6-47-11.8-71.4-12.5c-6.5-0.2-13,0.9-19.5,1.8c-5.8,0.8-10-1-12.2-6.5c-12.2-30.5-60.2-43.6-88-28.7
		c-3,1.6-5.6,2.4-9.2,1.3c-9.3-3.1-18.8-5.6-28.1-8.4c-9-2.8-17.7-6.4-25.4-12.2C380.8,763.9,369.5,760.7,357.8,754.7z"/>
	<path class="st2" d="M631.2,324.5c5.7,2.5,9.1,6.9,9.1,13.6c0,16.3,0.5,32.8-2.5,48.8c-2.8,15.3-10.1,28.4-22.5,38.5
		c-11.6,9.5-24.5,16-39.5,16.2c-41.2,0.5-59.3-16.5-70.1-50.6c-6.2-19.5-8.3-39.6-5.3-60.2c0.7-5,2.5-7.5,6.7-9.9
		c11.9-6.8,25.1-6.5,38-7.7C550.7,312.8,598.8,306.7,631.2,324.5z"/>
	<path class="st4" d="M143.1,875.5c-8.2,21.9-4.9,45.6,8.5,54.7c-5.9-13-5.7-25.5-5.6-38c0-4.1,0.8-7.8,2.6-11.5c2-4,4.7-5.6,9.3-6
		c18.8-1.6,37.6-1.1,56.4,0.2c12.6,0.9,25.4,0.6,38.1,0.5c29-0.3,57.9,1.5,86.9,3.7c8.6,0.6,17.3,0.7,26-0.7
		c5.7-0.9,11.6-0.5,17.4-0.5c4.2,0,8.1,1.5,10.4,5c8.8,13.5,23.1,18.1,37.1,22.9c1.6,0.6,3.7,0.1,5,2.5c-2.7,6-10.1,7.7-13.4,13
		c-4.9,7.8-11.1,7.4-19.3,7.3c-18.1-0.1-36.3,0.1-54.3,1.5c-18.5,1.5-36.9,1.2-55.4,1.8c-20.6,0.7-41.3,1.1-62,1.8
		c-31.6,1.2-63-2.4-94.6-1.9c-2.5,0-5.1-0.4-7.5-1c-12.8-2.6-19.2-10.1-19.8-23.1c-0.2-2.9-0.1-5.8,0.2-8.7
		c1.4-14.7,6.4-24.6,24.4-23.8C136.2,875.6,139.1,875.5,143.1,875.5z"/>
	<path class="st5" d="M613.6,1052.9c-21,18.2-43.3,33.7-65.6,49.3c-3.1,2.2-4.8,2-7.4-0.2c-3.9-3.2-8.5-5.7-12.2-9
		c-9.3-8.5-20.5-13.2-31.9-18.2c-25.9-11.4-53.3-17-81.2-18.8c-36-2.3-71.8-0.5-105.5,14.9c-2.7,1.2-5.5,3.7-9.3,2.1
		c7-8.6,15.3-15.3,25-20.7c14.9-8.3,29-17.9,45-24.2c36.6-14.2,74-23,113.7-18.6c6.5,0.7,13.1,0.8,19.6,0.7
		c28.9-0.5,54.7,9.8,79.6,23c7.3,3.9,14.2,8.7,21.8,12.2C608.6,1046.9,611.3,1049.2,613.6,1052.9z"/>
	<path class="st0" d="M1082.4,617.8c1.8,1.1,2.5,2.6,1.4,4.5c-7.2,11.5-6.6,25-9.6,37.5c-4.5,18.7-1.2,36.5,5.3,54.1
		c3,8.1,6.1,16.2,6,25.2c-0.1,3.4,1.6,7.1,3.2,10.3c5.1,10.3,5.5,21.5,7.4,32.5c2.3,12.9,1.7,25.9,2.1,38.9
		c0.6,18.8-5.4,36.3-10.8,53.9c-2,6.7-6.7,10.6-13,13.6c-16.9,7.9-34,10.8-52.5,5.8c-14.6-4-29.2-7.9-43.5-13.1
		c-11.4-4.1-21.2-10.9-31.4-16.9c-2.4-1.4-3.6-3.5-3.6-6.3c22.8-1.4,44.6,3.5,66.2,9.9c11.8,3.5,23.3,8.2,35.8,8.8
		c10,0.5,12.6-2.1,11-11.9c-6.2-36.8-11.6-73.7-21.2-109.8c-2-7.6-5.1-14.5-3.9-23.2c0.8-5.3,2.1-9.1,5.1-13.2
		c7.4-10.2,10.5-21.3,4.5-33.4c-1.1-2.3-1.4-3.8,0.3-5.8c6.4-7.6,9.2-17.2,13.9-25.7C1062.3,640.4,1070.7,627.8,1082.4,617.8z"/>
	<path class="st5" d="M23.6,1097.4c8.5-11.6,17.9-19.7,29-25.8c12.1-6.6,23.8-14,35.9-20.5c15.3-8.2,32.2-13,48.6-18.6
		c36.2-12.4,73.6-15.2,111.5-13.7c18.7,0.7,35,8.7,50.3,18.6c3.3,2.2,6.3,5,7.9,8.8c1.6,3.8,1.9,7.2-1.8,10.7
		c-12.2,11.9-23.5,24.7-37,35.2c-8.4,6.5-8.5,6.8-16.9,0.9c-27-19-57.6-26.4-90.1-27.9c-29.6-1.3-58.6,3.5-87.3,9.3
		c-13.9,2.8-26.3,10-38.6,17.2C32,1093.6,29.1,1096.5,23.6,1097.4z"/>
	<path class="st6" d="M382.6,860.5c-43.8,0-86.2-0.5-128.6,0.2c-22.9,0.4-45.6-2.6-68.4-2.5c-14.1,0.1-28.2,0.8-42.3,1.6
		c-15.3,0.8-30.9-15.6-24.6-36.1c2-6.4,9.1-10.6,16.2-10.5c76.5,1.7,153.1,0.5,229.6,0.9c2.5,0,5.1,0,7.6,0c3.1,0,5,1.6,4.5,4.7
		C374.4,833.2,379.5,846.6,382.6,860.5z"/>
	<path class="st7" d="M1189,846c10.8-13.5,14.3-26.8,7.6-42.9c13.6,0,26.2-0.2,38.8,0c38.5,0.8,76.9,0.6,115.4,0.3
		c10.5-0.1,21-0.4,31.4,2c13.2,3.1,26.7,2.1,40.1,2.2c5.1,0.1,10.1,0.5,14.9,2.3c10.7,4,12.9,7.6,12,18.8c-0.3,4.1-2.2,6.9-5.5,8.7
		c-5.4,3.1-11,6.4-17,7c-15.5,1.4-30.9,5.4-46.4,4.4c-60.9-4.2-121.9-1-182.8-2.1C1195.4,846.7,1193.3,846.4,1189,846z"/>
	<path class="st1" d="M980.8,1137.2c-1.2-2.3-3.3-2.4-5.6-2.6c-8.6-0.8-15.9-4.8-22.7-9.6c-8.9-6.4-11.9-18.7-8.8-28.8
		c4.7-15.5,16.1-23.7,30.2-28.7c15.6-5.6,31.5-10.6,46.7-17.3c9.9-4.4,19.7-9.6,23.4-20.9c3.7-11.3,2.7-23.1,0.9-34.4
		c-1.4-8.4-8.8-13.8-16.2-18.1c-9.2-5.3-19.3-8-29.7-10c-4.9-0.9-10-1.3-14.4-4.1c11.6-0.2,23.1-0.9,34.6,1.1
		c2.8,0.5,5.9,0.7,8.7,0.3c14.2-2.3,24.8,3.7,32.7,14.7c7.7,10.8,15,21.7,16.9,35.8c1.7,13.1-2.5,22.5-12.2,30.5
		c-2,1.6-4,3.3-6.2,4.3c-13.6,6.3-23.1,17-31.7,28.9c-9.4,12.9-12,26.7-6.2,42.6C1005.9,1121.9,993.8,1130.7,980.8,1137.2z"/>
	<path class="st8" d="M213.3,979.3c-10.2-1.7-20.5-0.8-30.8-0.4c-5.8,0.3-11.6,0.9-17.4,1.3c-1.1,0.1-2.2,0.2-3.3,0.3
		c-2.5,0.1-4.3-0.7-4.5-3.4c-0.3-3.2,2.1-3.4,4.2-3.4c4.7,0,9.4,0.2,14.2,0.2c2.8,0,5.7,0.6,9.5-2c-9.7-5.6-20.3-1.2-29.5-3.9
		c0.3-3.7,2.9-3.4,4.8-3.5c8-0.5,16-1.5,23.9-1.1c24,1,47.9,0.9,71.8-0.3c15.2-0.8,30.5,0,45.7,0.8c15.2,0.9,30.5,0.7,45.7,0.3
		c18.9-0.5,37.7,2,56.6,2.4c1.1,0,2.2,0,3.2,0.3c2.9,0.7,4,2.9,3.8,5.7c-0.2,3.2-2.8,2.7-4.8,2.8c-6.2,0.3-12.3,0.4-18.5,0.6
		c-3.6,0.1-7.3,0.2-10.4,3.1c9.7,3.7,19.6,2,29.3,2.7c2.9,0.2,7.9-1.9,8.4,2.1c0.6,5.7-4.9,4-8,4c-42.1-0.2-84.2,2.7-126.3,3.4
		c-37.8,0.6-75.5-0.9-113.2-0.7c-2.5,0-5-0.6-7.5-0.9c-2-0.2-3.5-1.1-3.2-3.4c0.4-2.4,2.3-2.3,4.2-2.3c17.4-0.6,34.8-1.3,52.2-1.9
		C213.3,981.1,213.3,980.2,213.3,979.3z"/>
	<path class="st0" d="M522.8,868.8c-2.5,3.8-6.3,5.9-10.2,8c-18.7,10.1-38.6,16.3-60,18c-19.3,1.5-34.9-6.7-47.8-19.5
		c-17.5-17.3-21.7-55.8-9.7-77.4c4-7.1,4.2-7.2,11.9-4.9c10,3.1,20,6.4,30.1,9.3c4.4,1.3,5.7,3.5,4.3,8c-1.4,4.5-2.4,9.1-3.2,13.8
		c-2.1,13.7,0.6,25.3,14.2,32.1c-3,15.6,8.3,26.7,24.6,23.8c11.8-2.1,22.5-7.3,33.4-12C514.4,866.3,519.4,861.6,522.8,868.8z"/>
	<path class="st1" d="M635.8,1156.1c1.7,3.2,5,2.6,7.7,3c18.8,2.9,37.2,3.6,55-5.4c9.6-4.9,19.9-8.1,30.4-11
		c12.8-3.5,24.5-10.6,37.1-15c17.4-6.2,30.5-18,42.2-31.3c11.6-13.2,17.6-28.8,13.6-46.9c-1.1-5.2,0.4-10.7-3.7-17.3
		c11.4,3.2,14.7,14.9,22.3,19.3c2.5,4.6,0.5,13.5-1,26.8c-2.1,17.8-13,29.5-24.8,41.8c-11.2,11.7-23.9,16.8-39,18.9
		c-28.7,4-55.2,14.5-81.2,26.7c-0.7,0.3-1.4,0.6-1.9,1c-25.1,20.8-54.9,21.4-85.2,19.9c-6.1-0.3-12.2-1.7-17.5-5.1
		c1.2-12.6,1.3-13.2,13.3-11.9C616.7,1171.1,626.7,1165.1,635.8,1156.1z"/>
	<path class="st9" d="M409.6,686.1c-0.7,4.7-3.2,4.8-5.8,5c-5.4,0.4-10.8,1.1-16.3,1.2c-32.3,0.7-64.6,2.6-96.8,1.3
		c-25-1-50,1.3-75,0c-11.1-0.6-22.4,1.5-33.6,2c-5.2,0.2-10.7,1-15.6-2.9c21.7-1.5,43.4-3,65-4.5c-21.5-8.5-43.5-0.9-66.3-2.6
		c4.6-3.2,10.2-0.9,13.4-5.2c-5.3-3.8-12.1-1.7-17.7-4c0.7-4.1,3.6-3.6,6-3.7c27.5-0.9,55.1-1.2,82.6-2.9
		c47.1-2.8,94.3,0.5,141.3-2.5c4.3-0.3,8.7-0.9,12.9,2.4c-3.7,3.8-9.4,0.8-13,4.4c3.9,6,10.7,1.9,16.4,4.6
		c-15.9,0.6-31.1,0.7-46.6,3.7c5.6,4.7,5.5,4.6,23.5,3.9C392.4,685.8,400.7,686.1,409.6,686.1z"/>
	<path class="st10" d="M1314.3,990.4c2.8,0.8,6.1,0,8.5,2.4c-2.6,4.4-6.9,6.5-11.6,7.1c-12.5,1.6-25,3.9-37.4,4
		c7.9-0.7,15.7,2.2,23.7,3.7c3.5,0.7,7.8,1.7,7.5,6.3c-0.2,4.5-4.5,5-8.1,5.8c-25.3,5.8-50.9,9-76.9,7c-0.3,0-0.7,0.2-0.5,0.2
		c9.6-0.2,19.7-0.1,29.9,0c2.1,0,5.5-1.4,5.6,2.9c-20.3,0.7-40.5,0.8-60.7-1.1c-11.8-1.1-23.6-1.1-35.5-1.6c-0.7-3.7,2-5.7,3.1-8.2
		c2-4.5,4.9-6,10.3-5c12.9,2.3,26,1.4,39,1c1.7-0.1,4,0,4.1-2.4c0.1-2.3-2-2.8-3.7-2.9c-8-0.5-15.9-0.9-23.9-1.2
		c-5-0.2-10.1,0-14.9-1.9c4-8.9,4-8.8,12.2-8.4c6,0.3,12.1,2.3,18.8-1c-7-4.7-14.8-2.5-22.6-4.5c5.4-6.9,10.1-13,14.9-19.2
		c16-2.6,31.8,0.1,47.6,2.3c8.3,1.1,9.9,5,6.8,12C1271.7,988.7,1293.1,985.5,1314.3,990.4z"/>
	<path class="st11" d="M204.9,1254.6c-9-2.4-18-4.8-28.5-7.6c9.4-3.2,16.9,3.2,25.5,0.3c-2.8-3.9-6.6-4.8-10.2-6.1
		c-1.9-1.7-4.8-0.3-6.8-1.9l-0.1,0c1.2-5.2-5.5-1.3-5.7-4.9c6.4-4.3,13.8-3.3,20.4-1.9c33,6.6,66.7,10.4,99.1,20.2
		c3.8,1.1,7.8,1.8,11.7,2.5c18.4,3.1,34.9,11.9,52.7,16.9c2.7,0.8,5.9,1.9,4.1,6c-1.4,3.4-3.4,5.2-7.6,4c-4.9-1.4-9.9-2.3-14.9-3.2
		c-4.4-0.8-9-1.4-14.8,1.3c10,5.9,19.7,7,29,8.2c5.9,0.7,5.8,3.8,6,7.9c-24.8-3.5-47.7-13.1-72-16.7c-23.7-3.5-47-8.7-70-15.4
		c-6.6-1.9-13.5-2.4-20.3-3.5C200.7,1257.7,207,1257.8,204.9,1254.6z"/>
	<path class="st1" d="M847.8,1021.2c12.2,7.2,24.2,14.7,34.8,23.9c12.2,10.6,19.1,24.3,19.3,40.9c0.1,6.5,0.1,13.1-0.1,19.6
		c-0.3,9.8,0.1,19.5,2.2,29.1c-12.9-1.6-25.9-2.9-38.7-4.9c-7.7-1.2-19.2-13.8-20.3-21.2c-0.2-1.4-0.2-3.1,0.4-4.3
		c5.4-10.2,5-21.9,7.4-32.8c3-13.5,0.2-27.4-2.7-40.9C849.5,1027.5,848.6,1024.4,847.8,1021.2z"/>
	<path class="st12" d="M1462.2,1053.8c-7.8-2.1-15.7-0.9-23.7-0.7c-4.3,0.1-5,2.4-4.6,5.5c0.6,4.6,1.7,9-0.3,13.8
		c-1.4,3.4,0.9,5.4,4.6,5.4c6.8-0.1,13.7,0.7,20.9-2.6c-2,6.9-5.8,8.8-11,9.3c-16.9,1.9-33.8,4.5-50.7,5.7
		c-22.7,1.6-45.4,3.9-69,2.6c5.3-11.5,6.7-22.9,1.3-34.6c-1.3-2.9,0.4-4.8,3.2-5.7c1-0.3,2.1-0.7,3.2-0.7
		c15.6-0.2,30.7-5.2,46.4-4.4c22.1,1,44.2,0.5,66.3-0.4c6-0.3,10.7,0.8,13.2,6.9L1462.2,1053.8z"/>
	<path class="st13" d="M693,777.2c6.9-7.6,15.6-12.7,24.8-17c23.3-10.9,47.1-20.4,71.5-28.9c33.2-11.6,67.1-18.2,102.1-19.3
		c6.5-0.2,13,0.4,19.6,0.6c2.7,0.1,4.7-0.2,4.3,3.8c-0.3,3.5,3.5,3,5.8,3.3c6.4,0.8,12.9,1.3,20.2,2c-6.3,1.7-11.9,1.6-17.5,1.6
		c-14.5-0.2-29-0.1-43.5,0c-4.5,0-8.9,0.8-12.3,4.3c40.4,3,81-2.8,121,5.7c1,0.2,2,0.7,1.9,2.4c-0.5,2-2.5,2-4.2,1.9
		c-22.4-1.7-44.7-3.6-67.1-5.3c-12.4-1-24.7,0.7-36.9,2c-16.5,1.7-33.3,2.5-49.3,7.8c-16.8,5.5-34.2,8.9-50.8,15.6
		c-16.7,6.8-34.6,10.8-51.3,17.9c-12,5.1-24.2,9.5-35.4,16.4c-3.3,2-7.2,3.5-11.4,3.2c-2.3,0.8-3-0.5-3.3-2.5
		c4.2-6.9,11.4-10.1,18.3-12.6c39.5-14.7,78.5-30.9,118-45.6c3.9-1.7,8.3-2.5,11.5-4.1c0.2-0.1-0.3,0.1-0.8,0.2
		c-4.2,1.2-8.2,2.8-12.4,4.2c-37.2,12.4-73.7,26.5-110,41.1c-3.7,1.5-7.3,3.3-11.5,2.4C693.9,777.9,693.5,777.6,693,777.2z"/>
	<path class="st14" d="M311.4,746.8c-3.6,4.1-1.4,5.9,2.7,6.4c4.3,0.4,8.7,0.2,13,0.2c3.8,0,7.7,0,13.9,0c-4,2.9-7.7,2.4-8.5,6
		c9.4,2.7,19.9,2.8,27.9,10.2c-2.2,2.2-4.8,1.7-7.1,1.7c-53.6-0.1-107.2,3.6-160.8,4c-3.7,0-10.1,3.2-11.2-2.4
		c-1.4-7.5,6.6-2.6,9.4-5.2c0.8-0.7,1.6-1.5,2.3-2.2c-2.1-6.7-10.4-0.7-14.3-7.6c15.9-0.3,31.1,3.6,46.9-3.7
		c-7.5-2.2-13.4-2.7-19.4-2.8c-7.2-0.1-14.5-0.2-21.7-0.5c-2.5-0.1-5.5,0-5.6-3.6c-0.1-4.2,3.1-4.2,6.1-4.3c12-0.1,24-1.1,35.9-0.2
		c11.2,0.9,22.4,1.2,33.6,1.2c17.5-1.6,35.1-0.3,52.7-0.7C309.3,743.5,311.6,743.5,311.4,746.8z"/>
	<path class="st15" d="M579.2,1171.2c-3.4,6.9-9,11-14.3,15.1c-5.5,4.2-10.5,8.9-14.4,14.6c-6,8.7-13.8,13.8-24.8,12.2
		c-0.4-0.1-0.7,0-1.1,0c-65.2,0.4-130.5,1.6-195.7,2.9c-46,1-92.1-0.2-138,1.9c-21,1-42,1.4-63,1.6c-4.1,0-10.9,1.8-11.1-3.4
		c-0.2-5.8,6.6-4.9,11.2-5c4-0.1,8-0.1,12-0.1c70.7,0.2,141.4-1.8,212-3c46.4-0.8,92.8-0.4,139.1-1.6c10.8-0.3,21.6-2.5,32.5-1.8
		c3.1,0.2,5.4-1.3,7.8-3.1c7.4-5.3,13.6-11.9,20.1-18.3c1.3-1.2,3.1-2.8,3.2-4.2c0.5-10.4,7.6-9.8,14.7-9.3
		C572.3,1169.8,575.2,1169,579.2,1171.2z"/>
	<path class="st16" d="M975.9,1235.4c-2.7,3.1-5.7,3.9-8.5,3.3c-8.2-1.6-16.5,1.1-24.8-0.7c-3.6-0.8-7.2-0.3-10.8,0.1
		c-24.4,2.7-48.9,5-73.3,8.1c-10.4,1.3-20.6,4-30.8,6.5c-33.4,8.3-66.7,16.9-100.1,25.3c-8.4,2.1-17.2,2.2-25.7,4.3
		c-7.8,1.9-10.2,0-13.2-7.4c-5.4-13.5-11-26.9-14.8-40.9c-1.7-6.3-4.2-12.2-8-17.7c-4-5.8-3.4-6.5,4.7-10.7
		c4.8,10.5,10.9,20.3,13.1,31.9c1.7,9.3,7.4,17.2,11.5,25.7c1.6,3.3,4,4.5,7.8,4.4c8.4-0.2,16.6-1.5,24.7-3.5
		c26.1-6.3,52-13.1,78.2-18.8c31.8-7,63.8-13.2,96.7-13.4c4,0,8-0.5,11.9-1.3c14.1-2.8,28.1-2.2,42.1,1c3.3,0.8,6.5,0.6,9.7,0.7
		C969.5,1232.3,972.8,1232.3,975.9,1235.4z"/>
	<path class="st17" d="M440.1,1232.4c-2.2,4.6-6.7,5.7-10.4,7.5c-16.1,7.6-30.3,18.2-46,26.5c-3.3,1.7-5.8,3.4-9.9,1.6
		c-26.8-12.2-55.3-19-83.6-26.5c-9.3-2.4-18.8-4.4-28.3-9.1c3.7-4,7.7-3.7,11.4-3.7c37.7,0,75.4-0.5,113.1,0.4
		c15.9,0.4,31.8,1.2,47.8,1.3C435.9,1230.4,437.8,1230.1,440.1,1232.4z"/>
	<path class="st1" d="M522.8,868.8c-4.5-4.1-8.1,0.3-11.6,1.7c-8.4,3.3-16.3,7.7-25,10.1c-7.3,2-14.3,4-22.1,1.4
		c-8.2-2.8-16-11.9-16.9-20.4c-0.4-4.6,4.3-3.1,5.5-5.5c10.9,7.8,23.2,9.4,36.2,8.5c8-0.5,13.5-4.7,17.8-10.9
		c1.7-2.5,2.6-5.7,0.4-8.1c-2.5-2.6-4.4,0.6-6.4,1.7c-1.3,0.7-2.5,1.4-3.7,2.2c-2.3-6.1-5.6-10.1-12.8-12.4
		c-14.2-4.5-17.8-23.1-7.7-33.7c2.2-2.3,5.2-3.9,6.8-6.8c16.6-4.1,35.5,4.1,43.3,18.3c5.5,10,8.5,20.3,7.7,32
		C533.7,856.3,530.4,863.5,522.8,868.8z"/>
	<path class="st8" d="M1266.5,862.3c-2.6,3.6-6.9,1.1-10.2,5.3c12.6,2.1,24.4,2.4,36.3,2.6c12.2,0.2,24.4,1,36.7,0.6
		c-11,5.2-23.7-0.3-35.3,5.8c11.5,6.7,23.5,1.7,34.7,3.7c0.4,5.5-3.2,5.7-7.1,5.8c-11.6,0.2-23.2,0.3-34.8,0.6
		c-14.1,0.4-28.1,1.2-42.2,2.8c25,7.9,50.5,6,76.2,3.6c-0.9,4.2-3.9,4.2-6.7,4.5c-14.8,1.7-29.6,2.4-44.5,2.3
		c-18.5-0.1-37-0.5-55.5,0.5c-4.6,0.3-10,0.6-9.3-6.8c4.9-1.9,10.3,1.5,14.9-1.8c-0.6-0.5-1.2-1.5-1.7-1.4
		c-12.3,1.9-19.9-4.7-27.3-13.4c-7.5-8.8-18.7-12-29.3-15.9C1196.3,864.5,1231.2,860.8,1266.5,862.3z"/>
	<path class="st18" d="M651.1,806.5c13.5,2.5,26.7,3.1,39.7-1.5c4.4-1.6,7.6-1.1,10.5,2.5c8.3,10.2,19.4,17.4,29.4,25.8
		c11.4,9.6,22.2,19.7,32.6,30.5c5,5.2,9.8,10.7,16.5,14c3.8,1.9,3.9,4.4,0.5,7.5c-4.1,3.7-8.7,3.3-13.3,2.7
		c-10.4-1.3-19.6-6.2-27.3-12.6C710.9,851.4,681.7,828.4,651.1,806.5z"/>
	<path class="st19" d="M632.8,1078.9c-21.5,18.4-43,36.6-64.4,55c-2.8,2.4-5.3,3.2-8.8,1.8c-6-2.4-12.3-4.2-18.2-7.1
		c-16.8-8.5-34.1-16.2-52.3-21.3c-15.6-4.3-31.2-8.8-47.6-10c-9.3-0.6-18.5-3-27.8-4.4c-28.8-4.2-57.8-4.6-86.7-3.8
		c-9.6,0.3-19.4,2.1-28.5,6.1c-3.8,1.7-7.6,3.8-13.1,3.5c3.6-5.6,8.2-8,13.3-9.5c15-4.4,30.5-6,46-6.6c12-0.4,24-0.6,35.9-0.1
		c20.2,0.8,40.4,2.4,60.4,5.6c8.2,1.3,16.5,2.9,24.7,2.7c11-0.3,20.3,3.6,29.7,8.1c11.4,5.5,23.1,10.4,34.8,15.2
		c5.1,2.1,9.8,4.3,14.1,7.8c6.5,5.2,8.7,4.9,15.5,0.2c21.4-14.8,43.1-29.3,63.3-45.7C627.9,1072.8,630.3,1074.5,632.8,1078.9z"/>
	<path class="st14" d="M1254.9,1029.8c-4.7-3.3-9.9-1.2-14.8-1.4c-9-0.3-18-0.1-27-0.9c3.1-2.9,6.6-1.8,9.9-1.9
		c13.4-0.5,26.8,0.7,40.2-1.5c5.1-0.8,9.6-1.5,13.9-4.9c4.9-3.9,11.1-1.7,16.8-2.3c3.3-0.4,8.8,2.3,9.4-2.4c0.6-5-5-3.3-8.2-4.1
		c-11-2.7-22.2-4.8-33.6-6c8.5-3.6,17.5-3.4,26.2-4.4c7.9-0.9,15.6-3.3,23.7-2.6c4.5,0.4,6.6-5.7,11.5-4.6
		c13.7,1.8,27.3,3.8,41.2,3.1c3.2-0.2,5.7,0.2,5.9,4.4c0.2,4.1-1.3,6-5.5,6c-3.6,0-7.1,0.6-10.2,3.7c2.1,3.9,6,4.4,9.2,3.6
		c5.5-1.2,7.1,1.4,8.1,5.8c0.7,3.1,3.4,5.5,3.4,10.5C1334.8,1030.3,1294.8,1032,1254.9,1029.8z"/>
	<path class="st20" d="M1209.2,912.2c34.9-0.5,69.2,1.5,103.7-2.1c-1.1,11.2-2.2,21.4-3.2,31.5c-31.3,3.1-63,0.4-94.4,2.8
		c-3.7,0.3-6.3-0.1-6.1-5C1209.4,930.5,1209.2,921.5,1209.2,912.2z"/>
	<path class="st21" d="M1320.2,942c2.5-8.4,3.7-15.1,4.1-21.9c0.6-8.7,1.9-9.9,10.4-10.1c29-0.8,58-0.6,86.9,2.1
		c7.4,0.7,8.6,2.4,7.9,9.6c-0.3,3.6-1.6,7-2.2,10.6c-0.5,3.1-2.4,3.7-5.2,4.3c-10.7,2.2-21.5,3.2-32.4,3.4
		C1367,940.3,1344.3,938.9,1320.2,942z"/>
	<path class="st1" d="M921.8,319.5c11.9,0.6,15.6,2.6,17.1,9.6c1.7,7.6-0.4,11.4-10.7,16.2c-3.8,1.8-4.4,4-4.5,7.5
		c-0.3,6.8-0.5,13.6-1.1,20.5c-1.8,20.2-12.9,36.6-20.3,54.5c-5.2,12.5-16.2,19.6-27.1,25.6c-13.9,7.6-28.6,14-45.3,12.1
		c2.5-2.3,5.9-2.6,8.9-3.8c28.2-11.1,46.7-31.2,54.9-60.2c5.5-19.5,10.8-39.1,12.1-59.4c0.2-3.3,0.9-5.7,4.5-6.4
		C919.1,334,920.8,327.1,921.8,319.5z"/>
	<path class="st22" d="M711.8,1257.7c1.9-7.6,7.6-8.3,12.8-9.2c22.1-4.1,43.8-9.7,65.5-15.7c5.6-1.5,11.2-2.8,17.5-5.9
		c-12.1-0.6-22.3,4.6-33.2,5.1c13.9-5.7,27.4-12.5,42.4-14.9c17.5-2.9,34.7-7.5,52-11.2c17.8-3.8,35.3-2.9,53-1.2
		c2.9,0.3,5.8,1.1,8.6,0.8c23.2-2.4,40.9,12.1,61.1,19.3c-3.8,2-7.4,1.6-11,0.7c-9.9-2.4-20-2.8-30.1-2.9c-13-0.1-26-1.6-39.1-0.9
		c-39.5,2.1-78.8,4.7-117.2,15.6c-24.1,6.8-48.4,12.6-72.6,18.7C718.6,1256.7,715.5,1257,711.8,1257.7z"/>
	<path class="st13" d="M1314.3,990.4c-1.2,2.3-3.4,2.7-5.6,2.2c-17.9-3.9-36-1.7-54-1.6c-4.3,0-8.6,0-13.4,0c1.3-6,8.1-3.6,10.1-8.8
		c-2.9-3.6-7.8-4.2-12.6-4.5c-10.1-0.6-20.2-1.1-30.2-1.8c-4.2-0.3-8.8,0.8-12.4-2.5c2.5-7.4,7.5-8.8,15-8.6
		c20,0.4,39.8,1.7,59.7,3.3c10.9,0.9,21.7-0.2,32.6-0.5c22.1-0.7,44.2-1.2,66.3-1.8c2.1-0.1,4.3-0.5,6.4,1.2
		c0.1,5.9-2.2,8.8-8.9,8.6c-17-0.5-34.1-1.4-51.1,0.3c-0.4,1.4-5.7,0-2.1,3.7c15.2,0.6,30.4,1.1,45.6,1.7c2.2,0.1,4.3-0.1,6.5,0
		c2.1,0,4.6-0.2,4.3,3.2c-0.3,2.9-2.6,3.1-4.8,3.1c-4-0.1-8-0.3-11.9-0.5c-11.2-0.4-22.4-2.3-33.6,0
		C1317.7,987.4,1314.9,987,1314.3,990.4z"/>
	<path class="st23" d="M495.3,1233.6c-6.3,4.5-12.2,9.9-19.1,13.5c-15.3,7.9-27.6,19.9-42.1,28.8c-14.2,8.7-27.7,18.5-41.5,27.9
		c-4.2,2.8-8.6,5.3-11.9,9.3c-3.6,4.3-8.4,5-13.9,3.7c-23.7-5.4-47.5-10-71-16c-15.1-3.8-30.2-7.3-45.7-9.3
		c-12.7-1.7-24.7-5.7-36.7-9.6c-11-3.6-21.6-8.3-33-10.6c-14.2-2.9-23.6-20.7-21.8-33.5c0.5-3.3,1.3-5.7,5.1-5.3
		c4.3,0.4,3.7,3.7,3.4,6.6c-0.2,2.2-1,4.3-1.1,6.4c-0.7,9.5,4.1,16.8,13.3,19.9c9.3,3.2,18.8,5.3,28.5,6.8c6.1,0.9,12.1,2.2,18,4
		c28.8,8.8,58.3,14.2,88.1,18.5c12.5,1.8,24.8,5.3,36.8,9.2c13.8,4.5,25,3.3,37.3-5.8c15.1-11.1,32.2-19.6,47.1-31.1
		c17.3-13.3,37.2-22.5,54.5-35.6C491.5,1229.8,493.7,1230.6,495.3,1233.6z"/>
	<path class="st9" d="M470.1,443.3c8.3,0,16.7-0.2,25,0c8.9,0.2,11,2.2,10.8,11c-0.2,9.4-0.2,18.7,1.1,28.1c1.1,8.1,0.2,8.6-7.8,8.8
		c-19.5,0.4-39.1-0.4-58.6,1.3c-9.4,0.8-14.2-2.6-17.4-11.5c-3.5-9.7-2.5-19.6,2.1-28.5c3.6-7.1,11.5-8.3,18.8-8.6
		c8.7-0.4,17.4-0.1,26.1-0.1C470.1,443.7,470.1,443.5,470.1,443.3z"/>
	<path class="st24" d="M412.9,951.8c-1.9,4.1-6.1,3.8-9.9,3.8c-11.6,0.1-23.3,0.7-34.8-0.3c-14.6-1.2-28.9,0.9-43.4,1.6
		c-15.2,0.7-30.4,0.8-45.6,0c-23.2-1.2-46.4-1.1-69.7-1.3c-20.6-0.2-41.3,1-61.9-1.3c-1.8-0.2-3.7,0-5.4-0.5
		c-2.2-0.6-4.1-1.9-3.9-4.5c0.2-2.5,2.2-3.9,4.5-3.9c9.8,0,19.6-0.2,29.4,0.3c22.1,1.3,44.2,2.2,66.3-0.1c5.8-0.6,11.6-0.5,17.4-0.5
		c34.5-0.1,69-0.5,103.4,0.1c16.6,0.2,33.3,1,49.7,3.9C410.4,949.5,411.9,949.5,412.9,951.8z"/>
	<path class="st1" d="M709.9,352.4c-6.5,0.5-12.7,3.2-19.3,2.1c-6.9-1.2-9.7,2.9-11.9,8.4c-1.1,2.8-1.7,5.8-1,8.5
		c3.8,14.6-1.5,27.8-7.2,40.4c-14.9,32.2-41.8,45-76.1,45c19.6-6.7,36-17.6,48.6-34.4c9.7-12.9,13.6-27.8,16.7-43.1
		c1.8-9.2,3.1-18.5,3.3-28c0.1-4.3,1.2-8.5,2-14c11.6,6.1,22.9,3.3,34.3,2.2c9.7-0.9,9.8-0.7,10.6,8.6
		C710,349.5,709.9,351,709.9,352.4z"/>
	<path class="st25" d="M631.5,775.3c-0.5-0.5-1.1-1-1.7-1.4c-21.4-14.5-40.3-33-66.9-39c-15.8-3.6-31-9.6-47.5-11.1
		c-8.7-0.8-17.3-1.6-26-1.4c-29.7,0.8-59.5,1-89.1,4.2c-8.2,0.9-16,4.1-24.5,4.3c-0.6-8,2.1-12.5,9.9-14.4c12.4-3,24.9-4.6,37.6-4.6
		c32.3,0,64.6-1.1,96.8,2.6c24.1,1.7,36.4,6.5,53.2,13.1c18,8.1,35.2,17.5,49.8,31.1c4.7,4.4,10.1,8,15.2,12
		C638.5,775.8,635.2,775.8,631.5,775.3z"/>
	<path class="st26" d="M315.9,1076c0.4-0.1,0.7-0.1,1.1-0.2c39.3-15.8,80-14,120.9-9.8c20.8,2.1,40.4,8,59.2,16.7
		c14.8,6.8,27.8,16.8,42.2,24.4c2.9,1.5,3.2,4.3,5,8.6c-7.2-3.7-13.2-6.1-18.5-9.5c-27.3-17.6-57.7-24.1-89.6-26
		c-34.3-2.1-68.6-3.5-103-3.1c-3.6,0-7.2,0.8-10.8,1.2C319.9,1078.4,316.5,1081.2,315.9,1076z"/>
	<path class="st13" d="M1211.5,748.9c-0.2-1.9,1.4-2.8,2.4-4.1c4-2.9,8.8-3.7,13.4-3.4c23.6,1.3,46.9-2.3,70.5-2.2
		c1.8,0,3.6,0.1,5.3-0.8c16.3-0.1,32.4-3.7,48.8-2.5c-2.2,11.4-2.2,11.6-12.4,11.4c-13.1-0.3-26,1.8-39.1,2.2
		c-1.9,0.1-3.5,0.7-4.4,2.7c1.3,3.8,4.5,2.7,7.2,2.7c12.3,0,24.7-0.1,37-0.2c3.3,0,6.7-0.7,6.7,4.5c0,4.7-3.1,4.8-6.5,5.3
		c-6.1,1-12.3,0.6-18.4,0.6c-13.2,0-26.4,0-39.8,2c11.6,1.1,23.1,2.5,34.7,3.2c8.3,0.5,16.7,0.1,25,0c2.9,0,4.9,0.4,4.9,4
		c0,3.5-0.8,5.2-4.8,5.4c-36.2,1.2-72.4,3.2-108.7,1.8c0.3-4.8,4.4-4.6,7.2-4.5c12.2,0.2,24.1-2.3,35.7-4.1
		c-5.8-1.8-10-6.3-8.9-12.5c1.3-7.7,9.8-3.9,15.5-7.7c-13.3-4-25.9-2.9-38.5-1.7C1233.3,751.8,1222.1,754.5,1211.5,748.9z"/>
	<path class="st26" d="M1300.7,1093.2c-10.8,1.4-21.7-0.2-32.5,0.3c-11.2,0.5-22.4,0.8-33.6,1.3c-3.5,0.2-6.5,0-7.1-4.5
		c-1.9-13.6-4.4-27-11.4-39.9c15.8-0.7,30.2,1.1,44.5-0.4c14.6,2.3,29.5-0.6,44.3,2.8c-16.1,9.5-34.1,4.8-48.8,7.4
		c8.2,0.6,18.9,2.8,29.8,0.3c5.3-1.2,10.8-1,16.3-0.2c3.3,0.5,7.1,1.7,6.9,5.6c-0.1,3.5-4,3.9-6.8,4c-8.7,0.2-17.2,2.7-26.2,2.4
		c8.3,1.3,16.3,0.1,24.3-1c3.2-0.4,7.3-0.5,8.6,2.9c1.3,3.4-2.1,5.3-4.9,5.9c-6.3,1.4,1.3,5.5-1.6,7.4c-15.3,2.7-30.5-1.2-43.7-0.1
		c12.3,1.5,26.8-0.9,41,2.6C1301,1090.8,1301.3,1091.9,1300.7,1093.2z"/>
	<path class="st27" d="M1211.5,748.9c11.6,0.4,23.1,0,34.7-1.2c14.1-1.5,28.3-1.7,42,2.9c1.3,0.4,2.9,0.4,3.2,3.1
		c-6.7,3.8-14.6,3.8-22.1,4.9c0.6,9.3,5.4,13.1,14.7,12.2c-7.1,5.2-19.4,8-32.8,8.6c-6,0.3-12.3-1.9-17.9,2
		c-14.8,0.9-29.6-0.2-44.3,1.6c-1.8,0.2-3.8,0.4-4.8-1.4c-1.4-2.4,0.2-4,1.8-5.6c4-3.8,8.2-5.9,14.4-5.5c11.7,0.8,23.6,1.7,35-3.1
		c-13.2-1.4-26.6,0.3-39.7-1.7c-1.2-4.4,1.4-6.3,4.7-7.2C1205.7,757,1209,753.5,1211.5,748.9z"/>
	<path class="st28" d="M1315.2,694.4c-17.7,0-35.5,0-53.2,0c-3.4,0-6.7,0.1-7.1-4.5c-0.2-3.1-0.5-5.7,4.2-5.1
		c4.8,0.6,9.6-1.9,14.6,1.2c2.4,1.5,5.3,0,3.5-4.6c-3.1-8.1-1.2-10.4,6.9-11c27.5-1.9,54.9-2,82.4-0.3c9.8,0.6,10.4,0.8,10.3,10.8
		c0,16.1,1.6,13.6-14,13.7c-15.9,0.1-31.9,0-47.8,0C1315.2,694.5,1315.2,694.5,1315.2,694.4z"/>
	<path class="st14" d="M1058.8,626.8c-10.9,16.1-19.3,33.8-30.6,49.7c-2.3,3.2-3.7,7-5.4,10.5c-2.4,4.7-4.3,10.2-10,12.3
		c-4.8,1.8-9.8,3.7-14.4-0.1c-4.3-3.6-1.8-8.3-0.9-12.2c1.4-5.9,3.9-11.4,7.7-16.5c9.6-13.1,16.2-28.2,27-40.6
		c10.1-11.7,20.6-22.9,31.3-33.9c1.1,1.6,1.7,3.5,0.8,5.1C1059.7,609.1,1059,617.8,1058.8,626.8z"/>
	<path class="st21" d="M464.3,560.7c-11.5-3.4-21.1,2.2-29.6-3.6c14-1.9,28.5,3,42.6-2.9c-3.4-4-7.6-3.4-11.5-3.4
		c-8.3,0-16.7,0.3-25,0.4c-2.5,0.1-5.1,0.5-7.6,0.1c-2.1-0.4-4.1-1.9-4-4.3c0.1-2.4,2.5-2.2,4.2-2.2c18.1-0.5,36.2-1,54.3-1.5
		c2.2-0.1,4.4,0.1,6.5,0c12-0.3,12-0.3,13.8,12.1c2.4,16.7-0.8,21.2-17.9,23c-9.3,1-18.8,0.7-28.2,0.9c-5.8,0.1-11.6,0.3-17.4,0.1
		c-6.6-0.2-7.7-1.7-8-7.4c-0.3-5.6,2.7-6.3,7.3-6.6C449.9,564.9,456.4,564.7,464.3,560.7z"/>
	<path class="st29" d="M521.1,1197.2c-6.6-2.3-12.1-6-15.4-12.7c-2.7-5.4-2.2-8.5,2.8-12.1c4.4-3.1,9.2-5.7,11.6-11.6
		c-6.3-2.4-8.6,4.9-14.4,4.6c-0.4-4.7-2.2-9.6-0.3-14.2c1.7-4.2,8.5-3.9,10.1-9c-4.4-2.8-7.2,3.1-11.1,1.9
		c-3.1-5.9-3.6-12.6,0.6-17.2c4-4.4,9.4,0.9,14.3,1.5c1.4,0.2,2.7,1,4.1,1.5c15.1,5.4,21.4,16.3,21.8,32.2
		c0.3,10.3-1.5,18.1-10.7,23.8C529.6,1188.9,525.6,1193.3,521.1,1197.2z"/>
	<path class="st30" d="M411.6,999.5c-7.4,5.3-15.5,5.3-23.2,6.3c-20.8,2.7-41.6,5.1-62.8,3.2c-14-1.3-28.2-1.2-42.3,0.9
		c-6,0.9-12.2,0.7-18.3-1.4c-7.7-2.7-15.7-2.5-23.7-1.9c-29.3,2.3-58.5,4.4-87.9,3.6c-5.1-0.2-10.1-0.7-15.1-1.8
		c-1.9-0.4-3.2-1.7-3-3.8c0.1-1.7,1.4-2.4,2.8-2.9c4.5-1.6,9.3-2.3,13.9-1.6c13.4,2.1,26.7-0.4,40.1-0.1c23.5,0.4,47.1,1.2,70.6,1.4
		c32.6,0.3,65.2,0.1,97.8,0.2c13.1,0,25.9-2.8,39-2C403.6,999.7,407.6,999.5,411.6,999.5z"/>
	<path class="st31" d="M385.9,784.8c0.4,3-1.8,4.9-2.3,7.3c-0.8,4.2-3.7,4.8-7.3,4.6c-5.4-0.2-10.9-0.4-16.3-0.3
		c-49.7,0.3-99.4,0.4-149.2,1c-13.4,0.2-26.8,1.6-40.2,1.2c-2.2-0.1-4.4,0-6.5-0.1c-2.4-0.2-4.2-1.2-4.7-3.7
		c-0.6-2.9,0.6-5.2,3.3-6.1c3-1,5.9-2.8,9.4-1.7c7.1,2.1,14.4,1.3,21.6,1.3c52.6,0,105.3,0.1,157.9-0.4
		C363.1,787.9,374.5,785.9,385.9,784.8z"/>
	<path class="st32" d="M1089.2,1071.7c5.9,0.6,11.1,3,16.1,6c14.4,8.4,19.9,21.7,16.5,37.8c-1,4.8-3.8,5.5-7.8,5.3
		c-20.6-0.7-41.2-1.3-61.8-1.9c0.1-1.1,0.4-2.6,1.3-2.7c11.9-0.6,13.8-8.3,14.4-18.2C1068.7,1084.5,1078.4,1077.5,1089.2,1071.7z"/>
	<path class="st10" d="M1207,555.2c-8.5,2.9-16.8,6.1-25.4,8.5c-10.3,2.9-19.4,7.6-27.3,14.7c-2.6,2.3-5.1,5.2-8.9,5.7
		c-2.3-1.8-1.4-3.8-0.6-5.8c3.3-9.7,5.8-19.5,2.3-29.6c-1.1-3.1,0.5-4.7,2.7-6.2c14.8-9.5,28.8-20.4,44.3-28.8
		c2.2,1.5,4,3.9,3.4,6.3C1194,533.6,1200.7,544.3,1207,555.2z"/>
	<path class="st33" d="M1441.3,965c-1.1,14.6-13.9,7.5-20.5,12.2c3.8,5.6,10.5,0.9,14.9,4.6c-1.6,8.2-4.3,16.6-1,25.7
		c-13.7,3.7-26.8,8.5-41.2,7.7c-8.1-0.4-9.3-0.9-9.7-9.1c-0.1-2.2,0.1-4.4,0-6.5c-0.2-3.7,1.8-5.2,5-5.8c6-1.2,12-2.4,19-3.8
		c-7.2-5.6-15.1-0.6-22.5-4.4c8-7.2,19.3,1.1,26.8-6.4c-6.6-6.1-15-1.7-22.1-4.5c0-6.3,2.9-9.6,9.1-9.6
		C1413,965,1427,965,1441.3,965z"/>
	<path class="st34" d="M391.7,701.2c-8.9,6.3-18.1,8.3-28.6,9c-49.7,2.9-99.4,0.3-149.1,2.4c-20.3,0.9-40.6,1-60.9,1.2
		c-4.6,0-9.4,0.5-13.9-3.9c6.2-3.4,12.5-4,18.7-4.3c6.5-0.4,13.1-0.1,19.6-0.3c65.3-2,130.6-2.5,195.9-2.4
		C379.5,702.8,385.6,701.8,391.7,701.2z"/>
	<path class="st14" d="M1181.2,409.5c6.9-7.2,14.3-13.9,22.9-18.8c2.5,1.6,2.5,4,3.1,6c2.4,7.9,5.2,15.4,11.8,21.1
		c5.3,4.6,5.2,10.6,0.9,16.1c-4.5,5.7-9.8,10-17,12.6c-7,2.5-13.3,7-19.9,10.6c-6.8,2.1-8-3.5-9.2-7.5
		C1169.3,435.1,1171.1,421.4,1181.2,409.5z"/>
	<path class="st35" d="M1119.8,271.7c-7.7-5.8-10.3-14.7-12.8-23.2c-2.9-10.1-5.2-20.2-10.2-29.6c-1.8-3.4-2.4-7.5-3.3-11.4
		c-2.8-12.1-6.9-23.6-14.9-33.3c-14.3-17.3-25.5-36.8-39.3-54.4c-12.7-16.2-29.3-27.5-48.1-35.7c-2.9-6.5,0.4-11,4.9-15.2
		c21.9,15.1,40.8,33.3,56.2,55c13.3,18.8,28.5,36.5,38,57.8c6.5,14.5,12,29.4,18.7,43.9C1115.9,240.3,1118.7,255.8,1119.8,271.7z"/>
	<path class="st28" d="M1341.8,896.7c7-12.5,8-25.1,3.4-38.4c8.1-2.3,15.6-0.7,23,0.1c7.6,0.8,15.1,1.1,22.7,0.6
		c14.3-1,19.2,4.4,16.7,18.4c-2.6,14.4-8.1,19.3-22.3,19.6C1371.2,897.3,1357.1,898.1,1341.8,896.7z"/>
	<path class="st1" d="M623.4,1053.9c11.9,3,23.9,5.6,35.6,9c10.9,3.2,19.1,9.8,23.5,20.8c1.8,4.6,1.6,8.7-1.1,12.3
		c-8.6,11.2-18.2,20.9-34.1,19.2c-1.8-6.2-2.7-12.8-6.1-18.4c-3-5.1-2.4-8.8,1-13.6c5.9-8.2,5.4-10.1-4.6-13.5
		C629.4,1066.9,625,1061.9,623.4,1053.9z"/>
	<path class="st36" d="M864.7,827.2c4.4,4.6,3.7,10.8,4.3,16.2c2.3,20.2,10.9,37.1,25.2,51.3c8.9,8.9,17.9,17.8,26.7,26.9
		c3.8,4,8.8,6.3,13.1,9.4c3.7,2.7-0.5,2.7-1.9,3.6c-2.4-0.6-5-0.9-7.3-1.9c-25.8-10.8-48-26.1-63.4-50.1c-3.2-5-4.9-10.2-4.8-16.3
		c0.2-9.7-0.9-19.4,2.3-28.9C860.1,833.4,861.3,829.8,864.7,827.2z"/>
	<path class="st37" d="M1333.7,1234.6c-9.5,4.4-17.9,2.5-25.9,1.7c-40.4-4.1-80.9-6.3-121.6-4.6c-19.5,0.8-39.1,0.9-58.7-0.8
		c-15.5-1.3-31.2,0.3-46.7,0.6c-4.9,0.1-9.8,0.5-15.6,0.8c10.1-5.4,20-6.9,30.2-6.7c63.8,0.8,127.7-3,191.5-0.9
		c11.9,0.4,23.8,2.1,35.8,1.1C1328,1225.4,1329.7,1230.9,1333.7,1234.6z"/>
	<path class="st38" d="M1089.2,1071.7c0,4.6-4.3,5.8-7,7.4c-9.6,5.8-11.3,15.2-12.6,24.9c-0.3,2.1-0.2,4.3,0,6.5
		c0.6,5.5-2.2,6.9-7.1,6.7c-3.5-0.1-7.3-1.2-10.3,1.7c-4.3,0.4-8.6,1-12.9,1c-8.3-0.1-11.7-3.6-11.4-12.1
		c0.4-9.3,3.8-17.6,10.9-23.9C1053.4,1070.8,1070.6,1068.1,1089.2,1071.7z"/>
	<path class="st29" d="M1058.8,626.8c-4.7-6.7-3.6-13.3,0.3-20c2-3.4,4.2-6.8,4.4-10.9c-0.7-2.1,27.1-29.7,43.1-38.2
		c5.5-2.9,11.2-5.1,17.2-6.6c4.7-1.1,8.8,0.1,10.6,5.2c1.7,4.7-0.2,9.6-5.3,11.6c-17.7,7-30.8,20.2-44.6,32.5
		C1075.4,608.7,1065.4,616.1,1058.8,626.8z"/>
	<path class="st38" d="M490.3,640.3c2.3,7.4,4.8,13,5.7,19c1,6.2,2.2,12.6-2,18.7c-3,4.3-2.2,9.8-1.9,14.8c0.3,4.7-1.3,6.4-6.1,6.3
		c-14.1-0.2-28.1-0.1-43.8-0.1C455.5,676.7,470.6,657.6,490.3,640.3z"/>
	<path class="st39" d="M139.6,658.9c2.6-3.8,5.5-3.2,8.4-2.6c7.2,1.4,14.3,1.1,21.5-0.3c4.2-0.8,8.7-0.6,13-0.6
		c35.8,0.7,71.6-1,107.3-3.4c23.8-1.6,47.7-2,71.6,0.4c12.2,1.2,24.5,0.2,38.9,0.2c-4.9,4.5-9.1,3.9-13,4.3
		c-45.9,4.4-92,1.4-138,2.9c-16.6,0.6-33.2,2.9-49.8,2.9c-15.9,0-31.7,1.5-47.6,1.2C147.5,663.9,143.5,662.1,139.6,658.9z"/>
	<path class="st40" d="M1085.2,1211.1c6.7-0.9,13.7,0.1,19.9-3.8c-4.8-1.3-9.9,1-15.2-1.6c21.3-5.1,42.3-3.2,63.2-3.5
		c21.1-0.3,41.8,4,62.8,5c22.1,1.1,44,4.4,66.1,4.4c8.4,0,16.2,2.5,25.1,4.6c-2.1,3-4.3,1.7-6,1.7c-25.7-0.7-51.4-1.2-77.1-2.2
		c-25.7-1-51.4-2.2-77.1-3.7c-16.4-1-32.6,1.5-48.9,1.3C1093.6,1213.6,1088.6,1216.9,1085.2,1211.1z"/>
	<path class="st10" d="M1187.4,504.9c-3.8,4-9,5.9-13.6,8.4c-12.1,6.3-23.2,14.3-36.3,22.3c-0.7-9.2-1.6-16.9-1.6-24.6
		c0-3.6,2.9-6.5,5.3-9.2c4.8-5.5,10.4-10.1,16.3-14.2c9.8-6.7,19.6-13.3,29.4-20c2.3-0.8,4,0.8,3.6,2.4
		C1187.4,481.6,1189.9,493.5,1187.4,504.9z"/>
	<path class="st14" d="M1165.6,354.6c7-6.8,14.9-12.2,24.6-16.4c3.6,9.3,8.6,17.4,16.3,23.6c2.5,2,2.8,5,1.9,7.9
		c-2.5,8.1-5.9,15.7-14.7,18.7c-6,2-10.5,6.1-15.2,10c-6.4,2.2-9.5-2.2-11.5-6.7C1161.5,379.6,1160,367.1,1165.6,354.6z"/>
	<path class="st29" d="M1181.2,409.5c-3.4,10.2-8,20.3-6.6,31.4c0.8,6.3,1,13.2,8.4,16.2c-14.7,9.6-29.5,19.3-45,29.4
		c-0.1-8,3.1-14.5,4-21.5c0.9-6.8,2.4-13.5,2.2-20.4c-0.1-6.2,2.7-11.1,7.8-14.7C1161.8,423.3,1170.7,415.3,1181.2,409.5z"/>
	<path class="st41" d="M632.3,1124.2c-0.1,4,0.1,8-1.3,11.8c-6.9,18.5-31.1,24.1-45.6,10.6c-4.5-4.2-5-7.6-0.6-12.1
		c5.3-5.4,11.3-10.2,17.1-15c6.1-5.1,12.4-10,18.7-14.9c5.3-4.1,6.3-3.7,9.3,2.6C632.4,1112.6,632.2,1118.4,632.3,1124.2z"/>
	<path class="st42" d="M295.5,733.8c-20.3,0-40.8-1.7-60.9,0.5c-20.3,2.2-40.5,1-60.7,1.3c-4.8,0.1-9.3-1.1-13.9-2
		c-1.6-0.3-2.5-1.4-2.7-2.9c-0.1-1.5,0.6-2.7,1.9-3.6c2.5-1.7,5.4-2,8.3-2c13.8,0.3,27.5,0.2,41.3,1.1c15.2,1,30.4,0.7,45.7,0.7
		c24.3,0.1,48.6-0.3,72.9,0.1c9.5,0.1,18.7-1.9,28.1-2.1c2.9-0.1,7.3-1.7,7.5,3.3c0.2,5.1-3.8,5.3-7.7,5.3c-5.4,0-10.9,0-16.3,0
		c-14.5,0-29,0-43.5,0C295.5,733.7,295.5,733.7,295.5,733.8z"/>
	<path class="st14" d="M1187.4,504.9c-3.1-10.9-5-21.9,0.7-32.6c0.9-1.7,0.8-3.5-1.2-4.6c7.8-6.3,15.5-12.6,24.1-19.6
		c0.3,9.3,5,14.7,11.3,18.5c5.8,3.5,6.9,8.9,6.5,14.8c-0.2,4.4-2,7.6-6.9,9.2c-10.2,3.4-18.9,10.4-29.4,13.4
		C1190.9,504.5,1189.2,504.6,1187.4,504.9z"/>
	<path class="st13" d="M496,615.6c0.6-8.3,1.4-16.3,3.7-23.9c0.8-2.7,2.7-4.4,5.6-4c3,0.4,4.4,2.6,4.1,5.4
		c-2,18.6,7.3,34.5,12.1,51.4c2.8,9.8,4.3,19.8,6.6,29.6c0.8,3.5,2.6,7.2-1.9,9.5c-3.9,2-11.2-0.7-13.2-4.7
		c-1.1-2.3-1.7-4.8-2.2-7.3c-3-14.2-9.5-27.3-12.7-41.4C497,625.2,496.7,620.2,496,615.6z"/>
	<path class="st43" d="M910.8,22.2c8.6,2.7,17.3,5,25.7,8.1c10.4,3.9,20.5,8.7,28.8,16.5c-7.3,6.6-16.6,3.1-24.9,4.3
		c-16.4,2.2-32.9,3.4-49.5,3.5c-12.8,0.1-14.5-4.2-8.3-15.3C888.9,28.1,896.8,20.4,910.8,22.2z"/>
	<path class="st44" d="M483.3,796.7c2.3,1.9,0.4,3.1-0.8,4.3c-2.7,2.9-5.7,5.6-8.2,8.7c-2.8,3.6-6.3,25.7,13.5,26.5
		c10.7,1.9,10.9,2.3,9.1,13.5c-15.9,8.6-33.3,4.8-43.1-9.6c-2.1-3.1-3.1-6.5-3.3-10.2c-1.4-19.8,5.8-29.2,25.2-32.4
		C478.2,797,480.8,796.9,483.3,796.7z"/>
	<path class="st14" d="M1207,555.2c-9.8-7.2-14.9-16.8-12.8-29c0.7-4.4,0.8-8.4-0.1-12.6c5.2-3.2,10.5-6.2,15.6-9.6
		c4.7-3.2,9.3-6.5,14.4-8.9c0.8,1.7,0.5,3.2-0.3,4.4c-7.1,10.3-3.9,19.7,2.7,28.7c2.1,2.9,4.6,5.6,7,8.2c3.1,3.3,3.5,7,1.9,11
		c-1.4,3.5-4.7,2.6-7.5,2.6C1220.4,549.9,1213.8,553.1,1207,555.2z"/>
	<path class="st45" d="M485.9,610.4c0.4,8.7-1.5,16.2-8,22.8c-2.9,2.9-5.3,4.7-9.1,4.2c-5.4-0.7-10.7-1.6-16-2.4
		c-1.5-0.2-2.9-1.1-3.3-2.5c-1.5-5.9-5.2-11-5.5-17.5c-0.6-13.5,1.4-16,14.9-17.6c6.1-0.7,12.2-1.2,18.4-1c8.5,0.3,8.9,0.9,8.6,9.7
		C485.8,607.5,485.9,608.9,485.9,610.4z"/>
	<path class="st46" d="M996.2,68.9c-0.2,5.5-4.2,9.9-4.9,15.2c-3.8,2.6-8.1,2.4-12.4,2.4c-7.5,0.1-15,0.4-22.6,0.7
		c-19.7,1.8-39.3,4.5-59.9,3.4c0.3-8.1,4.8-14.5,6.3-21.7c0.8-3.6,5.6-4.1,9.3-4.1c9.7-0.1,19.4-0.8,29.1-1.9
		c14.3-1.6,28.8-1.9,43.1-2.8C989.3,61.7,993.4,64.4,996.2,68.9z"/>
	<path class="st14" d="M1152,319.1c5.6-11.1,14.3-19.5,23.9-27.6c3,5.8,6.9,10.3,11.8,14.2c8.7,6.9,8.7,17.2,0,24.4
		c-7.2,5.9-15.7,9.7-24.2,13.3C1153.8,338,1149.6,330.1,1152,319.1z"/>
	<path class="st29" d="M1205,599.1c-13,2.5-25.6,6-38.1,10.5c-8.1,3-8.4,2.3-11.9-5.3c-4.5-9.7-4.8-10.4,4.4-14.9
		c10.1-5,17.3-14,27.6-18.6c5.9-2.6,11.5-5.8,17.9-7C1200.8,575.6,1201.6,587.4,1205,599.1z"/>
	<path class="st47" d="M20.4,1113.6c4.1-5.9,10.1-8.1,15.7-10.1c23.9-8.6,48.3-14.4,73.9-14.8c18.5-0.3,36.9,1.8,55.3,2.5
		c10.4,0.4,20.7,3,31,4.7c1.7,0.3,3.4,1.1,5,4.2c-19-4.1-37.5-1.5-55.8-3.1c-8.4-0.7-16.7-0.1-24.7,1c-7.9,1.1-15.8,1.4-23.7,1.6
		c-24.7,0.6-48.9,3.9-71.6,14.3C24,1114.6,22.7,1115.2,20.4,1113.6z"/>
	<path class="st29" d="M1255.1,495.9c6.1,11.7,12.3,23.5,18.4,35.2c6.2,11.9,3.9,24.1,2.2,36.1c-2.9,1-4-0.6-5.1-1.9
		c-6.2-7-12.5-14-18.7-21c-1.2-1.3-3.1-2.7-3.2-4.2c-0.6-9.6-7.3-16.3-11.1-24.3C1246.8,512.1,1249.8,503,1255.1,495.9z"/>
	<path class="st48" d="M1266.8,659.5c0.3-8,5.6-13,8.2-19.2c0.7-1.7,2.9-2,4.8-1.9c13.7,0.3,27.3-2.6,41-0.6
		c9,1.3,11.4,3.6,10.9,12.4c-0.3,6.1-2.1,8.4-8.5,8.8c-9,0.5-18,0.5-27,0.6C1286.4,659.6,1276.8,659.5,1266.8,659.5z"/>
	<path class="st49" d="M418.8,699.6c5.3-18.1-3.2-33.6-8.5-50.3c17.2-1.7,33.6,0.2,50.8,1.6c-3.7,7.4-7.9,11.7-16.8,10.6
		c-9.1-1.1-10.9,1.9-5.8,9.7c3.8,5.8,3,9.7-0.7,14.5c-2,2.6-3.7,5.4-5,8.3C430.3,700.1,426.1,702,418.8,699.6z"/>
	<path class="st50" d="M1242.3,713.6c5.5-6.8,10.6-10.5,18.2-10.5c32.3,0.1,64.6,0,96.9,0c1.5,0,2.9-0.1,4.3,0.1
		c3.6,0.4,6.5,1.9,6.2,6c-0.3,3.6-3.3,4.6-6.4,4.6c-9.1,0.1-18.2,0.8-27.2-0.3c-13-1.7-25.8-1.1-38.9-0.1
		C1278.5,714.5,1261.4,713.6,1242.3,713.6z"/>
	<path class="st51" d="M484.7,503c5.8,0,11.6,0,17.4,0c3.7,0,5.4,1.6,4.9,5.3c-0.3,2.5-1,5-0.9,7.5c0.3,11.3,0.3,11.6-10.6,10.4
		c-11.9-1.3-23.7-2.2-35.6,0.1c-4.3,0.8-6.8-0.7-6.7-5.7c0.4-18.2-2.6-14.4,15.2-17.4C473.8,502.3,479.3,503.1,484.7,503
		C484.7,503.1,484.7,503.1,484.7,503z"/>
	<path class="st46" d="M910.8,22.2c-1,0.5-1.9,1.4-2.9,1.4c-16.8,0.4-19.7,15.5-28.8,26.4c15.7,4.1,29.8-0.1,43.9-0.7
		c14.1-0.6,28.2-1.6,42.2-2.5c3.6,1.5,6.9,3.6,9.3,6.7c-37,0.4-73.8,4.3-111.5,6.2c1.1-5.2,2-9.3,5-12.7c3.9-4.3,7.1-9.1,8.8-14.7
		c1.4-4.6,5.2-6.5,9-8.8c3.8-2.3,8.6-1.5,11.9-4.6C902.4,18.7,906.5,20.9,910.8,22.2z"/>
	<path class="st10" d="M1165.6,354.6c0,7.5-0.8,15,0.1,22.4c1,8.8,2.5,17.9,12.9,21.3c-6.1,5.7-13,10.1-20.5,13.7
		c-3.4,1.7-6.8,2.1-10.5,1.5c-2-0.4-3.4-1.2-3.4-3.4c0.3-9-1.9-18.1-0.3-27c1.3-7.2,4.6-13.6,10.4-18.5
		C1158.1,361.2,1161.9,357.9,1165.6,354.6z"/>
	<path class="st52" d="M1232.9,729.1c0.3-4.2,0.7-7,6.7-7.2c35-1.1,70.1-0.8,105.1,0c3.4,0.1,10.4-2.8,10.1,3.8
		c-0.3,5.4-6.5,2.3-10,2.3c-18.4,0.1-36.7,1.5-54.6,6.1c-2.8,1.9-6,2.9-9.3,2.3c-12.6-2-25.3-1.1-37.9-1.8
		C1239,734.5,1233.8,735.3,1232.9,729.1z"/>
	<path class="st53" d="M377.5,1297.8c-1.6-1.1-2-1.2-2.1-1.5c-3.7-13.7-4.1-14.5,9.5-21.2c22.2-10.9,41.7-26.1,63.5-37.7
		c9.6-5.1,18.8-8.5,31.8-8.2c-18.2,12.7-38,19.1-53.9,31.9C410.2,1274,391.5,1283,377.5,1297.8z"/>
	<path class="st54" d="M1302.6,1086.3c-3.1-2.3-8.2-0.7-10.3-5.7c4-4.8,10.8-0.8,17.8-5.2c-6.6-2.2-10.8-0.7-15-0.3
		c-4.7,0.4-9.4,0.4-14.1,0.4c-4.7,0-9.2-0.8-15.2-3.6c14.9-4.8,29.2-3.2,42.7-5.6c-0.6-3-2-4.2-4.6-4c-5.8,0.4-11.6,0.2-17.3,1.1
		c-13.5,2.3-26.5,0.8-40.6-4.7c19.8-2.4,38.6-2,56.9-5.7c-13.9-2.9-28.2-0.6-42.2-3.1c15.8-0.1,31.5-0.2,47.3-0.3
		c2.2,0,4.3,0.3,5.8,2.2c-2.2,3.8,1.5,6,2.5,8.8c3.5,9.6,0.8,22.5-6.3,29.2c-2.3,2.1-4.7,3.5-7.7,1.3
		C1301.4,1089.4,1301.6,1087.8,1302.6,1086.3z"/>
	<path class="st55" d="M762.4,293.1c3.3-10.1,12-12.1,20.7-12.5c15.9-0.6,31.8-0.2,47.7-0.2c0.4,0,0.8-0.1,1.1,0
		c25.7,3.4,45.7,10.6,65.8,23.5c-4.1,1-7.8-0.2-11.6-1.4c-24.1-7.8-48.7-11.8-74.2-11.7C795.2,290.9,778.8,291.3,762.4,293.1z"/>
	<path class="st9" d="M1138.9,273.4c3.2-8.1,10.8-18,18.4-23.7c1.2,4.6,3,9,3.3,13.4c0.5,6,3.7,9,9,10.8c5.9,2,6.7,4.1,2.9,8.8
		c-2,2.5-4.7,4.5-6.9,6.8c-4.3,4.4-8.6,8.8-12.8,13.2c-7.7,2.1-10.5-3.4-12.6-8.9C1137.6,287.3,1137.9,280.3,1138.9,273.4z"/>
	<path class="st29" d="M1248.7,430.4c7.6,12.7,17.4,23.9,24,37.1c5.2,10.3,4.3,20.8,0.7,33.8c-7.5-16.1-21.5-24.3-29.6-37.5
		C1240.2,451.9,1242.6,440.9,1248.7,430.4z"/>
	<path class="st56" d="M1259.2,957.5c1.4-2.8,4.4-2.7,6.6-2.8c16.6-1,33.1-3,49.9-2.3c20.9,0.9,42-0.2,62.9-0.7
		c23.5-0.6,47.1-0.2,70.6-1.9c1.8-0.1,3.6-0.3,5.4-0.1c3,0.2,8.1-1.2,8.1,2.9c0,4.3-4.7,2-7.7,2.4c-11.5,1.6-23-1-34.5,0.4
		c-2.5,0.3-5.1,0.5-7.6,0.3c-22.4-1.3-44.8-0.4-67,1.2c-26.5,2-52.9,0.8-79.3,1.5C1264.1,958.4,1261.6,958.8,1259.2,957.5z"/>
	<path class="st29" d="M1207,633.6c-13.9,2.9-28.6,2.8-40,14.6c-1.3-3.6-1.9-5-2.2-6.3c-1.1-5.3-4-11.1-2.8-15.8
		c1.5-5.9,9.3-3.2,14-5.6c4.8-2.5,10.1-3.6,14-7.9c3.9-4.3,9.7-4.2,15-5C1206.6,616.2,1199.5,625.5,1207,633.6z"/>
	<path class="st57" d="M96.9,1122.2c2.5,0.1,3,1.6,2.8,3c-0.2,1.4-1.1,2.6-1.7,3.9c-9.1,17-11.8,34.5-4.6,53.1
		c1.2,3.1,2.4,6,4.8,8.2c4.6,4.4,6.5,10.4,9.4,15.8c1.5,2.9,1.8,5.6-1.1,7.7c-2.9,2.1-4.8-0.2-6.4-2c-10.1-10.7-18.5-22.3-17.5-38.1
		c0.6-9.7-2.6-19.3,0.1-29c2.1-7.8,4.4-15.3,11.2-20.5C94.9,1123.6,96.1,1122.8,96.9,1122.2z"/>
	<path class="st58" d="M1242,378.4c13.4,8.9,21.2,22.5,28.5,36.1c3.8,7,1.5,15.4,1.6,23.4c-11.4-12.1-20.9-25.5-32.4-37.1
		C1233,389.1,1233.3,385.8,1242,378.4z"/>
	<path class="st59" d="M111.2,1076.2c20.2-2.7,40.5-1.5,60.8-1.9c5.6-0.1,11.4,1.9,17,3.4c14.3,3.9,28.8,7.1,42.7,12.5
		c4.7,1.8,9.2,3.8,12.8,8.4c-5.9,2.6-10.6,0.2-15-1.4c-29.2-10.3-59-17.4-90.2-16.9c-2.2,0-4.3-0.4-6.5-0.6
		c-5.7-1.5-11.4-0.3-17.1-0.7C113.7,1078.9,111,1079.7,111.2,1076.2z"/>
	<path class="st60" d="M1232.9,729.1c1.6,3.4,4.7,2.8,7.5,2.8c16.6-0.1,33.2-0.5,49.7,2.2c-0.1,3.1,1.4,4.4,4.5,4.2
		c2.8-0.2,5.6-0.9,8.3,0c-12.9,3.1-26,5.5-39.3,5.8c-16.6,0.4-33.3-0.6-49.9,0.7c0.9-4,4.4-5.7,7.6-6.2
		C1227.4,737.6,1230.6,734,1232.9,729.1z"/>
	<path class="st61" d="M986.6,687.2c0.3,3.4,0.5,4.8,0.6,6.2c0.4,12.3,3.1,16.1,14.2,19.9c10.1,3.5,15.3,1.4,20.7-7.8
		c2.4-4,5-8,7.6-11.8c0.5-0.7,1.9-1.1,2.8-1c1.8,0.1,1.9,1.8,2.3,3.2c0.1,0.3,0,0.7,0,1.1c-0.9,10.5-14.5,26.7-24.7,29.5
		c-3,0.8-5.6,0.8-8.4-0.6c-5.8-2.9-11.7-5.8-17.7-8.4c-3.3-1.5-5.1-3.6-5.1-7.4C978.9,702.2,978.1,694.2,986.6,687.2z"/>
	<path class="st62" d="M1369.7,751.7c-0.9-2-2.6-2.5-4.4-2.7c-3.1-0.3-7.1,0.3-6.1-5c0.7-4,1.5-8,7.2-7.1c5.4,0.7,10.8-1.7,16.1,0
		c4.9,1.6,10,0.9,15.5,2c-2.9,5.7-4.1,11.5-3.2,17.7c0.6,4.2-1.5,5.8-5.7,5.3c-9-1-17.9-1.8-27-1.5c-1.8,0-3.9-0.4-3.8-2.8
		c0.1-2.3,2.1-2.4,3.9-2.8C1365,754.4,1368.1,754.8,1369.7,751.7z"/>
	<path class="st63" d="M294.3,1019.7c23.5,0,45.3,0,68.8,0c-6.7,4.9-13.2,6.8-19.3,9.6c-6.2,2.9-12.3,6.2-18.3,9.6
		c-2.7,1.6-5.4,3-7.8,0.3C311.1,1032.1,302.6,1027.3,294.3,1019.7z"/>
	<path class="st64" d="M1205,599.1c-7.9-11.7-9.9-23.5-0.1-35.2c5.9-2.3,11.5-5.6,19.9-6.8c-14.9,13.7-3.9,25.9,0,38.9
		C1217.5,596,1211.3,598,1205,599.1z"/>
	<path class="st33" d="M1252.9,557c7.4,8.3,14.5,16.8,16.2,28.4c0.4,2.9,0.5,5.7,0.7,8.6c0.3,3.7-1.4,6.5-4.6,7.8
		c-3.5,1.4-5.4-1.9-6.7-4.1c-4.2-6.5-10-11.1-16.1-15.7c-2.7-2.1-8.3-4.1-5.4-9.9C1246.1,570.9,1249.8,564.3,1252.9,557z"/>
	<path class="st65" d="M1193,792c2-4.6,5.3-3.9,8-3.8c16.3,0.4,32.5-0.4,48.8,1.4c14.3,1.6,28.9,0.9,43.4-0.5
		c22.2-2.2,44.6-0.9,67-1.2c-0.3,3.6-1.9,4.6-3.8,4.4c-17.4-1.1-34.8,3.7-52,1.9c-25.4-2.7-50.7-1.1-76-1.5
		C1216.9,792.5,1205.3,793.6,1193,792z"/>
	<path class="st55" d="M530.2,279.2c12.2-2.4,24.7-0.7,36.9-1c8.1-0.3,15.6,1.1,22.4,6c2.8,2,6.4,3.1,9.6,4.7
		c-8.1-1-14.1-1.9-21.4-2c-17.3-0.1-34.5,0.7-51.6,3.2c-7.5,1.1-7.8-0.2-7.7-8.1C519.6,280.9,525.4,280.2,530.2,279.2z"/>
	<path class="st66" d="M429.8,632.6c-4,3.3-8,2.9-12,2.7c-1.4-0.1-2.8-0.6-4.1-1.2c-6.2-3.2-8.4-11.8-5.7-21.3
		c2.9-10,7.7-14.5,15.1-14.3c5.4,0.2,6.3,1,4.5,6.6C424.7,614.5,425.7,623.4,429.8,632.6z"/>
	<path class="st67" d="M1224.2,326.5c5.2,6.8,10.3,13.7,16.4,19.8c9.3,9.2,12.1,22.2,20.5,32.8c-4.7,1.2-6.1-0.9-7.5-2.2
		c-12-10.9-23.9-21.8-35.8-32.9c-0.7-0.7-1-1.9-1.4-2.8C1220.2,336.9,1221,331,1224.2,326.5z"/>
	<path class="st29" d="M1200.7,666.6c-1.8,4.2-3.3,7.2-9.6,7.1c-6.5-0.2-13.1,3.3-20.7,5.4c-0.3-6.3-0.6-11.9-1-17.5
		c-0.3-4.7,3.1-6.4,6.4-7.7c6.7-2.6,13.6-4.7,20.4-7C1198.7,653.2,1197.3,660.4,1200.7,666.6z"/>
	<path class="st68" d="M695.1,295.7c2.2,0.2,6.6,0.2,10.8,1.1c5.4,1.1,6.2,4.4,2.3,8.2c-2.3,2.3-4.8,4.3-7,6.7
		c-3.2,3.5-5.5,10.3-11,2.2c-0.4-0.6-2.5-0.9-3-0.4c-4.6,3.8-7.6-1.2-11.3-1.5c-3.7-0.3-4.9-1.6-5.9-4.6c-1.1-3.5,1.2-5.3,3.2-7.4
		c1.6-1.7,3.7-2,5.8-2.6C683.6,295.9,688.3,296.1,695.1,295.7z"/>
	<path class="st69" d="M506.1,432.8c-9.7,0-18-0.1-26.3,0c-3.5,0-5.5-1.1-5.2-5c0.1-1.1,0-2.2-0.1-3.3c-1-14.8,1.7-17.4,16-15.6
		c1.4,0.2,3-0.1,3.9,1.4C498.2,417.1,503.5,423.1,506.1,432.8z"/>
	<path class="st70" d="M614,1076c-18.3,12.9-37.7,24-54.9,38.4c-2.4,2-4.7,3.9-7.1,0.1c-1.8-2.9-3.1-5.9,1-8.2
		c9.3-5.4,16.3-14.2,26.6-18.4c4.6-1.9,8.6-5.1,12.9-7.7c4.8-0.4,8.6-2.8,12.6-5.2C608,1073.1,611.6,1070.9,614,1076z"/>
	<path class="st71" d="M675.6,47.3c5.7,0.9,10.2-5.5,18.2-3c-11.6,11-16,26.6-32.3,31.8c-9.7,3.1-18.3,9.4-29.3,12.2
		c1-6.2,5.9-9.5,5.9-14.7c2.6-3,5.3-5.7,9.1-7.1c2.4,3.4,0.2,6.1-1.1,8.7c8.4-7.4,22.7-6.9,27.2-19c2.2-0.9,1-1.6,1-1.5
		c-3.5,3-7.1,5-10.4-0.3C667.6,51.7,671.2,48.9,675.6,47.3z"/>
	<path class="st72" d="M1239.7,631.3c5.6,6.2,9.7,13.4,12,21.4c3.9,13.7,3,14.6-7.4,21.7c-6.1-4.8-11.2-10.9-17.8-15.2
		c-1.6-1.1-2.4-2.8,0.1-4.1c7.4-0.4,8.9-5.9,10.1-11.7C1237.5,639.3,1236.1,634.7,1239.7,631.3z"/>
	<path class="st73" d="M1229.3,672.2c6.6,6.3,8,15.1,9.9,23.3c1.3,5.7-3.1,11.3-8.8,13.4c-2.4,0.9-4.1,0.7-5.6-1.5
		c-3.1-4.5-7.7-7.7-10.9-12c-4.7-6.4-4.2-13.7-0.5-20.7c0.3,0.2,0.5,0.5,0.8,0.7c3.4,3.2-0.3,11.4,5.1,11.4c6.5,0.1,5.5-8,7.7-12.5
		C1227.6,673.4,1228.3,672.6,1229.3,672.2z"/>
	<path class="st74" d="M1398.4,779.8c-12.7,0-24.9,0.1-37.2-0.1c-3.9-0.1-4.3-3.1-4.1-6.3c0.2-3.4,0.3-6.8,5-6.8
		c5.1,0.1,10.1,0.2,15.2,0.5c2.9,0.2,5.8,0.7,8.6,0.9C1396.4,768.8,1396.4,768.8,1398.4,779.8z"/>
	<path class="st75" d="M1248.7,430.4c-0.5,5.3-0.7,10.6-2.9,15.5c-1.8,4.1-2.4,8-0.5,12.3c0.9,2,0.7,4.2-1.5,5.6
		c-5.4-6.2-11.5-11.9-14.5-19.9c-1.2-3.1-1.3-5.3,1.1-7.8c3.9-3.9,6-8.9,7.9-14.5C1242.8,423.6,1246.5,426.1,1248.7,430.4z"/>
	<path class="st76" d="M812.8,9.9c-7.4,10.2-15.8,17.9-29.8,18.3c-9.5,0.3-19,3.5-28.4,5.4c-2.8,0.6-5.6,0.9-9-0.5
		c1.7-7.2,9.3-9.9,12.1-15.9c3.2-0.7,6.3-1.9,9.6-0.8c1,4.3-1.9,6.3-4.7,8c13.4-3.1,28.4-2.3,38.8-13.9
		C805.2,8.9,808.9,8.3,812.8,9.9z"/>
	<path class="st77" d="M1153.4,844.2c0.5-0.5,1-1.3,1.6-1.3c7.6-0.9,11.9-4.3,16-11.6c5.3-9.3,7.9-19,10.9-29.4
		c4,6.3,4.9,13.1,5.7,20c0.4,3.5-1.3,6.1-3.4,8.8c-2.2,2.8-4.3,5.7-6.1,8.9C1173.2,848.5,1162.8,850.5,1153.4,844.2z"/>
	<path class="st78" d="M1243.9,598.8c3.2,3.8,6.4,7.6,9.6,11.4c7.8,9.3,12.8,19.3,6.8,31.6c-3.4-1.7-4.3-5.8-6.7-8.8
		c-5.1-6.4-9.4-13.5-18-15.9c-1.3-0.4-2.5-1.5-2.6-3.1C1238.7,610.4,1241.1,604.4,1243.9,598.8z"/>
	<path class="st75" d="M1131.5,256.5c-2.5-7.5-4.3-14.7-8.1-21.2c-1.9-3.3,4.7-14,8.5-14.6c0.3,0,0.7,0.1,1,0.1
		c4.9,0.2,14.4,18,11.4,21.9C1140.7,247.6,1137.4,252.9,1131.5,256.5z"/>
	<path class="st79" d="M1242,378.4c-4.8,7.1-5.7,14.5-2.3,22.4c-13.9-10.9-21.3-24.3-15.9-43.2C1230.9,363.8,1237.6,370,1242,378.4z
		"/>
	<path class="st58" d="M1152,319.1c1.1,9.4,6.1,16.9,11.4,24.2c-6.6,4.1-13.2,8.3-20.4,12.9C1139.9,341.8,1139.1,328.9,1152,319.1z"
		/>
	<path class="st80" d="M1047.9,1239.8c-2.2,6.1-6.2,8.3-10.8,9.7c-12.4,3.9-24.8,5.2-37.3,0.6c-2.4-0.9-4.7-2-6.8-3.3
		c-3.3-1.9-7.1-5.2-5-8.5c2.5-4,6.2-0.1,9.4,1.4c11.3,5.5,23.2,7.9,35.6,4.6C1037.5,1243.3,1041.9,1241.7,1047.9,1239.8z"/>
	<path class="st81" d="M709.1,312.1c2.9,13.8-1.6,20.4-14.6,20.6c-8.8,0.1-18,2.6-26.6-2.5c-0.2-4.7,3.6-8,6.3-9.1
		c3.5-1.4,8.1,0.1,12.2-1.4c1.4-0.5,1.5,1.1,2.1,1.9c4.8,6.6,9.7,6.3,14.2-0.6C704.6,317.9,703.5,312.5,709.1,312.1z"/>
	<path class="st82" d="M678.7,1196.1c3.4,0.5,4.8,2.9,5.6,5.1c3.3,8.8,8.9,16.6,12,25.4c2,5.6,4.6,10.4,8.6,14.8
		c6.6,7.1,6.4,7.3,1.6,17.5c-7-9.7-13.3-19.1-16.1-30.5c-1.4-5.7-3.2-11.1-7.4-15.5C678.5,1208.2,677.8,1202.4,678.7,1196.1z"/>
	<path class="st83" d="M542,677.9c3.7,3,5.7,7.3,6.7,11.8c2.2,10.2,0.4,12-10,11c-9.4-0.9-18.7-2.1-28.1-2c-3.6,0-7.4-0.1-9.2-4.2
		c-0.8-1.7-1.3-3.7,0.1-5.1c1.8-1.7,3.3,0,4.5,1.2c6.2,6.5,13.5,7.8,21.8,4.5c5.3-2.1,9.8-4.8,9.7-11.5
		C537.4,680.9,539,679,542,677.9z"/>
	<path class="st84" d="M394.8,580.6c-0.1-1.5-0.4-2.2-0.2-2.9c2.2-9.7,2.2-9.8,12.2-9.8c5.5,0,10.8-1.3,16.1-2.4
		c4.5-0.9,5.1,1.3,4.6,4.7c-0.9,6.6-4.7,10.2-11.6,10.2C409.1,580.4,402.3,582.8,394.8,580.6z"/>
	<path class="st85" d="M1194.9,717.7c4.4-6.3,11.2-9.1,15.4-15.7c3.3,4.3,6.2,8.2,9.1,12.1c2.2,2.9,4.6,5.7,1.7,9.6
		c-3.2,4.2-7.8,4.7-11.7,2.7C1204.7,724,1199.4,722.2,1194.9,717.7z"/>
	<path class="st86" d="M1371.1,791.3c0.8-3.2,2.4-3.2,3.7-3.2c17.7,0,35.4,0,53.1,0.1c2.1,0,4.8-0.2,4.8,2.8c0,1.9-1.9,3.3-3.7,3.3
		c-18-0.2-36,2.2-53.9-1.4C1373.8,792.7,1372.5,791.9,1371.1,791.3z"/>
	<path class="st64" d="M1255.1,495.9c0.1,7-4.5,11.7-7.9,17c-2.3,3.5-5.9,3.4-9.5,2.9c-3.9-6.2-3.9-11.7,1.6-17.3
		c4.4-4.4,4.3-11.2,7.7-16.7C1249.8,486.8,1252.5,491.4,1255.1,495.9z"/>
	<path class="st87" d="M801.5,10.5c-1.2,7.6-7.8,10.6-13.5,12.2c-9,2.6-18.6,3-29.1,4.5c3.3-4.2,5.9-7.5,8.4-10.8
		C778.6,13.9,789.7,10.6,801.5,10.5z"/>
	<path class="st88" d="M663.9,54.5c5.2,4,9.1-2.5,14.4-1.8c-4.4,9.1-9.9,16.2-20.1,18.9c-5,1.3-9.5,4.5-15.1,7.2
		c1.5-4.5,2.8-8.4,4.1-12.3C651.8,61.2,658.4,58.6,663.9,54.5z"/>
	<path class="st89" d="M420.5,552.6c-6.9,2.9-14.3,0.3-22.1,4.6c9.5,0,17.3,0,25.1,0c-7.1,4.9-15.1,5-22.9,5.2
		c-3.7,0.1-11.3-8-11.3-11.6c0-1.9,1-4.4,2.6-4.3c8.5,0.5,17.4-3.4,25.3,2.5C418.3,549.8,419,551,420.5,552.6z"/>
	<path class="st72" d="M1193.9,699c-4.2,4.8-12.3,5.8-13.4,14.2c-0.3,1.9-6.2,2.3-9.6,1.6c-0.4-0.5-0.7-0.8-0.7-1.1
		c-0.6-21.8-4.3-16,19.1-24C1192.5,691.9,1192.9,695.6,1193.9,699z"/>
	<path class="st90" d="M631.5,775.3c2.5-1.2,5.3-2.1,6.9-4.7c9.7,5.1,16.2,13.8,23.2,21.6c3.5,4,4.6,0.2,6.8-0.2
		c1.4-0.5,2.8-0.6,4.2-0.7c3.1,0.8,6.7-1.2,9.4,1.7c0.9,0.7,1.7,1.3,2.6,2c-7.8,2.6-15.7,4.4-24,3.6c-6.7-0.4-6.8-7.6-10.7-10.3
		c1,2.6,5.5,4.3,3.4,8.5c-0.1,0.2-0.5,0.3-0.8,0.3c-0.3,0-0.7-0.3-1-0.4c-1.8-1.2-4.5-2-5.2-3.6C643,785.8,636.5,781.1,631.5,775.3z
		"/>
	<path class="st91" d="M416.2,448.3c-3.8,8.3-5,16.4-5,24.7c0,5.8-0.7,11.6,2.7,16.9c0.9,1.4,1.6,3.4-0.9,4.5
		c-1.9,0.8-3.7,0.3-4.9-1.1c-3-3.3-4.6-7.3-4.9-11.8c-0.3-3.2,0-6.5-0.4-9.8C401.4,461.1,405.3,453.4,416.2,448.3z"/>
	<path class="st92" d="M1200.7,666.6c-8.4-5.1-6.1-12.5-4.4-19.8c4.1-2.3,8.6-3.6,13-5.1c4.7-1.6,5.8,0.9,6.1,4.7
		c0.2,2.7-0.9,4.9-2.2,7.1C1210.1,658.8,1205.6,662.9,1200.7,666.6z"/>
	<path class="st93" d="M1302.7,1090.9c10.4-5.4,15.5-17.1,11.8-27.6c-1.1-3-3.1-5.7-4.3-8.7c-1.7-4.1,2-2.3,3.5-2.9
		c8.7,9.4,9.9,20.4,6.7,32.2c-2.5,9.2-10.6,12.8-19.7,9.2c-0.2-0.5-0.2-1-0.1-1.5C1301.1,1090.6,1301.8,1090.4,1302.7,1090.9z"/>
	<path class="st94" d="M1211.4,304.5c-7.2-4.5-12-11.1-16.5-18.1c-3.1-4.8-4.6-9.7-2.8-16c9.5,6.7,15,16.4,21.9,24.9
		C1214.4,298.7,1217.9,303,1211.4,304.5z"/>
	<path class="st95" d="M1432.6,712c-0.5,2.4-2.5,2.1-4.2,2.1c-13.7,0-27.3-0.1-41-0.2c-1.8,0-3.6-0.3-5.2-0.9
		c-0.8-0.3-1.8-1.6-1.7-2.3c0-0.8,1.1-1.7,1.9-2.4c0.5-0.4,1.3-0.6,2-0.6c16,0.4,32.3-2.1,47.9,3.3
		C1432.5,711.1,1432.5,711.6,1432.6,712z"/>
	<path class="st96" d="M1229.3,672.2c0.1,5.8-0.5,11.4-4.5,16.1c-2.5,2.9-5.4,5.1-9.3,3.6c-3.6-1.3-2.1-4.9-2.3-7.5
		c-0.2-3.2,0.2-6.4,0.3-9.6c2.2-3.3,6.6-4.3,7.9-8.2C1225.7,666.9,1227.2,669.9,1229.3,672.2z"/>
	<path class="st97" d="M1211.4,304.5c2.9-2.5,2.4-6,2.6-9.3c11.2,12.2,22.1,24.6,31.2,38.4c1.3,2,3.5,3.8,2.2,7.5
		C1233.8,330.1,1224.4,315.5,1211.4,304.5z"/>
	<path class="st98" d="M1183.4,247.4c17,13,31.7,28.1,42.6,46.8c-16.5-11.8-28.2-28.4-42.9-42
		C1181.7,250.5,1181.9,248.9,1183.4,247.4z"/>
	<path class="st99" d="M1390.7,1020.6c14,0.2,27.5-2.9,41.2-3.5c1.1,0,2.2-0.3,3.2-0.3c2.2-0.1,3.4,1.3,3.7,3.2
		c0.3,2.2-1.2,3.4-3.2,3.3c-12.4-0.6-24.5,2.3-36.9,2.9C1395,1026.4,1391.5,1026,1390.7,1020.6z"/>
	<path class="st12" d="M1462,1053.9c1.3,1.4,1.6,3.1,1.7,4.9c0.1,4.6,1.2,10.9-2.8,12.9c-3.7,1.9-9.5,0.7-14.2-0.4
		c-4.7-1.1-2.5-6-3.3-9.2c-0.9-3.9,2.5-3.3,4.9-3.7c4.9-0.8,11.2,2.4,13.8-4.8C1462.2,1053.8,1462,1053.9,1462,1053.9z"/>
	<path class="st100" d="M1224.2,326.5c-0.8,5.8,1.1,13.1-7.8,14.7c-8.3-7.9-7.3-17.2-3.6-27.3
		C1217.9,317.1,1221.3,321.5,1224.2,326.5z"/>
	<path class="st101" d="M1138.9,273.4c0,7.9,0.2,15.8,4.9,22.7c2.2,3.4,4.3,6.7,9,6.5c-4.5,4.4-7.7,10.3-15.6,12.1
		C1136.2,300.6,1135.8,287,1138.9,273.4z"/>
	<path class="st102" d="M311.4,746.8c-3.3-3.3-7.6-1.6-11.4-1.7c-15.2-0.6-30.4,1-45.6-0.8c4.9-1.9,10-1,15-1.1
		c19.5-0.5,39-0.8,58.4-1.1c5.3-0.1,10.8-0.5,15.4,4.8C332.3,746.8,321.8,746.8,311.4,746.8z"/>
	<path class="st103" d="M278.4,1100.9c-7.1,16.2-29,18.4-34.3,8.8c-0.7-1.2-2.2-2.2-1.4-3.8c0.9-2.1,2.9-1.9,4.6-1.6
		c1.3,0.3,2.7,1,3.8,1.8c4.7,3.4,9.4,2.7,14.2,0.4C269.5,1104.6,273.6,1103,278.4,1100.9z"/>
	<path class="st104" d="M552,1146.5c6,0.3,10.9,3.5,16.5,2.5c2.3-0.4,2.4,0.3,5.8,6.8c-2.7,1.1-5.2,2.3-7.9,3.2
		C554.2,1163.1,550.9,1160.4,552,1146.5z"/>
	<path class="st105" d="M1207,633.6c-4.4-0.1-7.2-1.1-6.9-6.7c0.3-6.9,1.8-13.3,4.9-19.4c4.3,0.6,8-2.9,12.3-2
		c0.5,2.4-1.2,3.3-2.3,4.4c-4.5,4.5-7,9.5-6.2,16.1C1209,628.5,1210.4,631.8,1207,633.6z"/>
	<path class="st106" d="M1365.2,727.8c12.5-4.2,25.3-0.2,38.8-2c-0.3,4.1-0.4,8.9-5.8,7.7C1387.3,731.1,1375.9,732.5,1365.2,727.8z"
		/>
	<path class="st107" d="M1239.7,631.3c-0.1,7.5,1,15.1-3.2,22c-2.7,4.5-5.8,6.2-10,1.8c6.2-8.5,7.6-18.3,7.3-28.5
		C1237.8,626.5,1238.3,629.4,1239.7,631.3z"/>
	<path class="st108" d="M614,1076c-3.8-2.7-6.4,0.4-9.5,1.9c-3.7,1.8-7.2,6-12,2.2c9-6.4,18.1-12.7,27.2-19.1
		C623.5,1069.1,623.5,1069.1,614,1076z"/>
	<path class="st109" d="M111.2,1076.2c3,3,6.8,1.2,10.2,1.6c3.8,0.5,7.9-1,11.3,2c-18.5,0.1-36.9,0.8-55,4.8
		c-5.2,1.1-10.3,2.7-16,4.2c5.3-5.1,6.2-5.1,23.8-9.6C94,1077,102.7,1078.2,111.2,1076.2z"/>
	<path class="st110" d="M1452.3,1032c-15.5,4.7-31.3,5-49.4,4.9c9-6.9,17.5-5.1,25.3-4.9C1436.2,1032.3,1444.2,1028.4,1452.3,1032z"
		/>
	<path class="st111" d="M1183.4,247.4c-0.1,1.6-0.2,3.2-0.3,4.8c-15.2-3.3-18.1-6.8-18.9-24.1
		C1169.8,235.2,1177.1,240.8,1183.4,247.4z"/>
	<path class="st112" d="M1190.5,726.8c3.7,1.6,6,2.5,8.2,3.6c7.2,3.7,7.5,5.8,1.5,11.8c-1.6,1.7-3.2,4.8-6,3.2
		c-2.7-1.5-5.3-3.7-4.7-7.7C1190,734.5,1190.1,731.3,1190.5,726.8z"/>
	<path class="st113" d="M1252.9,557c0.5,13.8-3,17.1-15.8,15.1c2.6-6.2,7.6-10.8,11.3-16.2C1250.4,552.9,1251.7,555.4,1252.9,557z"
		/>
	<path class="st114" d="M1085.2,1211.1c3.8,3.6,8.9,0.1,12.9,2.3c-17.2,1.3-33.4,7.1-50.3,9.8
		C1059.5,1216.8,1071.9,1212.7,1085.2,1211.1z"/>
	<path class="st115" d="M1218.7,444.3c13.8,15.4,18.2,23.2,16.4,31.6c-3.9-8.5-9.1-14.2-14.9-19.4
		C1216.8,453.6,1217.6,449.5,1218.7,444.3z"/>
	<path class="st116" d="M1243.9,598.8c0.8,11.8-0.2,13.3-10.9,15.3c-2.3-2.3-1.2-4.5,0-6.9c2.1-4.2,4-8.5,7.1-12.1
		C1242.2,595.5,1242.6,597.6,1243.9,598.8z"/>
	<path class="st117" d="M1182.7,731.9c-0.4,2.7-0.1,6-4.3,5.9c-4.1-0.1-11.1-4.5-10.9-6.9c0.5-5.5,5.2-4.9,8.8-5.5
		C1181.7,724.3,1181.9,728.4,1182.7,731.9z"/>
	<path class="st118" d="M1200.4,326.2c-0.1,10.6,3.1,19.8,11.3,26.9c3.4,2.9,6.2,6.2,3.4,11.2c-4.6-6-9.5-11.8-13.7-18
		C1197.1,340,1194,333.2,1200.4,326.2L1200.4,326.2z"/>
	<path class="st119" d="M109.2,1137.1c-0.6-1.8,0.4-2.9,1.4-4.2c1.8-0.5,3.4-0.3,4.6,1.4c-1.7,1.6-3.3,3.8,0.1,4.6
		c3,0.8,6.4,0.1,9.7,0.2c4,0.1,7.9,0.3,11.8,2.9c-3.6,3.8-7.9,1.9-11.9,2.1c-4,0.2-8.5-3.4-11.9,1.5
		C106.9,1144.8,111.6,1139.4,109.2,1137.1z"/>
	<path class="st120" d="M1173.9,783.9c0.1,3.4,0.4,6.4-3.1,7.6c-2,0.7-4.2,1.7-6.2,0.7c-2.4-1.3-1.2-3.7-0.9-5.7
		c0.1-1.1,0.4-2.1,0.8-3.1c0.8-2.5,0.4-6.1,4.7-5.7C1173.6,778,1174.2,780.9,1173.9,783.9z"/>
	<path class="st121" d="M1219.4,616.7c0.2,8.5,5.2,15.5,2.6,23.4C1212.2,630.4,1211.3,624,1219.4,616.7z"/>
	<path class="st122" d="M1142.1,201.9c10,3.4,18.3,7.8,24,15.9C1155.2,217.1,1149.5,213.5,1142.1,201.9z"/>
	<path class="st123" d="M1212,387.1c5.6,6.3,9.8,12.1,15.8,16.2c3.1,2.1,5,5,1.9,9.7C1224.1,404.3,1212.4,400.8,1212,387.1z"/>
	<path class="st124" d="M1328.4,896.2c6.1-8.3,8.7-17.3,7.3-28C1343.5,875.7,1340.5,887.3,1328.4,896.2z"/>
	<path class="st125" d="M1172.2,752.7c0,0.8,0,1.2,0,1.5c-0.4,3,1,7.8-3.5,7.6c-4.4-0.2-2.7-4.9-2.8-7.9c0-0.4-0.1-0.7,0-1.1
		c0.8-2.8-2-7.7,2.5-8C1173.8,744.7,1171.9,750,1172.2,752.7z"/>
	<path class="st126" d="M1301.9,861.5c19.6-4.1,19.6-4.1,24.2,2.6C1318.5,864.4,1311.3,864.9,1301.9,861.5z"/>
	<path class="st127" d="M1193.9,699c-6.2-0.7-3.5-6-4.7-9.3c2.7-2.2,5.4-4.3,8.9-7.2C1199,689.1,1201.4,695.1,1193.9,699z"/>
	<path class="st128" d="M204.9,1254.6c2,2.6,2,2.6-2.4,6.2c-6.1-0.2-12-2.3-18.3-1.2c-3.1,0.5-6.7-0.2-7.6-5c3.6-1.9,6.8,0.7,10.1,1
		C192.7,1256.2,199.1,1259.3,204.9,1254.6z"/>
	<path class="st129" d="M651.3,796.9c0.1-6.3-7.6-8.5-8-15.3c6,2.5,10.6,6.1,12.3,12.1c0.8,3,3,3.7,4.9,5.1
		C657.1,799.5,653.9,799.8,651.3,796.9z"/>
	<path class="st130" d="M1181,269.1c-12.9-3.3-12.9-3.3-12.5-10.8C1174,260.2,1180,261.2,1181,269.1z"/>
	<path class="st2" d="M664,304.5c2.3,5.4,3.7,8.6,5.1,11.8c1.1,2.5,0,4.3-2.2,5c-2.9,1-3.8-1.5-4.2-3.5
		C661.9,314.2,661.4,310.4,664,304.5z"/>
	<path class="st131" d="M1196.5,303.3c-7.5-4.5-14.8-9.2-15-19.2C1185.8,291.1,1191.1,297.2,1196.5,303.3z"/>
	<path class="st132" d="M821.5,1129.7c10.2-7.9,10.2-7.9,15.6-2C832.5,1130.2,827.7,1130.1,821.5,1129.7z"/>
	<path class="st133" d="M1225.9,566c2,5.4,4.2,10.5,2,16.4C1221.7,574.8,1221.5,572.9,1225.9,566z"/>
	<path class="st134" d="M1158.2,804.1c4.2-3.5,7.6-3.9,11-4.3c1.5,2.9,2,6.4-0.6,7.8C1165.1,809.4,1162.3,806.2,1158.2,804.1z"/>
	<path class="st135" d="M1139.3,215.2c-5.9-2.6-13.2-0.3-12.6-10.2C1131.6,207.2,1135.3,209.9,1139.3,215.2z"/>
	<path class="st136" d="M1165.1,817.3c-0.9,2.8-2.4,4.5-5.5,4c-3-0.5-3-2.6-2.7-4.8c0.3-2,0.1-4.8,3.4-3.9
		C1162.5,813.3,1165.2,814.1,1165.1,817.3z"/>
	<path class="st137" d="M1118.2,218.4c-1.7-6.1-3-10.7-4.6-16.2C1121.1,207.1,1122.2,210.8,1118.2,218.4z"/>
	<path class="st138" d="M1200.5,326.2c0-5.3,0-10.6,0-16.2C1206.6,315.7,1206.5,316.8,1200.5,326.2L1200.5,326.2z"/>
	<path class="st139" d="M315.9,1076c1.3,3.2,4.4,1.1,6.5,2.3c-6.3,2.8-12.8,4-19.6,4.1l-0.2-0.2C306,1078,310.8,1076.6,315.9,1076z"
		/>
	<path class="st140" d="M1261.2,676.4c0.1-3,1.7-4,3-5.1c1.5-1.1,3.4-1.3,5-0.4c0.6,0.4,0.9,1.8,0.9,2.7c-0.2,2.6-1.8,3.7-4.3,3.4
		C1264.3,676.9,1262.9,676.7,1261.2,676.4z"/>
	<path class="st141" d="M1138.3,193.1c-10.5-2.8-10.5-2.8-15.9-7.9C1129.3,183.6,1133.1,187.5,1138.3,193.1z"/>
	<path class="st142" d="M676.8,787.3c5.2-3.7,9.5-8.9,16.2-10.1c0,0-0.2-0.2-0.2-0.2c-0.2,9.1-6.7,11.1-13.9,12.4
		C677.8,789.1,677.1,788.4,676.8,787.3z"/>
	<path class="st143" d="M1170.9,222.2c4.7,2.1,8.5,5,12.6,10.5C1176,231.3,1173.6,226.5,1170.9,222.2z"/>
	<path class="st144" d="M963.9,723.8c-5.4,2.4-11,1.3-16.6,0C952.8,721.5,958.2,722.6,963.9,723.8z"/>
	<path class="st145" d="M1314,979.5c-2.8,0.6-5.5,0.9-8.2-2.3c3.5-2.1,6.8-2.2,10.2-1.4C1315.4,977.1,1314.7,978.3,1314,979.5z"/>
	<path class="st146" d="M1152.7,235.8c-3.9-4.5-6.8-7.1-6.2-12.4C1151.5,225.7,1152.5,229,1152.7,235.8z"/>
	<path class="st147" d="M179.1,1234.5c1.4,0,2.9-0.2,4.3,0c1.5,0.3,4-0.9,4.1,1.8c0,1-1.7,2-2.7,3c-1.3,0.1-2.7,0.2-4,0.2
		C175.4,1239.5,178.1,1236.7,179.1,1234.5z"/>
	<path class="st148" d="M1150.1,1051.3c-2.2,0.5-2.5-0.8-2.6-1.7c-0.3-2.4,0.5-4.2,3.3-4.1c1,0,2.3,0.2,2.3,1.4
		C1153.3,1049.3,1151.1,1050.2,1150.1,1051.3z"/>
	<path class="st139" d="M302.7,1082.4c-2.4,2.7-5.6,3.5-11,4.9c4.4-4,7.4-5.2,10.9-5.1C302.6,1082.2,302.7,1082.4,302.7,1082.4z"/>
	<path class="st142" d="M673.7,792.5c-1.8-0.1-3.6-0.3-5.4-0.4c2.8-1.6,5.7-3.2,8.5-4.8c0.4,0.5,0.8,0.9,1.2,1.4
		C677.7,791.3,676.4,792.7,673.7,792.5z"/>
	<path class="st147" d="M184.9,1239.4c2.7-1.1,4.9-0.1,6.8,1.9C189.1,1241.6,186.6,1241.9,184.9,1239.4z"/>
	<path class="st149" d="M661.7,160.4c-2.9-5.7-4.6-10.5-2.6-16.3c0.9-2.6,0.9-5.8,0.6-8.6c-0.8-8,2.8-13.2,9.6-16.7
		c9.4-4.7,18.5-10.2,28.3-13.7c11.2-3.9,22.2-8.9,34-11.1c1.8-0.3,3.5-1,5.3-1.1c18.3-0.8,18.8-1.2,11.5,15c-1.6,3.6-3.2,7.7-3,11.4
		c0.3,6.8-3.6,8.8-8.8,10.3c-7.3,2.1-14.5,4.4-21.9,6.3C696,141,679.3,150.2,661.7,160.4z"/>
	<path class="st149" d="M779.7,202.1c0.1,4.1-2.7,5-5,5.5c-6.8,1.3-13.2,3.8-19.7,5.9c-10.7,3.6-20.8,8.2-29.8,15.3
		c-7,5.6-9.2,5-15-1.8c-5.6-6.6-11.5-13-15.4-20.9c-2.1-4.2-1.9-6.8,2.1-10.2c5.8-4.8,12.5-7.4,19.2-9.9c11.8-4.4,24.2-7.3,36.6-9.9
		c9.9-2,12.9-0.4,17.6,8.4c2.2,4.2,4.1,8.5,7,12.3C778.5,198.6,779.1,200.8,779.7,202.1z"/>
	<path class="st150" d="M688.3,89.1c5.7-18,14.5-29.6,31.8-33c13.8-2.7,27.4-5.9,41.2-8.5c3.1-0.6,6.4-0.1,9.6-0.1
		c1.4,3.2-1.5,3.6-3,4.8c-3.1,2.6-6.3,5.1-8,8.7c-4.5,9.6-11.6,14.5-22.3,16.1C721.7,79.5,705.7,82.2,688.3,89.1z"/>
	<path class="st151" d="M694.2,482.1c-2.7-0.3-6.1-0.3-9.2-1.2c-8.3-2.5-15.4-3.2-23.3,2.9c-7.5,5.7-19,0.8-22.7-7.9
		c-0.9-2-1.7-4.3,0.1-6.1c1.8-1.8,4.1-1.3,5.8,0.3c6.1,5.8,12,5.1,18.6,0.5c4-2.8,8.9-2.8,13.6-1.6c4.2,1.1,8.4,2.3,12.7,3
		c10,1.5,14-0.7,17.6-9.9c1.1-2.9,1.6-5.8,5.6-4.7c4,1.1,4.3,4.5,3.9,7.9C715.7,474.1,704.6,482.5,694.2,482.1z"/>
	<path class="st152" d="M775.2,113.1c-1-8.5-0.6-9.8,8.1-11.8c13.6-3.2,27.4-5.9,41.2-8.1c8.8-1.4,10,0.3,10.1,9.2
		c0,10.3-0.3,11.1-10,13.1c-13.7,2.9-27.5,5.4-41.3,7.7C776.9,124.3,776.4,123.3,775.2,113.1z"/>
	<path class="st153" d="M786.3,49c7.5-8.8,14.6-15.9,22.4-22.1c3-2.4,7.2-3.5,11.3-3.5c12,0,24,0.1,35.9,0.2c2.1,0,4.4,0.2,5.6,3.9
		c-6.2,3.7-11.2,9.4-16.6,14.6c-1.3,1.2-2.9,2.4-4.6,2.8C823.2,48.6,805.8,50.7,786.3,49z"/>
	<path class="st149" d="M775.7,83.5c2-4.6,3-8.1,5-10.9c5.2-7.1,10.7-13.7,21.1-12.3c10.5,1.4,20.7-2.8,31.3-2.4
		c7.5,0.2,8.4,1.8,4.9,8.1c-4.9,8.9-11.9,13.5-22.5,14.2c-11.5,0.8-23.1,1.2-34.4,3.7C779.9,84.3,778.4,83.8,775.7,83.5z"/>
	<path class="st153" d="M742.9,147c0,9.2,0,9.1-8.7,11.8c-12.5,3.8-23.7,10.5-35.4,16.1c-7,3.4-7,3.4-9.5-4
		c-5.3-15.4-5.1-15.8,10.1-22.3c7.6-3.2,15.3-6.3,23-9.3c2.7-1,5.4-2,8.3-2.5C740.7,134.9,742.9,136.8,742.9,147z"/>
	<path class="st152" d="M812.7,134.4c0.1,9.7-3.3,13.8-13.1,15.7c-9.5,1.9-19,3.9-28.5,5.6c-3.9,0.7-8.6,1.5-10.2-3.3
		c-1.5-4.4-1.7-9.4,2.2-13.2c3.2-3.2,7.3-4.2,11.7-4.9c10.3-1.6,20.7-2.2,30.8-5.2C811.5,127.4,812.6,128.5,812.7,134.4z"/>
	<path class="st154" d="M639.4,203.8c-4-3.7-5.3-7.6-6.7-11.2c-2.2-5.8-1.9-11.2,3.4-15.7c3.6-3,6.6-6.7,10.1-9.9
		c1.8-1.7,4.5-2.3,5.5,0.1c2.2,5.2,5.9,11.3,2.7,16.4C650.1,190.3,646.2,197.8,639.4,203.8z"/>
	<path class="st76" d="M675.7,79.1c-1.8,11.4-2.7,20.7-12.5,25.5c-7.8,3.8-15.4,7.8-22.5,12.9c-1.5,1.1-3.1,2.1-5,1.1
		c-2.4-1.3-2.2-3.9-1.6-5.7c2.6-8.9,4.8-17.8,15.5-21.5C658,88.4,665.8,83.8,675.7,79.1z"/>
	<path class="st155" d="M622.4,176.4c-2.3-7.7-5-13.8-3.2-20.3c3.5-13.3,15-18.7,25.7-24.3c3.2-1.7,3.3,1.9,3.3,4.7
		C648.7,155.1,636,165.1,622.4,176.4z"/>
	<path d="M109.2,1137.1c3,2.1,1.1,6.3,3.7,8.5c0.1,1.1,0.2,2.2,0.3,3.2c0.9,10.1,0.9,10,10.6,10.1c5.4,0,10.9,0,16.3,0.2
		c3.9,0.2,7.9,0.3,12,4.7c-12.4,2.9-24.2,0.2-35.6,1.8c0.5,8.9,1.2,9.8,9.9,10.2c13.1,0.7,26.1-0.3,39.1-1.7
		c2.8-0.3,7.7-2.7,8.4,1.1c0.8,4.6-4.8,2.9-7.4,3.8c-13,4.2-26.4,4.2-39.8,3.4c-3.9-0.3-7.8-1.4-11.7-2.4c-1.7-0.4-3.9-1.5-3.9-3.4
		c0-12.2-6.1-24-2.5-36.5C108.5,1139.1,108.8,1138.1,109.2,1137.1z"/>
	<path class="st38" d="M1145.3,957.7c-3.4-7.5-7.5-13.2-12.6-18.4c-6.2-6.4-5.5-18.2,0.9-24.3c4.4-4.2,12.7-3.5,17.4,1.8
		c4.8,5.3,7.6,11.8,5.6,18.8C1154.5,943.4,1151,950.7,1145.3,957.7z"/>
	<path class="st156" d="M792.5,417c-0.2,7.6-7.7,13-17.2,12.5c-8.6-0.5-14.2-7.1-13.7-16.2c0.5-9,6.4-14.3,15.8-14.2
		C785.9,399.3,792.8,407.4,792.5,417z"/>
	<path class="st157" d="M601.9,423.4c-9.6-0.3-16.1-6.1-16-14.3c0.1-8,8-14.6,17.3-14.4c8.3,0.2,13.5,5.7,13,14
		C615.6,417.4,609.6,423.7,601.9,423.4z"/>
	<path class="st158" d="M241.9,899.2c-1.9-1.3-2-2.9-0.4-4.4c3-2.9,6.6-4.3,10.8-4.3c5.1-0.1,10.1-0.3,15.2-0.1
		c8,0.3,8,0.7,10.7,9.2c1,3.4,3.2,6.5,4.9,9.6c2.4,4.4,1.3,7.4-3.3,8.8c-3.4,1-6.4-0.6-9.5-1.4c-1.8-0.5-3.4-1.7-3.5-3.7
		c-0.1-2.5,2.1-2.4,3.9-2.5c2.9-0.2,3.5-1.5,2.6-4.3c-2.7-8.5-4.4-9.5-15.4-7.4c-0.4,4.1,3,6.3,4.5,9.4c0.4,0.8,0.5,2.2,0.1,3
		c-0.8,1.4-2.5,1.7-3.8,1.1c-3.9-1.6-6.4-4.8-7.7-8.6c-1.2-3.4-3.1-4.6-6.4-4.1C243.5,900.6,242.6,900.5,241.9,899.2z"/>
	<path class="st159" d="M334.9,910.9c-9.7,0.4-18.5,3.3-27.5,5.2c-11.2,2.3-19.5-4.9-18-15.2c0.4-2.6,1-5.3,4.2-5.5
		c3.4-0.1,4,2.4,3.8,5.2c-0.1,1.4-0.2,2.9,0.2,4.2c0.3,0.8,1.5,1.7,2.4,1.9c1.9,0.5,2.4-0.9,2.5-2.5c0.2-2.9-0.2-5.9,1.2-8.5
		c0.7-1.3,1.7-2.4,3.3-2.4c1.9-0.1,2.2,1.4,2.6,2.8c2.9,9.9,5.1,11.9,13.7,8.6C330.2,902.1,332,906.5,334.9,910.9z"/>
	<path class="st160" d="M224.2,905.7c-6,8.2-6.1,8.2-13.3,3.3c-3.9-2.6-7.6-5.4-11.6-8.1c-0.7,8.2-0.7,8.2,8.3,11.5
		c1.3,0.5,3.1,0.4,3.1,2.4c0,2.3-1.7,3.1-3.5,3.5c-4.9,1.1-12.5-2.7-14.8-7.2c-2.6-5.2-0.9-14.7,2.8-18.3c2.5-2.4,4.6-1.6,6.7,0.2
		c6.7,5.7,14.3,9.7,22.4,13L224.2,905.7z"/>
	<path class="st161" d="M124.2,910.6c1.2-2.5,2.6-2.8,3.9-3.3c2-0.8,3.1-2.5,1.8-4.2c-1.9-2.5-2.9,0-3.9,1.3c-1,1.2-2.4,1.9-3.8,1.4
		c-3.6-1.4-4.5-0.4-3.8,3.3c0.2,1-1,2-2.1,1.8c-0.9-0.2-2.1-0.8-2.6-1.6c-3.4-6.3-0.1-14.7,7.2-16.4c3.8-0.9,6.9-1,7.4-5.8
		c0.2-1.6,1.6-2.3,3.3-1.7c1.5,0.5,2.9,2,2.5,3.2c-2.7,10,2.3,19.4,1.9,29.2c-0.1,1.6-0.4,2.8-2.2,3.1c-1.7,0.2-3.2-0.6-3.3-2.1
		C130.5,914.6,127.9,912.5,124.2,910.6z"/>
	<path class="st162" d="M224.3,905.8c-0.4-2.4-0.9-4.9-1.3-7.3c-0.3-1.6,0.1-2.8,1.7-3.4c1.6-0.6,3.1,0,3.8,1.1
		c2.9,4.9,5.6,9.9,8.2,14.9c0.5,0.9,0.5,2.1-0.6,2.8c-1.3,0.9-2.7,0.7-4,0.1c-3.9-1.7-4.7-6.2-7.9-8.5
		C224.2,905.7,224.3,905.8,224.3,905.8z"/>
	<path class="st160" d="M241.9,899.2c0.8,0.1,1.7,0.2,2.5,0.3c2.2,3.7,4.4,7.4,4,11.9c-0.2,2-0.9,3.6-3,3.8
		c-2.1,0.2-3.3-1.3-3.8-3.1C240.6,907.8,242,903.5,241.9,899.2z"/>
	<path class="st163" d="M313.5,843.5c-1.5,1.2-1.3,2.3-0.9,3.3c0.8,2.4,0.4,4.4-2,5.5c-3,1.4-4.9-0.9-6.2-3
		c-1.7-2.7-2.9-5.8-4.2-8.4c-4.7-1.4-4.2,5.7-6.2,4.4c-5.7-3.6-10.2,0.4-15.1,0.4c-5.2,0-11-2.7-16.8-3c-1.5-0.1-2.8-1-3.1-2.6
		c-0.4-2,0.4-3.7,2.3-4.3c2.4-0.8,4.9-1.2,7.4-1.6c1.8-0.3,3.9-0.1,4.7-2c1-2.6,0.7-6.2,4.7-6.3c3.7-0.2,3.3,4.5,6.1,5.5
		c2.7-6.9,3.9-7.6,6.6-3.1c3,5.1,6.4,3.8,10,2.2c6.6-2.8,6.5-3,9.4,3.9c0.1,0.3,0.5,0.5,1.2,1.3c3.1-3.3,1-7.5,2-10.9
		c0.4-1.4,0.8-2.8,2.5-3.2c2.2-0.5,3.4,0.9,4.1,2.7c1.1,3,0.1,7.7,3.6,8.4c4,0.9,8.8,0.4,12.7-0.9c3.3-1.1,5.7-2.5,8.9,0
		c2.1,1.7,4.3,0.7,4.8-2c0.9-4.5,2.7-5,6.8-3.1c4.9,2.2,10.9,2.6,11.5,9.6c0.2,2.4-1.3,3.9-3.5,4.8c-3.2,1.3-6.3,0.9-9.5,0
		c-2.8-0.8-4.8-1.2-5.4,3.5c-0.7,5.5-5,6.3-9.7,2.8c-1.7-1.3-3-3.4-4.8-4.2c-2.9-1.3-6.1-2.1-8.9,0.7c-5.5,5.4-5.5,5.4-11.4-0.1
		C314.8,843.7,314.3,843.7,313.5,843.5z"/>
	<path class="st164" d="M226.1,831.7c-7.2-1.4-13.9-2.6-20.5-4c-1.4-0.3-2.7-1.2-2.6-2.9c0.2-2,1.9-1.8,3.3-1.9
		c2.9-0.1,5.7,0.3,8.5,1.5c3.5,1.5,7.6,1.6,10.6,0.2c8.4-3.6,17.2-0.7,25.6-2.9c1.8-0.5,3.9,0.1,4.4,2.2c0.5,2.2-1.5,2.9-3.2,3.5
		C243.6,830.4,234.4,830,226.1,831.7z"/>
	<path class="st165" d="M186.3,831.5c0.4-0.1-0.6,0.1-1.7,0.2c-2.3,0.2-4.6-0.1-5.3-2.6c-0.9-3.4,2.1-4.2,4.2-5.1
		c5.5-2.3,11.9-1,14.7,2.6c1.2,1.5,2.3,3.1,1.2,4.8c-1.1,1.8-2.8,1.8-4.7,0.8c-1.2-0.7-2.6-1.3-3.9-1.5
		C190,830.6,188.9,831,186.3,831.5z"/>
	<path class="st166" d="M149.5,821.7c3.8,2.7,9.6-0.6,12.7,4.4c1,1.6,2,3.1,0.7,4.9c-1.3,1.8-3.4,1.6-4.7,0.3
		c-2.8-2.7-5.8-3.8-9.6-3.4c-2.1,0.2-4.9-0.3-4.8-3C144,821.6,146.8,821.4,149.5,821.7z"/>
	<path class="st166" d="M170.7,827.3c0.1,1.9-1.1,2.3-2.6,2.2c-1.1-0.1-2-0.8-2.1-2c-0.1-1.6,0.7-2.9,2.2-3
		C169.8,824.4,170.3,825.9,170.7,827.3z"/>
	<path class="st167" d="M1284.5,817.7c2,6.8,6.6,10.3,14.6,9.2c0.7-2.9-1.7-6.7,1.4-8.9c2.9-2,6-4.2,9.9-4c12,0.6,23.6,3.2,35.4,5
		c2,0.3,2.8,2.1,4,3.5c1.8,2.2,4.9,3.6,6.7,2.1c8.2-6.9,10.7,2,16.2,4.6c-10.2,4.2-20.9,3.5-27.7-2c-5-4-10.5-4.2-16.5-3.8
		c0.1,5.9,7.8,3.6,8.4,8.6c-1.6,2.9-4.6,2.5-6.6,1.7c-9.9-3.8-19.6-2.1-29.5,0.1c-4.6,1-9.4-0.3-14-0.2c-7.2,0.1-14.3-0.4-21.9,1.9
		c-11.2,3.4-22.6-0.8-33.2-6.4c2-4.2,6.6-4.3,9.5-6.9c3.4-3,2.2,4.6,5.6,4c0.3-0.2,0.7-0.3,0.8-0.6c1.5-2.7-1.1-7.5,3-8.5
		c5.3-1.3,3.4,4.2,5,6.5c0.8,1.2,1.8,2.4,2.9,3.1c3.1,2.1,5.6,0.6,5.8-3.4c0.1-1.9,0.1-3.6,2.2-5.3c3.2-0.1,3.6,3.6,5.6,5.3
		c4.7,4,6.3,3.7,9-2.2C1281.6,819.7,1282.1,818.4,1284.5,817.7z"/>
	<path class="st168" d="M1394,836.7c-7.9,2.2-13.1,3.5-17.6-0.8c-2.7-2.6-1.7-6.1,3.2-12.8C1381.6,829.6,1386.7,832.5,1394,836.7z"
		/>
	<path class="st169" d="M1344.1,1073.7c0.4-2.6,0.6-5.9,1.4-9c0.8-2.8,2.8-4.7,5.6-2.1c2.6,2.3,4.4,2.3,7.5,0.7
		c3.7-2,5.5,0.8,4.9,4.3c-0.8,4.2-1.9,8.6-7.7,8.9c-1.6,0.1-3.3,0.6-5,1.5C1345.2,1081,1344,1080.2,1344.1,1073.7z"/>
	<path class="st170" d="M1381.5,1070.2c-2.1,0.1-3.7-0.6-4.2-2.7c-0.6-2.9,3.1-5.3,7.9-5.2c2.2,0.1,5,0.4,4.7,3.1
		C1389.4,1070.3,1384.5,1068.9,1381.5,1070.2z"/>
	<path class="st169" d="M1376.8,1074.4c-0.1,1.5-0.2,3-2.1,3.1c-2.3,0.2-3.2-1.5-3.6-3.3c-0.4-2.1,1-3.9,2.7-3.9
		C1375.6,1070.5,1376.7,1072.4,1376.8,1074.4z"/>
	<path class="st169" d="M1367.2,1067.9c0.5,0.7,0.8,1,0.9,1.3c0.8,2.1,1.2,4.2-0.5,6c-0.3,0.3-1.5,0.2-1.9-0.2
		c-2.2-1.9-0.7-3.9,0-5.8C1365.8,1069,1366.2,1068.8,1367.2,1067.9z"/>
	<path class="st171" d="M673.7,792.5c1.4-1.3,2.8-2.5,4.3-3.8c6-2.5,12.1-5,14.9-11.7c16.8-4.7,32.5-12.1,48.8-18.3
		c24.7-9.3,49-19.9,75-25.5c2.2-0.8,2.7,0.2,2.3,2.2c-35.6,16.3-72.5,29.3-109,43.5c-9.9,3.8-19.3,8.3-28,14.2
		C679.2,793.1,676,798.2,673.7,792.5z"/>
	<path class="st172" d="M818.9,735.4c-0.8-0.7-1.5-1.5-2.3-2.2c4.4-2.7,8.8-5.4,15.1-3.6C828,734.3,823.2,734.3,818.9,735.4z"/>
	<path class="st173" d="M957.5,1217.4c-32.1-1.4-63.2,1.7-95.3-0.1C880.5,1209.9,937,1209.9,957.5,1217.4z"/>
	<path class="st174" d="M446.7,473.8c-3.5,3-7.6,0.9-11.1,3.1c1.9,3.2,4.5,2.7,6.8,2.6c12.3-0.2,24.7-0.4,37-0.8
		c7.7-0.2,15.1,0.4,22.5,2.9c0,3.1-2.2,3-4.2,3.2c-16.2,1.8-32.5,2.7-48.8,2c-2.5-0.1-5.1-0.6-7.6-0.2c-2.8,0.5-5.9,2.4-8.1-0.4
		c-2.4-3-5.9-5.4-6.5-9.8c-0.6-4.7-0.7-9.4,0.2-14.1c1.9-9.2,4.3-10.5,13.9-10.3c6.8,0.1,13.7-0.9,20.6-1.2c2.3-0.1,4.9-1.6,7.5,1.3
		c-5.6,4.1-12,4-18.1,4.7c-3.6,0.4-7.2,0.1-10.9,0.2c-2.6,0.1-4.1,1.5-4.2,4c-0.2,3.6,2.7,2.4,4.5,2.6c4,0.6,8.6-1.3,13.5,2.9
		c-6.7,3.2-12.8,1.2-19.1,2.2C438.4,472.1,444.5,468.2,446.7,473.8z"/>
	<path class="st175" d="M1302.7,1090.9c-0.7,0.2-1.4,0.4-2.1,0.7c-10.8-2.3-21.7-0.5-32.5-1.3c-5.6-0.4-11.4,0.8-18.9-3.6
		c19.3-4.5,36.4-0.6,53.4-0.4C1302.6,1087.9,1302.7,1089.4,1302.7,1090.9z"/>
	<path class="st176" d="M1291.1,682.9c-1-0.1-1.8-0.1-2.5,1.2c-1.9,3.4-2,3.3-3.6,0.3c-0.8-1.6-1.4-3.3-2.4-4.8
		c-1.1-1.7-1.6-3.3-0.4-5c1.2-1.7,3-2.2,4.8-1.3c4.1,2.2,8.5,1.1,12.8,1.3c3.1,0.1,6.1,0.7,6.7,4.1c0.6,3.6,0.1,7.5-2.6,10.1
		c-2.1,2-4.4,0.3-5-1.9C1297.7,682.5,1294.2,683.3,1291.1,682.9z"/>
	<path class="st177" d="M1381.3,865.5c1.4,0.2,2.8,0.4,4.2,0.6c7,1,6.9,1,4.1,8.2c-1.2,3-1.6,6.3-3.1,9c-1.7,3.3-4.8,3-5.5-0.7
		c-0.4-2.4-6.7-5.5,0.3-8.3c1.7-0.7-1.2-1.7-2.1-2.3c-1.7-1.2-4.4-2-3.5-4.6C1376.6,865.3,1379.1,865.2,1381.3,865.5z"/>
	<path class="st178" d="M1370.8,872.7c0.4,5.2-3.4,5.6-6.2,6.6c-1.6,0.6-2.5-1.1-2.3-2.6c0.3-3.5,1.6-6.4,5.5-6.9
		C1369.9,869.5,1370.8,871.3,1370.8,872.7z"/>
	<path class="st179" d="M939,69.1c7.1-3.6,14.8-1.7,22.3-2.4c5.3-0.5,10.7,0.7,16-1.1c3.7-1.3,5.3,0.9,5,4.6
		c-0.6,8.5-3.5,11.4-12,11.6c-7.5,0.2-15.1,0.1-22.6,0.2C942.8,79.1,938.2,75.9,939,69.1z"/>
	<path class="st180" d="M939,69.1c2.9,4.3,5.8,8.5,8.7,12.8c-11.1,1.2-22.2,2.5-33.8,3.7c-2.1-4.8,1.7-8.9,1.6-13.5
		c-0.1-2.6,2.7-3,5-3C926.7,69.2,932.8,69.2,939,69.1z"/>
	<path class="st0" d="M742.3,99.3c-2.7,7.4-6.9,14.2-8.6,22c-0.5,2.3-2.2,3.6-4.5,4.2c-20.9,5-40.4,13.4-59.4,23.3
		c-0.5,0.3-1.4-0.1-2.6-0.2c-1.4-5.9-0.6-12-0.2-18c0.3-4,2.4-7.6,6.5-9.3c21.6-9.3,43-18.9,66.4-22.9
		C740.6,98.2,741.2,98.8,742.3,99.3z"/>
	<path class="st0" d="M718.3,222.8c-2.1-0.2-3.3-1.7-4.4-3c-4-4.6-7.9-9.4-11.9-14c-3.1-3.6-1.5-5.4,2-7.4
		c11.5-6.4,23.9-10.2,36.4-13.8c0.7-0.2,1.4-0.2,2.1-0.4c5.2-1.4,11.7-5.5,15.4-2.9c4.8,3.4,7,10.5,10.1,16.1c1.6,3,1.4,5.6-2.7,6.5
		c-15.6,3.6-30.4,9.1-44,17.5C720.2,222.1,719.2,222.4,718.3,222.8z"/>
	<path class="st181" d="M755.3,54.7c-3.8,4.9-7.6,8.3-10,12.8c-1,1.9-2.9,3.4-5.1,3.6c-13.4,1.6-26.5,5-40.9,8.4
		c3.8-9.4,6.6-16.4,17.5-17.7C729.2,60.3,741.2,56.2,755.3,54.7z"/>
	<path class="st182" d="M823.6,104.9c-0.1,4.4-1.9,7.1-6.2,7.7c-8.9,1.2-17.8,2.2-26.6,3.4c-2.7,0.4-4.2-0.5-4.4-3.1
		c-0.1-2.9-2.8-7.1,1.9-8.3c10.1-2.5,20.2-4.7,30.5-6.3C823.1,97.6,823.4,101.8,823.6,104.9z"/>
	<path class="st183" d="M801.5,44.3c6.9-10.9,15.7-18.4,29.7-16.7c4.6,0.6,9.3,0.1,15.3,0.1c-4.7,6.9-8.5,12.2-17,13.5
		C820.3,42.4,810.9,41.9,801.5,44.3z"/>
	<path class="st184" d="M827.8,62c-2.8,8.4-6.3,11.3-12.3,12.4c-6.4,1.2-12.8,1-19.2,1.2c-1.7,0.1-3.8,0.2-4.4-2.1
		c-0.5-2,0.8-3.4,2.1-4.6c1.6-1.4,3.3-3.4,5.2-3.6C808.2,64.4,817.4,64.6,827.8,62z"/>
	<path class="st182" d="M698.9,170.3c-2.1-5.5-3.4-8.8-5-12.9c9.9-6.6,21.3-10.1,32.1-14.6c2.5-1,5.5-3.2,7.7,0.4
		c2,3.3,0.3,9.8-3,11.4c-4.6,2.2-9.3,3.9-14,6C710.8,163.2,704.3,164.7,698.9,170.3z"/>
	<path class="st185" d="M774.4,149.3c-0.9,0.1-2.6-0.3-3-2.5c-0.5-2.9-1.1-6.5,2.5-7.3c8-1.9,16.2-3.3,24.4-4.4
		c2.8-0.4,3.7,2.1,2.9,4.4c-0.9,2.7-2.2,5.3-5.6,5.9C788.8,146.5,782.1,147.8,774.4,149.3z"/>
	<path class="st186" d="M643.9,107.3c-0.1-9.4,3.5-12.4,21.1-17.6C664.1,99.7,660.5,102.7,643.9,107.3z"/>
	<path class="st185" d="M626.1,166.3c-2.3-16.8-1-19.3,12.5-24.5C641.9,152.4,641.8,152.6,626.1,166.3z"/>
	<path class="st187" d="M1305.8,819.9c2.7-1.9,5.2-1.5,7.6-1.2c2.8,0.4,6.4,0.8,5.6,4.6c-0.7,3.2-4.1,2-6.3,1.7
		C1309.9,824.6,1307.1,823.8,1305.8,819.9z"/>
</g>
</svg>
