<?xml version="1.0" encoding="utf-8"?>
<!-- Generator: Adobe Illustrator 19.2.1, SVG Export Plug-In . SVG Version: 6.00 Build 0)  -->
<svg version="1.1" id="Layer_1" xmlns="http://www.w3.org/2000/svg" xmlns:xlink="http://www.w3.org/1999/xlink" x="0px" y="0px"
	 viewBox="0 0 1439.6 1124.6" style="enable-background:new 0 0 1439.6 1124.6;" xml:space="preserve">
<style type="text/css">
	.st0{fill:#46AAE5;}
	.st1{fill:#C98851;}
	.st2{fill:#A0612D;}
	.st3{fill:#840000;}
	.st4{fill:#2F75A8;}
	.st5{fill:#261405;}
	.st6{fill:#2D1010;}
	.st7{fill:#FFFFFF;}
	.st8{fill:#531919;}
	.st9{fill:#1F1F1F;}
	.st10{fill:#FEFEFE;}
	.st11{fill:#BC8844;}
	.st12{fill:#BA8743;}
	.st13{fill:#2F75A7;}
	.st14{fill:#2E75A8;}
	.st15{fill:#2F76A9;}
	.st16{fill:#2F74A7;}
	.st17{fill:#02F7DA;}
	.st18{fill:#95A1A1;}
	.st19{fill:#251405;}
	.st20{fill:#AB250A;}
	.st21{fill:#5A1010;}
	.st22{fill:#94A0A0;}
	.st23{fill:#3075A7;}
	.st24{fill:#FDFDFD;}
	.st25{fill:#BD1413;}
	.st26{fill:#5C1111;}
	.st27{fill:#FDFEFE;}
	.st28{fill:#95A0A0;}
	.st29{fill:#511818;}
	.st30{fill:#BC1414;}
	.st31{fill:#DFD71F;}
	.st32{fill:#949F9F;}
	.st33{fill:#694D28;}
	.st34{fill:#939F9F;}
	.st35{fill:#FBFCFC;}
	.st36{fill:#FBFBFB;}
	.st37{fill:#A36E42;}
	.st38{fill:#F5F7F7;}
	.st39{fill:#869797;}
	.st40{fill:#06F4DB;}
	.st41{fill:#07F3DB;}
	.st42{fill:#929E9E;}
	.st43{fill:#F9FAFA;}
	.st44{fill:#909C9C;}
	.st45{fill:#9A5E2B;}
	.st46{fill:#41AAE0;}
	.st47{fill:#919B9B;}
	.st48{fill:#41ACE1;}
	.st49{fill:#F7F8F8;}
	.st50{fill:#F9F9F9;}
	.st51{fill:#3A3A3A;}
	.st52{fill:#8C9999;}
	.st53{fill:#505353;}
	.st54{fill:#879494;}
	.st55{fill:#8D5A2A;}
	.st56{fill:#F2F3F3;}
	.st57{fill:#F1F5F5;}
	.st58{fill:#825426;}
	.st59{fill:#41A1D9;}
	.st60{fill:#EFF2F2;}
	.st61{fill:#4A0E0E;}
	.st62{fill:#3B3B3B;}
	.st63{fill:#6A7575;}
	.st64{fill:#F1F3F3;}
	.st65{fill:#708686;}
	.st66{fill:#8E9696;}
	.st67{fill:#E7EBEB;}
	.st68{fill:#8B9898;}
	.st69{fill:#828E8E;}
	.st70{fill:#788484;}
	.st71{fill:#E9EDED;}
	.st72{fill:#718585;}
	.st73{fill:#3071A1;}
	.st74{fill:#F0F5F5;}
	.st75{fill:#E8EBEB;}
	.st76{fill:#296385;}
	.st77{fill:#F5F2F2;}
	.st78{fill:#D3D6D6;}
	.st79{fill:#7F8E8E;}
	.st80{fill:#8A9494;}
	.st81{fill:#DBE2E2;}
	.st82{fill:#7F8888;}
	.st83{fill:#646F6F;}
	.st84{fill:#6C7575;}
	.st85{fill:#79582C;}
	.st86{fill:#DCEEED;}
	.st87{fill:#919FA0;}
	.st88{fill:#7E4D24;}
	.st89{fill:#7C8C8C;}
	.st90{fill:#8C5929;}
	.st91{fill:#644925;}
	.st92{fill:#6F431F;}
	.st93{fill:#CCCACA;}
	.st94{fill:#93A3A3;}
	.st95{fill:#E3E7E7;}
	.st96{fill:#8C9090;}
	.st97{fill:#CDD1D1;}
	.st98{fill:#875226;}
	.st99{fill:#697070;}
	.st100{fill:#748383;}
	.st101{fill:#5B6464;}
	.st102{fill:#04F7DB;}
	.st103{fill:#03F8DB;}
	.st104{fill:#05F6DB;}
	.st105{fill:#05F5DB;}
	.st106{fill:#13E5DE;}
	.st107{fill:#07F4DC;}
	.st108{fill:#030507;}
	.st109{fill:#09F0DC;}
	.st110{fill:#040201;}
	.st111{fill:#040100;}
	.st112{fill:#070707;}
	.st113{fill:#0D0C0C;}
	.st114{fill:#44ABE4;}
	.st115{fill:#44ACE5;}
	.st116{fill:#42ADE5;}
	.st117{fill:#43ADE5;}
	.st118{fill:#42AEE4;}
	.st119{fill:#9B5F2C;}
	.st120{fill:#CFA91D;}
	.st121{fill:#6C4921;}
	.st122{fill:#985D2B;}
	.st123{stroke:#000000;stroke-miterlimit:10;}
	.st124{fill:#FFFFFF;stroke:#000000;stroke-miterlimit:10;}
</style>
<g>
	<path d="M870.2,1056.1c-3.7,4.8-2.8,10.5-5.4,15.1c-6.2,11.1-14.6,20-24.9,27.6c-16.8,12.3-35.3,18.8-56,20.5
		c-6.5,0.5-12.9,2.9-19.4,3.9c-21.6,3.1-43,0.5-64.1-4.2c-19.3-4.3-34.6-15.6-49.5-27.8c-16.9-13.9-28.6-31.1-36.1-52.1
		c-7.1,1.4-13.2,5.2-20.8,4.9c-15.7-0.6-31.2-2.3-46-7.2c-6.1-2-10-0.9-13.7,3.5c-1.8,2.1-3.8,4-5.6,6.2
		c-18.7,22.9-40.5,56.2-158.3,63.7c-16.9,0.6-32.4-4.6-47.8-9.7c-9.1-3-18.4-6.1-27.2-10.5c-12.2-6.1-22.5-14.2-29.3-25.9
		c-3.1-5.2-7-7.5-12.2-8.3c-13.4-2.1-26.9-3.8-40.3-6c-41.3-6.6-82.6-13.3-123.9-19.9c-5.2-0.8-10.4-1.5-15.6-2
		c-5.5-0.5-8.1-3.4-8.2-8.8c0-0.7,0-1.4-0.1-2.1c-1.8-60-3.7-119.9-5.3-179.9c-0.1-3.6-0.6-6.3-2.9-9.4
		c-10.9-14.5-23.8-27.3-35.6-41.1C6.6,768.6-0.7,747.7,0.1,723.5c0.6-18.4,4.4-35.8,11.2-52.8c4.6-11.5,11.3-21.4,20.5-29.8
		c23.6-21.6,51-33.2,83.3-33.2c44.7,0,89.1,4,133.7,5.8c7,0.3,7.3,0.4,7.3-6c0-3.9,1.1-7.5,1.6-11.3c0.7-5.4,2-10.7-3-15.4
		c-3.3-3.1-3.8-8.1-3.4-12.7c0.5-5.3-0.9-10.3-2.7-15.3c-5.9-16.3-5.6-33-0.4-49.1c2.2-6.8,2.5-12.9,0.6-19.2
		c-3.8-12.8-3.6-25.2,0.1-37.9c2.1-7.2,0.7-14.6,0.9-21.8c0.5-12.7-2.3-25.9,6-37.4c-1.1-13.9,5.6-25.4,11.2-37.4
		c1.7-3.7,2.4-8,2.6-12.2c0.7-12.8,7-23.1,13.6-33.4c3.9-6.2,7.5-12.4,8.8-19.8c1.3-7.4,6-13.5,11.1-18.5c4-3.8,6.6-8.1,8.4-12.9
		c2.3-6,5.6-11.4,10.3-15.5c6.7-5.9,11.2-13.2,16.1-20.3c7.4-10.8,16.9-19.3,28.3-25.7c2.7-1.5,5.6-3,7.6-5.4
		c8.7-10.6,20.6-16.3,32.6-22.1c3.4-1.6,7-3.2,9.1-6.6c1.1-1.8,2.8-3.3,4.8-3.8c12.9-3,18.2-14.3,24.3-23.9
		c17-26.5,39.9-47.4,63.2-67.8c14.1-12.3,31-21.1,47.5-30.3c25.3-14,52.7-20.7,80.7-26.5c28.4-5.9,56.9-6,85.3-3.8
		c25.5,2,51,5.9,75.2,16.2c16.5,7,32.4,14.2,46.5,25.2c3.8,3,8.2,5.3,12.4,7.8c22.2,13.4,38.1,33.5,55.5,52
		c8.6,9.1,16.1,19.2,24.1,28.8c7.4,8.9,12.2,19.3,17.2,29.7c8.4,17.4,14.4,35.6,19,54c5.1,20.4,12.2,40.7,10.7,62.3
		c-0.5,7.5,0.1,7.9,7.9,9.5c5.8,1.2,11.6,1.9,17.4,3.2c4.7,1.1,9.3,2.2,13,5.9c4.7,4.6,7,12.1,4.9,18c-1.2,3.4-3.9,4.8-7.1,5.2
		c-3.6,0.4-4,2.2-4,5.7c-5.5,54.4-10.3,68.9-20.2,81.2c-7.9,9.8-8.1,19.9-5.9,31.3c3,15.9,2.3,31.9,1.4,48c-0.4,7-0.7,7.1,6.1,6.9
		c28.2-0.7,56.5-1.5,84.7-2.2c53-1.3,106-3.2,159-3.7c16.6-0.2,33.2,3.3,49.9,5.3c20.4,2.5,40.8,5.3,61.2,7.7c19,2.3,19,2.1,19,20.8
		c0,138.8-0.1,277.6-0.1,416.4c0,12.2,0,12.2,11.8,13.2c14.6,1.3,29.2,2.6,43.8,3.7c11.9,0.9,15.2,4.3,14.7,16.3
		c-0.4,12.5-1.2,25.1-1.8,37.6c-0.9,18.8-1.8,37.6-2.9,56.4c-0.7,11-4,14.6-15.1,16c-36.3,4.7-72.6,9.2-108.9,13.8
		c-7.4,0.9-14.3,1.4-20.5,7.6c-5.4,5.4-13.9,5.6-21.8,4.4c-47.4-7.8-94.9-15.6-142.3-23.5c-5.9-1-10.7-0.4-16.6,2.5
		c-12.7,6.2-83.6,39.9-181.8-0.8c-6.4-1.7-12.5-4.1-18.2-7.6C897.1,1068.7,884,1062.1,870.2,1056.1z"/>
	<path class="st0" d="M920,435.7c3.5,0.1,7,0.7,10.5,1c13.1,1.2,25.6-0.6,37.8-5.4c11.1-4.3,11.3-4.2,11.9,8.2
		c0.4,8.3,0.6,16.7,0.3,25c-0.4,9-0.1,18.1-0.2,27.1c-0.1,8.1,2.4,15.1,6.6,21.5c4.3,6.7,9,13.3,14,19.5
		c21.4,26.5,31.8,57.4,37.6,90.4c-2.5,22.6,1.3,45.9-9.6,67.5c-4.6,9.2-7.2,19.6-12.4,28.6c-4.5,7.7-10.2,14-18.9,17
		c-18.9,4.8-38,2.8-57,1.5c-38.4-2.6-63.6-27.1-87.2-53.8c-7.6-8.6-10-19.7-12.4-30.7c-4.2-19.8-4.5-39.8-5.1-59.9
		c11.9-19.1,28.6-27.1,48.7-23.4c14.9,2.7,23.4,15.7,20,30.7c-3.1,13.8-10.8,20.1-24.6,20.1c-1.9-1.8-2.2-4.2-2.6-6.6
		c-2.9-20.2-5.4-21.8-24.5-16.1c-10.4,22.8,2.8,33.1,18.1,35c8.2,1,12.5,4.6,17.1,11.3c8.7,12.8,21.5,20.8,37.3,22.2
		c18.5,1.6,35.8-3.3,52.4-11.3c14.8-7,22.6-19.3,25.6-34.8c3.8-19.9,0.6-38.8-9.7-56.4c-0.5-0.8-1.4-1.3-2.2-1.9
		c-0.2-0.1-0.7,0.1-1.1,0.1c-1.6,2.9,0.8,5.2,1.3,7.8c4,20.9,4.2,41.5-5.7,61.1c-1.7,3.5-3.7,6.9-6.9,9.1
		c-20.2,14.2-48.7,21-71.5,5.9c-2.3-1.5-4.7-2.9-6.5-5.2c-4.4-5.8-4-9,0.8-13.4c12.8-11.6,15.6-26.9,13.7-43.1
		c-0.9-7.9-6.2-13.9-12.9-18.2c-5.9-3.8-12.3-6.5-18.9-8.9c-3.8-1.4-9.6-2.9-4.2-9.1c0.4-0.5,0.6-1.7,0.4-2
		c-6.1-5.5,0-13.7-4.5-19.5c-2.2-2.8-0.8-4.2,1.5-5.7c4-2.6,8.9-4.2,9.8-10.1c0.7-5-0.3-9.4-2.3-14.1c-4.8-11.8-20.8-16.8-29.7-13.3
		c-2.9,1.2-5.3,2.4-8.8,1.5c-7.6-1.9-13.6,1.7-18.5,7.2c-3.9,4.5-6.8,9.6-8.3,15.5c-2.9,10.8,0.7,16.7,11.6,18.5
		c1.4,0.2,2.8,0.2,4.2,0.5c4.7,1.1,6.3,4.3,4.8,8.6c-1.6,4.3-2.4,7.9,2.4,10.8c1.1,0.7,1.3,2.3,0.8,3.8c-0.4,1-0.4,2-0.8,3
		c-1.4,4.2,5.3,7.5,1.6,11.6c-2.8,3.1-5.8,5.9-8.5,9.1c-16.6,20-20.3,43.6-19.7,68.6c0.4,14.4,4,28.1,8,41.8c0.7,2.3,1.9,4.5,3,6.7
		c11.8,24.1,30.4,41.3,54.3,52.9c14.1,6.9,28.4,13.3,44,16c6.9,1.2,13.9,1.5,20.8,1.4c9.6-0.1,9.3-0.4,9.2,8.9
		c-0.2,19.9,2.4,39.6,4.5,59.3c2.5,23.4,10.5,45.3,19.8,66.8c7.9,18.3,21,32.7,35.6,45.8c4.1,3.7,7.3,6.2,3.6,12.8
		c-2.4,4.2-0.3,10.1,1.1,15.3c1.1,3.9,3,7.8,2.8,13.2c-19-12.6-36.2-25-48.8-43.9c-14.1-21.3-24.2-44.6-37.3-66.3
		c-1.1-1.8-2.1-3.7-2.5-5.7c-3-15.4-11.1-29.2-14.3-44.6c-0.2-1-0.3-2-2.6-2.4c-1.4,6.4,0.7,12.7,1.7,18.6
		c3.4,19.2,8.2,37.8,17.8,55.3c6.8,12.5,12.2,25.7,18.5,38.6c9.3,19.1,22.8,33.9,40.1,45.7c8.9,6.1,17.8,12.2,27.2,17.6
		c4.6,2.7,7.2,5.9,8.7,10.9c5.5,19.1,11.2,38.1,16.9,57.2c-1.2,6.7-6.7,5.1-10.6,4.6c-45.8-5.2-90.2-15.3-130.9-38.3
		c-7-3.9-14.3-7.2-21.6-10.3c-6.1-2.6-12-5.7-14.8-12.4c-4.6-9.7-9.6-19.2-16.6-27.5c-8.9-10.7-20.4-16.4-33.8-18.8
		c-10.6-2.5-15.9-11.7-23.3-18.4l0,0c-1.3-2.2-2.2-4.6-4.4-6.2c-5.2-17.9-14.4-34.7-14.4-54c0-17.4-1.6-34.8,1.6-52.1
		c0.6-3.2,1.1-6.7-1-10.3c-9.8,27.3-18.8,91.9,7.8,144.7c-10.3,2.8-18.8,8.5-26.5,15.8c-8.8,8.4-13.1,18.9-14.8,30.4
		c-2.8,19,10.5,33.8,31.6,36.2c7.1,0.8,13.8-0.1,19.9-4.3c2.3-1.6,4.8-2.8,7.3-4.1c14.8-7.6,15.5-20.9,1.8-31
		c-3,1.4-6.1,0.2-9.2,0.6c-6.5,0.8-12.7,2.8-14.9,9.4c-3.2,9.3-8.5,7.6-14.1,3.5c-5.9-4.4-12.8-8.7-10.4-18.1
		c8.2-20.5,24.3-29.1,45.4-29.9c5.5-0.2,11-0.4,16.6,0.5c22.8,3.8,35.4,24.2,38.2,43.8c0.4,2.7,0.5,5.5,0.7,8.3
		c2.9,29.3-15,54-48.5,62.6c-26.6,6.8-53.8,5.3-80.5-1.5c-22.5-5.7-43.3-14.6-61.8-29.2c-9.2-7.3-17.7-14.5-22.4-25.5
		c-6.4-15.1-17.6-27.6-23.1-43.1c-2.3-6.4-6.1-12.7-3.1-20c2.1-2.8,4.2-5.6,6.4-8.3c8-9.7,13.2-20.3,11.4-33.5
		c-0.6-4.2,0.4-8.2,2.6-12.1c3.5-6.5,3.8-13.8,1.3-20.3c-2.2-5.8-2.6-11.4-2.6-17.3c0-4.9-0.6-9.7-1.2-14.5c-0.7-6.3-4-8.5-9.6-8.6
		c-5.2-0.1-10.4-0.3-15.7-0.3c-3.5,0-4.7-1.4-5.1-4.9c-1.1-10-2.7-20-2-30.1c0.8-11.2-2-22-2.3-33.2c-2.6,5.7-3.2,11.7-3.2,17.7
		c0,14.6-0.3,29.3,0,43.9c0.1,4.7-1.2,7.2-5.9,7.8c-14.4,1.9-20.2,10.7-19.4,24.6c0.3,4.8-2,6.1-6.3,5.5c-16.6-2.4-33.4-1.3-50.1-2
		c-5.2-0.2-7.9-1.8-9.5-7.3c-3-10.7-11.1-16.7-21.9-18.2c-5.5-0.7-7.1-3.3-7.2-8.1c-0.2-12.2,1.3-24.2,4.5-36
		c5.7-20.5,10.3-41.2,12.1-62.5c0.5-5.6,1.2-11.2,2.9-16.4c4.6-14,6.1-28.6,7.9-43.1c0.8-6.4,2.5-10.9,9-13.7
		c6-2.6,11.4-6.7,16.9-10.4c12.2-8.2,21.3-19,26.1-33.1c1.8-5.1,4.7-8.9,8.9-12.5c14.6-12.3,15.8-28.6,3.7-43.2
		c-1.6-1.9-3.1-3.7-3.8-6.1c-3.3-11.4-9.1-21.8-14.4-32.4c-1.2-2.5-2.9-4.9-3.7-7.5c-7.2-21.6-23.3-33.9-43.2-42.5
		c-4.5-1.9-9.2-3.2-13.8-4.7c-6-0.6-8.8-3.9-10-9.8c-1.9-9.6-1.9-19.4-2.9-29.1c-3.7-35.7-3.9-71.6-2.2-107.4
		c1-19.7,6-39.2,8.2-58.9c2.6-24.2,3-48.6,8-72.5c5.4-25.6,10.5-51.5,22.2-74.8c11.3-22.4,29.1-40.5,48.9-56.4
		c8.7-7,18.1-12.9,27.4-19.1c16.9-3.9,33.7,1,50.5,1.5c6.8,0.2,13.8,0.5,20.7,1.4c4.6,0.6,7.3-1.1,4.4-5.7
		c-4.2-6.8-7.1-14.3-11.7-20.7c-6.3-8.7-16.5-9.1-26.2-10.2c-4.2-0.5-10.7,1.8-12.4-5.3c18-5.6,39.2-9.6,58.4-10.7
		c14.2-0.3,30.9-1.2,46.3,0.1c0,0,3.9,1.4,4.3,1.9C738,31.5,754.5,30.5,775,35.2c0.6-6.8-11.6-11.7-8.2-18.9
		c20.6,5.4,41.8,14.6,60.7,23.1c5,2.3,14.5,7.4,18.4,11.4c-4,1.5-10.3,1.3-8.1,6.4c8.1,19,26.3,24.1,42,33.3c3-2.2,1.2-6.9,4.4-8.7
		c14.6,12,23.3,28.4,36,42.2c28.1,30.5,40.6,68.6,51,107.4c3.7,13.7,3.2,28.3,3.5,42.6c0.1,4.5-1.7,6.5-6.2,5.7
		c-21.8-3.9-43.8-1.6-65.7-2.2c-14.2-0.4-27.8,1.4-40.8,7c-3.5,1.5-6,2-6.8-2.6c-1.1-6.2-6.5-8.9-11.1-9.9
		c-10.1-2.2-20.5-4.4-30.9-0.5c-4,1.5-8.2,3.1-10.2,6.9c-3.6,7-9.3,7.3-15.8,6.5c-16.9-2.1-33.9-4.7-51-3.5
		c-26.7,1.7-53.6,3.4-79.4,11.3c-13.2,4.1-26.6,8-39.5,13.2c-6.7,2.7-10.3,6.4-9.4,13.7c-9.6,13.2-9.6,13.2,1.9,26.5
		c1.7,1.9,2.4,4.2,3.1,6.5c5.8,19.8,14.1,38.4,24,56.4c14.7,26.8,37.6,40,68,40.2c12.6,0.1,25.6,1.8,36.6-6.9
		c28.6-9.6,45-30.7,55.5-57.8c5.6-14.4,13.2-53.4,12.7-55.9c6.8-3.2,13.4,3.5,20.6,3.2c6.8-0.2,8.2,4.9,8.6,10.6
		c1.5,18.8,5.9,36.6,13.2,54.3c8.7,21.1,28.6,37.3,62,39C916,435.7,918,434.6,920,435.7z"/>
	<path class="st1" d="M1271.4,956c-4.7-7.8-8.7-12.9-16.2-13.4c-2.7-0.1-3.2-2.2-3.2-4.5c0-3.1-0.1-6.3-0.1-9.4
		c-0.4-135.6-0.8-271.3-1.2-406.9c0-5.9-0.3-11.8-0.5-17.8c-0.2-4.4,1.7-6.3,6.3-5.7c13.8,1.8,27.7,3.2,41.5,5
		c19.4,2.4,38.7,5.2,58.1,7.4c5.8,0.6,7.6,2.9,7.6,8.5c-0.2,40.8-0.1,81.6-0.2,122.4c-0.1,50.2-0.3,100.4-0.4,150.6
		c-0.1,47.1-0.1,94.1-0.1,141.2c0,2.4-0.2,4.9,0,7.3c0.4,5.2-2.1,6.7-6.9,6.2c-14.6-1.3-29.2-2.2-43.8-3.5c-9-0.8-18-1.1-27.1-0.8
		C1277.3,942.8,1272.7,945.9,1271.4,956z"/>
	<path class="st2" d="M968.3,782.2c3.4-2,6.9-1,10.3-0.9c36.6,0.8,73.2,1.4,109.8,2.7c47.4,1.6,94.7,3.2,142.1,4
		c9.5,0.1,9.7,0.2,9.7,10.2c0.2,39.4,0.3,78.8,0.3,118.2c0,8.6-0.1,8.4-9.4,7.9c-18.8-1-37.6-1.8-56.4-2.8
		c-43.1-2.2-86.3-4.2-129.4-6.7c-10.8-0.6-21.6-1.6-32.3-1.6c-5.2,0-8.5-2.4-11.3-6.1c-14.5-19.3-22.5-41.2-27.1-64.8
		c-3.7-18.9-5.7-37.8-6.5-56.9C968.1,784.2,968.3,783.2,968.3,782.2z"/>
	<path class="st3" d="M96.8,842.1c25.4,2.4,50.9,1,76.2,2.6c20.5,1.3,41.1,0.8,61.6,1.8c11.8,0.6,23.6,2,35.4,1.6
		c4.6-0.2,5.6,2.2,6.4,6.2c1.1,5.2-2.8,4.8-5.4,5.7c-13,4.6-20.5,13.9-22.6,27.3c-2.1,13.4,2.8,24.4,12.8,33.5
		c3.9,3.5,8.4,2.7,12.9,2.9c7.4,0.3,7.4,0.3,7.9,7.6c0.2,2.8,0.1,5.6,0.3,8.4c1.1,12.8-0.5,24.1-10.3,34.4
		c-11.2,11.7-11.5,27.9-12.8,43.1c-0.6,7.3-0.1,14.6,0.1,22c0.1,4.6-1.6,6-6.4,5c-36.1-7.4-72.6-12.3-109-18
		c-17.5-2.8-35-5.6-52.5-8.4c-7-1.1-7.8-2.2-8.2-9.4c-1.6-25-1.1-50.2-2.4-75.2c-1.3-23.3-1.2-46.6-1.9-70c-0.1-4.5-1.2-9-1.4-13.5
		c-0.2-6.9,0.2-7.2,6.8-7.4C88.5,841.9,92.6,842.1,96.8,842.1z"/>
	<path class="st4" d="M592.2,59.4c-4.1,7.1-12.1,9.1-18.1,13.6c-17.5,13-32,28.4-45.6,45.3c-7.6,9.4-13.8,19.3-17.2,30.4
		c-3.2,10.5-5.8,21.3-8.9,32c-8.3,29.1-12.5,58.7-13.3,89c-0.3,11.7-2.8,23.4-4.4,35c-2.7,19.2-6.9,38.2-5.8,57.8
		c0.7,12.1,0.2,24.4,0.2,36.5c0,18.4,1.4,36.7,3.7,54.9c1,7.5,0.4,15.1,1.9,22.8c1,4.8,3.2,7.1,6.8,9.2c-6.9-0.6-13.9-0.7-20.7-2
		c-17.6-3.6-33.8,0.5-49.4,8.2c-1.5,0.7-2.9,2-4.8,1.3c-2.2-25.2-8.7-49.7-12.1-74.8c-2.5-18.4-3.1-36.7-1.6-55.1
		c1.1-14.2,1.8-28.4,2.5-42.6c0.2-4.9,0.4-9.6,1.6-14.5c3.4-12.8,1.8-26.1,2.9-39.2c1.8-21,5.3-41.1,15.3-60
		c6.6-12.6,10-26.5,16.7-39.2c10.1-19.2,23.9-35.7,36.3-53.2c18.2-25.6,42.8-44.3,67.8-62.5c1.1-0.8,7.1-4.8,8.4-5.3
		c6.4,4.9,9.2,9,16.9,9.2C578.4,56.4,585.9,54,592.2,59.4z"/>
	<path class="st5" d="M997.8,502.9c13.2,0,24.6,0.5,36.1-0.1c34.4-1.7,69-0.7,103.3-2.6c26.8-1.5,53.6-0.7,80.3-1.5
		c3.9-0.1,7.5-1,11.3-1.7c8.1-1.5,9.9,0,9.9,8.4c0.1,17.4,0,34.9,0,52.3c0,21.6,0,43.2,0,64.9c0,10.2-1.7,11.7-11.7,9.2
		c-4.5-1.1-9-1.2-13.5-1.2c-48.1,0-96.3,0-144.4-0.1c-3.5,0-7.2,0.5-10.4-0.5c-11.4-3.5-10-0.4-10.6-12.6
		c-0.9-16.8-4.6-32.9-11.7-48.2c-8.3-17.6-19.2-33.8-27.8-51.3C1006.3,512.9,1000.6,510.4,997.8,502.9z"/>
	<path class="st2" d="M1039.4,703.3c5,13.3,15.1,14.3,26.1,13.2c7.9-0.8,13.9-5.7,15.5-13.4c1.5-7.2,0.2-13.7-6.1-18.7
		c-5.2-4.1-10.5-6.6-17.3-5.7c-3.4,0.4-6.8,0.5-10.6,0.7c1.4-11.2,1.9-21.9,1.5-32.6c-0.1-4.5,1.8-6.3,6.2-6
		c4.9,0.4,9.8,0.4,14.6,0.7c16.3,1.2,32.7,1.1,49.1,0.3c37.6-1.7,75.3,1.4,112.9,1.6c7.7,0,7.8,0.3,7.8,8.5
		c0.1,38.7,0.2,77.4,0.2,116.1c0,8.7-0.2,9.3-8.5,8.7c-31.3-2.2-62.7-0.8-94-3c-9.7-0.7-19.5-0.4-29.3-0.6
		c-36.2-0.5-72.4-2.7-108.7-2.5c-8.7,0-17.4-0.9-26.1-1.5c-2.3-0.1-5.2,0.4-5.6-3.1c-0.3-2.7,1-4.7,3.2-6.1c0.9-0.6,1.9-1.1,2.9-1.2
		c8.9-0.8,16.5-5,24.7-8c15.3-5.7,25.8-15.9,32.4-30.6C1032.7,714.7,1035.9,709.7,1039.4,703.3z"/>
	<path class="st0" d="M429,522.1c6.6-0.9,13.1-1.6,19.8-1.2c13.5,0.8,25.7,4.8,36.6,13.2c11.1,8.6,20.9,18.3,29.4,29.4
		c2.2,2.8,3.1,6.2,4.5,9.3c1.5,3.4,1.1,5.7-1.7,8.2c-7.9,6.9-9.4,15.7-7.3,25.5c0.5,2.7,2.1,5,1,8.1c-12,32.1-15.5,66.1-21.3,99.6
		c-4,23-6.3,46.3-11.5,68.9c-4.4,19.3-6.8,39.1-11.9,58.2c-1.8,6.8-1.2,13.9-3.9,20.5c-6.2,14.9-2.3,29.4,1.9,43.9
		c1.1,3.7,3.6,6.7,5.9,9.8c-3.4,6.5-7.8,2-11.3,0.7c-7.3-2.8-12.1-9.2-17.5-14.6c-32.9-32.7-45-72-39.8-117.9
		c2.5-21.7,4.3-43.6,5.2-65.5c1.3-34.1,9.2-66.7,19.9-98.8c4.4-13.2,9.3-26.2,12.7-39.8c5-19.7,5.4-38.6-10-54.6
		C428.8,524.3,428.9,523.1,429,522.1z"/>
	<path class="st0" d="M357.5,1007.1c11.2-6.8,16.1-7.6,29.6-4.9c-4.2-10.4-15.1-15-26.8-11c-12.5,4.3-18.7,14-20.9,26.4
		c-2,11.4,2.6,20.1,11.9,27c10.7,8,22.6,9.3,35.5,9.2c21.7-0.1,35.1-12.6,46.1-29.2c3.1-4.6,5.3-9.8,6.9-15.1
		c14.5-12,26.8-25.9,35.5-42.7c3.2-6.1,5.1-13,10.2-18c2.3-1.6,4.3-3.7,6.8-4.8c7.6-3.3,12.4-8.9,14.8-16.6c1.5-4.7,4.2-6.2,9.2-6
		c17,0.8,34.1,1.2,51.2,1.5c4.4,0.1,6.2,1.5,6.1,6.1c-0.1,9.7-1,19.6,4.8,28.4c1.7,2.6-0.2,4.7-1.1,6.8c-6.2,16-15,30.6-26.3,43.5
		c-9.2,10.4-18.6,20.6-28,30.8c-5.5,3.9-11.8,6-18.1,8.1c-14.3,4.6-28.3,9.9-42.2,15.4c-33.2,13-67.8,16.1-102.7,10.7
		c-26.1-4-44.6-20.8-54.2-44.2c-9.4-23-1.4-45.1,15.6-62.3c7.7-7.8,2.9-13.1,0.8-19.7c6.8-6,15.5-8.1,23.9-9.5c17.8-3,35.4-2,52,6.1
		c19.8,9.6,34.5,35.7,30.7,57.3c-1.6,9.3-4.1,19.2-11.9,26.1c-10.6,7.4-21.8,5.9-32.6,1.2c-7.6-3.3-14.2-8.6-22-11.7
		C358.4,1014.5,355.1,1012,357.5,1007.1z"/>
	<path class="st3" d="M123.9,620c4.7,0,10.3,0,15.9,0c7.2-0.1,13.8,2,19.7,6c14.2,9.6,27,20.8,37.5,34.4c2.5,3.3,5.7,6.1,8.4,9.3
		c4.5,5.2,4.5,6.5,0.1,11.5c-6,6.8-12,13.6-18.4,20c-36.8,37.1-73.8,74-110.7,111c-5.4,5.4-5.4,5.3-10.3-0.3
		c-8.1-9.1-15.9-18.5-24.4-27.2c-22.3-23.1-28.7-50.7-24.1-81.8c2.1-14.4,6.9-27.5,14.8-39.7c12.9-19.8,31-32.3,53.5-39.1
		C98.1,620.5,110.4,619.2,123.9,620z"/>
	<path class="st2" d="M1035.2,963.7c6.8-0.7,13.7-2,20.6-2.1c25-0.5,50-3.2,75.2-1.4c19,1.3,38.3-0.8,57.4-2.1c15-1,30,0,45-0.7
		c5.9-0.3,6.5,3.8,7.5,8c6.2,28.2,12.5,56.4,18.8,84.7c2.3,10.5,4.7,21.1,7,31.6c1.5,6.8,0.9,7.5-5.6,6.5
		c-13.1-2.1-26.1-4.4-39.2-6.5c-29.9-4.8-59.9-9-89.8-14.3c-21.3-3.8-42.5-7.3-63.8-10.8c-3.9-0.6-7-1.9-8.3-6.5
		c-8.1-27.7-16.4-55.4-24.6-83C1035,966.2,1035.2,965.1,1035.2,963.7z"/>
	<path class="st1" d="M1308.5,954.9c39.2,3.1,77.1,6.1,114.9,9.2c10,0.8,10.2,1.1,9.7,11.3c-1.3,28.5-2.9,57.1-4,85.6
		c-0.2,5.6-2.6,6.8-7.6,7.4c-32.8,3.9-65.6,8.3-98.5,12.2c-6,0.7-13.3,5-17.8,0.4c-3.7-3.8-1.6-11.3-2-17.2
		c-2.4-33.4-4.6-66.7-7-100.1c-0.7-9.5-0.9-9.5,8.4-9C1306.5,954.7,1308.2,954.9,1308.5,954.9z"/>
	<path class="st6" d="M156.6,779.1c1.5-10.1,5.4-19.4,9.2-28.7c1.1-2.6,3.1-4.9,3.6-7.5c2.3-12.6,11.3-20.4,19.8-28.6
		c7.2-7.1,15.2-13.6,21.2-21.6c7.8-10.3,18-11.3,28.9-9.3c7.3,1.3,14.5,2,21.8,1.5c11.2-0.8,22,3.3,33.2,2.3
		c2.2-0.2,4.2,0.6,5.7,2.1c6.4,6.3,14.4,11.8,16.6,21c2.2,9,10.1,11.9,15.7,17.3c5.3,5.1,7.3,14,16.8,14.3c2.2,0.1,3.9,1.8,4.9,3.6
		c2.7,5,6.6,7.9,12.2,8.7c1.9,0.2,3.6,1,3.7,3c0.6,11,4.3,21.9,1.8,33.1c-0.1,0.6-0.9,1.1-1.3,1.6c-0.5-0.5-1.2-0.9-1.4-1.5
		c-5.8-14.2-5.8-15.1-21.2-14c-37.8,2.7-75.8,1.6-113.6,5.4c-22.8,2.3-45.9,0.7-68.9,0.5C162.1,782.2,158.9,781.7,156.6,779.1z"/>
	<path class="st4" d="M429,522.1c18.4,12.3,18,30.9,15.4,49.4c-2.5,17.2-9.8,33.2-15,49.7c-6.5,20.8-12.5,41.6-15.8,63.3
		c-3.4,22-2.8,44.3-6,66.2c-2.1,14.1-1.8,28.3-3.4,42.4c-2.6,22.6,1.7,44.3,10.8,65.9c9.2,21.8,25.3,37,41.4,52.7
		c3.6,3.5,8.6,5.5,14.1,3.9c7.3,6.3,16,6.8,26.8,5c-5.9,8.7-12.5,13.6-20.2,16.5c-10.9,4.2-22.5,4.6-33.9,2.5
		c-8-1.5-15.2-5-20.8-11.2c-4.2-4.7-8.5-9.2-12.7-13.8c-7.4-8-13.1-16.9-15.9-27.7c-5.3-20.2-11.1-40.3-11.8-61.3
		c-0.5-15.9,1.3-32,0.3-47.9c-1.2-18.4,0.3-36.8-0.8-55.2c-0.1-2.4-0.3-4.9,0-7.3c4.6-29.6,4.8-59.5,8.2-89.2
		c2.9-25.9,8-51.4,13.1-77c1.3-6.5,5.4-12,6.4-18.7c0.4-3.1,3.2-4.3,6-5.1C419.6,524,424.1,522.2,429,522.1z"/>
	<path class="st7" d="M998.7,326.2c-1,17.7-2.1,35.3-6.8,52.5c-2.9,10.7-7.7,20.1-14.5,28.5c-8.7,10.7-21.1,14.6-34.3,14.9
		c-11.4,0.2-22.7-2.2-33.7-5.7c-15.5-5-24.5-15.8-31.2-30c-8.2-17.4-9.2-36.2-11-54.7c-0.6-6.3-4.7-12.6-1.4-19.3
		c17.1-5.8,34.8-6.1,52.5-4.8c23.2,1.8,46.4,4.6,69.1,10.3C992.1,319.1,998.4,318.8,998.7,326.2z"/>
	<path class="st7" d="M788.3,329.3c3.3,28.7-5.5,53.9-22.9,76.4c-2.6,3.3-5.3,6.4-9.1,8.4c-5.8,1.7-11.5,2.2-17.5,1
		c-19.8-4-39.8-6.4-59.9-7.5c-3.2-0.2-6.1-1.1-8.8-2.9c-9-9.2-13.3-21.1-17.4-32.7c-3.8-10.8-5.9-22.2-6.2-33.7
		c-0.2-6.1-2.5-13.6,5.5-17.4c28.1-4.2,56.4-5.7,84.8-5.2c13.6,0.3,26.9,2.4,40,5.8C781.6,322.7,786.1,324.4,788.3,329.3z"/>
	<path class="st4" d="M321.9,946.5c1.2,3.3,4.3,4.4,7.1,5.8c3.5,1.7,3.1,3.9,1.6,6.8c-1.5,2.9-3.8,4.9-6,7.1
		c-14.7,14.6-21,32.3-19.1,52.9c0.7,7.4,3.3,14.5,8.1,20c6.4,7.2,13.5,13.9,20.7,20.2c10.7,9.3,24.3,12,37.8,12.7
		c23.9,1.3,47.7-0.8,71.2-6c7.2-1.6,13.8-4.6,20.5-7.4c19.2-8,38.9-14.7,59-20c-15.2,14.2-35.1,33.1-50.8,39.3
		c-96.9,38.4-145.5,10.4-163.4,1.4c-8.3-4.2-15.2-9.3-21.4-16.1c-24.6-26.9-24.3-63.9-0.4-89.5C297.2,962.6,308.7,953.7,321.9,946.5
		z"/>
	<path class="st8" d="M156.6,779.1c24.3,0,48.7,1.3,72.9-0.4c14.4-1,29-0.1,43.3-3.3c5.6-1.2,11.8-0.7,17.7-0.4
		c22.9,1.4,45.6-2.8,68.5-2.2c11,0.3,11,0.1,11.2,10.7c0,2.8,0.1,5.6,0.1,8.3c-7.6,9.3-16.6,14-29.3,15.1c-19.5,1.7-39,0.2-58.3,1.9
		c-22.6,2-45.2,0.7-67.7,2.3c-12.5,0.9-25,1.2-37.5,1.6c-4.4,0.2-8-0.6-11.4-3.8c-3.5-3.3-8-5.5-11.8-8.5c-6.9-5.4-7-6.7-2.7-15
		C152.8,783,153.8,780.3,156.6,779.1z"/>
	<path class="st4" d="M618.8,969c1.2,12,5.1,23,12.2,32.8c7.9,11,13.7,23.3,19.9,35.3c2.6,5.1,6,9.2,10.8,12.4
		c7.5,5,14.6,10.6,21.9,16c12.9,9.5,28.3,13,43.2,17.6c26.1,8,52.9,8.3,79.4,3.4c19.6-3.6,34.1-16.7,46.5-31.7
		c2.1-6.2,3.8-10.3,3.5-16.6c-0.2-4.2,0.7-11.5,0.8-15.7c3.4,14.3,4.6,31.3-4.8,43.8c-14.4,19.1-32.3,32.1-56.6,35.8
		c-16.5,2.5-32.4,8-49.3,8.2c-21.3,0.3-42-2.9-59.8-14.8c-18.1-12.1-35.6-25.3-46-45.7c-5.2-10.3-9.4-20.7-12.1-32
		c-3.1-13.2-7.6-26-11.9-38.9C615,974.7,614.5,971.5,618.8,969z"/>
	<path class="st4" d="M870.6,1007.3c7.5,6.5,16.8,9.6,25.3,14.1c19.6,10.5,39.6,20.1,60.8,27.1c18.1,5.9,36.3,11.7,55.4,13.1
		c7.6,0.6,15,2.5,22.5,3.5c4.7,0.6,9.6,2.4,13.9-1.5c11.3,8.1,25,7.7,37.8,10.5c3,0.6,6.3,0,10,3.2c-9.8,4.2-19.3,8-29.3,8.6
		c-14.2,1-28.5,0.9-42.8,0.8c-8.4,0-16.6-1.3-24.7-3.6c-19.1-5.3-38.2-10.3-57.2-15.9c-20.1-5.9-38.3-16.1-56.2-27
		c-2.1-1.3-3.9-3-6.1-3.9c-3.8-1.5-5.6-3.8-5.1-7.9C875.9,1021,870.3,1014.7,870.6,1007.3z"/>
	<path class="st4" d="M836.8,592.7c3.5,11.8,3.8,23.9,4.6,36c1.4,19.7,3.7,39.8,17.2,55.7c9.5,11.2,21.1,20.1,32.1,29.8
		c18.5,16.5,41,19.3,63.9,20.9c14.6,1,29.2,0.4,43.9,0.5c-9.8,8.1-22,10.8-33.9,11.9c-24,2.1-47.1-2.6-68.7-13.5
		c-9.3-4.7-18.6-9.5-27.6-14.7c-17.2-9.9-26.7-25.5-32.3-43.3c-5.4-16.9-8.6-34.6-6.9-52.5C829.9,612.9,829.8,601.8,836.8,592.7z"/>
	<path class="st3" d="M269.7,636.9c0.5,3.5,1.4,7.3,4.2,9.3c9.4,6.9,10.1,17.6,13.6,28c-7.9,0-15.3,0.9-22.3-0.2
		c-10.1-1.5-20.1-1.6-30.2-1.7c-9.2-0.1-16.8-2.4-22.9-10c-7.6-9.5-15.8-18.5-23.8-27.6c8.9-5.8,18.9-3.5,28.2-2.8
		c13.5,1.1,26.9,1.6,40.4,1.7C261.5,633.6,266,633.6,269.7,636.9z"/>
	<path class="st9" d="M602.3,972.7c-4.1-0.9-5.2-3.9-6.7-6.6c-2.2-3.9-4.5-7.8-6.8-11.7c-2-3.4-3-6.9-3-10.9
		c0.1-20.6-0.1-41.2,0-61.7c0-8.1,0.2-8.1,8.2-8.4c1.4,0,2.8,0,4.2,0c11.6,0,11,0.1,13,11.9c3.7,21.9,1.2,43.8,1.8,65.7
		C613.2,959.9,606.8,966,602.3,972.7z"/>
	<path class="st10" d="M466.8,492.7c20.6-1.7,38.1,5.7,54.1,17.9c5.1,3.9,8,9.4,11.5,14.6c12.3,18.1,19.1,38.4,25.2,59.1
		c1.6,5.5,1.1,11.1-3.6,15.3c-2.7,2.4-5.8,2.6-8.7,0.9c-4.9-2.7-8-7.1-7.5-12.8c0.8-9.9-4.3-18.1-7.4-26.8
		c-2.9-8.1-7.6-15.6-11.3-23.4c-9.5-20.3-27-30-47.3-36.1c-1.7-0.5-3.4-0.8-5.1-1.2C461.6,497.6,462.4,495.1,466.8,492.7z"/>
	<path class="st4" d="M741.3,441.5c-4,6.7-10.8,8.5-17.7,8.9c-10.8,0.5-21.8,1.7-32.3-0.2c-17.1-3-32.8-9.2-44.8-23.7
		c-18.6-22.5-28.4-48.8-36.7-76.1c-0.8-2.7-2.1-3.8-4.5-4.9c-5.3-2.6-9.1-6.5-8.3-13.1c0.8-6.6,3.2-12.1,10.5-13.7
		c2.8,5.8,6.1,11,13,12.5c3.3,0.7,3.1,3.1,3.3,5.6c2.4,28.2,11.5,54.4,26.3,78.2c13,21,34.1,29.8,58.2,31.4
		C719.8,447.1,730.6,444.6,741.3,441.5z"/>
	<path class="st11" d="M372.2,912.9c-19.5,0.9-38.8-2.1-58.2-1.8c-4.6,0.1-6.9-2-8.6-5.9c-4.1-9.2-3.6-18.1,1.3-27
		c2-3.5,4.4-4.7,8.4-4.3c14.8,1.5,29.7,2.7,44.6,4c2.6,0.8,6,1.2,6.2,4.6c0.4,9.9,3.6,18.8,7.5,27.7
		C373.7,911.1,372.8,912.1,372.2,912.9z"/>
	<path class="st10" d="M347.1,538.8c-8.2-2.6-16.5-5-24.6-8.1c-5.1-2-10.4-3.4-16.2-3.5c-6.7,0-9.6-5.6-6-11.2c1.3-2,3.3-3.6,5-5.2
		c6.6-6.3,9.1-14.5,9.9-23.3c0.4-4.7-5-7.4-4.7-13.4c3.3,2,6.4,3.6,9.2,5.6c6.8,4.8,13.6,9.5,21.2,13c4.1,1.9,7.2,5.1,10.2,8.4
		C361.8,513.9,359.9,531.5,347.1,538.8z"/>
	<path class="st4" d="M788.3,329.3c-15.1-8.1-31.8-9.2-48.3-10.3c-24.7-1.6-49.2,0.7-73.7,2.7c-4.9,0.4-9.7,0.9-14.4-1.1
		c14.6-8.4,30.7-12.6,47-16.4c11.9-2.8,24.2-2.5,36.2-3.9c14.3-1.7,28.4,1.8,42.5,4c7.1,1.1,7.5,7.6,9.1,12.6
		C788,320.9,787.9,325.2,788.3,329.3z"/>
	<path class="st10" d="M351.2,438.6c-8.3-4.2-15.9-9.9-24.9-12.8c-6.1-2-9.2-7.3-12.8-11.8c-2.7-3.4-3-8.5,0.5-11.5
		c8.8-7.4,12.4-17.2,14.9-28.2c10.9,4.6,17.9,13.5,26.4,20.3c9.8,10.3,8.3,22.9,6.5,35.3C360.9,435.1,358.2,439.9,351.2,438.6z"/>
	<path class="st12" d="M519.1,912.8c-9.8,0-19.5,0.1-29.3,0c-8.5-0.1-15.2-6.3-16.1-14.7c-0.6-5.8,1.6-8.3,7.6-8.4
		c7.3,0,14.5,1.5,21.7,2.8c10.7,1.8,21.5,1.1,32.3,1.6c10.4,0.5,20.9,1.3,31.3,1.8c5,0.2,8,1.8,7.2,7.4c-0.2,1.7-0.2,3.5,0,5.2
		c0.5,5-1.7,6.9-6.7,6.4c-10.4-0.9-20.8-1.6-31.3-2.2C530.3,912.5,524.7,912.7,519.1,912.8C519.1,912.7,519.1,912.8,519.1,912.8z"/>
	<path class="st10" d="M353.4,488.6c-13-5.6-26.1-10.9-38.7-17.4c-3.5-1.8-8.2-2.4-8.3-7.6c0-5.1-0.4-10.5,3.9-14.5
		c1.8-1.6,3.9-2.9,5.7-4.4c4.1-3.5,7.2-7.6,6.2-15.5c14.1,10.6,26.8,20.3,39.5,29.9c4.8,7.7,3.8,15.7,0.6,23.5
		C360.9,486.2,358.9,490.4,353.4,488.6z"/>
	<path class="st13" d="M998.7,326.2c-0.7-2.1-1.8-3.2-4.3-3.7c-32.4-7.3-65-12.6-98.3-11.6c-10.1,0.3-20.2,1-30.3,1.5
		c2.8-7.5,9.5-10.1,16.2-11.6c25.4-5.6,51-7,76.7-2.2c8.9,1.6,17.7,3.7,26.4,6C996.3,307.4,1000.6,314.7,998.7,326.2z"/>
	<path class="st14" d="M942.4,437c-15.4,3.7-44.3,2.4-63.8-5.9c-8.5-4-15.7-12.9-20.7-20.4c-10-15.2-16.1-32-18.8-50
		c-1-6.5-2.6-12.8-2.4-19.5c0.2-7.3-1-8.6-8.6-7.4c-6.3,0.9-12.9,0.6-19-0.6c0.5-4.8,1.1-7.8,2.4-12.8c9.2,0.6,18,2.5,27.1,1.1
		c5.1-0.8,6.6,2.5,6.9,6.9c0.5,8-0.5,16,1.4,23.9c4.6,19.1,12.6,44.7,24.8,60.1C883.4,427.5,907.7,436.1,942.4,437z"/>
	<path class="st4" d="M485.4,948.8c-6.9,20.9-18.5,38.7-34.1,54.1c-3.4,3.4-7.9,4.2-11.6,6.6c3-19.2,0-37.1-10.9-53.5
		c-0.6-0.9-1.2-1.7-1.7-2.6c-0.8-1.4-2.2-2.9-0.9-4.7c1.3-1.7,3-1.1,4.6-0.5c4.8,2,9.9,3.1,14.9,4.4
		C459.5,956.3,472.4,952.9,485.4,948.8z"/>
	<path class="st15" d="M552.7,48.5C567.3,37.2,582.5,27.3,601,24c11.6-0.8,23.1-1,34.6,0.9c8.6,1.5,13.5,6,13.6,15.1
		c-6.7,6.5-15.9,6.2-24,9c-6.5,2.3-13.4,3.5-19.9,6.1c-14.4-0.5-28.7-1.3-43.1-1.5C558.4,53.5,554.7,52.4,552.7,48.5z"/>
	<path class="st10" d="M355.2,382.1c-5-4.3-10.1-8.3-16.4-10.7c-7.6-2.9-10.6-9.6-12.5-16.8c-0.7-2.8-0.5-5.7,1.7-7.8
		c6.8-6.5,12.2-14.1,15.6-23.1c10.4,5.2,19.9,10.7,26.8,19.8c5.5,11.5,2.1,22.2-3.4,32.5C364.7,380.3,361,383.8,355.2,382.1z"/>
	<path class="st16" d="M562.2,1021.7c11.5-13.5,18.3-29.2,24.1-45.9c6.4,2.9,9.3,11.7,17.9,9.1c1.3-0.4,2,1.5,2.4,2.9
		c2.8,10,5.6,20,8.7,30c1.1,3.5,0.2,4.7-3.4,5.8C595.5,1028.7,579.4,1028.4,562.2,1021.7z"/>
	<path class="st17" d="M552.6,48.2c2.3,1.7,5.4,2.4,8.1,2.5c15.3,0.6,30.6,0,45.9,1.8c14.6-4.3,29.1,1.7,43.9,0.8
		c0.2-5-4.5-8.5-2.4-13.3c-2.3-8.5-7.1-13.1-16.8-13.2c-6.1-0.1-12.3-0.6-18.5-0.9c-4-0.2-8.3,1.2-11.8-1.9c5.2-1.9,10.7-4,16.1-4.6
		c2.5,2.7,5.8,2.1,8.8,1.9c6.3-0.3,12.4,1.4,18.5,2.3c4.9,0.8,10.4,3.3,12.1,7.3c5,11.2,13.9,20.5,17,34.7
		c-10.2-1.7-19.4-1.9-28.5-2.7c-17.6-1.5-35.1-3.6-52.8-3.5c-10.6-0.2-21.2-0.4-31.7-0.5c-5.5-0.1-11.7-1-11.8-8.2
		C549.6,49.9,551.5,48.9,552.6,48.2z"/>
	<path class="st18" d="M351.2,438.6c7.6-1.5,8-7.8,8.8-13.5c1.5-10.6-1.4-20.6-4.8-30.5c8.5,6,17,12,25.5,18c3.6,2.5,6.3,6,6.3,10.3
		c0,13.4,3.6,26.1,6.2,39c0.2,1-0.1,2-0.2,4.1C378.7,456.6,364.9,447.6,351.2,438.6z"/>
	<path class="st19" d="M1020.7,925.6c12.5,1,24.7-1.5,36.7,1.9c2.6,0.7,5.5,0.5,8.3,0.3c15.3-0.9,30.4,1.6,47.2,2.7
		c-8.9,8.3-14.5,18.8-28.4,16.2c-3.4-0.6-7-0.5-10.4,0c-17.2,2.3-32-4.2-46.4-12.5c-1.5-0.9-2.9-1.9-4.2-3
		C1022.4,930.1,1020.9,929,1020.7,925.6z"/>
	<path class="st20" d="M296,910.7c-8.1,1.4-14.9,2.4-21.9,1.9c-9.1-0.7-13.9-5.3-14.9-14.3c-0.3-2.7-0.2-5.5-0.1-8.3
		c0.6-13.6,6.7-19.4,20.3-19.2c5.2,0.1,10.4,0.4,15.6,0.7c3.9,0.2,4.8,2,2.9,5.4C291.9,887.6,291.2,898.6,296,910.7z"/>
	<path class="st21" d="M197.6,833.1c1.6-0.8,2.1-1.4,2.7-1.3c20.2,0.9,40.2-2.2,60.4-2.5c20.5-0.3,40.9-1.8,61.3-3.6
		c14.2-1.2,28.5-0.4,42.8-0.4c1.4,0,2.8,0.2,4.1,0.7c2.1,0.9,3.3,2.6,2.9,5c-0.4,2.1-2.1,2.7-3.9,2.6c-8.7-0.2-17.3,1.5-25.9,2
		c-15.6,1.1-31.2,0.6-46.8,1.9c-23.6,1.9-47.1-2.3-70.8-2.3C215.9,835.1,207.1,834.2,197.6,833.1z"/>
	<path class="st22" d="M347.1,538.8c11-11.5,8.9-24.5,4.1-37.7c5.3-0.1,8.6,3.8,12.6,6.2c7.5,4.4,14.5,9.5,21.5,14.6
		c6.9,5,7.7,7.1,4.6,15c-2.3,5.8-2.1,12.3-6,18.5C372.8,546.9,359.3,544.3,347.1,538.8z"/>
	<path class="st23" d="M670.1,404.6c22.8,0.3,45.4,3.1,67.8,7c6.1,1,12.2,1.7,18.4,2.5c-26.6,24.2-58.3,16.2-79.7-1.7
		C674,410.2,671.1,408.2,670.1,404.6z"/>
	<path class="st10" d="M370.2,329.4c-9.3-2.9-17.6-7.9-25-13.9c-7.6-6.1-7.1-16.7,0.7-22.8c4.4-3.5,8.5-7.2,10.7-13.2
		c10.9,6.7,17.7,16.5,24.3,26.5C383.4,317.9,381.1,323.1,370.2,329.4z"/>
	<path class="st22" d="M353.4,488.6c6.6-2.9,7.8-9.1,8.5-15.2c0.5-4.7-0.1-9.5-0.2-14.3c14.7,8.2,27.7,18.2,36.6,32.9
		c2.7,4.5,3.5,9.1,2.1,13.9c-2.1,7.3-5.4,8.7-11.7,4.2C377.4,502.1,364.8,496.3,353.4,488.6z"/>
	<path class="st22" d="M297.3,495.1c-3.9,7.7-9.1,14.7-11.1,23.4c-0.6,2.7-3.7,4.9-5.8,7.2c-5.7,6.4-11.4,12.7-17.9,19.9
		c-4.1-13.3-4.9-25.2,1-37c5.7-11.4,11-22.9,18.3-33.4C287.9,481.2,291.8,488.8,297.3,495.1z"/>
	<path class="st13" d="M357.5,1007.1c0.1,4.2,2.6,5.9,6.4,6.8c5.1,1.2,9.7,3.5,13.7,6.8c10.9,8.8,23.1,9.6,36,6.1
		c1-0.3,2-0.2,3.1-0.3c-9.6,19.4-42.7,23-59.3,8.8C347.4,1026.7,347.4,1016.7,357.5,1007.1z"/>
	<path class="st24" d="M343,578.6c-9.1-0.3-17.2-5.8-26.5-5.1c-2.2,0.2-2.9-1.8-2.6-3.6c0.3-1.7,0.7-3.5,1.6-4.9
		c6.7-10.8,5.9-20.7-3.2-30.3c13.8,5.6,28.7,7.7,41.1,16.5C357,561.9,352.9,572.9,343,578.6z"/>
	<path class="st25" d="M269.7,636.9c-13.6,0-27.4,1.3-40.8-0.5c-13.6-1.8-27.1-1.1-40.6-1.7c-5.4-3.3-9.1-8.2-14.1-13.2
		c5.7-2.2,10.3,0.1,14.8,0.2c23.2,0.9,46.3,2,69.5,2.9C269.7,625,269.7,625,269.7,636.9z"/>
	<path class="st22" d="M294.5,442c-4.9,6.3-10,12.3-15.8,17.7c-5.7,5.4-10.4,11.9-15.6,21c-2.6-11-3.2-19.5-0.5-28.1
		c1.1-3.6,2.6-7.3,4.8-10.3c8.1-11,13.7-23.8,23.3-33.7C294.4,419.5,297.6,430.4,294.5,442z"/>
	<path class="st26" d="M326.3,848.1c5.9-0.3,10.1-1.7,14.2-1.9c7.9-0.4,15.9,0.4,23.8-1.6c7.1-1.7,8.7,0,10.2,7.6
		c0.7,3.4,1.5,6.7,2.2,10.1c1.3,6.7,1.2,6.5-5.8,6.9c-9.8,0.5-19.5-0.8-28.8-3.1c-6.1-1.5-9.9-0.6-18.2-2.9
		C325.5,858.3,322.5,852.4,326.3,848.1z"/>
	<path class="st27" d="M380.9,291.4c-6.6-6.6-13.3-13.1-19.6-19.9c-5.1-5.4-4.6-6.8,2.4-9.4c4.6-1.7,7.8-4.6,8.2-9.7
		c0.3-4.5,3.3-8.3,3.1-13.3c10.3,9.8,21.3,19,18.6,35.4C393.1,287.5,390.3,291.1,380.9,291.4z"/>
	<path class="st28" d="M355.2,382.1c8.1-1.5,10.6-8,12.9-14.7c2.6-7.8,1.2-15.9,2.3-23.8c14.4,9.1,21.1,21.6,17.1,38.8
		c-0.4,1.7-0.2,3.5-0.2,5.2c-0.3,9.1-3.7,11.3-12.3,7.6C367.7,392,360.9,387.9,355.2,382.1z"/>
	<path class="st16" d="M756.3,1004.1c2.1,9.6,7.1,14.7,20.1,19.8c0.4-7.3,3.4-12.6,10.6-15.4c6.2-2.4,11.9-3.3,17.8,0.2
		c0.4,14.7-9.9,25.2-24.4,27.6c-11.9,1.9-18-0.4-22.3-11.5C755.8,1018.3,752.4,1011.4,756.3,1004.1z"/>
	<path class="st22" d="M343,578.6c5.9-8.2,10.9-16.7,10.4-27.4c8.2,3.6,16.6,6.9,23.8,12.6c3.9,3.1,6.1,6.2,4.5,11.5
		c-1.5,4.9-1.3,10.3-4.2,16C366.3,586.2,354.6,582.5,343,578.6z"/>
	<path class="st28" d="M854.1,498.3c2.3,2.9,2.3,9.8,8.1,7c5.7-2.8,1.2-7-0.9-10.3c-0.7-1.2-1.6-2.2-1.3-3.7
		c9.2-0.5,18.1,6.6,18.6,15c0.2,3.7-1.5,6-5,6.8c-12.5,2.9-25,6-38,4.5c-7.6-0.9-10-4.3-7.5-11.3c1.7-4.6,2.5-10.5,9-11.5
		C843,494.5,848.4,497.2,854.1,498.3z"/>
	<path class="st22" d="M303.1,377.3c-0.3,0.6-0.4,1.4-0.9,1.8c-14.2,11.9-25.1,26.7-36.7,41.5c-2.4-10.2-0.2-22.4,4.2-29.8
		c7.3-12.3,16.6-22.9,27-32.6C300.9,363.9,303.2,370.2,303.1,377.3z"/>
	<path class="st29" d="M136.6,814.8c-0.4,1.6-1.5,1.8-2.5,1.8c-14.2,0-28.4,0-42.5,0c-0.8-3.4,1.8-4.6,3.4-6.2
		c9-9.2,18.1-18.3,27.4-27.2c2.2-2.1,4.2-7.3,7.9-4.4c3,2.4-1.3,5.4-2.5,8c-0.7,1.6-1.8,3.1-2.2,4.7c-1.3,6.4-1.1,12.3,4.8,16.9
		C132.7,810.3,135.9,811.7,136.6,814.8z"/>
	<path class="st22" d="M326.3,657.7c5.3,14.1,4.5,26.7-9.1,36.1c-18.7-10.7-23.4-32.5-9.5-46.2c4.6,6.5,7.1,15.2,16.9,16.1
		C324.7,662,323.8,659.4,326.3,657.7z"/>
	<path class="st30" d="M293.8,950c-1.4-8.7-1.3-15.5-0.8-22.3c0.2-2.7,1.4-4.6,4.2-5.1c11-2,22-1.6,33.1-0.9c2.2,0.1,4,1.4,4.3,3.8
		c0.3,2-0.9,3.2-2.5,4c-0.9,0.5-1.8,1.1-2.7,1.5C317.3,936,305.8,942,293.8,950z"/>
	<path class="st31" d="M570.5,597.2c0,12.7-2.6,16.5-13.1,19.9c-3.3,1.1-6.7,2.1-10.1,2.7c-13.6,2.5-24.9-5.1-27.9-18.6
		c-0.6-2.8-0.4-5.5,0.2-8.3c0.6-2.7,2.1-4.2,5-4.3c3.6-0.2,3.9,2.5,3.9,4.9c-0.1,8.4,4.7,13.1,12.1,14.8c8.5,1.9,17.1,2.5,24.5-4.2
		C567.3,602.2,566.5,598.6,570.5,597.2z"/>
	<path class="st32" d="M297.5,546.3c4,3.4,1.4,6.6-1,8.7c-7.4,6.7-15.3,12.7-21.4,20.8c-2.5,3.3-7.1,0.8-7.6-4.2
		c-0.8-8.4,0.3-16.7,5.1-23.9c3.6-5.4,8-10.3,12-15.4C288.2,537.7,286.7,547.7,297.5,546.3z"/>
	<path class="st33" d="M372.2,912.9c0.2-2.2-1-3.9-2.2-5.5c-4.4-6-6.9-12.5-6-20.1c0.5-4.1-0.6-7.3-4.3-9.4
		c4.9-0.9,9.3,1.9,14.2,1.9c2.9,0,4.9,2.3,6.3,4.8c0.5,0.9,0.8,1.9,1.2,2.9c3.5,8.1,7.1,16.3,11.1,25.5
		C385,912.9,378.6,912.9,372.2,912.9z"/>
	<path class="st34" d="M543.9,639.1c-8.7,15-15.9,21.3-33.4,28.9c-0.9-7.6-0.3-14.5,5.2-20.3c3.8-4.1,7.3-8.6,9.4-13.7
		c2-4.8,4.9-6.1,9.6-5.7c4.5,0.4,9,0.6,13.5,0.9c0.2,0,0.5,0.4,0.4,0.6c-0.1,0.3-0.4,0.6-0.6,0.9c-2.6,3.3-7,1.4-10.2,3.4
		C539,636.9,542.7,636.5,543.9,639.1z"/>
	<path class="st18" d="M349.3,628.4c6.7,2.8,12.9,6.5,19,10.4c2.4,1.6,4.9,3.1,4.6,6.3c-0.6,7.1-0.3,14.4-2.5,22.4
		c-7.9-3.5-15.9-3.9-23-7.7c2.4-7.1,0.8-14.3,0.6-21.5C347.8,634.9,346.5,631.4,349.3,628.4z"/>
	<path class="st34" d="M317.4,326.8c-2.5,6.8-8.6,10.4-13.4,15c-8.5,8.1-17.5,15.7-26.1,23.3c-1.8-0.4-1.9-1.7-1.5-2.4
		c6.9-11,11-23.6,20.6-33.1c6-6,10.9-13.2,16.4-19.8C318.8,314.6,314.7,321.5,317.4,326.8z"/>
	<path class="st22" d="M307.7,628.1c2.6,2.5,3.8,5.3-0.1,7.4c-6.4,3.5-11,9.2-16.5,13.7c-9.9-8.1-10.8-11.4-6.8-23
		c3-8.9,7.5-16.8,14.6-23c2.9,2.4,1.5,5.4,1.7,8.4C300.9,617.9,300.7,624.7,307.7,628.1z"/>
	<path class="st35" d="M349.3,628.4c2.2,8.4,3.1,17,2.5,25.7c-0.2,2.9-0.6,5.6-4.4,5.7c-0.3-7.6-7.2-10.5-11.3-15.4
		c-3.7-4.5-7.6-8.8-10.8-13.8c-1.7-2.6-1.8-5.1-1.4-7.9c0.7-4.8,2.2-5.7,6.9-3.6C337.2,621.8,343.5,624.5,349.3,628.4z"/>
	<path class="st36" d="M351.2,616.3c-2-0.6-3.9-1.3-5.9-1.8c-3.7-0.9-8.3-0.7-10.6-3.5c-2.3-2.9-0.3-7.3-0.4-11c0-2.9-0.6-5.4-3-7.3
		c-3.4-2.8-6.6-5.7-9.3-9.6c10.6,2.7,21.6,2.7,31.2,7.8C360.6,601.7,359.9,610.2,351.2,616.3z"/>
	<path class="st34" d="M351.2,616.3c6-8,4.1-16.7,2.1-25.4c8,0.4,13.7,6.2,20.6,9c2.7,1.1,2.9,3.5,2.6,6.1c-0.9,6.5-1.7,12.9-2.6,20
		C365.7,623.4,358.5,619.8,351.2,616.3z"/>
	<path class="st37" d="M1253.8,955.8c3.5-0.3,4.3,1.3,4.7,3c9.8,44.4,19.6,88.7,27.4,133.5c-6.4-14.2-8.5-29.4-12-44.3
		c-3.6-15.6-7.1-31.2-10.5-46.9C1260.2,986,1256,971.2,1253.8,955.8z"/>
	<path class="st38" d="M821.6,299.7c-3.8-3.5-5.1-9-9.3-12.3c-3.4-2.7-2.8-5.5,0.9-7.9c5.2-3.3,24.5-2.7,29.4,0.9
		c4.3,3.2,4.9,9.6,0.5,12.4c-3.1,2-7.1,3.4-10.9,3.7C825.5,297.1,825.5,296.6,821.6,299.7z"/>
	<path class="st39" d="M406.7,517.5c18.9-15.2,77.4-18,98.1,17.4c-16.5-8.7-29.2-21.1-47.3-22C440.3,512.1,423.5,512.7,406.7,517.5z
		"/>
	<path class="st13" d="M853.8,597.3c10.6-10.6,21.2-8.4,25.8,5.2c2,5.8,1.1,11.7,1.3,17.5c-4.6,1.1-8.9-0.6-12.8-2.5
		c-5.3-2.6-9.8-6.3-10-13.1C858,601.3,857.8,598.2,853.8,597.3z"/>
	<path class="st40" d="M770.1,17.9c1.9,7.4,9.6,11.4,11.8,18.4c-1.7,2.1-3.5,2-5.1,1.6c-11-3-22.1-5.2-33.3-6.8
		c-13-1.9-19.5-11.9-25.9-21.8c5.1,0.3,5.1,0.3,10.5,1.6c9.5,12.3,23.3,14.5,36.7,16c1.7,1.2,1.4-1.2,1,0.2
		c-4.8-2.3-8.3-5.6-8.1-11.5C762.2,14.5,766.1,16.2,770.1,17.9z"/>
	<path class="st30" d="M328.3,848.2c0,3.1,0,6.2,0.2,9.3c0.2,3.4-1.3,5.2-4.6,5.7c-9.7-0.8-19.3-1.6-29-2.5
		c-5.5-0.5-6.7-2.2-6.6-8.1c0.1-4.9,3.4-4.3,6.5-4.4c9-0.1,18-0.2,27-0.3C326.3,847.9,325.5,847.5,328.3,848.2L328.3,848.2z"/>
	<path class="st41" d="M883.1,81.7c-0.6,4.3,3.6,7.4,3.3,11.5c-2.4,2.1-4.1,0.2-5.8-0.7c-8-4-15.9-8.3-23.8-12.4
		c-7.2-3.7-13.3-8-15.9-16.6c-1.7-5.7-8.3-9.1-9.6-15.4c3.9-3,6.8,1.1,10.1,0.6c4.9,2.1,8.5,6.1,12.7,9.1c-3.8,2.5-5.8,4.8-1.7,9.4
		c5.5,6.2,13.6,8.1,20.1,12.6c2.1,1.4,0.1-4.6,3.5-4.2C879.8,78.9,879.8,78.9,883.1,81.7z"/>
	<path class="st42" d="M304.9,588.6c-0.4,2.5-2.5,3.7-4.3,4c-10.4,1.8-14.6,10.7-20.4,17.6c-1.1,1.3-1.8,2.9-3.5,5.4
		c-4.1-7.4-4.2-14-0.6-20.7c4.3-7.9,9.7-15,16.7-20.8C296,579.8,298.3,586,304.9,588.6z"/>
	<path class="st43" d="M400.6,245.4c-4.1-1.1-5.5-3.7-7.3-5.6c-5.4-5.7-10.7-11.4-2.3-18.8c0.5-0.4,0.6-1.3,0.7-1.9
		c1-4.8,2.8-9,8.7-7.4c4.7,1.2,8.7,11.2,6.2,15.6C403.5,232.7,401.8,238.6,400.6,245.4z"/>
	<path class="st44" d="M368.4,699.7c-8.4-1.8-14-6.5-19.5-10.9c-4.7-3.8-3.8-10.1-3.6-15.6c0.1-2.1,1.9-2.9,3.7-2.1
		c2.2,1,4.3,2.2,6.4,3.5c4.1,2.7,11.2,2.2,12.6,6.4C369.8,686.4,368.4,693,368.4,699.7z"/>
	<path class="st45" d="M1059.3,687.3c7.3,0.7,12.2,6.2,11.7,13.3c-0.4,6-5,9.6-11.6,9c-7.6-0.7-12.2-6-11.6-13.2
		C1048.5,690,1052.7,686.7,1059.3,687.3z"/>
	<path class="st44" d="M351.8,710.1c-4.2,3.9-8.9,4.3-13,5.8c-5.2,1.8-9.3-0.6-12.7-4.7c-3.7-4.4-1-7.6,1.4-11
		c1.8-2.5,3.5-5.1,5.7-8.2c3.3,3.3,6.3,6.4,9.5,9.4C345.6,704,349.8,705.5,351.8,710.1z"/>
	<path class="st46" d="M757.7,15.6c2.5,4.8,8.4,7.4,8.9,14.2c-14.6-3.5-31.7-0.5-38.6-18.9C737.9,12.4,747.8,14,757.7,15.6z"/>
	<path class="st47" d="M370.2,329.4c5.5-6.9,11.7-13.5,10.6-23.4c11.6,9.4,11.6,21.5,7.5,35.1C382.2,337.1,376.2,333.3,370.2,329.4z
		"/>
	<path class="st48" d="M875.9,75.6c-2.9,3.6,2,6.2,1,10.5C866,76.4,848.7,75.4,845,57.8c2.6-2.4,6,3.1,9.1,0.1
		C862,63,869.3,68.9,875.9,75.6z"/>
	<path class="st49" d="M294.5,442c-0.3-11.2-6-21.8-3.8-33.4c1.8-1.6,3.1-3.6,6-4.3c2.7,5,4.5,10.6,8.9,14.6
		c2.1,1.9,1.5,3.8,0.6,6.4C303.9,432.1,298.6,436.6,294.5,442z"/>
	<path class="st50" d="M303.1,377.3c-3.7-5.9-6.9-11.9-6.4-19.2c3.5-5.9,8.9-10.2,13.7-15.6C316.1,356.4,312.1,367.4,303.1,377.3z"
		/>
	<path class="st51" d="M617.3,921.5c0-14.6-0.1-29.2-0.1-43.8c0-2.4,0.1-4.9,0.8-7.2c0.9-2.5,3.3-3.4,5.9-3.2c2.6,0.2,3.7,2,3.6,4.2
		c-0.4,6.6,2,13.1-4.2,19.4c-6.9,6.9-4.9,22.3,1.9,30.6C622.6,923.7,620,923.7,617.3,921.5z"/>
	<path class="st52" d="M325.9,289.3c-13.8,11-23.7,25.8-37.6,36.8c7.6-17.8,21.5-30.8,33.8-45.1C324.8,283.1,325,286.3,325.9,289.3z
		"/>
	<path class="st38" d="M297.3,495.1c-6.1-0.5-7.8-5.8-10.8-9.8c-2.2-3.1-3.5-6.5-4.7-10.1c2.9-4.1,3.2-9.8,8.1-13.1
		c1.7,7.2,4,13.7,9.1,19.2C303.3,485.9,300.2,490.8,297.3,495.1z"/>
	<path class="st53" d="M301.8,818c-39.1,3.2-77.9,2.7-116.6,3.7C193.1,817.9,285.4,815.4,301.8,818z"/>
	<path class="st54" d="M353.5,241c-10.8,5.5-17.5,15.5-25.4,24c-5.8,6.2-11.5,12.4-18.9,17c10.1-19.2,26.2-33.1,42.3-46.9
		C353.5,236.5,354.3,238.4,353.5,241z"/>
	<path class="st55" d="M182,832.8c-4.7,1.9-7.8,1.5-10.8-1c-8.5-7.2-17.1-14.2-25.6-21.3c-1.6-1.4-3.3-2.8-1-5
		c1.2-1.2,2.6-2.8,4.3-1.1C158.9,814.4,171.9,821,182,832.8z"/>
	<path class="st56" d="M325.9,289.3c-4.5-1.2-3.6-5-3.8-8.2c5.7-8.1,11.6-16,20.5-23.6C342.9,272.6,335.7,281.6,325.9,289.3z"/>
	<path class="st57" d="M326.3,657.7c0,2.7,0,5.4,0,8.3c-11.8-0.8-18-6.9-18.7-18.5c2.9-3.6,5.5-6.4,9.1-0.4
		C319.1,651.3,324,653.4,326.3,657.7z"/>
	<path class="st58" d="M159.3,747.2c-4.5,12-8.9,23.9-13.5,35.9c-0.6,1.5-1.8,3-3,4.1c-0.6,0.5-2.1,0.4-2.9,0
		c-0.7-0.4-1.4-1.8-1.2-2.5c0.5-2,1.5-3.9,2.2-5.8c2.4-6.1,5.3-12.1,7.1-18.4C149.8,754.3,153.4,750,159.3,747.2z"/>
	<path class="st59" d="M499.2,881.5c-7.8,1.2-15-1.1-22.4-2.6c-3.2-0.7-4-3.2-3.9-6.4c0.2-3.6,2.7-3.4,5.1-3.6
		C487.7,868,495.7,872.7,499.2,881.5z"/>
	<path class="st60" d="M818.5,307.6c2.6,0.2,5.2,1.5,7.5-1.4c5-6.2,12.3-5.2,15.4,1.8c1.8,4,0.3,6.7-3.4,6.5
		c-7.4-0.3-15.1,2-22.2-2.1C814.5,309.6,814.9,307.7,818.5,307.6z"/>
	<path class="st61" d="M408.7,936c-11.6-5.1-22.5-10.1-36.2-11.3C387.8,916.9,401.4,921.5,408.7,936z"/>
	<path class="st62" d="M617.3,921.5c2.7,0,5.3,0,8,0c1,6.5,0.4,13.1,0.3,19.6c0,2.8-0.2,6.3-3.4,6.7c-4.3,0.4-4.5-4-4.7-6.7
		C617,934.6,617.3,928,617.3,921.5z"/>
	<path class="st63" d="M318.8,350c-3-8.7,3.7-11.8,7.4-15.6c6.6-6.9,7.3-14.6,5.5-23.1c-0.4-2-1.6-3.9-1.7-6
		c-0.3-3.7-0.8-7.6,4.5-10.7c-1.9,8.7-0.5,16.3,2.1,23.8c1.9,5.4-1.4,10.1-4.5,14.3C328,338.3,323.7,343.7,318.8,350z"/>
	<path class="st64" d="M317.4,326.8c-6.2-4.5-3.1-11.2-4-16.9c1.8-3.8,4.4-6.8,7.8-9.3c0.5,0.7,0.8,0.9,0.9,1.2
		c0.4,4.9,3.1,9.3,3.4,13.9C325.8,320.8,317.8,321.4,317.4,326.8z"/>
	<path class="st65" d="M83.5,825.7c21.1-0.9,41.3-1.8,61.4-2.7c0.4,3.1-1.3,3.7-3,3.8c-18.8,0.6-37.6,1.1-56.4,1.6
		C85.2,828.4,84.8,827.4,83.5,825.7z"/>
	<path class="st66" d="M380.9,291.4c9-2.1,10.1-10,12.7-17c2.7,8.7,1.9,17.4,0.9,26.8C387.5,300.8,384.7,295.3,380.9,291.4z"/>
	<path class="st67" d="M353.5,241c-0.7-2-1.4-3.9-2.1-5.9c6.8-4.6,11.2-11.9,18.3-18.1C369.2,229.5,365.8,238.3,353.5,241z"/>
	<path class="st68" d="M361.7,732.7c-10.5,0.9-12.6-0.2-18.3-9.1c3.7-3.6,8.6-3.7,13.3-5.3C358.4,723.2,359.9,727.6,361.7,732.7z"/>
	<path class="st69" d="M299.7,454.8c-1.5-12.6,11.5-17.4,13.9-29.4c3.4,9,3.7,10.2-0.6,13.8C307.7,443.7,303.9,449.2,299.7,454.8z"
		/>
	<path class="st70" d="M324,368.5c-2.8,13.6-10.2,20.9-19.3,27.3c-2.6-4.3-0.6-7,2.2-9.1C313.1,382.3,317.7,376.2,324,368.5z"/>
	<path class="st71" d="M304.9,588.6c-10-0.6-11.7-2.5-12.1-14.4c1-1.3,2.9-3.9,3.4-3.1C299.9,576.5,305.4,581.1,304.9,588.6z"/>
	<path class="st72" d="M466.8,492.7c-2.5,2.5-2.1,5-0.2,7.6c-9.2-1.4-18.2-4.3-27.7-4.4C447.9,492.4,457.3,492.5,466.8,492.7z"/>
	<path class="st73" d="M791.6,937c9.3,4.2,20.3,19.3,28.6,24.8C805.9,960.9,796.5,946.8,791.6,937z"/>
	<path class="st74" d="M297.5,546.3c-6.2,3.7-11.4,1.9-12.7-4.6c-0.6-3-0.2-6.2-0.2-9.3C291.7,534.4,292.9,541.9,297.5,546.3z"/>
	<path class="st75" d="M307.7,628.1c-1.9,3.1-3.9,2.1-5.6-0.1c-2.6-3.4-3.4-7.3-3.4-11.5c0-4.4,0.1-8.8,0.2-13.2c0,0,0,0,0,0
		c1.4-1,2.7-1.1,4,0.3C300.6,612.5,304.1,620.3,307.7,628.1z"/>
	<path class="st76" d="M1120.7,945.5c10-6.3,17.9-5.9,26.4-2.4C1141,946.7,1137.1,947.1,1120.7,945.5z"/>
	<path class="st77" d="M543.9,639.1c-6,0.8-10-1.4-11.5-8c5.5-1.9,10.7,0.2,15.7-0.5C548.1,634.2,545.9,636.5,543.9,639.1z"/>
	<path class="st78" d="M851.3,298.2c0,2-0.1,3,0,4c0.4,3.1-0.4,5.9-3.9,5.7c-4-0.2-3.9-4.2-4.5-7.1c-0.2-1,0.9-2.6,1.9-3.4
		c2-1.7,1.6-6.4,4.9-5.5C853.1,292.8,850.6,296.7,851.3,298.2z"/>
	<path class="st79" d="M351.7,259.3c0.3-9.4,7.7-9.9,13.5-13.4c1.2,5.4,0.9,9.5-4.9,10.1C357.3,256.2,355,258.2,351.7,259.3z"/>
	<path class="st80" d="M323.8,609.4c-0.5,4.4-4.8,4-7.8,7.2c-1.9-9.5,3.7-15.9,5.1-23.2c0.2-1,2.3,0.4,3,1.6
		C324.4,599.9,323.8,604.6,323.8,609.4z"/>
	<path class="st81" d="M371.7,203.2c4-5.7,11-6.4,16.6-9.6c-2.4,8-8.9,11.4-16,14.1C370.9,206.4,371.2,204.8,371.7,203.2z"/>
	<path class="st82" d="M865.3,526c-1.4,6.6-6.6,7-11.3,7.7c-2.3,0.4-3.9-1.2-4.3-3.6c-0.4-2.4,1.5-2.7,3.2-3.1
		C856.9,526.1,860.9,525.3,865.3,526z"/>
	<path class="st83" d="M371.7,203.2c0.2,1.5,0.4,3,0.6,4.5c-7.7,3.1-12.4,10.5-20.5,15C355.7,216,363,209,371.7,203.2z"/>
	<path class="st84" d="M308.1,541.9c7.3,6,7.3,8.3,0.6,17.4C305.8,553.4,308.2,547.9,308.1,541.9z"/>
	<path class="st85" d="M634.5,912.6c-4.3-5.8-3.2-11.4-0.8-17.7C638.5,902.8,638.7,905.9,634.5,912.6z"/>
	<path class="st86" d="M854.1,498.3c-0.7,0.7-1.7,2.1-2.1,1.9c-5-1.7-10.6-1.9-14.9-5.5C846.9,490.9,849,491.4,854.1,498.3z"/>
	<path class="st87" d="M851.3,544.3c5.1-5.2,11-7,16.3-9.8c0.8-0.4,2.1-0.4,2.7,0.7c0.8,1.4,0.4,2.8-0.8,3.6
		C864.4,542.1,858.9,544.7,851.3,544.3z"/>
	<path class="st88" d="M1285.4,994.4c4.2,6.4,4.1,13.1,2.5,21.9C1283.3,1008.1,1284.7,1001.1,1285.4,994.4z"/>
	<path class="st89" d="M854.3,554.4c5.1-4.5,11-6.3,17.1-7.4C867.5,553.8,861.3,555.4,854.3,554.4z"/>
	<path class="st90" d="M140.1,798.2c0,2.9-1.4,4.1-3.8,4.2c-3,0.1-5.6-0.9-6-4.2c-0.3-2.9,1.5-4.5,4.3-4.5
		C137.7,793.7,139.7,795.3,140.1,798.2z"/>
	<path class="st91" d="M627,897.5c3.6,4.8,2.2,9.7,1,14.6C623.7,907.5,625.3,902.5,627,897.5z"/>
	<path class="st92" d="M1282.5,955.8c3.3,5.3,2.7,10.8,1.9,18.2C1280.8,966.9,1279.8,961.5,1282.5,955.8z"/>
	<path class="st93" d="M360.1,813.5c2.4-3.9,6.5-4.9,9.4-8C371.6,815,371.5,815.1,360.1,813.5z"/>
	<path class="st94" d="M394.8,183.8c5.3-6.3,5.3-6.3,12.9-6.8C403.7,182.3,403.7,182.3,394.8,183.8z"/>
	<path class="st95" d="M323.8,609.4c-3.3-4.9-3.4-9.6,0.3-14.4C329.8,600,326.9,604.7,323.8,609.4z"/>
	<path class="st96" d="M818.5,307.6c-2.8,0.6-2.6,2.8-2.7,4.9c-3.8-5.4-4-11.9-6.2-17.9c3.5-0.9,4.7,0.8,4.6,2.9
		C814.2,301.6,816,304.7,818.5,307.6z"/>
	<path class="st97" d="M415.5,193.4c2.1,3.4-0.9,6-1.3,9c-0.2,2,0.4,5.9-3.4,4.8c-2.3-0.7-1.3-3.7-0.8-5.6
		C411,198.4,411.4,194.7,415.5,193.4z"/>
	<path class="st98" d="M1282.7,982.9c-0.3,1.9-1.4,3.1-3.4,3.2c-2.4,0-4.1-1.2-3.9-3.7c0.2-2.1,2-2.7,3.8-2.6
		C1281.2,979.8,1282.5,980.7,1282.7,982.9z"/>
	<path class="st99" d="M378.3,225.3c1.7-5.3,1.6-9.4,6.9-11.9C386.1,219.1,383.4,221.8,378.3,225.3z"/>
	<path class="st100" d="M394.5,203.5c3.2-3.7,5.6-5.3,9.1-6.3C404.5,204,400.8,204.1,394.5,203.5z"/>
	<path class="st101" d="M370.2,739.9c-0.2,1.2-0.2,2.8-2,2.8c-1.4,0-2.8-0.7-2.9-2.3c-0.1-1.4,0.8-2.6,2.3-2.8
		C369.2,737.4,370.1,738.2,370.2,739.9z"/>
	<path class="st22" d="M302.9,603.5c-1.3-0.1-2.7-0.2-4-0.3c0-2.1,1.4-3.4,3.1-3.1C303.4,600.3,303.5,602.1,302.9,603.5z"/>
	<path class="st26" d="M328.3,848.2c-2.1-0.1-4.3-0.2-6.4-0.3"/>
	<path class="st102" d="M862,151.6c0,5,0.3,9.2-0.1,13.4c-0.5,5.3-2.7,6.4-6.7,3.5c-18.9-14.2-40.4-22.8-63-28.9
		c-6.4-1.7-10.1-4.4-10.3-11.9c-0.1-6.5-3.3-12.6-5.5-18.9c-2.8-7.8-0.5-10.5,7.6-9.6c5.5,0.6,10.9,2,16.2,3.7
		c16,5,31,12.2,45.6,20.4c4.5,2.5,8.8,5.1,12.4,9.3C863.5,138.7,861.6,145.7,862,151.6z"/>
	<path class="st103" d="M770.6,187.1c4.8,1.1,11.3,2.2,17.6,4.2c13.2,4.2,26.8,7.6,38,16.6c4.4,3.5,4.9,6.6,2.9,11.6
		c-3.9,9.9-11.9,17.1-17.1,26.1c-2,3.6-6.4,2.5-9.1-0.2c-13.8-14-31.5-19.9-49.7-25c-3.6-1-4.7-2.8-3-6c3.8-7.4,7.5-14.9,10.4-22.7
		C761.9,188.3,764.9,186.4,770.6,187.1z"/>
	<path class="st104" d="M834.9,95.2c-18.8-7.6-36.7-10.1-54.1-14.8c-3.4-0.9-5.6-2.3-7.2-5.3c-3.8-7.5-8.5-14.3-14.7-20
		c-0.7-0.7-1.2-1.7-0.5-3.1c2.2-2,5.1-1.2,7.6-0.6c12.5,3,24.7,7.2,37.4,9.3C822.3,63.9,829.8,76.7,834.9,95.2z"/>
	<path class="st104" d="M745.7,53.1c-8.8,3.6-15.4-1-22.2,0.3c-4.3,0.8-8.9-0.9-13.4-0.8c-17.7,0.2-26.2-13.4-36.7-24.1
		c-2.5-2.5-1-4.4,2.3-4.7c1.4-0.1,2.8-0.3,4.2,0c9.6,2.4,19.3,1.6,29,1.9c6.9,0.2,12.8,2.4,17.6,7.6
		C732.3,39.7,738.5,45.7,745.7,53.1z"/>
	<path class="st105" d="M755.2,122c0,1.7-0.1,3.5,0,5.2c0.2,3.6-1.6,5.4-5,4.8c-9.5-1.5-19.1-3.1-28.5-5c-4.4-0.9-8.6-2.5-13-3.2
		c-8.7-1.4-13.7-14.7-8.8-22.2c1.8-2.7,4.8-3,7.5-2.4c14.1,3.2,28.2,6.4,42.2,10.2C755.4,111,755.3,111.9,755.2,122z"/>
	<path class="st104" d="M700.2,61.6c10.9,2.5,21.8,3.8,33,4.2c9.3,0.3,17.5,12.8,19.6,21c0.7,2.7-1.3,3.9-3.7,3.6
		c-12.4-1.5-24.8-2.8-37.1-4.8c-9.8-1.6-14.2-9.3-17.5-17.5C692.6,63.1,694.6,61.1,700.2,61.6z"/>
	<path class="st104" d="M784.5,156.6c0-1.4-0.1-2.8,0-4.2c0.5-6,3.3-8.8,8.8-6.9c14.1,4.9,27.9,10.6,40.6,18.6
		c3.6,2.2,6.8,5.3,2.6,10.1c-1,1.2-1.3,3.1-1.7,4.8c-2.7,11.3-3.1,11.6-13.2,5.3c-8.9-5.5-18-10.4-27.7-14.2
		C784.6,166.5,784.5,166.6,784.5,156.6z"/>
	<path class="st102" d="M727.2,138.7c10.3,1.9,21.5,4,32.7,6.1c5.6,1.1,8,5.3,9.4,10.1c1.9,7-2.1,12-9.2,10.9
		c-10.9-1.7-21.8-3.9-32.6-6.3c-5.6-1.2-10.3-15-7-19.3C721.9,138.4,724.1,138.8,727.2,138.7z"/>
	<path class="st106" d="M880.1,218.2c-4.6-7.3-8.7-13.3-12.2-19.6c-3.4-6.3-1.9-12.8,0.5-19.2c1.4-3.8,4.2-3.5,6.5-1.2
		c5.5,5.4,10.8,11.8,12.7,18.7C889.4,203.5,885.6,210.9,880.1,218.2z"/>
	<path class="st107" d="M883.4,128.2c-8.7-6.6-18.3-11.2-26.8-17.4c-7.4-5.4-9.4-14-9-23.6c5.7-0.1,9.3,3.2,13.3,5.5
		c3.9,2.2,7.7,4.6,11.6,6.9C882.2,105.3,886.3,115.6,883.4,128.2z"/>
	<path class="st108" d="M813,450.7c-2.7,0.2-5.9,0.9-7.1-2.6c-1.1-3.4,1.5-5,4-6.4c8.3-4.7,17.5-6.5,26.8-7.8
		c1.7-0.2,3.5,0.1,5.2,0.5c2.7,0.7,5.5,1.9,5.3,5.4c-0.1,2.8-2.1,4.3-4.6,4.9C832.8,447,823.1,450.2,813,450.7z"/>
	<path class="st109" d="M895.8,187c-9-5.6-14.1-13.8-19.3-21.3c-4.1-5.9-3.5-14.5-3.7-22.1c-0.1-2.7,2.5-2.9,4.7-2
		C896,149.4,902.9,165.8,895.8,187z"/>
	<path class="st110" d="M1063.7,823.2c12.8-0.1,24.3,10.8,24,22.8c-0.2,9.4-10.5,16.5-24.3,16.5c-9,0-19.1-11.4-19-21.5
		C1044.6,830.7,1052.6,823.3,1063.7,823.2z"/>
	<path class="st111" d="M177.1,902.9c6.6,0,13.2-0.4,19.7,1.3c5.3,1.4,8.6-0.8,10-6.2c1.8-6.7,3.8-13.4,6.1-19.9
		c3.2-9.1,18.2-11.7,24.3-4.3c2.5,3.1,3.7,6.5,2.1,10.7c-4.6,12-9.1,24-11.9,36.6c-1.3,5.8-6.8,8.7-12.9,8.8
		c-7.3,0.1-14.8,0.8-21.9-0.4c-10.1-1.7-20.1-1.2-30.2-1.6c-4.5-0.2-9.1,0-13.6-0.4c-13.3-1.2-18.7-8.9-16.4-22.3
		c1.7-9.6,6.6-18.2,8.2-27.9c1-6.5,12.8-10.3,20.6-7.7c4.7,1.6,6.9,6.6,5.8,13.1c-0.5,3.1-2.1,5.1-4.6,6.5c-2.4,1.3-3.2,3.3-3.8,5.8
		c-1.7,7.3-1.6,7.6,6,7.9C168.7,903,172.9,902.9,177.1,902.9z"/>
	<path class="st110" d="M1110.6,1013.1c0-11.5,4.1-15.7,15.6-16.1c4.6-0.2,9,0.3,13.2,2.4c6.7,3.3,11.4,11.3,10.4,17.7
		c-1.2,7.7-6.4,13-14.4,14.7C1123.4,1034.3,1110.6,1024.8,1110.6,1013.1z"/>
	<path class="st112" d="M900.4,382c-0.1,5.1-3.3,7.9-8.9,7.8c-6.3-0.2-11.6-4.6-11.7-9.6c0-4.9,5.6-9.6,11.7-9.7
		C897.1,370.4,900.5,374.7,900.4,382z"/>
	<path class="st113" d="M764.1,390.9c-0.3,7.1-2.9,9.5-9.5,9.2c-7.7-0.4-10.4-3.1-9.8-10c0.6-6.8,4.3-10.7,10.2-10.5
		C760.8,379.8,764.4,384.2,764.1,390.9z"/>
	<path class="st114" d="M648.1,40.1c2.6,3.9,3.3,8.8,7.7,11.9c2.3,1.6,1.1,4.6-2.2,4.8c-2.7,0.2-5.5,0.2-8.2-0.1
		c-12.9-1.3-25.8-2.8-38.8-4.2c9.3-5.8,20.5-6,30.4-9.9C640.5,41.3,644.4,40.9,648.1,40.1z"/>
	<path class="st0" d="M854.8,159c-5.7-0.4-8.9-4.1-12.7-6.2c-13.2-7.2-26.8-13.2-41.2-17.4c-4.9-1.4-8-3.5-8.7-8.8
		c-0.9-7.1-4.9-13.3-8-21.2c6.9,0.7,11.8,2,16.7,3.5c16.4,5,31.5,12.8,46.8,20.3c3.7,1.8,6.3,4.2,6.2,8.7
		C853.7,144.8,857.2,151.5,854.8,159z"/>
	<path class="st0" d="M760.1,214.3c2.3-5.3,5.2-10.5,7-16c1.6-4.8,4.4-6,8.7-4.9c15.9,4.1,31.2,9.5,45.3,18.1
		c3.1,1.9,3.9,3.9,1.8,6.8c-4.1,5.6-8.2,11.2-12.5,16.7c-1.5,1.9-3.4,2.3-5.5,0.8c-13.3-9.3-28.3-14.7-43.4-19.9
		C761,215.7,760.7,214.9,760.1,214.3z"/>
	<path class="st115" d="M824.9,85.5c-13.6-2.9-25-7.6-37.3-7.8c-3.1-0.1-5.4-2.3-6.2-4.9c-1.5-4.8-5-8.2-8.8-12.6
		c6.7-1.9,11.7,1.4,16.9,1.9c5.8,0.5,11.4,3.2,17.2,4C817.5,67.5,821.4,74.9,824.9,85.5z"/>
	<path class="st116" d="M687.7,31.3c17.4-1.8,33.6-1.1,43.4,17.4c-9.8-1.4-19-2.6-28.1-4.1C695.4,43.4,692.7,36.1,687.7,31.3z"/>
	<path class="st115" d="M709.1,112.2c0-6.2,1.5-7.6,6.9-6.4c7.7,1.8,15.4,3.8,23,5.8c5,1.4,6.7,4.4,5.5,9.2
		c-1.1,4.5-4.8,3.8-7.5,2.9c-7-2.2-14.3-1.8-21.4-3.4C710.4,119,709,116.1,709.1,112.2z"/>
	<path class="st117" d="M738.7,81.7c-8.4,2-16.3-2.1-24.5-1.9c-3.6,0.1-4.9-3.6-6.1-6.4c-1.7-4,0-6.3,4.2-5c5.1,1.5,10.3,1,15.4,1.5
		C735.6,70.7,737.6,72.8,738.7,81.7z"/>
	<path class="st115" d="M826.1,181.7c-9.8-6.3-18.7-12.2-28.8-16.1c-4.1-1.6-6.1-8.6-3.9-12.4c1-1.8,2.8-2,4.5-1.4
		c10.6,3.6,20.3,9.2,30.2,14.2c2,1,2,2.6,1.2,4.4C827.6,173.8,826.4,177.3,826.1,181.7z"/>
	<path class="st118" d="M737.1,145c4.4,1.8,9.6,1.8,14.6,2.7c3,0.6,6,1.8,7.2,5.2c1.5,4-0.8,7.1-5,6.3c-5.7-1-11.4-2.5-17.1-3.8
		c-1.7-0.4-3.3-0.7-4.4-2.3c-1.4-2-2.9-4.2-1.5-6.6C732.1,144.4,734.5,145.1,737.1,145z"/>
	<path class="st118" d="M856.9,95.8c5.3,1.6,10.1,4.4,14.6,7.5c2.9,2,5.5,4.5,5.2,8.5c-0.1,1.9-1.2,4.3-2.8,3.1
		c-6.5-5-17.4-5.4-17.9-16.7C856,97.5,856.5,96.8,856.9,95.8z"/>
	<path class="st118" d="M879.8,150.8c13.7,5.6,17.3,13.1,12.4,27.3C886.9,169,875,164,879.8,150.8z"/>
	<path class="st119" d="M1054.2,842.4c-0.1-6.2,4.7-10.5,11.8-10.4c6,0.1,11,5.6,10.9,11.8c-0.1,5.5-6,10.1-12.6,10
		C1059.1,853.7,1054.4,848.3,1054.2,842.4z"/>
	<path class="st120" d="M201.6,911.6c6.5,0.6,9.8-2.5,11.8-7.9c1.5-3.9,2.6-7.9,4-11.9c1.1-3.1,3.4-4.4,6.6-3.4
		c3,0.9,2.9,3.2,2.5,5.9c-1.1,8-4.7,15.3-7.1,22.9c-1.1,3.4-4,4.5-7.5,4.4c-5.2-0.2-10.5,0.2-15.7-0.4c-13.2-1.5-26.4-1.4-39.6-1.6
		c-3.8-0.1-7.7-0.4-11.5-0.7c-3.2-0.2-5-1.4-5.1-5.1c-0.2-8.9,3-17.1,5.2-25.4c0.5-1.8,2-2.9,4-2.5c1.8,0.4,3.3,1.9,3.1,3.7
		c-0.4,3.4-1.5,6.8-2,10.2c-1.2,7.5,0.9,10.5,8.5,11C166.4,911,195,911,201.6,911.6z"/>
	<path class="st121" d="M220.7,878.2c1.8-2.8,4.6-2.6,7.2-2.2c2,0.3,4.4,1.3,3.8,3.8c-0.8,3.1-3.3,1.6-4.8,0.7
		C224.9,879.3,222.2,880.7,220.7,878.2z"/>
	<path class="st122" d="M1127.6,1024.5c-5.6-0.2-10.1-5.3-9.8-11.3c0.2-4.7,3.3-7.7,8-7.7c5.5,0,10.8,5.4,10.6,10.8
		C1136.2,1021.2,1132.5,1024.7,1127.6,1024.5z"/>
</g>
<path class="st86" d="M873.1,495.6c-0.7,0.7-1.7,2.1-2.1,1.9c-5-1.7-9.2-1.6-13.5-5.2C861.9,488.8,866.3,489.9,873.1,495.6z"/>
<g id="Layer_2">
	<path class="st123" d="M983.8,502.4c0,0,5.2,38.1,5.3,48.4c0.1,10.4,5.7,51.6,5.7,51.6l8.5-13.8c0.8-1.3,1.3-2.8,1.6-4.3l6.2-42
		v-23.9c0,0-8.4-19.6-13.6-23.9c-5.9-4.9-12.7-5.6-16-6.2L983.8,502.4z"/>
	<path class="st124" d="M991.3,500.2c0,0,11,8,12.7,21.8c1.7,13.8-2.8,39.1-2.8,42.6s-6-38.9-6-38.9l-6.1-21.1L991.3,500.2z"/>
	<path class="st124" d="M989,497.5"/>
</g>
<path class="st118" d="M872.8,183.3c5.3,1.6,10.4,14.1,10,15.6c-0.1,1.9-1.2,9.4-2.8,8.2c-6.5-5-4.3-5.8-9.5-14
	C870.4,192.4,872.4,184.3,872.8,183.3z"/>
<path class="st121" d="M148.7,877.2c1.8-2.8,4.6-3.6,7.2-3.2c2,0.3,4.4,2.3,3.8,4.8c-0.8,3.1-3.3,1.6-4.8,0.7
	C152.9,878.3,150.2,879.7,148.7,877.2z"/>
</svg>
