<?xml version="1.0" encoding="utf-8"?>
<!-- Generator: Adobe Illustrator 19.2.1, SVG Export Plug-In . SVG Version: 6.00 Build 0)  -->
<svg version="1.1" id="Layer_1" xmlns="http://www.w3.org/2000/svg" xmlns:xlink="http://www.w3.org/1999/xlink" x="0px" y="0px"
	 viewBox="0 0 786.6 820.3" style="enable-background:new 0 0 786.6 820.3;" xml:space="preserve">
<style type="text/css">
	.st0{fill:#A1A1A1;}
	.st1{fill:#46A9E4;}
	.st2{fill:#2F75A7;}
	.st3{fill:#FEFEFE;}
	.st4{fill:#B6B260;}
	.st5{fill:#808B8B;}
	.st6{fill:#C80CC5;}
	.st7{fill:#0CC871;}
	.st8{fill:#099856;}
	.st9{fill:#E92353;}
	.st10{fill:#A0CD2F;}
	.st11{fill:#2F74A7;}
	.st12{fill:#980995;}
	.st13{fill:#5414DD;}
	.st14{fill:#E9A752;}
	.st15{fill:#40DD14;}
	.st16{fill:#0CC870;}
	.st17{fill:#46A9E3;}
	.st18{fill:#FEFEFD;}
	.st19{fill:#9B0998;}
	.st20{fill:#2F75A8;}
	.st21{fill:#818B8B;}
	.st22{fill:#AD8146;}
	.st23{fill:#E8A751;}
	.st24{fill:#FEFDFD;}
	.st25{fill:#FDFDFD;}
	.st26{fill:#00F9DA;}
	.st27{fill:#40DC14;}
	.st28{fill:#5314DC;}
	.st29{fill:#EDEE24;}
	.st30{fill:#FBFBFC;}
	.st31{fill:#DDD313;}
	.st32{fill:#818C8C;}
	.st33{fill:#02F7DA;}
	.st34{fill:#5414DB;}
	.st35{fill:#FCFCFC;}
	.st36{fill:#01F8DA;}
	.st37{fill:#0CC770;}
	.st38{fill:#808B8A;}
	.st39{fill:#B5B261;}
	.st40{fill:#45AAE4;}
	.st41{fill:#7F8A8A;}
	.st42{fill:#0DC770;}
	.st43{fill:#41DB14;}
	.st44{fill:#DDD213;}
	.st45{fill:#C70CC4;}
	.st46{fill:#FBFBFB;}
	.st47{fill:#0AA65D;}
	.st48{fill:#5414DA;}
	.st49{fill:#7E8888;}
	.st50{fill:#03F7D9;}
	.st51{fill:#40DA15;}
	.st52{fill:#DCD114;}
	.st53{fill:#FAFBFB;}
	.st54{fill:#CF9740;}
	.st55{fill:#C60C7F;}
	.st56{fill:#DCD214;}
	.st57{fill:#5415DA;}
	.st58{fill:#DBD113;}
	.st59{fill:#C70E7E;}
	.st60{fill:#C60D7E;}
	.st61{fill:#E7A752;}
	.st62{fill:#3FDA15;}
	.st63{fill:#7B8585;}
	.st64{fill:#E6A652;}
	.st65{fill:#DBD013;}
	.st66{fill:#3281B3;}
	.st67{fill:#43A8E1;}
	.st68{fill:#C20D7C;}
	.st69{fill:#C60E7E;}
	.st70{fill:#F7F8F8;}
	.st71{fill:#D6CC13;}
	.st72{fill:#44A8E2;}
	.st73{fill:#7D8787;}
	.st74{fill:#737D7D;}
	.st75{fill:#C50F7D;}
	.st76{fill:#D0C612;}
	.st77{fill:#D8C917;}
	.st78{fill:#DBCE15;}
	.st79{fill:#CF984E;}
	.st80{fill:#F3F3F3;}
	.st81{fill:#C10C7C;}
	.st82{fill:#D9CE14;}
	.st83{fill:#D7CD13;}
	.st84{fill:#757F7F;}
	.st85{fill:#E4A553;}
	.st86{fill:#0CC26D;}
	.st87{fill:#7F8885;}
	.st88{fill:#2F76A9;}
	.st89{fill:#C4107B;}
	.st90{fill:#D8CC14;}
	.st91{fill:#D7CC14;}
	.st92{fill:#DCA04D;}
	.st93{fill:#C30E7C;}
	.st94{fill:#C20F7A;}
	.st95{fill:#C20E7B;}
	.st96{fill:#E0A553;}
	.st97{fill:#D6CB13;}
	.st98{fill:#798383;}
	.st99{fill:#F5F5F5;}
	.st100{fill:#C10D7B;}
	.st101{fill:#C01675;}
	.st102{fill:#DACC15;}
	.st103{fill:#D9CB16;}
	.st104{fill:#C4107C;}
	.st105{fill:#3FD617;}
	.st106{fill:#03F3D8;}
	.st107{fill:#F8F8F8;}
	.st108{fill:#D7CC15;}
	.st109{fill:#788282;}
	.st110{fill:#D8CD14;}
	.st111{fill:#DBCE14;}
	.st112{fill:#788383;}
	.st113{fill:#C21179;}
	.st114{fill:#C3107B;}
	.st115{fill:#D2C613;}
	.st116{fill:#E5A858;}
	.st117{fill:#BC1176;}
	.st118{fill:#BA0E76;}
	.st119{fill:#BD1375;}
	.st120{fill:#C3127A;}
	.st121{fill:#D4C915;}
	.st122{fill:#CFC01C;}
	.st123{fill:#646D6D;}
	.st124{fill:#D3BD1A;}
	.st125{fill:#DBDDDF;}
	.st126{fill:#505656;}
	.st127{fill:#768080;}
	.st128{fill:#BF1178;}
	.st129{fill:#BF0E79;}
	.st130{fill:#717A7A;}
	.st131{fill:#6B7474;}
	.st132{fill:#BC1374;}
	.st133{fill:#BC1373;}
	.st134{fill:#C21676;}
	.st135{fill:#D4BE1A;}
	.st136{fill:#5019CF;}
	.st137{fill:#BD1076;}
	.st138{fill:#D4C316;}
	.st139{fill:#BC0E77;}
	.st140{fill:#4E19C9;}
	.st141{fill:#BE0E79;}
	.st142{fill:#B91670;}
	.st143{fill:#B51072;}
	.st144{fill:#B50F72;}
	.st145{fill:#BDB013;}
	.st146{fill:#CC954D;}
	.st147{fill:#D1BE18;}
	.st148{fill:#5E6666;}
	.st149{fill:#6E7777;}
	.st150{fill:#B8176E;}
	.st151{fill:#D2C614;}
	.st152{fill:#BC1076;}
	.st153{fill:#6D7777;}
	.st154{fill:#B91372;}
	.st155{fill:#CEBE16;}
	.st156{fill:#AF1D65;}
	.st157{fill:#3C6E8E;}
	.st158{fill:#4B1AC0;}
	.st159{fill:#B6335C;}
	.st160{fill:#9F0966;}
	.st161{fill:#569FBC;}
	.st162{fill:#B6A614;}
	.st163{fill:#DFDBD6;}
	.st164{fill:#7A8383;}
	.st165{fill:#AD0AAA;}
	.st166{fill:#01F9DA;}
	.st167{fill:#B6B360;}
	.st168{fill:#02F8DA;}
	.st169{fill:#9CF85D;}
	.st170{fill:#2F76A8;}
	.st171{fill:#03F7DA;}
	.st172{fill:#020202;}
	.st173{fill:#9BF061;}
	.st174{fill:#BC2B5D;}
	.st175{fill:#B2DE09;}
	.st176{fill:#B4E008;}
	.st177{fill:#AE8246;}
	.st178{fill:#46AAE4;}
	.st179{fill:#46ABE3;}
	.st180{fill:#44ABE4;}
	.st181{fill:#45ABE3;}
	.st182{fill:#B6B460;}
</style>
<g>
	<path d="M99.1,67.3c-1-1.7-3-3.2-2.7-5.1c0.3-2.1,3.1-1.5,4.6-2.4c2.6-1.7,5.6-2.6,8.6-3.6c0.6-0.2,1.5-0.2,1.3-1.1
		c-0.2-0.8-1-0.6-1.7-0.7c-4.3-0.2-8.7-0.2-13,0.3c-1.9,0.2-3.8,0.3-5.6,0.3c-1.6,0-2.9-0.9-3.4-2.5c-0.4-1.5,0.2-2.8,1.4-3.7
		c2.1-1.5,3.6-3.6,5.8-6c-3.8,1.2-6.7,2.5-9.8,2.9c-4.4,0.6-6.4-0.9-6.8-5.3c-0.1-1-0.3-2-0.5-3.2c-2.8,1.2-5.6,2-8.5,2.2
		c-2.8,0.2-4.5-1-5.5-3.4c-1.3-2.9-3-5.5-6.7-6.3c-0.4,2.4,0.2,4.5,1.3,6.5c3.2,5.7,1,12.6-6.4,13.6c-1,0.1-2,0.7-2.9,1.1
		c-0.8,0.3-1.6,0.8-2.4,0.2c-0.8-0.7-0.6-1.8-0.1-2.3c3.9-3.9,2-8.8,2.3-13.3c0-0.4-0.1-0.8,0.1-1.1c2.6-5.5,3.5-11.9,8-16.5
		c1.2-1.3,2.4-2.7,4.2-3.2c2.7-0.8,5.2,0.2,6.9,3.1c2.3,3.8,4.4,7.7,6.7,11.5c0.4,0.7,0.9,1.5,1.5,2c1.9,1.6,2.9,1.2,3.5-1.2
		c0.6-2.5,1.2-4.9,1.8-7.4c0.5-2.1,1.4-3.7,3.9-3.6c2.5,0.2,4.5,2,4.7,4.4c0.2,2.3-0.2,4.5-0.7,6.7c-0.4,1.8-0.3,3.5-0.3,5.8
		c2.6-2.1,4.8-3.7,6.9-5.6c2.8-2.5,5.9-3.1,7.7-1.3c1.8,1.7,1.5,6.2-0.6,8.6c-1.1,1.2-2.3,2.1-3.1,3.6c-0.8,1.5-0.9,2.3,1.1,2.3
		c3.4,0.2,6.7,0.6,10.2,0c2.3-0.4,4.7-0.3,7.1-0.2c4.1,0,6.7,1.8,7.2,4.6c0.5,3.5-2,7.5-5.4,8.7c-0.5,0.2-1.1,0.2-1.7,0.4
		c-1.7,0.4-3.8,0.6-4.5,2c-0.6,1.3,1.7,2,2.5,3.1c2.9,3.6,3.8,8,4.2,12.4c0.2,2,0.8,2.9,2.5,3.7c1.5,0.8,3.3,1.4,4.2,3.2
		c0.4,0.8,1.4,1,2.3,0.8c0.8-0.2,0.9-1,1-1.8c0.3-2.7,0.1-5.2-1.5-7.5c-0.2-0.3-0.4-0.7-0.5-1c-1.7-3.6-1.3-6.9,1.2-9.1
		c2.3-2,6.1-2.1,9.2-0.1c3.5,2.3,5.6,6.1,9,8.6c0.9-0.7,1.2-1.9,1.7-3c2-4.3,6-5.1,9.7-2.1c2.2,1.8,3.9,4.1,5.7,6.3
		c0.8,1,1.4,2.3,0.3,3.3c-1.3,1.1-2.1,0.1-3-0.9c-2.1-2.3-3.5-0.2-4.5,1.1c-1.6,2.2-3.1,3.3-5.5,1.3c-0.2,0.3-0.4,0.5-0.4,0.6
		c-0.3,2.8-0.5,5.9-3.7,6.7c-3.4,0.8-6.1-1.3-8.3-3.8c-1.1-1.3-1.8-2.8-2.8-4.3c-0.5-0.8-0.8-1.7-2.2-1.8c0.5,6.8,1.3,13.6-4.8,18.8
		c0.9,1.2,2.2,1.4,3.4,1.9c13.2,5.1,26.5,10.4,39.8,15.3c9,3.3,18.2,6.2,27,10c10.6,4.5,22,6.1,32.3,10.9c2.2,1,4.6,1.6,7,2.2
		c4.8,1.1,9.5,2.3,13.9,4.7c2.1,1.2,4.6,1.6,7,2.1c8.4,1.8,16.1,5.2,23.8,8.8c9.3,4.4,19.5,6.6,28.8,10.8c5.9,2.7,11.4,6.1,17.2,9.1
		c7.4,3.9,13,9.5,17.6,16.5c3.6,5.5,5.4,11.1,5.5,17.4c0,3.7-1.5,7-2.6,10.4c-0.4,1.5-0.3,1.9,1.4,2c5.5,0.1,11-0.2,16.4,0.6
		c9.2,1.4,18.6,2.5,27.1,6.3c14.9,6.7,29.6,13.7,42.2,24.7c7,6.1,14.3,12,20.7,18.7c7.1,7.6,13.3,16,19.6,24.4
		c7.6,10.1,12.8,21.5,18.7,32.5c2,3.7,3.3,6.8,8.9,6.2c6.5-0.7,13.3-0.7,20,0.5c2,0.4,4.1,0.9,6,1.5c2.8,0.9,3.7,2.6,2.7,5.4
		c-0.8,2.3-2.1,4.4-4.7,4.8c-1.5,0.2-1.3,1.1-1.2,2c0.2,5.1,0.2,10.3,0.7,15.4c0.5,4.5-0.9,8.8-1.4,13.1c-0.5,4.2-0.7,8.4-2.3,12.3
		c0.3,0.7,0.6,0.4,0.8,0.3c15.7-9.8,32.9-16.9,49.4-25.1c6-3,11.3-7.1,17.4-9.9c11.3-5.1,22.3-10.7,34.6-13.4
		c6.8-1.5,13.4-3.9,20.1-5.7c4.1-1.2,8.4-1.3,12.5-2.2c11.7-2.5,23.4-5.3,35.5-4.8c11.8,0.5,23.4,2.5,34.7,6.1
		c6.5,2.1,13.1,3.4,19.3,6.2c3.4,1.5,7.3,1.9,11,2.4c2,0.3,4.2,0.1,5.8-1.6c3-3.3,0.8-6.9-2.2-9c-1-0.7-2.2-1-3.3-1.7
		c-1.8-1.2-1.7-3.4,0.3-4.1c5.5-1.9,10.8-4.5,16.6-5.5c2.2-0.4,3.7,0.3,5,2.2c5.7,8,4.8,15.1-3.2,23.8c-5.5,6-12.8,7.1-20.4,7.3
		c-7.7,0.2-15.5-0.6-23.2-0.6c-10.9,0.1-21.7,0.9-32.5,3.6c-7.9,2-16.1,3.2-24.1,5c-13.3,3.1-26.2,7.6-38.9,12.7
		c-14.5,5.8-29.1,11.4-43.7,17.1c-10.7,4.2-21.5,8.2-32.1,12.5c-11.2,4.6-22.3,9.6-33.4,14.4c-1.1,0.5-1.6,1.1-1.5,2.3
		c0.4,8.1,0.8,16.2,1.9,24.2c1.3,9.4,1.5,18.9,1.3,28.5c-0.1,4.6-0.6,18.4-2.1,26.6c0,0,2.6,2,5.4,3.1c6.8,4.5,12.2,10.7,17.2,17
		c5.3,6.7,8,14.9,11.1,22.8c3.3,8.4,5.6,17,6,26.1c0.2,4.1,0.3,8.3-0.2,12.4c-1.7,14.9-7.3,28-19.2,37.8c-1.9,1.6-3.9,3.1-6.3,3.8
		c-8.6,4.4-16.4,5.8-24.9,7.6c-3.9,0.8-8,0.9-12.1,1.3c1.1,7.4,0.6,14.9,0.6,22.4c-0.1,10-0.8,20,0.6,30.1c1,7.3,4.7,13.2,7.8,19.6
		c2.7,5.7,6.5,10.9,11,15.3c2.4,2.4,6,3.7,9.1,5.4c5.4,2.9,11,5.6,16.9,7.5c4.5,1.4,9.2,2.2,13.8,3.1c1.5,0.3,1.9-1,2.5-2.2
		c2.6-5,5.7-10.1,11.4-11.2c5.2-1,7.9-3.3,10.3-7.7c2.5-4.5,7.5-6,12.5-6.6c6.4-0.8,12.2,0.8,17.6,4.3c2.1,1.4,3.5,3.2,4.6,5.2
		c4.9,8.6,8.3,17.8,7.1,27.8c-0.8,7.1-3.1,13.9-9.3,18.7c-2.8,2.1-5.4,4.2-8.8,5.3c-1,0.3-1.2,1.3-1.6,2.1
		c-1.8,4.1-4.5,7.8-6.9,11.5c-4.8,7.4-11.6,12.8-19,17.4c-4.6,2.9-9,6.2-14.4,7.8c-4.6,1.4-9.1,3.2-13.7,4.8
		c-0.5,0.2-1.1,0.3-1.6,0.3c-5.6-0.1-11.3,0.8-16.9,0.4c-7.7-0.5-15.5,0.6-23-1c-5.8-1.2-11.7-1.6-17.4-3.5
		c-6.7-2.2-13.6-3.7-20.5-5.5c-3-0.8-5.5-2.2-8.1-3.8c-5.7-3.4-11.6-6.5-17.7-9.2c-1-0.5-2.1-0.8-2.8-1.9c-2.2,3-1.8,6.8-3.7,9.9
		c-3.8,6.3-9,11-14.8,15.2c-7.5,5.4-15.9,8.3-24.8,9.4c-6.9,0.9-13.8,2.4-20.9,1.9c-4-0.3-8.1,0.4-12.1,0.4
		c-9.6,0.1-19-1.9-27.5-6.7c-11-6.2-20.9-14.1-27.8-24.9c-2.8-4.4-5.5-8.9-6.7-14.7c-5.3,4.5-11.3,3.3-17.2,3.4
		c-2.1,0.1-4-0.9-6-1.1c-5.2-0.7-10.3-1.3-15.2-3.4c-2.1-0.9-3.7,0.9-5,2.3c-5.1,5.7-10.2,11.4-16.5,15.8c-3.2,2.2-6.5,4.3-10.2,5.9
		c-4.7,2.1-72.7,32.5-116.7-3.2c-3.6-3.6-4.9-8.6-7.3-12.9c-3.5-6.3-5.7-13-5-20.4c0.7-7.2,2.8-14,7.3-19.6c2.4-3,5.8-5.4,10.3-4.7
		c2.2,0.3,4.5-0.3,6.7,0.4c9,3.1,12.8,10.7,7.7,20.1c-1.2,2.3-0.9,3.2,1.1,4.6c4.6,3.1,9.8,3.3,14.9,3.8c3.4,0.3,20.4,1.8,30-10.5
		c12.2-12.5,17-28.5,22.1-44.3c3.1-9.5,5.8-19.1,8.1-28.7c1.6-6.6,2.4-13.3,4.2-19.9c1.5-5.4,1.4-10.8,0.9-16.3
		c-0.5-5.1-0.6-10.3-0.7-15.4c0-1.8-0.3-2.8-2.5-2.5c-2.6,0.4-5.1,0.4-6.9-2.2c-0.6-0.9-1.4-0.2-2,0.1c-5.4,2.1-7.9,1.6-11.6-2.7
		c-1.1-1.2-2.4-0.5-3.8-0.7c1,2.3,2.4,4.1,3.5,6.1c3.3,6,1.7,11.8-0.5,17.4c-2.1,5.2-5.3,9.8-10.3,13.1c-14.4,9.5-29.2,15.7-47,9.2
		c-8.5-3.1-16-7.5-22.8-13.2c-3.2-2.7-5.2-6.2-7.2-9.8c-2.2-3.8-4.4-7.7-6.7-11.5c-5.3-8.7-6.9-18.2-6.3-28.3
		c0.8-14.6,3.2-28.8,7.8-42.7c1.7-5,2.7-10.2,4.8-15.1c0.1-0.3,0.4-0.8,0.3-1.1c-1-4.2,0.4-8.4-0.5-12.6c-0.2-0.8-0.2-1.5-1.2-2
		c-2.5-1.3-3.7-3.8-4-6.4c-0.4-3.2-1.1-6.3-3-9c-2.6-3.7-2.7-8.1-3.5-12.3c-0.9-4.8-0.5-9.5,1-14.2c0.6-1.8-0.4-3.8-1.1-5.6
		c-1.4-3.9-2.8-7.8-2.9-12c0-1.9,0.2-3.8,0.6-5.6c1.4-5.7,0.4-11.4,0.5-17.1c0.1-5.9-0.8-11.8,3.2-17.1c1-1.2,0.5-3.7,0.5-5.5
		c0.1-3.1,1-6.1,2.9-8.4c3.4-4.2,4.8-9.2,5.7-14.1c1.2-6.5,4.4-11.9,7.8-17.3c2.8-4.3,5.6-8.5,7.1-13.7c1.3-4.4,4.2-8.1,7.8-11.1
		c1.9-1.6,2.9-4,3.9-6.2c2.1-5,5.5-8.8,9.5-12.4c2.8-2.6,4.4-6.2,6.7-9.3c4.2-5.7,9.1-10.5,15.3-13.8c1.8-0.9,3.4-2,4.7-3.6
		c4.3-5.1,10.3-7.4,16.2-10c1.9-0.8,3.6-1.6,5.1-3.3c1.3-1.6,3.4-2.5,5.6-2.8c3.5-0.5,4.4-3.2,2.3-6c-3.8-4.9-6.6-10.3-9.6-15.6
		c-9-15.8-18-31.6-27-47.5c-20.3-35.6-40.5-71.3-60.7-106.9c-0.5-0.9-1-1.7-1.7-2.8c-2.1,5.8-4.4,7.4-10.4,6.7
		c-5.5-0.7-11.2-0.3-16.1-3.7c-0.8-0.6-1.3,0-1.2,0.8c0.2,1.2-1.2,3.2,1.4,3.5c2.9,0.4,5.8,0.8,8.7,1.1c6.2,0.7,9.8,5.3,13.7,9.4
		c1.8,1.9,0.9,4.7-1.6,5.9c-2,1-4.3,1.4-6.5,1.8c-3.7,0.7-7,2.1-10.2,4c-2.5,1.4-2.9,4.6-1,6.7c2.1,2.5,4.6,3.9,8,3.7
		c3.4-0.3,6.8-0.3,10.1-0.3c3.5,0,4.8,1.9,3.3,5.1c-1.9,4.1-4.7,7.5-8.8,9.6c-5,2.7-9.1,6.3-12.7,10.7c-1.3,1.6-1.2,2.2,0.8,3
		c3.6,1.4,7,3.3,10.6,4.7c3.2,1.2,3.6,3.9,0.8,6.1c-2.7,2.1-5,4.5-7.3,7c-2.6,2.8-4.2,6-4.7,9.8c-0.1,1-0.4,1.9-1.4,2.2
		c-1.2,0.4-1.9-0.5-2.5-1.3c-0.7-0.9-1.4-1.8-2.2-2.6c-2.8-3-3.2-6.4-1.6-9.9c1.4-3.1,3.1-6.1,5.9-8.2c1.5-1.1,1.5-2.1,0.2-3.2
		c-2.7-2.2-5.3-4.5-9.1-4.6c-3.7-0.1-4.8-2.5-2.6-5.8c2.6-3.8,6.1-6.6,9.3-9.9c2.4-2.4,5.5-4.1,7.8-7.5c-4,0-7.4,0.1-10.9,0
		c-5.5-0.2-8.7-4.6-7.2-10c0.4-1.3,1.3-2,2.4-2.6c5-2.7,9.9-5.4,15-7.9c1.7-0.8,2-1.7,1.4-3.3c-2.2-5.6-6.2-9.1-12-10.6
		c-3.3-0.9-6.2-2.3-8.5-4.8c-3.2-3.5-3.6-7.5-0.7-11.3c1.8-2.3,3.8-4.5,5.7-6.7c0.4-0.5,1.1-0.9,0.3-1.6c-0.7-0.5-1,0.1-1.3,0.5
		c-2.4,2.6-4.6,4.8-8.7,5.2c-2.1,0.2-2.7,3.6-3.1,5.9c-0.6,3.5,0,6.4,3.8,8.2c2.4,1.1,4.2,3.1,6.2,4.9c1.4,1.3,2,2.8,2,4.8
		c-0.1,5.8-4.1,8.3-9.1,5.4c-3.8-2.1-7.4-4.4-11.2-6.7c-0.7-0.4-1.4-1.1-2.2-1.3c-1.9-0.6-3.7-3.3-5.8-0.3c-2.4,3.3-2.6,6.8-0.2,9
		c1.9,1.8,4,3.3,6.9,3.4c3.5,0.1,6,2.6,8.4,4.8c1.2,1.1,0.8,2.6,0.1,3.9c-1,1.9-2.8,3-4.5,4.1c0.1,0.3,0.1,0.5,0.1,0.6
		c0.7,1,2.5,0.9,2.4,2.5c-0.2,1.9-2.1,2-3.2,2.2c-3.9,0.9-8,1.9-11.8-0.2c-3.7-2.1-3.8-6.5-0.3-9c0.9-0.7,2-1.2,3-1.6
		c1.6-0.6,2.1-2,1.7-3.2c-0.4-1.4-2.1-0.9-2.9-0.5c-3,1.4-5.7,0.9-8.7-0.3c-5.3-2.2-7.9-7-6.2-12.6c1.3-4.1,4.1-7.2,7.2-10
		c2-1.8,4.7-1.1,7-0.4c5,1.4,10.1,2.1,15.3,2.3c-3.5-1.6-5.3-5.1-9.2-6.4c-5.9-2-6.8-4.7-4.7-10.5c0.3-0.9,0.7-1.8,1-2.6
		c2.7-6.4,4.8-7.7,11.6-7.1c1.9,0.2,3.3,1.2,4.5,2.6c0.7,0.8,1.1,1.8,2,2.4c0.7,0.5,1.3,1.8,2.6,1c1.2-0.8,1.6-1.6,1.2-3.1
		c-0.9-3.3-1-6.7-1-10.1c0-3.7,0.7-7.2,5.6-8.8c-7.6-1.6-9.8-6.9-10.3-13.7c-2.4,2.7-4.2,4.9-6.3,7c-3.7,3.6-6.6,3.5-10.2-0.2
		c-2.2-2.3-4.1-4.9-6.3-7.3c-0.8-0.9-1.5-1.9-3.1-2.4c0.2,3,0.3,5.8,0.7,8.5c0.5,3.6,0.6,7.2,0.3,10.7c-0.6,6.7-4.3,11.8-9.2,15.9
		c-2.2,1.8-5.5,1.2-7.9-1.3c-1.5-1.6-2.7-1.3-4.1-0.2c-1.2,1-2.3,2-3.2,3.2c-2.7,3.7-6.1,6.7-9,10.1c-0.6,0.7-1.3,1.2-2.2,0.9
		c-1.1-0.3-1.4-1.2-1.4-2.2c-0.1-2.1-0.2-4.2,0.6-6.2c2.4-5.7,4.5-11.6,8.5-16.6c1.5-1.8,2.9-1.9,4.6-0.5c6.5,5,6.6,5.1,9.3-2.6
		c2.3-6.6,4.4-13.3,6.5-19.9c0.9-2.9,2.5-4.7,5.5-5.8c3.7-1.2,7.1-2.8,11.2-2.5c4.1,0.3,7.2,1.9,9.4,5.4c2.3,3.7,2.3,3.6,5.1,0.2
		c1.8-2.2,3.5-4.6,6.4-5.3c3.8-1,7.8,1.1,9.5,4.9c0.9,2,1.4,4.1,2.2,6.1c1.3,3.4,2.1,3.8,5.1,1.7c2.8-1.9,5.5-4,8.2-6
		c1.8-1.3,3.7-1.9,5.8-1.2c2.2,0.4,3.2,2,4.1,3.7C101.5,69.9,99.7,69,99.1,67.3z"/>
	<path class="st0" d="M99.1,67.3c2.2,1.4,3.6,3.3,4.1,6.6c-2-2.3-3.2-4.5-5.3-6C98.3,67.8,98.9,67.9,99.1,67.3z"/>
	<path class="st1" d="M387.4,756.6c2.3-6.6,6.8-11.1,13.1-14.1c4.8-2.3,9.6-3.1,14.8-2.7c-0.3,1.3-1.5,1.3-2.4,1.7
		c-2.3,0.9-3.8,2.7-5.3,4.5c-0.5,0.6-0.8,1.3-0.4,2.1c0.4,0.9,1.2,0.7,2,0.6c8.5-0.7,15.5,2.9,22,7.9c0.9,0.7,1.7,1.9,2.9,1
		c1.3-0.9,0.6-2.3,0-3.3c-1.9-3.5-5.1-6-8.1-8.6c-2.2-1.9-4.6-3.6-7.4-4.5c-0.7-0.2-1.5-0.4-1.5-1.4c7.8,0.1,14.2,3.2,19.1,9.4
		c4.3,5.5,5.4,12,6.5,18.5c0.5,2.9,0.5,5.8,0.4,8.7c-1.2,8.2-6.7,13.2-12.8,17.8c-8.2,6.2-17.2,9.2-27.6,9.1
		c-6.2,0-12.4-0.2-18.6,0.2c-5.5,0.4-11.1-0.7-16.6-2.6c-8.2-2.9-16-6.6-23.3-11.2c-8.1-5.1-13.7-12-17.4-20.6
		c-1.8-4.1-4.1-7.9-6.7-11.5c-3.7-5.2-5.8-10.8-7.5-16.9c-1.7-5.9-3.4-11.9-5.8-17.7c-0.7-1.5-0.5-3.1-0.5-4.7
		c0-14.1,0.1-28.1-0.1-42.2c-0.1-9.4-1.4-18.7-1.2-28.1c0.1-2.7-0.4-5.6-0.4-8.4c0-0.8,0.3-2-0.9-1.9c-0.9,0-0.7,1.2-0.8,1.9
		c-0.8,7.2-0.6,14.5-0.5,21.7c0.1,7,0.2,13.9,0.2,20.9c0,6.4-1.5,13-2.1,19.4c-0.8,8.6-4.3,16.2-7,24.1c-2.1,6.3-4.2,12.5-7.2,18.5
		c-3.2,6.3-7.6,11.8-12.5,16.9c-3.7,4-8.2,7.5-10.7,12.3c-9.3,18-51.7,28.8-57.2,30.1c-3.5,0.8-7.1,0.4-10.6,0.9
		c-2.4,0.3-4.8,0.4-7.3,0.7c-2.8-0.4-5.6-0.1-8.4-0.2c-1.7,0-3.4-0.2-5-0.9c-3.9-1.9-8.1-3.3-11.7-5.6c-3.9-2.4-8.1-4.4-11.7-7.3
		c-2.8-2.3-6.6-3.5-9.5-6c-5.2-4.5-6.7-10.7-8.2-17c-0.4-1.8,0.9-2.9,2.2-3.9c2.6-0.9,4.6-1,7.1,1.2c4.5,4,10.3,5.4,16.3,5.7
		c8.1,0.4,16.2-1.1,24.2-1.7c5.6-0.1,11-1,16.4-2.7c4-1.3,6.8-4.4,10.2-6.4c2.3-1.4,4.6-3,6.9-4.4c3.6-2.2,6-5.5,7.5-9.3
		c5.5-13.3,11.9-26.1,17.8-39.1c2.9-6.4,5.8-13,5.6-20.3c0-1.9,0.7-3.7,1-5.6c2.1-14.4,4-28.7,4.1-43.3c0-5.7,1.4-11.4,1.8-17.1
		c0.5-7.1,1.6-14.2,2.8-21.3c1.1-7,2.4-14.1,5.7-20.6c0.8-1.6,2.3-2.5,3.5-3.6c7.5-6.6,14.3-13.7,17.7-23.4c0.6-1.8,2.3-2.1,3.6-3
		c3.5-2.4,5.9-7.3,4.6-11.2c-1.5-4.5-2.7-9-6.3-12.9c-2.3-2.5-2.8-6.7-4.4-10c-2.8-5.9-5.3-11.9-8.7-17.4
		c-5.1-8.2-12-14.6-21.1-18.2c-2.8-1.1-5.9-0.8-8.7-1.9c0.5-6.2-2.5-11.5-4.4-17.1c-2.1-5.9-4.2-11.7-5.1-17.9
		c-0.7-4.5-0.5-9-0.8-13.5c-0.6-10.5-2-21-2.3-31.6c-0.1-2.3,0.3-4.5,0.5-6.8c0.5-6,1.1-12,1.5-18c0.7-9.2,2.2-18.3,4.2-27.3
		c3.5-15.4,7.5-30.6,14.3-44.9c3.4-7.1,7.3-14,11.8-20.5c4.3-6.3,9.2-12.1,14.5-17.7c2.8-2.9,4.8-6.5,8.5-8.6
		c1.1-0.5,2.2-0.5,3.3-0.4c2.3,0.2,3.1-0.8,2.4-3c-0.1-0.4-0.1-0.7-0.1-1.1c2.6-4.2,6.7-6.5,10.8-8.8c1.8-1,3.8-1.7,5.4-3.1
		c1.1-0.5,2.4-0.4,3.4-1.3c3.7-2.2,7.8-2.8,11.8-3.9c1.5-0.4,3.1-0.7,4.6-1.2c3.7-0.7,7.3,0.3,10.9,0.6c3.5,0.3,6.9,0.3,11.1,0.1
		c-2.7-2.9-4.9-5.2-7.5-7.3c-1.2-1-3.6-1.9-3.7-3.8c4-0.3,12.6-0.2,16.3,0.3c5,0.3,8.8,1.7,13.6,2.7c1.4,0.3,2.7,0.4,2.7-1.6
		c6.3,1.3,12.7,2.3,18.8,4.2c4.2,1.3,8.1,3.7,11.8,6.2c1.6,1.7,3.3,3.3,4.3,5.5c0.4,0.9,1.2,1.8,0.2,2.8c-1.5,0.2-2.7-0.6-4-1.2
		c-11-5.3-22.3-9.6-34.1-12.5c-0.8-0.2-1.6-0.5-2.4-1c-1.1-0.6-2.4-0.8-3.6-0.5c-1.4,0.4-3.1,1.1-3.1,2.4c-0.1,1.3,1.8,0.9,2.8,1.2
		c1.5,0.5,3.2,0.8,3.3,2.9c-1.9,1-3.6-0.5-5.5-0.2c-0.3,0.3-0.2,0.6,0,0.7c3.5,2.5,5.8,6.2,8.1,9.6c1.1,1.7,2.6,2.4,4.6,2.8
		c5.5,0.9,10.8,2.5,16.3,3.3c0.7,0.1,1.4,0.4,1.9,0.8c5.9,4.2,12.1,7.9,18.4,11.5c4.3,2.5,7.9,5.7,11.5,9c1.5,1.4,2,3.6,2.8,5.4
		c0.7,5.5-0.4,11.5,5.1,15.6c1.9,1.4,3,3.8,5,5.3c1.5,1.2,2.3,1.1,2.7-0.8c0.2-1,0.4-2.1,1.4-2.6c3.2,2,4.3,5.1,4.4,8.6
		c0,2-1,4.2-2.9,4.9c-3.5,1.2-6.5,3.4-10,4.4c-0.9-0.9-0.4-1.8,0.1-2.6c1.7-3.1,1.3-5.8-1.3-8.4c-1.5-1.5-2.4-3.6-4.3-4.8
		c-1.8-1.2-2.8-1-3.2,1.2c-0.5,3.2-1,6.4,1.6,9.3c2,2.3,3.7,4.9,5.1,7.7c0.1,1.4-1,2.2-1.5,3.3c-0.3,0.9-1,2-0.1,2.9
		c0.8,0.7,1.8,0.3,2.7,0c4-1.3,8.2-2.2,12.2-1.2c7.2,1.8,14.9,2.4,21.3,6.8c3.1,2.1,4.8,5.2,4,8.1c-7.2,2.6-15,2-22.4,4.2
		c-4.9,1.4-9.5,3.5-13.9,6c-0.7,0.4-1.3,1.1-1.9,0.1c-3.5-5.4-8.9-4.5-14-4.3c-2.4,0.1-4.9,0.5-7.3,0.8c-4.6,0.5-8,2.7-9.7,7.1
		c-1,2.6-2.4,3.3-5.1,2.9c-6.6-1.2-13.1,0.8-19.6,1.7c-14.4,2.1-28,7.1-41.6,12.1c-10.3,3.8-20.2,8.2-30.2,12.8
		c-2.7,1.2-5.5,2.2-7.3,5c-0.8,1.2-0.8,2.2-0.7,3.3c0.1,2-1.6,2.9-2.9,3.8c-1.4,1.1-3,1.9-4.5,2.9c-1.9,1.3-3,2.9-2.6,5.2
		c0.4,2.5,1.5,4.5,4,5.4c0.4,0.2,0.9,0.4,1.4,0.4c4.3-0.2,6.5,2.5,8.5,5.8c3.1,5,5.6,10.5,9.2,15.2c3.9,5.2,8.5,9.9,13.6,13.9
		c4.6,3.6,10.6,4.8,15.9,7.2c6.1,2.8,12.7,2.9,19.1,3.1c3.1,0.1,6.2-1.3,9.4-1.8c0.8-0.1,1.6-0.5,2.5-0.5c7-1.4,13.9-2.9,20.2-6.3
		c10.3-5.6,16.7-14,19.6-25.4c1.8-7.1,2.4-14.2,2-21.4c-0.2-3.9-1.1-7.7-0.7-11.6c0.2-2-0.9-4-0.4-6l0,0c-0.6-1.3,0.4-1.7,1.3-2.1
		c3.8-1.4,7.8-2,11.9-2.1c1.2,0,2.2,0.6,2.7,1.7c1.8,3.6,3.9,7,4.6,11.2c2,11.2,8.8,18.9,18.1,25.1c7.4,4.9,15.6,5.5,23.9,6.4
		c1.6,0.2,3.5-0.6,4.8,0.9c-8.1,5.8-17.1,10.2-25.2,16.1c-2.4,1.8-4.9,3.7-7.8,4.9c-1.2,0.5-1.7,0.5-2.3-0.8
		c-1.7-3.9-4.4-7.3-7.5-10.2c-3.7-3.5-8.4-3.4-13-2.8c-1.4,0.2-0.5,1-0.1,1.6c0,1.4,0.5,2.5,1.4,3.5c2.5,2.8,4.1,6.2,5.1,9.9
		c1.1,4.3,2.9,8.5,3.9,12.9c0.7,3.2,1.5,3.6,4.8,3c0.5-0.1,1.1-0.3,1.6,0c0.3,6.1-1.4,11.9-3.5,17.6c-0.3,0.8-1.4,1.8-0.4,2.5
		c1.2,0.8,2.1-0.2,2.9-1.1c3.9-4.7,6.4-10,6.7-16.1c0.1-1.6,0.4-2.2,2.1-2.5c1.8-0.3,3.5-1.2,5.1-2.4c3.8-2.9,8.1-4.8,12.4-6.7
		c14-6.2,28-12.1,42.2-17.8c1,0.6,1.3,1.6,1.5,2.6c0.8,4.4,1.1,8.8-0.3,13.2c-1.6,5-2.6,10-2.1,15.3c0.5,4.6-0.5,9.2-0.6,13.8
		c0,4,0.2,7.9,0.8,11.8c1.6,10.2,0.9,20.3-0.5,30.4c-0.8,5.8-0.2,11.7-1.3,17.5c-1.3,6.7-1.7,13.4-2.6,20.2c0,0.3-0.1,0.6,0.5,1
		c1.8-2.4,3.3-4.9,4.1-7.7c3-10.6,5.7-21.3,5.9-32.5c0.2-13.3,2.6-26.4,4.7-39.6c1.1-7.2,1.7-14.4,3.2-21.5
		c0.9-4.7,2.5-9.2,2.3-14.2c-0.2-5.5-1.4-10.6-3.4-15.7c2.3-1.1,4.7-2,6.9-3.2c1.8-1,2,0,2.1,1.4c1.5,17.2,2.2,34.4,2.6,51.6
		c0.4,17.8-2.5,35.1-5.4,52.5c-2.1,12.4-4.8,24.6-8.3,36.6c-2,6.7-3.6,13.6-5.4,20.3c-2,7.5-2.5,15.4-3.6,23.1
		c-0.5,3.5-0.8,7.1-1.2,10.7c-0.9,8.4-0.1,16.9-0.2,25.4c0,8.4-1.6,16.8-1,25.3c0.4,5.5,1.7,10.8,2.5,16.2c0.7,4.8,1.3,9.7,3.1,14.3
		c1.6,4.2,3.7,7.9,6.4,11.4c-0.6,4.1,1.4,7.5,2.9,11c1.3,3.2,4.8,4.7,7.5,6.6c2.8,1.9,5.5,4,8.4,5.8c6.8,4.3,14.1,7.6,22.4,7.6
		c4.5,0,9-0.1,13.5,0.3c1.5-0.5,1.4,0.8,1.7,1.5c0.4,0.9,0.7,1.9,1,2.9c-2.4,2.6-5.7,3.8-8.9,4.6c-8.4,2-16.4,0.4-24-3.7
		c-5.5-3-10.8-6.6-17-8.3c-2.3-0.6-3.9-2.6-5.9-3.7c-9.1-8.8-15.1-19.7-20.7-30.8c-2.4-4.8-4.8-9.7-7.7-14.2
		c-1.6-2.6-2.7-5.3-3.1-8.2c-0.4-2.8-1.5-5.3-2.6-7.8c-1.9-4.4-3.2-8.9-3.9-13.6c-0.3-2.5-1-5-1.4-7.5c-0.1-0.7-0.5-1.2-1.6-1.1
		c0.9,6.7,1.5,13.5,2.7,20.1c1.3,7.6,2.6,15.4,6.3,22.3c4.8,8.9,8,18.6,13.2,27.4c3.6,6.1,7.1,12.2,12.3,17
		c5.5,5.1,11.9,9.1,18.2,13.2c1.2,0.8,8.1,4.4,8.7,5.9c-1.4,0.4-7.8-3.5-8.8-4.2c-2.7-1.8-5.5-3.2-8.5-4.4c-2.4-1-4.6-2.3-6.5-4
		c-5.4-5.2-11-10-16.7-14.8c-3.6-3-5.9-6.8-7.5-11.1c-0.7-1.8-1.5-3.6-4-3.1c-2,0.4-3.1,1.9-3.2,4.7c-0.1,4.1,1.9,7.5,4.6,10.3
		c5.1,5.4,10.3,10.7,14.7,16.8c0.1,0.2,0.2,0.3,0.4,0.4c9.6,7.2,19.3,14.2,32.3,13.8c5-0.1,10-0.5,14.9,0.6
		c7.8,1.2,15.7,1.7,22.9-1.7c5.8-2.8,12.4-4.9,16.1-10.8c1.8-2.9,2.9-6,0.9-9.3c-0.1-0.2-0.2-0.3-0.3-0.5c-0.6-2-1.4-3.9-3.9-3.6
		c-2.3,0.3-3.1,1.9-3.5,4.1c-0.5,2.5-1.8,1.5-2.9,0.4c-0.8-5,2.2-8.2,5.6-11.1c2.4,1.2,5,2.1,7.7,2.7c2.5,0.5,3.9,2.9,5.5,4.7
		c1.2,1.3,2.1,2.8,3.3,4.4c2-5.3-0.1-9.2-3.4-12.8c-0.8-0.9-2.5-1.3-1.8-3.1c9.9-0.3,16,6.5,16.4,15.6c0.1,2.7-0.2,5.5,0.1,8.2
		c1.2,13.5-5.2,23.8-13.8,33.1c-0.6,0.6-1.1,1.2-1.6,1.9c-1.4,1.3-3.4,1.7-5.1,2.4c-4.7,1.9-9.4,4-14.2,5.7
		c-5.1,1.9-10.6,2.2-15.9,1.7c-5.1-0.5-10.2-0.6-15.2-0.8c-7.7-0.2-15.1-2.1-22.7-2.8c-12.1-1.1-23.1-5.8-34.4-9.9
		c-11.7-4.3-22.4-10.8-33.6-16.2c-1.3-0.6-2.5-1.3-3.1-2.7c-2.5-5.8-5.5-11.3-9.7-16c-4.1-4.7-9-8.1-15.4-8.9
		c-0.7-0.1-1.4-0.4-2.1-0.6c-6.4-3.6-11.8-8.4-15.8-14.7c-1.1-6.2-4.7-11.6-5.9-17.8c-0.8-4.3-1.3-8.7-1.5-13.1
		c-0.3-9.4-0.1-18.8,1-28.1c0.1-1,0.5-2.9-0.7-3c-1.5-0.2-0.8,1.7-1.1,2.7c-4.2,14.9-4.3,30.2-3.7,45.5c0.2,5.7,1.6,11.4,3.9,16.8
		c1.8,4.2,2.9,8.7,5.1,12.7c0.4,0.8,0.1,1.3-0.8,1.2c-1.8-0.6-3-2.1-3.9-3.6c-3.3-5.4-7.2-10.4-8.9-16.6c-0.3-1-0.7-2.1-2-2
		c-1.4,0-1.9,1.1-2.2,2.2c-0.5,1.9-0.4,3.7,0.1,5.6c1.4,6.1,3.2,12,6.9,17.2c0.4,0.5,2.8,0.4,1.5,1.2c-4.9,4.2-10,9.5-11.9,15.9
		c-2.3,7.9-1,15.9,6.5,21.4c2.8,2,6.4,2.3,9.8,2.9c4.3,0.8,8.1-0.4,11.6-3c0.8-0.6,1.8-1.1,2.7-1.4c3.8-1.5,6-4.2,6.3-8.2
		c0.3-3.9-1.6-6.8-5-8.7c-0.5,0.3-1.1,0.4-1.6,0.2c-2.7-1-5.2-0.4-7.9,0.6c-2.9,1.2-5,2.5-4.8,6c0.1,1.3-0.6,2.2-2.1,2
		C394.3,766.7,387,761.8,387.4,756.6z"/>
	<path class="st2" d="M286.5,254.2c-6.9,6.5-13.1,13.7-18.9,21.1c-5,6.3-8.8,13.5-12.7,20.5c-4.8,8.6-8.1,17.8-11,27.1
		c-3.7,11.9-6.7,24.1-8.6,36.4c-1.2,7.4-1.8,14.9-2,22.4c-0.1,4.1-1.3,8.2-1.2,12.3c0.2,6,0,12,0.4,18c0.3,5.3,1.4,10.6,1.4,16
		c0,11.9,2,23.5,6.6,34.6c1.6,4,3.9,7.9,3.8,12.5c0,1.1-0.3,1.9-0.8,2.8c-4.8-1-9.7-1.1-14.5-1.4c-6.5-0.5-12.9,0.7-19.1,3.1
		c-3.8,1.5-7.6,3-11.1,5.6c-0.1-1.2-0.3-2.1-0.2-2.9c0.4-5-2.2-9.4-3.3-14.1c-0.2-0.9-0.5-1.8-0.5-2.7c0.8-1.7-0.6-3.1-0.8-4.6
		c-2.1-14.6-3.2-29.2-2.8-44c0.1-6.5-0.1-13-0.4-19.5c-0.1-2.2,0.6-4.3,0.9-6.4c1.1-8.3,2.4-16.6,3.1-25c0.4-4.3,1.2-8.8,2.9-12.9
		c0.4-1.1,0.8-2.1,0.8-3.3c0-4.6,1.6-8.9,2.4-13.3c1.1-5.9,4.9-10.4,7.1-15.6c3.5-8.5,7.2-16.9,12.2-24.9c3.3-5.3,5.7-11.2,9.5-16.3
		c0.2-0.3,0.3-0.7,0.3-1.1c7.8-10.2,17.7-18.5,27.1-27.1c2.6-0.7,5.2,0.1,7.9,0.2c6,0.2,12,0.9,18,1.2
		C284.1,253,285.5,253.2,286.5,254.2z"/>
	<path class="st1" d="M227.6,558.3c-7.5-3-15.2-4-23.2-3.8c-6,0.1-11.5,2.2-16.8,4.6c-7.2,3.2-14.8,5.6-21.2,10.6
		c-5.5,4.3-10.6,8.8-13.6,15.2c-0.8,1.7-2,3.2-3.2,4.6c-6,7.1-5.8,15.4-5,23.9c0.3,2.9,1,5.8,1.9,8.5c3.1,9.3,11.3,16.2,20,15.4
		c4.8-0.4,7.6,0.6,10,4.6c2.4,4.1,6.4,4.1,10.5,2.9c3.8-1.2,4.4-4,1.5-6.7c-0.7-0.9-0.1-1.8,0.1-2.7c0.5-2.2,0.4-4.3-0.6-6.3
		c-0.9-1.8-2-3.1-4.2-3.3c-1.3-0.1-2.7-0.5-2.2-2.5c4.3-4,11.8-1.4,14.3,1.9c4.1,5.4,4.9,12.5,1.3,18.7c-0.8,1.5-1.7,2.9-2.5,4.4
		c-1.2,1-2.6,1.9-3.9,2.8c-9.4,6-19.4,7.5-29.8,2.7c-7.4-3.4-14.4-7.3-21.1-12.1c-4.3-3-7.7-6.7-10-11.3c-3.3-6.9-6.8-13.7-8-21.4
		c-0.2-1.3-0.7-2.6-0.4-3.9c1.8-8.2,1.2-16.7,3.4-24.8c2.8-10.3,7.3-19.8,13.2-28.7c4.5-6.8,8.9-13.8,15.1-19.4
		c5.4-4.9,11.4-9,17.7-12.7c0.7-0.4,1.5-0.9,2.4-0.4c-0.3,3.1-2.7,4.8-4.9,6.6c-3.8,3.1-6.8,6.8-9.7,10.6c-0.6,0.7-1.1,1.5-1.2,2.7
		c1.6-0.4,2.9-1.2,4.2-1.9c8.7-4.4,17.1-9.1,25.8-13.4c7.9-4,16.3-6.9,24.6-10.1c3.7-1.4,7.8-1.1,11.7-1.4c2.3-0.2,4.7,0.1,7.1-0.1
		c2.9-0.2,3.9-2.1,2.7-4.7c-0.9-2-2.6-2.9-4.7-3.2c-8.4-1.4-16.8-1.8-25.3-0.6c-2.5,0.3-4.8,1.6-7.3,2.1c-2.8,0.3-5.6-0.7-8.4-0.5
		c-11.5,0.8-22.4,3.3-32.3,9.6c-0.7,0.5-1.4,1-2.3,1.1c-0.8,0.1-1.6,0-1-1.2c3.8-2.9,8.1-4.9,12.1-7.3c5.7-3.4,10.9-7.8,17.3-10
		c9.6-3.4,18.9-7.7,29.4-6.8c4.3,0.4,8.4,1.8,12.1,3.6c5.5,2.8,11.5,4.5,16.7,8c3.7,2.5,7.7,4.5,10.3,8.3c2.4,2.4,2.8,5.5,2.9,8.6
		c0.2,5.9,0.5,11.8-0.5,17.7c-2,11.4-9.4,17.8-19.8,21.4C231.1,559.1,229.3,559.1,227.6,558.3z"/>
	<path class="st2" d="M266.7,575.8c-4.8,5.3-5.9,12.1-7.3,18.8c-2.1,10-3,20.2-4.1,30.3c-0.9,7.7-1.3,15.3-1.8,23
		c-0.5,7.6-1.5,15.3-2.3,22.9c-0.7,6.7-2.7,13.2-2.7,20.1c0,3.9-2,7.4-3.2,11.1c-3.3,9.9-9,18.8-12.8,28.5
		c-2.2,5.6-5.3,10.8-7.3,16.5c-1.3,3.8-3.8,7.1-7.4,9.4c-4.5,2.8-8.6,6.1-13.1,8.8c-6.4,3.9-13.6,5.9-21.2,4.3
		c2.5-1.4,5-2.9,7.6-4.3c5.3-2.7,8.8-7.2,12.1-12c5.7-8.2,10.6-17,14.5-26.2c3.4-7.9,5.5-16.4,8-24.7c2.1-7,4.1-14.1,5.9-21.2
		c2-7.9,3.5-15.9,4.2-24.1c1.2-13.1-1-25.7-2.3-38.6c-0.9-8.6-1.7-17.2-4.5-25.5c-1.2-3.4-0.3-4.4,3.3-4.6c7.8-0.4,14.9-3.1,22-5.8
		C258.7,580.9,262.6,578.1,266.7,575.8z"/>
	<path class="st2" d="M152.3,514.8c0.8,1.8,1.5,0.2,2-0.1c5.7-3.5,11.9-6.1,18.2-8.2c2.3-0.8,4.8-1.3,7.2-0.9
		c2.6,0.4,4.8-0.9,7.2-1.2c3.2-0.4,6.3,0.8,9.5,0.6c0,1.2-1,1.5-1.8,1.9c-7.2,3-14,6.9-20,11.9c-0.4,0.3-0.8,0.5-1.3,0.3
		c-5.8,2.5-10.8,6.5-15.8,10.3c-9.8,7.4-15.8,17.8-22.2,27.9c-5.2,8.2-8.5,17.2-10.5,26.6c-4.1,16.4-2.4,36.3,8,50
		c2.5,4.1,6.5,6.7,10.5,9.3c5.7,3.7,11.7,6.8,17.8,9.8c5.6,2.8,11.3,3.2,17.5,2.1c5.1-0.9,9.6-2.6,13.4-6.1c0.7-0.6,1.6-1,2.6-0.9
		c-1.6,3-4.5,4.8-7.2,6.4c-4.3,2.6-8.7,4.9-13.3,6.8c-7.8,3.2-15.5,3.3-23.5,0.7c-6.7-2.2-13.2-4.6-18.9-9.1
		c-5.5-4.3-9.1-9.7-12.3-15.6c-0.8-1.5-1.5-3.1-2.5-4.4c-5.4-7.4-7.6-15.6-7.4-24.7c0.3-13.4,1.8-26.7,6.3-39.4
		c1.1-3.1,1.8-6.3,2.5-9.6c2.2-10.6,8.3-18.9,14.7-27.3C138.6,525.1,145.6,520.2,152.3,514.8z"/>
	<path class="st3" d="M391.7,372.2c1.3,3,2.1,6.2,2.8,9.4c3,13.8,1.1,27.1-6.6,38.9c-4.4,6.7-11.1,11.2-19.3,12.5
		c-5.1,0.9-10.1,0-14.9-2.2c-1.8-0.8-3.8-1.2-5.6-2c-10.2-4.6-18.2-11.8-24.9-20.7c-2.7-3.5-5.4-6.9-6.8-11.2
		c7.8-2.6,12.4-9.8,19.5-13.4c1.4-0.7,2.6-2.3,4.6-1.3c1.1,2.6,3.2,3.4,5.9,3.3c2.5-0.1,4.8-0.8,7.2-1.4c8-2.2,16.2-3.4,24.5-3.8
		c4.8-0.2,8.1-3.1,11.3-6.3C390,373.3,390.3,372.1,391.7,372.2z"/>
	<path class="st4" d="M365.2,232c-1.1-1.6-2.6-2.3-4.6-2.2c-1.3,0.1-2.6-0.6-3-1.7c-0.3-1.1,1.4-1,1.9-1.7c2.4-2.9,4.9-1.9,7.7-0.5
		c1.7,0.9,3.9,0.7,5.7,1.4c9.5,3.5,19.4,6.2,28.4,11c1.7,0.9,3.4,1.6,5.1,2.3c3.5,1,6.1,3.8,9.4,5.3c9.9,7.3,19.6,14.9,29.4,22.4
		c9.8,7.6,18.7,16.4,26.7,25.9c4.6,5.4,7.7,11.8,11,18.1c1.8,3.5,3.9,6.9,6.3,10c1.5,1.9,3.3,4,2.1,6.8c-1.9,0.2-3.9,0.6-5.8,0.7
		c-6.7,0.2-13,2.7-19.6,3c-0.3-4.9-3.5-7.4-7.6-9.3c-3.3-1.5-6.6-2.9-10.2-3c-1.6-0.1-3.1-0.8-4.6-1.3c-4.7-1.6-9.5-1-14.1,0.3
		c-1.7,0.5-3.9,1.6-4.9,0.1c-0.9-1.3,0.2-3.4,1.1-4.9c0.4-0.6,0.8-1.2,1.3-1.8c0.2-1.3,0.7-2.4,2.2-2.6c3-1.2,5.4-3.5,8.8-4.1
		c3.2-0.6,4.5-5,2.8-8.7c-0.8-1.7-2-3.1-3-4.7c-0.2-0.2-0.4-0.4-0.5-0.6c0.3-6.6-3.6-10.5-8.9-13.4c-1.5-0.9-3-1.9-4.5-2.8
		c-0.2-0.2-0.4-0.4-0.5-0.6c-2.3-4.5-5.9-7.8-10-10.7c-5.6-4.2-12-7.1-17.7-11.1c-1.7-1.2-3.6-2.1-5-3.6c2.2-1.3,3.9,0.4,5.9,0.8
		c1.1,0.3,2.5,1.5,3.4,0.5c0.8-0.9-0.4-2.3-0.9-3.4c-1.4-2.9-3.4-5.4-5.6-7.8c-0.7-0.7-1.5-1.2-2.4-1.4c-7.9-2.1-15.9-4.1-24-5.2
		C366.1,233.2,365.4,232.9,365.2,232z"/>
	<path class="st3" d="M517,356.1c0.8,4.4,0.8,8.8,0.3,13.2c-0.8,7.3-2,14.5-5.9,21c-0.8,1.3-1.6,2.6-3,3.2
		c-7,3.1-13.3,7.4-19.8,11.4c-4.9,3.1-10.3,2.4-15.2,0.7c-4.8-1.6-9.8-3.3-13.8-7c-2.9-2.7-5.6-5.4-7.7-8.8
		c-3.5-5.9-5.9-12.4-7.6-19c-1.2-4.9-0.9-10.3-0.5-15.4c5.2-2.2,10.5-3.2,16.2-1.9c0.6,0.6,0.1,1-0.2,1.4c-1.3,1.9-1.1,2.7,1.3,3
		c3.7,0.5,7.5,1,11.3,0.7c3.2-0.3,6.4-0.5,9.6-0.8c5.1-0.4,10.2,0.1,15.2,0.8c2.9,0.4,5.8,0.6,8.7,1c1.8,0.3,3.2-0.7,4.5-1.9
		c0.8-0.8,1.4-1.8,2.4-2.4C514.3,354.9,515.7,355.2,517,356.1z"/>
	<path class="st1" d="M530.1,508c-0.1-3.6-0.1-3.6,2.9-2c4.6,2.6,8.3,6.3,12.1,10.1c7.9,7.9,17.5,36,18.2,40.2
		c1.2,7.1,1.3,14.3,1.7,21.4c0.1,2.8-0.4,5.7-1.3,8.3c-4.2,12.5-11.1,22.8-24.1,27.7c-5.4,2.1-10.6,4.8-16.3,6.1
		c-4.8,1.1-9.6,2.8-14.7,1.2c-0.6-0.7-0.2-1.4-0.3-2.2c-0.2-1.5,0.2-2.2,1.9-1.5c3.8,1.6,7.2,0.5,10.2-2c3.3-2.8,7-5.1,10-8.3
		c2.1-2.3,3.7-4.7,4.7-7.7c1.3-4.2,3.9-7.7,5.6-11.7c2-5,2-10.1,1.6-15.3c-0.2-2.1-0.6-4.3-0.7-6.5c-0.2-4.4-2.4-7.8-5-11.1
		c-3.4-4.4-6.7-8.9-10.2-13.2c-0.9-1.1-1.9-2.1-1.4-3.8c0.9-5.3,1.4-10.6,2.7-15.8c1.1-0.5,1.7,0.4,2.4,1c1.4,1.3,2.6,2.7,3.7,4.3
		c1.9,2.9,3.9,5.8,6.8,7.9c0.6,0.5,1.1,1,1.4,1.7c3.4,7,7.8,13.6,8.8,21.6c0.1,0.6,0.2,1.1,0.4,1.6c0.2,0.4,0.4,0.9,1,0.9
		c0.5,0,0.9-0.4,1.1-0.8c0.5-1,0.7-2.2,0.8-3.3c0.4-6.5,0.4-12.9-2.1-19.2c-2.3-5.9-4.8-11.7-7.8-17.2c-2.5-4.5-5.8-7.8-10.4-10
		C532.4,509.9,530.8,509.5,530.1,508z"/>
	<path class="st2" d="M449.6,758.7c6.6,4.2,14,7,20.8,10.8c12.6,7,26.2,11.1,39.9,15.4c6.9,2.2,14.1,1.7,21.1,3.4
		c6,1.4,12.1,1.2,18.2,1.6c5.7,0.3,11.4,0.8,17.1,0.5c6.1-0.4,11.2-3.4,16.8-5.3c3.5-1.1,6.5-3.4,10.3-3.7c-1.9,4.1-5.1,7-8.9,9.1
		c-8.4,4.8-17.5,8.1-26.8,9.8c-6.1,1.1-12.6,1.4-19,0.8c-2.1-0.2-4.3-0.6-6.4-0.4c-8,0.7-15.4-1.8-22.8-4.1
		c-8.7-2.7-17.7-4.7-26.4-7.3c-0.5-0.2-1.1-0.3-1.6-0.5c-8.2-4.2-16.7-7.7-24.3-12.9c-1.5-1-2.8-2.2-4.7-2.5
		c-0.7-0.1-1.2-0.7-1.1-1.4c0.5-4-0.9-7.6-2.2-11.2C449.5,760.1,449.6,759.4,449.6,758.7z"/>
	<path class="st5" d="M287.3,226.2c1.9-2.1,3.6-4.3,5.6-6.3c6.5-6.3,9.5-14.2,10.6-22.9c0.3-2.7,1.4-5.3,0.3-8.1
		c-0.4-0.9,0.5-1.1,1-1.4c1.5-0.8,3-1.6,4.7-2c5.9-1.4,11.6-3.8,17.9-3.4c4.6,0.3,8.4,2.7,12.7,3.3c0.6,0.1,1.2,1.1,1.7,1.8
		c5.5,8.6,4.8,17.4,1.2,26.4c-0.4,1-1.1,0.8-1.8,0.9c-8.1,0.9-16.3,1.7-24.4,2.8c-3.6,0.5-7.1,1.5-10.6,2.7
		C299.9,222.4,293.5,223.8,287.3,226.2z"/>
	<path class="st6" d="M262.7,195.3c-2,4.3-4.9,8.3-5.8,12.8c-1.6,7.3-6.6,11.6-11.8,15.8c-4.6,3.8-9,7.7-12.9,12.2
		c-1,0.7-2,0.3-2.8-0.4c-2.5-2-5.2-3.6-7.8-5.4c-3.1-2.1-4.6-4.8-3.6-8.5c3-12.2,8.1-23.5,14.4-34.2c1.7-2.8,3.6-5.5,5.5-8.2
		c1.4-0.4,2.3,0.5,3.3,1.1c2.3,1.4,4.7,2.7,6.9,4.3c4.2,3.1,8.8,5.6,13.1,8.6C261.8,193.9,262.5,194.3,262.7,195.3z"/>
	<path class="st4" d="M514.6,421.6c2.9,2.3,3,5.8,3.5,9c1,6,0.8,11.9-0.9,17.9c-2,7.4-2.7,15.2-3.7,22.8c-1.1,9.2-2.7,18.4-4.1,27.6
		c-0.7,4.4-0.6,8.9-0.7,13.3c-0.3,11.6-3,22.8-6.3,33.8c-1,3.4-2.8,6.5-5.5,8.9c-1.1-0.5-0.9-1.3-0.8-1.8c1.4-5.6,1-11.4,2.1-17.1
		c1.1-5.4,2-10.9,1.8-16.5c-0.2-6,1.3-11.8,1.6-17.7c0.3-7.5-0.3-14.9-1.3-22.3c-0.5-4.1-0.4-8.1-0.2-12.1c0.3-4,0.5-7.9,0.1-11.9
		c-0.3-3.6,0.4-6.9,1.6-10.2c2.1-6.1,1.6-12.1-0.1-18.2C505.7,425,510.2,422.9,514.6,421.6z"/>
	<path class="st2" d="M306.9,723.1c2.9,2.6,2.6,6.5,4,9.7c3,6.5,3.1,14,7.1,20.1c1.7,2.5,3.2,5.1,4.9,7.5c3.5,4.8,5.4,10.5,8.5,15.6
		c2.8,4.6,6.5,8.2,10.8,11.3c5.1,3.7,10.3,7.2,16.1,9.4c8.2,3.1,16.4,7,25.5,6.2c8.2-0.7,16.3,0.2,24.5-0.5
		c4.9-0.4,9.9-1.5,14.2-4.1c6.8-4,13.6-8.1,17.7-15.3c1.2-2.1,2-4.4,3-6.6c0.9,6.3-1.5,11.3-5.6,15.9c-3.9,4.4-8,8.8-13.1,11.9
		c-4.8,2.9-10.3,3.8-15.6,5.2c-9.4,2.5-19.1,1.8-28.7,3.1c-10,1.3-20,0.3-29-5.4c-6.8-4.3-13.5-9.1-18.8-15
		c-7-7.8-11.9-17-14.2-27.6c-2-9.5-5.9-18.6-8.6-27.9C308.5,732.1,306.8,727.7,306.9,723.1z"/>
	<path class="st7" d="M233.6,177.3c-4.7,7.2-9,14.5-12.7,22.3c-3,6.3-4.9,13-7.4,19.5c-1.2,0.9-2.2,0.2-3-0.6
		c-5.7-6.6-13.1-11.4-19.3-17.4c-1.7-1.7-2.5-3.4-1.6-5.7c4.4-12.4,8.8-24.8,17.3-35.1c1.8,0.1,3.1,1.3,4.4,2.4
		c3.2,2.6,6.6,5,9.7,7.7c3,2.6,6.7,3.7,10.2,5.3C232,176,233.1,176.2,233.6,177.3z"/>
	<path class="st2" d="M524.9,537.9c0.5,2.1,2,3.6,3.3,5.2c4,4.6,7.4,9.7,11.2,14.5c1.1,1.5,2,3,2.2,4.8c1,7.2,2.3,14.3,0.9,21.5
		c-0.5,2.4-1.4,4.7-2.4,6.9c-1.6,3.4-3.6,6.5-4.8,10.1c-1.4,4.4-4.8,7.6-8.3,10.5c-2.2,1.8-4.4,3.5-6.7,5.2c-3.6,2.6-7.4,3.5-11.7,1
		c0,1.3,0,2.5,0,3.6c-1.4-2.6-0.9-5.5-0.3-7.8c0.8-3.1,0.6-6.1,0.8-9.2c0.1-1.4-0.1-2.8,0.8-4c6,3.8,4.4,9.1,2.6,14.5
		c3.5-2.4,6.4-4.8,5.3-9.5c-0.4-1.7,0.4-3.2,1.9-4.4c4.5-3.7,8.6-8,10-13.7c2.5-10,1.9-18-8-25c-1.4-1-2.9-2.3-2.1-4.2
		C521.9,551.2,522.8,544.4,524.9,537.9z"/>
	<path class="st2" d="M365.8,445c-0.7,1-1.9,1.2-3,1.5c-8,2.3-16.3,2.2-24.1,0c-6.9-2-13.5-5.1-20-8.3c-0.3-0.1-0.5-0.3-0.7-0.5
		c-7.1-7.2-14.7-13.9-19-23.5c-1.3-3-3.3-5.7-5.1-8.4c-1.2-1.7-2.7-2.8-5.2-2.8c-3.8,0.1-6.1-2-7.1-5.7c-0.9-3.2,0-5,3.6-7.4
		c2.5-1.6,5.3-3,7-5.6c0.2,0.6,0.5,1.2,0.6,1.8c1.2,3.9,3.2,5.4,7.3,5c1.3-0.1,2.4-0.2,2.6,1.2c1.1,6.9,5.6,12.2,9,17.9
		c5.5,9.5,12.6,17.7,21.1,24.6c4.2,3.4,9.2,5.3,14.3,7.1c5.3,1.9,10.7,2.7,16.3,2.4C364.2,444.4,365.1,444.2,365.8,445z"/>
	<path class="st6" d="M202.3,158.7c-7.7,10.2-11.9,22.1-16.5,33.8c-1,1.2-1.6,0.3-2.2-0.4c-1.3-1.4-2.3-3-3.3-4.6
		c-3.8-5.9-8.5-11-13.8-15.6c-1.5-1.3-3.8-2.3-3.4-5.1c0.2-3.6,2.3-6.4,3.7-9.6c1.9-4.3,4.8-8.1,6.6-12.5c0.6-1.5,1.7-2.7,2.5-4.1
		c3-0.3,5,1.6,6.8,3.3c5.3,5.3,11.5,9.3,18.1,12.6C201.4,157.2,202.5,157.5,202.3,158.7z"/>
	<path class="st8" d="M189.6,195.3c-0.4,2.3,0.7,3.8,2.3,5.4c6.3,6,13.6,10.9,19.3,17.6c0.6,0.7,1.4,0.9,2.3,0.9
		c-2.9,13.2-7.1,26.1-8.5,39.7c-1.9-1.7-2.7-4-4.1-6c-5.2-7.6-9.7-15.7-15-23.1c-1.1-1.6-2-3.3-2.7-5.1c0.1,0.6,0.2,1.3-0.9,1.3
		c1-6.2,2-12.4,3.8-18.4C187.3,203.4,188,199.2,189.6,195.3z"/>
	<path class="st9" d="M262.7,195.3c-8.4-5.2-16.4-11.1-25-15.9c5.1-8,9.2-16.8,16.5-23.2c3.4-0.1,6.4,1.4,9.2,3
		c4.6,2.6,9.3,4.9,14,7.1c0.8,0.3,1.6,0.6,2,1.5c-4.5,6.2-8.9,12.6-12.4,19.4C265.6,189.8,264.1,192.5,262.7,195.3z"/>
	<path class="st10" d="M233.6,177.3c-8.6-2.6-15.3-8.3-22.1-13.7c-1.5-1.2-3-2.3-4.5-3.4c3.8-6.5,7.4-13.2,13.9-17.6
		c1.9-0.7,3.5,0.3,5,1.1c2.2,1.2,4.5,1.9,6.8,2.5c6.2,1.6,11.7,4.8,16.9,8.4c-6.5,5.5-9.6,13.3-14.2,20.2
		C234.7,175.6,234.2,176.5,233.6,177.3z"/>
	<path class="st1" d="M229.8,278.5c1.7,0.4,0.4,1.1,0.1,1.5c-6,8.9-10.5,18.7-15.6,28c-2.6,4.7-4.5,9.7-6.4,14.7
		c-0.7,1.9-2.1,3.3-2.9,5c-3.2,6.4-5,13.2-5.6,20.2c-0.2,2.1-0.7,4-1.2,6c-1.1,4-2.4,8.2-2.7,12.3c-0.4,7.1-1.7,14.1-2.5,21.2
		c-0.5,4.3-1.5,8.5-1.2,13.1c0.5,10.3,0,20.7,0.3,31c0.3,9,1.2,18,2.5,26.9c0.4,2.6,1.2,5.3,1.4,8.3c-0.6-0.7-0.9-1.1-1.2-1.5
		c-2.3-4.4-2.6-9.5-4.1-14.2c-3.7-11.1-4-22.6-4.2-34.2c-0.1-7.1,1.4-14,1-21.1c-0.4-5.4,2.7-26.8,3.2-30.3
		c0.6-3.6,0.6-7.3,1.2-10.9c1.5-9.5,5.6-18,9.1-26.8c3.6-8.8,7.6-17.2,12.2-25.5C214.6,299.5,225.6,283.5,229.8,278.5z"/>
	<path class="st11" d="M227.6,558.3c11.8,0,22.8-10,24.4-22c0.9-6.9,0.7-13.8,0-20.8c-0.2-1.8-1.5-3-1.7-4.7
		c4.2,3.5,7.7,7.5,9.3,12.8c0.5,1.5,0.6,2.8-0.8,3.8c-4.2,2.9-3.7,7.2-3,11.3c0.8,4.6,3.9,8,6.5,11.7c0.6,0.9,0.5,1.2,0.1,2
		c-2.6,4.9-6.7,8.3-11.1,11.4c-2.8,2-5.4,4.3-8.5,6.1c-5,2.9-10.3,5-16.1,5.8c-1.6,0.2-2.6-0.1-3.2-1.8c-1.5-4.2-3.1-8.3-4.7-12.4
		c4.7-0.3,9.1,1.3,13.6,0.8c0-0.3,0-0.6,0-0.9C230.8,560.4,229.2,559.3,227.6,558.3z"/>
	<path class="st4" d="M546.6,759.2c-9.1,0.3-18.3,0.8-27.2-1.7c-3.1-0.8-6-2-8.6-4c-2.5-1.9-5.1-3.6-7.7-5.2
		c-2.5-1.6-4.6-3.5-6.3-5.9c-3.8-5.2-8.4-9.6-12.8-14.3c-2.3-2.4-3.9-5.3-4.8-8.6c-1.2-4.4,1.2-8.1,5-8c1.4,0.1,2.3,0.5,2.8,1.9
		c2.3,7.2,7.1,12.4,13,16.9c3.7,2.8,6.9,6.1,10.2,9.3c1.7,1.7,3.6,3.2,5.7,4.1c4.8,2.1,14.2,8,14.5,8.6c3.1,1.5,6.4,3.1,9.8,3.9
		C542.5,756.8,544.4,758.5,546.6,759.2z"/>
	<path class="st2" d="M135.8,764.3c-1.7,1.9-1.8,4.1-1.1,6.5c2,6.3,4.4,12.4,10.4,16.2c0.2,0.1,0.3,0.3,0.4,0.4
		c10.3,5.4,19.5,12.6,30.5,16.5c1.5,0.5,2.9,0.7,4.4,0.8c2.5,0.2,5.1-0.5,7.5,0.5c-9.5,0.2-19.2,1-28.4-1.3
		c-10.3-2.6-19.2-8.4-26.1-16.7c-4.2-5-7.7-10.2-9.4-16.5c-1.5-5.6-2.7-11.2-1.2-17c1.4-5.1,4.2-9.1,9.6-10.8c1.3-0.4,2.7-0.8,4,0
		c-0.2,1,0.4,1.6,0.8,2.3c2.4,4.5,0.4,9-4.7,9.8c-1.4,0.2-1.7,1.3-2.5,2.1c-2.2,0.8-2.3,3.8-0.2,5.7
		C131.6,764.2,133.7,764.5,135.8,764.3z"/>
	<path class="st5" d="M154.6,432.4c6.9,4,13.8,8,20.7,11.9c2.1,1.2,3.4,2.9,3.6,5.1c0.3,6.8,2.8,12.9,4.9,19.2c0.3,1,0.3,1,0.1,2.5
		c-5-2.4-10-4.8-15-7.2c-5.6-2.6-11.2-5.1-16.8-7.8c-1.6-0.8-3.5-0.6-4.9-1.9c0.1-0.4,0.1,0.1,0.1-0.3c-0.5-5.1,1.1-9.3,4.8-12.9
		c0.8-0.8,0.5-1.9,0.1-2.9c-0.5-1-1.1-2-1.2-3.1C151.4,433.2,153.3,433.3,154.6,432.4z"/>
	<path class="st9" d="M202.3,158.7c-3-2.5-6.9-3.7-10.1-6c-3-2.1-6.1-4.1-8.5-6.8c-2.2-2.4-4.9-4-7.9-5.2c2.8-5,5.9-9.8,9.7-14
		c0.6-0.3,1.1-0.2,1.6,0c9.6,3.9,18.7,8.9,27.9,13.6c0.3,0.1,0.4,0.4,0.5,0.6C209.8,146,206.2,152.4,202.3,158.7z"/>
	<path class="st7" d="M171.7,138.1c-5.1,7.3-7.9,15.9-11.9,23.8c-0.2,0.3-0.1,0.7-0.2,1.1c-1.8,0.2-2.3-1.4-3-2.5
		c-3.7-6.3-8.1-12-12.9-17.5c-1.6-1.8-2.3-3.3-1.6-5.5c1-5.5,3.8-10.3,6.4-15.1c3.4,0.3,5.6,2.7,8.1,4.6c0.9,0.7,1.6,1.7,2.7,2
		c4.9,1.2,7.7,5.5,11.7,8C171.3,137.2,171.5,137.7,171.7,138.1z"/>
	<path class="st2" d="M473.4,415.6c-3.4-1.1-6.7-1-10.1-1c-9.8,0-17.5-4.6-24.7-10.4c-7.4-5.9-11.4-13.8-12.8-23.1
		c-0.5-3.6-3.1-6.2-4.2-9.5c-0.2-0.6-0.8-0.8-1.4-0.8c-4.5,0.2-9,0.5-13.2,2.4c-0.3,0.1-0.4,0.6-0.5,0.9c-1.6-5.6-0.6-6.7,5.2-7.4
		c5.4-0.6,10.9-0.6,16-2.7c1.4-0.6,1.7,0.5,1.9,1.3c1.2,3.3,2.3,6.7,3.2,10.1c2.8,11.9,9.1,21.5,18.9,29c4.7,3.6,9.9,5.7,15,8.2
		c2.1,1.1,4.4,1.5,6.9,1.4c0.4,0,1.3-0.3,1,0.7C474.5,415.3,473.7,415.5,473.4,415.6z"/>
	<path class="st12" d="M163,166.9c0.3,2,2,3,3.3,4.1c6.8,5.5,12.2,12.2,16.9,19.6c0.5,0.8,0.9,2.5,2.6,1.9
		c-2.7,8.4-5.1,16.9-6.8,25.5c-1.4-2.1-1.8-4.7-3.1-6.9c-1.3-2.4-2.5-4.9-4.5-6.8c-5.7-5.8-8.7-13.4-13.2-19.5
		c-0.2-0.7-0.6-0.3-0.3-0.4c0.1-0.1,0.2,0,0.2,0.2c0.3,0.9,0.5,1.7-0.8,1.8c-0.2-5.4,2.6-10.1,4.1-15.1
		C161.9,169.7,162.5,168.3,163,166.9z"/>
	<path class="st10" d="M305.9,181.7c-3.2,2.6-7.3,3.3-10.9,5.1c-7.9,3.9-15,9.4-22.7,13.7c-2.5,0.3-4.2-0.9-5.5-2.9
		c4.6-9.1,7.9-19,15.2-26.6c0.5-0.5,1-0.9,1.5-1.3c0.6-0.1,1.1-0.3,1.7-0.1c5.1,2,10.6,2.6,15.7,4.7
		C304.3,175.8,306.3,178.6,305.9,181.7z"/>
	<path class="st3" d="M184.3,615.3c-5.7,0.9-8.7,4.3-10.4,9.5c-2.3,7.1-8.7,8.5-14.9,4c-6.2-4.6-7.8-11.1-8.4-18
		c-0.3-4-0.7-8.2,0.8-12.7c3.5,5.4,9.4,5.7,14.3,7.8c0.8,0.3,1.6,0.5,2,1.4c2.8,5.3,7.9,6.3,13.2,6.5
		C182.3,613.8,183.4,613.7,184.3,615.3z"/>
	<path class="st4" d="M530.1,508c7.4,2.8,12.8,7.7,16.2,14.9c3.4,7.3,7,14.5,8.3,22.4c0.8,4.9,0.7,10-0.4,14.9
		c-0.3,1.3-1,2.2-2.5,2.2c-1.6-0.1-1.3-1.4-1.4-2.3c-0.9-8.3-4.4-16-9.2-22.3c-4.1-5.4-7.9-11.5-13.5-15.7
		C528,517.3,529.3,512.7,530.1,508z"/>
	<path class="st2" d="M311.9,766.5c-5.1,0.1-9.7,2.6-14.9,2.5c-5.1-0.1-9.7-2.3-15.3-2.4c10.3-11.3,13.5-25.3,18.6-38.6
		C304,741,308.7,753.4,311.9,766.5z"/>
	<path class="st5" d="M158.5,400.3c2.3,0.5,3.9,2.4,5.5,3.8c3.4,3.1,7.5,5.3,10.4,9c3,3.8,4.5,8.2,3.7,13c-0.4,2.3-0.4,4.5-0.1,6.7
		c0.2,1.5-0.1,2.1-1.7,2.5c-3.7,1.1-6.9-0.6-10-2c-3.8-1.7-7.3-3.9-10.4-6.7c-1.3-1.2-2.9-1.6-4.4-2.4c0.3-3.7,1.6-7,3.9-10.1
		c1.5-2,1.9-4.5,2.5-6.8C159.8,405.1,159.3,402.7,158.5,400.3z"/>
	<path class="st5" d="M150.5,461c7.5,4.4,15.3,8.2,23.2,12c5.8,2.8,10.5,6.9,14.8,11.5c1.8,2,1.5,2.6-0.8,3.7
		c-3.2,1.6-6.2,0.3-9-0.4c-8.6-1.9-17.1-4.3-25.6-6.5c-0.4-0.1-0.8-0.4-1.3-0.6c-0.5-1.1-1.6-1.5-2.2-2.5c-2.3-3.7-2.4-7.2,0.2-10.7
		c1.2-1.6,1.5-3.2,0.5-4.9C150.1,462,150.1,461.5,150.5,461z"/>
	<path class="st13" d="M522.6,392.3c8.8-5.3,16.9-11.6,26.3-15.9c0.9-0.4,1.7-0.7,2.6-1.1c0.5,1.3-0.6,1.8-1.2,2.6
		c-6.7,8.6-13.2,17.4-20.1,25.9c-1.6,1.9-2.4,4.3-3.5,6.4c-6.6,2.9-13.1,5.7-19.7,8.5c-0.9,0.4-1.7,0.9-2.7,0.8
		c-0.1-0.5,0-0.9,0.3-1.3c4.5-7.4,8.4-15.1,13.8-21.9C519.6,394.8,521,393.5,522.6,392.3z"/>
	<path class="st14" d="M391.7,372.2c-2.2,3.1-5.1,5.5-8.4,7.5c-1.3,0.8-2.7,1-4,1.1c-10.1,0.7-20.1,2.2-29.9,5.1
		c-2.6,0.8-6,1.5-8.5-1.4c-0.6-0.8-1.3-1.3-0.6-2.3c0-0.5,0.3-0.9,0.6-1.2c5.5-3.5,11.6-5.8,17.8-7.8c7.1-2.3,14.1-4.7,21.5-5.6
		c2.1-0.3,4.1-0.4,6.2-0.1c1.4,0.2,2.8,0.4,3.7,1.8C390.6,370.2,391.1,371.2,391.7,372.2z"/>
	<path class="st2" d="M340.9,381.5c-0.2,0.2-0.4,0.5-0.6,0.7c-6,2.3-10.8,6.3-15.5,10.7c-2.4,2.2-5,4.1-8.4,4
		c-1.9-2.8-3-5.9-3.8-9.2c-0.4-1.7,0.6-3.3,2.1-4.3c5.7-4,11.6-7.7,18.2-9.9c6.1-2,12-5,18.5-5.5c3-0.2,5.7-2.1,8.8-1.8
		c0,1.4-1.3,1.4-2.1,1.8c-3.9,1.9-7.6,3.9-11.3,6.2C344.1,376.1,341.7,378.2,340.9,381.5z"/>
	<path class="st15" d="M526.6,410.2c0.3-4.6,3.4-7.8,6-10.9c5.2-6.2,9.9-12.8,14.9-19.2c1.3-1.6,2.6-3.2,3.9-4.8
		c8.7-4.5,17.6-8.4,26.4-12.5c-1,3-3.8,4.3-5.6,6.6c-0.9,0.8-1.6,1.7-2.7,2.4c-4.1,1.3-7.7,3.4-11.2,5.8c-3.5,2.5-3.7,3.1-1.6,6.8
		c-2.5,4.7-5.7,8.9-9.1,12.9c-1.6,1.9-3.1,4-5.2,5.4C537.3,405.4,532.4,408.7,526.6,410.2z"/>
	<path class="st15" d="M590.4,383.9c-1,1-2.2,1.4-3.5,1.8c-7,2.6-13.9,5.1-20.9,7.7c0.2-2.6,2-4.4,3.6-6.1c5.3-5.7,9.9-12,15.4-17.5
		c1-0.8,2.1-1.4,3.3-1.9c7.3-2.1,14.5-4.4,21.7-6.7c0.9-0.3,1.8-0.6,2.7-0.3c1.2,1,0.2,1.7-0.4,2.3c-5.3,5-9.7,10.9-15.6,15.4
		C594.7,380.3,593,382.6,590.4,383.9z"/>
	<path class="st16" d="M182.3,225.9c0.6-0.5,0.8-2.3,2-0.5c6.7,10.6,13.4,21.2,20.1,31.8c0.3,0.5,0.4,1.1,0.6,1.6
		c-0.2,5.5,0.2,11-0.8,17.2c-3.9-6-7.5-11.5-10.9-17.1c-3.5-5.8-6.5-11.9-10.1-17.7C180.1,236.4,181,231.1,182.3,225.9z"/>
	<path class="st13" d="M590.4,383.9c1.4-1.9,3.1-3.6,5-5c6.2-4.5,10.7-10.8,16.3-15.9c0.5-0.5,0.9-1.2,1.4-1.8c0-0.5,0.3-0.8,0.7-1
		c8.1-2.4,15.8-6.2,23.8-8.8c2.7-0.9,5.3-2,8.2-1.8c1.1,1.3-0.2,1.9-0.9,2.3c-8.4,5.1-14.4,13-22.2,18.9c-7.1,2.2-13.6,5.8-20.4,8.9
		C598.5,381.4,594.4,382.5,590.4,383.9z"/>
	<path class="st17" d="M491.4,329.1c-0.2-2.6-1.2-4.9-2.9-6.9c-3.9-4.3-6.1-9.7-8.8-14.7c-4.1-7.6-9-14.5-15.1-20.6
		c-9.5-9.7-19.7-18.6-30.8-26.5c-6.3-4.5-11.9-9.7-18.3-14c1.2-0.9,2.1,0,3.1,0.5c3.7,1.7,7.3,3.4,11.1,5.2c0.2-1.7-1.9-2.6-1.1-4.2
		c7.7,6.1,15.3,12,22.1,19.2c7.9,8.5,15.3,17.4,22.3,26.5c5.9,7.6,12.3,15,15.8,24.3c1.2,3.1,3,6,4.3,9.2
		C493.8,328.6,493.5,329.7,491.4,329.1z"/>
	<path class="st12" d="M217.9,221.8c-0.3,3.7,1.3,6.2,4.4,8.2c2.8,1.8,5.4,3.8,8,5.7c0.6,0.4,1.2,0.4,1.9,0.5
		c-6.3,7.5-11.6,15.8-17.4,23.6c-2.2,2.9-3.3,6.3-4.5,9.6C209.3,252.9,214.1,237.4,217.9,221.8z"/>
	<path class="st16" d="M305.9,181.7c-0.9-5.8-5.7-7.1-10.2-8.3c-4.2-1.1-8.4-2.1-12.3-3.7c3.1-2.6,6.1-5.3,9.7-7.2
		c1.2-0.7,2.4-0.9,3.8-0.3c7.9,3,15.8,6,23.8,9c0.6,0.2,1.2,0.6,1.8,0.9c1.5,0.7,1.6,1.4,0.3,2.6c-2.8,2.4-5.4,4.7-9.6,4.8
		C310.7,179.5,308.3,180.9,305.9,181.7z"/>
	<path class="st13" d="M585.6,370c-4.7,5.4-9.3,10.9-14.1,16.2c-2,2.2-3.8,4.6-5.4,7.1c-7.7,3.4-15.5,6.6-23.5,9.4
		c2.4-4,6.1-7,8.7-10.9c1.7-2.5,3.3-5.2,5.4-7.4c0.2-1.2,1.3-1.8,2.1-2.5c7.8-4.5,15.7-8.7,24.1-11.8
		C583.8,369.9,584.6,369.5,585.6,370z"/>
	<path class="st3" d="M149.4,504.4c-2.6,0.4-5.2-0.4-7.8-0.4c-1.9,0.5-3.9-0.2-5.8,0.4c-4.1,0.2-5.6-1.1-5.3-4.3
		c0.2-1.4,1.2-2.1,2-2.9c3.4-3.2,5.5-6.9,5.1-11.7c0.7-1.4,2-1.6,3.3-1.7c3.6-0.2,7.1,0.6,10.6,1.4l0.1,0c5,4.7,5.4,10.1,0.9,15
		C151.4,501.6,151.1,503.5,149.4,504.4z"/>
	<path class="st15" d="M622.6,370.7c5.8-6,11.5-12.2,18.4-17c1.7-1.2,3.8-2,5-4c0.3-1.2,1.5-1.2,2.4-1.7c5.8-2.4,11.6-4.9,17.8-6.3
		c1.9-0.4,3.7-0.8,5.6-0.1c1.1,0.8,0.3,1.6-0.2,2.1c-5.1,5.4-10.5,10.5-17.1,14.1C643.8,361.9,633.1,366,622.6,370.7z"/>
	<path class="st8" d="M142,137.5c-0.8,2.7,1.4,3.9,2.8,5.6c4.6,5.7,9.1,11.5,12.9,17.8c0.5,0.8,1,1.6,1.9,2.1
		c-1.4,5.3-3.6,10.3-5.6,15.4c-1.2-2.9-3.2-5.2-5.3-7.5c-3.1-3.4-4.2-8-6.6-11.8c-0.8-1.3-1.6-2.7-2.5-3.8c0.3,2.7,0.9,5.3-0.5,7.9
		c-1.3-2-0.7-4.3-0.5-6.3C139.4,150.3,139.5,143.7,142,137.5z"/>
	<path class="st6" d="M157.4,186.2c0.8-0.6,0.4-1.6,0.9-2.7c2.1,3.2,4.4,6,5.9,9.2c2.2,4.5,5.5,8,8.5,11.9c3.1,4,5.6,8.3,6.3,13.4
		c-0.7,4-1.4,7.9-2.1,12.2c-1.4-0.8-2-1.8-2.5-2.8c-4.6-10-10.3-19.4-15.8-28.8C156.3,194.9,156.5,190.5,157.4,186.2z"/>
	<path class="st10" d="M171.7,138.1c-2.7-1.7-5.4-3.4-7.5-5.8c-0.3-0.3-0.7-0.8-1.1-0.9c-5.9-1.4-9.3-6.8-14.7-9.1
		c1-2.7,2.6-5,4.6-7c0.7-0.4,1.4-0.3,2.2-0.1c7.5,2.4,15.1,4.5,22.5,7.3c1.1,0.4,2.4,0.6,2.9,2c-0.4,1.8-1.5,3.3-2.6,4.5
		C175.4,131.8,173.4,134.8,171.7,138.1z"/>
	<path class="st18" d="M272.8,508.5c2.4,5.9,4.7,11.9,6.4,18.1c0.9,3.1,1.3,6,0.5,9.2c-0.3,1.3-1,1.7-2.2,1.6
		c-1.1-0.1-2.7,0.4-2.8-1.1c-0.2-2.9-2.2-4.7-3.7-6.6c-2.7-3.2-3.2-7.3-4.9-10.9c-4.1-8.7-6.9-18.2-14.6-24.6c-3.2-2.7-7-4.6-10.9-6
		c1.2-2.4,3.3-1.1,5-1.2c2.4,1.5,4.4,3.5,6.4,5.4c3.5,3.5,8.4,5.1,11.1,9.5c0.8,1.4,1.6,2.8,2.6,4
		C267.8,508.8,269.4,509.4,272.8,508.5z"/>
	<path class="st11" d="M517,356.1c-1.3,0.1-2.6-0.2-3.8-0.7c-0.3-0.2-0.4-0.4-0.4-0.7c1.2-5.4-0.8-9.2-6-11.5
		c-4.7-2-9.4-2.7-14.5-0.8c-7.6,2.8-15.4,5-23.1,7.6c-2.8,1-5,2.9-7.8,3.9c-0.3,0.1-0.6,0-0.8-0.2c-5.6-0.8-11,1-16.5,1.6
		c-0.5-4.4,4-6.9,9.1-8.5c5.9-1.8,12.1-1.7,17.9-3.4c6.7-2,13.7-2.6,20.5-3.6c5-0.8,10.2-1.7,15.4-0.8c5.4,0.9,7.5,2.7,8.6,8.1
		C516,350.2,517,353,517,356.1z"/>
	<path class="st5" d="M124.5,477.9c0.9,1,1.7,2,2.6,3c2.6,2.5,3.1,4.2,1.4,7.3c-2.1,4-5,7.5-5.2,12.3c0,0.8-1.1,1.7-1.9,2.4
		c-2.8,2.9-5.4,6-7.7,9.3c-0.5,0.7-1.1,1.5-2,1.4c-0.9-0.1-0.7-1.2-0.9-1.9c-0.4-1.7-0.7-3.5-1.4-5.1c-1.7-3.9-0.4-7.5,0.9-11.1
		c1.6-0.3,2.6-1.3,3.6-2.5c2.9-3.7,5.8-7.4,7.8-11.8C122.3,479.8,122.9,478.4,124.5,477.9z"/>
	<path class="st5" d="M257.1,575.9c-9.2,5.6-26.9,9.7-35.1,7.8c13.6-5.8,27.1-11.7,38.3-21.5c1.2-0.2,2.2-1.1,3.4-1.1
		c1.7-0.1,3.3,0.2,4.2,1.7c1,1.6,0.2,3-0.9,4.3C264.2,570.5,261.1,573.7,257.1,575.9z"/>
	<path class="st3" d="M525,578.8c0.1,7.3-1.1,14.1-8,18.4c-1.4,0.9-2.5,1.3-3.5-0.4c-0.1-0.2-0.3-0.5-0.6-0.6
		c-4.1-1.6-2.6-4.8-1.8-7.5c0.9-3.1,1.7-6.1,1.9-9.3c0.2-4.3,1.9-8.2,2.8-12.3c0.3-1.4,1.2-1.4,2-0.6
		C521.5,569.8,525.5,573.1,525,578.8z"/>
	<path class="st4" d="M567.7,738.5c-1.5,1-3.1,0.5-4.7,0.5c-5.4,0-10.9,0.2-16.3-0.8c-5-1-9.4-3.4-13.7-5.8
		c-5.7-3.3-10.8-7.5-16.1-11.4c-1.1-0.8-1.8-1.9-2.2-3.2c-0.6-2-1.2-3.9-2.1-5.8c-0.8-1.6-1.2-3.1,0-4.6
		c4.5,8.4,20.9,20.3,29.2,23.3c6.5,2.4,13.1,4.6,20,6C563.8,737.1,565.8,737.9,567.7,738.5z"/>
	<path class="st19" d="M138.2,134.7c-1.8,6.3-3.1,12.7-3.5,19.7c-4.3-4.7-6.2-10.4-9.7-15.2c-5.7-7.8-3.7-15.7-1-23.8
		C129,121.6,133.2,128.5,138.2,134.7z"/>
	<path class="st20" d="M513.9,731.7c7.7,3.7,15.7,6.8,23.1,11.2c10,5.8,20.5,6.9,30.9,0.7c0.6-0.3,1.1-0.7,1.8-0.7
		c0.3,0.4,0.5,0.8,0.8,1.1c0.8,1.1,2.4,2.7,2.2,3.1c-0.9,1.3-2.3,2.4-3.7,3.3c-3,2-6.5,2.8-10,3.3c-1.7,0.2-3.3,0.4-5,0.6
		c-7,0.9-12.4-3.2-18-6.3c-6.9-3.9-13.2-8.9-19.6-13.6C515.5,733.6,514.8,732.6,513.9,731.7z"/>
	<path class="st5" d="M167.3,377.7c3.1,3,4.9,7,7.7,10.3c0.4,0.4,0.6,0.9,1,1.3c2.6,2.3,3.7,5.1,3,8.5c-0.5,2.6-0.7,5.2-0.5,8
		c-2.2-0.3-3.6-1.8-5.1-2.8c-3.4-2.2-7.8-2.6-10.9-5.6c-3.4-4.9-2.6-10,0.2-14.9c0.7-1.2,1.6-2.3,2.5-3.3
		C165.8,378.5,166.3,377.8,167.3,377.7z"/>
	<path class="st5" d="M127.3,446.9c1.8,0.6,2.9,2.3,3.6,3.7c1,1.9-0.9,4-1.9,5.3c-4.2,5.1-8,10.6-12.9,15.1
		c-3.1,2.8-5.6,6.2-7.5,10.7c-1-2.5-2.2-4.4-2-6.7c-0.3-8.2,4.6-13.9,9.7-19.4c1.7-1.9,3.6-3.6,5.3-5.4
		C123.1,448.5,125,447.3,127.3,446.9z"/>
	<path class="st21" d="M134.6,409.3c2,9.6-3.2,16-9.7,21.8c-4.4,3.9-8.4,8.3-11.9,13.1c-1.8,2.5-4.2,4.6-5.9,7.3
		c0.4-6.4-1.9-13.4,4.2-18.4c4-4.7,8.4-8.9,13.5-12.3c3.2-2.1,5.1-5.5,7.9-8C133.8,411.8,132.9,409.8,134.6,409.3z"/>
	<path class="st6" d="M279.4,167.7c-5-2-10-3.9-14.4-6.9c-3.3-2.2-7.3-2.8-10.8-4.6c0.7-1.3,1.7-2.3,2.7-3.2c3-2.6,5.9-3.9,10.2-2
		c5.8,2.6,11.8,4.8,18,6.6c2.8,0.8,3.1,2.1,0.9,4.1C283.8,163.7,280.8,164.8,279.4,167.7z"/>
	<path class="st3" d="M150.6,462.2c1.5,1.6,1.5,3.2,0.2,5.1c-3.6,5.1-3.3,8.1,0.9,12.5c0.4,0.5,0.9,0.7-0.1,1
		c-5.9-2-11.9-3.9-18.1-5.2c-1.4-0.3-1.5-2-2.1-3c-1.4-2.6-0.1-6.1,2.4-7.8c2.4-1.6,4.5-3.4,6.1-5.7
		C144.2,458,147.4,460.1,150.6,462.2z"/>
	<path class="st22" d="M340.9,381.5c-0.6-2.9,1.2-4.6,3.2-6.1c4.9-3.8,10.6-6.4,16.1-9.2c5.5-1.7,11.1-3.4,16.9-3.5
		c1.3-0.2,2.6-0.1,3.9-0.4c2.9-0.6,4.6,1.6,6.8,2.8c1.5,0.9,1.9,2.4,2.3,3.9c-5.3-2.3-10.5-0.9-15.7,0.3c-9.3,2-18.2,5.2-26.9,8.8
		C345.2,379.2,343.3,380.7,340.9,381.5z"/>
	<path class="st15" d="M522.6,392.3c-6.6,7.1-11.2,15.5-16.1,23.7c-0.7,1.2-1.5,2.4-2.3,3.5c-4.8,2.7-9.9,4.8-15.1,6.7
		c-0.6-1.9,0.4-3.6,1.4-5c4.7-6.4,9.3-12.9,14.5-18.9C510.8,399.1,516.7,395.7,522.6,392.3z"/>
	<path class="st13" d="M654.5,357.8c5.2-4.6,11.2-8.3,15.7-13.6c0.6-0.7,1.2-1.4,1.8-2.1c0.2-0.3,0.5-0.5,0.8-0.7
		c1.8-0.5,3.7-0.4,5.6-0.3c5.7,0.3,11.4-0.4,17.1-0.9c1.5,0.5,1.1,1.4,0.2,2c-4.1,2.5-7.3,6.1-11.2,8.8
		C674.6,353.6,664.5,355.6,654.5,357.8z"/>
	<path class="st3" d="M151.1,434.9c0.3,0.5,0.5,1,0.8,1.5c1.6,2.3,1.9,4.3-0.5,6.6c-2.7,2.5-4.4,5.6-3.1,9.5c0.3,1,0,1.6-1.1,1.7
		c-0.9-0.7-2.1-0.6-3.2-0.8c-4.1-1-7-3.9-9.5-6.9c-1.2-1.5-1.3-4.2,0.2-5.7c2.5-2.4,5.3-4.5,6.2-8.1c0.1-0.3,0.5-0.4,0.8-0.7
		c1.8-1.2,3.4-0.1,4.9,0.7C148,433.5,149.5,434.3,151.1,434.9z"/>
	<path class="st2" d="M387.4,756.6c1.7,5,5.5,8.1,10.4,9.7c1,0.3,1.8,0.7,1.8-1c0-2-0.5-4.4,1.9-5.4c3.5-1.6,6.9-4.1,11.2-2.3
		c0.6,0.3,0.8,0.6,1.4,0.8c-1.2,1,0.1,2.2,0,3.3c-0.7,6.3-7.3,11.4-14.2,11.8c-6.7,0.5-11.2-2.9-12.8-9.7
		C387,761.7,386,758.6,387.4,756.6z"/>
	<path class="st16" d="M249.6,154.6c-2.9-1.4-5.8-2.7-8.6-4.2c-3.2-1.8-6.5-3.2-10.2-3.9c-3.6-0.6-6.3-3.3-9.9-3.9
		c2.1-1.8,4.2-3.5,6.2-5.3c0.6-0.5,1.2-0.8,2-0.5c9.4,3.5,18.8,7,28.7,10.7C254.8,150,252.5,152.6,249.6,154.6z"/>
	<path class="st5" d="M178.5,355.8c1.9,2,3.3,4.5,3.1,7.2c-0.3,6.1,1,12.1,0.1,18.1c-0.2,1.1-0.2,2.2-1,3.2
		c-6.2-4.3-10.3-10.5-15.4-15.7c0.3-2.4,2.5-3.4,3.8-5.1c1.6-2.2,3.5-4.2,5.1-6.3C175.7,357.1,177.1,356.5,178.5,355.8z"/>
	<path class="st13" d="M505,402.5c-3,4.5-5.9,9.1-9.5,13.1c-2.9,3.2-5,6.7-6.4,10.8c-4.9,2.6-10.1,4.7-15.3,6.7
		c0.3-5.1,2.3-9.5,5.3-13.5c0.5-0.7,1.2-1.2,1.6-1.9c6.9-3.5,13.1-8.3,19.6-12.5C501.8,404.1,503.4,403.3,505,402.5z"/>
	<path class="st2" d="M626.2,728.2c0.9,4.2,1.6,4.7,1.4,8.8c-0.6,2.4,0,4.9-1,7.4c-1.8,4.5-4.1,8.4-8.8,11.1
		c0.1-9.7,0.7-19.4-3.4-28.4C617,723.2,623.1,723.7,626.2,728.2z"/>
	<path class="st6" d="M138.2,134.7c-1.4-0.1-1.7-1.4-2.4-2.2c-4.2-4.9-7.2-10.6-11.5-15.5c-0.3-0.4-0.2-1.1-0.3-1.6
		c0.6-2.1,0.7-4.4,2.2-6.3c2.4-0.3,3.9,1.6,5.8,2.5c3.9,1.9,7.1,4.9,10.9,7.1c0.7,0.4,1.1,1,1.2,1.8c-1.9,4.2-3.7,8.4-5.6,12.6
		C138.2,133.7,138.3,134.2,138.2,134.7z"/>
	<path class="st5" d="M149.4,504.4c0.5-2.1,1.8-3.7,3.4-5.3c2.8-2.8,3-6.5,1-10.2c-0.7-1.2-1.4-2.4-2.1-3.6
		c4.6,0.6,8.7,2.9,13.1,4.1c2.7,0.7,5.5,1.4,7.8,3.1c1.2,0.9,1.7,1.5,0.1,2.4c-4.6,2.9-9.2,5.9-13.6,9.1c-1.1,0.8-2.6,0.3-3.9,0.3
		C153.4,504.5,151.4,504.4,149.4,504.4z"/>
	<path class="st6" d="M215.5,141c-4.3-1.3-8.1-3.6-11.9-5.8c-5.8-3.4-12.2-5.4-18.1-8.5c1.9-3.8,3.5-4.8,6.8-3.2
		c7.9,3.8,16.5,5.6,24.6,8.8c0.6,0.2,1.3,0.4,1.8,0.7c3.7,2,3.7,3.3,0.2,5.6C217.8,139.4,216.7,140.2,215.5,141z"/>
	<path class="st4" d="M417.3,739.6c6.9,2.2,11.9,7,16.6,12.2c1,1.1,1.4,2.4,1.9,3.7c0.4,1.2,0.2,2.2-0.9,2.9c-1.1,0.7-2,0.3-2.8-0.6
		c-3.2-3.4-7.3-5.2-11.4-7.1c-3.6-1.7-7.4-1.9-11.3-1.6c-1,0.1-2.2,0.7-2.7-0.6c-0.5-1.3-0.3-2.5,0.7-3.7c2.3-2.6,5-4.5,8.4-5.4
		C416.2,739.6,416.8,739.6,417.3,739.6z"/>
	<path class="st23" d="M272.8,508.5c-1.1,2-2.6,1.7-4.3,0.9c-1.1-0.5-2.2-1-2.7-2c-3.8-7.8-11.5-11.6-17.5-17.1
		c-0.8-0.7-1.4-1.8-2.1-2.7c-0.9-3.2,0.4-4.5,3.9-4.1c7.8,2.2,13,7.2,16.7,14.4C268.6,501.5,270.8,504.9,272.8,508.5z"/>
	<path class="st4" d="M434.8,453.5c-1.2,0.7-2.5,1.2-4,1c-1.5-0.2-2.6-0.7-2.9-2.5c-1-5.9-3.5-11.5-5.1-17.2
		c-0.8-2.9-2.7-5.4-4.9-7.4c-1.3-1.1-1.4-2.1,0-3.1c4.4,1.8,9,3.3,12,7.5c1.7,2.4,3.1,5,3.6,7.9
		C434.3,444.2,434.7,448.8,434.8,453.5z"/>
	<path class="st5" d="M141.5,386.7c4.5,12-10.6,17.4-15.3,24.4c-4,3.9-8.5,7.3-13,10.8c4.9-8.5,8.6-17.8,16.4-24.3
		c2.7-0.7,3.9-3.2,5.7-4.9c1-1,1.8-2.3,2.6-3.6C138.8,387.7,139.7,386.6,141.5,386.7z"/>
	<path class="st4" d="M393.4,740.1c-5.1-6.8-7.8-14.5-8.3-22.9c-0.1-1.5,0.2-3,1.4-4.1c1.6-1.5,3.6-1.1,4.1,0.9
		c2.3,8.2,7.1,15,12.4,21.5C399.4,736.2,396.4,738.1,393.4,740.1z"/>
	<path class="st5" d="M123.9,506.6c2.4,2.3,4.7,4.7,7.1,6.8c1.8,1.6,2,3.1,0.4,4.9c-0.6,0.7-1.3,1.5-2,1.9c-3,1.7-5.3,4.1-7,7
		c-0.6,1-1.3,2.5-3,2c-1.6-0.5-2.7-1.5-3-3.3c-1.1-6,0.3-11.2,4.5-15.6C122,509.1,122.4,507.3,123.9,506.6z"/>
	<path class="st5" d="M199.8,608.1c-0.6-0.1-1.2-0.4-0.6-1.1c0.7-0.7,1.5-1.2,2.3-1.6c6.5-3.1,12.8-6.7,19.6-9.2
		c1.8-0.7,2.5-0.3,2.3,1.6c-0.3,2,0.9,3.8,1,5.8c0.1,0.6,0.5,1.3-0.2,1.8c-4.4,1.8-7.9,5.1-11.9,7.5c-3,1.8-3.7,1.8-5.8-1
		C204.9,609.6,202.4,608.9,199.8,608.1z"/>
	<path class="st24" d="M158.6,407.1c-0.1,3-1.1,5.6-2.8,8c-1.7,2.4-3.3,4.8-3.1,7.9c0.1,0.7-0.4,0.9-1,1.1c-5.1-1.1-7.9-4.5-9.3-9.4
		c-0.6-2-0.4-3.7,1.2-5.1c2.3-2,4.1-4.6,6.1-6.9c1-0.2,1.9,0.2,2.6,0.8C154.2,405.1,156.3,406.3,158.6,407.1z"/>
	<path class="st5" d="M184.5,597.9c6.5-3.1,13.4-5.3,20.2-7.7c3.9-1.4,8-0.3,12.1-0.8c1-0.1,1.9,0.9,2.3,1.9
		c0.4,1.1-0.4,1.7-1.3,2.2c-3,1.7-6,3.5-9.3,4.6c-3.4-0.7-6.2,1.1-9.2,2c-0.8,0.2-1.5,0.7-2.3,1.1
		C191.9,603.3,188,601.6,184.5,597.9z"/>
	<path class="st25" d="M89.8,99.3c-0.3,0.2-0.4,0.3-0.5,0.3c-4.1,1.1-4,1.1-4.4-3c-0.3-3-2.4-4.6-4.9-5.6c-2.1-0.8-3.7-2.1-5.4-3.6
		c4.2-1.3,6.9-4.6,10-7.3c1.6-1.5,2.7-1.6,4.5-0.1c3.1,2.5,5.9,5.2,8.3,8.7c-3,0.2-5.8,0.7-7.7,2.9C87.6,94,88.9,96.7,89.8,99.3z"/>
	<path class="st26" d="M286.5,254.2c-9.2-0.7-18.4-1.5-27.7-2.2c-0.7-0.1-1.3-0.1-1.8-0.6c1.3-0.5,1.9-2.1,3.4-2.4
		c6.8-0.7,13.5,0.6,20.2,1.2c0.2,0,0.4,0.1,0.6,0.1c1.3,0,2.9,0.8,3.6-1.1c0.6-1.6-0.9-4.3-2.5-4.9c-1.4-0.5-2.9-0.6-4.5-0.6
		c-2.5,0.1-4.9-0.2-7.3-0.6c-0.9-0.1-2,0-2.2-1.3c1-0.6,2-1.2,2.9-1.8c5.9-1.5,11.7-0.2,17.6,0.4c2.2,0.2,3.4,1.9,3.5,4.1
		c0.1,1.5,0.5,3,0,4.5c1.3,5.2,1.3,5.2-3.9,5.1C287.8,254.1,287.1,254.2,286.5,254.2z"/>
	<path class="st27" d="M684.6,351c2.5-3.8,6.3-5.9,9.8-8.6c0.7-0.5,1.3-1,2-1.5c0.2-0.3,0.4-0.5,0.7-0.6c3.6-0.6,7.3-0.3,11-0.2
		c4.2,0,7.7-1.7,11.1-3.6c1.4-0.8,1.4-1.6-0.1-2.4c-1.4-0.7-2.8-0.9-4.4-1c-1.4,0-2.8,0.3-4.1-0.6c-0.1-1.6,1.2-1.7,2.2-1.9
		c1.2-0.3,2.4-0.5,3.6-0.5c4,0.9,7.9,1.8,11.9,2.7c-1.6,2.7-4.5,3.9-7,5.5c-3.6,2.3-7,5-11,6.6c-2.7,1.8-5.9,1.7-8.8,2.5
		C696,348.8,690.3,349.8,684.6,351z"/>
	<path class="st28" d="M710.4,344.9c6-4,12-8,18-12.1c4.4,1.6,8.9,3.2,13.3,4.7c-2,2.6-4.7,4.2-7.3,5.9
		C726.4,344.7,718.4,343.9,710.4,344.9z"/>
	<path class="st29" d="M286.2,537.7c1.5,1.7,0.3,3.6,0.3,5.5c0,0.9-0.6,1.2-1.3,1.5c-3.4,1.8-7.2,2.8-10.9,3.8
		c-4.1,1.1-9.6-1.6-11.6-5.3c-1.5-2.9-3.1-5.7-2.7-9.2c0.1-1.2,0.1-2.2,1.7-2.3c1.2-0.1,2.4-1,3.3,0.7c0.7,1.2,1.4,2.4,1.8,3.7
		c0.7,2.6,2.3,4.7,3.9,6.7c1.2,1.6,3.2,0.9,4.8,0.7C279.6,542.9,283.4,541.3,286.2,537.7z"/>
	<path class="st1" d="M626.2,728.2c-4.3-3.6-7.5-3.9-11.9-1.1c-2.1-2.3-3.4-5.3-5.8-7.4c-3.6-3.2-7.8-4.4-12.9-4
		c2.1-5,5.9-6.8,10.6-7.3c0.6,1,0,2-0.2,3c-0.7,2.7,0.5,4.6,4.2,6.3c2.1,1,3.5,0.4,5.2-1.9c0.9-1.2,1.1-2.8,2.5-3.6
		C622.3,716.7,624.7,722.2,626.2,728.2z"/>
	<path class="st30" d="M409.3,355.7c-3.3-2.1-6-4.3-9.2-5.6c-1.1-0.4-0.8-1-0.6-1.8c0.8-2.5,2.1-4.4,5-4.5c4.5-0.3,9-0.8,13.4-1.2
		c1.7-0.1,2.8,1,3.5,2.4c0.8,1.6-0.3,3.1-0.7,4.6c-0.2,0.5-0.8,0.2-1.2,0.1c-0.9-0.2-2-0.3-2.3,0.6c-0.8,2.5-2.4,1.9-4.1,1.5
		C410,351,409.6,353.1,409.3,355.7z"/>
	<path class="st20" d="M292.3,249c-0.6-1.3-0.8-2.7-0.8-4.1c0.1-2.2-0.8-3.5-3.1-3.8c-5.7-0.7-11.4-1-17.1-1.1
		c2.8-1.7,5.5-3.7,8.8-4.5c5-0.6,9.9,0.3,14.8,0.6c2.7,0.1,5.4,0.1,8.1,0.4c1.7,0.2,3.6,0,5,1.5c-1.3,2.1-3.7,2.4-5.6,3.4
		C298.7,243.4,295.5,246.2,292.3,249z"/>
	<path class="st25" d="M257.1,575.9c-0.1-1.1,0.9-1.3,1.5-1.6c3.7-2.1,5.7-5.9,8.8-8.6c0.8-0.7,0.8-1.9,0.1-2.8
		c-1.2-1.3-2.7-1.4-4.4-1.2c-0.9,0.1-1.6,1.6-2.7,0.4c2.2-2.5,3.9-5.3,5.1-8.4c0.5-1.1,1-1.6,2.2-1.3c4.2,1.1,8.3,0.1,12.8-0.3
		c-1.6,4-4.5,7.1-7,10.3c-3.7,4.9-8.4,8.9-13.6,12.3C259.1,575.4,258.1,575.7,257.1,575.9z"/>
	<path class="st31" d="M462,428c-0.1,2.8,0.3,4.8,1.5,6.6c0.8,1.1,0.4,1.5-0.7,2.1c-5.4,3-10.3,6.6-16,9c-1.4,0.6-5.2,2.9-5.9,2.6
		c-0.9-0.3-0.5-1.1-0.5-1.7c-0.3-2.3-0.6-4.4,1.9-5.9C448.9,436.8,455.3,432.7,462,428z"/>
	<path class="st25" d="M165.8,379.3c-4.8,5.3-6,11.4-3.3,18.1c-3.3-1.1-6.3-2.9-9-5.1c-3.1-2.6-3-9.5,0.2-12c1.7-1.3,3.3-2.7,5-4.1
		c0.4-0.3,0.9-0.5,1.3-0.1C161.4,378,163.8,378.3,165.8,379.3z"/>
	<path class="st32" d="M169.3,588.9c-0.7-0.9-1.4-1.8-2.1-2.7c3.1-2.1,6.8-1.2,10-2.4c5.6-2.2,10.7-1.9,15.6,1.8
		c0.2,0.2,0.5,0.2,0.8,0.3c1.2,0.5,3.3,0.3,3.3,1.5c0,1.3-2,1.6-3.3,2c-5.2,1.5-10.7,1.4-15.9,3.2c-2.3,0.8-4.3,0.4-5.4-2.1
		C171.7,589.2,170.6,588.8,169.3,588.9z"/>
	<path class="st2" d="M268.3,241.8c3.6,1.1,7.4,1,11.1,1.1c4.7,0.2,5.2,0.6,6.2,5.1c0.6,2.7,0,3.6-2.7,3.3c-4.5-0.4-9-0.8-13.4-1.5
		c-3.1-0.5-6.2,0.4-9.2-0.8C262.6,246.2,265.8,244.3,268.3,241.8z"/>
	<path class="st33" d="M339.6,220.8c3.4,3.2,6.7,6.5,10.1,9.7c0.5,0.4,1.2,0.9,1,1.6c-0.3,1-1.2,0.6-1.9,0.6c-7,0.4-14-1.1-21-1.2
		c-3.3,0.2-6.3-0.5-8.7-2.9c-0.8-1.3-1.9-2.3-3.1-3.2c-0.9-0.7-2.1-1.4-1.9-2.8c1-0.1,2-0.2,3-0.3c2.5-0.6,4.5,0.6,6,2.3
		c2.3,2.6,5.2,3.2,8.4,3.3c3.5,0.1,6.9,0.6,10.8,1.3c-3.3-3.7-6.2-7.2-11.5-7.2c-0.8,0-1.7,0-2.1-1
		C332.4,220.3,336,220.2,339.6,220.8z"/>
	<path class="st5" d="M200.2,563c3.6-1,7.4,1.4,11.4,0.4c0.4-0.1,1-0.1,1.2,0.5c0.2,0.5-0.2,0.9-0.6,1.1c-5.7,2.8-11.1,6.4-17.5,7.3
		c-2.1,0.3-3.6-1.4-5.1-2.6c-0.2-0.2-0.3-0.5-0.4-0.7c-2.6-3.5-2.3-4.3,2.1-5.5C194,562.8,196.9,562.7,200.2,563z"/>
	<path class="st34" d="M571.7,369.3c1.7-2.5,4.3-4.1,6.2-6.4c11.7-6.6,23.5-12.7,36.1-17.4c0.7-0.3,1.5-0.3,2.2-0.4
		c-0.1,1.4-1.2,1.9-2.2,2.3c-4.2,1.9-7.5,4.9-10.8,8c-1.4,0.9-2.8,1.8-4.3,2.4c-8.4,3.1-16.1,7.7-24.4,11
		C573.6,369.1,572.8,369.9,571.7,369.3z"/>
	<path class="st35" d="M413,356.7c-0.5-2.1,0.3-2.6,2.2-2c1.5,0.4,2.9,0.6,4.3-0.4c0.8-0.6,1.5-0.6,2.3,0.5c1,1.2,2.5,2,3.6,3.1
		c0.6,0.6,2,1,1.4,2.1c-0.5,0.9-1.5,1.8-2.8,1.7c-5.6-0.7-11,0.8-16.4,1.9c-1.4,0.3-2.6-0.2-3.3-1.1c-1.8-2.3-3.9-4.6-4.7-7.5
		c-0.2-0.7-0.7-1.5,0.2-2c0.6-0.4,1.2,0,1.8,0.4c2.2,1.6,4.5,3.1,6.5,4.9c1.5,1.3,2.9,0.9,4.5,0.5C414,358.3,413,357.3,413,356.7z"
		/>
	<path class="st36" d="M308,237.9c-8.4-0.6-16.8-1.3-25.3-1.9c-0.9-0.1-1.9,0.2-2.7-0.6c1.5-0.8,3.1-1.6,4.6-2.4
		c2.7-0.8,5.4-0.8,8.1-0.4c2.8,0.5,5.6,0.1,8.5,0.5c-0.1-1.6-1.4-1.9-2.1-2.6c-0.9-0.9-2.2-1.6-1.4-3.2c2.3-0.6,4.4-1.8,6.8-2
		c1.2,0.7,1.4,2.2,2.3,3c2.1,2.4,4,5,4.6,8.3C311,238.7,309.2,237.4,308,237.9z"/>
	<path class="st37" d="M139.2,163.1c0-2.9,0-5.8,0-9.1c2.8,2.1,3.9,4.8,4.9,7.2c2,5,4.9,9.3,8.5,13.1c1.2,1.2,1.5,2.5,1.4,4.1
		c-0.4,2.5-0.9,4.9-1.4,8.2c-2.2-3.9-4.3-7-5.8-10.4C144.6,171.6,141.6,167.5,139.2,163.1z"/>
	<path class="st9" d="M144.1,120.5c-5.8-4-11.6-8.1-17.9-11.4c0.2-1,0.7-1.9,1.4-2.7c2.2-2.1,4.5-2.3,7.1-0.5
		c3.6,2.4,7.9,3.3,11.7,5.3c1,0.5,2.2,0.7,2.6,2C147.2,115.6,145.7,118.1,144.1,120.5z"/>
	<path class="st38" d="M250.1,483.5c-2.8-0.1-3.9,1.5-3.9,4.1c-1.9,0.6-3.9-1.1-5.7,0.5c-6.6-2.2-13.4-3.3-20.3-3.9
		c-3.4-0.3-6.9,0.3-10.4,0.3c9.4-2.7,19.2-3.5,28.9-3.7C242.6,480.8,246.5,482.1,250.1,483.5z"/>
	<path class="st28" d="M771.6,332.9c0.4-2.8-1.3-4.7-2.6-6.9c-2-3.5-2-3.5,1.9-4.5c0.4-0.1,0.9-0.3,1.3-0.4
		c4.4,2.3,6.9,6.2,8.9,10.5c0.3,0.6,0,1.3-0.1,1.9c-2.2,3.2-4,6.8-7.9,8.2c-1.6-1.5-0.8-3.5-1.2-5.3
		C771.6,335.4,771.5,334.1,771.6,332.9z"/>
	<path class="st5" d="M185.3,352.6c-2.4-2.7-4.3-5.5-6.2-8.3c-0.9-1.2-0.8-2.2,0.1-3.2c1.7-1.8,2.9-3.9,3.3-6.4
		c0.3-1.7,1.8-1.7,3-2.1c1.4-0.5,1.8,0.5,2.3,1.4c0.5,0.9,1,1.8,1.6,2.6c1.4,1.8,1.4,3.4-0.1,5.3c-1.8,2.4-2.7,5.3-3.2,8.3
		C186.1,351.1,186,351.9,185.3,352.6z"/>
	<path class="st39" d="M592.8,722.6c0.3,1.3,1.5,1.9,2.4,2.7c3.8,3.7,5.8,9.3,3,14.6c-2.2-2.7-3.9-5.6-6.2-8
		c-1.2-1.2-2.4-2.2-4.3-2.3c-2.4-0.1-5.1-0.6-6.6-2.8C584.5,724.5,588.3,722,592.8,722.6z"/>
	<path class="st11" d="M181.6,623.3c0.1,1.1,0.7,1.6,1.8,1.8c4,0.7,6,3.3,6.3,7.4c0.1,2.1-0.7,3.8-1.2,5.7c-0.9,0-1.8-0.2-2.8,0.2
		c-3.6,1.3-7.8-2-7.3-5.9C178.9,629.3,179.7,626,181.6,623.3z"/>
	<path class="st40" d="M328.8,221c0.5,0.1,1.1,0.4,1.6,0.3c4.7-0.4,7.8,2.2,10.6,5.5c0.2,0.3,0.5,0.6,0.8,0.8c0.7,0.7,2.4,1,1.9,2
		c-0.7,1.5-2.2,0.2-3.3-0.1c-4.1-0.9-8.4-0.8-12.6-1.3c-1.8-0.2-2.9-1-4.1-2.1c-1.9-1.8-3.5-4-6.6-3.9
		C321.1,221.9,325,221.4,328.8,221z"/>
	<path class="st41" d="M151.7,368c-1.5,5.2-5.9,7.9-9.6,11.1c-2.6,2.2-5,4.6-7.2,7c-4.1,4.4-8.1,8.8-12.5,13
		c-0.2,0.2-0.4,0.2-1.3,0.6c3.7-8.4,9.9-14.1,15.3-20.4c3.9-3.6,7.2-7.9,12.1-10.4C149.5,368.4,150.3,367.2,151.7,368z"/>
	<path class="st42" d="M180.6,124.5c-6.9-2.4-13.7-5.3-20.9-6.9c-2.3-0.5-4.5-1.5-6.7-2.3c2.8-4.1,2.8-4,7.4-2.7
		c7.1,2,13.5,6,20.8,7.8C185.3,121.5,181,123.2,180.6,124.5z"/>
	<path class="st43" d="M602.7,355c3.6-4.5,8.8-6.9,13.5-10c7.6-2.9,15-6.3,23.2-7.3c0.8-0.1,1.7-0.2,2.5-0.2
		c-0.2,1.5-1.5,2.2-2.4,3.2c-0.5,0.4-1,0.6-1.5,0.8c-7.7,1.2-14.2,5.1-20.9,8.7c-4.1,2.2-8.6,3.3-12.8,5.2
		C603.8,355.5,603.2,355.4,602.7,355z"/>
	<path class="st31" d="M115.6,69.4c2,5.8,2,11.6-0.5,17.3c-2.1,0.1-4-0.7-5.8-1.6c-0.5-3.9-1-7.9-1.5-11.8c1.2-2.3,4.6-2.6,5.3-5.6
		c0.2-0.9,1.1-0.8,1.7,0.1C115,68.3,114.9,69,115.6,69.4z"/>
	<path class="st44" d="M71,118.7c3.6-4.9,7.7-9.3,12.9-12.6c1.5,0.7,3,0.9,4.7,0.9c1.5,0,3.2,0.6,2.5,2.9c-4.6,2.4-8.4,6-12.5,9.2
		c-2.2,0-4.3,0.6-6.4,1.1C71.6,120.4,71,119.5,71,118.7z"/>
	<path class="st45" d="M148.8,113.2c-5.3-2.8-11.3-4.2-16.3-7.6c-1.8-1.2-3.3,1-5,0.9c0-0.2,0-0.4,0.1-0.5c4.1-6.6,2.3-5.8,9.3-3.3
		c4.2,1.5,8.5,2.9,12.5,5.1c2.3,1.3,2.3,2.1,0.9,3.8C149.8,112,149.3,112.6,148.8,113.2z"/>
	<path class="st46" d="M127.3,446.9c-5.4,2.9-9.2,7.5-13.2,11.9c-2.8,3.1-4.6,6.8-6.5,10.5c-1,1.8-0.2,3.9-1.1,5.7
		c-1.3-7.1,1.8-12.7,6-18.1c1.5-1.9,3.2-3.9,4.1-6.3c1.4-3.7,4.2-6.3,7.4-8.6c0.8-0.6,1.2-0.7,1.6,0.4
		C126,443.9,126.7,445.4,127.3,446.9z"/>
	<path class="st46" d="M124.5,477.9c-3.6,5.6-6.6,11.6-11,16.6c-1,1.2-1.8,1.8-3.2,0.9c-0.4-1.8,1-2.9,1.6-4.3
		c1.7-3.7,3.2-7.5,5.2-11c1.5-2.7,3-5.6,4.9-8.7C122.9,473.7,123.7,475.8,124.5,477.9z"/>
	<path class="st35" d="M169.3,588.9c1.5-1.9,2.8-1,3.3,0.6c0.9,3,2.9,3.1,5.2,2.2c4.3-1.6,8.7-1.9,13.2-2.5c0.9-0.1,1.8-0.8,2.6,0.1
		c-5.8,3.3-11.8,6-18.1,8.1c-4.3,1.5-5.5,0.5-5.6-3.9C169.8,592,169.5,590.4,169.3,588.9z"/>
	<path class="st47" d="M117.5,124.7c-0.6-0.5-0.9-0.6-1.1-0.8c-5.6-7-5.5-7-0.3-14.2c2.1-2.9,4.3-5.4,8.2-7.5
		C121,109.7,118.7,116.8,117.5,124.7z"/>
	<path class="st48" d="M716.5,330.1c-1.7,1.3-4.1,0.9-5.8,2.1c-0.3,0.6-0.8,0.8-1.3,0.9c-8.3,0.3-16.7,0.4-25-0.1
		c-1.8-0.8-0.7-1.6,0.1-2.2c1.8-1.4,3.8-2.4,6-2.8c6-0.6,11.8,0.8,17.7,1.4C710.9,329.6,713.8,329.1,716.5,330.1z"/>
	<path class="st4" d="M617.9,712.2c-0.3,0.6-0.5,1.2-0.8,1.8c-2.8,6-6.8,6.5-11.3,1.5c-1.1-1.3-1.3-2.6-0.6-4.2
		c0.4-0.9,0.7-1.9,1-2.9C610.8,707.8,614.6,709.4,617.9,712.2z"/>
	<path class="st46" d="M184.5,597.9c1.2,0,2.1,0.5,2.9,1.4c2.3,2.6,5.2,2.8,8.2,1.4c3.6-1.7,7.3-2.9,11.1-3.7c0.6-0.1,2.4-1.4,1.7,1
		c-2.6,2.3-6,3.1-9,4.6c-1.4,0.7-2.9,1.3-4.3,2.1c-1.9,1.2-4.5,3-6.1,2c-2.5-1.5-4.5-4.1-5.7-7.1
		C182.8,598.4,183.9,598.3,184.5,597.9z"/>
	<path class="st49" d="M217.1,581c-9.3,3.3-18.5,3-27.2-1.9c-2.5-1.4-5.5-3.2-5.9-7.3C194,579.7,205.4,580.9,217.1,581z"/>
	<path class="st50" d="M428.7,247.8c0.9,1.6,1.8,3.2,3.1,5.5c-6.1-1.9-10.8-5.3-16.2-6.9c-3.1-1.7-6.2-3.4-9-5.7
		c-0.5-2.4-2.1-4.3-3.6-6.2c-0.5-0.6-1.6-0.8-1-2c2.2,0.4,3.9,1.7,5.6,3c1,0.5,1.7,1.2,2.1,2.2c1.5,2.9,3.9,4.5,7,5.3
		c3,0.8,5.4,2.5,7.8,4.4c0.3-0.9-1.5-1.8,0.1-2.5C426.2,245.6,427.6,246.4,428.7,247.8z"/>
	<path class="st51" d="M480.7,417.5c-1.8,3.8-4.5,7.3-5.6,11.5c-0.3,1.4-0.9,2.7-1.4,4c-4.4,2.2-5.6,1.9-7.2-1.8
		c0.3-3.2,2.1-5.6,4-8C474,421.5,477.5,419.7,480.7,417.5z"/>
	<path class="st51" d="M690.4,328c-2.3,1.5-5,2.3-7,4.4c-0.4,0.8-1.2,1-2,1.2c-4.9,0.6-9.8,1.6-14.7,2.5c-1.3,0.2-2.6,0.6-3.9,0.1
		c-1.2-0.9-0.3-1.7,0.3-2.3c1.2-1.2,2.5-2.1,4.1-2.7C674.9,328.9,682.6,328.5,690.4,328z"/>
	<path class="st52" d="M60,111.4c-1.5,2.4-2.5,4.9-3.5,7.5c-0.4,0.5-1.1,0.6-1.5,0.3c-1.8-1.4-3.2-0.7-4.6,0.6
		c-2.6-0.7-3.5-2.3-2.3-4.8c0.7-1.5,1.3-3.1,1.9-4.7c0.8-2.1,2.2-3.2,4.5-2.7c0.6,1.7,1.4,2.9,3.6,2.3C59,109.6,60,110.1,60,111.4z"
		/>
	<path class="st17" d="M130.2,757c0-1.5-0.3-3.1,2.2-2.8c2.2,0.3,3.9-0.4,4.6-2.6c0.8-2.5,1.2-5-1-7c-1.4-1.2-1.3-1.7,0.5-1.8
		c5.9,1.6,7.4,5.5,4.1,10.6c-0.4,0.6-0.6,1.2-0.9,1.7C137.1,759.7,134.4,760.3,130.2,757z"/>
	<path class="st46" d="M134.6,409.3c-0.1,4.6-3.9,7.2-6.7,9.6c-5.4,4.8-11.1,9.5-16.6,14.2c2.9-5.5,7.2-9.8,11.8-13.9
		c2.7-2.4,4.6-5.6,7.3-8.1c1-0.9,1.8-1.9,2.8-2.8C135,406.7,134.6,408.4,134.6,409.3z"/>
	<path class="st53" d="M199.8,608.1c2.2-0.6,6.2,1.1,7.4,3.5c1.1,2.2,2.3,2.4,4.2,1c2.9-2.1,6-3.8,8.8-6.2c1.1-1,2.6-1.3,4.1-1.1
		c-2.4,3.4-6,5.6-9,8.4c-1.2,1.1-2.3,2.4-3.6,3.5c-2.5,2-3.9,1.7-5.4-1C204.5,613.2,202.6,610.3,199.8,608.1z"/>
	<path class="st54" d="M148.8,356.4c5.5-5.7,11.6-10.8,17.5-16.1c1.1-0.8,1.6-2.8,3.6-1.6c-0.4,1.9-1,3.7-1.7,5.6
		c-1.1,2.8-3.7,3.7-6,4.6c-4.4,1.8-7.5,5-10.5,8.4C150.5,357.8,149.2,358.6,148.8,356.4z"/>
	<path class="st55" d="M91.1,109.9c-1.2-2.9-2.3-3.2-5.8-1.4c-0.8-0.6-0.2-2.1-1.4-2.4c4.1-3.6,9-2.6,13.7-2.3
		c0.5,0,1.1,0.4,1.5,0.7c1.3,0.9,3.1,2,2.6,3.6c-0.5,1.6-2.5,1.6-4.2,1.6C95.5,109.8,93.3,109.9,91.1,109.9z"/>
	<path class="st56" d="M74.1,74.3c1.3,2.2,1.9,4.9,4.5,6.2c1.3,0.6,0.1,1.2-0.3,1.6c-4.5,4.5-10.3,0.6-11.5-3.9
		c-0.2-0.6-0.1-1.3-0.2-1.9c-0.2-1,0.2-1.8,1.1-2C69.8,73.6,72,72.8,74.1,74.3z"/>
	<path class="st57" d="M667.3,331.2c-1.4,1.8-3.8,2.6-5.2,4.5c-0.3,0.8-1,1.1-1.8,1.4c-6,0.9-11.9,2.4-17.9,3.4
		c-1.1,0.2-2.2,0.6-3.2-0.3c0.9-0.9,1.7-1.8,2.6-2.8c3.1-1.7,6.4-2.7,9.8-3.1C657,333.7,662,331.6,667.3,331.2z"/>
	<path class="st58" d="M106.1,47.2c2.5,0.4,4.8-0.5,7.3-0.6c1.7-0.1,3.4-0.1,5.1,0c1.3,0.1,2.8,0.1,3.2,1.7c0.4,1.7-0.5,3.2-1.8,3.8
		c-1.9,0.8-3.9,2.5-6.2,0.1c-1.2-1.3-3.4-0.8-5.2-1.1c-0.9-0.5-1.8-0.8-2.8-1c-0.9-0.2-1.4-0.9-1.3-1.8
		C104.4,47.2,105.3,47.2,106.1,47.2z"/>
	<path class="st59" d="M115.6,69.4c-0.7-0.1-0.7-0.8-1-1.2c-0.3-0.4-0.5-0.9-1-0.6c-0.2,0.1-0.5,0.6-0.5,0.9c0,1.5,0.4,3.1-2.2,2.4
		c-0.7-0.2-1.1,0.8-1.3,1.6c-0.3,1.2-1,1.1-1.9,0.8c-0.6-3.7-2.6-6.6-5.1-9.3c1.4-2.6,4.1-2,6.3-2.4c0.8-0.2,1.8,0.2,2.7,0.1
		C114,63.7,114.8,66.5,115.6,69.4z"/>
	<path class="st60" d="M23.6,99c2.3-4,3.3-8.6,5.2-12.8c2-1.5,2.4-1.4,2.9,0.9c0.2,1.2,0.7,1.9,1.9,2c-0.3,4.9-3.1,8.4-6.1,11.9
		C25.7,101.2,24.6,100.3,23.6,99z"/>
	<path class="st61" d="M151.1,434.9c-1.3,0.9-2.3,0.1-3.2-0.6c-1.9-1.4-3.9-2.4-6.3-2.4c0.2-0.6,0.4-1.3,0.6-1.9
		c1.8-6,1.8-6.1,6.8-2.4c1.9,1.4,4.2,2.6,5.6,4.6C154.2,434.3,152.2,433.9,151.1,434.9z"/>
	<path class="st62" d="M734.4,343.5c1.9-2.7,4.8-4.1,7.3-5.9c3.9,0,7.1,2.3,10.7,3.2c0,1.5-1.3,1.7-2.2,2.4c-1.7,1-3.6,0.6-5.5,0.6
		C741.3,343.6,737.8,343.6,734.4,343.5z"/>
	<path class="st51" d="M781,333.6c-1.2-3.9-3.1-7.4-6.5-10c-0.9-0.7-1.5-1.7-2.3-2.5c1.2-0.3,2.3-0.6,3.5-1c3.5-1.2,5.8,1,6.9,3.8
		C783.9,327.2,783.8,330.8,781,333.6z"/>
	<path class="st63" d="M222.6,489.5c11-2.6,30.1,11,32.1,17.2C246.2,496.6,234,494.3,222.6,489.5z"/>
	<path class="st64" d="M158.6,407.1c-2.3,0.5-3.9-0.6-5.5-2c-1-0.9-2.3-1.5-3.5-2.3c0.2-0.3,0.3-0.7,0.5-1c1.1-1.5,0.9-4.5,2.5-4.6
		c2.1-0.1,4.2,1.6,6,3.1C160.5,402.6,161,404.8,158.6,407.1z"/>
	<path class="st65" d="M92.7,174.9c-4.4,2.9-8.1,6.5-11.6,10.3c-1.8,0.1-3-0.7-3.8-2.3c3.6-3.9,7.3-7.7,11.6-10.9
		C90.2,172.9,91.7,173.6,92.7,174.9z"/>
	<path class="st46" d="M174.5,357.4c-1.6,3.3-4.4,5.7-6.8,8.4c-0.8,0.9-1.6,1.8-2.4,2.7c-2.1-1.2-3.1-2.9-2.9-5.4
		c0.1-0.9,0.4-1.4,1.4-1.4c4-0.2,6-2.5,6.5-6.4c0.1-0.7,0.5-1.4,0.8-2.1C173.1,354,173.6,355.9,174.5,357.4z"/>
	<path class="st66" d="M297.8,227.4c0.2,1.7,1.5,2.5,2.8,3.2c0.7,0.4,1.5,0.7,1.9,1.6c0.2,0.5,0.6,1,0.3,1.6c-0.3,0.6-1,0.4-1.5,0.4
		c-5.5-0.4-11-0.8-16.5-1.1C288.9,230.8,293.2,228.7,297.8,227.4z"/>
	<path class="st67" d="M424.6,244.9c-0.6,1.5,1.4,2,1.2,3.4c-0.9,0.4-1.5-0.2-2-0.6c-2.6-2.3-5.6-3.7-8.9-4.6
		c-4.1-1.1-5.3-4.6-7.3-7.6c0.5,0.1,1.2,0,1.6,0.2C414.2,238.9,420,241,424.6,244.9z"/>
	<path class="st68" d="M106.1,47.2c-1.7,0.7-2.2,1.6-0.2,2.5c0.9,0.4,1.9,0.7,2.6,1.6c-5.8-0.8-11.7-0.3-17.7-0.2
		c2.8-1,3.1-5.6,6.6-4.8C100.3,46.9,103.4,45.3,106.1,47.2z"/>
	<path class="st69" d="M92.7,174.9c-1.2-1-3.8-0.2-3.7-2.9c1-1.4,2-2.9,2.9-4.3c0.6-1,1.4-1.4,2.5-1.3c1.3,0.6,2.5,1,4,0.4
		c1.3-0.5,2.4-0.2,2.8,1.4C99.4,171.7,96,173.2,92.7,174.9z"/>
	<path class="st70" d="M151.7,368c-4,2.6-8.6,4.5-11.6,8.5c-0.9,1.2-2,2.6-3.7,2.8c3.5-4.1,7-8.3,10.4-12.5c2.2-2.7,4.4-5.2,7.3-7.7
		C154.3,362.6,154,365.6,151.7,368z"/>
	<path class="st71" d="M98.7,74.1c2.5,3.5,3.5,7.1,4.6,16.4c-3.1-6.1-7.2-10.9-12.6-14.6c0.3-0.4,0.8-0.5,1.2-0.4
		c1.9,0.5,3.6,0.4,5-1.2C97.4,73.7,98,73.6,98.7,74.1z"/>
	<path class="st72" d="M306.3,228.6c-1-0.8-1.4-2-1.8-3.3c3.5-1.4,6.5-1.5,9.7-2.8c1.3,2.2,4.2,2.9,5.1,5.5c-3,1.5-6.2,1.3-9.5,1.1
		C308.7,229,307.5,228.7,306.3,228.6z"/>
	<path class="st73" d="M148.8,356.4c0.7,1.2,1.9,0.6,2.9,0.8c-5.3,5.9-10.4,11.9-17.2,17.3c0.9-2.7,2.1-4.7,3.5-6.3
		C141.6,364.3,144.7,359.9,148.8,356.4z"/>
	<path class="st20" d="M575.4,738c1.1,0.2,2.6,1.6,2.4-1.3c-0.2-2.3,2.6-4.3,4.8-4.1c2.5,0.3,3.6,1.9,3.5,5c-1.5-0.5-3.1-1-4.6-1.6
		c-0.3,1.5-0.7,3-1,4.6c0,0.1,0,0.2-0.1,0.3c-0.7,1.3-0.4,3.7-1.9,3.7c-1.7,0-2.2-2.2-2.7-3.8C575.3,739.8,575.3,738.9,575.4,738z"
		/>
	<path class="st74" d="M138.8,412.6c-1-2.1-1.2-3.9,0.1-5.5c1.4-1.7,2.8-3.3,4.4-4.8c3.8-3.6,4.4-8,3.2-12.6
		c-0.9-3.4-1.5-6.5,1.5-9.3c0.7,1.2-0.1,2.1-0.4,3.1c-0.8,3.2-0.1,6.2,0.8,9.1c1.2,4.1-0.9,6.8-2.9,9.7
		C143.2,405.7,139.7,408.1,138.8,412.6z"/>
	<path class="st75" d="M71,118.7c1.9,1.8,1.9,1.8,5-1.3c1,0.3,0.7,2.9,2.6,1.7c-0.7,2.8-3.4,5-2.8,8.3c0.1,0.6-0.4,0.7-0.9,0.6
		C70.9,127.4,68.7,122.1,71,118.7z"/>
	<path class="st76" d="M33.6,89c-0.5,0.6-1,1.4-1.8,0.9c-1.7-1-0.3-2.8-0.9-4.3c-0.7,0.2-1.4,0.3-2.1,0.5c1.2-5,2.7-9.9,4.8-14.7
		C33.1,77.3,34.4,83.2,33.6,89z"/>
	<path class="st41" d="M164.1,579.2c0.2-1.2,1.2-1.7,2-2.2c2.7-1.5,5.4-2.9,7.8-4.9c1-0.8,1.7-0.9,2.7,0.4c1.1,1.5,1.7,3.4,3.4,4.7
		c1.3,1-0.2,1.3-1,1.4c-3.8-2-7.5,0.5-11.2,0.5C166.5,579.2,165.3,579.8,164.1,579.2z"/>
	<path class="st77" d="M56.8,134.9c2-1.3,4.4-0.8,6.3-2.1c1.3-1,5.9,3.6,5.7,5.5c-0.2,2.2-1.5,3-3.3,1.8
		C62.8,138.3,59.6,137.3,56.8,134.9z"/>
	<path class="st78" d="M48.1,76.2c-1.9-2.1-3.8-4.3-5.6-6.4c0.2-0.7,0.9-0.8,1.4-0.6c2.7,1.3,4.8,0.2,6.8-1.5
		c1.5,1.6,3.1,3.3,4.6,4.9c1.4,1.6-0.4,2-1.1,2.8C52,74,50.2,75.8,48.1,76.2z"/>
	<path class="st52" d="M64,20.5c1.5,1.6,2.5,3.6,3.4,5.5c-0.1,1.3,0.7,2.3,0.9,3.5c0.3,1.9-0.5,2.5-2.5,2.1c-1.3-2.1-3.2-3.8-5.3-5
		c-1.2-1.9-0.4-3.9,0.3-5.6C61.4,19.3,62.7,19,64,20.5z"/>
	<path class="st79" d="M181.9,322.2c-2.1,4.3-5.5,6.5-9.1,8c-3.3,1.4-6,3.3-8.5,5.8c-0.9,0.9-1.8,2.2-4.2,2.2
		C167.3,332.4,172.4,324.9,181.9,322.2z"/>
	<path class="st80" d="M164.1,579.2c3.6-1.3,7.5-0.9,11.1-2.3c1.5-0.5,2.9,0.1,3.7,1.7c-4.3,2.2-9.3,1.9-13.7,3.7
		c-0.6,0.3-2,0.6-2.5-0.5C162.1,580.6,163.2,579.9,164.1,579.2z"/>
	<path class="st81" d="M109.2,85c2.1,0,4.1,0.5,5.8,1.6c-2,4.4-3.4,9.1-6.7,12.9C109.5,94.8,109.3,89.9,109.2,85z"/>
	<path class="st82" d="M38.2,138c0.2,2.1-0.2,4.3,0.7,6.3c-2.1,0.7-4.6-0.4-6.4-2.7c0-4.1,2.9-6.6,5.1-9.4c1.9,0.2,1.5,1.5,1.2,2.6
		C38.6,135.9,38,136.9,38.2,138z"/>
	<path class="st83" d="M139.2,68.6c2.9,2.2,4.8,5.5,7.9,7.6c1.2,0.8,0.5,2.5-0.1,3.6c-0.7,1.3-1.7,0.3-2.4-0.1
		c-2.9-1.5-4.1-4.6-5.7-7.2C137.4,71.1,137.4,69.8,139.2,68.6z"/>
	<path class="st84" d="M158,586.5c5.8,1.1,8.1,4.1,7.5,9.4c-0.3,2.6,1.3,4.5,4.2,4.8c1.6,0.1,3.1,0.3,4.9,1c-1.1,0.1-1.8,0-2.5,0.1
		c-5.7,1-8.7-1.8-9.5-8.1C162.2,590.5,160.4,588.5,158,586.5z"/>
	<path class="st85" d="M151.6,485.3c-3.2-0.2-6.4-0.4-9.6-0.6c-1.5-0.1-3,0-4.3,0.9c-0.2-3.1-2.9-4.8-4-8.2
		C139.5,481.2,145.9,482.5,151.6,485.3z"/>
	<path class="st86" d="M266.7,197.5c1.8,1,3.4,2.5,5.5,2.9c-3.6,2.8-7.1,5.7-10.7,8.5C262.8,204.8,264.5,201,266.7,197.5z"/>
	<path class="st87" d="M127.8,469.5c-1.4-2.3-1.3-3.8,0-5.7c2.5-3.5,6.1-6.3,7.2-11.2c2,2.7,2,5.3,0.1,7
		C132,462.2,129.2,465.1,127.8,469.5z"/>
	<path class="st88" d="M406.6,718.5c4.6,5.6,10.5,10.8,16.2,15.2c-0.7-0.1-3-0.2-3.6,0c-5.3,0.2-5.1-2.8-6.9-5.8
		C410.4,724.8,407.5,722.3,406.6,718.5z"/>
	<path class="st89" d="M74.1,74.3c-1.9,0.1-3.7,0.3-5.6,0.4c-1.1,0.1-1.6,0.8-1.9,1.7c-0.5-2.3-2-4.3-1.6-6.8c0.7-0.5,1.7-1,2.4-0.6
		c2,1.2,2.7-0.2,3.5-1.6C73.3,69,73.5,71.7,74.1,74.3z"/>
	<path class="st90" d="M80.4,158.8c1.3,1.4,2.5,2.9,4.1,4.7c-2.9,0-5.3,0.2-7.7,0c-2.6-0.2-3.3-2.1-3.1-4.4c1.2-0.6,2.7-0.5,3.9-1.3
		C78.7,157,79.8,157.7,80.4,158.8z"/>
	<path class="st91" d="M85.1,30c-0.6,4.1-1.7,8.2,1.6,11.8c-1.3,1.5-3,1.2-4,0.5c-1.3-1-2.1-2.6-1.7-4.5c0.5-2.5,0.9-4.9,2.2-7.2
		C83.6,29.9,84.1,29.3,85.1,30z"/>
	<path class="st92" d="M174.5,357.4c-1.9-0.7-1.9-3-3.4-4.1c0.2-1.1,0.3-2.2,0.5-3.3c0.1-0.7,0.2-1.6,1-1.8c0.8-0.2,1.3,0.6,1.7,1.2
		c1.4,2.1,2.7,4.2,4.1,6.4C177.7,357.7,176.2,358,174.5,357.4z"/>
	<path class="st93" d="M139.2,68.6c-0.6,1.3-1.4,2.5-0.3,3.9c-1.5-0.9-3-1.8-5-1.6c-2.7,0.3-2.3-2.1-2.4-3.5
		c-0.2-1.7,1.2-2.5,2.8-2.3C136.5,65.4,138.1,66.7,139.2,68.6z"/>
	<path class="st94" d="M96.1,92.9c5.1-0.8,7.1,2,6.7,9.7c-1.6-0.9-3.1-1.7-4.5-2.5c-0.2-1.7,0-3.5-1.7-4.7
		C95.9,94.9,95.6,93.9,96.1,92.9z"/>
	<path class="st95" d="M124.1,89.8c-0.5-0.1-1.1-0.1-1.6-0.3c-4.2-1.2-4.2-1.2-2.9-5.3c1.2-3.8,1.2-3.8,4.5-1.3
		c0.8,0.6,1.7,1.2,2.5,1.7C123.8,85.5,124.4,87.9,124.1,89.8z"/>
	<path class="st96" d="M165.8,379.3c-2.4,0-4.7-0.3-5.9-2.8c-0.3-0.5-0.8-0.2-1.2-0.4c0.9-1.7,1.9-3.4,2.9-5.1
		c1.6,2.6,4.2,4.2,5.8,6.7C166.8,378.2,166.3,378.8,165.8,379.3z"/>
	<path class="st97" d="M13.3,101.8c-3.4,3.4-6,7.5-10.1,10.4c1.4-3.3,2.9-6.6,4.3-9.9c1.1-0.5,2-1.4,3.1-1.9
		C12.2,99.5,13.4,99.6,13.3,101.8z"/>
	<path class="st98" d="M140.3,422.9c-1,4-2.2,7.8-6.2,9.7c-2.2,1-2.4,3.8-4.7,4.7c-0.8-2.1-0.4-3.8,1.4-5
		C134.6,429.8,137.6,426.5,140.3,422.9z"/>
	<path class="st99" d="M141.5,386.7c-3.9,2.5-5.2,7.3-8.9,10c-0.8,0.6-1.4,2.4-2.9,0.8c3.9-4.6,6.8-10.1,11.8-14.1
		C141.9,384.6,141.5,385.6,141.5,386.7z"/>
	<path class="st100" d="M84.8,201.5c1.7-1.4,3.4-2.7,3-5.5c2,0.8,3.7,1.5,5.9,2.3c-3.4,2.2-5.6,5-8,7.5
		C82.6,204.9,84.2,203.1,84.8,201.5z"/>
	<path class="st101" d="M65.8,31.6c2,0.1,2.6-0.7,1.7-2.5c-0.5-1-1.1-2-0.1-3c2.2,2.7,3.6,6.2,7,8C68.7,36.6,67.8,36.3,65.8,31.6z"
		/>
	<path class="st102" d="M94.4,136.2c1.8,1.7,3.6,3.3,5.4,5c-0.2,1.6-1.5,2.3-2.8,1.9c-1.5-0.4-2.8,0.2-4.2,0.2
		c-0.8-1.7-1.5-3.4-2.3-5C91,136.2,93,136.8,94.4,136.2z"/>
	<path class="st103" d="M104,117.8c0,2,0.6,4-1,5.7c-2.3-1.1-5.1-1.3-6.4-4c0.9-1.5,1.9-3.1,2.8-4.6
		C101.6,114.9,102.3,117.2,104,117.8z"/>
	<path class="st104" d="M50.7,67.7c-1.4,2.9-3.7,3.6-6.6,2.2c-0.6-0.3-1-0.4-1.6-0.1c-0.9-0.8-1.8-1.6-3.1-2.7
		C43.6,65.7,47.2,65.5,50.7,67.7z"/>
	<path class="st105" d="M771.6,332.9c1.2,2.8,1.4,5.9,1.5,8.9c-1.8,1.3-3.6,2.4-5.9,2.5c-0.9-1.9,0.5-3.4,1-5
		C770.1,337.6,771,335.4,771.6,332.9z"/>
	<path class="st106" d="M371.4,222.1c0.3,0.7,1.5,1.2,0.9,2.2c-0.4,0.8-1.4,0.6-2.1,0.4c-5.5-1.1-11-1.8-16.4-3.3
		c1.6-0.8,3.3-0.3,4.9-0.2C363,221.5,367.2,221.8,371.4,222.1z"/>
	<path class="st107" d="M147.1,511.8c-1.2,1-2.5,1.9-4.3,2.7c0.1-3.4-2.6-4.6-4.6-6.5c3,0.8,6,0.3,9,0.6
		C149.1,509.6,148,510.7,147.1,511.8z"/>
	<path class="st108" d="M96.1,92.9c0.5,1.2,0.6,2.3,2,3c2,1,0.8,2.7,0.1,4.2c-1.9,0.2-3.5-0.5-4.5-2.2C91.8,95,92.5,93.4,96.1,92.9z
		"/>
	<path class="st109" d="M167.4,352.1c-0.2,1.2-0.3,2.2-0.5,3.2c-0.2,1.7-1.3,2.9-2.9,2.9c-2.2,0-3.5,0.8-4.6,2.8
		C159.1,356.7,159.7,356,167.4,352.1z"/>
	<path class="st110" d="M56,155.6c-2.2,2.4-5.7,3.1-8,5.5c-1.5,0.1-2.4-0.6-2.5-2.1c2-1.1,4.3-1.8,4.9-4.5
		C53.8,153,54.9,153.2,56,155.6z"/>
	<path class="st111" d="M124.1,89.8c0.1-0.2,0.2-0.4,0.2-0.5c-1.8-3.6-1.7-3.9,2.3-4.6c1,0.9,3.5-0.7,3.3,1.7
		C129.6,89.2,127.2,90.4,124.1,89.8z"/>
	<path class="st112" d="M204.6,575c3.6-1.5,7.4-1.9,11.2-2.2c1-0.1,0.6,1.6,0.8,2.4c0.2,0.8-0.6,0.7-1.1,0.7c-3.6,0-7.2,0-10.8,0
		C204.6,575.6,204.6,575.3,204.6,575z"/>
	<path class="st113" d="M96.6,119.5c1.5,1,2.7,2.7,4.9,2.4c1.3-0.2,0.7,1.4,1.5,1.6c-2.7,2.8-4.8,2.3-8.6-2
		C95.1,120.8,95.9,120.2,96.6,119.5z"/>
	<path class="st114" d="M13.3,101.8c-0.5-1.9-1.5-1.9-2.8-0.7c-0.9,0.8-1.5,1.9-3,1.2c0.3-0.8,0.6-1.5,0.9-2.3
		c1.5-3.8,3.8-4.3,6.7-1.4C16.5,99.8,15.8,101,13.3,101.8z"/>
	<path class="st115" d="M84.8,201.5c0.3,1.4-1.2,3.3,0.9,4.3c-1.5,1.8-3.1,3.6-4.6,5.3c-0.2,0.2-0.4,0.3-0.7,0.5
		C79.1,208.9,80.9,204.7,84.8,201.5z"/>
	<path class="st100" d="M76.3,102.7c-0.9-2.1,0-4,0.7-5.9c0.3-0.7,0.8-1.3,1.7-1.1c0.8,0.1,1.3,0.5,1.7,1.3c0.8,1.8,0.8,3.6,0.3,5.5
		C79.3,102.2,77.8,102.5,76.3,102.7z"/>
	<path class="st116" d="M150.6,462.2c-3.6-1-6.8-3.1-10.6-3.1c0.1-1.3,0.2-2.6,0.4-4.1c3.7,1.6,6.7,4.1,10.1,6
		C150.5,461.4,150.6,461.8,150.6,462.2z"/>
	<path class="st117" d="M32.5,141.6c2.3,0.6,3.8,3.1,6.4,2.7c0.8,1,1.6,2,2.5,3C37.9,149.3,33.2,146.3,32.5,141.6z"/>
	<path class="st118" d="M109.2,104.1c2-2.7,3.9-5.5,5.9-8.2c0.4-0.6,0.7-1.1,1.5-0.5c0.9,0.6,0.4,1,0,1.6c-2.1,2.9-3.5,6.2-4.9,9.4
		C110.7,105.7,109.9,105,109.2,104.1z"/>
	<path class="st119" d="M64,20.5c-2-0.9-3-0.4-3,1.9c0,1.4-0.3,2.8-0.5,4.1c-4.7-1.6-4.7-1.6-1.5-5.4c0.8-0.9,1.5-2,2.7-2.4
		C63,18.3,63.9,18.9,64,20.5z"/>
	<path class="st80" d="M96.1,113.6c-2.4,5.4-4.7,6.2-7.5,2.8C90.6,114.3,92.9,113.2,96.1,113.6z"/>
	<path class="st120" d="M98.7,74.1c-1.8-0.4-1.6,1.9-3,2.2c-1.7,0.4-3.3-0.2-5-0.4c1-2.2,3.1-3.4,5.2-4C97.4,71.4,98,72.9,98.7,74.1
		z"/>
	<path class="st121" d="M109.2,104.1c1.3,0.3,2.5,0.7,2.5,2.3c-0.4,1.7-0.9,3.4-2,4.8C106.6,107.7,106.6,107.7,109.2,104.1z"/>
	<path class="st122" d="M55.7,43c-0.6,1.5-1.9,1.9-3.5,2.6c0-2.4,0-4.4,0-6.5c0.4-1.1,1.2-1.3,2.2-1c0.9,0.3,1.3,1,1.3,1.9
		C55.7,41,55.8,42,55.7,43z"/>
	<path class="st123" d="M198.8,612.9c-3.8-1-8.2,1.7-11.7-1.4C191.1,611.1,195.1,610.8,198.8,612.9z"/>
	<path class="st124" d="M111.6,61.6c-0.3,0.9-1,1.4-1.9,1c-2.6-0.9-4.9-0.1-7,1.3c-1.1-0.9-1.4-1.7,0.4-2.3c1.3-0.4,2.6-0.9,3.9-1.5
		C108.9,59.4,110.6,59.3,111.6,61.6z"/>
	<path class="st125" d="M424.3,344.8c2.1,2,3.1,4.2,2.7,7c-0.1,0.9-0.3,1.4-1.1,1.6c-0.8,0.2-1.5,0.2-2.1-0.3
		c-0.7-0.6-0.4-1.1-0.1-1.7C424.8,349.3,424.8,347.1,424.3,344.8z"/>
	<path class="st118" d="M98.3,36.4c-1.5,1.1-2.4,2.8-4.4,3.3c-1.2,0.3-2.2,0.3-3.2-0.6c1.9-1.8,3.7-3.5,6-4.7
		C97.5,34.8,98.1,35.5,98.3,36.4z"/>
	<path class="st126" d="M158.6,366.7c-0.3,6.2-4.7,9.4-9.5,12.2C152.6,375.1,157,371.9,158.6,366.7z"/>
	<path class="st127" d="M158.8,597.9c-1.9-0.5-2.9-1.4-3.9-2.3c-0.6-0.6-1.8-1-1.4-2.2c0.2-0.7,0.9-0.9,1.6-0.9
		c1.1-0.1,2.1,0.1,2.7,1.1C158.5,594.8,158.4,596.2,158.8,597.9z"/>
	<path class="st128" d="M48.1,76.2c0.2-0.1,0.7-0.2,0.7-0.4c1.5-4.3,3.5-1.7,5.4-0.4C51.2,79.3,50.7,79.4,48.1,76.2z"/>
	<path class="st129" d="M77.3,182.9c1.3,0.8,2.5,1.5,3.8,2.3c-1.4,3.9-4.2,1.2-6.7,1.6C75.1,185.1,76.2,184,77.3,182.9z"/>
	<path class="st130" d="M137.7,519.6c-1.6-2.7-0.1-5.5-0.8-8.2C140.5,513.3,140.8,516,137.7,519.6z"/>
	<path class="st131" d="M226.7,617.5c-1.3-1.2-2.4-2.2-3.5-3.1c-0.4-0.3-1-0.5-1.5-0.8c0-0.7,0.6-0.9,1-1.1c0.9-0.6,1.6-2.2,2.6-1.8
		c1.1,0.5,0.8,2.1,1,3.2C226.5,615,226.6,616.1,226.7,617.5z"/>
	<path class="st132" d="M80.4,158.8c-1.2-0.7-2.4-1.3-3.4,0.1c-1.1,1.5-2.2-0.3-3.2,0.1c0.9-1.7,3-3,6.5-4.1
		C80.3,156.2,80.4,157.5,80.4,158.8z"/>
	<path class="st133" d="M50.4,119.8c1-0.7,0.7-2,1.4-2.9c1.7,0.5,2.9,2.1,4.8,1.9c0.3,2.1-0.1,3.3-2.5,2.2
		C52.8,120.6,51.5,120.6,50.4,119.8z"/>
	<path class="st134" d="M60,111.4c-0.6-0.8-1.5-1.4-2.4-1c-3.4,1.6-3.4-0.3-3.1-2.8C57.9,106.8,60,108.2,60,111.4z"/>
	<path class="st135" d="M101.2,168.2c-1-0.9-1.8-1.8-3.3-0.5c-1.5,1.2-2.8,0.4-3.5-1.3c1.7-0.7,3.6-0.9,5.4-1.1
		c1-0.1,2.4-0.8,2.8,0.1C103.1,166.4,101.9,167.4,101.2,168.2z"/>
	<path class="st136" d="M768.2,339.3c0.5,1.8-0.6,3.3-1,5c-1.7,1.1-3.2,0.4-4.9-0.6C764.3,342.2,766.2,340.8,768.2,339.3z"/>
	<path class="st137" d="M94.4,136.2c-0.9,1.5-2.8,1-4,2c-1.1-1.3-2.3-2.7-3.7-4.3C89.7,134.1,92.2,134.4,94.4,136.2z"/>
	<path class="st138" d="M70.8,67.3c-0.1,3.4,0,3.4-3.2,2.2c-0.8-0.3-1.8,0.4-2.7,0C66.4,67.4,67.9,65.5,70.8,67.3z"/>
	<path class="st139" d="M70.7,96.8c0.1-1.1,0-2.2,0.2-3.3c0.2-1,0.6-2,1.9-2.2c0.9-0.1,1.5,0.7,2.1,1.3c1.1,1-0.3,1.6-0.6,2.3
		c-0.1,0.3-0.4,0.6-0.6,0.9C72.7,96.3,71.9,97.2,70.7,96.8z"/>
	<path class="st140" d="M470.5,423.2c-1.1,2.7-2.3,5.5-4,8C464.8,427,465.5,425.8,470.5,423.2z"/>
	<path class="st141" d="M85.8,123.5c-0.3,0-0.6,0-0.8-0.1c-1-0.3-2.5-0.3-2.7-1.5c-0.1-1.1,1.2-1.7,2.1-2.4c1.3-1,1.8,0.3,2.5,0.9
		c0.4,0.3,0.8,0.8,1.2,1.2C88,123.1,86.9,123.3,85.8,123.5z"/>
	<path class="st142" d="M56,155.6c-1.4-2.4-3.7-0.7-5.5-1.2c0-1.2-0.2-2.9,1.2-3c1.9-0.2,3.4,1.3,4.9,2.5
		C57.3,154.5,56.6,155.1,56,155.6z"/>
	<path class="st127" d="M193,331.5c-2.3-2.2-1.1-6.7,2.3-8.1C194.5,326.2,193.8,328.8,193,331.5z"/>
	<path class="st143" d="M55.7,43c-0.1-0.6-0.2-1.3-0.2-1.9c-0.2-2.6-0.7-3-3.3-2c-0.3-4.2-0.3-4.2,1.3-6.3
		C53.8,36.5,57.4,39.1,55.7,43z"/>
	<path class="st144" d="M85.1,30c-0.8-0.3-1.4,0.2-2,0.6c0-2.4,0.8-4.5,1.4-6.8c0.1-0.5,0.2-1.2,1-1c0.5,0.2,0.5,0.7,0.5,1.2
		C86.2,26.1,86,28.1,85.1,30z"/>
	<path class="st145" d="M70.7,96.8c0.9-0.7,1.7-1.4,3-0.9c-0.7,2.7-1.1,5.4-2.3,7.9c-0.2,0-0.5-0.1-0.7-0.1
		C70.7,101.4,70.7,99.1,70.7,96.8z"/>
	<path class="st146" d="M191.5,314c-1.6,2.3-2.3,2.7-7.3,3.8C185.7,314.8,187.8,313.7,191.5,314z"/>
	<path class="st147" d="M76.3,102.7c1.4-0.9,2.9-2.2,4.5-0.2c0,2.2-2.2,2.5-3.3,3.6c-0.4,0.4-0.8-0.2-0.9-0.7
		C76.4,104.5,76.4,103.6,76.3,102.7z"/>
	<path class="st148" d="M222,619.6c-4.3-1.2-6.5,3-10.4,2.7C216.8,618,219.6,617.1,222,619.6z"/>
	<path class="st149" d="M189.2,324c0.5,5.2-3.6,4.3-6.6,5.6C184.4,326.8,187.1,325.9,189.2,324z"/>
	<path class="st150" d="M92.7,143.3c1.1-1.1,2.2-1.9,4-0.9c1.2,0.7,2.3-0.2,3-1.2c0.6,0.4,1.3,1,0.5,1.5c-2.2,1.3-4.7,1.8-7.2,1.6
		C92.9,144.2,92.8,143.6,92.7,143.3z"/>
	<path class="st151" d="M98.3,36.4c-1.3-0.1-1.8-0.8-1.6-2.1c0.5-0.5,1-1.1,1.5-1.6c0.7-0.5,1.4-1.8,2.2-1c0.8,0.8,0.5,2.1-0.3,3
		C99.6,35.4,98.9,35.9,98.3,36.4z"/>
	<path class="st152" d="M104,117.8c-2.8,1-2.9-2.2-4.6-2.9c0.5-0.9,1.2-2,2.3-1.3C103.3,114.4,104.4,115.8,104,117.8z"/>
	<path class="st153" d="M179.1,607.9c-2.2,0.3-4.2,0.3-6.2-0.9C176,604.9,177.7,605.1,179.1,607.9z"/>
	<path class="st154" d="M45.5,158.9c0.4,1.2,1.6,1.5,2.5,2.1c-0.4,0.8-0.3,2.2-1.9,1.9c-1.1-0.2-2.4-0.6-2.6-1.8
		C43.3,159.9,44.4,159.2,45.5,158.9z"/>
	<path class="st155" d="M23.6,99c1.5,0.2,2.5,1.5,3.9,2c-0.9,1.7-2.2,2.2-3.9,1.1C22.1,101.1,21.4,100,23.6,99z"/>
	<path class="st131" d="M175.2,340.4c0.4-2.6,0.5-5.3,3.7-6.9C179,336.8,176.7,338.4,175.2,340.4z"/>
	<path class="st156" d="M38.2,138c-0.5-1-0.3-1.9,0.1-2.9c0.4-1.1,0.5-2.2-0.7-2.9c0.9-1.6,2.3-1.1,3.9-0.8
		C40.5,133.7,38.6,135.5,38.2,138z"/>
	<path class="st157" d="M387.8,365.2c-3.3-2-6.9-2.6-10.7-2.4c1.6-0.4,3.2-0.9,4.9-1.2C385,361,386.1,363.7,387.8,365.2z"/>
	<path class="st158" d="M750.2,343.1c0.7-0.8,1.5-1.6,2.2-2.4c1.7,0,3.2,0.5,4.9,1.5C754.9,343.2,752.5,343.2,750.2,343.1z"/>
	<path class="st2" d="M406.5,374.3c0.7,5.8,1.1,11.7,1.1,17.6c-1-3.9-1.2-7.9-1.1-11.9C406.5,378.1,405.4,376.2,406.5,374.3z"/>
	<path class="st159" d="M159.1,70.2c-1.7,0.9-2.6,2.8-4.2,2.4c-0.7-0.2-0.9-2.4-0.2-3C156,68.3,157.3,69.7,159.1,70.2z"/>
	<path class="st160" d="M124,98.1c-2.2,1.7-3.9,2.9-5.7,4.3C119.2,98.8,120.3,97.9,124,98.1z"/>
	<path class="st161" d="M540.1,756.4c-3.8,0.1-6.5-2.3-9.2-4.5C534.4,752.5,537,754.9,540.1,756.4z"/>
	<path class="st162" d="M85.8,123.5c0.8-0.6,1.5-1.3,2.3-1.9c1.3,0.5,1.9,1.6,3.5,2.8C89,124.6,87.3,124.3,85.8,123.5z"/>
	<path class="st163" d="M169.9,338.7c-1.5-0.2-2.4,1.1-3.6,1.6c1-2.1,2.5-3.8,4.7-5.1C170.8,336.6,170.5,337.7,169.9,338.7z"/>
	<path class="st164" d="M147.1,511.8c0.2-1.1,1.3-2.2,0-3.3c1.2,0.1,2.3,0.5,3.4,1.2C149.4,510.5,148.5,511.5,147.1,511.8z"/>
	<path class="st165" d="M330.5,177.4c-1.3,0.3-2.5,0.9-3.5-0.1c-0.1-0.1,0.2-1,0.5-1.2C328.9,175.5,329.6,176.6,330.5,177.4z"/>
	<path class="st166" d="M416.7,277.4c-0.5,3.4,1.4,6.8,0,10.3c-0.9,2.5-1.3,2.8-3.5,1.4c-10.6-7-22.2-11.4-34.5-14
		c-5.6-1.2-5.9-1.4-6.8-7.4c-0.6-3.8-2.9-6.9-3.7-10.6c-0.6-2.7,0-3.2,2.7-2.8c13.3,1.8,25.4,7.2,37.5,12.6c1.2,0.5,2.2,1.4,3.4,2
		C415.5,270.6,417.8,273,416.7,277.4z"/>
	<path class="st166" d="M373.6,320.2c-5.7-2.2-11.3-4.6-17.4-5.5c-2.6-0.4-2.9-1-1.7-3.3c1.9-3.7,4.3-7.1,5.6-11
		c0.9-2.5,2.7-3.1,5.2-2.6c7.4,1.5,14.9,3.1,22.1,5.6c3.5,1.2,6.8,3,10,5.1c2.1,1.4,2.1,2.9,1.3,4.8c-1.4,3.4-3.9,6-6.1,8.7
		c-1.2,1.5-2.5,2.7-3.2,4.6c-0.6,1.5-1.9,1.9-3.5,1.2c-1.4-0.6-2.6-1.5-3.4-2.8c-2.1-2.6-4.6-4.2-8-4.2
		C374,320.9,373.7,320.6,373.6,320.2z"/>
	<path class="st167" d="M373.6,320.2c1.3,0.1,2.6,0.1,3.9,0.3c2.6,0.4,4,2.2,4.9,4.6c0,1.3-0.4,1.9-1.9,2.2c-8,1.6-16,3.6-23,8.1
		c-3.5,2.3-5.7,6-9.3,8.1c-1.4,0.8-2.9,1.7-4.6,2.2c2.9-4.1,4.8-8.9,8.5-12.3c4-3.7,8.5-6.9,12.7-10.4
		C367.3,320.9,370.3,320.2,373.6,320.2z"/>
	<path class="st36" d="M352.3,270.6c-4.5-0.9-10.2-1-15.6-2.6c-1.6-0.5-3.3-0.6-5-0.9c-5.3-1-6.7-3-6.2-8.3c0.4-3.6,0.7-3.9,4.2-3.5
		c8.2,1,16.2,2.7,24.2,4.7c2.5,0.6,4.1,2,2.9,4.9c-0.3,0.7-0.2,1.5-0.1,2.2C356.9,270.7,356.9,270.7,352.3,270.6z"/>
	<path class="st36" d="M354,250.5c-7.3-0.8-14.7-1.5-22-2.6c-4.8-0.7-7-4.7-8.9-8.6c-0.9-1.7-0.3-2.8,1.9-2.8
		c4.1,0.1,8.2,1.1,12.3,1.4c2.8,0.2,5.6,0.6,8.4,0.4c1.4-0.1,2.6,0.3,3.6,1.3c2.8,2.5,4.8,5.7,6.6,9
		C356.7,250.4,355.4,250.7,354,250.5z"/>
	<path class="st168" d="M377.6,277.4c1.3,0.4,3,0.6,4.6,1.3c6.6,2.8,13.4,4.9,19.6,8.5c2.7,1.5,2.9,2.3,0.8,4.6
		c-1.6,1.8-1,4.1-2.1,6c-0.8,1.4-1.1,1.7-2.7,0.8c-7.1-3.9-14.2-7.7-22.1-9.9c-1.8-0.5-3.1-1.2-2.3-3.5c0.3-0.9-0.2-2-0.3-3
		C373,279.3,374.5,277.5,377.6,277.4z"/>
	<path class="st36" d="M364.7,284.1c0,3.2-1.3,4.4-4.3,3.8c-6.3-1.3-12.7-2.6-19.1-3.2c-1.8-0.2-3.1-1.1-3.3-3.2
		c-0.2-2.1-1.5-4-0.9-6.3c0.4-1.5,1.2-2.2,2.6-1.7c6.3,2.5,13.1,2.1,19.5,3.8C363.2,278.3,364.7,279.9,364.7,284.1z"/>
	<path class="st169" d="M366.8,232.7c5.5,0.2,10.8,1.9,16.2,3c2.2,0.4,4.4,1,6.5,1.6c7,2,9.2,8.2,11.7,14c0.7,1.6-1,1.2-2,1
		c-2.9-0.8-5.5-2.4-8.6-2.5c-0.5-0.2-1-0.4-1.5-0.6c-1.1-0.8-3.3-0.7-2.9-3c2.9-1.1,5.5,0.7,8.7,0.9c-1.4-3.3-3-6-6.5-6.9
		c-5.4-1.3-10.8-2.5-16.3-3.4c-0.7-0.1-1.4-0.3-2-0.7C369,235,367,234.7,366.8,232.7z"/>
	<path class="st168" d="M366.8,232.7c1.2,0.9,2.4,1.8,3.5,2.8c-0.7,0.8-1.5,0.6-2.5,0.3c1.8,1.5,3.3,3.1,4.3,5
		c0.9,1.6,2.2,2.4,4.1,2.6c2.8,0.3,5.6,0.8,8.3,1.5c0.7,0.2,1.4,0.5,1.6,1.3c1,0.9,2,1.9,3,2.8c-4.6-0.3-9-1.8-13.5-2.6
		c-1.3-0.2-2.6-0.7-3.9-0.7c-1.9,0-3.1-0.9-3.9-2.3c-2.6-3.8-5-7.7-8.8-10.5c-0.5-0.3-1.2-0.8-0.8-1.6c0.4-0.7,1.2-0.5,1.8-0.4
		c1.8,0.3,3.5,0.7,5.2,1C365.7,232.3,366.3,232.5,366.8,232.7z"/>
	<path class="st33" d="M429.2,310.2c-0.7,0.9-1.5,1.8-2.2,2.6c-2.7-2.8-4.1-6.4-6.8-9.2c-1.4-1.4-0.7-8.5,0.6-10
		c0.7-0.9,1.4-1,2.4-0.3c3.5,2.4,5.5,6.1,8,9.3c0.6,0.8,0,1.8-0.2,2.7C430.8,307,429.6,308.4,429.2,310.2z"/>
	<path class="st170" d="M306.3,228.6c0.7-0.7,1.7-0.6,2.4-0.4c3.6,0.9,7.1-0.3,10.6-0.2c2.3,2.4,5.6,2.3,8.5,3.5
		c-4.3,1.3-8.6,2.7-13,3.8c-1.2,0.3-2.1,1.1-3.4,1.3C309.6,234,308.6,231,306.3,228.6z"/>
	<path class="st171" d="M437.6,292c0,0.2,0,0.4,0.1,0.6c-0.1,0.3-0.1,0.6-0.2,0.8c-0.7,1.5-0.3,4.3-1.6,4.5c-2,0.3-3.5-1.9-4.8-3.4
		c-1.7-1.8-3-3.8-5-5.3c-1.4-1.1-2-2.6-2.2-4.4c-0.2-2.5-0.8-5-1.3-7.5c-0.2-0.9-0.6-1.9,0.7-2.3c0.1,0,0.2,0,0.3,0
		c1.1,1.4,3.3,1.9,3.5,4.1c-0.2,3.5-0.2,6.9,3.1,9.4c1.4,1.1,2.1,2.9,3.6,4.2c0.8-1.1,0.4-2.7,1.5-3.5
		C437.3,289.1,436.9,291,437.6,292z"/>
	<path class="st4" d="M173.4,519.2c5.9-5.3,12.7-9.3,20-12.4c1.1-0.5,2.1-1.2,3.2-1.8c8-2.8,16.2-3.5,24.7-2.3
		c2.5,0.4,5,0.5,7.6,0.8c2.6,0.3,4.7,1.5,5.7,4c1.4,3.2-0.1,5.5-3.5,5.5c-3.8,0.1-7.5,0.2-11.3,0.3c-6.5,0-12,3-17.8,5.1
		c-15.8,5.8-30,14.9-45.4,22.1c-0.6-1.7,0.3-3.1,1.2-4.3c2.6-3.6,5.4-7.1,8.8-9.9C169.2,524.2,171.4,521.8,173.4,519.2z"/>
	<path class="st172" d="M387.6,389.7c-1.2,0-2.5,0.1-3.6-0.5c-4-2.3-7.8-1.1-11.6,0.3c-0.6,0.2-1.2,0.4-1.9,0.6
		c-0.5,0.1-0.9-0.1-1.1-0.6c-0.2-0.5-0.1-1,0.3-1.3c4.9-2.6,9-7.1,15.2-6.5c1.1,0.1,2,0.4,2.8,1.1c0.5,0.4,1,0.9,1.6,1.1
		c1.3,0.4,3.5-0.7,2.9,2.3C391.5,389.5,391.1,389.9,387.6,389.7z"/>
	<path class="st169" d="M429.9,265.6c-0.3,1.5,0.4,2.6-0.7,3.2c-1,0.5-1.7-0.4-2.5-0.9c-3.5-2.2-6.9-4.6-10.8-6
		c-5.5-2-6.6-7.1-7.5-12c-0.4-2.1,1.5-1.3,2.5-0.8c4,2,7.9,4.4,12.1,5.9C428.5,257,428.1,262.1,429.9,265.6z"/>
	<path class="st173" d="M437.6,292c-0.8-0.9-1.5-1.8-2.3-2.7c-3-3.2-5.8-6.7-8.5-10.1c-0.6-1.8-2.4-2.5-3.2-4.1
		c4.5,2.2,8.9,4.8,12.1,8.7C437.8,286.2,437.8,289.1,437.6,292z"/>
	<path class="st14" d="M513,354.9c0.1,0.2,0.1,0.3,0.1,0.5c-2.6,4.5-4.2,5.3-9.1,4.7c-6-0.7-12-1.2-18-1.7
		c-3.4-0.3-6.8,0.2-10.1,0.7c-5.2,0.8-10.3-0.1-15.4-0.2c-0.4,0-0.9-0.3-1.3-0.5c-0.9-0.5-2-1.1-2.1-2.1c-0.1-0.8,1.2-1,1.9-1.5
		c0.5-0.3,0.9-0.7,1.4-1c0.2-0.1,0.4-0.1,0.6-0.2c8.1-2.5,16.4-2.6,24.8-2c6.8,0.5,13.7,1,20.5,0.8
		C508.9,352.4,511.4,352.6,513,354.9z"/>
	<path class="st172" d="M463.8,365c1.7-0.3,3.4,0.6,5.2,1.5c0.4,0.2,0.9,0.5,0.7,1c-0.2,0.6-0.6,0.9-1.3,0.8
		c-0.5-0.1-0.9-0.1-1.4-0.2c-4.3-0.5-7.5,1-9.4,5c-0.9,1.9-2.3,3.4-4.4,4.1c-3.1,1-5.3-0.3-5.4-3.5c0-0.4,0-0.9,0.2-1.1
		C452.6,369.2,456.9,364.8,463.8,365z"/>
	<path class="st174" d="M571.7,369.3c8.6-3.2,16.5-7.9,24.9-11.3c0.8-0.3,1.6-0.5,2.4-0.8c0.6,0.9-0.1,1.5-0.6,1.9
		c-3.3,3.3-6.3,6.9-10.1,9.6c-0.9,0.5-1.8,1-2.7,1.4c-9.5,3-18.1,8-26.8,12.5c-0.4-0.8,0-1.6,0.6-2c3.9-2.5,6.8-6.2,10.2-9.2
		C570.2,370.7,571,370,571.7,369.3z"/>
	<path class="st175" d="M569.5,371.4c-2.2,3.2-4.8,6-7.9,8.3c-1.1,0.8-2.3,1.6-2.9,3c-0.7,0.6-1.4,1.2-2.1,1.8c-2.7-2.2-3-4-0.6-5.9
		C560.2,375.5,564.3,372.4,569.5,371.4z"/>
	<path class="st176" d="M588.3,368.6c3.1-3.2,6.1-6.4,9.2-9.6c0.6-0.6,1.5-0.9,1.5-1.9c1.2-0.7,2.5-1.4,3.7-2.1
		c7.6-2.5,14.8-5.7,21.8-9.6c4.2-2.4,8.7-3.9,13.5-4.6c0.6,0.9-0.3,1.2-0.7,1.5c-7.8,6.1-15,13-23.4,18.3c-0.3,0.2-0.6,0.4-0.9,0.6
		C604.8,363.7,596.5,366.1,588.3,368.6z"/>
	<path class="st174" d="M613.9,360.6c3.3-3.9,8-6.2,11.8-9.6c4-3.6,8.2-6.9,12.3-10.3c0.4-0.2,0.8-0.4,1.3-0.6
		c7.2-0.9,14.2-3.1,21.5-3.8c0.2,0.5,0,1-0.4,1.3c-4.3,3.3-7.4,7.8-11.9,10.9c-0.8,0.4-1.6,0.7-2.5,1.1c-10.5,2.3-20,7.4-30.2,10.5
		C615.2,360.4,614.5,360.5,613.9,360.6z"/>
	<path class="st176" d="M648.5,348.6c4.1-4.1,8.2-8.1,12.3-12.2c0.5-0.2,1-0.5,1.4-0.7c4.6,0.1,9-1.5,13.6-2.1c2-0.3,4-0.9,6.1-0.7
		c0.1,0.3,0.1,0.6-0.1,0.8c-3.1,2.7-5.5,6.1-9.2,8.2c-0.2,0.1-0.4,0.1-0.6,0.2c-6.6-0.6-12.3,2.5-18.3,4.6
		C652,347.3,650.2,348,648.5,348.6z"/>
	<path class="st177" d="M513,354.9c-3.1-1.7-6.4-1.7-9.8-1.6c-8.6,0.2-17.1-1-25.6-1.2c-4.9-0.1-9.7,1-14.5,1.5
		c-0.7,0.1-1.3,0.3-1.9,0c8-5.8,17.7-7.1,26.6-10.5c1.8-0.7,3.8-1.2,5.6-1.8c6.9-2.2,12.9-0.3,18.1,4.4
		C514.5,348.6,514.8,351.1,513,354.9z"/>
	<path class="st174" d="M672.6,341.9c2.7-3.5,6.2-6,9.3-9c0.5-0.2,1-0.4,1.6-0.6c8.7,0,17.4,0,26.2,0c0.1,1.1-0.8,1.4-1.5,1.9
		c-3.4,2.6-6.9,4.8-10.9,6.5c-0.3,0.1-0.6,0.1-0.8,0.2c-6.9,1.1-13.8,1.2-20.7,1.1C674.6,342,673.6,342,672.6,341.9z"/>
	<path class="st176" d="M697.3,340.7c3.8-3.3,8.6-5.1,12.3-8.4c0.3-0.1,0.7-0.1,1-0.2c2.9,0.6,6.1-0.5,8.8,1.2
		c0.8,0.5,2.2,0.7,2.3,1.9c0,1.2-1.3,1.4-2.1,2C712.7,342.1,704.9,340.7,697.3,340.7z"/>
	<path class="st178" d="M412.6,285.1c-10.4-6.2-21.6-10.4-33.2-13.3c-1.1-0.3-1.7-0.8-1.7-1.9c0-3.3-1.1-6.2-3-8.9
		c-0.6-0.8-1.2-2-0.7-2.9c0.7-1.2,1.9,0,2.8,0.2c11.1,2.1,21.3,6.7,31.6,10.9c3.1,1.3,4.7,3.4,4.4,6.6
		C412.5,278.9,413.9,281.9,412.6,285.1z"/>
	<path class="st1" d="M395.9,311.7c-0.6,1.2-1.1,2.5-2.1,3.6c-2.1,2.3-4.2,4.6-6.2,7c-0.9,1.1-1.3,0.8-2.2,0.2
		c-7.6-4.9-16-7.8-24.7-9.9c-1.6-0.4-1.8-1.4-0.8-2.1c2.8-2,3.1-5.2,4.4-8c0.6-1.4,1.1-2,2.9-1.6c9.5,2.2,18.9,4.7,27.5,9.6
		C395.1,310.8,396.1,310.5,395.9,311.7z"/>
	<path class="st40" d="M351,264.2c0.8,3.2-1.1,3.3-3.4,2.9c-4.1-0.8-8.3-1.4-12.5-1.6c-2.9-0.1-5.5-4.3-4.3-6.8
		c0.4-0.9,1.3-0.6,2-0.6c4.8,0,9.4,1.7,14.1,2.5c0.6,0.1,1.1,0.3,1.6,0.3C350.6,261.2,352.1,261.8,351,264.2z"/>
	<path class="st40" d="M331.3,239.4c4.1,1.1,8.3,1.1,12.5,1.4c1.7,0.1,2.9,1.2,3.9,2.5c0.6,0.9,1.1,2.2,0.6,3.1
		c-0.4,0.8-1.7,0.3-2.7,0.2c-3.2-0.4-6.3-0.9-9.5-1c-3.3,0-5.1-1.4-6.1-4.3C329.6,240.1,329.7,239.3,331.3,239.4z"/>
	<path class="st40" d="M396.6,295.7c-5.1-4-10.8-6.2-16.6-8.1c-2.2-0.8-3.5-5.6-1.8-7.3c0.7-0.7,1.2-0.2,1.8,0
		c6.1,2.1,12,4.9,17.8,7.6c1.1,0.5,1.4,1,0.6,2.1C397.2,291.6,397.7,293.9,396.6,295.7z"/>
	<path class="st40" d="M359,282.3c0.2,1.8-0.1,2.7-2.4,2.1c-3.4-0.9-7-1.3-10.5-1.9c-2.3-0.4-3-2.3-3.5-4.2
		c-0.3-1.3,0.7-1.5,1.8-1.3c4,0.7,8.1,1.5,12.1,2C358.7,279.3,359.2,280.4,359,282.3z"/>
	<path class="st167" d="M386.1,246.2c-0.5-0.2-1-0.5-1.5-0.7c-4-2.3-7.7-5.1-11.6-7.7c-0.6-0.4-1.2-0.9-1.1-1.8
		c6.2,0.6,12.2,1.9,18.1,3.7c3.7,1.1,4.9,4.9,6.4,8.5C392.8,247.5,389.6,246.2,386.1,246.2z"/>
	<path class="st179" d="M371.9,236.1c2.6,2.4,5.9,3.9,8.7,6c1.4,1,2.9,2.1,4,3.4c-3.4-0.4-6.7-1.5-10.2-1.5c-0.8,0-1.2-0.4-1.5-1
		c-1.8-2.8-3.8-5.5-6.7-8c1.8,0.2,3,0.3,4.2,0.4C370.8,235.7,371.4,235.9,371.9,236.1z"/>
	<path class="st180" d="M426.5,307.7c-1.9-1.6-2.7-4-4.3-5.9c-0.8-1,0.1-3.2,0.9-4.7c0.2-0.4,0.6-0.3,1-0.2c1,0.4,4.6,5.5,4.6,6.5
		C428.7,304.8,428.3,305.4,426.5,307.7z"/>
	<path class="st181" d="M426.9,279.2c3.5,2.8,6.4,6.1,8.5,10.1c-0.1,0.5-0.2,1.1-0.5,1.6c-0.4,1,0.6,2.7-0.6,3
		c-1.5,0.4-1.8-1.6-2.6-2.5c-1.2-1.4-2.2-2.9-3.8-4C426.4,286.4,425.9,280.5,426.9,279.2z"/>
	<path class="st182" d="M413.1,252.4c3.6,1.8,7,3.5,10.4,5.2c0.5,0.3,1,0.6,1.1,1.2c0.3,1.5,2.2,3.1,0.7,4.4c-1.2,1.1-2.3-1-3.6-1.4
		c-0.9-0.3-1.6-1-2.5-1.3C415.5,259.4,413.1,257.2,413.1,252.4z"/>
</g>
</svg>
