<?xml version="1.0" encoding="utf-8"?>
<!-- Generator: Adobe Illustrator 19.2.1, SVG Export Plug-In . SVG Version: 6.00 Build 0)  -->
<svg version="1.1" xmlns="http://www.w3.org/2000/svg" xmlns:xlink="http://www.w3.org/1999/xlink" x="0px" y="0px"
	 viewBox="0 0 962.3 1422.1" style="enable-background:new 0 0 962.3 1422.1;" xml:space="preserve">
<style type="text/css">
	.st0{fill:#EFA943;}
	.st1{fill:#2F75A8;}
	.st2{fill:#95A1A1;}
	.st3{fill:#46AAE5;}
	.st4{fill:#732F08;}
	.st5{fill:#565A5A;}
	.st6{fill:#361A09;}
	.st7{fill:#722F08;}
	.st8{fill:#94A0A0;}
	.st9{fill:#95A0A0;}
	.st10{fill:#46A9E4;}
	.st11{fill:#FEFEFE;}
	.st12{fill:#939F9F;}
	.st13{fill:#46AAE4;}
	.st14{fill:#575B5B;}
	.st15{fill:#FDFDFD;}
	.st16{fill:#45A8E3;}
	.st17{fill:#45ABE5;}
	.st18{fill:#02F5D8;}
	.st19{fill:#555959;}
	.st20{fill:#545858;}
	.st21{fill:#2F75A7;}
	.st22{fill:#FCFDFD;}
	.st23{fill:#5A5F5E;}
	.st24{fill:#45A8E2;}
	.st25{fill:#06F4DC;}
	.st26{fill:#04F5DB;}
	.st27{fill:#585C5C;}
	.st28{fill:#F8F8F8;}
	.st29{fill:#F7F7F7;}
	.st30{fill:#939E9E;}
	.st31{fill:#F9F9F9;}
	.st32{fill:#08F2DC;}
	.st33{fill:#919D9D;}
	.st34{fill:#FAFAFA;}
	.st35{fill:#FAFBFB;}
	.st36{fill:#03F0D6;}
	.st37{fill:#43ACE4;}
	.st38{fill:#8B9696;}
	.st39{fill:#0A0A06;}
	.st40{fill:#44A6E0;}
	.st41{fill:#2F74A7;}
	.st42{fill:#080805;}
	.st43{fill:#8E9999;}
	.st44{fill:#44A4DE;}
	.st45{fill:#03F3D7;}
	.st46{fill:#97A2A2;}
	.st47{fill:#8C9797;}
	.st48{fill:#F3F3F3;}
	.st49{fill:#05ECD5;}
	.st50{fill:#929D9D;}
	.st51{fill:#F4F4F4;}
	.st52{fill:#44A4DD;}
	.st53{fill:#43A4DE;}
	.st54{fill:#06F3DB;}
	.st55{fill:#ECECEC;}
	.st56{fill:#2C76A5;}
	.st57{fill:#05F4DB;}
	.st58{fill:#8F9A9A;}
	.st59{fill:#F5F5F5;}
	.st60{fill:#879292;}
	.st61{fill:#656B6B;}
	.st62{fill:#E0E0E0;}
	.st63{fill:#2D79A8;}
	.st64{fill:#EDEDED;}
	.st65{fill:#889191;}
	.st66{fill:#42A2DA;}
	.st67{fill:#4A4E4D;}
	.st68{fill:#949999;}
	.st69{fill:#859090;}
	.st70{fill:#3DACDD;}
	.st71{fill:#A8AFAF;}
	.st72{fill:#8B9595;}
	.st73{fill:#E1E1E1;}
	.st74{fill:#5E6262;}
	.st75{fill:#40ADE0;}
	.st76{fill:#F0F0F0;}
	.st77{fill:#DADBDB;}
	.st78{fill:#404343;}
	.st79{fill:#EDEFEF;}
	.st80{fill:#D3D3D3;}
	.st81{fill:#D9DADA;}
	.st82{fill:#D7D8D8;}
	.st83{fill:#F2F3F3;}
	.st84{fill:#8F8F8F;}
	.st85{fill:#030302;}
	.st86{fill:#020201;}
	.st87{fill:#070604;}
	.st88{fill:#0A0906;}
	.st89{fill:#070705;}
	.st90{fill:#040402;}
	.st91{fill:#050403;}
	.st92{fill:#080705;}
	.st93{fill:#040302;}
	.st94{fill:#090906;}
	.st95{fill:#0D0C08;}
	.st96{fill:#070704;}
	.st97{fill:#060604;}
	.st98{fill:#0B0A07;}
	.st99{fill:#15140D;}
	.st100{fill:#322F1F;}
	.st101{fill:#0E0D09;}
	.st102{fill:#1D1C12;}
	.st103{fill:#0E0E09;}
	.st104{fill:#11100B;}
	.st105{fill:#1A1910;}
	.st106{fill:#10100A;}
	.st107{fill:#18170F;}
	.st108{fill:#13110B;}
	.st109{fill:#13120C;}
	.st110{fill:#262317;}
	.st111{fill:#1C1A11;}
	.st112{fill:#090805;}
	.st113{fill:#05F5DB;}
	.st114{fill:#04F2D8;}
	.st115{fill:#03F2D7;}
	.st116{fill:#03F1D7;}
	.st117{fill:#04F0D7;}
	.st118{fill:#1B1B1B;}
	.st119{fill:#2F76A8;}
	.st120{fill:#C9F4FA;}
	.st121{fill:#45ACE5;}
	.st122{fill:#42ABE1;}
	.st123{fill:#42AEE4;}
	.st124{fill:#2C7CAB;}
	.st125{fill:#2E78A9;}
	.st126{fill:#2D79A9;}
	.st127{fill:#2C7CAA;}
	.st128{fill:#010101;}
	.st129{fill:#020303;}
	.st130{opacity:0.56;fill:url(#SVGID_1_);}
</style>
<g id="Layer_1">
	<g>
		<path d="M835.7,1278.4c3.8,5.3,9.3,8.2,15.4,9.5c22.2,4.9,44.3,4.6,66.1-1.6c0.6-2.7-1-4.1-1.7-5.7c-6.6-13.7-1.2-28.4,12.7-34.4
			c3.1-1.4,6.4-2.6,9.8-3.3c9.1-1.8,16.7,0.8,22.6,8.2c9.8,12.2,13.1,26.5,11.5,41.5c-2.3,20.8-10.8,39.8-26.3,53.7
			c-13.8,12.3-31,20.1-49.6,23.6c-12.3,2.3-24.7,3.7-37.3,3.7c-10.5,0-20.4-3-30.6-4.6c-16.3-2.5-32.9-4.3-49.4-11.3
			c-3.5,19.6-16.9,31.6-29.9,44c-5.1,4.9-10.9,8.3-17.8,10.2c-25,6.9-50.2,11.6-76.3,9.8c-17.9-1.2-35.7-3-52.5-10
			c-7.2-3-14.8-5.2-22.2-8c-23.4-8.6-43.4-22.6-61.5-39.4c-11.2-10.4-19.5-23-24.3-37.6c-2.5-7.7-3.1-7.1-9-4.3
			c-5.3,2.5-10.9,3.4-16.5,3.4c-10-0.1-20.1-0.6-30.1-1.5c-7.9-0.7-13.5-6.4-20.2-10.8c-9.4,10-20.9,17.4-32.9,24.4
			c-16,9.3-33.4,14-51,18.4c-11.2,2.8-22.5,5.1-33.9,7.3c-4.3,0.8-8.7,0.7-13.1,1c-7.2,0.4-14.4,0.7-21.5,0.8
			c-26.2,0.4-52.1-2.1-74.8-17.4c-14.2-9.6-26.2-21.6-34.6-36.6c-3-5.3-6.7-7.9-12.6-8.2c-19.5-0.9-26.2-18.5-22.1-35
			c4.7-18.6,15.7-26.6,35.4-24.2c2.6,0.3,4.1,0.3,5.4-2c13-23.7,53.5-32.6,77.3-22.6c0.9,0.4,1.8,0.6,2.6,0.9c2-1.2,1.4-3.4,1.8-5.1
			c2.7-10.3,9-17.5,18.1-23c17.5-10.5,36-11.7,55.7-7.4c3.4-8.7,2.8-17.8,3.3-26.8c0.5-8.1,0.1-16.4,1.9-24.4
			c1.3-6.1-0.7-10.1-6.3-12.9c-12.6-6.3-15.4-18-16.9-30.6c-0.6-5.1,3.1-8.8,3.7-13.6c-2.2-1.8-4.7-1-7.1-1
			c-78.6-0.1-157.2-0.1-235.8-0.1c-9.1,0-18.2,0.2-27.3,0c-11.9-0.3-12.1-0.7-12.1-12.3c0-227.9,0-455.9,0-683.8
			c0-92.4,0-184.9,0-277.3c0-11.6,0-11.4,11.7-13.1c6.9-1,13.7-1.3,20.7-1.2c103.4,0.1,206.9-0.1,310.3,0.2
			c8.8,0,13.4-2.9,15.6-12.1c-3,0-5.7,0-8.3,0c-20.1,0-40.2,0.1-60.4,0c-8.6,0-10-1.4-10.1-9.7c-0.1-18.5-0.1-37.1,0.1-55.6
			c0.1-8.7,1.8-10.3,10.7-10.3c55-0.1,110-0.1,165.1-0.2c5.1,0,9.6,0.3,9.4,7.2c-0.1,1.8,1.8,2.3,3.2,3c10.9,5.4,15.4,17.5,7.9,27.4
			c-4.3,5.6-3.3,12.9-1.9,19c2,8.6,3.8,17.2,4.5,25.9c0.4,4.1,1.9,5.6,5.8,5.2c1.6-0.2,3.1,0,4.7,0c64.1,0,128.3-0.1,192.4-0.1
			c1.3,0,2.5,0.1,3.8,0c4.3-0.3,6.2,1.3,5.8,6c-0.5,6.3-0.2,12.6-0.2,18.8c0,93.7,0,187.4,0,281.1c0,2.5,0.3,5.1,0,7.5
			c-0.6,5.4,1.7,8.2,6.6,10.8c25.8,13.6,48.4,31.6,67.6,53.4c13.5,15.4,24.2,33,31.1,52.4c6.2,17.6,8.1,36,8.6,54.7
			c0.3,15.1-0.7,30.1-3,45.1c-0.6,4,0.2,6,3.5,9.2c6.6,6.2,12.4,12.4,22.4,12.6c3.4,0.1,5.4,3.9,7.5,6.8c3.7,5.2,8,9.2,14.6,11.1
			c6.9,2,12.2,6.8,14.1,14c0.9,3.4,2.8,5.3,5.9,6.6c6.3,2.7,10.9,6.9,13.1,13.8c1.3,4.2,4.5,7.4,8.6,9.5c6.6,3.5,11.9,8.1,12.9,16.2
			c1.3,9.5,8.3,15.9,13.2,23.3c4.4,6.6,7,13.4,6.5,21.1c-0.5,7.4,0.6,14.4,4,21c3.8,7.5,2.8,15.5,1.2,23.1c-1.6,7.6-1.3,13.6,3.9,20
			c6.1,7.5,5.8,16.5,0.4,24.6c-2.5,3.7-2.8,7.1-3.1,11.3c-0.9,11.8-2.1,23.7-4.8,35.2c-1.3,5.8-5.7,11.1-9.4,16.2
			c-2.7,3.6-3.8,7.2-2.7,11.3c3.4,12.5-0.9,21.5-12.1,27.4c-5.4,2.8-9.1,6-7.4,13.1c1.4,6-2.3,10.5-7,13.3
			c-9.6,5.7-13.5,13.8-13.3,24.8c0.1,8.3-6.2,13.6-12.1,18.2c-5.9,4.6-11.9,9.5-19.2,11.7c-7.7,2.3-10.7,7.4-10.8,15.3
			c-0.1,9.8-3,19.2-5.4,28.6c-2.4,9.7-8.6,16.6-15.9,22.8c-4.3,3.7-10,3.6-15.1,4.5c-2.4,0.4-3.1,1.2-3.3,3.4
			c-2,20.6-2.6,41.3-2,62.1c0.2,6,2.5,10.8,5.8,15.6c2.4,3.5,5.1,4.8,9.5,4.2c7.7-1.2,15.5-1.9,23.4-2.4
			c13.2-0.8,23.3,5.3,30.2,15.9c12.8,19.7,13.6,37.2-5.6,58.9c-9.5,10.7-20.9,15.6-34.9,15.3c-1.2,0-2.5,0.3-3.7,0.5
			C836.3,1277.5,836.2,1277.9,835.7,1278.4z"/>
		<path class="st0" d="M227.3,938.7c-1.9,3.7-1,8.6-5.8,11.2c-3.1,1.7-0.4,5.6-0.2,9.5c-5.9-3.3-11.1,0.7-16.4-1.2
			c-3.3-1.2-5.3,1-6.1,4.2c-1.1,4.3,0.8,9.1,4.2,10.5c3.2,1.3,5.4,0.1,7-2.8c0.7-1.3,0.4-3.3,3-3.6c3.3,2.1,5.1,6.8,9.8,7.8
			c1.7,0.4,1.8,2.3,2.2,3.8c0.7,2.7,1.4,5.5,2.5,8.1c6.6,16.8,6.6,16.8,27.1,33.7c-1.2,2.9-3.8,1.5-5.6,1.5
			c-50.9,0.1-101.9,0.1-152.8,0.1c-9.2,0-8.5,0.2-8.5-8.9c0-249.3,0-498.6,0-747.9c0-38,0-76.1,0-114.1c0-8.7-0.7-8.3,8.1-8.3
			c94.3,0,188.6,0,282.9-0.1c5.1,0,8.9,1.5,12.7,4.7c20.8,17.9,45.9,22.1,72.2,22.3c11.1,0.1,17.9-7.5,21-16.3
			c3.6-10.2,9.9-10.7,18.6-10.7c50.6,0.3,101.2,0.1,151.8,0.1c2.2,0,4.4,0.1,6.6,0c3.6-0.2,5.3,1.2,5,4.9c-0.1,1.6,0,3.1,0,4.7
			c0,76.4,0,152.8,0,229.2c0,2.8,0,5.6,0,8.9c-8.5,0.5-15.9-2-23.4-3.4c-31.8-6.1-63.6-5.5-95.4,0.1c-24.1,4.3-46.8,12.1-67.7,24.6
			c-3.9,2.3-8.1,0.2-11.4,2.2c-3.2,1.9-0.7,7.6-5.3,9.3c-2.2,0.8-3.5,3.6-7.1,3.7c-0.2-6-3.9-6.9-9.3-6.9
			c-6.5,0.1-13.1-1.4-19.6,0.4c-2.7-3.2-5.3-4.1-7.9,0.2c-2.4,4-5.1,6-9.8,2.6c-4.4-3.1-5.5,2.2-10.4,3.7c7.8,2.8,13.7,4,17.6,10.2
			c2.3,3.7,3.7-1.4,4.4-3.9c1-3.4-0.9-9.2,6.2-7.5c7.4,2.9,14.9,5.2,23.1,4.6c1,1.1-0.2,1.7-0.7,2c-13,8.5-23.3,20-33.9,31.1
			c-2.3,2.5-3.7,5.5-7.8,1.2c-2.6-2.7-7.7,0.4-6.7,4.3c2.6,9.8-4.1,14.8-8.7,21.1c-10,13.7-20.3,27.1-28.8,41.8
			c-1.4,2.4-2.8,5-5.7,6c-3.1,1-1.9,2.3-1.1,4.7c1.1,3.2-2.8,8-6.5,9.1c-3.2,0.9-5.8,0.3-5.8-3.7c-0.1-3.1,0.2-6.3,0.2-9.4
			c0-2.2,0-4.4-0.5-6.5c-0.5-2.3-1.9-4-4.5-4c-2.1,0-3.4,1.6-4.2,3.3c-2.3,5.2-2.2,11-2.6,16.2c-1.7,1.8-3.3,0.8-4.7,0.7
			c-8.2-0.6-7.6-0.2-8.4-5.3c-0.3-1.9-1.8-3.4-4.1-3.1c-1.7,0.2-4.4,4.2-3.7,6.5c1.5,5.2-4.1,2.5-6.7,9.2c-1.5,4-1.8,8.5,0.5,12.2
			c1.6,2.5,0.9,4.2,0,6.8c-3.9,11.6-11,26.5-12.9,34.4c-3.6,0.3-6.9-1.1-9-2.3c-5.3-3-8.7-4-11.9,2.5c-1.3,2.6-4.7,2.2-6.1-0.3
			c-1.2-2.2-1.3-5.3-4.9-3.2c-3.1,1.8-4.8,4.8-2.6,7.9c2.2,3.1,3.7,5.6,3,9.8c-0.4,2.6,3.2,3.6,5.7,3.7c4.4,0,8.8-0.3,13.2-0.4
			c4.8-0.1,8.2-1.5,6.9-7.3c-0.7-3.1,1.8-2.5,4.2-4.4c-2.6,12.6-3.2,23.6,0,34.8c3,10.8,9.4,18.2,19,23.3c2.3,1.3,4.7,2.1,4.1,5.3
			c-0.3,1.8-0.3,4.1-2.6,4.5c-2.7,0.5-5.7,0.8-8-1.5c-0.8-0.9-1.5-2-2-3.1c-0.8-1.6-0.9-4-3.3-4c-2.8,0-3.2,2.4-3.9,4.5
			c-2.9,8.8,0.1,12.7,9.3,11.8c7.9-0.8,8.1-0.8,8,6.8c-0.1,5.6-0.7,11.3-1.3,16.9c-0.3,2.7-0.4,5.3-4,6.7c-4,1.5-3.9,5.3-0.8,7.4
			c4.5,3,4.3,6.9,4.3,11.4c-0.1,18.5,0.3,37.1,0.2,55.6c0,6.1,3.3,12.2,0,19.3c-2.8-2.8-3-8.3-8.6-6.8c-2,0.6-1.1-2.1-0.6-3.4
			c0.8-2,0.6-3.8-1.4-4.8c-1.9-1-3.6-0.2-5.2,1c-5,3.7-5.3,11.5-0.1,14.3c3.5,1.9,6,4,8,7.3c0.8,1.4,2.4,2.5,3.9,2.2
			c6.2-1.4,5.5,2.8,5.8,6.6c0.4,6.4-1.5,11.6-6.6,15.8c-7,5.8-13.8,11.8-21,18c-0.8-3.2-1.2-5.7-2.2-7.9c-1.2-2.8-4.1-2.9-5.9-0.3
			c-2.2,3.4-2.3,7.2-1.8,11c0.5,3.5-0.7,5.7-3.4,8c-13,11.4-25.6,23.3-34.4,38.5c-1,1.8-2.4,2.7-4.3,3.3c-3.1,1.1-4.4,3.4-3.5,6.7
			c-1.4,4.7-2,5.5-6,3.2c-4.2-2.3-7.7-3.8-11.7,0.2c-2,2-4.6,1.3-6.9-0.3c-1.8-1.2-3.7-4.7-6.1-1.3c-1.7,2.5-0.6,5.5,0.8,8.1
			c1.6,3,4,2.4,6.4,1c6.3-3.7,12.9-0.8,19.4-0.7C227.6,934,228.8,936.1,227.3,938.7z"/>
		<path class="st1" d="M874.3,1209.6c3.2,5.5,5.3,11.1,5.8,17.6c1,14.6-7.5,24.1-17,33c-4,3.7-10,3.6-15.2,4.4
			c-11.1,1.8-22.1,4.5-33.5,2.4c-3.6-0.7-6.4-2.1-9-4.6c-14.7-14.4-25.5-30.9-27.5-52.1c-0.7-8.1-2.3-16.1-3.4-24.2
			c-1.1-7.5,0-14.9,1.7-23.9c-5.4,5.3-6.8,10.8-7.6,16.2c-3.1,19.6-1,38.8,4.5,57.7c1.4,4.7,4.4,8.9,6.7,13.3
			c1.6,9.5,8.6,15.6,14.5,22.3c25.6,29.1,61.3,34.4,96.4,40.9c6.4,1.2,13.1,0.8,19.4-1.8c5.1-2.1,7.8-5,5.6-10.7
			c3.8-2.7,8.4-4.1,11.7-7.5c2.7-2.7,5.9-1.9,8.8-1.1c5.6,1.6,9.4-0.7,13.9-5.2c-4-1.6-7.4-0.4-10.5-0.8c-14-1.4-21-12.1-16.1-24.8
			c11.8-0.7,23.9-3.4,34.3,5.2c6.1,14.5,6.2,29.4,0.5,43.8c-6.4,16.2-16.9,29.5-32.5,37.9c-11.6,6.3-23.7,11.4-37.4,11.5
			c-6,0.1-11.9,0.8-17.9,1c-28,0.8-55.6-2.7-82.8-9.2c-4.3-1-6.9-2.8-5.7-7.7c0.1-0.6,0.1-1.3,0.1-1.9c1.9-22.2-8.8-37.7-26.3-49.4
			c-7-4.7-14.3-9.1-22.3-12c-9.5-3.5-18.5-1.8-27.6,1.3c-2.1,0.7-4.2,1.5-6.1,2.6c-24.2,13.5-45.7-6.5-50.3-26.9
			c-2-8.6-0.7-16.8,1.1-25.1c4.4-19.3,4.5-39.2,8.3-58.6c0.6-3.3,0.5-6.9-3.2-9.7c-3.5,8.1-1,16.9-3.5,24.9
			c-2.4,7.7-4,15.7-5.9,23.6c-1.4-1.1-1.8-2.5-1.3-5c-6.2,16.8-10.3,33.5-17.6,48.9c-9.9,20.8,10.1,49.3,26.6,54.1
			c4.8,1.4,9.2,1.5,13.4-1.5c2-1.4,3.9-3.3,6.7-2.5c-2.9,9.6-6.9,18.9-5.8,29.3c0.3,3.2,0.9,6.2,2.4,9c11.1,19.9,42.5,20.6,54.4,1.3
			c7.5-12.1,0.1-29.7-14-33.1c-1.2-0.3-2.5,0-3.5,1.3c-0.1,2.4,2.5,2.2,3.8,3.1c11.5,7.4,8.9,25.4-0.8,31.3
			c-1.3,0.8-2.8,1.8-4.2,1.9c-8.6,0.8-16.3-1.7-22-8.2c-5.2-5.9-7.6-13.1-4.2-20.9c2-4.5,3.7-9.3,7.4-12.9
			c5.4-0.2,10.2-2.8,15.1-4.6c13.3-5,26-5.1,38.2,3.6c8.8,6.3,19.1,10.6,25.7,19.9c1.2,1.7,0.6-2.1,2.1-2.1c2.6,2.1,2.2,5.1,2.1,7.8
			c-0.8,19.7-6.3,37.2-21,51.7c-10,9.8-20.7,15.9-34.4,19.4c-31.1,8-62.4,9.3-93.3,2c-31.6-7.5-61.5-19.9-87.2-40.7
			c-17.1-13.9-29-31.1-34.4-52.7c-2.6-10.7-6.1-21.1-8.9-31.7c-3.2-12.1-3.1-24.1,0.8-36.1c5.1-15.8,10.9-31.5,12.6-48.1
			c2.1-20.9,2.1-41.9-2-62.7c-1.3-6.7-2.8-13.3-5-19.9c-1.8,5.9-1,11.9-0.3,17.7c2.3,17.6,1.1,35.1-1.4,52.5c-1,7.2-5.5,13.4-10,19
			c-10.2,12.7-18.8,26.6-29.3,39.1c-6.2,7.4-11.5,15.7-16.3,24.1c-8.9,15.4-19.7,29-34,39.8c-7.5,5.6-13.5,12.9-22,17.6
			c-12.7,7.1-26.6,11-40,16.2c-8.5,3.3-17.5,5-26.1,8c-9.9,3.6-20.4,3.8-30.6,4.6c-20.6,1.7-41.4,1.1-61.8-2.9
			c-7.5-1.5-14.3-4.5-20.6-8.9c-6.2-4.4-12.3-8.7-18.5-13c-15-10.2-21.5-24.8-22.2-42.4c10.1-4.2,20.3-4.2,29.7,1.4
			c10.7,6.4,21.7,12.6,31.1,21.2c3.9,3.5,8.5,5.6,13.8,5c18.1-2.1,36.3-1.3,54.3-4.2c26.8-4.3,47-19.1,61.1-40.4
			c12-18.1,25.4-35.9,31.2-57.6c4.7-17.6,9.4-35.1,13.5-52.9c0.4-1.8,0.5-3.7,0.5-5.6c-0.1-9.1-2.5-10.6-10.7-6.6
			c-4.8,2.3-9.5,4.9-14.6,6.5c-8.6,2.7-17,1.7-24.4-3.1c-5.7-3.7-10.4-8.5-6.2-16.4c1.6,0,3.2-0.1,4.7,0.1
			c21.2,2.8,36-7.6,48.5-23.1c9.8-12.2,16.3-25.8,18.4-41.5c22.8-11,26.4-30,23.4-52.9c-1.4-10.8-6.3-20.9-6.2-31.9
			c15.7,0.1,31.4,0.3,47.1,0.3c3.1,0,6.2-0.7,9.3-1.3c7-1.4,7.4-1.4,7.3,6.1c-0.1,7,3.2,11.1,8.8,14.3c6.8,4,14.2,6.6,21.7,9.1
			c4.5,1.5,8.9,3.2,11.9,7.2c2.3,3.1,3.9,6.4,3.4,10.5c-0.9,7.5,2.2,13.5,7.5,18.5c2.8,2.6,5.6,5.1,5.4,9.4c0,0.3,0.1,0.7,0.2,0.9
			c7.2,8.7,10.5,19.7,17.2,28.7c4.3,5.8,10.5,8.6,17.2,10.8c20.4,6.7,41.4,7.4,62.4,5.5c11.8-1.1,22.9-0.8,33.9,4.5
			c12,5.8,25.2,3.9,38.1,3.1c5-0.3,10.2-0.9,14.8-2.7c14.3-5.4,29-4.1,43.7-3c4.1,0.3,8.1,0.4,12.2,0.6c-4.7,22.6-2.9,45.4-2.9,68.2
			c-0.1,32.1,22.8,53.4,54.8,52.1C859.2,1225.5,866.3,1217,874.3,1209.6z"/>
		<path class="st2" d="M766.7,639.9c-6.4,33.9-10.7,68.1-14.2,102.4c-2.5,24.6-4.5,49.3-8.4,73.8c-4.1,25.7-7.9,51.4-15.4,76.4
			c-3.8,4-5.8,9-6.8,14.2c-4.2,23.3-11.8,46.1-9,70.3c0.2,1.5,0.1,3.1-0.6,4.6c0.1,5.7-2.9,11.3-1.4,17.3c2.5-0.5,2.4-2.3,2.8-3.7
			c4.1-15.8,8.2-31.5,11.1-47.6c3.7-20.7,9.5-40.9,14.3-61.4c10-42.6,16-85.7,20.1-129.2c3.7-39.7,8.4-79.2,16.2-118.3
			c0.1-0.3,0.3-0.5,0.5-0.8c6.5-1.5,12.6,1.3,18.9,2c-4.4,19.9-8.5,39.8-11.7,59.9c-4.9,31.3-8.1,62.9-12.6,94.2
			c-4.3,29.8-10.1,59.4-17.2,88.7c-0.4,1.5-1.2,2.9-1.8,4.3c-11,28.1-22.8,56-22.3,87c-1.1,5.3-2.3,10.6-3.4,15.8
			c3.4,1.3,3.5-1.9,4.9-3c5.1,0.6,4.1,4.6,3.9,7.6c-0.4,4.6-1.4,9.2-1.4,14c1.7-9.3,4.5-18,10.8-25.2c0.7-1.9-0.5-4.4,1.9-5.7
			c2.3-1.5,3.9-4.6,7.2-3.6c1.8,0.6,1.6,2.4,0.6,3.8c-1.1,4.4-3.9,8.2-3.7,13c2.5,3.9,0,7.6-0.4,11.4c1.8-1.8,2.7-4.8,5.5-5.4
			c3.4-0.7,3.5,1.3,2.4,3.8l0,0c-2.1,1.3-0.4,4.1-2.1,5.5l0,0c-1.7,3.6,0,8.2-3.9,11.6c1.9-0.6,2.1-2.1,3-2.9c2.5-2.5,4.2-8,8.1-6.3
			c3.7,1.6,0.8,6.9,1.2,10.5c0.2,1.9-0.8,3.6-1.8,5.3c-2,3.3-6.7,6.7,1.3,9.2c2.2,0.7,1,4.5,0.6,7c-3.2,16.9-37.1,48.7-54.3,50.8
			c-0.7,0.1-1.3,0.1-1.9,0.4c10.5,4.7,20.6,1.5,30.2-2.3c14.8-5.7,28.1-14.2,38.9-25.9c8.6-9.4,19-16.2,29.8-22.8
			c4.9-3,8.8-3.1,13.2-0.2c5-1.6,9.2-4.7,13.9-7c3.3-1.6,6.6-3.3,10.4-3.1c1.8,3.8-4,3-3.6,5.9c-2.5,2.7-5.9,3.3-9.2,4.5
			c-8.9,3.1-17.7,6.4-25.5,11.8c-14.2,9.8-29.1,18.6-41.7,30.5c-5.3,5-11.4,8.9-18.3,11.3c-13.9,4.8-27.8,9.7-43.1,7.8
			c-12.8-1.5-24.3-5-33.2-15.3c-8.9-10.3-20.7-17.2-32-24.5c-14.7-9.5-30-18-46-25.3c-8.8-4-16-11-24.8-15.3
			c-3.9-1.9-8.5-2.3-11.6-5.8c0.2-1.5,1.2-2.3,2.6-2.7c15.9,5.3,28.5,16.8,43.5,23.8c2.8,1.3,5.1,3.7,8.9,2.6
			c-5.7-7.8-14.4-10.9-21.8-15.7c-17.9-11.5-37.8-19.3-55.4-31.2c-1.5-1.7-3.5-3.3-1.6-5.9c9.5,4.8,18.3,10.7,27.3,16.5
			c6.3,4.1,12.5,8.3,19.9,10.5c4.2,1.3,7.8,3.9,11.6,6.2c5.5,3.4,11,6.8,18.3,8.1c-2.5-4.3-5.9-5.9-9.2-7.6
			c-21.8-11.2-42.1-24.7-63.1-37.3c-8-4.8-16.3-9.1-23.9-14.6c-1.3-3.2-5.4-5.9-1.7-10c10.2,7.7,19.7,16.5,31.4,22.1
			c11.5,5.5,19.7,16.1,32.1,20.3c-6.9-8-14.4-15.3-23.3-20.9c-12.7-8-25.8-15.6-35.9-27c-4.6-5.2-11.4-7.6-15.9-12.9
			c-1.2-7.2-2.7-14.4,0.6-21.4c8.7,8.6,15.9,18.5,23.9,27.7c7.8,9,15.5,18,25.5,24.9c6.2,4.3,11.3,9.8,16.8,15
			c11.9,11,23.9,21.9,37.1,31.4c0.7,0.5,1.6,0.6,3.3,1.3c-2.1-4.3-4.8-7.1-7.6-9.7c-5.6-5-10.6-10.8-16.3-15.5
			c-8.9-7.4-16.4-16.3-26.1-22.8c-2.3-1.5-4.1-3.9-5.9-6.1c-16.2-19.6-32.4-39.1-48.3-58.9c-3-3.7-8.1-4.9-9.8-9.7
			c-3.2-5.7-5.1-11.8-5.6-18.4c-0.3-3.9-0.3-7.5,3.5-9.8c12.8,18.2,25.7,36.4,38.4,54.6c6.8,9.8,13.6,19.5,20.8,29.1
			c14,18.7,30.7,34.6,48.1,50.1c7.5,6.7,14.9,13.3,22.9,19.4c2.4,1.8,4.3,4.6,8.6,4.6c-0.2-4.4-3.7-6.2-6.2-8.6
			c-4.7-4.6-10.4-8-15.5-12.1c-11.1-8.8-19.4-20.3-30.1-29.5c-3.3-2.8-6.1-6.3-8.6-10c-23.1-34.7-46.8-69-70.8-103.2
			c1.6-6.3,0.1-12.2-1.4-18.3c-1.5-6.1-4-12.9,3.2-17.6c25.5,41,49.7,82.9,73,125.3c6.5,11.9,14.7,22.6,23.3,33
			c4.8,5.8,9.1,12,14.2,17.5c2.4,2.5,4.5,5.2,9.5,7.8c-5.1-8.1-8.6-15.2-13.5-21.2c-12.6-15.5-21.1-33.4-30.6-50.7
			c-22.5-41.1-46.5-81.2-71-121.1c-0.6-1-1.1-2.2-1.6-3.3c1.5-3.4,3.7-6.6,3.4-10.6c-0.8-11.6,5.3-19.4,14-25.8
			c24.2,50,47.4,100.5,67.9,152.2c6.1,15.3,11.8,30.9,21.2,44.9c5.5,8.2,9.2,17.8,16,25.4c3.2,3.6,6.4,7.3,11.3,9.6
			c0.6-4.2-2.1-5.8-3.8-7.8c-11.5-13.6-19.5-29-25.4-45.8c-17-48-37.2-94.7-59.2-140.7c-6.9-14.4-13.6-28.9-20.4-43.4
			c-1.6-9.3-0.4-18.1,4-26.4c3.6-6.7,8.4-10.9,16.6-9.2c9.4,21.2,17.3,43,25.6,64.7c19.8,51.7,34.8,104.8,47.6,158.6
			c3.1,13,10,24.3,15,36.4c0.9,2.3,2.7,4.1,5.7,5.3c-1.1-10.2-4.4-19.2-7.5-28.4c-5.7-17-8.9-34.6-13.2-51.9
			c-14.7-57.9-34.3-114.2-57.1-169.4c-4.2-10.1-7.9-20.4-11.9-30.6c2.5-6.4,3.6-13.4,7-19.4c6.7-11.8,15.1-21.6,30.2-22
			C604.8,747,625,813.6,632.3,883c1.6,15,3,30,4.4,45c0.7,7.5,1.3,15,3.9,22.2c0.4,1.2,0.9,2.5,0.8,3.7c-1.2,13.8,5,26.4,6.8,39.7
			c0.2,1.8,1,3.4,2.3,4.7c1.1-12.9-1.8-25.5-3.3-38.2c-1.9-16.2-2.8-32.5-3.4-48.7c-0.5-15.1-2.8-30-4.5-45
			c-6-51-19.7-100.4-31.7-150.2c-3.4-14-7.3-27.9-9-42.2c1.4-8.1,7.9-12.2,14.4-14.3c8.6-2.7,14.1-7.2,15.9-16.1
			c2.2,2.3,1.9,5.2,2,8c1.8,37.4,7.3,74.3,12.5,111.3c4.8,34.5,8.4,69.2,8.6,104.1c0.1,22,0.8,43.9,2.9,65.7
			c1,9.6,0.6,19.4,0.6,29.2c0,6.9,1.3,13.6,2.5,20.4c3.1-1,2.7-3.4,2.8-5.5c0.3-5.3,1-10.7,0.6-16c-1.8-26.4-0.3-52.7-0.2-79.1
			c0.2-44.1-4.1-87.8-10.3-131.3c-4.7-32.9-8.5-66-10.8-99.2c4.9-10.9,14.3-14.8,25.4-15.6c5.5-0.4,11.1-0.2,16.5-1.7
			c2.9,4.8,0.1,9.7,0,14.5c-0.7,39.9-0.5,79.8,1,119.7c1.9,49.1-1.4,97.9-8.2,146.6c-2.7,19.3-3.1,38.7-2.9,58.2
			c0.1,6.9-1,13.7-0.1,20.6c0.2,1.7-0.4,3.7,2.4,5.8c1.2-8.5,2.9-16.3,3.3-24.2c1.2-27,5.6-53.7,8.7-80.5c4.7-40,7.2-80.1,5.9-120.3
			c-1.4-42.4-1.8-84.8-0.6-127.2c0.2-6.8-1.7-13.8,1.4-20.4c3.3,3,2,6.6,1.4,10.2c7.2-9.6,19.4-11.5,30.3-4.6
			c-5.7,47.7-7.5,95.7-9.2,143.7c-1.5,43.7-6.8,87-15.2,129.9c-1.4,1.7-0.1,4.1-1.6,5.8l0,0c-5.4,7.3-4.8,16-5.6,24.2
			c-1.6,17-3.7,34.1-0.2,51.2c1.7,1.6,3.6,1.7,4.5-0.6c0.8-2,0.8-4.3,1-6.4c0.6-9.7,1.5-19.4,1.6-29.2c0.1-10.3,4.1-19.6,6.1-29.4
			c12.3-59.6,17.9-119.8,19.4-180.5c0.8-32,2.6-64,6.8-95.8c0.6-4.8-1.6-10.1,2.3-14.4c6.1,3,13.1,0.6,19.4,3.1
			C758.5,635.5,763.3,636.3,766.7,639.9z"/>
		<path class="st3" d="M587.3,389.3c2.6-0.7,5.2-0.7,7.8-0.1c12.3,6.5,25,11.8,38.8,17.9c-0.7-6-5.3-9.4-4.3-14.3
			c0.3-0.9,0.8-1.6,1.5-2.2c6.5,0.5,12.8,1.6,18.9,3.9c3,2.7,3.8,6.3,4.2,10.1c0.8,7.1,4.7,12.5,10.9,15.5
			c25.6,12.6,50.6,26.3,76.7,37.8c7.1,3.1,13,3.3,17.9-3.5c33.1,30.7,50.1,68.8,52.2,113.8c0.7,14.8,0.3,29.4-1.3,44.1
			c-0.3,2.5-0.5,5-1.2,7.4c-1.5,5-3.3,5.2-8.6,1.2c-2.1-8.5-1-17.3-2-26c-1.9-16.9-7.6-32-14.8-47.2c-6.6-14-14.8-26-27.9-34.4
			c-1.6-1-2.7-2.6-3.1-4.5c0.7-8.4-4-15.5-5.5-23.4c-0.4-1.8-1.9-3.3-3.6-4.1c-17.1-8.2-35.2-13.7-53.8-21.6
			c1.2,9.2,4.2,15.6,9.3,21.3c1.7,1.9,6.2,3.5,2.1,7.3c-8.5,2.2-16.8-1.4-25.2-1.1c-2.6-0.5-4.6-1.9-5.9-4.2
			c-8.8-15.4-25.2-17.4-40.3-24.4c1,7.7,4.8,12.3,7.4,17.5c1.5,3.1,5.2,5.8,2.3,10c-4.8,2.3-9.8,3.7-15.2,2.4
			c-0.9-0.3-2-0.7-2.4-1.4c-8.3-18.2-27.7-21.2-43.1-32.6c3.1,13.2,7.7,23.1,19,28.9c3,1.5,7.2,3,6.5,8c-2.4,2.5-5.4,3.3-8.8,3.4
			c-4.8,0-8.3-3.7-12.9-5.3c-2.9,3.7,0.8,8.9-3,12c-19.2,9.3-38.5,18.6-54.7,32.8c-16.5,14.5-32.6,29.4-46.8,46.2
			c-5.2,6-8.6,13.3-11.6,20.4c-10.6,24.9-24.3,48.3-26.7,76.7c-1.9,22.1-2.6,43.6,0.5,65.5c1.6,11.3-0.1,22.5-5.7,32.8
			c-1.6,0.1-3.1,0.4-4.7,0.3c-30.7-2.1-54,13.5-76.2,31.7c-0.7,0.6-1.3,1.4-1.9,2.1c-9.1,10.9-14.2,14.8-28.4,21.6
			c-0.2-5.1-0.5-10-0.6-14.8c-0.9-40.2-1.2-80.4,2.2-120.6c1.9-22,5-43.6,12.9-64.4c3.9-10.3,6.4-21.1,8.1-31.9
			c1.6-10.3,4.8-20.1,9.1-29.6c8.2-18.3,16.7-36.4,27.8-53.3c20.1-30.4,43.5-57.6,72.8-79.4c4.8-3.5,8.7-8.1,14.2-10.8
			c4.2,0.4,6.4,3.7,9,6.3c11.7,11.8,23.4,23.6,36.3,34.1c2.1,1.7,4.5,5.9,7.7,2.4c2.4-2.7,3.9-6.7,1.5-10.5
			c-2.4-3.7-5.8-6.5-9.3-9.2c-9.7-7.5-17.5-17-27.3-24.4c-2.4-1.8-5-4-4.1-7.8c1.3-1.7,3-2.4,5.1-2.3c8.7,4.1,14.9,11.3,21.8,17.6
			c14.7,13.3,30.9,24.7,46,37.4c0.7,0.6,1.7,0.8,3.8,0.1c-1.5-13,0.3-26.4-13.5-36.2c-11.8-8.4-24-17.1-31.5-30.4
			c9.6-4.4,19.7-7.1,30.2-8.4c4.6-0.6,9.1-1.5,13.6-2.3c11.3,3.3,19.3,13.4,31.2,15.7C592.6,401.5,583.5,396.6,587.3,389.3z"/>
		<path class="st1" d="M674.2,485.2c9.5-1.1,18.6,1.9,28,2.1c4.8-1.4,9.2,0.4,13.5,2.1c10.4,4.1,20.9,7.9,30.8,13
			c2.7,1.4,6,2,6.9,5.6c6,5.9,13.7,9.8,19.2,16.2c1.6,1.9,3.9,3.5,4.9,5.6c8.7,17.9,19.7,35.1,22.4,55.1c1.6,11.8,5.1,24,0.7,36.1
			c-2.2-1.7-4.3-3.5-6.5-5.2c-2.3-1.7-5-3.2-7.8-2.3c-10.2,3.7-18.6-0.9-27.1-5.5c-1.1-3.8-3.2-6.8-6.8-8.5
			c-8.7-4.1-17.7-7.3-27.1-11.1c-1.2,9.3,0.7,15.8,9.5,18.7c1.5,0.5,2.8,1.4,3.4,3c-4.2,2.4-8.4,1.1-12.3-0.6
			c-8.1-3.3-16.5-4.5-25.3-3.9c-1.2-5.7,2.2-10.3,3.7-15.3c1.9-6.5,0.1-11.1-5.8-14.1c-18.8-9.5-36.4-21-54.8-31.1
			c-10.7-5.8-13.1-4.4-14.4,8.1c-1.4,14-1.2,13.7,11.2,20.9c16,9.3,32.9,17,49.3,25.5c3.3,1.7,7.2,2.6,9,6.4
			c-3.3,2.3-7.6,2.7-10.6,5.6c-0.8,0.8-2.5,1.5-3.4,1.2c-7.1-2.4-14.8-0.5-21.8-3.2c-1.9-4.2,3.3-4.6,4.2-8.6
			c-12.5-5.6-23.9-13.8-35.9-21.1c-4.2-2.5-7.8-2.1-10.5,2.2c-2.7,4.3-1.5,7.8,2.7,10.2c6.8,3.9,13,8.8,19.5,13.1
			c2.2,1.4,5.5,2.1,4.9,6c-5.9,3-10,5.7-15.2,8c-3,1.3-6.4,2.1-9.6,0c0.5-1.4,2-1.4,2.8-2.1c0.5-0.5-0.8-0.3-1.2-0.4
			c-8.5-3.2-16.6-7.4-24.4-12c-5.8-3.4-9.9-2.9-13.3,3c-0.8,1.4-1.4,2.9-2.5,4c-6.1,6-5.1,10.7,2.5,14.2c1.1,0.5,1.9,1.6,2.2,2.9
			c-2.5,6.2-7.3,8.1-13.6,7.3c-1.5-0.2-3.2,0-4.7-0.2c-18.6-2.9-31,6.6-38.8,21.8c-4.5,8.8-10.4,14.5-19.5,17.3
			c-8.4,2.6-13.7,8-17.2,16c-1.9,4.5-2.7,8.8-2.8,13.6c-0.1,7-1.8,9.3-8.4,10c-12.3,1.3-17.6,10-20.9,20.1
			c-2.7,8.1-3.4,16.7-1.4,25.1c1.1,4.6-0.3,6.8-4,9.1c-3.4,2.1-7.3,3.7-9.2,7.7c-0.7,1.5-2.3,1.7-4,1.3c-3.3-0.9-6.7-1.5-10.1-2.2
			c0-0.9-0.2-1.9,0.1-2.8c5.1-17.9,2.8-35.8,0.2-53.9c-1.6-11.4-0.7-23.2,1.7-34.6c2.5-11.6,2-23.7,5.4-35.1
			c1.2-4.2,2.6-8.2,4.9-12.1c4.2-7.3,7.3-15.2,10.6-23c6.6-15.8,14.2-31,26.3-43.9c14-14.8,28.6-29,44.3-41.8
			c15.3-12.5,32.5-22.4,51.6-28.4c8.2,4.5,14.7,11.4,23.1,15.8c3.3,1.7,6.4,4,9.8,5.6c1.6,0.7,3.5,2.1,5.2,0.3
			c1.2-1.2,0.6-2.9,0.3-4.5c-1-6.5-5.2-10.2-10.7-13.3c-4.9-2.7-11.5-3.9-12.4-11.2c3.4,0.3,6.2-1.9,9.5-2.4
			c7.8-1.6,13.3,5.6,20.7,5.5c-2.7-2.5-4.2-5.3-1.7-8.9c5.8,0.5,11.3-2.1,17-2.2c4.3-2.5,7.8,0.7,11.4,2c7.3,2.7,14.5,5.4,21.8,8
			C675.8,491.5,671.1,488.2,674.2,485.2z"/>
		<path class="st4" d="M48.8,103.6c2.6-0.1,3.7,2.1,5,3.6c7,7.6,13.9,15.3,20.8,23.1c3.4,3.8,6,7.7,4.1,13.6
			c-1.1,3.4-0.4,7.5-0.4,11.2c0,284.1,0,568.3,0,852.4c0,1.9-0.2,3.8,0,5.7c1.3,9.4-1.8,16.7-8.8,23.4c-7,6.7-12.6,14.7-20,21.4
			C47.5,1051.3,46.9,114.9,48.8,103.6z"/>
		<path class="st1" d="M340.4,1073.7c9.5,3.4,17.3,8.5,18.4,19.7c0.2,1.8,0.1,4.1,2.7,4.1c2,0,3.4-1.3,4.3-3.1
			c0.1-0.3,0.3-0.6,0.3-0.9c-1.7-9.5,3.4-17.8,4.6-26.7c1.1-8.3-3.2-14.6-9.3-19.4c-3.6-2.8-8-5.4-12.4-6.4
			c-13.7-3.2-26.7-8.7-40.6-11.2c-12.3-2.2-23.8-7.4-34.5-14.1c-8.2-9.7-11-20.9-9.5-33.4c0.8-6.8,4-11.7,10.4-14.6
			c11.5-5.2,23.3-7.5,35.8-4.2c5.4,1.4,7.4,0.3,8.9-5.7c3.4-14.1,9.7-27.2,19.7-38c11.4-12.2,24.5-22.2,39.3-30.3
			c15.7-8.5,29.9-19.6,45.8-28c6.9-3.7,13.8-7.6,21.8-8.5c2.1,2.7,4.1,5.4,6.5,8.6c-12.3,11.7-10.8,24.8-3.3,38.4
			c0.9,1.6,1.6,3.5,2.7,5c5.3,7.3,8.6,14.5,6.1,24.3c-1.9,7.4,2.8,13.8,8.4,18.9c3.2,2.9,6.8,5.3,9.4,10.2
			c-28.9,0.8-53.7-8-76.9-24.1c13.3-7.8,30.1-7.2,41.7-19.7c-5-2.4-8.6-1.5-12.1-0.4c-21.5,6.5-41.3,16.2-59,30.2
			c-10.9,8.7-20.9,27.9-8.4,44.1c1,1.2,1.9,2.5,1.9,4.2c1,7.3,6,12.4,10.5,17.4c11.2,12.2,20.2,26.3,32.8,37.3
			c1.8,14.7-0.4,29.3-7.1,41.9c-13.3,24.9-35,42.3-68.6,30c-3.3-4.1-7-8-8.6-13.3C317.4,1090.9,323.8,1079.5,340.4,1073.7z"/>
		<path class="st3" d="M344,1132.5c1.1,13.7,13.6,21.8,27.8,17.9c7.6-2.1,14.5-5.9,21.3-9.8c4.8-2.7,6.5-2.3,8.3,2.8
			c2.1,5.8,1.6,11.7,0.1,17.6c-2.5,9.7-5.9,19.2-7.7,28.9c-2.5,13.4-7.3,25.8-11.5,38.5c-1.3,4-3.5,7.5-6.2,10.4
			c-4.2,4.4-7.3,9.5-9.5,15c-6.8,17-19.7,29.1-33,40.5c-11.9,10.2-26.7,14.6-42.1,17.3c-8.1,1.4-16.1,2.4-24.3,2
			c-10.4-0.5-20.5,2.6-30.9,1.9c-3.9-0.3-7.1-1-10.1-3.9c-10.4-10.1-23.5-16.4-35.3-24.6c-2.4-1.7-5.3-1.9-8.1-1.9
			c-6,0.1-11.9,0.1-17.9,0.1c-6-32.3,31.1-65.3,65.8-54.8c11.8,3.6,26.6,17.5,28.4,34.4c0.3,2.7-0.5,4.4-3.3,5.9
			c-8.4,4.2-17.2,5.7-26.9,5.2c1.4,2.3,3.5,3,5.4,3.1c17,1.2,34.1-0.7,47.7-10.9c13.6-10.1,26.2-21.8,34.4-37.9
			c7.6-14.9,11.5-30,12.8-46.6c1.2-14.6,0.7-29.5,4.3-43.9C335.5,1131.1,335.2,1131,344,1132.5z"/>
		<path class="st3" d="M446.1,853c-0.8,1-1.4,2.5-2.4,2.8c-15.4,4.1-28.8,12.7-41.4,21.6c-15.1,10.7-32,18.1-46.5,29.8
			c-15.5,12.5-25.7,28-33.3,45.8c-0.9,2.1-1,4.2-1.1,6.4c-0.5,8.9-0.6,9.2-9.6,6.8c-9-2.4-17.9-2.3-26.8,0.2c-3,0.9-5.8,2.5-8.8,3.3
			c-6.5,1.8-8.8,6.5-9.4,12.5c-1,9.9-0.1,19.3,5.7,27.9c1,1.4,4.1,2.8,1.5,5.4c-11.1-3.5-20.6-10-28-18.4
			c-6.4-7.1-10.2-16.7-10.7-26.7c-1.1-20.5,2.7-40.1,14.6-57.3c7.8-11.4,17.6-21.2,28.2-30.2c4.3-3.7,8.6-7.3,12.4-11.5
			c14.2-15.4,32.3-25.7,49.6-37c8.4-5.5,18.6-7.6,28.4-9.6c19.4-4,39.2-4.8,59-3.9c2.5,0.1,5,0.7,7.4,1.3c6.6,1.7,6.8,1.7,6.4,8.7
			C440.7,838.9,444,845.8,446.1,853z"/>
		<path class="st5" d="M819.7,1040.3c-8.7,0.4-8.9,0.2-17.4,5.6c-5.5,3.5-11.6,6.2-16.3,11.1c-6.7,7-13.1,14.3-21.2,19.9
			c-13.3,9.2-27.2,16.6-43.4,19.2c-7.3,1.2-13.4-1.3-18.8-5c-0.5-1.5-0.2-2.1,0.6-2c11.9,1.7,20.4-5.3,28.5-12
			c8.7-7.2,16.4-15.4,23.4-24.4c4.5-5.8,6.2-12,7.7-18.5c-2.3-1-3.2,1-4.6,1.1c-3.1,0.3-4.8-1.7-3.7-4.5c0.2-0.6,0.6-1.2,1-1.6
			c5.7-5.6,6.6-12.7,6.4-20.7c-5.2,4.7-7,11.8-13.9,16.9c1.7-8.1,3.9-14,7.5-19.5c0.6,0.9,0.5,4.1,2.5,1.7c2.7-3.4,5-7.3,6.8-11.3
			c5.5-12.6,12.4-24.5,18-37.1c7.6-17.1,16.5-33.7,22.9-51.4c0.5-1.4,1.6-2.7,2.4-4c8.8-11.8,14.1-25.5,20.5-38.6
			c1.6-3.4,2.7-7.1,4.4-10.4c2-3.7,4.4-7,9.4-5.4c-10.3,26.3-21.9,52-33.4,77.8c-8.3,18.6-17.7,36.7-24.6,55.9
			c4.5-2.6,10.2-8.6,12.4-14.5c4.6-12.1,11-23.2,17.3-34.5c4.1-7.3,7.3-15.2,10.9-22.8c5.6-2.2,7-7.6,9.2-12.3
			c5.9-12.8,12-25.5,17.3-38.6c2.2-5.4,5-11.5,13.1-7.6c-7.9,18.1-16.4,35.9-25.3,53.6c-2.7,5.3-5.5,10.6-7.9,16
			c-9.1,20.5-21,39.2-33.5,57.7c-3.1,4.6-5.7,9.6-7.7,15.1c4.4-1.7,7.2-5.2,9.7-8.7c11.5-16.8,24.2-32.7,33.8-50.9
			c2.9-5.5,4.3-11.8,8.6-16.5c3.1-1,3.9-3.9,5.2-6.3c9.3-17.1,21-32.7,30.1-49.9c2.3-4.3,5.1-10.3,12.2-5.7
			c-14.4,26.4-28.7,52.9-45.3,78c-5.8,8.9-13,16.9-18.2,26.2c-1.2,2.2-2.9,4.2-2.7,6.9c-0.8,1,0.2-0.3-0.6,0.7
			c0.1-0.3,0.3-0.5,0.4-0.8c8.8-8.4,16.7-17.4,23.5-27.6c10-15,20.6-29.6,30.9-44.3c3.9-2.4,4.9-6.9,7.4-10.3
			c1.9-2.5,2.8-6.7,7.6-4.8c-7.5,14.5-16.7,27.9-26.3,41c-5.9,8.1-12.5,15.7-17.9,24c-6.2,9.5-12.9,18.5-20.9,26.5
			c-0.9,0.9-1.9,1.7-1.7,4.1c4.9-2.2,7.2-8,12.5-8.7l0.2,0.2c0.1,3.7-2.9,5.3-5,7.5c-8.6,8.9-17.3,17.8-27.1,27.8
			c5.5-2.7,21.3-16.6,25.7-21.3c12.2-12.9,23.2-27.1,36.4-39.2c10.2-9.3,17.3-21.3,26.6-31.4c2.8,3.7,0.3,6.2-1.7,9
			c-3.5,5-8.2,9.1-9.8,15.2c-0.8,3-3.3,4.6-5.5,6.2c-7.7,5.6-13.8,12.8-20.2,19.6c-11.2,11.8-22.3,23.6-34.6,34.3
			c-2.7,2.4-5.9,4.6-7.1,8.4c1.9,1.7,3.1,0.2,4.1-0.7c19.3-18.8,40.6-35.5,59.3-55.1c5.8-6.1,9.7-14,17.4-18.3
			c3.4,6.6-5.6,8.1-5.5,13.3c-2.8,4.2-6.9,7.3-10.6,10.6c-1.6,1.5-3.7,2.5-5,4.2c-11.8,14.8-27.5,25.6-40.8,38.8
			c-6,5.9-12.9,10.9-19.4,16.3c-3.6,3-7.2,6.1-10.1,10c2.8,1.6,4.1-1,5.6-2c14.3-9.7,27.4-20.8,40.1-32.5c4.8-4.4,9.1-9.5,15.6-11.5
			c1.4,3-0.6,5.2-1.9,7.5c-8,7.8-16.8,14.7-26.3,20.7c-8,5-14.9,11.1-20.9,18.6c4.6-2.8,9.3-5.4,13.6-8.5
			c9.7-6.8,19.2-13.9,28.8-20.8c0.7-0.5,1.7-0.6,2.6-1c2.7,4.2-3.2,5.2-3.1,8.4c-13.1,7.8-23.7,19.2-37.6,25.8c-2.2,1-4.5,2-5.4,6
			c6.7-3.1,11.8-8.1,18.4-9.3c1.2,0.6,2.9,0.1,3.7,1.7c-6,3.6-11.9,7.2-17.9,10.8C819.6,1038.3,818.4,1038.8,819.7,1040.3z"/>
		<path class="st4" d="M377.4,132.6c-4.5,0-7.6,0-10.7,0c-90.2,0-180.3-0.1-270.5,0.2c-7.3,0-12.5-2-17.1-7.4
			c-7.6-9-15.6-17.7-23.5-26.5c2.5-3.1,5.2-2.1,7.5-2.1c99-0.1,197.9-0.1,296.9,0c1.9,0,3.8,0,5.6,0.2c1.9,0.2,3.1,1.4,2.4,3.2
			C363.7,112.4,370.9,121.6,377.4,132.6z"/>
		<path class="st4" d="M53.6,1065.3c10-12,19.3-23,29.3-33.4c3.3-3.5,7.3-3.1,11.3-3.1c28.3,0,56.5,0,84.8,0c22,0,44,0.3,66-0.1
			c10.1-0.2,20,2,30,1.5c2.3-0.1,4.2,1,6.3,1.7c13.5,4.9,26.7,10.8,40.9,13.8c3.3,0.7,5,2.5,4.9,5.9c-0.1,3.9,1.6,8.4-3.7,10.6
			c-5.8,2.4-11.5,4.5-18,4.4c-22.9-0.3-45.9-0.1-68.8-0.2c-57.2,0-114.3,0-171.5,0C61.8,1066.4,58.3,1067,53.6,1065.3z"/>
		<path class="st4" d="M704.3,105.4c0,5.1,0,7.9,0,10.7c0,91.8,0,183.5,0,275.3c0,11.6,0,11.6-11.1,7.9c-4.2-1.4-8.3-3.1-12.5-4.1
			c-5.1-1.1-6.6-4.1-6.2-8.8c0.1-1.6,0-3.1,0-4.7c0-78.9,0-157.8-0.1-236.7c0-5.4,1.3-9.5,5.1-13.4
			C687.3,123.6,694.1,114.5,704.3,105.4z"/>
		<path class="st6" d="M38.5,583.3c0,156.9,0,313.7,0,470.6c0,3.1-0.1,6.3-0.2,9.4c-0.1,1.4-1,2.4-2.3,2.5c-1.3,0.2-2.5-0.4-3.1-1.7
			c-0.7-1.7-1.5-3.5-1.7-5.3c-0.3-2.5-0.1-5-0.1-7.5c0-313.1,0-626.2,0-939.2c0-3.4-0.6-6.9,0.6-10.3c0.7-1.9,2.2-3.1,4.3-2.8
			c1.9,0.2,2.4,1.8,2.5,3.5c0.1,2.8,0.1,5.7,0.1,8.5C38.5,268.4,38.5,425.8,38.5,583.3C38.5,583.3,38.5,583.3,38.5,583.3z"/>
		<path class="st4" d="M700.3,96.9c-3.7,5.5-7,9.5-10.6,13.4c-5.1,5.5-10.2,11.1-15,16.9c-3.3,3.8-7,5.6-12.2,5.6
			c-53.4-0.2-106.8-0.1-160.2-0.1c-7.3,0-7.2-0.2-5.8-7.4c1.6-7.7,3.1-15.3,4.1-23.1c0.5-3.9,1.8-5.8,5.8-5.5c1.2,0.1,2.5,0,3.8,0
			c61.6,0,123.1,0,184.7,0C696.1,96.6,697.4,96.7,700.3,96.9z"/>
		<path class="st7" d="M469.6,11.6c-5,7.7-9,14.1-16,18.1c-2.5,1.5-4.7,2.9-7.7,2.7c-6.4-0.5-12.5,0.9-18.4,3
			c-3.3,1.1-6.1,1.1-8.8-1c-4.1-3.1-9.1-4.3-13.7-6.2c-5.4-2.3-10.8-2.4-16,1.5c-5.6,4.2-6.1,10-5.3,16.1c0.8,6.2,6.1,8.2,10.9,10.9
			c-2.3,5.8-6.2,8.2-12.3,8.1c-17.3-0.2-34.6,0-51.8-0.1c-6.7,0-6.9-0.2-7-6.9c-0.1-12.9-0.1-25.8,0-38.6c0.1-7.2,0.2-7.3,7.5-7.4
			c28.6-0.1,57.2,0,85.7,0C433.9,11.6,451.2,11.6,469.6,11.6z"/>
		<path class="st2" d="M446.1,160.5c-19.3-2.4-37-8.4-51.4-22.2c4-17,12.4-31.9,21.6-46.5c8.3-13.2,20.2-23.1,29.8-35.1
			c2.7-3.4,6.2-6.7,11.3-3.6c5.5,4.6,12.3,6.2,18.9,7.9c3,4.6,1.3,9.6-0.2,13.6c-6.4,17.8-9.3,36.5-15.5,54.3
			C456.8,139.9,451.2,150.1,446.1,160.5z"/>
		<path class="st8" d="M753.6,913.5c11.8-42.7,20.7-86,26.3-130c5.5-42.9,10.4-86,19.7-128.3c0.9-3.9,1.2-6.3,2.8-11.7
			c2.8,2.9,5.6,5.3,9.9,6.1c5.9,1.1,9.7,4.8,10.9,10.9c0,5.4-2.5,10.3-3.9,15.3c-10.1,36.3-16.8,73.4-24.2,110.3
			c-4.9,24.3-11.1,48.3-17.9,72.2c-0.8,2.7-2.1,5.2-3.1,7.8c-7.3,13.2-9.5,28.2-14.2,42.3c-1,3-1.6,6.6-4.3,8.1
			C752.9,918.1,751.9,916.3,753.6,913.5z"/>
		<path class="st3" d="M432.8,983.2c9.2,17.8,10.3,37.2,8.9,56.5c-0.6,8.8-4.7,17.4-13.3,22.5c-2.9,1.8-5.5,4-8.2,6.2
			c-1.8,1.5-3.3,1.5-4.7-0.4c0.1-7.8,0.9-15.8,0-23.5c-1.4-12.1-9.1-21.2-17.9-28.9c-8-7.1-16.4-13.6-23.6-21.6
			c-6.9-7.6-10.3-16.4-10-26.6c0.1-2.9,0.4-6.2,3.1-7.5c2.4-1.1,4.7,1.1,6.5,2.8c8.7,8,20.3,9.5,30.7,13.6
			C413.6,980,423.5,980.5,432.8,983.2z"/>
		<path class="st9" d="M851.4,677.5c-0.1,1.2,0.1,2.5-0.3,3.6c-12.9,36.4-21.5,74.1-31.7,111.3c-6.1,22.4-12.6,44.7-20.6,66.5
			c-7.9,4.9-9.4,13.5-12.6,21.2c-2.8,6.7-4.1,14.5-11.3,18.5c-0.1,0.1-0.5-0.3-0.7-0.5c-0.4-0.4-0.4-1-0.1-1.6
			c11.5-37.2,22.2-74.7,29.6-113c7.5-38.9,15.5-77.6,25.9-115.8c0.1-0.5,0.7-1,1.1-1.5C843.6,665.8,848,668.2,851.4,677.5z"/>
		<path class="st1" d="M492.6,1210.7c1.5,3.1-0.6,5.5-1.6,8c-3.3,8.5-5.6,17.3-8,26.1c-4.1,14.9-4.4,29.7,0.6,44.5
			c1.2,3.6,2.2,7.2,3.1,10.9c1.9,7.5,1.7,7.8-5.5,9.9c-13.6,4.1-27.3,3.8-41,0.8c-2.7-0.6-5.4-1.8-7.9-3.1c-5.8-2.9-6-3.7-1.1-8.6
			c11.7-11.8,18.8-26.5,26.7-40.8c0.9-1.7,1.7-3.5,2.9-4.9c11.3-13.1,19.6-28.4,30.2-42C491.3,1211.1,492,1211,492.6,1210.7z"/>
		<path class="st10" d="M874.3,1209.6c-3,11.2-12.1,17-21.7,18.4c-34.5,5-61.4-15.7-63.1-51.1c-0.9-17.2-0.1-34.5,0-51.7
			c0-7,1.4-13.6,5.5-19.4c2.2-0.2,4.7-0.9,4.4,2.7c-1.2,17.6,1.1,35,1.2,52.6c0.1,13.8,4.8,26.6,11.7,38.2
			c6.7,11.3,18.1,14.8,30.9,13.9c2.3-0.2,4.2-1.2,6-2.4c0.7-0.4,1.4-1.4,1.3-2.1c-0.1-1.5-1.5-2.2-2.7-1.7c-3.1,1-6.2,0.9-9.3,0.9
			c-3.3-0.1-6-1.6-8.2-4c-1.6-1.8-1.2-3.5,0.8-4.6C845,1191.2,865,1196.1,874.3,1209.6z"/>
		<path class="st8" d="M842.3,849.4c-4.6,1.8-7.5,4.9-9.1,9.8c-5.2,15.7-14.4,29.6-21.1,44.6c-1.2,2.8-2.7,4.8-4.1,0
			c6.9-18.5,13.9-37,20.6-55.6c14.7-40.7,26.3-82.5,39.7-123.6c1-3.2,1.2-6.8,4-9.3c8.9-0.8,12.5,2.3,14.8,13
			C872.5,768.8,858.1,809.4,842.3,849.4z"/>
		<path class="st11" d="M519.7,777.4c-0.3,2.2-0.9,4.1-2.9,5.5c-7,5-9.4,11.9-8.7,20.3c0.2,1.8,0,3.7-0.3,5.5c-0.5,3.1-2.3,5-5.6,5
			c-9.3-14.5-18.2-29.2-26.8-44.1c-4.3-7.4-5.4-15.3-4.9-23.5c0.4-8.9,10.4-19,19.2-19.1c5-0.1,8.5,2.7,10.6,7.6
			C506.6,749,513.3,763.2,519.7,777.4z"/>
		<path class="st8" d="M864.4,852.8c-5.7-0.9-8.7,2.3-10.5,7.1c-5,13.7-11.9,26.7-17.6,40.1c-2.1,4.9-4.5,9.7-8.3,13.4
			c-2.7,2.7-2.4-0.9-3.1-2.2c23.8-53.5,43.7-108.6,64.1-163.5c0.5-1.4,0.7-3.1,2-4.1c9.3,2,13,7.3,13.3,18.8c0.1,5-3.2,8.6-5.1,12.8
			c-10.1,23.2-20.4,46.2-30.7,69.3C867.2,847.3,865.7,850,864.4,852.8z"/>
		<path class="st11" d="M589.2,679.4c-3.7,1.6-7.6,2.9-11,4.9c-10.8,6.2-17.6,15.4-20.8,27.5c-0.9,3.3-0.4,7.8-5.3,9
			c-4.7-10.6-8.5-21.6-12.1-32.6c-3.2-9.7-3.4-20.3,4.3-29.3c8.4-9.8,18.2-15.1,31.4-12.9c5.8,1,8.7,4.7,9.9,10
			c1,4.6,1.5,9.3,2.2,13.9c1.6,2.4-0.2,5.4,1.5,7.8C589.4,678.3,589.4,678.9,589.2,679.4z"/>
		<path class="st11" d="M547.9,736.1c-14.4,3.7-18.2,14.6-18.8,27.7c-0.1,2.7,0.6,5.7-1.7,8c-9.2-17.2-16.9-35.1-24.8-52.9
			c-4.7-10.6,2-27.2,12-32.8c4.5-2.5,9.1-1.9,13.8-1c3.2,0.6,3.1,3.7,3.9,5.9C537.5,706,542.7,721.1,547.9,736.1z"/>
		<path class="st12" d="M792.7,900c22.1-57.5,37.3-117.1,53.3-176.5c3.2-11.7,7.3-23.2,11-34.8c4.6,2.4,8.4,5.7,11.6,9.7
			c-17.5,50.5-30.6,102.5-49.1,152.8c-7.7,10.9-11.5,23.6-16.2,35.9c-1.8,4.7-3.1,9.6-6.4,13.5C795.5,902.1,793.4,904.3,792.7,900z"
			/>
		<path class="st8" d="M889.6,857.1c-4.7-0.9-7.7,1.3-9.8,5.3c-1.6,3.1-3.8,5.8-5.1,8.9c-7.1,16.5-19.6,29.6-27.9,45.3
			c-0.8,1.4-1.5,4.8-4.7,2.3c20.8-42.3,40.4-85.2,59.4-128.3c2-4.5,3.1-9.5,6.2-13.5c7.4,6,14.5,12.1,13.6,23
			C911.2,819.4,900.6,838.4,889.6,857.1z"/>
		<path class="st13" d="M662.5,398.3c16.7,3.1,32.7,8.6,47.2,17.1c11.8,6.9,22.6,15.7,33.7,23.8c2.2,1.6,4,4,5.9,6
			c0.2,1.2,0.6,2.4,1,3.6c1,2.7,1.7,5.7-0.5,8c-2.4,2.4-5.3,1-7.9,0c-7.9-2.9-15.7-6.3-23.3-9.9c-15.5-7.4-30.7-15.5-46.4-22.7
			C660.3,418.7,657.8,411.5,662.5,398.3z"/>
		<path class="st11" d="M499,826.5c-3.2,6.6-3.1,13.3,0.2,19.8c2.1,4.2,1.7,8.5,1.6,12.9c0,2.5-1.6,3.1-3.6,3.2
			c-10.7-15.8-22.7-30.7-32.8-47c-4.8-7.7-7-16-7.1-25c-0.1-4.8-0.1-9.7,5.3-12c3.8-1.7,8.2,0.8,11.9,6.9
			C482.8,798.9,490.8,812.7,499,826.5z"/>
		<path class="st10" d="M674.1,1305.8c-5.7,5.7-11.7,10.3-20.6,6.6c-7.7-3.2-14.4-7.7-19.5-14.3c-4-5.2-7.1-11.1-9.7-17.2
			c-3-7.2-3.6-14.7-0.6-22c6.2-15.4,11.3-31.2,16.7-46.8c0.8-2.2,2.1-3.7,3.7-5.1c2.9,0.8,1,3.4,2.2,4.7c-0.5,7.6-3.9,14.4-5.9,21.6
			c-3.7,12.8-4.6,25.4-0.5,38.6c4.4,14.1,13.5,21.9,27,25.9c3.2,1,6.5,1.8,9.6,2.7C676.9,1303.2,675.1,1304.3,674.1,1305.8z"/>
		<path class="st14" d="M457.4,53.1c-3.5-0.5-6.1,1.1-8.1,3.8c-8.6,11.2-19.7,20.2-27.8,31.9c-7.9,11.4-15,23.1-20.1,36.1
			c-1.8,4.7-4.4,9-6.7,13.5c-5.7-4.4-10.9-9.2-14.6-15.6c10-27.6,29.5-48.2,50.5-67.6c5.7-5.3,12.5-9.2,20.4-10.9
			C455,45.9,455,50.3,457.4,53.1z"/>
		<path class="st15" d="M341.1,576.5c-6.4,23.9-12.7,47.7-19.1,71.6c-1.5,5.7-4.2,6.6-8.4,2.7c-3.9-3.5-5.6-8.2-6.6-13.2
			c-3.4-16.4,1.8-31,8.8-45.3c1.8-3.6,4.1-7.1,6.4-10.4C328.9,571.8,329.9,571.6,341.1,576.5z"/>
		<path class="st10" d="M261.1,1234.2c-5.2-3-5.6-7-4.2-12.7c4.5-18.3,18.3-24.4,34.6-27c6.7-1.1,13.8-0.1,20.7,0
			c3.3,0.1,5.1,1.3,4.4,5.3c-1.2,6.8-1.2,13.8-6.2,19.3c-2.4,3.5-5.9,4.5-9.8,4.3c-13.2-0.7-25.5,1.3-35.8,10.4
			C263.7,1234.7,262.3,1234.6,261.1,1234.2z"/>
		<path class="st16" d="M915.6,1300.1c0.8,0.5,1.7,0.9,2.3,1.6c4.3,4.6,4,4.9-0.9,8.3c-9,6.2-19.1,6.7-28.9,4.9
			c-24.5-4.7-49.2-9.2-71.7-21c-1.4-0.7-3.1-1.2-4.1-2.2c-10.7-10.9-23.7-19.6-31.8-33c-1.8-3.1-4-5.8-0.8-9.2
			c6.8,8.6,13.5,17.2,21.6,24.7c12.1,11.3,26.9,16.8,42.3,21.5c13.8,4.2,28,6.6,42.4,7.9C896,1304.5,905.9,1303,915.6,1300.1z"/>
		<path class="st15" d="M489.6,868c-2.6,7.6-0.5,14.8,1.3,22.1c0.5,2,2.7,3.8,0.8,6.1c-11.6-9.2-21.1-20.3-28.3-33.2
			c-1.5-2.8-3-5.5-5.3-7.6c-6.6-6.2-8.4-14.5-9.6-22.9c-0.3-1.8,0.1-3.8,0.7-5.5c1.8-5.1,6.7-6.2,10.2-2.1c3.4,4,6.3,8.6,9.4,13
			C475.7,847.8,482.6,857.9,489.6,868z"/>
		<path class="st17" d="M493,413.2c5.8-3.7,11.8-7.1,18.6-8.7c13.5,9.7,25.6,21.2,38.1,32.1c7.7,6.7,4.2,17.1,4.7,25.9
			c0.2,3.6-3.5,2.1-5.7,0.7c-6.7-4.2-12.7-9.2-18.8-14.1c-12-9.5-23.1-20.3-34.8-30.3C493.4,417.5,491.8,415.8,493,413.2z"/>
		<path class="st18" d="M698.8,606.3c-18.1-7.8-35.5-17.2-53-26.2c-5-2.6-10-5.2-14.8-8.1c-5.9-3.5-6.8-5.2-5.3-11.4
			c1.1-4.3,1.1-8.7,1.5-13c0.9-8.4,4.3-10.4,11.8-6.9c6.8,3.2,13.3,7,19.8,10.7c13.9,7.8,27.8,15.7,41.7,23.6c7.7,4.4,8.8,7.4,6,16
			c-1.6,5.1-3.2,10.1-5.9,14.8C700.1,605.9,699.4,606.1,698.8,606.3z"/>
		<path class="st19" d="M792.7,900c1.3,1.2,2.1,0.7,2.8-0.6c1.9-3.9,4.1-7.6,5.2-11.9c2.5-10.3,8.1-19.3,11.6-29.3
			c1.2-3.3,4.5-5,7.2-7.1c-8.6,24.9-19,49.1-29,73.5c-7.5,18.3-14.7,36.7-22.2,55c-3,7.2-6.3,14.3-10.7,20.8c-0.6-1-0.4-4.1-2.5-2.1
			c-2.7,2.5-4.1,6.2-8.6,8.7c1.3-6,2.4-11.2,3.5-16.4c9.2-8.6,13.3-20.2,18-31.3c8.1-18.9,17.4-37.3,23.2-57.1
			C791.3,901.4,792.1,900.7,792.7,900z"/>
		<path class="st15" d="M446.1,160.5c-2.1-2.8-0.6-5.4,0.8-7.8c10-17.3,15.5-36.1,19.7-55.5c2.7-12.2,8.7-23.5,9.7-36.1
			c0.5-0.2,1.1-0.2,1.6,0c4.4,1.7,4.5,5.7,4.6,9.4c0.8,29.7-5.5,57.8-19.3,84.2c-2.5,4.8-5.6,8.4-11.8,6.4
			C449.6,160.8,447.9,160.7,446.1,160.5z"/>
		<path class="st15" d="M451.1,44.2c-14.8,7.8-27.2,18.8-38.1,31.4c-11.5,13.2-23.1,26.4-28.3,43.7c-0.6,2.1-1.5,4.2-4.5,3.4
			c-1.3-2.4-2.7-4.9-4-7.3c-1.2-5.8,0.6-11,3-16c11.7-24.1,28.7-43.1,52.9-55.2c5.3-2.6,10.9-6.6,17.4-2.2
			C450,42.8,450.5,43.5,451.1,44.2z"/>
		<path class="st20" d="M774.1,896.4c2.5,1.5,2.4-1.2,3-2.1c5.7-8.8,8-19,12-28.5c1.9-4.6,4.4-7.5,9.7-6.9
			c-8.6,27.8-20,54.5-30.6,81.5c-4.9,12.4-7.9,25.6-14.7,37.3c-0.5-1.2-0.2-3.6-2.7-2c-1.6,1.1-3.1,2.2-5.1,1.8
			c9.6-24.7,17.9-49.9,25.7-75.2C772.1,900.2,772,897.7,774.1,896.4z"/>
		<path class="st21" d="M261.1,1234.2c10.4-11.3,23.6-14.5,38.3-13.4c3.8,0.3,7.5,0.5,10.9-1.7c-2.7,8.6-8.7,15.2-14.5,21.7
			c-5.8,6.6-12.5,12.3-18.8,18.4c-1.6,1.6-3.6,3.3-5.7,2.4c-2.2-0.9-2.3-3.5-2.3-5.8C269,1247.7,265.6,1240.7,261.1,1234.2z"/>
		<path class="st22" d="M499.1,918.8c1.8,6.4-0.7,13.1,1.1,19.6c0.1,0.4-1.1,1.2-1.7,1.8c-5.7-5.4-10.7-11.4-16.9-16.2
			c-1.5-1.1-2.9-2.5-3.8-4.1c-6-10-14.2-18.2-21.2-27.4c-5.7-7.4-5.7-10.7-0.1-19.2C470.6,888.7,487.1,901.6,499.1,918.8z"/>
		<path class="st11" d="M629,643.6c0,1.8-0.1,3.7,0,5.5c0.3,8.1,0.3,7.8-7.7,9.6c-9.4,2.1-16.6,7.9-22.6,15.2
			c-2.3-7.5-3.5-15.2-4.1-23c-1.1-14.8,5.3-20.7,20.3-18.9C625.2,633.2,626.8,634.6,629,643.6z"/>
		<path class="st23" d="M602.5,1049.4c10.6,4.7,18.9,13,29,18.4c10.9,5.8,19.9,13.8,28.2,22.7c0.8,0.9,2,1.5,1.5,4
			c-3.7,0-7.6,0-11.5,0c-8.7-6.2-19.2-4.5-28.8-6.9c-6.3-1.5-13.2-1-18.5-5.6c-2.2-5.6,1.6-7.3,5.8-8.3c4.3-1,8.7-0.2,13.2-0.5
			c-13.6-1.8-26.7-5.7-40.1-8.2c-2.9-0.5-6.3-0.1-7.3-4.1c9.4-0.7,18.7-1.1,28,1.3c0.8,0.2,2.7,0.9,2.3-1.3c-0.1-0.7-1.3-1.3-2-1.9
			c1.2-1.3,4.9-1.8,1-4.5C601.9,1053.6,601.6,1051.3,602.5,1049.4z"/>
		<path class="st15" d="M921.3,800.2c-2.4-7.3-5.5-14.1-12.1-18.8c-1-0.7-1-2.7-1.5-4.2c4.1-9.9,8.7-19.5,13.8-28.8
			c3.4-6.2,8.4-6.7,12.3-0.8c6,9.3,4.7,19.4,0.7,28.8C931,784.7,926.7,792.8,921.3,800.2z"/>
		<path class="st24" d="M768.6,1324.7c0,1.8,0,3.7,0,7.1c-8.8-10.7-19.8-16.3-29.7-23.4c-11.7-8.3-23.3-7.3-35.6-2.9
			c-4.1,1.5-8.1,3.3-12.1,5c-2.7,1.1-3.3-0.5-3.6-2.6c3.7-5.7,9.5-8.9,14.9-12.7c10.9-7.7,22.2-7.4,33.7-1.5
			C749.9,1300.9,762.5,1309.4,768.6,1324.7z"/>
		<path class="st25" d="M493,413.2c4.3,6.3,11,10.1,16.4,15.3c13.3,12.7,27.8,24.1,44,35.7c-1.4-7.9-1.7-14.5-2-21.1
			c-0.2-4.2-3.6-6.6-6.5-8.8c-9.4-7.2-18.5-14.9-27.4-22.7c-2.4-2.1-5-3.8-5.9-7.1c1.3-0.2,2.7-0.5,4-0.7c11.8,11.2,24,22,36.7,32.1
			c6,4.8,10.3,10.6,9.2,19.3c-0.7,5.2,2.3,10.3,1.7,15.8c-0.5,4.7-1.9,5.6-5.9,2.8c-4.1-2.9-7.7-6.4-11.7-9.4
			c-16.8-12.5-32.4-26.5-48.2-40.2c-3.1-2.6-5.6-5.9-8.4-8.8C490,414,491.4,413.4,493,413.2z"/>
		<path class="st5" d="M753.6,913.5c0.6,0.6,0.2,3.4,1.8,1.3c2-2.7,3.1-6,3.9-9.4c2.5-10.6,5-21.1,8.9-31.4c1.3-3.4,2.5-6.3,6-7.8
			c-2.1,13-7,25.2-11.2,37.5c-8.6,24.7-16.3,49.7-21.6,75.4c-0.2,1.2-0.7,2.6-0.4,3.7c0.5,1.8,1.9,0.6,3,0.3
			c-3.4,10-6.8,19.9-10.4,29.8c-0.4,1.1-1.7,1.8-3.8,1.1c0.3-5.9,1-12,2.3-18c0.7-3.2,2.4-6.7-1.4-9.3c7.1-23.7,14.2-47.3,21.3-71
			C752.2,914.9,753,914.3,753.6,913.5z"/>
		<path class="st26" d="M662.5,398.3c-2.2,15.2,4.6,23.3,19.1,28c11.5,3.7,21.9,10.6,32.9,15.8c9.9,4.6,19.9,8.9,29.9,13.2
			c4.5,1.9,5.2,1.3,4.2-4c-0.4-2.2-1.2-4.2,0.7-6.1c4,2.4,7.6,5.4,10.2,9.4c-4,12-1.5,11.3-14.8,7c-16.4-5.2-31.2-14.4-46.8-22
			c-11-5.3-21.9-10.9-32.8-16.5c-8.3-4.2-14.1-10.1-13.8-20.3c0.1-2.7-1-5.5-1.6-8.2C654.6,394.2,658.7,395.5,662.5,398.3z"/>
		<path class="st15" d="M904.3,762.4c-2.3-7.8-5.4-15-13.3-18.8c2.1-8.2,5.5-16,9-23.7c2.4-5.3,7.8-8.1,12.1-6.7
			c5,1.7,5.6,6.1,6,10.7c0.6,7.2-2.4,13.6-4.6,20C911.1,750.4,908.3,756.7,904.3,762.4z"/>
		<path class="st27" d="M800.9,1096.7c-11.5,2.8-22.9,1.4-34.1-0.3c-0.7-1.1-0.6-2,0.1-2.6c16.5-15.5,33.4-30.3,54.7-39
			c2-0.8,3.7-2.3,5.6-3.4c2.5,5.4-2,7-5,9.4c-2.6,2-6.8,2-7.9,6c-1.1,0.6-2.1,1.2-3.2,1.9c-0.9,0.5-1.4,1.2-1.2,2.2
			c0.2,1.1,1.2,1.3,2.1,1.3c1.9-0.1,3.7-0.2,5.6-0.3c-1.9,8.6-9.6,6.4-15.2,8.1c-0.2,0.1-0.3,0.6-0.3,0.8c0,0.3,0.3,0.5,0.5,0.7
			c-0.3,4.6,3.5,3,5.7,3.8c-1.1,6.1-6.8,5.3-10.7,7c-5.2,2.2-11.2,1.5-15.7,3.3C787.8,1094.8,794.4,1091.6,800.9,1096.7z"/>
		<path class="st28" d="M487.6,59c2.4-0.4,3.3,0.8,3.7,3.1c4.1,25.5,3.6,50.5-7,74.6c-2.9,6.7-7,12.6-11,18.5
			c-1.9,2.8-4.3,5.5-8.3,5.3c-1.5-3.7,0.6-6.7,1.9-9.8c10.8-25.9,18.3-52.6,17.9-81C484.8,65.9,485,62.1,487.6,59z"/>
		<path class="st2" d="M487.6,59c1.4,35.8-6.6,69.6-22.6,101.5c-4.5,1.3-9,2.9-13.6,0.5c3.9-0.3,6.7-1.7,8.6-5.7
			c9-18.3,15.8-37.1,18.2-57.6c1.1-9.3,2-18.6,2-27.9c0-3.1,0.2-6.3-2.3-8.7C481.2,60.4,484.4,59.7,487.6,59z"/>
		<path class="st22" d="M682.2,633.9c-0.5,2.8-1.9,4.3-5.1,4.1c-4-0.2-8.1-0.2-12.1,0.2c-8.2,0.8-16,2.8-21.1,10.3
			c-0.8,1.2-2.4,1.9-3.6,2.8c-0.2-0.5-0.3-1.1-0.2-1.7c-1.4-2.5-1.1-4-1.3-7.9c-1.1-11.9,2.8-17.1,14.8-18.7c4.9-0.6,10-1,15-0.6
			C675.6,622.9,681.1,625.9,682.2,633.9z"/>
		<path class="st29" d="M382.2,802c10.9-7.1,22.1-13.1,34.9-14.6c6.2-0.7,12.5-0.3,18.8,0c10.7,0.5,11.5,1.3,13.4,11.3
			c0.3,1.5,0.9,3-0.4,5.1c-10.8-3.4-21.8-6.2-33.5-5C404.3,800,393.2,801,382.2,802z"/>
		<path class="st30" d="M602.5,1049.4c0.9,1.6,1.6,3.4,2.8,4.8c4.5,5.2-0.6,4.1-3,4.8c-7.5-1.3-15.4-1-22.6-3.8
			c0.2-0.7,0.8-0.8,1.3-1c0.8-0.3,0.9-0.5,0.4-0.5c-5.5-0.9-10.4-2.9-13-8.4c1.9-2.8,1.1-4.4-2.1-5.4c-3.7-1.1-8.1-0.4-11.2-3.5
			c1.4-2.3,3.5-2.1,5.9-1.8c-4.3-0.3-7.3-2.5-9.4-6c-1.6-2.6-2.6-6.8,1.9-4.8C570.2,1031.4,587.1,1039,602.5,1049.4z"/>
		<path class="st31" d="M917.7,825c7.2-12.4,13.5-25.3,22.3-38.5c5.5,8.2,4.8,16,1.8,22.3c-5.2,10.9-9.7,22.5-18.2,31.5
			C915.2,837.7,915.8,831.6,917.7,825z"/>
		<path class="st32" d="M483.8,417.5c9.5,10.8,21,19.7,31.5,29.5c4.4,4,10,7.3,12.7,12.4c2.7,5.3-3.6,10.1-3.2,17.6
			c-21.3-15.2-38.1-32.7-54.8-50.3c0.6-1,1.4-1.7,2.5-1.9c4.6-0.9,6.7,2.9,9.2,5.3c10.4,10,20.3,20.5,31.2,30.9
			c4-5.4,0.6-8.2-2.9-10.8c-9.1-6.8-16.5-15.5-24.5-23.4c-2.1-2.1-5-4-4.1-7.9C481.9,418,482.7,417.6,483.8,417.5z"/>
		<path class="st33" d="M917.7,825c-0.3,6,1.4,11.3,5.9,15.4c-8.4,11.2-16.7,22.4-25.1,33.6c-1.9,2.5-4,4.7-6,7.1
			c-6.5,1.8-6.4,8.9-10.4,12.7c-1.3,1.3-1.4,4.8-4.6,2.4c3.7-10.3,10.6-18.8,15.8-28.2C901.5,853.6,909.6,839.3,917.7,825z"/>
		<path class="st34" d="M510.2,958.6c0.6,3.3,1.2,6.7,1.7,10c-11.9-6-23.1-13.2-34.2-20.4c-8.4-5.4-11.5-12.4-10.5-21.9
			C484.1,934.2,496,948,510.2,958.6z"/>
		<path class="st35" d="M887.1,728.3c-3.7-5.7-6.8-12.2-14.8-13c-0.2-0.6-0.1-1.2,0.2-1.8c0.5-2.5,0.5-3.1,1.7-5.8
			c1.4-4.1,2.8-8.2,4.3-12.3c1.7-4.8,5.3-6.7,10.2-6.5c4.4,0.1,7,2,7.4,6.6c0.3,3.4,0.7,6.7-0.6,10.1
			C892.4,713.1,889.8,720.7,887.1,728.3z"/>
		<path class="st5" d="M712.3,981.6c-0.8-5.5-1.9-11-2.2-16.5c-0.5-9.7-0.2-19.3,3.3-28.5c2.9-7.6,2.2-15.9,4.1-23.8
			c1.2-5.2,2.8-10.2,4.5-15.2c1-3.2,2.8-5.6,6.7-5.1c0.5,4.5-1.5,8.6-2.5,12.8c-1.6,6.7-3.4,13.4-3,20.4c0.1,1.6,0.2,3.3-0.4,4.7
			c-5.4,11.9-3.9,25.4-8.3,37.5C712.8,972.3,715.1,977.3,712.3,981.6z"/>
		<path class="st8" d="M449.5,42c-11.6-1-20.2,5.8-28.9,11.6c-15.3,10.2-27,24-36.2,39.9c-4,6.8-6,14.4-8.2,21.9
			c-3.2-5-2.7-10.1-0.3-15.1c10.4-21.8,23.3-41.5,44.9-54c6-3.5,12.3-6.2,19.3-6.7c3.2-0.7,6.5-1.3,9.6,0.4
			C449.6,40.7,449.5,41.4,449.5,42z"/>
		<path class="st19" d="M729.2,974c-0.8-5.4-5.7-9.9-3.5-16.1c1.7-4.7,2.7-9.7,4.6-14.3c2.3-5.6,3.7-11.3,4.6-17.1
			c1.8-12.9,8.7-24,12.5-36.3c0.6-1.9,2.1-3.1,4.2-3.2c-1.1,10.6-4.6,20.7-7.3,31C739.2,936.6,735.5,955.6,729.2,974z"/>
		<path class="st36" d="M648,611.7c-9.1-6.1-18.2-12.1-27.3-18.2c-5.8-4-5.9-5.6-1.5-13.3c2.7-4.7,6.2-6.3,10.9-3.4
			c13.2,8.3,26.6,16.4,40.2,24.2c0.4,0.3,0.6,1.1,1,1.9c-2,3.1-6.8,3.2-8.2,7c-2.6-0.1-5.1-0.2-7.7-0.3c2.1-8.9-2.7-13.1-10.2-16.2
			c-3.7-1.5-6.7-4.4-10.2-6.5c-2.1-1.3-4.8-3.3-6.6-0.6c-2.3,3.4,1.2,4.9,3.4,6.3c5.3,3.3,10.5,6.7,15.5,10.4
			c2.5,1.9,6.5,3.3,4.5,7.9C650.5,611.1,649.3,611.4,648,611.7z"/>
		<path class="st37" d="M481.4,419c9,10.4,18.8,20.1,29.4,28.9c1,0.8,1.9,1.7,2.9,2.4c4.2,2.8,5.6,6.2,2.4,10.7
			c-0.8,1.1,0.3,3.1-2,4.1c-13.8-13.4-27.7-26.8-41.6-40.3C474.6,421.5,477.6,419.6,481.4,419z"/>
		<path class="st38" d="M482.9,974.3c-3.2,2.5-6.2,1.8-8.9,1.9c-23.7,0.9-46.8-2.5-69.5-8.9c-9.8-2.8-18.3-8.1-26.7-13.5
			c-1.6-1-3.4-2.2-1.8-4.4c1.2-1.7,3-1.9,5-0.8c3.8,2.2,7.7,4.3,11.5,6.3c19.9,10.8,41.7,14.9,63.9,17.2
			C465,972.9,473.6,973.5,482.9,974.3z"/>
		<path class="st34" d="M823.2,660.6c-4.4-5.4-8.9-10.3-17-9.6c-6.4,0.6-2.2-5.1-3.8-7.5c0.8-3.9,0.4-8.3,5.3-10
			c5.6-2,11.1-2,16.2,1c4.5,2.6,5.9,8.4,4,14.1C826.6,652.7,823.7,656.2,823.2,660.6z"/>
		<path class="st34" d="M766.7,639.9c-3.3,0.5-5.9-1.5-8.8-2.5c-5.9-1.9-11.8-4.2-18.1-1.9c-5.2,1.9-4.8-1.7-5-4.9
			c3.9-7.4,9.5-11.8,18.4-11.3C766.6,620.3,771.1,627.1,766.7,639.9z"/>
		<path class="st39" d="M227.3,938c-0.5-1.2,0.2-4.2-2-3.2c-3.9,1.7-7.1,0.7-10.8-0.2c-3.1-0.8-6.9-1.8-8.7,3
			c-0.6,1.7-2.8,2.2-4.9,1.6c-3.6-1.1-4.8-3.9-5-7.1c-0.3-3.9-2.5-8.2,1.3-11.5c2.8-2.4,5.1-0.7,7.1,1.7c4.4,5.3,5.4,5.5,8.4,0.1
			c2.3-4.2,4.5-3.9,7-1c1.9,2.2,4.2,3.6,6.8,4.6c3.9,1.5,1.5-2.1,2.5-3C233.4,928.5,229.7,933.2,227.3,938z"/>
		<path class="st40" d="M340.4,1073.7c-0.9,1.9-2.8,2.4-4.4,3.2c-15,7.4-15.7,23.4-8.4,35.8c1.2,2,5.5,2.9,3,6.6
			c-10.6-3.7-15-13.2-18.8-22.3c-3.6-8.5,7.4-21.8,18.3-23.4C333.5,1073.2,337,1073.7,340.4,1073.7z"/>
		<path class="st41" d="M151.6,1268.1c0.5,6.2,1.3,12.4,1.5,18.6c0.2,6.5-1.5,7.3-7.9,6.1c-7.8-1.5-11.5-6.7-14-13.4
			c1.2-3.5,1.6-7.3,3.6-10.6C139.8,1261,145.6,1260.8,151.6,1268.1z"/>
		<path class="st42" d="M427.2,424.5c-1.7,0-3.2,0.3-3.5,2.2c-0.3,2.5-0.5,5-0.3,7.4c0.2,3.1-0.2,5.8-3.6,6.7
			c-3.3,0.9-6.2-1.2-6.6-3.8c-1.1-6.7-5-7.7-10.6-6.9c-1.2,0.2-2.5-0.1-3.7-0.4c-1.6-0.5-2.8-1.5-2.8-3.3c0-1.3,0.6-2.7,1.8-3
			c3.5-0.9,6-2.2,6.8-6.3c0.4-2.2,2.9-1.9,4.4-0.3c1.7,1.8,1.7,4.7,5,6c2.5-1.9,3.5-5.4,5.4-8c1.5-2,3-4.3,6-3.2
			c2.8,1,1.6,3.6,1.6,5.7c0,0.6,0,1.2,0,1.9C427.2,420.9,427.2,422.7,427.2,424.5z"/>
		<path class="st43" d="M883.5,936c-1.7-1.2-1.3-2.5-0.3-3.9c3-4.3,5.8-8.8,9.1-12.9c1.8-2.3,3.2-4.5,2.8-7.5
			c8.7-12.5,17.5-25,29.8-34.5c2.9,1.9,3.4,5.2,4.4,8.2C913.2,901.6,897.4,917.8,883.5,936z"/>
		<path class="st44" d="M406.3,1047.4c-6.4-1-11.1-6-13.9-10.3c-7.7-12-18.5-21.3-26.5-32.9c-2.4-3.5-5.2-6.8-2.9-11.5
			c5.6,7.5,11.8,14.3,19.1,20.4c8.9,7.4,16.5,16,22.1,26.3C405.6,1041.9,406.9,1044.4,406.3,1047.4z"/>
		<path class="st34" d="M851.4,677.5c-4.2-5.7-9.6-9.4-17-9.3c-1.6,0-3-0.6-3.8-2.1c0.9-3.3,1.5-6.7,2.7-9.9c3-8.1,9.5-9.5,16.1-3.7
			c7,6.2,8,13.2,3.2,21.6C852,675.1,851.8,676.3,851.4,677.5z"/>
		<path class="st1" d="M651.7,610.9c-0.3-2.9-2.4-4.1-4.6-5.4c-6.6-4.1-13-8.7-19.7-12.6c-4.3-2.5-3.4-5.3-1.5-8.6
			c2.1-3.8,4.7-3.2,7.7-1.1c8.4,6,17.1,11.4,26.4,16.2c-0.2,4.4-2.3,7-3.6,10.3C654.8,610.1,653.8,610.2,651.7,610.9z"/>
		<path class="st45" d="M589.4,629.1c-1.4-0.6-3-1-4.3-1.8c-9.3-5.7-12.8-6.2-2.9-16c2.4-2.4,3.6-5.8,5.8-8.5c2.3-2.7,5.3-5,9-2.5
			c10.1,6.8,21.6,11.2,32.4,17.4c-1.9,2.3-4.4,1-6.2,2c-2-0.6-2.9-0.4-6-1.8c-2.3-3.1-6.2-1.5-9.1-3.4c-3.6-2.4-7.3-6.6-12.6-2.7
			c-5.4,3.9-5.8,9-4.2,14.8C590.6,627.4,590,628.3,589.4,629.1z"/>
		<path class="st12" d="M602.9,1081.2c10.9,2.7,21.8,5.4,33,5.7c6.3,0.2,10.8,2.2,13.8,7.6c-1.2,0.1-2.3,0.2-3.5,0.4
			c-9,0.9-17.9,1.1-26.9-0.1c-5.5-2.5-11.5-2.8-17.4-3.8c-2.5-0.4-5-0.3-7.1-2c2.2-2.4,1.9-6.3,4.4-8.5
			C600.6,1080,601.8,1080.4,602.9,1081.2z"/>
		<path class="st46" d="M800.9,1096.7c-7.7,0-15.4,0-24.9,0c5.8-5.9,11.9-3.7,16.8-5.7c5.1-2.1,10.7-2.7,15.4-5.9
			c6.9-0.6,13.8-1,20.6,0.3c3.8,0.8,4.4,3,1.9,5.9c-3,3.4-7,4.1-11.1,3.9C813.3,1095,807.1,1096.1,800.9,1096.7z"/>
		<path class="st29" d="M868.5,698.4c-5.1-1.7-9.2-4.7-11.6-9.7c1.8-5.3,3.6-10.5,5.4-15.8c0.9-2.9,2.4-5.5,5.7-4.9
			c3.7,0.7,7.2,2,7.7,6.7c0.3,2.5,0.3,4.9-0.7,7.3C872.8,687.4,870.7,692.9,868.5,698.4z"/>
		<path class="st47" d="M931.2,859.1c-11.8,11.8-23.3,23.9-33.6,37.1c-2.1,2.7-4.5,5.1-6.7,7.6c-2.3,1.5-3.8,1.2-3.7-1.9
			c4.9-7.5,10.7-14.4,16.3-21.4c7.5-9.6,14.8-19.3,21.9-29.1C928,853.4,929.8,856.1,931.2,859.1z"/>
		<path class="st5" d="M693.1,987.1c-3.3-3.5-2.8-8.4-3.2-12.3c-1.2-12.5-1.2-25.1,0.2-37.6c0.7-6.5,2.1-13,3-19.5
			c0.5-3.6,1.9-5.9,5.8-6.1c-1.7,17-3.7,34-5.2,51.1C693,970.8,693.2,978.9,693.1,987.1z"/>
		<path class="st31" d="M724.9,632.2c-16.7-2.2-16.7-2.2-31.1,4.5c-0.3-3.5-0.5-6.8-0.7-10c6.8-8.6,20.7-10.5,28.7-3.5
			C724.2,625.2,724.9,628.8,724.9,632.2z"/>
		<path class="st48" d="M931.2,859.1c-4.7-0.5-5-4.3-5.8-7.7c6.5-7.9,13.1-15.8,19.7-23.8c5.9,7.1,6,12.7-0.1,18.8
			C940.5,850.8,935.8,854.9,931.2,859.1z"/>
		<path class="st49" d="M738.3,610.2c-2.7-0.8-5.4-1.6-7.9-2.6c-4.7-1.8-8.1-4.7-7.3-10.5c0.5-3.7-3.8-8-0.5-10.6
			c4.1-3.2,7.9,1.6,11.8,3c7,2.6,13.9,5.4,20.6,8.6c3.8,1.8,8.3,4.2,4.4,9.9c-1.3-0.2-2.7-0.4-4-0.5c-6.3-5.5-13.4-9.4-21.7-11.2
			c-0.9,6.5,9.1,6.3,7,13C739.8,609.7,739.1,609.9,738.3,610.2z"/>
		<path class="st50" d="M602.9,1081.2c-1.5,0.1-3,0.2-4.5,0.3c-3,1.8-5.8,2.8-7.3-1.8c2.1-0.2,4.3-0.5,6.5-0.8
			c0.4-3.4-3.9-2.7-4.5-5.1c-3.7-3.9-9.5-5.5-11.6-11.1c2.8-0.5,5.9-1.2,8.3,0.3c7.5,4.9,15.8,5,24.2,5.2c6.6,0.1,8.1,1.2,13.9,8.7
			c-6.5,0.7-12.3-2.3-18.4-1.5C605.9,1076,602.5,1076.3,602.9,1081.2z"/>
		<path class="st51" d="M900.6,947.4c7.3-7,13.3-15.6,23.3-20.4c2.4,4.8,2.3,8.5-0.8,12.5c-5.7,7.2-12.7,12.8-20.6,17.3
			C896,954.8,899.3,950.9,900.6,947.4z"/>
		<path class="st52" d="M151.6,1268.1c-8.9-5.6-13.4-4.1-16.6,5.8c-0.7,2.3-0.1,5.3-3.8,5.5c-5.6-13.9,2.4-26.3,17.1-26.4
			c6.6,0,8.5,2.6,6.1,8.5C153.5,1263.7,151.2,1265.3,151.6,1268.1z"/>
		<path class="st5" d="M887.1,901.9c0.7,1.6,2.1,2,3.7,1.9c0.4,4.1-2.8,6.2-5.1,8.4c-13.2,12.9-22.5,28.9-34.4,42.8
			c-4,4.7-7.3,10-12.9,13.2c0,0-0.2-0.2-0.2-0.2c3.4-8.6,10.4-14.7,15.7-22C864.7,931.1,876,916.6,887.1,901.9z"/>
		<path class="st47" d="M900.6,947.4c0.9,3.1-1.7,6.8,1.8,9.4c-10.4,8.3-20.8,16.5-31.3,24.8c-1.9,1.5-3.8,3.3-6.4,3.6
			c-0.4-2.8,0.9-5.1,1.9-7.5l0,0c3.4-2.3,6.3-5,9.1-7.9C884.3,962.5,891.3,953.6,900.6,947.4z"/>
		<path class="st53" d="M957.6,1265.9c-0.2,0.2-0.6,0.7-0.6,0.6c-9.3-5.2-19.5-4-29.5-4.1c-1.6,0-3.1-0.4-4.1-1.7
			c3.8-7.7,11.1-9,18.5-9.8c3.7-0.4,6.6,1.3,8.9,4.1C953.5,1258.3,956.1,1261.7,957.6,1265.9z"/>
		<path class="st54" d="M587.3,389.3c2.2,6.1,4.5,12.2,6.7,18.3c0.5,1.5,1.3,2.8-0.1,5.4c-12.7-4.3-24.1-11.3-34.5-20
			c1.2-0.3,2.4-0.7,3.6-1c7.3-1.7,11.4,5.1,17.9,6.9c0.9-3.4-2.5-6.3-1-9.6C582.4,388.8,584.8,388.8,587.3,389.3z"/>
		<path class="st55" d="M916,910.1c9.1-7.2,15.5-17,23.5-25.8c3.8,4.6,2.4,8.8,0.1,12.4c-2.7,4.1-5.9,8.2-9.6,11.3
			c-3.5,3-6.9,6.3-10.5,9.3C912.3,917.8,913.5,914.2,916,910.1z"/>
		<path class="st56" d="M591.3,626.5c-1.1-1.1-2.2-2.2-3.3-3.3c-0.6-0.6-1.9-1.5-1.8-2c1.8-5.5,5.9-9.4,9.7-13.5
			c2.9-3,5.1-0.4,7.4,1.1c4.6,3,10,4.9,13.9,9C607.7,618.1,598.8,620.3,591.3,626.5z"/>
		<path class="st57" d="M630.9,392.7c0.3,6.1,6.5,9.7,7,15.7c-2.6,2.1-4.9,1.1-7.2,0.1c-9.3-4.3-18.7-8.5-28-12.8
			c-3.1-1.4-6-3.3-7.6-6.5c1.9-0.6,3.9-0.6,5.8-0.1c7.2,2.7,14.6,4.6,21.5,8.3C622.8,388.8,623.6,388.4,630.9,392.7z"/>
		<path class="st55" d="M531.1,986.7c0.5,2,1.1,3.9,1.6,5.9c-6.4-0.6-11.7-4.1-17-7.1c-8.1-4.6-15.7-10.2-23.5-15.4
			c-1-0.7-2-1.5-2.9-2.4c-0.8-0.9-1.9-2-1-3.2c0.7-1.1,1.9-1.3,3.3-0.6C504.8,971.5,518,979.1,531.1,986.7z"/>
		<path class="st58" d="M814.2,1066.6c-1.3-1-2.5-2.3-0.6-3.6c2-1.4,4.4-2.4,6.5-3.6c3.3-1.9,6.5-3.8,7.1-8.1
			c3.6-3.2,8.1-4.4,12.3-5.6c2.9,1.5,2,4,2.3,6c0.9,4.8-1.3,7.9-6.2,8.5C828.1,1061.2,821.3,1064.4,814.2,1066.6z"/>
		<path class="st59" d="M794.8,639.8c-0.9,0.8-2.3,2.5-2.5,2.4c-4.9-3.6-11.4-1.1-16.3-4.3c0.2-1.5,0.3-3.1,0.7-4.6
			c2-7.9,3.9-9.6,9.4-8.6c6.4,1.2,9.9,5.8,9.4,12.5C795.4,638,795.1,638.9,794.8,639.8z"/>
		<path class="st60" d="M916,910.1c0,2.9-2.1,6.9,3.5,7.1c-10.5,7.7-18.3,18.2-28.2,26.5c-2.3-1.4-1.4-2.8-0.2-4.4
			c2.1-2.8,6-4.6,5.7-8.9C901.9,922.3,907.9,915.2,916,910.1z"/>
		<path class="st61" d="M390.9,45.9c-2.8-4.7-0.5-8.2,2.9-11.3c3.1-2.9,6.4-1.6,9.5,0.2c3.7,2.1,8.1,3.1,11.5,6.2
			c-3.3,4.7-8.4,6.7-12.2,10.2C399.2,48.3,395.6,45.9,390.9,45.9z"/>
		<path class="st62" d="M557.6,1013.1c-0.3,1.5-1.3,2.2-2.6,2.7c-12.6-5.6-25.1-11.3-37.8-16.7c-3.5-1.5-6.9-3.1-9.8-5.5
			c-1.7-1.4-3.3-3-1.8-5.5c2.2-0.7,3.7,0.8,5.1,1.7c11,7.5,23.3,12.1,35.6,17C550.2,1008.4,554.5,1009.8,557.6,1013.1z"/>
		<path class="st55" d="M885.3,977.3c6.9-6.1,13.9-12.1,23.5-16.4c0.1,4.5-0.1,7.1-3.2,9.3c-8.6,6.2-17,12.7-25.5,19
			c-3.9,0.3-2.8-2.2-2-4C879.5,981.7,882.9,979.9,885.3,977.3z"/>
		<path class="st60" d="M802.5,1081.4c-1.2-0.1-2.4-0.2-3.7-0.4c0.7-2.9,3.3-2.8,5.4-3.5c4.6-1.5,9.9-1.5,13.3-5.8
			c5.9-5.7,13.7-3.3,20.6-4.1c3.5-0.4,1.9,4,0.6,6.5c-6.2,0.4-11.8,2.7-17.2,5.4C815.2,1081.2,808.8,1080.5,802.5,1081.4z"/>
		<path class="st63" d="M740.6,609.5c-0.2-2.1-1.5-3.4-3.4-4c-6.4-1.9-7.3-6.6-6.5-13.7c8.5,5.9,20.7,3.9,24.6,15.9
			C750.3,607.8,745.4,607.8,740.6,609.5z"/>
		<path class="st64" d="M929.3,885.5c-5.7-0.5-4-4.9-4.4-8.2c6.6-6,13.2-12,20.7-18.8C945.9,872.3,937.3,878.7,929.3,885.5z"/>
		<path class="st65" d="M415.4,811.1c-18.4,0.4-36.7,1.7-56.1,6.1c3.7-6.5,9.2-6.6,13.5-7.3c14.2-2.3,28.5-3.7,43-2.2
			C416.9,809,416.9,810.2,415.4,811.1z"/>
		<path class="st66" d="M358.4,1071.2c-5-4.9-10.2-8.8-17.2-8.9c-2.4-0.1-3.1-1.8-3.1-3.8c0-2.4-0.4-5,0.6-7.3
			C353.9,1052.3,360.2,1058.4,358.4,1071.2z"/>
		<path class="st67" d="M433,959.6c-1.6,1.4-3.2,1.2-4.5,0.8c-12-3.4-23.6-7.8-34.9-12.9c-0.8-0.4-1.6-0.9-2.3-1.5
			c-1.6-1.3-2.4-3-1-4.8c1.2-1.5,2.8-1.1,4.2-0.2C406.5,948.7,420.1,953.2,433,959.6z"/>
		<path class="st68" d="M479.2,52.1c-8.8,0.9-14-5.5-19.7-10.5c-1.3-1.1-1.3-3.6,0.4-5c1.7-1.6,3.5-1,4.7,0.7
			c4.7,7,11.9,8.1,19.5,8.2c1.8,0,4-1,4.5,1.6c0.5,2.2-1.4,3.2-2.9,4.3C483.6,52.8,481.4,52.3,479.2,52.1z"/>
		<path class="st69" d="M838.6,1026.8c-1.3-0.4-2.9-0.2-3.7-1.7c10.2-7.1,20.2-14.5,32-18.8c1.4,0.9,2.1,2.1,2.1,3.8
			C859.5,1016.8,848.9,1021.6,838.6,1026.8z"/>
		<path class="st70" d="M630.9,392.7c-0.8-0.4-1.6-1.1-2.5-1.3c-4.5-0.9-5.2-0.2-3.9,3.8c0.3,0.9,0.8,1.7,1.2,2.5
			c0.3,0.8,0.5,1.7,1.2,3.9c-9.1-5.1-18.8-5.9-26-12.6c10.1-0.5,20.2-1.1,30.1,1.5C630.9,391.3,630.9,392,630.9,392.7z"/>
		<path class="st71" d="M470.2,30.9c-3-5.4,0.9-8.6,3.9-12c2.1-0.8,4.2-1.3,6.4-1.4c5.3-0.2,8.2,2.5,5.5,7.4
			c-2.1,3.8-1.2,5.4,1.8,7.3C482.6,38.4,478.9,38.1,470.2,30.9z"/>
		<path class="st72" d="M885.3,977.3c-0.2,2.7-2.6,3.8-3.9,5.7c-1.2,1.9-3.3,3.6-1.3,6.2c-6.9,4.5-13.8,8.9-20.7,13.4
			c-1.8-1.4-0.8-2.6,0.2-3.8c1.2-1.4,2.7-2.6,2.9-4.6C870.3,988.7,876.6,981.4,885.3,977.3z"/>
		<path class="st73" d="M470.2,30.9c3-1.8,3.8,2.1,6.1,2.4c3.8,0.5,7.7,2.6,11.1-1.1c-0.1-4.8-0.2-9.6,5.8-11.2
			c2.7,8.8,0.3,14.7-6.9,17.5C479.3,41.3,473.3,38.4,470.2,30.9z"/>
		<path class="st74" d="M493.2,21.1c-2,0.1-2.2,1.5-2.4,3.1c-0.4,3-1.5,5.7-3.5,8.1c-1.5,0.1-3.1,0.4-4.6,0.3c-1.8-0.1-4,0-4.4-2.4
			c-0.5-2.6,1.6-2.9,3.4-3.4c2.6-0.8,4.5-2.5,3.5-5.5c-0.9-2.5-3.3-2.5-5.5-2.4c-1.9,0-3.7,0.1-5.6,0.1
			C482.2,14.4,487,14.9,493.2,21.1z"/>
		<path class="st75" d="M579.9,389.4c2.6,4.2,4.6,8.5,5,14.3c-8.5-2.4-13.8-9.7-21.9-11.6C568.5,390.4,574.2,389.8,579.9,389.4z"/>
		<path class="st76" d="M581.6,1062.8c4.4,3.1,10.4,4.6,11.6,11.1c-9,0.4-16.2-3.6-21.8-10.1c-2-2.3,0.8-2.7,2.7-2.9
			C576.3,1062.6,579.1,1062.1,581.6,1062.8z"/>
		<path class="st77" d="M840.3,1036.1c-1.4-1.1-0.8-2.1,0.3-2.9c1.2-0.9,2.8-1.4,3.3-3c7.6-3.7,15.2-7.4,22.7-11.1
			c2-0.8,2.2,0.1,1.8,1.7c-4.2,4.8-9.5,7.8-15.4,9.9C848.7,1032.3,844.5,1034.3,840.3,1036.1z"/>
		<path class="st64" d="M591.2,1079.8c2.1,1.9,4.9,0.9,7.3,1.8c0.2,0.6,0.2,1.3,0.5,1.8c2.9,5-0.1,5.7-4.1,5.7
			c-2.6-0.8-5.3-1.3-7.9-2.3c-2.3-0.9-4.6-2.3-3.9-5.3c0.7-2.9,3.3-2,5.3-1.9C589.3,1079.5,590.2,1079.6,591.2,1079.8z"/>
		<path class="st78" d="M415.4,811.1c0.1-1.1,0.2-2.2,0.4-3.3c14.8,0.9,24.6,3.5,30.5,8.8C435.1,814.7,425.5,811.3,415.4,811.1z"/>
		<path class="st79" d="M568.4,1045.3c5.2,3,10.3,6.3,16.9,8.9c-2.7,0.5-4.2,0.8-5.6,1.1c-0.6,0-1.1-0.1-1.6-0.3
			c-1.7-1.7-4.2-0.4-6-1.6c-4.5,0.4-7.4-1.8-9.4-5.6c-0.5-2.1,0.4-3,2.5-2.6C566.3,1045.2,567.3,1045.2,568.4,1045.3z"/>
		<path class="st80" d="M869,1010.1c-2.1-0.5-2.3-2-2.1-3.8c5.9-4.4,12.4-7.4,19.7-8.9C882.7,1004.5,874.9,1006,869,1010.1z"/>
		<path class="st81" d="M821.4,1079.4c5.8-6.6,11.5-8.4,17.2-5.4c-0.4,3.1-2.8,3.8-5.2,4.4C829.5,1079.4,825.5,1079.6,821.4,1079.4z
			"/>
		<path class="st82" d="M390.9,45.9c0.7-2.4,2.7-2.9,4.4-1.9c2.9,1.8,7.9,1.8,7.2,7.2C397.7,51.4,394.1,49,390.9,45.9z"/>
		<path class="st83" d="M551.5,1028.5c4,1.9,8,3.9,13.3,6.5c-4.1,2.1-7,1.1-9.7,1.4C551.8,1034.7,551.5,1031.7,551.5,1028.5z"/>
		<path class="st84" d="M868.5,1020.8c-0.6-0.6-1.2-1.2-1.8-1.7c4.6-3.4,9.2-6.7,15.1-11C879.5,1013.8,879.5,1013.8,868.5,1020.8z"
			/>
		<path class="st23" d="M619.3,1094.8c9,0,17.9-0.9,26.9,0.1C637.3,1096.8,628.3,1097.9,619.3,1094.8z"/>
		<path class="st5" d="M875.8,969.7c-1.4,4.6-4.5,7.1-9.1,7.9C868.8,973.9,871.8,971.2,875.8,969.7z"/>
		<path class="st14" d="M449.6,40.1c-3.2-0.1-6.4-0.3-9.6-0.4C443.4,38,446.6,37.1,449.6,40.1z"/>
		<path class="st2" d="M589.2,677.7c-2.2-2.3-2.2-5-1.5-7.8C589.6,672.2,589.7,674.9,589.2,677.7z"/>
		<path class="st30" d="M572.1,1053.3c2.3-0.6,4.4-0.4,6,1.6C575.8,1055.4,573.7,1055.3,572.1,1053.3z"/>
		<path class="st5" d="M698.8,911.6c-0.2-2.1-0.1-4.2,1.6-5.8C700.9,908,701.1,910.2,698.8,911.6z"/>
		<path class="st30" d="M565.2,1045.1c-1.1,0.6-2.2,1.2-2.5,2.6c-1.5-0.7-2.5-1.9-1.2-3.3C562.7,1043.1,564.1,1044.1,565.2,1045.1z"
			/>
		<path class="st19" d="M755.4,1005.9c-0.3-2.2-0.2-4.3,2.1-5.5C757.6,1002.5,757.4,1004.6,755.4,1005.9z"/>
		<path d="M378.3,338.1c-48-0.3-86.3-39.4-85.9-87.8c0.4-48.2,39.1-86.1,87.7-85.9c47.9,0.2,86.5,39.6,86,87.7
			C465.6,300.3,426.7,338.3,378.3,338.1z"/>
		<path class="st85" d="M131.4,787.3c-2.1-0.5-3-0.8-3.9-1c-2.8-0.6-5.9-1.2-5.8-4.9c0.2-3.7,3.5-3.8,6.2-4.5
			c2.4-0.6,4.8-1.5,7.2-2.2c3-0.8,6.1-1.5,9.1-2.1c3.5-0.7,6.8-0.5,9.4,2.5c1.7,2,0.9,6.6,6,5.1c3.5-1,6.8,0.8,8.8,4.1
			c2.1,3.4,1.1,8.4-1.7,10.2c-1.8,1.2-2.9,0.7-6.6-2.9c-2,1.1-1.7,3.1-1.9,5c-0.4,3.1-1.9,5.4-5.3,5.5c-3.3,0.1-5.2-2.2-6-5.1
			c-0.9-3.3-1.3-6.7-1.8-10.1c-0.3-1.9-0.4-3.9-3.2-3.5c-2.4,0.4-2.9,1.6-2.1,3.9c1.6,5.1-1.8,9.7-1.5,14.8c0.2,3.7,0.8,5.3,5.1,5.8
			c11.2,1.4,17.1,16.6,10,25.5c-3.6,4.5-9.5,3.1-14,2.7c-3.4-0.4-6.9-2.1-10.7-2c-1.6,0-3.2-0.7-3.7-2.4c-0.5-2,0.6-3.6,2.4-4.6
			c3.3-1.9,7.1-2.4,10.8-2.8c2.4-0.3,5-0.1,7.3-1.6c-0.5-4.6-3.7-4.9-7.3-5.1c-9-0.6-9.5-1.2-9.6-10
			C128.6,800.9,128,794.3,131.4,787.3z"/>
		<path class="st86" d="M138,449c-2.6-1.3-4.5-2.3-6.4-3.2c-1.9-0.9-3.4-1.2-4.5,1.3c-1.2,2.7-3.6,3.5-6.3,2.5
			c-2.8-1-3.3-3.6-3.3-6.2c-0.1-10.7-1-21.4,1.2-31.9c1.9-9.3,5.3-13.7,17.3-9.7c9.2,3,14.2,9,16.7,16.9c2.8,8.7,2.8,17.8-2.6,26.3
			c-3,4.7-5,10.1-7.7,15.1c-1.4,2.5-3.4,5-6.7,3.1c-3.3-1.8-2.5-4.6-1-7.3C135.8,453.9,136.6,451.9,138,449z"/>
		<path class="st85" d="M158.3,563.3c-0.1,2.5-0.7,5.2-3,7.2c-3.7,3.3-8,5.7-11,10c-1.8,2.7-5.9,1.4-7-1.4c-1.8-4.7-5.7-6.4-9.5-8.3
			c-9-4.5-12-11.1-9.3-20.6c1.3-4.6,3.2-8.9,5.7-12.9c2.4-3.9,6.1-7.1,5.7-12.5c-0.2-2.2,2.6-5.1,4.1-3.9c4.3,3.4,10.5,2.9,14,7
			c2.3,2.7,0.7,5.6-2.1,7.1c-5.1,2.7-3.5,5.7-0.8,8.9c2.8,3.4,5.7,6.7,8.6,9.9C156.3,556.4,158.1,559.2,158.3,563.3z"/>
		<path class="st87" d="M232.9,438c-0.9-3.1-3.3-3.8-4.6-5.6c-2.2-3.2-2.7-6.5,0-9.5c2.6-2.9,6.1-4.6,10.1-2.5
			c2.8,1.4,5.4,3.1,8.1,4.8c2.3,1.5,5.6,2.5,5.3,5.9c-0.3,3.2-3.9,3.7-6,5.5c-0.9,0.7-2.3,1.2-3.5,1.1c-3.7-0.2-5.3,0.8-5.9,5
			c-0.6,4.4-4.5,5.6-8.6,3.4c-1.6-0.9-3.1-2.2-4.3-3.5c-3.3-3.6-6.1-6.9-11.7-2.9c-3.2,2.3-6.5,0.9-7.8-3.5
			c-0.3-1.2-1.3-2.1-1.9-3.2c-1.6-2.7-3-5.7-6.7-5.8c-2.1-0.1-5.6,6.5-5.3,10c0.1,1.5,1.3,3,0.6,4.5c-0.3,0.7-1.2,1.3-2,1.7
			c-0.4,0.2-1.2-0.2-1.6-0.6c-7.7-7.6-5.8-18.6,4.1-23.6c1.8-0.9,3.3-1.5,5.3-0.6c5,2.4,10.3,2.5,15.6,2.6c3.3,0.1,6.1,1.4,8.9,2.7
			c2.2,1.1,3,2.9,2.9,5.4C223.7,436.3,223.8,436.3,232.9,438z"/>
		<path class="st42" d="M265,418.8c2.3,5.3,6.3,6.1,10,7.5c3.1,1.1,5.5,1,6.2-3c0.4-2.2,1.2-4.5,4.1-4c2.7,0.5,1.4,3.1,2,4.6
			c0.4,0.9,0.9,1.6,2.8,1.6c1.5-2.8,3.1-6,4.7-9.2c0.8-1.5,1.9-2.6,3.6-2.4c1.9,0.2,2.4,1.8,2.7,3.4c0.1,0.9,0.1,1.9,0.2,2.8
			c0.4,2.7,1.3,4.9,4.4,5.2c3.2,0.3,2.8-2.7,4-4.4c0.4-0.5,0.7-1,1.6-2.1c2.3,5.6,11.7,3.2,10.8,11.8c4.2-1.4,6.7-3.7,8.5-6.8
			c2.3-3.8,4.6-3.3,7.5-0.6c4.1,3.7,8.2,7.4,13.4,10c-6.9,6.1-8,6-15.7-2.4c-5.1,3-10,6.4-15.3,9c-6.3,3-8.1,2.3-10.4-4.2
			c-1.1-2.9-2.1-4.2-5.2-3.7c-2.2,0.3-4.6,0.8-6.5,0.1c-4.4-1.5-7.4-0.7-9.9,3.3c-1.2,1.9-3.6,2.4-5.9,2.4c-7,0.1-12.8-2.8-17.7-7.5
			C262,427.6,262.3,424.1,265,418.8z"/>
		<path class="st88" d="M234.2,547.2c1.4-3-0.5-6.8,2-9.7c1.3-1.5,2.6-2.8,4.6-2.8c2.2,0,3.7,1.3,3.6,3.5c-0.2,3.8,2.8,4.5,5.2,5.8
			c3.6,2,7.3,3.8,9.6,7.4c1.8,2.8,3.2,5.9,0,8.4c-3.2,2.5-5.8,1-7.9-2.1c-0.3-0.5-0.7-1-1.1-1.5c-2-3-3.8-3.1-7.9-2.9
			c-6.2,0.3-12,6.3-18.5,1.5c-1.3-1-1.8,0.6-2.6,1.6c-4.2,5.4-4.5,5.4-8,0c-0.7-1-1.2-2.1-1.8-3.2c-0.8,0.4-1.6,0.5-1.8,0.9
			c-1.1,2.4-1,6.2-4.9,5.7c-3.2-0.4-4-3.7-4.9-6.3c-1.5-4-1.6-8,0.7-11.8c0.8-1.3,1.9-2.7,3.6-2.7c2.1,0,2,2,2.4,3.4
			c0.3,1.2,0.5,2.5,2.1,2.8c1.8,0.2,1.9-1.2,2.2-2.4c0.6-2,0.4-4.8,3-5.4c3.5-0.8,3.9,2.2,4.5,4.6c0.3,1.1,1.3,1.9,1.9,1.6
			C225.7,541.3,228.9,547.9,234.2,547.2z"/>
		<path class="st89" d="M253.4,863.3c8.1-6.5,7.9-6.4,12.6,2.6c1.7,3.2,0.8,4.6-1.6,6c-0.8,0.5-1.7,1-2.6,1.1
			c-12.2,1.1-24.4,1.9-36-3.2c-1.3-0.6-2.3-1.8-3.4-2.8c-1.4,2.7-2.5,5.3-4.1,7.5c-1.6,2.2-3.9,3.3-6.6,1.8
			c-2.5-1.4-3.7-3.6-2.5-6.3c1.5-3.5,3.5-6.7,0.7-10.6c-0.8-1.2,0.5-4,1.8-3.6c5.5,1.9,12.6-3.5,16.8,3.7c1.7,2.9,5.2,3.2,7.4,5.5
			c0.8,0.9,2.4,0.3,3.5-0.3c1.5-0.8,1.1-2.1,0.7-3.2c-1.5-3.6-3.2-7.9,1.4-9.8c3.8-1.5,5.7,2.9,7.9,5.5
			C250.6,859,251.7,860.9,253.4,863.3z"/>
		<path class="st42" d="M131.5,937.6c-3.3-6.5-0.1-12.3,1-18.3c0.4-2,2.4-2.8,4.5-2.6c2.1,0.2,3.1,1.7,3.8,3.6c1,3-1.8,7.5,2.5,9.1
			c2.8,1,6.2,0.3,9.3,0.5c1.5,0.1,3.1,0.3,4.6,0.8c1.8,0.7,3.3,2.1,3.4,4.1c0.2,2.6-1.7,4.1-3.9,4.7c-4.3,1.2-8.7,0.5-13.1,0.5
			c-1.2,0-2.5,0-3.8,0c-0.4,6.1,0.5,11.2,7.7,12.8c1.8,0.4,2.9,2.5,2.5,4.6c-0.4,2-2,3.2-3.8,3.9c-4.4,1.9-10.2-0.2-13.7-5.5
			c-2.1-3.2-3.1-6.9-8.3-3.8c-1.7,1-4.2-0.8-4.9-3.3c-0.9-3,0.2-5.6,2.5-7.6C124.4,938.9,128,938.5,131.5,937.6z"/>
		<path class="st90" d="M163.4,678.9c-0.2,13.3-5.8,21.5-12.4,29.3c-1.3,1.5-3.1,2.2-5.1,1.5c-2.7-1-2.5-3.4-2.2-5.5
			c0.7-5.4,3.4-10.1,5.7-14.9c4.8-9.8-0.2-18.3-3.5-27c-0.8-2-3.2-1.6-4.9-2.2c-3-1.1-6.7-2.2-5.9-6.1c0.9-4.5,4.8-2.6,7.8-2.3
			c7.3,0.6,11.9,4.4,14.9,11.1C160.5,668.7,163.8,674.5,163.4,678.9z"/>
		<path class="st91" d="M296.4,539.7c0.4-2.9,0.4-4.9,1.1-6.5c1.3-2.8,3.3-3.7,5.7-1c0.4,0.5,0.8,1,1.2,1.5c2,3,7.1,5.1,5,9.2
			c-1.9,3.9-7.2,6.7-10.7,6c-6.9-1.4-9.9,5.9-16.1,5.3c-2.3-0.2-1.7,3.5-1.8,5.6c0,3.5-0.7,6.5-5,6.4c-3.7-0.2-5.5-2.5-5.7-6.2
			c-0.2-3.6,1-7.7-3.1-10.1c-0.3-0.2-0.4-1.1-0.3-1.6c0.3-1.5,9.6-8.4,11.5-8.4C284.1,539.7,290,539.7,296.4,539.7z"/>
		<path class="st92" d="M281.9,806c-2.2,2.2-3.7,2.1-5.3,2c-1.6-0.1-2.1,0.9-2.4,2.2c-0.4,2,0.4,2.9,2.2,3.3c2.4,0.6,4.8,1.3,7.3,2
			c2.7,0.8,4.4,2.4,4.1,5.4c-0.3,3.2-2.6,4.6-5.3,4c-3.8-0.8-6.3,0.6-9.4,2.4c-7.2,4.2-18.3,0.9-22.5-6.1c-0.6-1-1.1-2.3-1.3-3.5
			c-0.3-2.2-0.3-4.6,1.8-6c2.4-1.6,4.8-1.1,6.6,1.4c2.4,3.3,6.1,4.2,9.6,5.6c1.2,0.5,2.6,0.5,3-1c0.3-1.4,0.6-3.3-1.6-3.7
			c-2.2-0.4-4.4-0.4-6.3-1.6c-3-1.8-4.8-4.2-3.5-7.8c1.1-3.1,3.6-4.2,6.8-3.1C270.7,803.3,276.8,801.6,281.9,806z"/>
		<path class="st93" d="M119.6,676.8c-0.2-4-0.1-7.9,5.8-9.5c7-2,13.7-3.4,19.2,2.4c3.9,4,3.6,9.2,1.3,14.1
			c-1.8,3.7-4.9,6.5-8.2,8.9c-6.2,4.5-13.1,2.6-16.4-4.2C119.9,685.6,119.5,683.2,119.6,676.8z"/>
		<path class="st94" d="M234,612.7c1.2-3.1-0.9-8,3.8-8.8c5-0.9,4.4,4.1,5.8,7c0.7,1.4,1.5,2.8,2.6,3.8c1.9,1.7,2.7,3.6,1,5.6
			c-1.5,1.8-3.5,2.4-5.9,1.6c-2.3-0.7-3.3-2.8-5.3-4.2c-2.6,2.9-7.9,3.1-7.3,8.9c0.1,1.5-2.2,2.2-3.7,2.1
			c-6.8-0.6-13.7-1.4-20.5-2.2c-1.9-0.2-3.6-1.3-3.8-3.5c-0.1-2.4,2.1-3,3.7-3.6c1.4-0.5,3-0.3,4.6-0.5c7.6-0.9,7.8-1.1,8.8-9.2
			c0.3-2.7,1-5.1,4-5.5c2.7-0.4,4.2,1.6,4.6,3.8C227.1,612.9,230.9,612,234,612.7z"/>
		<path class="st87" d="M278,730.3c-5,8.7-13.9,9.6-22.4,10.9c-2.1,0.3-4.3-0.3-6.5-0.7c-3.9-0.8-7.3-2.7-7.3-7.2c0-5,4.6-4,7.5-5.1
			c0-2.2-1.5-3.5-2.7-4.8c-1.3-1.4-2.7-3-1.6-4.9c1.3-2.2,3.6-2.1,5.8-1.6c3.9,0.9,6.4,3.9,9,6.5c3.2,3.2,5.2,5.9,9.5,0.7
			c2.8-3.4,6.7-2.1,9,2.1C279.2,727.6,279.3,729,278,730.3z"/>
		<path class="st89" d="M363.6,482.6c-7.7,0.3-11-3.4-10.2-9.7c0.7-5,3.2-6.2,7.1-2.5c2,1.8,3.6,2,5.8,1.6c2.8-0.5,5.5-1.3,8.3-1.5
			c3.4-0.2,5.5-0.5,5.9-4.9c0.4-3.8,3.9-4.3,7-1.6c4,3.5,5.3,13.3,2.4,17.5c-0.9,1.4-2.4,2.7-3.8,2c-3.8-1.6-7.4-3-11.7-2.2
			C370.4,481.9,366.3,482.2,363.6,482.6z"/>
		<path class="st95" d="M202.1,474c-1.7,2.2-0.4,4.9-1.3,7.3c-0.7,1.9-2,3.3-4.1,3.2c-2,0-3.5-1.3-4.1-3.3c-1-3.4-0.9-6.8,0.2-10.2
			c0.5-1.6,1.6-3.3,3.2-2.9c7.2,1.9,16-3.2,21.9,4.7c0.8,1.1,2.9,2.4,3.8,0.3c1.8-4.2,4-2.8,6.5-1c3.5,2.6,7.6,4.8,7.5,10
			c-0.1,3.2-3.9,5.6-6.9,4c-6.9-3.6-15.9-3.2-20.7-11.2C207.2,473.3,204.4,473.2,202.1,474z"/>
		<path class="st96" d="M146.8,906.6c-4.8-0.5-8.3,1.9-12.1,3.2c-2.7,0.9-5.3,2.1-8.2,1c-1.9-0.7-3.2-2-3.3-4.1
			c-0.1-1.6,0.4-3.4,1.9-4c7.6-2.6,14.7-7.2,23.2-6.5c5.5,0.4,8.1,2.6,8.6,7.9c0.4,4,0.3,8.1-1,12.1c-0.7,2-2,3.2-4.1,3.2
			c-2.6,0.1-4.1-1.5-4.5-3.9C147.1,912.9,147,910.1,146.8,906.6z"/>
		<path class="st97" d="M212,679.7c5.6-2,9.1,3.2,13.5,4.4c1.9-1.3,1.3-2.9,1.4-4.3c0.3-3,0.9-5.9,4.6-5.8c3,0,4.1,2.6,4.7,5.1
			c1.2,4.9,1.2,10,0.3,14.9c-0.7,4.2-3.9,5.8-7.6,3.7c-5.8-3.3-12.8-5.1-17-11C207.8,684.3,208.4,682,212,679.7z"/>
		<path class="st39" d="M207,731.3c-0.8,3.5-0.1,8.8-6.3,7.9c-3.8-0.6-6.4-5.6-5.8-10.5c0.4-3.9,2-6.5,6.5-6.2
			c3.7,0.3,7.5,0.5,11.2,0.9c4.4,0.5,7.4,3,9.7,6.6c1.5,2.3,2.4,4.6-0.1,6.6c-2.1,1.8-4.6,1.8-7,0.5
			C212.5,735.7,211.7,731.8,207,731.3z"/>
		<path class="st98" d="M344.2,474.9c-0.2,3-2.7,5.1-4.9,4.1c-8-3.5-17.6-4.2-22.8-12.8c-0.6-1.1-1-2.3-1.4-3.5
			c-0.6-1.6-0.3-3.1,1-4.2c1.3-1.1,2.9-1.2,4.3-0.2c2.1,1.4,4.1,2.9,6.2,4.3c1.5,1,3.1,2.5,5.1,2.1c2.3-0.4,5.4-3.4,6.7-0.6
			c1.6,3.4,3,6.9,5.6,9.7C344.2,474,344.1,474.5,344.2,474.9z"/>
		<path class="st98" d="M382.7,417.7c3.2,2.7,7.1,6.1,5.8,9.9c-1.5,4.3-6.9,4.7-11.4,5c-10.7,0.7-16.8-4.5-16.6-14.2
			c0-1.5-0.1-3.3,1.6-4c1.8-0.7,2.9,0.5,4,1.7c0.6,0.7,1.2,1.5,1.5,2.4c1.6,4.7,4.7,4.1,8.1,2.4C378,419.8,380.3,418.8,382.7,417.7z
			"/>
		<path class="st96" d="M252.2,671.1c0.7,0.3,2.1,0.5,3,1.3c4.3,3.9,8.2,8.2,14.3,9.8c2.9,0.7,2.6,5.6-0.4,6.5c-3,1-5.3,2.3-7.6,4.5
			c-3.1,3-7,1.8-9.1-2.4c-2.2-4.4-2.8-9.4-5.5-13.8C245.1,674.2,248.2,670.8,252.2,671.1z"/>
		<path class="st95" d="M278,730.3c0.1-1.4,0.2-2.8,0.2-4.2c4-0.3,2.9-4.3,4.5-6.3c1.5-1.9,3.3-3.1,5.6-2.5c2,0.5,3,2.2,3.3,4.2
			c0.7,5.3,1.3,10.5,1.8,15.8c0.3,3.1-1.1,5.5-4.4,6.2c-3.2,0.7-5.1-1-7.1-3.4C279.6,737.2,282,732.5,278,730.3z"/>
		<path class="st99" d="M212,679.7c-1.6,2.3-1.9,4.6,0,6.9c-1.8,0-2.9,0.8-3.1,2.7c-0.3,2.1-0.5,4.4-1.3,6.4c-1,2.4-2.7,4.5-5.6,3.8
			c-2.7-0.6-4.3-2.9-4.2-5.5c0.2-5.6,0.8-11.1,1.4-16.7c0.3-2.6,1.7-4.8,4.7-5c2.5-0.1,4.3,1.4,4.6,3.8
			C208.8,678.4,210.4,678.9,212,679.7z"/>
		<path class="st100" d="M202.1,809.6c3.1,4.8,3,10.5,4.1,15.9c0.6,2.8-0.3,5.1-3.3,5.7c-3.1,0.6-6.4-0.5-6.6-3.6
			c-0.5-5.6-2.5-8.4-8.3-8.5c-1.5,0-2.5-1.8-2.5-3.5c0-2.2,1.3-3.6,3.2-4c2.1-0.5,4.3-0.4,6.5-0.7c1.8-0.2,1.1-1.9,1.6-2.9
			C199.2,806.5,200.7,807.7,202.1,809.6z"/>
		<path class="st101" d="M208.3,807.8c4-4.4,7.8-8.9,14.8-7.7c3.3,0.6,6.4,1.4,6.1,5.5c-0.3,3.5-3,4.4-6.1,4.5
			c-0.9,0-1.9-0.2-2.8-0.1c-2,0.3-4.6-2.1-6,0.3c-1.4,2.5,0.4,4.8,2.2,6.6c2.2,2.2,2.2,4.2-0.3,6.3c-2.4,2-4.5,2.1-6.4-0.4
			c-0.7-1-1.2-2.1-1.8-3.2C207.1,815.6,206.8,811.7,208.3,807.8z"/>
		<path class="st98" d="M301,481.5c-5.8-2.2-5.7-8.9-8.8-13.2c-1.8-2.5-1.5-6.2,1.1-8.5c2.5-2.2,5.4-1.9,7.1,1
			c1.6,2.7,3.4,4.9,5.8,7c4.2,3.5,2.2,11.5-3,13.4C302.6,481.4,302,481.4,301,481.5z"/>
		<path class="st39" d="M268.5,473.6c-0.5-3.1,0.1-6,3.4-6.8c3.1-0.8,4,2,5.2,4.3c2.2,4.2,7.1,3.2,10.6,5.1c1.6,0.9,3.8,1.2,3.6,3.6
			c-0.2,2.3-2.4,2.8-4.1,3.2c-6.4,1.5-12.4,1.2-17-4.5C270,476.7,267.2,475.8,268.5,473.6z"/>
		<path class="st94" d="M237.2,734.6c0,0.4,0,1.6-0.3,2.8c-0.7,3.6-2.4,6.8-6.7,6.1c-4-0.6-4.5-3.8-3.5-7.2c0.8-2.8,0.2-5.5,0-8.3
			c-0.2-2.7,0.6-5.1,3.6-5.6c2.5-0.4,3.9,1.2,5.1,3.2C237,728.2,237.2,730.9,237.2,734.6z"/>
		<path class="st102" d="M247.7,806.1c0,2.2,0.1,2.8,0,3.4c-0.6,5.4-3.6,8.5-7.3,7.6c-3.6-0.9-4.6-3.8-3.3-9.2c0.8-3,1.6-6,2.5-8.9
			c0.6-2,2-3.1,4.2-2.8c1.8,0.2,2.5,1.6,2.8,3.2C247.1,802.1,247.5,804.8,247.7,806.1z"/>
		<path class="st103" d="M143.2,717.7c0.3,1,0.8,1.8,0.9,2.7c0.1,0.9,0,2-1.1,2.2c-0.8,0.1-2,0.1-2.5-0.5c-4.4-4.2-8-9.2-11.1-14.4
			c-1-1.6-1-3.7,0.7-5.1c1.3-1.1,3-0.8,4.4-0.1C140.5,705.8,145.5,709.7,143.2,717.7z"/>
		<path class="st104" d="M206.7,863.2c-0.2,1.7-0.1,3.6-0.6,5.4c-0.8,2.7-2.8,4-5.6,3.9c-2.5-0.1-4.1-1.7-4.7-3.9
			c-1.1-3.7-0.2-7.4,0.9-11c0.7-2.3,2.3-3.9,4.7-3.9c2.8,0.1,4.4,2.1,5,4.7C206.7,859.8,206.6,861.4,206.7,863.2z"/>
		<path class="st105" d="M268.5,473.6c0.6,1.7,1.2,3.3,1.7,5c-3.5-2.4-5.5,1.4-8.3,2.1c-5.7,1.5-9.2,0.5-11-3.7
			c-1.1-2.5-0.4-4.4,2.3-4.9c3-0.5,6-1,8.8,1.4C263.8,475.1,266.3,476.1,268.5,473.6z"/>
		<path class="st106" d="M210.2,610.9c-0.2,3.2-0.6,6.2-4,6.8c-3.6,0.6-4.8-2.2-5.4-5c-0.7-3.3-1.4-6.8,1.2-9.7
			c1.1-1.3,2.8-1.6,4.2-0.7C209.4,604.3,209,608.1,210.2,610.9z"/>
		<path class="st107" d="M171.7,836.8c-3.3-0.5-5.6-2.3-6-5.8c-0.3-2.9,3.3-7.3,5.8-7.5c3-0.3,6,3.2,5.7,7
			C177,833.9,175.6,836.5,171.7,836.8z"/>
		<path class="st108" d="M279.6,678.2c3.3,0.1,8.6,5,8.2,7.9c-0.4,3.1-2.9,3.8-5.6,3.7c-3.5-0.2-7.3-4.3-7-7.5
			C275.5,679.7,277.1,678.4,279.6,678.2z"/>
		<path class="st109" d="M172,704.3c2.7,0.1,4.8,1.7,4.4,4.4c-0.5,3.5-3.2,6.2-6.6,6.8c-3.5,0.7-4.8-2.1-4.9-5.1
			C164.7,707.5,168.2,704.5,172,704.3z"/>
		<path class="st110" d="M165.9,579c-3.2-0.8-4.8-2.9-4.5-6.1c0.3-3.2,1.9-5.3,5.4-5c3,0.3,5.6,1.7,5.3,5.1
			C171.7,576.6,169.2,578.4,165.9,579z"/>
		<path class="st111" d="M180.4,955.4c-0.4,4.1-2.3,6.5-5.8,6.7c-3.5,0.2-5-2.4-4.7-5.5c0.3-3.6,2.8-5.5,6.2-5.6
			C179.3,950.9,180.3,953.2,180.4,955.4z"/>
		<path class="st107" d="M167.2,456.2c0.1,3.5-1.8,5.5-5,5.7c-3.2,0.2-5.4-1.7-5.6-5c-0.1-3.3,1.6-5.5,5-5.7
			C165,451,166.8,453,167.2,456.2z"/>
		<path class="st112" d="M202.1,809.6c-1.8-0.6-3.5-1.1-5.3-1.7l0,0c-1.2-2.7-0.9-5.5-0.2-8.3c3.8-4.1,6.3-4.2,7.6-0.2
			C205.5,803.2,205.4,806.8,202.1,809.6z"/>
		<path class="st99" d="M393.8,442.6c-2.8-0.4-6.9,0.4-6.7-4.1c0.1-3.5,3.5-3.8,6.4-4c2.9-0.2,6,0.2,6.3,3.9
			C400,442.3,396.8,442.4,393.8,442.6z"/>
		<path class="st100" d="M208.3,807.8c-0.1,3.9-0.1,7.8-0.2,11.8C204,815.5,205.7,811.7,208.3,807.8z"/>
		<path class="st100" d="M196.6,799.7c0.6,2.7,0.6,5.5,0.2,8.3C194.5,805.3,194.8,802.5,196.6,799.7z"/>
		<path class="st26" d="M753.4,508c-16.7-7.8-33.7-15-51.2-20.7c-9.5-7.5-13.9-17.7-15.9-29.3c3.4-2.2,5.9,0,8.3,1
			c16.3,6.3,32.5,12.9,48.8,19.3c3.8,1.5,6.2,3.6,7.1,7.9c1.3,6.1,2.3,12.2,5.8,17.6C758.1,506.7,755.9,507.7,753.4,508z"/>
		<path class="st57" d="M674.2,485.2c0.2,4.5,4.3,7.5,5.6,13.4c-14.6-2.4-26.4-9.5-39.2-13.6c-6.4-8.8-11.8-18-15.1-29.7
			c9.3,2.6,17.4,5.3,25,9.4c3.3,1.8,6.6,3.6,10,5c5.8,2.4,10,6.1,11.6,12.4C672.3,483.3,673.5,484.2,674.2,485.2z"/>
		<path class="st57" d="M623.5,487.2c-0.1,3.7,2.8,6.8,2.2,11.3c-8.1-0.3-14.2-5.4-21.3-7.9c-3.1-2.1-6.1-4.4-9.3-6.2
			c-7.4-4.1-13.2-9.5-15-18.1c-1-4.8-4.7-8.6-5.2-13.3c1.8-1.4,3-0.7,4-0.1c11,6,21.8,12.1,32.9,17.9
			C618.7,474.2,619.7,481.7,623.5,487.2z"/>
		<path class="st26" d="M672.1,458.2c0.1,3.5-1.9,5.2-5.5,3.9c-3.2-1.1-6.3-2.8-9.4-4.3c-5.3-2.6-10.4-6.1-16-7.8
			c-11.8-3.4-14.2-12.9-16.5-22.8c-0.8-3.4,1.1-4.8,4.2-3.4c10.5,4.8,21.1,9.5,31.3,14.9C667.8,442.8,670.5,450.3,672.1,458.2z"/>
		<path class="st113" d="M591.8,442.9c-13.5-6.6-26.1-14-37.3-23.5c-5.7-4.8-5.3-11.6-6.3-18c-0.3-2.3,1.9-3.4,3.8-2.4
			c3,1.6,5.8,3.7,8.6,5.6c6.9,4.8,13.2,10.5,21.5,13.1c3.2,1,4.7,3.9,6.1,6.8C590.9,430.1,591.1,436.3,591.8,442.9z"/>
		<path class="st114" d="M595,492.9c4.3,5.3,10.4,7.8,16.2,10.8c8.2,4.2,9.7,11.6,10,19.6c0.1,2.8-1.9,4.4-4.3,2.9
			c-13.1-7.6-27.9-12.8-37.1-26c-0.2-2.1-0.1-4.3-0.5-6.4c-0.5-2.4-2-5,0.3-6.8c2.8-2.3,5,0.9,7.4,1.8
			C589.8,489.9,591.7,492.8,595,492.9z"/>
		<path class="st115" d="M630.8,500c3.5-2.3,5.5-0.7,7.2,0.3c12.8,7.9,26.9,13.2,40.4,19.8c1.7,0.8,3.4,1.6,5,2.6
			c7.3,4.7,10.6,13.9,8,22.1c-1,3.1-3.1,2.6-5.2,1.7c-8-3.6-15.7-7.8-24-10.7c-7.1-2.5-13.5-6.5-20.1-9.9c-3.1-1.6-5.1-4-5.1-7.3
			C636.9,511.9,634.1,506,630.8,500z"/>
		<path class="st116" d="M756.2,550c0.6,2.6-1,3.5-3.1,3c-2.7-0.7-5.2-2.2-7.9-2.9c-8.5-2.5-15.9-7.2-23.8-11c-4.4-2.1-8-5-8-10.6
			c0-1.2-0.9-2.4-1-3.6c-0.2-3.5-4.9-7.6-1-10.2c2.9-2,7,1.4,10.4,2.8c6,2.6,11.9,5.8,18.1,7.8C752.3,529,755.2,538.7,756.2,550z"/>
		<path class="st117" d="M567.8,509.7c2.4,0.5,4.6,1.8,6.5,3.5c8.1,7.5,17.2,13.6,25.9,20.2c7.5,5.7,7.7,10.9,1.2,18
			c-2.5,2.7-4.7,0.8-6.7-0.4c-7.7-4.9-15.1-10.1-22.1-16c-2.6-2.2-5.1-4.6-7.7-7c-5.1-4.8-5.4-11.7-0.6-16.9
			C565.3,510.1,566.4,509.7,567.8,509.7z"/>
		<path class="st115" d="M570.6,541.5c8.3,10,18.3,15.8,28,22.1c5.6,3.6,7.1,8.4,5.7,14.5c-1.1,5-3.7,6.6-8,3.8
			c-10-6.4-19.4-13.6-28.5-21.3c-1.7-1.5-2.7-3.3-1.9-5.8C567.1,550.8,567.3,546.4,570.6,541.5z"/>
		<path class="st116" d="M706.4,552.1c0-0.4,0-1.7,0.3-2.9c1-4.6,2.9-5.6,7.3-3.6c4.3,1.9,8.3,4.4,12.5,6.4c3.9,1.9,8,3.5,12,5.4
			c7,3.4,9.4,11.4,5.5,18.3c-1.2,2.2-3,2.1-4.7,1.3c-8.8-4.1-17.6-8-26.2-12.5C707.8,561.6,706.4,558.3,706.4,552.1z"/>
		<path d="M823.2,968.1c0,3.1-2,4.8-5.8,7.5c1.8-4.3,3.3-6.3,6-7.4C823.4,968.2,823.2,968.1,823.2,968.1z"/>
		<path class="st118" d="M323.6,609.1c0,1.5-0.9,2.8-2.6,2.9c-2.1,0.1-3.3-1.2-3.5-3.3c-0.1-2.2,1.1-3.8,3.1-3.8
			C322.7,605,323.8,606.6,323.6,609.1z"/>
		<path class="st119" d="M634.6,564c0.9-5.5,1.8-9.4,1-13.6c-0.9-4.2,1.4-5.4,5.7-3.2c6.1,3.1,12.1,6.6,18.2,9.9
			c11,6,22,12.1,33,18.1c7.1,3.8,7.6,4.8,5.8,12.6c-2.8,12-2.8,12.1-13.7,6.4c-14.7-7.7-29.4-15.5-44.2-23.1
			C636.7,569.2,633.7,567.2,634.6,564z"/>
		<path class="st120" d="M449.9,253.9c-0.3,38.7-32,69.4-71.1,69c-38.7-0.4-69.3-32-68.9-71.2c0.4-38.8,32-69.5,71.1-69
			C419.9,183.3,450.3,214.6,449.9,253.9z"/>
		<path class="st0" d="M141.2,419c2.6,4.3,2.1,8.9,1.7,13.4c-0.2,2.4-0.2,5.5-3.3,5.9c-3.1,0.4-5.1-2-6.7-4.3
			c-0.3-0.4-0.1-1.2,0.1-1.8c0.6-1.5,1.6-0.5,2.1-0.1c3.3,2.7,3.7,0.3,3.7-2.1c0-1.8-0.7-3.7-0.8-5.5
			C137.8,422.5,138,420.3,141.2,419z"/>
		<path class="st0" d="M127.6,421.7c-2.5-3.7-2-7.1-2-10.4c0-1.7,0.9-3,2.7-3.2c1.9-0.2,2.9,1.1,3,2.8
			C131.5,414.6,132,418.5,127.6,421.7z"/>
		<path class="st0" d="M133.6,545c3.9,5.9,8,10.9,12.5,15.6c2.4,2.5,1.4,4.7-1.5,5.7c-3.9,1.3-8.5,1.5-11.6-1.1
			c-3.2-2.7-5.2-7-3.9-11.7C129.9,550.8,130.5,548,133.6,545z"/>
		<path class="st0" d="M209,435.1c-0.9-1.2-1.4-1.6-1.5-2.1c-0.4-1.3-1.8-2.7,0-3.9c0.4-0.3,1.4-0.3,1.7-0.1c1.5,1.4,1.4,3.2,0.7,5
			C209.8,434.2,209.6,434.4,209,435.1z"/>
		<path class="st0" d="M236.5,424.9c1.9,0.1,3.3,1.1,3.8,3.1c0.1,0.5-1.1,1.2-2.1,1c-1.4-0.3-3.2,0-3.3-2.2
			C234.7,425.8,235.3,425.1,236.5,424.9z"/>
		<path class="st0" d="M131.4,683.2c-0.9-0.8-1.2-1.9-1.2-3.2c0.1-2.6,1.8-3.8,4.1-4.2c0.7-0.1,2,0.5,2.2,1.1c0.8,2-0.5,3.5-1.8,4.8
			C133.8,682.7,132.9,683.5,131.4,683.2z"/>
		<path class="st121" d="M743.8,497.9c-13.8-5.2-26.4-10.1-39-14.8c-3.8-1.4-4.8-4.7-6.2-7.8c-1.2-2.5-3.1-5.5-0.6-7.8
			c2.1-2.1,4.8,0.4,6.9,1.2c10.3,3.7,20.2,8.5,31,11c2.9,0.7,4.1,2.4,4.6,5.2C741.2,488.8,742.4,492.7,743.8,497.9z"/>
		<path class="st122" d="M668.4,491c-13.9-5.7-29.4-6.9-31.1-25.2C652.3,467.9,663.5,476.6,668.4,491z"/>
		<path class="st37" d="M616.1,491.4c-8.3-5.3-16.2-10.1-23.7-15.4c-3.9-2.8-4.6-7.8-5.9-12.6C603.9,469,616.7,476.5,616.1,491.4z"
			/>
		<path class="st123" d="M662.1,455.2c-8.3-3.8-15.8-6.7-22.8-10.6c-3.6-2-5.1-6-4-11.5c7.4,3.3,14.4,6.2,21.2,9.5
			C661.3,445,661.6,449.7,662.1,455.2z"/>
		<path class="st123" d="M558.5,408c6.8,4.4,13.4,8.3,19.8,12.7c3.2,2.2,3.2,2.8,3,10.4c-3.3,0.2-5.8-1.8-8.2-3.4
			c-3.9-2.5-7.5-5.7-11.4-8.1C557.1,416.7,556.5,413.2,558.5,408z"/>
		<path class="st124" d="M588.7,494.7c7.1,4.4,13.7,8.4,20.2,12.4c1.6,1,2.9,2.4,3,4.4c0.1,1.5,0.5,3.2-0.7,4.5
			c-1.4,1.5-2.9,0.4-4.2-0.3c-5.3-3.2-10.6-6.5-15.9-9.8C587,503.3,587.2,499.6,588.7,494.7z"/>
		<path class="st125" d="M644.7,509.7c12.4,5.4,23.9,10.4,35.3,15.5c3.2,1.4,5.9,8.7,5.1,12.3c-0.6,2.6-2.3,2.5-4.3,1.6
			c-6.9-3-13.8-6.1-20.7-9.1c-1.1-0.5-2.2-1.3-3.4-1.5C646.5,526.6,644.1,519.7,644.7,509.7z"/>
		<path class="st126" d="M718.9,521.4c8.8,3.5,16.2,5.8,23,9.3c6.1,3.1,6.7,9,5.4,16c-8.1-3.8-15.3-7.9-22.9-11.4
			C719.5,532.9,721.4,527.1,718.9,521.4z"/>
		<path class="st126" d="M596.8,537.2c-0.6,2.3-1.3,4.5-3.1,5.8c-1.4,1-3-0.2-4.2-1.1c-6.6-4.7-13.3-9.3-19.9-14
			c-3-2.1-3.2-5.3-2.6-8.4c0.6-3.3,3.9-5.1,6.3-3.1c7.3,6.4,14.7,12.6,22.3,18.5C596.2,535.4,596.4,536.4,596.8,537.2z"/>
		<path class="st124" d="M595.1,575.9c-5.9-4.4-11.3-8.1-16.4-12.1c-3.7-2.8-5.9-6.3-3.2-11.7c6.6,4.6,13,8.8,19.2,13.4
			C598,568,597.5,571.4,595.1,575.9z"/>
		<path class="st127" d="M737.6,564.2c-0.4,2.7-2,4.8-5,3.7c-5.5-2.1-10.9-4.6-16.2-7.2c-3.2-1.6-2.9-5-1.8-7.4
			c1.5-3.5,4.3-1.2,6.3-0.1c4.1,2.3,8,4.8,12.5,6.3C735.5,560.1,737.2,561.6,737.6,564.2z"/>
		<path class="st128" d="M389.8,272.8c0,7.5,0,15,0,22.6c0,2.2,0.1,4.4-0.4,6.5c-1,4.8-5.3,8.3-10,8.4c-4.6,0.2-9.1-3.2-10.4-7.9
			c-0.4-1.5-0.5-3.1-0.5-4.6c0-16.9,0-33.8,0-50.7c0-1.2,0-2.5,0.2-3.7c1.1-5.3,5.4-8.9,10.6-8.8c5.2,0.1,9.5,3.7,10.2,9.2
			c0.4,3.1,0.2,6.3,0.2,9.4C389.8,259.6,389.8,266.2,389.8,272.8z"/>
		<path class="st129" d="M380.7,228.3c-8.8,0.2-16.6-6.9-16.9-15.6c-0.4-8.4,6.4-15.7,15-16.1c9.3-0.5,17.3,6.9,17.4,16
			C396.3,221,389.3,228.1,380.7,228.3z"/>
	</g>
</g>
<g id="Layer_2">
	<linearGradient id="SVGID_1_" gradientUnits="userSpaceOnUse" x1="345.09" y1="-29.2583" x2="210.5961" y2="999.2245">
		<stop  offset="0" style="stop-color:#FBF05E"/>
		<stop  offset="0.9926" style="stop-color:#FFFFFF;stop-opacity:0"/>
	</linearGradient>
	<path class="st130" d="M367.6,113.8L47.8,264.4c0,0,0.6,418.9,1.8,482.1c1.3,72.4,243.3,108.4,251.9,105c22.8-9,10.8-55,10.8-55
		s-2.3-103.6,10.2-143.7c12.5-39.9,20.5-76.9,20.5-76.9s32.2-61.4,60.3-96.5c29.2-36.5,47.6-49.2,73.2-65.3
		c21-13.2,40.9-20.3,56.3-23.8c7.8-1.7,16.7-3.8,16.7-3.8l-76-219.8c0,0-3.9,4.8-29.8,1.1c-46-6.6-57.6-24.6-65.6-35.3
		C372.8,125.3,367.6,113.8,367.6,113.8z"/>
</g>
</svg>
