<?xml version="1.0" encoding="utf-8"?>
<!-- Generator: Adobe Illustrator 19.2.1, SVG Export Plug-In . SVG Version: 6.00 Build 0)  -->
<svg version="1.1" id="Layer_1" xmlns="http://www.w3.org/2000/svg" xmlns:xlink="http://www.w3.org/1999/xlink" x="0px" y="0px"
	 viewBox="0 0 1123.1 1156.5" style="enable-background:new 0 0 1123.1 1156.5;" xml:space="preserve">
<style type="text/css">
	.st0{fill:#030303;}
	.st1{fill:#040304;}
	.st2{fill:#040404;}
	.st3{fill:#46AAE5;}
	.st4{fill:#81D7E8;}
	.st5{fill:#2F75A8;}
	.st6{fill:#FFFFFF;}
	.st7{fill:#94A1A1;}
	.st8{fill:#95A1A1;}
	.st9{fill:#2E75A7;}
	.st10{fill:#82D6E7;}
	.st11{fill:#2E75A8;}
	.st12{fill:#2F75A7;}
	.st13{fill:#94A0A0;}
	.st14{fill:#FBFCFC;}
	.st15{fill:#3075A7;}
	.st16{fill:#939F9F;}
	.st17{fill:#8F9C9C;}
	.st18{fill:#04F6DB;}
	.st19{fill:#8B999A;}
	.st20{fill:#44ABE4;}
	.st21{fill:#3076A7;}
	.st22{fill:#45A8E3;}
	.st23{fill:#EDDA42;}
	.st24{fill:#8C9A9A;}
	.st25{fill:#929E9E;}
	.st26{fill:#2F74A7;}
	.st27{fill:#04F5DA;}
	.st28{fill:#F8F9FA;}
	.st29{fill:#FDFDFD;}
	.st30{fill:#909C9C;}
	.st31{fill:#2F74A6;}
	.st32{fill:#93A0A0;}
	.st33{fill:#F7F8F8;}
	.st34{fill:#317BAD;}
	.st35{fill:#82D4E5;}
	.st36{fill:#8B9696;}
	.st37{fill:#43A6DF;}
	.st38{fill:#12E3DC;}
	.st39{fill:#43A6E0;}
	.st40{fill:#939E9E;}
	.st41{fill:#41A8DF;}
	.st42{fill:#43A5DF;}
	.st43{fill:#05F6DB;}
	.st44{fill:#F9FAFA;}
	.st45{fill:#07EED8;}
	.st46{fill:#EDF0F1;}
	.st47{fill:#44A6DD;}
	.st48{fill:#909D9D;}
	.st49{fill:#2F73A4;}
	.st50{fill:#8D999A;}
	.st51{fill:#F1F3F3;}
	.st52{fill:#F0F1F1;}
	.st53{fill:#41A3DC;}
	.st54{fill:#636B6B;}
	.st55{fill:#EAEBEB;}
	.st56{fill:#40AEE3;}
	.st57{fill:#396F99;}
	.st58{fill:#808A8A;}
	.st59{fill:#848F8F;}
	.st60{fill:#798383;}
	.st61{fill:#D9D8D8;}
	.st62{fill:#687373;}
	.st63{fill:#04E8D1;}
	.st64{fill:#828F8F;}
	.st65{fill:#869393;}
	.st66{fill:#495656;}
	.st67{fill:#697272;}
	.st68{fill:#788584;}
	.st69{fill:#6E7979;}
	.st70{fill:#C8C9C9;}
	.st71{fill:#6B7474;}
	.st72{fill:#737E7E;}
	.st73{fill:#738080;}
	.st74{fill:#6B7676;}
	.st75{fill:#D5D9D9;}
	.st76{fill:#606969;}
	.st77{fill:#7FD4E5;}
	.st78{fill:#7ED3E3;}
	.st79{fill:#7ED3E4;}
	.st80{fill:#020405;}
	.st81{fill:#04F7DB;}
	.st82{fill:#020304;}
	.st83{fill:#030607;}
	.st84{fill:#07F5DC;}
	.st85{fill:#010102;}
	.st86{fill:#CFE6EA;}
	.st87{fill:#CEE6EA;}
	.st88{fill:#CCE5EA;}
	.st89{fill:#070606;}
	.st90{fill:#0D0C0C;}
	.st91{fill:#7BCFDF;}
	.st92{fill:#45AAE5;}
	.st93{fill:#7CD1E1;}
	.st94{fill:#77C8D8;}
	.st95{fill:#41AEE4;}
	.st96{fill:#42AEE4;}
	.st97{fill:#43ACE5;}
	.st98{fill:#301645;}
	.st99{fill:#6509AB;}
	.st100{fill:#FDFEFE;}
</style>
<g>
	<path d="M998.7,989.6c10.4,6.8,16.9,15.1,24.2,22.7c2.3,2.3,4.9,4.8,6,7.7c3.1,8.1,9.4,9.3,16.8,9c6.7-0.3,12.9-2.4,19-4.7
		c11.3-4.3,21.5-2.8,30.8,4.8c5.3,4.4,11,8.6,15.6,13.7c9.6,10.7,4,27.2-10.3,29.3c-26.4,4-53,5.8-79.5,1.2
		c-11.6-2-21.5-8.9-31.8-14.2c-16.5-8.5-33-14.4-52.4-9.9c-11.3,2.6-23.1,2.7-34.4,6.2c-3.5,1.1-7.3,1.7-10.3,3.5
		c-11.7,7.1-23.8,5.9-35.9,2.2c-8.3-2.5-16.5-5-26.3-4.6c4.8,9.6,11.7,14.4,21.8,13.9c8.2-0.4,16,1,23.2,5.2
		c7.1,4.2,13,9.6,14.6,18.2c2.2,11.8-7.2,25.6-19.3,27.7c-14.9,2.7-29.7,3.9-43.8-3.7c-5.8-3.1-12.4-4-18.6-6
		c-11.7-3.9-20.6-11.2-27-21.1c-3.5-5.5-6.7-6.9-12.3-5c-8.3,2.8-16.6,5.6-24.9,8.1c-6.3,1.9-10.1,5.6-10.5,12.3
		c-0.1,1.1-0.6,2.2-0.5,3.2c1.8,15.2-8.1,22.7-19.6,28.3c-10.1,4.9-19.2,12.2-31,13c-15.5,1-30.6-0.2-44.7-7.5
		c-13.5-7-27.7-8.4-42.5-5.5c-5.7,1.1-11.5,2.2-17.3,2.9c-78.6,9.7-157.4,18.5-236.8,15.6c-26.4-0.9-52.1-5.8-77.2-14.3
		c-7.6-2.6-14.9-5.9-21.6-10.5c-13.7-9.3-15-21.1-3.7-32.9c3.8-3.9,7.9-7.5,12.2-11.5c-2.3-3.5-6.2-3.4-9.5-4
		c-39.4-7.7-78.8-15-118.1-22.9c-17.6-3.5-34.5-9.1-50.6-17.1c-9.3-4.6-17.4-10.7-23.7-19c-7.8-10.2-6.6-20.9,3.6-28.7
		c5.8-4.4,12.2-7.9,18.3-12c2-1.4,4.9-1.8,5.5-4.9c-9.6-3.2-19.3-6.2-28.8-9.7c-11-4-13.6-7.7-13.7-19.4c-0.1-8.5,0.3-9.2-9.2-8.8
		c-7.2,0.3-13.6-2-18.9-7.1c-7.6-7.3-7.5-17.9,0.1-25.1c4.1-3.9,9.2-6.2,14.7-6.9c11.1-1.3,21.2-5.3,31.3-9.6
		c12.2-5.3,24.6-6.3,37.4-3.2c0.4,0.1,0.7,0.2,1,0.3c14.3,3.3,14.1,3.2,23.1-8.7c13.9-18.5,30.9-32.9,53.4-39.8
		c2.6-0.8,4.7-1.7,5.4-4.6c0.7-2.6,0.3-4.4-2.7-4.5c-5.1-0.2-10.2,0.1-15.3-0.1c-14.6-0.4-29.7-14.8-30.7-29.2
		c-1.3-19.1,8.4-25,26.8-21.8c3.8,0.7,7.1,3.6,12.3,3c-1.5-4-3-7.5-4-11.2c-5-18.5-6.5-37-2.1-56.1c2.7-11.6,6.6-22.1,12.6-32.3
		c6.4-11,8.9-23.9,16.1-34.6c1.7-2.5,1.1-5.7,1.2-8.6c0.2-13.5,0.7-27,0.3-40.5c-0.6-21,3.2-41.4,7.8-61.7
		c1.9-8.2,3.2-16.4,3.2-24.9c0-16.8,1-33.6,0.1-50.4c-1.3-22.9,5.2-43.9,12.2-65.1c6.1-18.7,11.3-37.7,16.5-56.6
		c2.2-8.2,5.4-15.9,9.6-23.2c5.4-9.2,7.4-18.6,5.3-29.3c-3-15.2-1.1-30.6,1.1-45.7c3.3-22.3,7.3-44.5,15.7-65.7
		c1.2-3.2-0.4-4.5-2-6.6c-5.7-7.3-2.3-18.6,6.3-22.1c4.6-1.9,9.3-2,14-1.4c18.3,2.5,37.1,1.9,55,7.4c3.6,1.1,5.7-0.4,7.7-2.5
		c5.1-5.2,10.1-10.5,14.9-16c7-8.1,15.1-14.9,23.7-21c14.3-10.1,29.1-19.6,43.6-29.3c9.4-6.3,19.3-11.6,29.8-16.1
		c35.8-15.5,71.9-30.3,109.6-40.6c16.9-4.6,34.3-6.3,51.7-8.4c50-6,97,5.2,143.2,23.1c23.9,9.3,46.5,21.2,67.3,36
		c23.7,16.9,45.8,35.4,63.7,59.1c14.6,19.4,26.7,39.9,36.8,61.8c4.1,9,6.1,18.7,8.9,28.1c6.6,22.3,13.6,44.6,14.5,68.2
		c0.2,6.5,2.3,10.3,9.7,11.6c7.1,1.3,12.3,6.5,12.5,14.6c0.2,5.9,3.4,10.3,6.9,14.5c4.4,5.4,6.6,11.2,6.3,18.1
		c-0.2,5.5,0.5,10.9,3.4,15.9c8.6,15,10.8,31.5,10.9,48.4c0,4.1,0.1,7.8,1.4,11.7c1.6,4.9,2.7,10.1,1.8,15.1
		c-1.9,10.5-1.1,20.9,0.1,31.3c0.6,5.4,0.1,10.8-2.5,16c-2.6,5.3-2.2,11.4-2.2,17.2c0.2,13.3-1.1,26.1-7.5,38.2
		c-3.8,7-6,14.9-5.5,23.1c0.1,1.1,0.3,2.4-0.2,3.2c-7.3,12.6-8.3,27.6-15.7,40.1c-3.5,5.9-7.8,11.5-11.7,17.2
		c-4.2,6-8.2,11.9-10.4,19c-3.1,10.5-9.8,18.6-18.3,25.3c-5.9,4.6-9.3,10.3-11.3,17.8c-4.2,15.4-12.9,28.3-26.3,37.6
		c-2.9,2.1-6.2,3.7-8.3,7c-4.2,6.5-8.6,12.3-17.3,13.9c-4,0.7-6.1,5.9-7.4,10.2c-3,9.2-8.8,15.8-17.9,19.4c-2,0.8-4.5,1.6-5.7,3.2
		c-5.4,7.6-11.9,12.3-21.8,11.6c-3.5-0.2-5.2,4.1-6.2,7c-3.7,10.3-11,13.8-21.3,13.2c-2.1-0.1-4.2,0.6-7.3,1.1
		c4.1,13.5,11.6,24.6,18.8,35.7c2.3,3.5,6.3,3,10,3.1c13.9,0.5,27.6,1.2,41.2,4.6c10.5,2.6,19.7,7.6,28.5,13.5c4.4,3,7.7,7,6.8,12.7
		c-0.7,4.3-7.9,8.8-13.8,9c-2.5,0.1-5.1-0.3-7.7-0.3c-2.1,0-4.1-1.2-6.7,0.2c12.3,11.9,27.1,20,43.3,21.8c20.6,2.3,38.5,9.9,56,19.9
		c9.7,5.5,20.5,7.4,31.7,5.6c6.9-1.1,13.6-2.5,20.3-4.3c31.2-8.2,62.1-7,92.5,4c11.4,4.1,20.3,11.4,25.3,22.8c4,9.3,2,16.1-7.6,19.4
		c-17.4,6-34.6,9.6-52.1-2.5c-12-8.3-26.9-9.1-40.9-3.5C1013.8,983.3,1007.2,986.3,998.7,989.6z"/>
	<path class="st0" d="M123.6,97.6C108,91.3,93,88.5,78,85.9c-1.4-0.3-2.9-0.4-4.3-0.7c-8.4-1.7-16.7-3.5-19.1-13.5
		c-2.4-9.6,2.7-24.1,10.4-29.4c7.1-4.9,14.4-3.9,21.6-0.1c15.2,8,24.4,21.4,31.2,36.5C120.4,84.2,123.4,89.6,123.6,97.6z"/>
	<path class="st1" d="M153,269.8c9-1.2,17.6,5.4,27,9c5.3,2.1,4.5,8.2-1.2,10.7c-4.9,2.2-10.2,3.6-15.2,6c-8.8,4.4-17.9,8-26.8,12.2
		c-6,2.8-12.5,4-19,5c-5.7,0.9-9.9-1.9-12.5-6.9c-5.9-11.3-2-23,9.6-27.9C126.5,273.1,138.5,270.3,153,269.8z"/>
	<path class="st0" d="M218.2,161.7c0,5.1,0.1,10.2,0,15.3c-0.1,2.7-0.8,5.1-4.1,5.4c-2.5,0.2-3.9-1-5.1-3.2
		c-7.9-14.6-19-26.2-32.5-35.8c-8.6-6.1-11.7-19.3-6.5-28.3c1.7-3,4.5-4.5,7.7-5.8c8.8-3.4,17.2-1.1,25.5,1.6
		c3.7,1.2,5.1,4.8,6.6,8.2C215.5,132.8,218.2,146.9,218.2,161.7z"/>
	<path class="st2" d="M88.9,217c-2.9-0.2-5.9-0.1-8.7-0.6c-8.9-1.8-14.5-7.6-15.1-14.9c-0.8-10.9,2.6-17.1,11.9-20.9
		c4-1.6,8.2-2.7,12.7-2.8c15.2-0.5,29.4,4,43.5,8.8c2.8,0.9,5.1,2.6,6.9,5.1c5.5,7.7,3.5,13-6,14c-9.9,1.1-19,4.5-28.2,7.8
		C100.3,215.5,95,217.9,88.9,217z"/>
	<path class="st3" d="M798,73c7.3,3.8,13.9,8.5,19.8,14.1c1.1,10,10.7,9.7,16.7,13.8c39.5,33.7,69.8,74,85.8,123.9
		c7.9,24.6,11.9,50.1,13.9,76c2,25.5,1.4,50.8-0.7,76.2c-0.3,4-0.7,8-1.8,11.8c-4.9,16.3-6.4,33.6-13.6,49.3
		c-6.1-1.8-4.5-6.7-3.8-10.6c12-61.5,5.2-122.3-11.1-181.7c-7.3-26.6-20.3-52.3-38-74.6c-5.9-7.4-11.4-15.1-17.2-22.7
		c-6-7.8-13.8-11.7-23-13.3c-13.2-2.3-21.1,3.3-23.5,16.5c-0.5,2.9-0.6,5.8-0.5,8.7c1.1,31.3,3.1,62.5,9.3,93.4
		c3,15.2,0.6,30.6,1.8,45.8c3.2,41.7-11.1,79.7-24.5,117.9c-10,28.4-24.7,54.3-40.5,79.8c-7,11.2-11.8,23.5-15.8,36
		c-8.3,25.7-18.8,50.6-29.6,75.3c-1.8,4-4.3,7.6-6.7,11.2c-2.1,3.3-5.8,4.2-9,6c-16.4,9.4-33.1,18.5-49.1,28.6
		c-9.5,6-16.4,15.4-25.7,21.9c-4.5,3.1-8.4,6.1-14.3,7c-11,1.8-16.5,11-21.6,19.9c-1.6,2.8-2.8,6.3-2.6,9.4
		c0.7,9.8-4.2,17.3-8.6,25.3c-5.7,10.6-9.6,21.9-13.4,33.3c-3,8.9-8.2,17-12.6,25.3c-14.6,27.8-24,56.9-24.4,88.6
		c-0.2,17.5-2.3,34.9,1.4,52.3c1.1,5.4,3.2,10.4,4.8,15.6c-4.8,8.6-13.9,10.2-22,13.4c-9.3-11-14-25.1-14.6-38.1
		c-2.2-45.8-16.7-90-15.5-136.5c0.8-31.4,7-61.4,13.9-91.5c2.8-12.1,6.1-24,10.5-35.6c4-10.6,6.8-21.5,7.3-32.9
		c0.9-19.5,8.1-37.7,12.4-56.5c5.9-25.3,9.2-50.9,9-76.9c-0.1-9.9,1.8-19.6,2.8-29.3c0.5-5.3,3.2-9.6,7.1-13.2
		c0.7,0,1.5-0.1,2.2-0.1c51.1,2.8,84.5-24.9,110.2-65c8-12.5,17.1-24.4,23.3-38.1c2.4-5.2,6.9-7.9,12.7-9.2
		c13.7-3.2,16.8-9.5,12.2-23.1c-1-3-2.7-6.1-1.1-9.4c2.7-6,0.8-10-4.8-13.7c-12.8-8.4-25.7-16.3-39.9-22.1
		c-23.2-9.4-45.7-20.5-68.2-31.4c-25.1-12.1-52.1-19.9-79.3-26.7c-8.6-2.1-17.2-2.7-25.9-3.3c-6.4-0.5-11.5-1.7-13.2-9.7
		c-1.7-7.9-8.1-12.8-15.9-15.1c-5.2-1.6-10.5-3-15.9-4c-8.5-1.5-15.7,1.3-21.4,8.3c-3.8-1.7-5.4-5.2-7.7-7.7
		c-8.8-9.6-18.9-17-31.9-19.9c-4.7-1.1-8.7-3.6-13.1-5.3c-4.8-1.9-5.4-3.6-1.8-7.6c13.9-15.1,28.5-29.2,46.5-39.4
		c6.3-3.6,12.3-7.7,18.5-11.6c1,0.5,1.6,1.4,2.1,2.4c2,4-0.8,10,4.6,12.4c2.5,1.1,13.5-10.5,14.5-14.9c1.1-4.6,0-9.4,1.6-14
		c3.5-3.2,7.7-4.8,12.2-5.9c11-0.7,20.6-6.3,31.2-8.5c13.3-2.8,26.6-3.9,40.2-3.6c9.8,0.3,17-3.4,20.2-13.2
		c1.8-5.5,6.1-8.9,10.1-12.6c11.5-5.2,23.8-7.4,36.2-8.7c8.6,0.3,17.3-0.1,25.8,1.3c11.5,1.9,22-1.1,31.8-7
		c10.2-0.2,20.3,0.8,30.2,3.2c-5.1,5.6-14.9,4.5-18.2,12.6c14.4,6.7,23.5,5.5,34.8-4.9c1.9-1.7,3.9-3.3,6.2-4.4
		c15.7,3.4,31.3,7,45.9,14c-5.6,5.4-11.7,0.7-17.6,0.6c-4.3-0.1-8.6-1.7-13-1.2c-4.2,0.5-12.2,10.1-11.5,14.3c1,5.5,6.3,4.2,9.7,4.9
		c22.5,4.1,45.4,6.1,67.8,11C788.8,81.1,792.1,74,798,73z"/>
	<path class="st3" d="M258.7,953.3c-8.2-5.3-15.4-11.7-21.5-19.4c-16-15.6-12.1-33.3-6.4-51.8c4.4-14.2,7.5-28.9,11-43.4
		c1.9-7.9,1.8-16.2-1.4-23.7c-8.9-20.9-8.2-43.6-13.3-65.1c-6.8-28.8,1.4-56.5,3.5-84.6c1.1-14.9,2.4-29.5,1.4-44.6
		c-2-31.6-2-63.2-8.1-94.5c-2.6-13.5-2.1-27.6,1.4-41.3c1.4-5.3,1.5-10.8,2-16.2c3.2-36,9.4-71.5,21-105.9
		c3.9-11.5,10.9-21.3,21.6-28c11.8,5.3,24,6.8,36.7,4.5c37.3-2.1,60.6-23.7,76.6-55.2c4.8-9.4,10.1-18.6,14.7-28.1
		c3.1-6.2,7.2-8.9,14-6.8c6.9,2.1,14.3,2.7,20.4,7.3c-2.3,15.5-6.8,30.5-11.6,45.4c-8.3,25.8-10,52.1-3.7,78.5
		c4.1,17,13.7,30.9,25.6,43.8c13.5,14.6,30.4,22.9,48.7,29.4c-16.5,22-19.7,48.3-22.9,74.3c-4,32.2-10.1,64.1-12.3,96.5
		c-0.5,6.9-3,13.5-5.3,20.1c-12,34.3-19.7,70.2-22.3,105.7c-2.7,35-9.1,69.7-8.1,105.5c1,36.8,10.7,71.1,18.7,106.1
		c1,4.3,3,8.3,0.9,12.7c-17.4,5.3-33.8,14.9-53.3,10.1c-23.8-5.9-47.2-12.2-66-29.2c-10.4-7.3-19.4-17-32.9-22.3
		c1.1,7,6.7,7.6,8.8,11.2c2.1,4.7-1.2,6.9-4.6,7.9C281,955.2,270,958.8,258.7,953.3z"/>
	<path class="st4" d="M203.3,905.4c11.7,29.5,34.2,49,59.6,65.1c13.3,8.4,29.5,10.3,44.8,13.3c6.5,1.3,13.3,4.7,20.1,0.3
		c1.6-1,3,1.3,4.3,2.6c11.8,11.9,26.8,18.7,42,25c12.8,5.4,25.7,3,38.5-1c7.3-2.3,13.9-6.2,21.5-8c12.7-3,25.2-3.3,37.8,0.2
		c10.7,3,21.6,3,32.5,1.3c13.1-2,26-2.9,39.1,0.4c4.9,1.2,8.4,3.2,11.8,6.9c11.3,12.3,22.4,24.9,35.7,35.4
		c12.8,10.2,27,16.3,43,20.3c23,5.6,46.1,6.6,69.4,7.5c8.7,0.3,17.5-0.7,25.9-3.2c10-3,20.2-2,30.4-1.7c0.9,0,1.8,1.1,3,1.9
		c-4.8,4.1-10.8,4.5-16.1,6.3c-10.7,3.7-21.5,7-27.6,18c-1.9,3.5-4,6.7-4.3,11c-0.6,7.8-5.2,12.7-11.6,17.3
		c-18.4,13.4-37.5,13.2-56.5,3c-17.2-9.3-35.1-8.3-53.3-6.5c-10.8,1.1-21.6,3.2-32.4,4.9c-10.1,1.6-20.3,2.6-30.5,2.5
		c-26-0.2-51.7,3.3-77.5,5.3c-48.1,3.6-96.1,5.8-144.3,1.3c-17.1-1.6-34-4.4-50.1-10.9c-16.9-6.8-17.5-10.3-4.8-22.9
		c3.1-3,6.5-5.6,8-10.1c2.8-8.6,1.4-11.4-6.6-15.3c-31.6-15.5-66.1-20-100.1-26.1c-20.4-3.7-41-6.8-60.8-13.3
		c-12.2-4-24.1-8.6-33.5-17.8c-7.6-7.4-7.4-10.7,1.2-17.4c8.7-6.7,17.7-12.8,27.6-17.7c3.7-1.9,7.1-4,6.5-9
		c-0.7-5.1-4.8-6.4-8.7-6.9c-12.1-1.5-23.3-5.6-34.8-9.4c-5-1.6-8.3-3.4-8.2-9.6c0.1-5.8,1.4-8.9,7.5-11.3c14.4-5.7,27.1-5,40.3,3.8
		c13.1,8.7,27.2,8.2,41.4,1c13.7-7,25.4-17,38.5-24.8C181.8,911.2,192.3,907.7,203.3,905.4z"/>
	<path class="st5" d="M694.8,619.7c-0.1-2.6,0.8-5,1.8-7.3c6.9-16,13.7-32.1,20.7-48.1c3.4-7.7,5.5-15.8,7.9-23.7
		c7.3-23.5,18.4-45.1,31.5-65.7c19-29.8,29.7-63,40.8-96.1c1.8-5.5,3-11.2,4.7-16.8c5.6-18.3,7.6-36.9,6.6-56
		c-1.1-20.6,0.5-41.1-3.5-61.9c-3.4-17.6-6.2-35.7-5.7-54.1c0.3-11.1-2.3-22.4-1.7-33.7c0.2-2.9,0.1-5.9,0.9-8.6
		c3.6-12.5,10.2-17.3,23.2-16c11.4,1.2,21.6,4.8,28.7,15.3c7.9,11.7,17.3,22.4,25.5,33.9c9.5,13.4,13.6,29.7,22,43.8
		c9.9,16.7,12.7,35.4,15.7,53.9c1.4,8.6,3.7,16.9,4.8,25.6c3.6,30.4,4.9,60.9,3.8,91.4c-0.4,10.4-1.9,20.9-5,31.1
		c-1.2,3.8-2.5,7.7,0.7,11.3c-4,15.8-12.9,29.2-20.9,43c-8.9,15.4-18.3,30.6-27.7,45.7c-5.3,8.5-12.5,15.1-21.8,19.2
		c-21.7,9.4-43.4,18.8-65.1,28.1c-24.4,10.4-49.4,19.7-71.8,34.4C705.4,612.1,700.8,616.9,694.8,619.7z"/>
	<path class="st5" d="M1078.2,1034.6c10.5,2.4,17.4,10,24.3,17.3c2.8,3,2.5,5.9-2.1,7.2c-1.1,0.3-2.1,0.7-3.2,0.8
		c-23.6,2.2-47.2,4.8-70.9,1.7c-11.3-1.5-20.8-8.6-30.7-13.8c-10.8-5.7-22.1-9.5-33.7-12.5c-2.8-0.7-5.9-1.1-8.7-0.7
		c-23.6,3.5-48.1,3-70.1,14.6c-5.4,2.9-11.4,2.9-17.1,1.2c-9.9-2.8-20-3.9-30-5.6c-7.2-1.2-13.8-3.8-20.1-8
		c-12.1-8.1-24.5-15.8-37.3-22.8c-7.1-3.9-15.6-4.7-23.4-4.1c-26.6,2.2-49-8.8-71.2-21.1c-12-6.7-18.9-16.8-23.2-30.2
		c-8.7-27.1-11.8-54.9-11.4-82.9c0.3-21.4,2.9-42.8,6.6-64c0.9-5,1.2-10.1,1.4-15.2c0.1-4.6,2-6.1,6.6-6.4
		c34.7-2.1,58.1-21.1,73.8-50.7c6.3-11.9,15.9-21.7,20.7-34.7c2,3.9-0.2,7.4-0.2,11c0,3.6-0.3,7.3-0.7,10.9
		c-3.5,25.5-2.5,50.8,1.3,76.1c3.9,25.8,15.5,47.1,33.7,65.8c8.5,8.7,16.5,17.2,27.5,22.7c2.6,7.8,7.6,12.8,15.8,14.9
		c5.9,1.5,10.2,6.8,16.4,7.8c4.4,2.9,9.6,4.6,13.6,8.2c14.1,11.2,28.7,21.5,48.2,19.3c5.1-0.6,10,1.1,15.1,0.6
		c5.5,1.9,10.6,4.8,15.8,7.3c9.1,4.4,18.3,8.8,29.2,6.3c4.5-1.1,9.4-0.2,14.2-0.2c-1.1,6.5-7,3-11.1,5.9c10.6,0.4,20.1-1.1,28.6-5.6
		c11-5.9,22.7-9.2,34.9-11c19.4-0.5,38.6,0.1,56.5,9.1c6,3,10.9,7.4,15.2,12.3c5.3,6,3.3,11.7-4.7,13.5c-15.4,3.5-30.3,3.4-43.8-6.8
		c-11.5-8.6-24.8-7.5-37.8-5.6c-10.1,1.5-19.6,5.6-28.6,10.6c-5,2.7-9.9,4.1-15.7,2.5c-11.2-3.1-22.7-3.1-33.3,1.4
		c-18.8,7.9-37.5,7.4-56.7,2.5c-12.3-3.2-25.1-3.6-37.1-8.6c-12.8-5.4-21.2-13.6-26.9-26.7c-10.8-25.1-26.3-46.9-50.4-61.5
		c-9.6-5.8-20.3-8.4-31-9.8c-19.9-2.7-34-13.7-46.2-28.4c-1.9-2.3-3.1-7.1-7.2-4.7c-4.4,2.6-1.7,6.8,0,9.6
		c10.5,17.3,25.1,29.6,45.4,32.9c18.4,3,35,9.1,49.7,20.9c5.5,4.4,10.6,8.9,13.8,15.2c6,11.7,12.8,22.8,18.1,34.9
		c6,13.8,17.7,21.9,30.9,27.9c14.8,6.7,30.3,10.1,46.5,11c5.1,0.3,10.1,1.5,15.2,1.8c13.2,0.6,26-0.8,38.4-6.2
		c18.7-8.1,32.8-4,45.2,12c2.1,2.7,4.5,4.6,7,6.8c6.8,6,14.4,11.4,18,20.2c1.3,3.2,4.8,4.4,6.7,7.1
		C1042.3,1052.1,1063.2,1050.5,1078.2,1034.6z"/>
	<path class="st4" d="M438.4,975.2c0.1-1.8,0.8-3.9,0.1-5.4c-7.5-15.9-7.2-33.9-13.8-50.3c-3.9-9.5-3.8-20.6-5.6-30.9
		c-2.9-15.7-0.5-31.6-2.1-47.4c-1.3-13.5,0.6-26.8,3.9-40c2.5-9.9,3-20.1,2.4-30.4c-0.7-13.6,1.4-26.8,4.5-40
		c5.1-21.5,7.1-43.7,13.2-65c2.8-9.8,5.7-19.5,9.1-29.1c1.9-5.2,3.2-10.7,3.4-15.9c0.4-10.6,3.5-20.9,2.7-31.5
		c-0.8-11.1,3.7-21.4,5.1-32.2c2-15.1,3.2-30.3,5.9-45.3c3.2-17.9,7-35.6,15.3-52c1.9-3.8,3.9-7,8.8-6.5c13.1,2.5,26.2,2.6,39.5,2.4
		c-7.1,19.5-5.8,39.8-7,60c-1.1,18.4-2.9,36.8-7.6,54.9c-2.9,11.2-5.4,22.6-8.8,33.7c-2.8,8.9-4.4,18.5-4.8,27.8
		c-0.5,14.1-4.8,27.1-9.8,40c-4.5,11.6-6.7,23.7-9.7,35.7c-4,15.8-6.7,31.9-10.3,47.8c-0.8,3.6-1.1,7.2-1.1,10.8
		c0,6.2,0.3,12.4-0.1,18.6c-2,31.5,1.6,62.4,9.7,92.8c1.6,5.8,1.3,11.6,1.3,17.4c-0.1,23.3,6.1,45.2,14.3,66.7
		c0.6,1.7,1.5,3.3,3.3,4.2c10.3,4.4,16.8,16,13.3,23.8c-15.2,0.9-30.3,1.8-45.5-1c-7.4-1.4-15.2-0.7-22.8,0.5
		c-4.3,0.7-8.6,1.4-13,0.8C431.5,984.1,435.6,979.9,438.4,975.2z"/>
	<path class="st3" d="M773.4,1058.7c-10.3-4.8-21.5-4.3-32.3-3.9c-10.1,0.4-20.3,1.2-30.4,2.8c-14.5,2.3-29.1,0.6-43.5-1.9
		c-12.6-2.2-25.1-4.5-37.5-7.4c-24.4-5.6-44.1-18.7-58.9-38.8c-7-9.4-14.7-18.2-22.8-26.5c-5.8-6-9.5-12.9-12.3-20.4
		c-9.2-24.6-10.8-50-10-76.2c1.3-42.5,17.7-79.1,39.5-114c4.4-7.1,7.3-15.2,14-20.7c7.5-5.8,15.6-10.5,24.7-13.7
		c17.3-6,33.4-14.1,46.6-27.5c6.1-6.2,13.1-11.6,21.7-14.3c4.2-1.3,8.7-3.2,12.1,0.9c3.4,4.1,1.2,8.3-1.3,12.1
		c-5.3,8.3-10.7,16.5-17.2,24c-16.8,19.4-30.8,40.3-38.6,65.3c-6.9,22.2-18.1,43-23.4,65.8c-6.7,28.8-6.1,57.8-2,86.8
		c1.1,7.4,4.9,13.5,10,19c16.1,17.3,32.7,33.8,57.8,36.3c10.2,1,20.2,2.6,29.9,5.6c14.9,5,29.6,11.1,45.7,11.4
		c26.6,7.2,46.8,24.1,62.1,45.6c11.3,15.8,25.8,22.7,43.4,26c4.7,0.9,9.4,1.6,13.6,3.8c3.2,1.6,6.9,3,5.9,7.9
		c-10.9,3.5-21.7,4.1-32.8,0.5c-8.9-2.9-17.9-5.8-26.4-9.8c-7.2-5.4-9.2-14.6-15.2-20.7C789.2,1069.6,782.7,1062.4,773.4,1058.7z"/>
	<path class="st6" d="M586.3,280.3c13.3,5.6,24.3,13.9,33.2,25.5c5.2,6.7,5.3,14,2.2,20.5c-5.2,10.7-9.1,22-15.1,32.4
		c-12.4,21.7-29.2,38.6-50,51.7c-8.6,5.4-18.2,8.9-28.5,9.8c-7.5-5.2-13-12.5-19-19.3c-17.3-19.8-36.2-37.6-60.2-49
		c-6.1-2.9-9.7-7.3-9.2-14.5c0.4-5.8-0.3-11.6,0.4-17.4c2.8-18.9,8.5-36.9,16.3-54.3c2.7-2.9,6.3-3.6,10-3.6
		c14.6-0.2,29.3-1.7,43.6,0.3C536,266,561.9,270.3,586.3,280.3z"/>
	<path class="st5" d="M699.7,1012c-21.3-1.4-43-1.6-61.7-14.1c-13.5-8.9-24.5-20.7-34.3-33.4c-6-7.8-6.8-18.4-7.1-28.2
		c-0.5-16-0.4-32.1,0.1-48.1c0.2-7.5,1.9-15,3.6-22.5c5.4-23.5,16.1-45.1,24.3-67.6c4.4-11.9,8.4-23.9,15-34.9
		c6.6-11,14.7-20.8,22.9-30.4c7.4-8.6,13-18.4,19.9-27.2c1.7-2.2,2.3-4.9,0.7-7.1c-1.7-2.4-4.5-1.8-7-1c-8.8,2.9-16.8,7.7-22.8,14.3
		c-13.6,14.8-31.2,22.1-49.2,29.2c-8.4,3.3-16.6,7.1-24.9,10.6c6.9-8,14.3-14.6,25.3-17.3c16-4,29.4-12.6,37.5-27.8
		c1.2-2.3,2.8-4.1,5.4-5.1c16.3-6.3,29-18.2,42.3-28.7c22-17.5,44.8-33.6,69.8-46.5c11.6-6,22.9-12.9,34.3-19.2
		c1.4-0.8,2.9-2.4,5.7-0.5c-6.9,9.2-12.2,19.3-18.7,28.8c-8.2,12.1-18.3,22.6-26.5,34.6c-12.3,18.1-24.7,36.1-38.2,53.3
		c-7,8.9-14.7,17.2-24.4,23.3c-6.4,4-10.6,11-19.2,14.3c0.7-10.9,10.9-15.9,13.4-27c-7,5.2-11.4,10.2-15,15.6
		c-19.3,29.1-30.7,61.1-32.8,96c-0.8,13.5-3.5,26.8-2.7,40.4c0.9,15.6-0.5,31.7,2.7,46.9c5.4,25.5,14.1,50,38.5,64.8
		C684.5,1002.1,691.5,1007.9,699.7,1012z"/>
	<path class="st4" d="M270.1,334.8c-1.7,2.8-3.1,5.9-5.3,8.2c-15.3,15.4-19.2,35.5-23,55.4c-1.5,8.2-2.5,16.5-4.8,24.5
		c-4.6,16.2-5.2,32.9-6.5,49.5c-0.2,2.5,0.2,5.2-0.6,7.6c-7.4,23.9-3.6,47.5,1.4,71.1c0.8,3.6,1.3,7.1,1.4,10.8
		c0.1,7.3-0.6,14.6,1.8,21.7c0.5,1.3,0.4,2.9,0.2,4.3c-2.1,16.3,0.3,32.4,2.2,48.6c1,8.8-1.8,17.3-2.9,25.9
		c-0.6,5.1-1.1,10.1-1.3,15.2c-0.1,4.4-0.2,8.6-1.2,13c-3.8,16.6-5.5,33-1.8,50.4c2.7,12.6,3,25.9,5.3,38.8c1.9,11,2.8,22,7.9,32.6
		c6,12.3,3.2,25.5-0.5,38.4c-4.6,16-8.2,32.2-12.5,48.3c-2.6,9.7-2.3,18.6,4.3,26.8c1.8,2.2,3,5,2.9,8.1
		c-21.4-14.4-28.1-38.2-22.3-62.6c1.4-5.8,4.7-10.7,7.9-15.5c10.7-15.9,10.6-31.8-0.9-46.7c-10.7-13.8-14.6-29-13.9-46
		c0.4-8.9-1.7-17.4-6.1-25.2c-3.7-2-5-5.4-4.9-9.1c0.5-18.3-5.3-36.7-2.1-54.5c8.2-45.7,3.9-92.3,11.4-137.9
		c4.2-29.8,1.8-59.7,1.8-89.5c0-12.4,3.9-23.7,7.9-35c5.1-14.4,9.6-29,13.6-43.8c1.2-4.5,3.3-8.9,4.9-13.3
		c4.1-8.2,8.3-16.5,14.1-23.7c2.5-3.1,4.8-7.7,10.3-4.8C262.6,329.2,266.4,332,270.1,334.8z"/>
	<path class="st3" d="M206.2,536.5c1.1,20-0.8,39.9-1.7,59.8c-1,23.5-2.7,46.9-6.2,70.3c-1.4,8.9-1.5,18.4-0.1,27.2
		c1.9,11.6,1.6,23.2,1.7,34.8c0,3.3,0.5,6.5,1.9,9.5c-5.2,1.1-4.2,5.6-4,8.8c0.9,13.7-0.6,27.6,2.2,41.2c2,9.5,6.5,17.6,12.4,25.1
		c5.9,7.4,9.4,15.5,7.7,25.2c-0.7,4-1.8,7.6-3.9,11.2c-3.6,5.9-6.6,12.1-9.9,18.1c-2.3,5.1-5.8,9.2-10.7,11.8
		c-14,7.2-25.4,17.4-35.3,29.5c-11.3,9.9-24.2,17.7-37.6,23.9c-7,3.2-16.3,3.3-23.1-2C83,918,65.4,918.1,46.8,925.1
		c-8.4,3.2-17.2,2.9-25.9,1.9c-3.4-0.4-6.7-2-7.3-5.6c-0.7-4,2.8-5.5,6-6.7c11.1-4.4,22.4-8.4,33.4-13.2c12.2-5.3,24.3-4,36.4-0.8
		c16.1,4.3,21.7,2.1,31.5-11.4c11.4-15.8,24.1-30.1,43.8-36.3c8.8-2.7,14.3-9.4,17.1-18.5c4.6-15.3,5.4-30.1-3.5-44.2
		c-6.3-10-9.3-21.3-11.9-32.6c-2.1-8.9-1.8-17.9-0.6-27.1c3.3-26.2,16-49,26.3-72.6c3.2-7.2,5.2-14.1,5.3-22c0.4-25.5,0-51,2.7-76.5
		C200.9,551.4,203.5,543.9,206.2,536.5z"/>
	<path class="st6" d="M269.9,305.6c-11.1-8.3-12.9-20.5-13.7-33.1c-1.3-22.6,4-44.1,10.5-65.4c2.4-7.6,5.3-15.1,8-22.7
		c1.9-5.4,4.8-9.8,10.4-11.9c9.1-2,17.7,0.6,24.8,5.4c16.6,11.3,35,19.1,52.6,28.6c6.6,3.6,13.9,6.8,16.6,14.9
		c-10.7,23.1-19.3,47.4-35,68c-3.1,4-6.1,8.1-10,11.4c-1.4,0.4,0.3,0.2-1.1,0.2C311.9,300.6,291.1,305.7,269.9,305.6z"/>
	<path class="st5" d="M690.4,310.9c0.6,3.7,2,7.1,4.4,9.8c7.4,8.3-2.4,25.5-11.7,25c-10.5-0.6-13.6,6.4-17.5,13.4
		c-12.6,22.9-25.6,45.5-44.5,64c-13,12.8-27.2,23.6-44.9,29.8c-13.1,4.6-26.2,5.5-39.7,4.9c-1.5-0.1-2.7-0.9-3.6-2.2
		c9.2-2.4,17.8-6.1,26.5-10c16.6-7.5,30.3-18.6,42.5-31.9c14.8-16.2,28.3-33.3,40.3-51.6c5.2-8,9.8-16.1,12-25.6
		c1-4.5,3.3-6.6,8.6-5.6c14.3,2.6,20.7-1.5,25.3-15.4C688.6,313.9,688.8,312.1,690.4,310.9z"/>
	<path class="st7" d="M856.8,679.3c-12.4-1.2-23.9-6.1-35.8-9.3c-11.2-3-21.8-7.9-34-9.3c2.1-8.7,0-17.4,6.9-24.1
		c3.1-3,5.7-4.7,10.1-5c19.4-1.5,38.6,0,57.6,4.1c1,2.6,0.1,5-1,7.2c-5,10.1-6.4,20.4-3,31.3C858.2,675.9,858.1,677.8,856.8,679.3z"
		/>
	<path class="st8" d="M876.9,630.7c-14.9-1.2-29.3-5.4-44-7.5c-8.2-1.2-16.6-0.9-24.8-4c3.7-8.2,9.2-15,14.4-21.9
		c2.2-2.9,5-3.8,8.5-3.9c18.2-0.4,36.4-0.9,54.4,2.5C886.4,608.4,888.1,621.1,876.9,630.7z"/>
	<path class="st9" d="M870.4,1106.6c-4.3-7.3-12-7.9-19-8.6c-12.8-1.3-23.6-7-34.2-13.2c-2.7-1.6-5.4-4.1-7-6.8
		c-13.6-23.2-33.8-38.6-57.5-50c-2.6-1.3-5.4-2.2-7.4-4.5c24.3-3.9,43.1,7.3,59.6,23c7.3,6.9,14.4,14.4,19.6,23.3
		c4,6.9,10,10.5,17.7,11c8.8,0.5,17.1,3.3,25.2,6.4C878,1091,878.9,1098.3,870.4,1106.6z"/>
	<path class="st10" d="M440.2,320c1.6,5.4,0.7,10.9,0.5,16.3c-0.3,5.8,1.9,9.7,7.3,12.1c26.5,11.9,47,31.2,65.3,53.3
		c5.1,6.1,12.3,10.5,14.9,18.5c-10,3.4-20.2,3.9-30.6,2.3c-1.7-1.6-4.5,0.1-6-1.9l-0.1-0.1c-4.2-23.3-20.4-37.5-38.2-50.5
		c-4.4-3.2-9.8-5.1-12.1-10.5C439.9,346.4,437,333.2,440.2,320z"/>
	<path class="st5" d="M586.3,280.3c-18.1-3.2-36.4-6.3-54.1-11.1c-25-6.8-50.3-4.5-75.7-3.6c3.2-8.1,6.4-16.1,12.6-22.6
		c2.6-2.7,4.7-3.5,8.5-2.8c12.2,2.1,23.9,5.9,35.5,10.1c19.1,7,39.1,11.5,57.3,20.8C575.8,273.9,581.9,275.7,586.3,280.3z"/>
	<path class="st11" d="M432.4,256.4c-7.9,1.2-14.6-3.6-22.1-4.9c-4.7-0.8-6.7-0.5-9.1,4.2c-8.6,16.7-16.8,33.7-27.5,49.2
		c-11.6,16.8-26.3,28.6-46.4,33.5c-6.8,1.7-13.6,1.4-20.5,0.8c22.5-7.3,40.3-20.8,54-40.1c3.6-5,8-9.3,12-14.1
		c9.5-11.4,13.4-25.6,19-38.9c3.3-7.6,3.1-7.4,11.1-3.9c8,3.5,16.8,4.4,25.3,6.1C434.7,249.6,434.8,249.2,432.4,256.4z"/>
	<path class="st12" d="M438.4,975.2c0.7,6.2-3,10.5-6.2,15.1c-9.4,2.5-18.8,5.4-27.7,9.4c-1.6,0.7-3.6,1.2-5.3,0.9
		c-19.4-3-39.1-5-54-20.7c-8-8.4-17.4-15.4-24.6-24.7c16,9.3,32.8,16.6,50.4,22.4c9,3,18.4,4,27.6,5.7c6.7,1.3,13-2,18.7-4.7
		C424.2,975.3,431,974.4,438.4,975.2z"/>
	<path class="st13" d="M906.4,639.7c2.2,6.2,0.7,12.3,0.2,17.4c-1.2,12.3-1.4,24.7-3.5,36.9c-2.1,12.3-9.4,20.7-18.1,28.5
		c-3.3-1.3-2.9-4.1-3.2-6.5c-0.8-5.8-1.1-11.6-2.4-17.3c-1.8-7.7-1.8-15,2-22.1c2.1-3.9,1-7.7,0.4-11.7
		c-1.6-10.3,0.4-13.3,10.4-16.6C897.4,646.5,901.5,642.8,906.4,639.7z"/>
	<path class="st7" d="M903.2,586.8c-9.9,2.4-19.4-1.2-29.2-1.8c-10.1-0.6-20.3-1.6-30.4-2.4c-0.6-3.8,2.7-3.9,4.6-5.1
		c3.9-2.6,8.3-4.6,12.2-7.2c9.5-6.3,11.8-10.1,15.1-25c15,2.4,29.9-3.5,45.2-1.4c0.2,0,0.5,0.5,0.5,0.7c0,0.3-0.3,0.7-0.4,1
		c-0.5,0.5-1.1,1.1-1.8,1.3c-18.1,6-21.9,13.5-16.5,32.5C903.1,581.8,904.2,584.2,903.2,586.8z"/>
	<path class="st13" d="M932.8,588.9c3.8,7.5,4.3,14.9,3.5,22.7c-1.1,10.4,1.8,20.9,0.1,31.4c-1.8,11-7.4,19.1-17.4,26.8
		c1.1-19.8-5.5-36.9-6.6-54.9c-0.1-2.5-0.6-5.1-0.7-7.6c0-10.4,0-10.9,9.9-13.4C925.6,592.9,928,589.1,932.8,588.9z"/>
	<path class="st13" d="M817.9,711.4c-11.5-6.3-23.8-11-36.4-14.4c-6-1.6-7.5-4.9-6.3-10.4c0.7-2.8,0.8-5.8,1.6-8.6
		c1.6-5.1,4.8-7.9,10.6-6.9c16.2,2.5,32.6,3.9,47.9,10.5C828.4,690.9,823.6,701.4,817.9,711.4z"/>
	<path class="st13" d="M931.7,532.7c-18.2,4.9-36.8,4.1-55.2,4.3c-1.2-4.5,1.3-6.5,3-8.7c6.3-8,12.5-16.1,17.3-25
		c3.6-6.6,8.3-9.3,15.6-9.2c5,0,10-1.6,14.8,1.1c1.1,2.3,0.1,4.3-1,6C919,513.3,921.6,523.6,931.7,532.7z"/>
	<path class="st14" d="M706.4,633.4c-3.3,4-7.6,7-12,9.3c-15.6,8.1-28.4,20.1-42.4,30.4c-7,5.1-13.1,11.2-22.5,12.3
		c-5.4,0.7-9,5.9-13.3,9.2c-3.7,2.8-7.2,6.6-12.7,3.3c-0.8-3.9,2.4-5.6,4.6-7.7c18.2-17.6,39.1-31.4,61.1-43.6
		c11.1-6.2,22.1-12.6,32.5-19.9C709,625,707.7,629.2,706.4,633.4z"/>
	<path class="st15" d="M441,359.5c3.4,2,6.7,4.2,10.2,6.1c16.1,8.5,26.7,22.9,37.7,36.5c4.1,5,4.7,11.9,2.4,18.5
		c-16.6-1.3-27.7-10.8-36.3-24.1C447.7,385.2,441.8,373.3,441,359.5z"/>
	<path class="st16" d="M954.7,530.6c2.7,14,5.6,27.1,7.5,40.4c1.2,8.9,1.8,18.1,1,27.1c-0.9,8.7-6.2,15.9-13,24.2
		c-0.6-8.1-0.7-14.4-1.6-20.7c-1.6-10.7-2.1-21.7-6-32c-0.9-2.3-0.7-5-1.1-7.5C939.6,549.3,941.9,538.4,954.7,530.6z"/>
	<path class="st17" d="M663.4,776.8c19.2-7.4,33.3-21.8,48.8-34.4c11.3-9.2,18.3-21.6,25.7-33.7c2.8-4.7,5.5-9.4,9.1-13.6
		c5.9-6.9,11.1-14.4,15.4-22.5c3.2-6,7.7-11,13.5-15.2c2.2,3.7-0.1,5.4-1.6,7.4C761.6,682.1,750,700,740,719.2
		c-9.4,18-21.9,34.5-37.8,47.7C691.4,775.9,676.1,780,663.4,776.8z"/>
	<path class="st18" d="M798,73c-1.3,1.7-2.9,3.3-3.9,5.3c-2.3,4.8-6.3,5.9-11,4.8c-26.2-6.2-53-8.4-79.4-13
		c-6.6-1.1-7.4-2.9-3.4-8.4c1.9-2.7,4.7-5.2,4.8-8.4c0.3-7.6,5.1-7.4,10.5-7.3c8,0.2,15.8,2.4,23.6,3.6c2.2,0.3,4.3,0.8,6.5,0.3
		c6.5,1.2,12.6,3.6,18.3,6.9c-5,4.8-10.9,2.8-16.5,2.1c-6.8-0.8-13.5-2.9-20.5-2.7c-3.1,0.1-6.1,1.7-6.4,4.9
		c-0.5,4.6,3.6,3.6,6.2,3.9c14.1,1.3,28.2,3.2,41.9,6.4c7.7,1.8,13.2-2.7,19.8-3.9C792.4,68.3,795.3,70.5,798,73z"/>
	<path class="st19" d="M706.4,633.4c-0.1-3.2,0.9-7.3-4.7-6.7c16.2-14.5,35.4-24.1,55-32.7c28.3-12.4,57.5-22.7,85.6-35.6
		c4.2-1.9,8.4-4.4,14.3-4.1c-6.6,7.9-14.8,12.6-23.5,15.2c-21.3,6.4-41.8,15-62,24.1c-20.3,9.1-39.4,20.3-56.9,34.3
		C711.7,629.8,709.8,632.7,706.4,633.4z"/>
	<path class="st20" d="M788.6,67.5c-1.8,1.8-3.6,3.5-5.3,5.4c-2.4,2.7-4.9,3.1-8.7,2.4c-18.1-3.3-36.2-7.1-54.8-7.6
		c-5.1-0.1-5.7-1.7-3.7-6.2c4.2-9.1,6.6-10.3,16.8-8.3c10.3,2.1,20.5,4.5,31.2,3.5C772.9,59.2,781,62.7,788.6,67.5z"/>
	<path class="st21" d="M379.2,221.5c-12.3-10.5-26.6-17.9-41.2-24.4c-9.4-4.1-18.4-8.8-26.5-15.2c-7.7-6.1-16.6-8.9-26.3-9.3
		c2.2-2.8,5.4-2.1,8.1-1.6c12.7,2.6,25.8,4.1,37.5,10.6c7.7,4.2,16.7,4.7,24.6,8.5c5.3,2.5,10.2,5.4,14.9,8.8
		C378.2,204.6,381.7,211.8,379.2,221.5z"/>
	<path class="st22" d="M162.3,820c-14.8-0.1-26-8.3-29.4-19.9c-2.2-7.5,1.5-12.1,9.3-11.6c2.6,0.2,5.1,0.5,7.1,2.3
		c4.1,3.5,9,4.3,14.2,4.5c8.2,0.3,15.5,14.8,10.9,21.5c-1.1,1.6-2.9,2.2-4.7,2.4C166.5,819.6,163.3,819.9,162.3,820z"/>
	<path class="st23" d="M597.2,727.2c-8.4-0.3-13.7-4.8-15-12c-1-5.4,3.2-15.1,7.5-17c2.8-1.2,3.5,0.7,4.2,3.2c2,7.6,4.6,9.2,12.1,8
		c6.5-1,11.1-5.2,16-8.9c1.5-1.1,2.7-2.5,4.2-3.5c2.3-1.4,3.8-5.7,7-3.5c3.9,2.6,3.8,7.1,1.8,10.9c-2.4,4.5-5.9,8.5-10,11.5
		C616.4,722.1,606,724.4,597.2,727.2z"/>
	<path class="st24" d="M771.4,610.9c-15.5,9.5-32.7,16.2-47.4,27c-16.1,11.8-33.4,21.9-48.2,35.7c-8.2,7.6-18,13.6-27.1,20.3
		c-1.5,1.1-3.3,2.1-4.9,0.4c-1.7-1.8-0.1-3.4,1-4.7c1.2-1.4,2.5-2.7,4-3.7c19.1-12.7,35.9-28.5,54.5-42c19.9-14.6,41.6-25.2,64-34.8
		C769.6,607.7,771.4,607.2,771.4,610.9z"/>
	<path class="st25" d="M969.4,489.9c2.5,26.1,8,51.7,3.1,78.2c-3.5-1-3.4-3.9-4.1-6.1c-4.1-14.6-8.4-29.2-11.9-44
		c-2.2-9.2-3.7-18.9,7.7-24.2C965.8,493,966.3,490.7,969.4,489.9z"/>
	<path class="st26" d="M258.7,953.3c9.4-0.1,18.8-0.4,28-2.8c3.8-1,9.2-0.5,9.9-6.6c9.4,7.8,18.9,15.6,23.6,28.8
		C296.4,974.6,276,969.1,258.7,953.3z"/>
	<path class="st25" d="M871.6,697.5c1.6,11.9,4.7,23.3-1,34.5c-0.8,1.6-1.4,3.3-2.4,4.9c-2.1,3.4-4.2,7.3-9.2,6.2
		c-4.8-1.1-4.1-5.5-4.1-8.9c0-6.4-2.3-12-4.6-17.8c-3.8-9.4-2.5-11.7,7.3-15.1c2.4-0.8,4.8-1.5,7.3-2.2
		C867,698.6,869.1,698.1,871.6,697.5z"/>
	<path class="st13" d="M944.9,486.7c-2.2,2.6-5.4,1.9-8.1,1.8c-8.9-0.6-17.9-1.5-28.1-2.3c3.1-9.6,6.5-18.3,11.2-26.2
		c4-6.7,11.3-6.9,18.3-6.4C943.2,464,940.9,476,944.9,486.7z"/>
	<path class="st27" d="M553,43.7c-4.2,8.1-8.4,16.2-12.7,24.2c-0.9,1.6-2.8,2.1-4.6,2.7c-4.2,1.4-8.5,1.9-12.9,1.7
		c-22.8-0.9-44.6,3.4-65.8,11.7c-3.1,1.2-4.8,0.9-5.7-2.3c9.1-4.8,18.3-9.3,28.4-11.5c2-1.7,5.4,0.3,7-2.5l-0.3,0.2
		c10.5-2.6,20.9-5.6,32-5c5.1,0.3,9.3-1.4,11.8-6c2.1-4,6-6,9.1-9C543.7,45.5,548.1,43.9,553,43.7z"/>
	<path class="st28" d="M402.5,216.2c0.9-3.1,1.6-5.8,2.4-8.6c2.9-9.8,13.9-16.2,23.6-13.2c6.9,2.1,14.1,3.4,20.4,7.2
		c5,3,5.2,7.3,0,9.7c-3.3,1.5-6.8,4.9-11,1.6c-4.1-3.2-8.1,3.5-12.1,0.1c-5.1-4.3-6.5,1.7-9.5,3.3c-1.3,0.7-2.8,1.7-3.8,0.3
		C409.3,212.3,406.5,217.7,402.5,216.2z"/>
	<path class="st29" d="M903.2,586.8c-6.4-8.8-7.1-18.3-4.4-28.6c2.7-10.3,5.5-12.6,16.5-12.5c1.8,0,3.6,0,5.4-0.1
		c-0.4,6.1-3.8,11.5-3.7,17.7c0,2.5-0.3,4.9,0.1,7.4C919.6,583.7,916.8,586.9,903.2,586.8z"/>
	<path class="st25" d="M822,743c0.2,12.4,1.2,22.9-2.2,33.2c-0.8,2.4-1.6,4.8-2.8,7.1c-2.6,5.1-7.8,4.8-12.4,4.9
		c-4.3,0.1-2.7-4.4-4-6.7c-0.7-1.2-0.8-2.8-1-4.2c-0.8-4.6-5.5-9.2-3.4-13.2c1.7-3.2,7-4.7,11-6.3C813.8,755.2,815.2,747.8,822,743z
		"/>
	<path class="st25" d="M792.1,783.9c-0.3,2.8-0.4,6.8-1.3,10.7c-1.3,5.5-4.4,10-10,12c-5.4,1.9-8.2,0.4-9.1-5.3
		c-1.1-6.4-3-12.8-1.9-19.5c0.8-5.2,2.2-10.8,8-11.8C790.7,768,791.7,768.3,792.1,783.9z"/>
	<path class="st30" d="M974.9,443c5.5,29.8,12,58,9,89.3c-3-5.6-5.3-9.4-5.7-14.2c-1.4-15.2-4.3-30-9-44.6
		C965.9,463.3,965.8,453,974.9,443z"/>
	<path class="st31" d="M513.4,989.9c0.8-1.5,2-3,0.6-4.9c-4.8-6.2-7.8-13.7-13.9-19c0.4-4.6,4.5-5,7.4-6.9c3.9-2.5,8.9-2.9,12.4-6.2
		c3.9,12.2,8.1,24.2,16.8,35.9C527.6,990.2,520.5,990,513.4,989.9z"/>
	<path class="st32" d="M791.1,732c-23.3-4.7-20.1-5.9-16-28.3c12.5,1.2,23.8,5.9,34.4,12.2C803,720.9,797.2,726.7,791.1,732z"/>
	<path class="st33" d="M856.8,679.3c-6.8-15.5-4.5-29.9,4.8-43.6c5,1.3,10.5,1.2,15.9,4.7c-11.5,7.1-14.1,17-10.6,29
		c0.2,0.7,0.2,1.4,0.3,2.2C868.4,681.8,867.2,682.8,856.8,679.3z"/>
	<path class="st25" d="M841.1,723.3c3.1,11.1,3.7,21.2,3.3,31.5c-0.2,6.3-2.9,11.2-7.9,14.9c-1.2,0.9-2.4,1.7-3.9,1.1
		c-1.8-0.6-1.8-2.2-1.7-3.6c0.7-11.3,0.7-22.6-4-33.3c-1.1-2.5,0.5-4,2.7-5.1C833.1,727.2,836.7,725.4,841.1,723.3z"/>
	<path class="st34" d="M866.3,886.3c-3,2.2-6.3,0.9-9.3,0.2c-6.1-1.4-12.2-2.1-18.4-1.9c-10.3,0.4-17.8-5.5-25.4-11.2
		c-1.2-0.9-2.1-2.1-1.8-3.7c0.3-1.8,1.8-2.3,3.3-2.1c18.2,2,36.3,4.4,51.1,16.6C866.2,884.5,866.1,885.5,866.3,886.3z"/>
	<path class="st12" d="M160.3,908.8c4.3-11.4,13-19,23.1-24.9c8.2-4.8,15.9-10.1,22.9-16.3c-0.6,3.6-2,7.2-1.6,10.7
		c1.1,9.3-4.4,13.3-11.9,15.4C181.1,896.8,171.2,903.9,160.3,908.8z"/>
	<path class="st35" d="M269.9,305.6c7.1-1.6,14.2-2.9,21.1-4.9c14.5-4.2,28.8-1.4,43.1,0.2c-2.8,4.2-7.1,6.5-11.4,8.8
		c-11.6,2.2-23.4,3.2-35.2,4C280.9,312.9,275.2,309.7,269.9,305.6z"/>
	<path class="st36" d="M989.8,482.3c-5-7.8-5.8-16.5-7.4-24.9c-1.2-6.4-1.5-13-3.1-19.3c-1.3-4.8-1.5-10.1-5.1-14.2
		c-8-9-8.9-18.6-1.2-29.1c0.6,0.9,1.6,1.7,1.6,2.6c1,16.5,8.6,31.4,11.8,47.3C988.8,457.1,991.6,469.5,989.8,482.3z"/>
	<path class="st37" d="M929.4,942.1c-16.1,4.3-31.9,3.9-46.5-4.8c-4.9-2.9-9.3-6.7-14.3-9.6c-1.7-1-5.3-2.2-2.5-5.6
		c13.1,6.1,26.9,9.7,41.3,11.7C915.2,934.9,922.9,937,929.4,942.1z"/>
	<path class="st38" d="M439.2,87.5c4.1,13,2.8,17.6-7.5,26c-3.5,2.9-6,7.2-10.5,8.8c-5.7-6.3-4.1-13.7-4.8-20.7
		C423.5,96,430.9,91.1,439.2,87.5z"/>
	<path class="st39" d="M1040.9,944.7c-16,5.1-30.8,13.5-47.1,18c-5,1.4-10.1,0.4-14.9,2c-5.8,2-5.6-2.3-6.5-6
		c5-3.1,11.6,1.1,16.2-3.2c3.7-1.4,7.5-2.6,11.1-4.3C1012.8,944.9,1026.6,943.2,1040.9,944.7z"/>
	<path class="st40" d="M947,442.4c-6.3,3.4-13.6,0.9-21.2,4.6c2.5-11,6.9-19.9,7.6-29.6c0.2-3,2.6-4.4,5.1-5
		c3.5-0.9,6.8-2.9,10.5-2.7C947.6,420.5,946.6,431.4,947,442.4z"/>
	<path class="st41" d="M539.3,47.6c-0.1,0.4-0.1,0.8-0.3,1c-3.4,5.5-5.7,12.9-10.7,15.8c-5,2.9-12.7,1.1-19.2,1.5
		c-7.6,0.5-14.9,3.3-22.7,1.7C502.7,57.2,520.9,52.1,539.3,47.6z"/>
	<path class="st42" d="M1078.2,1034.6c0.6,5.7-2.3,9-7.5,10.3c-6.7,1.7-13.2,3.3-19.7,5.8c-9.3,3.6-20.7-3-22.9-12.3
		c10.9,3.7,21.7,3.3,32.7,0.2C1066.5,1037.1,1071.8,1033.3,1078.2,1034.6z"/>
	<path class="st43" d="M699.9,35.9c-2.6,6.3-8.5,9.8-12.7,14.8c-1.8,2.2-4.6,2.5-7.1,1.8c-7.1-1.9-14.4-1.7-21.6-2
		c-5.3-0.2-6.5-3.1-3.1-7.1c5.6-6.7,12.7-10.7,21.7-10.9c0.4-0.2,0.7-0.2,0.9,0.2c0.8,5.5-4.9,6.5-7.2,10.1
		c9.9,2.9,15.8-6.1,24.1-7.6C696.6,35.5,698.2,35.7,699.9,35.9z"/>
	<path class="st44" d="M876.9,630.7c4.7-8.7,6.2-18,6.3-27.7c0-2.4,1.5-4.8,2.2-7.1l0.1,0c3-0.8,6.4-2.7,7.1,2.7
		c-0.6,5.4-1.2,10.7,1.3,15.8c0.5,0.9,0.6,2.1,0.7,3.1C896.1,629.6,889.1,634.8,876.9,630.7z"/>
	<path class="st44" d="M931.7,532.7c-3-0.9-7.5,0.5-8.4-3.5c-1.3-5.9-5.6-11.1-4.1-17.7c1.4-6.2,4.4-11.4,8.1-16.4
		c2.8,0.2,7-1.9,5.9,4.2c-1.8,9.2-2.2,18.4,0.1,27.7C933.8,529,934.2,531.4,931.7,532.7z"/>
	<path class="st45" d="M646.9,29.3c-6,9.2-14.7,11.8-25.1,10.4c-10.9-1.5-22-0.9-32.6-4.7c0.3-0.2,0.5-0.6,0.8-0.7
		C609,32.6,627.9,31,646.9,29.3z"/>
	<path class="st46" d="M433.7,220.9c-2.3,5.1-3.9,10.5-4,16.4c0,2-2.7,2-4.5,1.6c-7.3-2-14.6-4.1-21.8-6.3c-1.8-0.5-3.2-2-2.1-4.1
		c0.8-1.5,2-3.6,4-2.1c3.3,2.5,6.1,1.6,8.7-0.7c2.5-2.2,4.7-4,8.6-2.5c3.3,1.3,4.8-2.4,6.9-4.1C431.5,217.5,432.7,218.7,433.7,220.9
		z"/>
	<path class="st47" d="M258.8,326.5c-4.6,0.3-6.4,3.8-8.8,7c-5.3,7.1-8.9,15.4-15.6,21.4c1.1-15.1,7.5-28.3,15.6-42.2
		C254.2,317.2,257.6,321.1,258.8,326.5z"/>
	<path class="st48" d="M778.2,738.7c2.4,0.7,6.3,1.6,10.1,2.8c5.9,1.9,6.7,5.5,2.6,10.3c-2.3,2.7-15.1,6.3-18.3,5
		c-0.9-0.3-1.9-1.3-2.1-2.2c-0.9-5.1,0.4-10.1,1.6-15C772.6,737.6,775,738.1,778.2,738.7z"/>
	<path class="st49" d="M773.4,1058.7c3-0.8,5.6-0.1,8.1,1.7c9.2,6.4,18,13.3,22.7,23.8c2,4.6,6.3,7.9,7.1,13.1
		c-9-3-16-8.4-19.8-17.2C787.6,1071,779.8,1065.5,773.4,1058.7z"/>
	<path class="st50" d="M938.3,398.4c-1.3-7.3,1.7-14.2,2.5-21.3c0.5-4.1,5.1-5.4,8.7-4.4c3.4,0.9,6.5,3.5,4.7,8.1
		c-0.6,1.7-1.4,3.4-1.6,5.2C950.7,397.3,950.8,397.3,938.3,398.4z"/>
	<path class="st51" d="M944.9,486.7c-6-6.4-7.9-14-7-22.6c0.4-3.5,0.2-7.1,0.3-10.6c7.5-1.4,7.3-1.3,8.3,5.1
		c0.8,4.9,1.5,10.1,3.5,14.5C953.1,479.9,951.2,483.9,944.9,486.7z"/>
	<path class="st52" d="M947,442.4c-5.3-11.3-4.6-22.2,2-32.8c1.7-1.4,3.6-2.3,6.3-1.7c1.8,3.5-1.4,6-2.6,8.4
		c-3,6.1-2.8,11.5,0.5,17.4C957.7,441.8,956.8,442.8,947,442.4z"/>
	<path class="st53" d="M852.6,913.9c-1.5,1.8-3,1.2-4.8,0.4c-6.3-2.8-12.1-6.5-19.1-7.9c-5.6-1.1-8.6-8-8.3-15.2
		c6.5,1.5,11.9,4.8,16.8,9.3C842.2,905.1,847.4,909.5,852.6,913.9z"/>
	<path class="st54" d="M960,471.2c4.1,11.7,3.5,14.4-5.3,21.4c-7.6,5.9-10.6,12.9-8.3,22.8c1.3,5.4,4.1,12.2-3.8,16.9
		c-0.3-8.7-0.4-16.9-1.8-25c-1.2-7.4,3.8-12.1,9.2-16c7-5,11-11.3,10.2-20.2L960,471.2z"/>
	<path class="st55" d="M817.9,711.4c1.9-12.2,6.5-22.9,17.4-29.8c3.7,0.9,7.4,1.8,13.1,3.2c-15.1,0.6-19.4,10.3-21.5,20.7
		C825.7,712,823.7,713.6,817.9,711.4z"/>
	<path class="st56" d="M694.9,35.2C681,46.7,681,46.7,666.1,45.5c0.9-7.2,9.3-7.3,11.9-12.8C683.8,32.5,689.4,33.3,694.9,35.2z"/>
	<path class="st57" d="M287.6,313.7c11.1-6.5,23.3-4.5,35.2-4C311.7,316.5,299.9,316.9,287.6,313.7z"/>
	<path class="st58" d="M931,578.7c-5.8-11.4-8-21.4-2-32C926.5,557,937.5,566.4,931,578.7z"/>
	<path class="st59" d="M900.8,629.3c0.2-9,0-15.8-2.2-22.4c-1.4-4.4,0.6-8.2,5.1-10.9C907.1,613.4,906.5,622.2,900.8,629.3z"/>
	<path class="st60" d="M980,392.2c-10.1-14.7-10.5-15.7-10.6-27.9c8.7,8.1,11.4,17.7,12.7,27.9C981.4,393.1,980.7,393.1,980,392.2z"
		/>
	<path class="st61" d="M791.1,732c2.8-9.2,9.7-13.7,18.4-16.1c1.7,0.3,3.5,0.3,5.1,2.3c-7.1,2.9-13.5,6.3-17.2,13.3
		C796,734.2,793.4,734.1,791.1,732z"/>
	<path class="st62" d="M837.1,707.6c-0.2-14.8,4.4-18.4,20.6-16.6c-3.1,4.9-9.6,1.4-12.5,5.6C842.7,700.2,842.2,705.4,837.1,707.6z"
		/>
	<path class="st63" d="M834.6,100.8c-5.2,0.3-10-1.2-14.4-3.6c-4.1-2.3-6.9-5.6-2.3-10.2C824,90.9,830.2,94.8,834.6,100.8z"/>
	<path class="st64" d="M811.8,728.3c-3.2,6.1-2.6,14-8.5,19.1C799.8,736.3,801.3,732.8,811.8,728.3z"/>
	<path class="st65" d="M961.2,419.5c2.8,6.3,8.2,10.7,5,17.6C955.6,428.4,955.6,428.4,961.2,419.5z"/>
	<path class="st66" d="M771.4,610.9c-0.8-1.8-2.6-1.5-4.1-1.8c10.8-5.3,21.6-10.5,32.4-15.8c0.3,0.4,0.6,0.7,0.9,1.1
		C791.5,601,781.4,605.9,771.4,610.9z"/>
	<path class="st67" d="M944.8,364.5c-0.5-7.9,4.8-13.5-0.1-19.5C953.8,350.2,953.9,354.6,944.8,364.5z"/>
	<path class="st68" d="M959.3,325.2c0,2.4-1.1,4-3.1,3.8c-3.1-0.4-5-2.5-5-5.8c-0.1-1.9,0.5-3.6,2.5-4
		C956.2,318.7,959.3,322.2,959.3,325.2z"/>
	<path class="st69" d="M956.9,357.7c2.6,4.6,4,8.5,4.3,13C953.2,366.8,953.1,366.6,956.9,357.7z"/>
	<path class="st70" d="M439.3,233.3c-1-3.8-1-7-0.1-10.1c0.5-1.9,2.5-2.5,4.4-2.1c2.5,0.5,2.3,2.5,1.8,4.2
		C444.3,228.2,443.4,231.3,439.3,233.3z"/>
	<path class="st54" d="M960.2,471c-6.3-6.9-5.8-14.2-1.7-21.9c-1.8,7.5,1.2,14.7,1.5,22.1C960,471.2,960.2,471,960.2,471z"/>
	<path class="st71" d="M980,392.2c0.7,0,1.4,0,2.1,0c2.8,4.9,4.1,10.2,4.6,17.2C980.5,404.1,982.7,397.2,980,392.2z"/>
	<path class="st72" d="M963.1,341.3c6.3,1.8,7.8,5.4,8.2,11C966,350.3,964.2,346.8,963.1,341.3z"/>
	<path class="st73" d="M875.6,674.5c-1-8.3-3-13.9,0.2-20.3C878.3,660.7,877,666.4,875.6,674.5z"/>
	<path class="st74" d="M961,393c-1.7-3.6-2.3-7.1,0.3-11.1C966,386.4,963.1,389.8,961,393z"/>
	<path class="st75" d="M572.2,742.5c-0.1-3.7,1.5-5.7,2.7-7.9c0.7-1.3,2-2.1,3.4-1c1.2,0.9,1.8,2.8,1.1,3.8
		C577.8,739.5,575.9,741.5,572.2,742.5z"/>
	<path class="st76" d="M953,341.1c-2.2-0.4-3.7-1.7-3.6-4.1c0-1.1,1-1.7,2.2-1.5c1.9,0.4,3,1.6,3.4,3.5
		C955.1,340.2,954.2,340.8,953,341.1z"/>
	<path class="st66" d="M799.7,593.3c2.1-2,4.5-3.2,7.6-3.4c-0.3,4.6-4.2,3.5-6.7,4.5C800.4,594,800.1,593.6,799.7,593.3z"/>
	<path class="st8" d="M892.6,598.5c-1.5-3.2-4.8-1.6-7.1-2.7c2-2.2,4.7-1.9,7-1.1C895,595.5,894.6,597.2,892.6,598.5z"/>
	<path class="st41" d="M486.8,67.5c-1.5,3.2-4.3,2.7-7,2.5C481.7,68.1,484.1,67.4,486.8,67.5z"/>
	<path class="st15" d="M491.5,420.6c2.3-0.1,4.4,0,6,1.9C495.1,423.2,493,422.9,491.5,420.6z"/>
	<path class="st77" d="M106,82c-12.1-2.1-22.5-3.6-32.7-5.8c-6.1-1.3-8.4-6.5-9-12.3c-0.4-4.1-0.2-8.3,4-10.5
		c4.9-2.5,9.8-2.2,14.4,1C92.4,61.1,100.9,68.7,106,82z"/>
	<path class="st78" d="M163.8,286.2c-11.2,5.1-22.4,10.2-33.6,15.1c-2.6,1.1-5.7,1.2-8.5,1.6c-3.1,0.4-6.1,0.1-6.7-3.7
		c-0.5-3.5-2-7.9,2.2-9.8c14.8-6.7,30.1-10.1,46-5.7C163.3,284.5,163.5,285.4,163.8,286.2z"/>
	<path class="st79" d="M206.9,157.8c-4.3-4.2-8.9-8.2-12.9-12.7c-2.7-3.1-5.5-5.7-8.9-7.9c-7.1-4.5-9.3-9.6-6.5-14
		c3.6-5.5,14.1-6.6,19.7-2c1.6,1.4,3.2,3.1,4,5c4.2,9.7,6.4,19.9,7,30.4C208.4,157.1,207.7,157.4,206.9,157.8z"/>
	<path class="st79" d="M133.6,196.1c-13.6,3.7-27.1,7.3-40.7,11.1c-5.2,1.4-10.1,1.3-14.1-2.9c-3.1-3.3-2.7-7.5-1.1-11.2
		c2.2-4.8,6.5-6.3,11.6-6.3C104.7,186.6,119.4,189,133.6,196.1z"/>
	<path class="st80" d="M675.6,543c-8.5,0.2-14.4-3.8-17-12.3c-1.7-5.5-3.1-11.1-3.5-17c-0.6-7.9-1.1-15.9-3.7-23.6
		c-0.8-2.4-1.2-5.2,1-7.1c2.2-1.9,5.2-1.7,7.1,0c12.9,11,26.9,21.4,34.1,37.4C698.3,530.7,688.2,542.6,675.6,543z"/>
	<path class="st81" d="M558.6,154.8c-9.3,1.7-18.3,1.5-27.2,2.6c-11.7,1.5-22.7,3.9-33.3,9c-7.6,3.6-8.9,3.2-12.5-4.5
		c-3.5-7.5-8.2-14.5-10.5-22.7c-2.3-8.5-1.2-11.5,7.2-13.7c9.8-2.5,19.5-5.5,29.9-5c10.2,0.4,20.4,0.3,30.5,0
		c6.2-0.2,9.5,2.3,10.6,8.3C555,137.3,556.8,145.7,558.6,154.8z"/>
	<path class="st82" d="M734.7,424.3c-0.2,10.5-10.5,19.3-20.6,17.2c-16.8-3.4-30.1-12.5-40.2-26.1c-3.8-5-3.2-7.1,2.8-8.3
		c14.4-2.7,28.9-3.6,43.3,0.2C728,409.5,734.8,417.7,734.7,424.3z"/>
	<path class="st83" d="M583.1,470.1c8.9,15.9,18,28.8,14,46.5c-2.7,11.9-17.1,11.5-22.4,5.2c-2.9-3.4-5.1-7.4-4.4-12
		C572.4,496.9,575.4,484.2,583.1,470.1z"/>
	<path class="st43" d="M608.1,76.7c-9.2,1.4-19.8-2.7-30.7-2.3c-4.2,0.2-6.2-1.3-5.5-6.7c1.8-13,3.2-15.1,16-14.9
		c13.4,0.3,26.8,1.1,40.2,2c6.8,0.4,8.8,3.6,6.9,10.2c-2.8,9.7-5.3,11.6-15.3,11.6C616.4,76.7,613.2,76.7,608.1,76.7z"/>
	<path class="st43" d="M584.9,105.2c-8.2,0.9-17.1-2.3-26.2-2.1c-7.6,0.2-10.9-6.1-7-12.6c2.5-4.1,6-7.4,11.5-6.9
		c12.3,1.1,24.6,2.1,37,2.6c6.1,0.2,7.1,3,5.2,9C602.2,104.8,601.1,105.4,584.9,105.2z"/>
	<path class="st84" d="M478.9,108.3c-2-6.1-0.4-11.7-2-17c-1.1-3.7,1.6-6.5,5-7.3c14.5-3.2,28.9-6.8,43.8-7.2c5.1-0.2,7.4,1.9,7.3,7
		c-0.1,2.9,0,5.8,0,8.7c0.1,3.9-1.4,6.2-5.7,6.3c-13.9,0.5-27.1,4.3-40.3,8.2C484.7,107.7,482.1,107.8,478.9,108.3z"/>
	<path class="st85" d="M432,490.7c0.6,9.2-0.6,18.2-3,27.1c-2.3,8.6-1.5,17.4-1,26.1c0.5,9.5,1.2,19-2.9,28
		c-9.7,21.3-28.6,18.7-38.7,7.3c-8-9.1-14.6-18.4-18.9-30.2c-4.7-13-10.4-25.5-12.7-39.3c-0.4-2.1-1.5-4.2-2.7-5.9
		c-9.8-13.6-23.1-22.1-39.3-25.9c-5.3-1.2-10.7-0.4-15.8,2.5c-10.9,6.2-21,12.7-28.3,23.4c-6.1,9-16.2,9-23,0.3
		c-6.5-8.4-11.5-17.7-8.7-29.3c1.2-4.9,1.4-10.1,2.2-15.2c2.4-15,7.7-28.9,17.3-40.9c3.2-4,6.4-8,9-12.4
		c12.9-21.5,33.6-30.6,56.6-35.7c23.5-5.2,46,0.1,66.6,10.9c16.5,8.7,27.2,23.4,34.1,41.2C431.3,444.9,430.3,467.9,432,490.7z"/>
	<path class="st86" d="M400.9,1110.8c9.5,0,19-0.3,28.4,0.1c10.3,0.4,20.3-1.1,30.3-3.1c6.4-1.2,12.3,0.3,17.6,3.8
		c3.2,2.1,3.2,4.6,0.1,7c-3.3,2.6-7.2,3.8-11.1,4.3c-15.4,2.4-30.5,6.6-46.4,5.4c-5.1-0.4-10-1.6-15.1-2.1
		c-7.4-0.8-14.4,1.9-21.7,1.8c-18.1-0.2-36.2-1.9-54.3-3.6c-10.5-1-21-1.7-31.1-4.8c-18.4-5.5-17-17.7-7.4-26.2
		c5.6-4.9,10.6-10,18.9-9.1c2.7,0.3,5.2,0.9,5.9,3.9c0.6,2.5-1.4,4-3,5.4c-0.8,0.7-1.9,1.1-2.8,1.7c-2.3,1.5-5.9,2.7-4.8,6.2
		c0.9,2.9,4.4,3.9,7.2,4.3c6.4,1.1,12.9,1.7,19.4,2.4C354.3,1110.7,377.6,1111.3,400.9,1110.8z"/>
	<path class="st87" d="M175.4,1044.9c-6.7,1-13.4-1.5-20.1-2.8c-12.4-2.5-24.9-4.6-37.5-5.9c-13-1.4-23.2-8.4-32-17.2
		c-6.7-6.7-5.4-16.9,1.4-22.1c2.9-2.2,5.9-3,9.1-1.2c3.1,1.7,3.3,4.6,1.8,7.6c-2.1,4.2-0.2,6.6,3.2,9.1c6.2,4.6,12.5,8,20.6,8.9
		c8.2,0.9,16.3,3.2,24.2,5.9c12.4,4.3,24.4,9.4,37.9,9.2c3,0,6.4,0.7,6.1,4.6c-0.3,3.8-3.7,3.9-6.7,4
		C180.8,1044.9,178.3,1044.9,175.4,1044.9z"/>
	<path class="st88" d="M672.6,1117.3c4-0.2,8.7,0.6,13.2-1c2.8-1,4.9-0.1,6.8,1.9c2.5,2.7,2.3,5.2-0.9,7.1
		c-6.5,4.1-27.8,3.8-33.6-0.5c-1.5-1.1-2.5-2.7-2.1-4.6c0.4-2,2.1-2.9,4-2.9C664,1117.2,667.9,1117.3,672.6,1117.3z"/>
	<path class="st88" d="M520.7,1109.5c-5.9,7.1-15.4,10.2-23,7.5c-2.2-0.8-3.8-2.2-4-4.7c-0.2-2.4,1.1-4,3.1-5.4
		C503.1,1102.6,513.1,1103.6,520.7,1109.5z"/>
	<path class="st88" d="M75.4,959.4c-5-2.5-11.2-1.6-16.6-4c-3.3-1.5-5.7-3.2-5.7-7.1c0-1.9,0.4-3.7,2.3-4.6c1.6-0.8,2.8,0.3,3.8,1.2
		c4.2,4,9.6,4.9,15,5.8c1.1,0.2,2.3,0.1,3.2,0.4c2.6,1,4.5,2.7,3.7,5.8C80.4,959.9,77.9,959.4,75.4,959.4z"/>
	<path class="st88" d="M222.8,1051.6c-3.5,0.3-6.7-1.6-10.1-2.7c-2.6-0.8-4.5-2.9-2.8-5.8c1.4-2.4,3.5-5.2,6.8-3.5
		c2.9,1.4,5.7,2.9,8.7,4c2,0.8,4.1,2.5,3.7,4.8C228.5,1051.5,225.6,1051.6,222.8,1051.6z"/>
	<path class="st3" d="M905.5,1012.6c-9.3,5.2-19.6,5.2-29.4,5.9c-11.6,0.8-23.3,0-35,0.5c-21.1,1-39.1-7-55.7-18.8
		c-8.5-6.1-14.3-14.7-17.5-24.6c-4.1-12.3,1.5-19,13.6-15.5c11.7,3.4,23.8,7.3,32.6,16.8c7.3,7.9,16.2,15,25.7,18
		C861.4,1001.8,881.1,1015.9,905.5,1012.6z"/>
	<path class="st89" d="M484.4,316.4c0,5.2,0.2,8.1-0.1,10.9c-0.2,1.9-1.4,3.3-3.5,3.6c-2.2,0.3-3.6-1-4.1-2.8
		c-2.1-8.3-7.9-14.5-11.9-21.7c-1.5-2.6-2.9-5.2-0.3-7.9c2.1-2.2,4.6-1.8,7.1-0.7c15,6.6,29,14.9,42.4,24.2c2.1,1.4,4.1,3.5,2.6,6.4
		c-1.6,3.3-4.6,3.5-7.5,2.3c-3-1.3-5.8-3-8.6-4.7C495.6,323.1,490.7,320.1,484.4,316.4z"/>
	<path class="st90" d="M325.8,265.9c-5.9-1.7-10.8-3-15.6-4.5c-1.3-0.4-2.5-1.5-2.3-3.3c0.2-1.7,1.5-2.8,2.7-3
		c11.7-1.7,23.2-1.1,33.9,4.2c3.6,1.8,3.7,5.6,0.2,7.7c-2.4,1.5-5.3,2.4-7.9,3.6c-6.9,3.2-14.2,5.6-20,10.7
		c-1.6,1.4-3.4,1.3-4.9-0.1c-1.9-1.7-1.8-3.7-0.5-5.9C314.5,270.4,320.5,269.8,325.8,265.9z"/>
	<path class="st91" d="M663.7,503.6c6.7,5.7,13.4,9.5,17.9,15.8c4,5.5,3.5,9.3-1.3,12c-5.1,2.9-9.5,1.3-12.4-4.3
		C664.5,520.1,664,512.6,663.7,503.6z"/>
	<path class="st92" d="M527.2,125c4,0,5.4,0,6.9,0c8.6,0.1,10.6,1.6,13.3,9.7c3.8,11.7,0.7,16.5-11.5,16.2
		c-12.6-0.3-24.6,2.3-36.4,6.1c-4.7,1.5-7.6,0.4-9.8-3.9c-2.5-4.8-5.3-9.6-7.8-14.4c-2.2-4.2-1.3-6.2,3.8-7.6
		C500.1,127.1,514.9,126.1,527.2,125z"/>
	<path class="st93" d="M686.9,414.9c9-3.5,17.1-1,25.2,0.2c1.4,0.2,2.9,0.8,4,1.7c3.3,2.6,7.5,5.1,6.3,10.2c-0.9,3.8-8.4,5.8-13.3,4
		C706.2,429.9,690.6,418.8,686.9,414.9z"/>
	<path class="st94" d="M583.5,489.9c5.2,7,6.8,13.4,6.2,20.5c-0.3,3.5-2.4,5.2-5.6,5.2c-3.9,0-6.3-2.4-5.6-6.2
		C579.7,503.1,581.6,497.1,583.5,489.9z"/>
	<path class="st95" d="M614.3,72.3c-7.5-2.8-16.2-2-24.9-2.3c-2.5-0.1-5.9,0.2-5.4-3.5c0.4-3.7,0.2-8.6,5.7-9.1
		c4.3-0.4,8.7-0.3,13-0.1c4.7,0.3,9.2,1.9,14,1.7c3.8-0.2,7.6,0.5,7.4,5.6C623.9,69.3,620.1,72.3,614.3,72.3z"/>
	<path class="st96" d="M576.7,98.6c-3.6,0-7.3,0.3-10.9-0.1c-4.2-0.4-5.3-3.4-2.9-6.8c2.1-3,5.2-4.4,8.5-3.5
		c5.7,1.6,11.4,1.6,17.2,1.7c2.1,0,4.7-0.1,5.1,2.8c0.4,3-1.6,5.1-4.1,5.5c-4.2,0.7-8.6,0.5-13,0.7
		C576.7,98.8,576.7,98.7,576.7,98.6z"/>
	<path class="st97" d="M486.6,102.5c-2.1-3.1-1.4-5.3-1.8-7.4c-0.9-5.5,1.9-8.5,6.8-9.1c8.6-1,17-3.2,25.5-4.6
		c3.4-0.5,8.5-2.3,9.2,4.2c0.5,5.2-1.3,7.5-7.1,8.6C508.2,96.4,497.2,97.9,486.6,102.5z"/>
	<path class="st98" d="M280.9,400.8c3.6-6.6,11-8,16.6-12c2.7-1.9,4.9-0.1,5.2,3.1c0.4,4.7,3.8,6.3,7.5,6.6
		c7.2,0.5,12.5,4.7,17.1,8.9c7.1,6.4,15.5,9,24,8.6c12-0.5,22.2,3.2,31.5,9.9c6.3,4.5,12.9,6.1,20.4,6c10.4-0.2,13.9,2.8,15.6,12.7
		c1.3,7.4,1.7,14.8,1.2,22.5c-0.6,9.2,1.2,18.7,1.2,28.2c0,5.5-0.3,10.8-2,16.2c-4.5,14.2-2,28.9-2.3,43.4c-0.1,6-0.6,11.6-4.9,16.3
		c-5.8,6.4-9.4,6.9-15.6,1.1c-7.6-7.2-14.1-14.7-18.1-25.3c-5-13.2-10.7-26.1-14.3-39.8c-2.8-10.7-10.2-18.2-19.5-24
		c-7.7-4.8-15.6-9-24.2-11.8c-0.6-2.5-0.8-5-1.1-7.5c-2.3-21.1-8.2-40.2-28-52.2C287.2,409,283.3,405.4,280.9,400.8z"/>
	<path class="st99" d="M280.9,400.8c9.1,2.7,13.7,11.3,21.1,16.3c12.4,8.3,16.4,21.7,18,35.5c0.7,6,5.6,12.4,0.3,18.6
		c-10.6-3.6-20.3-2.4-30.2,3.6c-10.4,6.3-20.2,12.8-27.2,23c-3.8,5.5-8.4,5.6-12.5,0.5c-4.6-5.7-8.3-11.8-6-20
		c1.5-5.2,1.9-10.7,2.6-16.1c2.9-21.2,15.7-37.3,27.8-53.7C276.8,405.9,278.9,403.3,280.9,400.8z"/>
	<path class="st100" d="M412.4,422.8c-9.5,1-17.8,1.8-25-3.7c-11.6-8.8-25.1-10.6-38.9-11.3c-6-0.3-11.2-1.9-16.2-5.5
		c-6.1-4.5-12.7-8.7-20.5-9.9c-2.8-0.4-4.8-1.2-4.9-4.6c0-3.3,2.3-4.1,4.7-5c8.9-3.5,18.3-5.6,27.7-5.1c14.2,0.8,28.2,3.8,41.2,9.8
		C395.9,394.5,404.7,407.6,412.4,422.8z"/>
</g>
<g id="Layer_2">
	<path d="M196.1,644c0,0-0.9,52.7,7.2,86.8c8,34.2-3.5,23.3-3.5,23.3l-8.3-36.5c0,0-21.1-14.5-21.1-34.6c0-20.1,4.8-32.9,9.9-40.9
		c5-8,11.9-17.1,11.9-17.1L196.1,644z"/>
	<path class="st6" d="M186.3,647.3c0,0-6,10.2-6.8,22.7c-1.4,20.3,7.1,23.3,8.8,27.2C189.9,701.2,186.3,647.3,186.3,647.3z"/>
</g>
</svg>
