<?xml version="1.0" encoding="utf-8"?>
<!-- Generator: Adobe Illustrator 19.2.1, SVG Export Plug-In . SVG Version: 6.00 Build 0)  -->
<svg version="1.1" id="Ebene_1" xmlns="http://www.w3.org/2000/svg" xmlns:xlink="http://www.w3.org/1999/xlink" x="0px" y="0px"
	 viewBox="0 0 267.1 328.5" style="enable-background:new 0 0 267.1 328.5;" xml:space="preserve">
<style type="text/css">
	.st0{fill:#309FD9;}
	.st1{fill:#3A759D;}
	.st2{fill:#3A749C;}
	.st3{fill:none;stroke:#309FD9;stroke-width:3;}
	.st4{fill:none;stroke:#309FD9;stroke-width:6;}
	.st5{fill:none;stroke:#46ABE1;stroke-width:6;stroke-linejoin:bevel;}
	.st6{fill:#46ABE1;}
	.st7{fill:none;stroke:#3A759D;stroke-width:3;}
	.st8{fill:none;stroke:#309FD9;stroke-width:3;stroke-miterlimit:10;}
</style>
<g>
	<path class="st0" d="M64.5,54.9c0,0-2.5,1.5,1.8,2c5.3,0.6,8,0.5,13.8-0.6c0,0,1.5,1,3.7,1.8C70.8,63.7,54.3,57.8,64.5,54.9"/>
	<path class="st0" d="M62.9,47.6c0,0-2.9,2.1,1.5,2.6c5.6,0.6,10.1,0.6,17.8-0.9c0,0,1.1,1.1,2.7,1.7C69.2,55.6,51.7,51.4,62.9,47.6
		"/>
	<path class="st0" d="M76.4,35.3c3.2,3.7-0.8,7-0.8,7s8.2-4.2,4.4-9.5c-3.5-4.9-6.2-7.4,8.3-15.8C88.3,17,65.5,22.7,76.4,35.3"/>
	<path class="st0" d="M93.6,60.3c0,0,1.9,1.6-2.1,2.8c-7.5,2.3-31.3,3-37.9,0.1c-2.4-1,2.1-2.5,3.5-2.8c1.5-0.3,2.3-0.3,2.3-0.3
		c-2.6-1.9-17.1,3.7-7.3,5.2C78.6,69.7,100.5,63.4,93.6,60.3"/>
	<path class="st0" d="M65.7,40.1c0,0-12.1,2.9-4.3,3.9c3.3,0.4,9.9,0.3,16-0.2c5-0.4,10-1.3,10-1.3s-1.8,0.8-3,1.6
		c-12.3,3.2-36,1.7-29.2-1.6C61,39.8,65.7,40.1,65.7,40.1"/>
	<path class="st0" d="M87.5,52.2c12.5-6.5,6.7-12.7,2.7-11.9c-1,0.2-1.4,0.4-1.4,0.4s0.4-0.6,1.1-0.8c8-2.8,14.1,8.3-2.6,12.7
		C87.2,52.5,87.4,52.4,87.5,52.2"/>
	<path class="st0" d="M79.9,3.4c0,0,6.9,6.9-6.6,17.6c-10.8,8.5-2.5,13.4,0,19c-6.3-5.7-10.9-10.7-7.8-15.4
		C70.1,17.7,82.7,14.4,79.9,3.4"/>
	<path class="st0" d="M67,69.8c12,0.8,30.4-0.4,30.8-6.1c0,0-0.8,2.2-9.9,3.9C77.7,69.5,65,69.3,57.6,68C57.6,68,59.1,69.3,67,69.8"
		/>
</g>
<g>
	<path class="st1" d="M1197.7,1373.1c40-52.7,95.6-53,95.6-53s8.3,49.6-31.5,97.3c-42.4,51-90.6,42.6-90.6,42.6
		S1162.1,1420,1197.7,1373.1z"/>
	<path class="st1" d="M1176.3,1494.8c20.6,0,58.8-28.3,108.5-28.3c85.6,0,119.2,60.9,119.2,60.9s-65.8,33.7-65.8,115.3
		c0,92.1,82,123.9,82,123.9s-57.3,161.4-134.8,161.4c-35.6,0-63.2-24-100.7-24c-38.2,0-76.1,24.9-100.8,24.9
		c-70.7,0-160-153.1-160-276.1c0-121.1,75.6-184.6,146.5-184.6C1116.5,1468.2,1152.3,1494.8,1176.3,1494.8z"/>
</g>
<path class="st2" d="M345.4,957.3v53.4h53.4v-53.4H345.4z M374.4,999c0,5.2-3,7.6-7.5,7.6c-4,0-6.3-2.1-7.5-4.6l0,0l0,0l0,0l4.1-2.5
	c0.8,1.4,1.5,2.6,3.2,2.6c1.7,0,2.7-0.6,2.7-3.2v-17.1h5V999z M386.3,1006.6c-4.7,0-7.7-2.2-9.1-5.1h0l4.1-2.4c1.1,1.8,2.5,3,5,3
	c2.1,0,3.4-1,3.4-2.5c0-1.7-1.4-2.3-3.7-3.3l-1.3-0.5c-3.6-1.5-6-3.5-6-7.6c0-3.8,2.9-6.6,7.4-6.6c3.2,0,5.5,1.1,7.1,4l-3.9,2.5
	c-0.9-1.5-1.8-2.2-3.2-2.2c-1.5,0-2.4,0.9-2.4,2.2c0,1.5,0.9,2.1,3.1,3l1.3,0.5c4.3,1.8,6.7,3.7,6.7,7.9
	C394.6,1004.1,391.1,1006.6,386.3,1006.6z"/>
<g>
	<g id="layer1_1_" transform="translate(-937.60684,-1834.4815)">
		<path id="path12299_1_" class="st0" d="M1490.7,1902.2c0,0.6-0.2,1.2-0.7,1.6c-0.5,0.5-1,0.7-1.6,0.7c-0.6,0-1.2-0.2-1.6-0.7
			c-0.4-0.5-0.7-1-0.7-1.6c0-0.6,0.2-1.2,0.7-1.6c0.4-0.5,1-0.7,1.6-0.7c0.6,0,1.2,0.2,1.6,0.7
			C1490.4,1901,1490.7,1901.6,1490.7,1902.2"/>
		<path id="path12303_1_" class="st0" d="M1519.5,1904h-4.2l-15.2-23.5c-0.4-0.6-0.7-1.2-0.9-1.9h-0.1c0.1,0.6,0.2,2,0.2,4.1v21.3
			h-3.5v-29.5h4.5l14.8,23.2c0.6,0.9,1,1.6,1.2,2h0.1c-0.1-0.8-0.2-2.3-0.2-4.3v-20.8h3.4L1519.5,1904L1519.5,1904z"/>
		<path id="path12307_1_" class="st0" d="M1541.7,1904H1526v-29.5h15v3.1h-11.5v9.8h10.7v3.1h-10.7v10.3h12.2V1904z"/>
		<path id="path12311_1_" class="st0" d="M1565.4,1877.6h-8.5v26.4h-3.5v-26.4h-8.5v-3.1h20.5V1877.6L1565.4,1877.6z"/>
	</g>
</g>
<g>
	<g>
		<path class="st0" d="M191.5,0.7c1.7-1,4-1,5.7,0c8.7,4.9,17.5,9.9,26.2,14.8c1.6,0.9,2.7,2.8,2.7,4.6v29.7c0,2-1.2,3.8-2.9,4.7
			c-8.7,4.9-17.4,9.8-26.1,14.7c-1.8,1-4.1,0.9-5.8-0.2c-2.6-1.5-5.2-3-7.8-4.5c-0.5-0.3-1.1-0.6-1.5-1.1c0.3-0.4,0.9-0.5,1.4-0.7
			c1.1-0.3,2.1-0.9,3.1-1.4c0.3-0.2,0.6-0.1,0.8,0c2.2,1.3,4.4,2.6,6.7,3.9c0.5,0.3,1-0.1,1.4-0.3c8.5-4.8,17.1-9.6,25.6-14.5
			c0.3-0.2,0.5-0.5,0.5-0.8c0-9.8,0-19.6,0-29.4c0-0.4-0.2-0.8-0.5-0.9c-8.7-4.9-17.3-9.8-26-14.6c-0.3-0.2-0.7-0.2-1,0
			c-8.7,4.9-17.3,9.8-26,14.7c-0.4,0.2-0.6,0.5-0.5,0.9c0,9.8,0,19.6,0,29.4c0,0.3,0.2,0.7,0.5,0.8c2.3,1.3,4.6,2.6,6.9,3.9
			c1.3,0.7,2.9,1.1,4.3,0.6c1.3-0.5,2.2-1.7,2.1-3.1c0-9.7,0-19.5,0-29.2c0-0.4,0.4-0.8,0.8-0.7c1.1,0,2.2,0,3.3,0
			c0.5,0,0.8,0.5,0.7,0.9c0,9.8,0,19.6,0,29.4c0,2.6-1.1,5.4-3.5,6.7c-3,1.5-6.6,1.2-9.6-0.3c-2.5-1.3-5-2.8-7.5-4.1
			c-1.7-0.9-2.9-2.8-2.9-4.7V20.2c0-1.9,1.1-3.8,2.8-4.7C174.1,10.6,182.8,5.7,191.5,0.7L191.5,0.7z"/>
		<path class="st0" d="M199.1,21.3c3.8-0.2,7.9-0.1,11.3,1.7c2.6,1.4,4.1,4.4,4.2,7.4c-0.1,0.4-0.5,0.6-0.9,0.6c-1.1,0-2.2,0-3.3,0
			c-0.5,0-0.7-0.4-0.8-0.8c-0.3-1.4-1.1-2.8-2.4-3.5c-2-1-4.4-1-6.6-0.9c-1.6,0.1-3.4,0.2-4.7,1.2c-1.1,0.7-1.4,2.2-1,3.3
			c0.4,0.8,1.3,1.1,2.1,1.4c4.6,1.2,9.4,1.1,13.9,2.6c1.9,0.6,3.7,1.9,4.3,3.8c0.8,2.6,0.5,5.7-1.4,7.8c-1.5,1.7-3.7,2.7-5.9,3.2
			c-2.9,0.6-5.9,0.7-8.9,0.4c-2.8-0.3-5.7-1-7.8-2.9c-1.8-1.6-2.7-4.1-2.6-6.5c0-0.4,0.4-0.7,0.8-0.7c1.1,0,2.2,0,3.3,0
			c0.4,0,0.8,0.4,0.8,0.8c0.2,1.3,0.7,2.7,1.9,3.5c2.3,1.5,5.1,1.4,7.7,1.4c2.1-0.1,4.5-0.1,6.3-1.5c0.9-0.8,1.2-2.2,0.9-3.3
			c-0.3-1-1.3-1.4-2.2-1.7c-4.5-1.4-9.4-0.9-13.9-2.5c-1.8-0.6-3.6-1.9-4.3-3.7c-1-2.6-0.5-5.9,1.5-7.9
			C193.4,22.3,196.3,21.6,199.1,21.3L199.1,21.3z"/>
	</g>
</g>
<g>
	<g>
		<path class="st0" d="M472.5,7.4c-16,0-15,6.9-15,6.9l0,7.2h15.2v2.2h-21.3c0,0-10.2-1.2-10.2,15s8.9,15.6,8.9,15.6h5.3v-7.5
			c0,0-0.3-8.9,8.8-8.9h15.1c0,0,8.5,0.1,8.5-8.2V15.8C487.9,15.8,489.2,7.4,472.5,7.4L472.5,7.4L472.5,7.4z M464.1,12.2
			c1.5,0,2.7,1.2,2.7,2.7s-1.2,2.7-2.7,2.7c-1.5,0-2.7-1.2-2.7-2.7S462.6,12.2,464.1,12.2L464.1,12.2L464.1,12.2z"/>
		<path class="st0" d="M473,70c16,0,15-6.9,15-6.9l0-7.2h-15.2v-2.2H494c0,0,10.2,1.2,10.2-15c0-16.1-8.9-15.6-8.9-15.6H490v7.5
			c0,0,0.3,8.9-8.8,8.9h-15.1c0,0-8.5-0.1-8.5,8.2v13.8C457.6,61.7,456.3,70,473,70z M481.4,65.2c-1.5,0-2.7-1.2-2.7-2.7
			c0-1.5,1.2-2.7,2.7-2.7c1.5,0,2.7,1.2,2.7,2.7C484.1,64,482.9,65.2,481.4,65.2L481.4,65.2L481.4,65.2z"/>
	</g>
</g>
<polygon class="st3" points="133.6,252.3 76.1,219.1 76.1,152.7 133.6,119.5 191,152.7 191,219.1 "/>
<g>
	<g>
		<g id="ds-logo_2_">
			<path class="st4" d="M133.6,145.3l-35.1,20.3l66.1,38.1l-30.9,17.9"/>
			<path class="st5" d="M133.6,226.5l35.1-20.3v-40.6l-35.1-20.3V226.5z"/>
			<circle class="st6" cx="133.6" cy="226.5" r="4.9"/>
			<circle class="st6" cx="168.7" cy="206.2" r="4.9"/>
			<circle class="st6" cx="168.7" cy="165.6" r="4.9"/>
			<circle class="st6" cx="133.6" cy="145.3" r="4.9"/>
			<circle class="st0" cx="98.4" cy="165.6" r="4.9"/>
		</g>
	</g>
</g>
<polygon class="st3" points="533.6,252.3 476.1,219.1 476.1,152.7 533.6,119.5 591,152.7 591,219.1 "/>
<g>
	<g>
		<g id="ds-logo_3_">
			<path class="st4" d="M533.6,145.3l-35.1,20.3l66.1,38.1l-30.9,17.9"/>
			<path class="st5" d="M533.6,226.5l35.1-20.3v-40.6l-35.1-20.3V226.5z"/>
			<circle class="st6" cx="533.6" cy="226.5" r="4.9"/>
			<circle class="st6" cx="568.7" cy="206.2" r="4.9"/>
			<circle class="st6" cx="568.7" cy="165.6" r="4.9"/>
			<circle class="st6" cx="533.6" cy="145.3" r="4.9"/>
			<circle class="st0" cx="498.4" cy="165.6" r="4.9"/>
		</g>
	</g>
</g>
<path class="st7" d="M113.6,91.6"/>
<path class="st8" d="M72.8,70c0,0,0,24.8,30.4,24.8s30.4,24.8,30.4,24.8"/>
<path class="st8" d="M194.3,70c0,0,0,24.8-30.4,24.8s-30.4,24.8-30.4,24.8"/>
<path class="st8" d="M472.8,70c0,0,0,24.8,30.4,24.8c30.4,0,30.4,24.8,30.4,24.8"/>
<path class="st8" d="M594.3,70c0,0,0,24.8-30.4,24.8c-30.4,0-30.4,24.8-30.4,24.8"/>
<line class="st3" x1="621" y1="586.9" x2="963.6" y2="586.9"/>
<line class="st3" x1="621" y1="596.9" x2="963.6" y2="596.9"/>
<line class="st3" x1="621" y1="606.9" x2="963.6" y2="606.9"/>
<g>
	<path class="st0" d="M84.8,311.7c-1.2-5.7-6.1-9.9-12.1-9.9c-4.8,0-8.9,2.7-10.9,6.7c-4.9,0.5-8.8,4.7-8.8,9.8
		c0,5.4,4.4,9.9,9.9,9.9h21.4c4.5,0,8.2-3.7,8.2-8.2C92.5,315.5,89.1,312,84.8,311.7z"/>
</g>
<g>
	<g id="Icon_1_">
		<g>
			<path class="st0" d="M264.6,301.6h-21.5c-1.4,0-2.5,1.1-2.5,2.5v16.8c0,1.4,1.1,2.5,2.5,2.5h8.2l-2.5,2.8v1.9h10.1v-1.9l-2.5-2.8
				h8.2c1.4,0,2.5-1.1,2.5-2.5v-16.8C267.1,302.8,266,301.6,264.6,301.6z M264.6,318.7h-21.5v-14.5h21.5V318.7L264.6,318.7z"/>
		</g>
	</g>
</g>
<g>
	<g id="Icon_2_">
		<g>
			<path class="st0" d="M145.7,326c1.6,0,3-1.3,3-3v-18.5c0-1.6-1.3-3-3-3h-25.2c-1.6,0-3,1.3-3,3v18.5c0,1.6,1.3,3,3,3h-5.2
				c0,1.6,4.4,2.2,6.7,2.2h22.2c2.2,0,6.7-0.6,6.7-2.2H145.7z M120.5,304.5h25.2v18.9h-25.2V304.5z M133.1,327.3
				c-0.8,0-1.5-0.7-1.5-1.5c0-0.8,0.7-1.5,1.5-1.5c0.8,0,1.5,0.7,1.5,1.5C134.6,326.7,134,327.3,133.1,327.3z"/>
		</g>
	</g>
</g>
<g>
	<g id="Icon_3_">
		<g>
			<path class="st0" d="M188.2,328.2h12.2c1.3,0,2.4-1.1,2.4-2.4V304c0-1.3-1.1-2.4-2.4-2.4h-12.2c-1.3,0-2.4,1.1-2.4,2.4v21.7
				C185.8,327.1,186.9,328.2,188.2,328.2z M187.9,306.3h12.8v17.1h-12.8V306.3z"/>
		</g>
	</g>
</g>
<g>
	<g>
		<path class="st0" d="M25.7,309.8c-0.1,0-0.2,0-0.3,0.1l-0.1,0.1l-10.1,5.3l-0.2,0.1c0,0,0,0,0,0c-0.4,0.3-0.7,0.7-0.7,1.3v11
			c0,0.4,0.3,0.7,0.7,0.7c0.1,0,0.3,0,0.4-0.1c0,0,0,0,0,0l10.3-5.5l0,0c0.5-0.3,0.8-0.8,0.8-1.3v-10.9
			C26.5,310.1,26.1,309.8,25.7,309.8z"/>
		<path class="st0" d="M24.9,306.9l-10.7-4.8c0,0-0.6-0.3-1-0.3c-0.3,0-1,0.3-1,0.3l-10.7,4.8c0,0-0.5,0.2-0.5,0.6
			c0,0.4,0.5,0.7,0.5,0.7l10.8,5.7l0.2,0.1c0.2,0.1,0.5,0.2,0.7,0.2c0.3,0,0.5-0.1,0.8-0.2l0.1-0.1l10.8-5.7c0,0,0.4-0.2,0.4-0.7
			C25.4,307.1,24.9,306.9,24.9,306.9z"/>
		<path class="st0" d="M11.5,315.3l-0.2-0.1L1.2,310L1,309.9c-0.1,0-0.2-0.1-0.3-0.1c-0.4,0-0.7,0.3-0.7,0.7v10.9
			c0,0.6,0.3,1,0.8,1.3l0,0l10.3,5.5l0,0c0.1,0.1,0.2,0.1,0.4,0.1c0.4,0,0.7-0.3,0.7-0.7v-11C12.3,316.1,12,315.6,11.5,315.3z"/>
	</g>
</g>
<path class="st8" d="M72.8,301.8c0,0,0-24.8,30.4-24.8s30.4-24.8,30.4-24.8"/>
<path class="st8" d="M194.3,301.8c0,0,0-24.8-30.4-24.8s-30.4-24.8-30.4-24.8"/>
<line class="st8" x1="133.6" y1="252.3" x2="133.6" y2="252.3"/>
<path class="st8" d="M163.9,277l59.5,0c30.4,0,30.4,24.8,30.4,24.8"/>
<path class="st8" d="M103.2,277H43.6c-30.4,0-30.4,24.8-30.4,24.8"/>
<line class="st8" x1="133.6" y1="252.3" x2="134.2" y2="301.8"/>
<g>
	<path class="st0" d="M484.3,312c-1.2-5.7-6.1-9.9-12.1-9.9c-4.8,0-8.9,2.7-10.9,6.7c-4.9,0.5-8.8,4.7-8.8,9.8
		c0,5.4,4.4,9.9,9.9,9.9h21.4c4.5,0,8.2-3.7,8.2-8.2C492,315.8,488.6,312.2,484.3,312z"/>
</g>
<g>
	<g id="Icon_6_">
		<g>
			<path class="st0" d="M664.1,301.9h-21.5c-1.4,0-2.5,1.1-2.5,2.5v16.8c0,1.4,1.1,2.5,2.5,2.5h8.2l-2.5,2.8v1.9h10.1v-1.9l-2.5-2.8
				h8.2c1.4,0,2.5-1.1,2.5-2.5v-16.8C666.6,303,665.5,301.9,664.1,301.9z M664.1,318.9h-21.5v-14.5h21.5V318.9L664.1,318.9z"/>
		</g>
	</g>
</g>
<g>
	<g id="Icon_5_">
		<g>
			<path class="st0" d="M545.2,326.2c1.6,0,3-1.3,3-3v-18.5c0-1.6-1.3-3-3-3H520c-1.6,0-3,1.3-3,3v18.5c0,1.6,1.3,3,3,3h-5.2
				c0,1.6,4.4,2.2,6.7,2.2h22.2c2.2,0,6.7-0.6,6.7-2.2H545.2z M520,304.8h25.2v18.9H520V304.8z M532.6,327.5c-0.8,0-1.5-0.7-1.5-1.5
				c0-0.8,0.7-1.5,1.5-1.5c0.8,0,1.5,0.7,1.5,1.5C534.1,326.9,533.5,327.5,532.6,327.5z"/>
		</g>
	</g>
</g>
<g>
	<g id="Icon_4_">
		<g>
			<path class="st0" d="M587.7,328.4h12.2c1.3,0,2.4-1.1,2.4-2.4v-21.7c0-1.3-1.1-2.4-2.4-2.4h-12.2c-1.3,0-2.4,1.1-2.4,2.4V326
				C585.3,327.3,586.4,328.4,587.7,328.4z M587.4,306.5h12.8v17.1h-12.8V306.5z"/>
		</g>
	</g>
</g>
<g>
	<g>
		<path class="st0" d="M425.2,310.1c-0.1,0-0.2,0-0.3,0.1l-0.1,0.1l-10.1,5.3l-0.2,0.1c0,0,0,0,0,0c-0.4,0.3-0.7,0.7-0.7,1.3v11
			c0,0.4,0.3,0.7,0.7,0.7c0.1,0,0.3,0,0.4-0.1c0,0,0,0,0,0l10.3-5.5l0,0c0.5-0.3,0.8-0.8,0.8-1.3v-10.9
			C426,310.4,425.6,310.1,425.2,310.1z"/>
		<path class="st0" d="M424.4,307.1l-10.7-4.8c0,0-0.6-0.3-1-0.3s-1,0.3-1,0.3l-10.7,4.8c0,0-0.5,0.2-0.5,0.6c0,0.4,0.5,0.7,0.5,0.7
			l10.8,5.7l0.2,0.1c0.2,0.1,0.5,0.2,0.7,0.2c0.3,0,0.5-0.1,0.8-0.2l0.1-0.1l10.8-5.7c0,0,0.4-0.2,0.4-0.7
			C424.9,307.3,424.4,307.1,424.4,307.1z"/>
		<path class="st0" d="M411,315.6l-0.2-0.1l-10.1-5.3l-0.1-0.1c-0.1,0-0.2-0.1-0.3-0.1c-0.4,0-0.7,0.3-0.7,0.7v10.9
			c0,0.6,0.3,1,0.8,1.3l0,0l10.3,5.5l0,0c0.1,0.1,0.2,0.1,0.4,0.1c0.4,0,0.7-0.3,0.7-0.7v-11C411.8,316.3,411.5,315.8,411,315.6z"/>
	</g>
</g>
<path class="st8" d="M472.3,302c0,0,0-24.8,30.4-24.8c30.4,0,30.4-24.8,30.4-24.8"/>
<path class="st8" d="M593.8,302c0,0,0-24.8-30.4-24.8c-30.4,0-30.4-24.8-30.4-24.8"/>
<path class="st8" d="M563.4,277.3H623c30.4,0,30.4,24.8,30.4,24.8"/>
<path class="st8" d="M502.7,277.3h-59.5c-30.4,0-30.4,24.8-30.4,24.8"/>
<line class="st8" x1="533.1" y1="252.5" x2="533.7" y2="302"/>
</svg>
