<?xml version="1.0" encoding="utf-8"?>
<!-- Generator: Adobe Illustrator 19.2.1, SVG Export Plug-In . SVG Version: 6.00 Build 0)  -->
<svg version="1.1" id="Ebene_1" xmlns="http://www.w3.org/2000/svg" xmlns:xlink="http://www.w3.org/1999/xlink" x="0px" y="0px"
	 viewBox="0 0 1600 450" style="enable-background:new 0 0 1600 450;" xml:space="preserve">
<style type="text/css">
	.st0{fill:#309FD9;}
	.st1{fill:#3A759D;}
	.st2{fill:#3A749C;}
	.st3{fill:none;stroke:#309FD9;stroke-width:3;}
	.st4{fill:none;stroke:#309FD9;stroke-width:6;}
	.st5{fill:none;stroke:#46ABE1;stroke-width:6;stroke-linejoin:bevel;}
	.st6{fill:#46ABE1;}
	.st7{fill:none;stroke:#3A759D;stroke-width:3;}
	.st8{fill:none;stroke:#309FD9;stroke-width:3;stroke-miterlimit:10;}
</style>
<g>
	<path class="st0" d="M731,94c0,0-2.5,1.5,1.8,2c5.3,0.6,8,0.5,13.8-0.6c0,0,1.5,1,3.7,1.8C737.2,102.8,720.7,96.9,731,94"/>
	<path class="st0" d="M729.4,86.7c0,0-2.9,2.1,1.5,2.6c5.6,0.6,10.1,0.6,17.8-0.9c0,0,1.1,1.1,2.7,1.7
		C735.7,94.7,718.1,90.5,729.4,86.7"/>
	<path class="st0" d="M742.8,74.4c3.2,3.7-0.8,7-0.8,7s8.2-4.2,4.4-9.5c-3.5-4.9-6.2-7.4,8.3-15.8C754.7,56.1,731.9,61.8,742.8,74.4
		"/>
	<path class="st0" d="M760,99.4c0,0,1.9,1.6-2.1,2.8c-7.5,2.3-31.3,3-37.9,0.1c-2.4-1,2.1-2.5,3.5-2.8c1.5-0.3,2.3-0.3,2.3-0.3
		c-2.6-1.9-17.1,3.7-7.3,5.2C745.1,108.8,766.9,102.5,760,99.4"/>
	<path class="st0" d="M732.2,79.2c0,0-12.1,2.9-4.3,3.9c3.3,0.4,9.9,0.3,16-0.2c5-0.4,10-1.3,10-1.3s-1.8,0.8-3,1.6
		c-12.3,3.2-36,1.7-29.2-1.6C727.5,78.8,732.2,79.2,732.2,79.2"/>
	<path class="st0" d="M753.9,91.3c12.5-6.5,6.7-12.7,2.7-11.9c-1,0.2-1.4,0.4-1.4,0.4s0.4-0.6,1.1-0.8c8-2.8,14.1,8.3-2.6,12.7
		C753.7,91.6,753.8,91.5,753.9,91.3"/>
	<path class="st0" d="M746.4,42.5c0,0,6.9,6.9-6.6,17.6c-10.8,8.5-2.5,13.4,0,19c-6.3-5.7-10.9-10.7-7.8-15.4
		C736.5,56.8,749.2,53.5,746.4,42.5"/>
	<path class="st0" d="M733.4,108.9c12,0.8,30.4-0.4,30.8-6.1c0,0-0.8,2.2-9.9,3.9c-10.2,1.9-22.9,1.7-30.3,0.5
		C724,107.1,725.5,108.4,733.4,108.9"/>
</g>
<g>
	<path class="st1" d="M1864.1,1412.2c40-52.7,95.6-53,95.6-53s8.3,49.6-31.5,97.3c-42.4,51-90.6,42.6-90.6,42.6
		S1828.6,1459.1,1864.1,1412.2z"/>
	<path class="st1" d="M1842.7,1533.9c20.6,0,58.8-28.3,108.5-28.3c85.6,0,119.2,60.9,119.2,60.9s-65.8,33.7-65.8,115.3
		c0,92.1,82,123.9,82,123.9s-57.3,161.4-134.8,161.4c-35.6,0-63.2-24-100.7-24c-38.2,0-76.1,24.9-100.8,24.9
		c-70.7,0-160-153.1-160-276.1c0-121.1,75.6-184.6,146.5-184.6C1783,1507.3,1818.7,1533.9,1842.7,1533.9z"/>
</g>
<path class="st2" d="M1011.8,996.4v53.4h53.4v-53.4H1011.8z M1040.9,1038.1c0,5.2-3,7.6-7.5,7.6c-4,0-6.3-2.1-7.5-4.6h0l0,0l0,0
	l4.1-2.5c0.8,1.4,1.5,2.6,3.2,2.6c1.7,0,2.7-0.6,2.7-3.2v-17.1h5V1038.1z M1052.8,1045.6c-4.7,0-7.7-2.2-9.1-5.1h0l4.1-2.4
	c1.1,1.8,2.5,3,5,3c2.1,0,3.4-1,3.4-2.5c0-1.7-1.4-2.3-3.7-3.3l-1.3-0.5c-3.6-1.5-6-3.5-6-7.6c0-3.8,2.9-6.6,7.4-6.6
	c3.2,0,5.5,1.1,7.1,4l-3.9,2.5c-0.9-1.5-1.8-2.2-3.2-2.2c-1.5,0-2.4,0.9-2.4,2.2c0,1.5,0.9,2.1,3.1,3l1.3,0.5
	c4.3,1.8,6.7,3.7,6.7,7.9C1061.1,1043.2,1057.5,1045.6,1052.8,1045.6z"/>
<g>
	<g id="layer1_1_" transform="translate(-937.60684,-1834.4815)">
		<path id="path12299_1_" class="st0" d="M2157.1,1941.3c0,0.6-0.2,1.2-0.7,1.6c-0.5,0.5-1,0.7-1.6,0.7c-0.6,0-1.2-0.2-1.6-0.7
			c-0.4-0.5-0.7-1-0.7-1.6c0-0.6,0.2-1.2,0.7-1.6c0.4-0.5,1-0.7,1.6-0.7c0.6,0,1.2,0.2,1.6,0.7
			C2156.9,1940.1,2157.1,1940.6,2157.1,1941.3"/>
		<path id="path12303_1_" class="st0" d="M2185.9,1943.1h-4.2l-15.2-23.5c-0.4-0.6-0.7-1.2-0.9-1.9h-0.1c0.1,0.6,0.2,2,0.2,4.1v21.3
			h-3.5v-29.5h4.5l14.8,23.2c0.6,0.9,1,1.6,1.2,2h0.1c-0.1-0.8-0.2-2.3-0.2-4.3v-20.8h3.4L2185.9,1943.1L2185.9,1943.1z"/>
		<path id="path12307_1_" class="st0" d="M2208.1,1943.1h-15.6v-29.5h15v3.1h-11.5v9.8h10.7v3.1h-10.7v10.3h12.2V1943.1z"/>
		<path id="path12311_1_" class="st0" d="M2231.8,1916.7h-8.5v26.4h-3.5v-26.4h-8.5v-3.1h20.5L2231.8,1916.7L2231.8,1916.7z"/>
	</g>
</g>
<g>
	<g>
		<path class="st0" d="M857.9,39.8c1.7-1,4-1,5.7,0c8.7,4.9,17.5,9.9,26.2,14.8c1.6,0.9,2.7,2.8,2.7,4.6v29.7c0,2-1.2,3.8-2.9,4.7
			c-8.7,4.9-17.4,9.8-26.1,14.7c-1.8,1-4.1,0.9-5.8-0.2c-2.6-1.5-5.2-3-7.8-4.5c-0.5-0.3-1.1-0.6-1.5-1.1c0.3-0.4,0.9-0.5,1.4-0.7
			c1.1-0.3,2.1-0.9,3.1-1.4c0.3-0.2,0.6-0.1,0.8,0c2.2,1.3,4.4,2.6,6.7,3.9c0.5,0.3,1-0.1,1.4-0.3c8.5-4.8,17.1-9.6,25.6-14.5
			c0.3-0.2,0.5-0.5,0.5-0.8c0-9.8,0-19.6,0-29.4c0-0.4-0.2-0.8-0.5-0.9c-8.7-4.9-17.3-9.8-26-14.6c-0.3-0.2-0.7-0.2-1,0
			c-8.7,4.9-17.3,9.8-26,14.7c-0.4,0.2-0.6,0.5-0.5,0.9c0,9.8,0,19.6,0,29.4c0,0.3,0.2,0.7,0.5,0.8c2.3,1.3,4.6,2.6,6.9,3.9
			c1.3,0.7,2.9,1.1,4.3,0.6c1.3-0.5,2.2-1.7,2.1-3.1c0-9.7,0-19.5,0-29.2c0-0.4,0.4-0.8,0.8-0.7c1.1,0,2.2,0,3.3,0
			c0.5,0,0.8,0.5,0.7,0.9c0,9.8,0,19.6,0,29.4c0,2.6-1.1,5.4-3.5,6.7c-3,1.5-6.6,1.2-9.6-0.3c-2.5-1.3-5-2.8-7.5-4.1
			c-1.7-0.9-2.9-2.8-2.9-4.7V59.3c0-1.9,1.1-3.8,2.8-4.7C840.5,49.7,849.2,44.8,857.9,39.8L857.9,39.8z"/>
		<path class="st0" d="M865.5,60.4c3.8-0.2,7.9-0.1,11.3,1.7c2.6,1.4,4.1,4.4,4.2,7.4c-0.1,0.4-0.5,0.6-0.9,0.6c-1.1,0-2.2,0-3.3,0
			c-0.5,0-0.7-0.4-0.8-0.8c-0.3-1.4-1.1-2.8-2.4-3.5c-2-1-4.4-1-6.6-0.9c-1.6,0.1-3.4,0.2-4.7,1.2c-1.1,0.7-1.4,2.2-1,3.3
			c0.4,0.8,1.3,1.1,2.1,1.4c4.6,1.2,9.4,1.1,13.9,2.6c1.9,0.6,3.7,1.9,4.3,3.8c0.8,2.6,0.5,5.7-1.4,7.8c-1.5,1.7-3.7,2.7-5.9,3.2
			c-2.9,0.6-5.9,0.7-8.9,0.4c-2.8-0.3-5.7-1-7.8-2.9c-1.8-1.6-2.7-4.1-2.6-6.5c0-0.4,0.4-0.7,0.8-0.7c1.1,0,2.2,0,3.3,0
			c0.4,0,0.8,0.4,0.8,0.8c0.2,1.3,0.7,2.7,1.9,3.5c2.3,1.5,5.1,1.4,7.7,1.4c2.1-0.1,4.5-0.1,6.3-1.5c0.9-0.8,1.2-2.2,0.9-3.3
			c-0.3-1-1.3-1.4-2.2-1.7c-4.5-1.4-9.4-0.9-13.9-2.5c-1.8-0.6-3.6-1.9-4.3-3.7c-1-2.6-0.5-5.9,1.5-7.9
			C859.9,61.4,862.8,60.7,865.5,60.4L865.5,60.4z"/>
	</g>
</g>
<g>
	<g>
		<path class="st0" d="M1139,46.5c-16,0-15,6.9-15,6.9l0,7.2h15.2v2.2H1118c0,0-10.2-1.2-10.2,15s8.9,15.6,8.9,15.6h5.3v-7.5
			c0,0-0.3-8.9,8.8-8.9h15.1c0,0,8.5,0.1,8.5-8.2V54.9C1154.4,54.9,1155.7,46.5,1139,46.5L1139,46.5L1139,46.5z M1130.6,51.3
			c1.5,0,2.7,1.2,2.7,2.7c0,1.5-1.2,2.7-2.7,2.7c-1.5,0-2.7-1.2-2.7-2.7C1127.8,52.6,1129.1,51.3,1130.6,51.3L1130.6,51.3
			L1130.6,51.3z"/>
		<path class="st0" d="M1139.4,109.1c16,0,15-6.9,15-6.9l0-7.2h-15.2v-2.2h21.3c0,0,10.2,1.2,10.2-15c0-16.1-8.9-15.6-8.9-15.6h-5.3
			v7.5c0,0,0.3,8.9-8.8,8.9h-15.1c0,0-8.5-0.1-8.5,8.2v13.8C1124,100.8,1122.7,109.1,1139.4,109.1z M1147.8,104.3
			c-1.5,0-2.7-1.2-2.7-2.7s1.2-2.7,2.7-2.7c1.5,0,2.7,1.2,2.7,2.7S1149.4,104.3,1147.8,104.3L1147.8,104.3L1147.8,104.3z"/>
	</g>
</g>
<polygon class="st3" points="800,291.4 742.5,258.2 742.5,191.8 800,158.6 857.5,191.8 857.5,258.2 "/>
<g>
	<g>
		<g id="ds-logo_2_">
			<path class="st4" d="M800,184.4l-35.1,20.3l66.1,38.1L800,260.7"/>
			<path class="st5" d="M800,265.6l35.1-20.3v-40.6L800,184.4V265.6z"/>
			<circle class="st6" cx="800" cy="265.6" r="4.9"/>
			<circle class="st6" cx="835.1" cy="245.3" r="4.9"/>
			<circle class="st6" cx="835.1" cy="204.7" r="4.9"/>
			<circle class="st6" cx="800" cy="184.4" r="4.9"/>
			<circle class="st0" cx="764.9" cy="204.7" r="4.9"/>
		</g>
	</g>
</g>
<polygon class="st3" points="1200,291.4 1142.5,258.2 1142.5,191.8 1200,158.6 1257.5,191.8 1257.5,258.2 "/>
<g>
	<g>
		<g id="ds-logo_3_">
			<path class="st4" d="M1200,184.4l-35.1,20.3l66.1,38.1l-30.9,17.9"/>
			<path class="st5" d="M1200,265.6l35.1-20.3v-40.6l-35.1-20.3V265.6z"/>
			<circle class="st6" cx="1200" cy="265.6" r="4.9"/>
			<circle class="st6" cx="1235.1" cy="245.3" r="4.9"/>
			<circle class="st6" cx="1235.1" cy="204.7" r="4.9"/>
			<circle class="st6" cx="1200" cy="184.4" r="4.9"/>
			<circle class="st0" cx="1164.9" cy="204.7" r="4.9"/>
		</g>
	</g>
</g>
<line class="st3" x1="457.5" y1="215" x2="742.5" y2="215"/>
<line class="st3" x1="457.5" y1="225" x2="742.5" y2="225"/>
<line class="st3" x1="457.5" y1="235" x2="742.5" y2="235"/>
<line class="st3" x1="857.5" y1="215" x2="1142.5" y2="215"/>
<line class="st3" x1="857.5" y1="225" x2="1142.5" y2="225"/>
<line class="st3" x1="857.5" y1="235" x2="1142.5" y2="235"/>
<path class="st7" d="M780,130.7"/>
<path class="st8" d="M739.2,109.1c0,0,0,24.8,30.4,24.8c30.4,0,30.4,24.8,30.4,24.8"/>
<path class="st8" d="M860.8,109.1c0,0,0,24.8-30.4,24.8c-30.4,0-30.4,24.8-30.4,24.8"/>
<path class="st8" d="M1139.2,109.1c0,0,0,24.8,30.4,24.8c30.4,0,30.4,24.8,30.4,24.8"/>
<path class="st8" d="M1260.8,109.1c0,0,0,24.8-30.4,24.8s-30.4,24.8-30.4,24.8"/>
<line class="st3" x1="1257.5" y1="215" x2="1600" y2="215"/>
<line class="st3" x1="1257.5" y1="225" x2="1600" y2="225"/>
<line class="st3" x1="1257.5" y1="235" x2="1600" y2="235"/>
<g>
	<path class="st0" d="M751.3,350.8c-1.2-5.7-6.1-9.9-12.1-9.9c-4.8,0-8.9,2.7-10.9,6.7c-4.9,0.5-8.8,4.7-8.8,9.8
		c0,5.4,4.4,9.9,9.9,9.9h21.4c4.5,0,8.2-3.7,8.2-8.2C758.9,354.6,755.6,351.1,751.3,350.8z"/>
</g>
<g>
	<g id="Icon_1_">
		<g>
			<path class="st0" d="M931.1,340.7h-21.5c-1.4,0-2.5,1.1-2.5,2.5V360c0,1.4,1.1,2.5,2.5,2.5h8.2l-2.5,2.8v1.9h10.1v-1.9l-2.5-2.8
				h8.2c1.4,0,2.5-1.1,2.5-2.5v-16.8C933.6,341.9,932.5,340.7,931.1,340.7z M931.1,357.8h-21.5v-14.5h21.5V357.8L931.1,357.8z"/>
		</g>
	</g>
</g>
<g>
	<g id="Icon_2_">
		<g>
			<path class="st0" d="M812.2,365.1c1.6,0,3-1.3,3-3v-18.5c0-1.6-1.3-3-3-3H787c-1.6,0-3,1.3-3,3v18.5c0,1.6,1.3,3,3,3h-5.2
				c0,1.6,4.4,2.2,6.7,2.2h22.2c2.2,0,6.7-0.6,6.7-2.2H812.2z M787,343.6h25.2v18.9H787V343.6z M799.6,366.4c-0.8,0-1.5-0.7-1.5-1.5
				c0-0.8,0.7-1.5,1.5-1.5s1.5,0.7,1.5,1.5C801.1,365.8,800.4,366.4,799.6,366.4z"/>
		</g>
	</g>
</g>
<g>
	<g id="Icon_3_">
		<g>
			<path class="st0" d="M854.7,367.3h12.2c1.3,0,2.4-1.1,2.4-2.4v-21.7c0-1.3-1.1-2.4-2.4-2.4h-12.2c-1.3,0-2.4,1.1-2.4,2.4v21.7
				C852.3,366.2,853.3,367.3,854.7,367.3z M854.4,345.4h12.8v17.1h-12.8V345.4z"/>
		</g>
	</g>
</g>
<g>
	<g>
		<path class="st0" d="M692.2,348.9c-0.1,0-0.2,0-0.3,0.1l-0.1,0.1l-10.1,5.3l-0.2,0.1c0,0,0,0,0,0c-0.4,0.3-0.7,0.7-0.7,1.3v11
			c0,0.4,0.3,0.7,0.7,0.7c0.1,0,0.3,0,0.4-0.1c0,0,0,0,0,0l10.3-5.5l0,0c0.5-0.3,0.8-0.8,0.8-1.3v-10.9
			C692.9,349.2,692.6,348.9,692.2,348.9z"/>
		<path class="st0" d="M691.4,346l-10.7-4.8c0,0-0.6-0.3-1-0.3s-1,0.3-1,0.3L668,346c0,0-0.5,0.2-0.5,0.6c0,0.4,0.5,0.7,0.5,0.7
			l10.8,5.7l0.2,0.1c0.2,0.1,0.5,0.2,0.7,0.2c0.3,0,0.5-0.1,0.8-0.2l0.2-0.1l10.8-5.7c0,0,0.4-0.2,0.4-0.7
			C691.8,346.2,691.4,346,691.4,346z"/>
		<path class="st0" d="M678,354.4l-0.2-0.1l-10.1-5.3l-0.1-0.1c-0.1,0-0.2-0.1-0.3-0.1c-0.4,0-0.7,0.3-0.7,0.7v10.9
			c0,0.6,0.3,1,0.8,1.3l0,0l10.3,5.5l0,0c0.1,0.1,0.2,0.1,0.4,0.1c0.4,0,0.7-0.3,0.7-0.7v-11C678.7,355.2,678.4,354.7,678,354.4z"/>
	</g>
</g>
<path class="st8" d="M739.2,340.9c0,0,0-24.8,30.4-24.8c30.4,0,30.4-24.8,30.4-24.8"/>
<path class="st8" d="M860.8,340.9c0,0,0-24.8-30.4-24.8c-30.4,0-30.4-24.8-30.4-24.8"/>
<line class="st8" x1="800" y1="291.4" x2="800" y2="291.4"/>
<path class="st8" d="M830.4,316.1h59.5c30.4,0,30.4,24.8,30.4,24.8"/>
<path class="st8" d="M769.6,316.1h-59.5c-30.4,0-30.4,24.8-30.4,24.8"/>
<line class="st8" x1="800" y1="291.4" x2="800.6" y2="340.9"/>
<g>
	<path class="st0" d="M1150.8,351.1c-1.2-5.7-6.1-9.9-12.1-9.9c-4.8,0-8.9,2.7-10.9,6.7c-4.9,0.5-8.8,4.7-8.8,9.8
		c0,5.4,4.4,9.9,9.9,9.9h21.4c4.5,0,8.2-3.7,8.2-8.2C1158.4,354.8,1155.1,351.3,1150.8,351.1z"/>
</g>
<g>
	<g id="Icon_6_">
		<g>
			<path class="st0" d="M1330.6,340.9h-21.5c-1.4,0-2.5,1.1-2.5,2.5v16.8c0,1.4,1.1,2.5,2.5,2.5h8.2l-2.5,2.8v1.9h10.1v-1.9
				l-2.5-2.8h8.2c1.4,0,2.5-1.1,2.5-2.5v-16.8C1333.1,342.1,1332,340.9,1330.6,340.9z M1330.6,358h-21.5v-14.5h21.5V358L1330.6,358z
				"/>
		</g>
	</g>
</g>
<g>
	<g id="Icon_5_">
		<g>
			<path class="st0" d="M1211.7,365.3c1.6,0,3-1.3,3-3v-18.5c0-1.6-1.3-3-3-3h-25.2c-1.6,0-3,1.3-3,3v18.5c0,1.6,1.3,3,3,3h-5.2
				c0,1.6,4.4,2.2,6.7,2.2h22.2c2.2,0,6.7-0.6,6.7-2.2H1211.7z M1186.5,343.9h25.2v18.9h-25.2V343.9z M1199.1,366.6
				c-0.8,0-1.5-0.7-1.5-1.5c0-0.8,0.7-1.5,1.5-1.5c0.8,0,1.5,0.7,1.5,1.5C1200.6,366,1199.9,366.6,1199.1,366.6z"/>
		</g>
	</g>
</g>
<g>
	<g id="Icon_4_">
		<g>
			<path class="st0" d="M1254.2,367.5h12.2c1.3,0,2.4-1.1,2.4-2.4v-21.7c0-1.3-1.1-2.4-2.4-2.4h-12.2c-1.3,0-2.4,1.1-2.4,2.4v21.7
				C1251.8,366.4,1252.8,367.5,1254.2,367.5z M1253.9,345.6h12.8v17.1h-12.8V345.6z"/>
		</g>
	</g>
</g>
<g>
	<g>
		<path class="st0" d="M1091.7,349.2c-0.1,0-0.2,0-0.3,0.1l-0.1,0.1l-10.1,5.3l-0.2,0.1c0,0,0,0,0,0c-0.4,0.3-0.7,0.7-0.7,1.3v11
			c0,0.4,0.3,0.7,0.7,0.7c0.1,0,0.3,0,0.4-0.1c0,0,0,0,0,0l10.3-5.5l0,0c0.5-0.3,0.8-0.8,0.8-1.3v-10.9
			C1092.4,349.5,1092.1,349.2,1091.7,349.2z"/>
		<path class="st0" d="M1090.9,346.2l-10.7-4.8c0,0-0.6-0.3-1-0.3s-1,0.3-1,0.3l-10.7,4.8c0,0-0.5,0.2-0.5,0.6
			c0,0.4,0.5,0.7,0.5,0.7l10.8,5.7l0.2,0.1c0.2,0.1,0.5,0.2,0.7,0.2c0.3,0,0.5-0.1,0.8-0.2l0.2-0.1l10.8-5.7c0,0,0.4-0.2,0.4-0.7
			C1091.3,346.4,1090.9,346.2,1090.9,346.2z"/>
		<path class="st0" d="M1077.5,354.7l-0.2-0.1l-10.1-5.3l-0.1-0.1c-0.1,0-0.2-0.1-0.3-0.1c-0.4,0-0.7,0.3-0.7,0.7v10.9
			c0,0.6,0.3,1,0.8,1.3l0,0l10.3,5.5l0,0c0.1,0.1,0.2,0.1,0.4,0.1c0.4,0,0.7-0.3,0.7-0.7v-11
			C1078.2,355.4,1077.9,354.9,1077.5,354.7z"/>
	</g>
</g>
<path class="st8" d="M1138.7,341.1c0,0,0-24.8,30.4-24.8s30.4-24.8,30.4-24.8"/>
<path class="st8" d="M1260.3,341.1c0,0,0-24.8-30.4-24.8s-30.4-24.8-30.4-24.8"/>
<path class="st8" d="M1229.9,316.4h59.5c30.4,0,30.4,24.8,30.4,24.8"/>
<path class="st8" d="M1169.1,316.4h-59.5c-30.4,0-30.4,24.8-30.4,24.8"/>
<line class="st8" x1="1199.5" y1="291.6" x2="1200.1" y2="341.1"/>
</svg>
