<?xml version="1.0" encoding="utf-8"?>
<!-- Generator: Adobe Illustrator 19.2.1, SVG Export Plug-In . SVG Version: 6.00 Build 0)  -->
<svg version="1.1" id="Ebene_1" xmlns="http://www.w3.org/2000/svg" xmlns:xlink="http://www.w3.org/1999/xlink" x="0px" y="0px"
	 viewBox="0 0 222.9 260.5" style="enable-background:new 0 0 222.9 260.5;" xml:space="preserve">
<style type="text/css">
	.st0{fill:#010202;}
	.st1{fill:#4CA9DF;}
	.st2{fill:#3176A9;}
	.st3{fill:#FFFFFF;}
	.st4{fill:#3076A8;}
	.st5{fill:#95A1A1;}
	.st6{fill:#96A1A0;}
	.st7{fill:#96A1A1;}
	.st8{fill:#69C2BD;}
	.st9{fill:#4CA8DF;}
	.st10{fill:#69C2BE;}
	.st11{fill:#3075A8;}
	.st12{fill:#95A0A0;}
	.st13{fill:#3078AA;}
	.st14{fill:#4AA8DF;}
	.st15{fill:#DADB23;}
	.st16{fill:#95A09F;}
	.st17{fill:#FEFEFE;}
	.st18{fill:#8E9999;}
	.st19{fill:#94A0A0;}
	.st20{fill:#FCFCFC;}
	.st21{fill:#60C0C2;}
	.st22{fill:#2D7AAB;}
	.st23{fill:#67C1BE;}
	.st24{fill:#F9FAFA;}
	.st25{fill:#8F9C9B;}
	.st26{fill:#48A6DD;}
	.st27{fill:#FBFBFB;}
	.st28{fill:#8F9A99;}
	.st29{fill:#2F77A9;}
	.st30{fill:#F9F8F8;}
	.st31{fill:#F6F6F6;}
	.st32{fill:#2D6FA0;}
	.st33{fill:#2F73A4;}
	.st34{fill:#929D9D;}
	.st35{fill:#2E74A5;}
	.st36{fill:#7C8584;}
	.st37{fill:#F2F2F2;}
	.st38{fill:#F4F4F4;}
	.st39{fill:#42A6D9;}
	.st40{fill:#869191;}
	.st41{fill:#F1F1F1;}
	.st42{fill:#818A8A;}
	.st43{fill:#848E8E;}
	.st44{fill:#EFF0EF;}
	.st45{fill:#F2F3F3;}
	.st46{fill:#7D8686;}
	.st47{fill:#889292;}
	.st48{fill:#E5E5E5;}
	.st49{fill:#798383;}
	.st50{fill:#F8F7F7;}
	.st51{fill:#666F6F;}
	.st52{fill:#737D7C;}
	.st53{fill:#798281;}
	.st54{fill:#D3D3D3;}
	.st55{fill:#545B5B;}
	.st56{fill:#6D7574;}
	.st57{fill:#A9A9AA;}
	.st58{fill:#444A4A;}
	.st59{fill:#B4B8B6;}
	.st60{fill:#B7B7B7;}
	.st61{fill:#69C2BF;}
	.st62{fill:#040607;}
	.st63{fill:#050606;}
	.st64{fill:#080809;}
	.st65{fill:#48ABE1;}
	.st66{fill:#317FAF;}
	.st67{fill:#4BAAE0;}
	.st68{fill:#4AABE1;}
	.st69{fill:#46ADE2;}
	.st70{fill:#47ACE2;}
	.st71{fill:#45AEE3;}
</style>
<g>
	<path class="st0" d="M144.9,245c-0.4,0.5-0.6,1.1-0.7,1.7c-0.2,1.7-1.1,3.1-2.2,4.4c-1.5,1.9-3.4,3.4-5.4,4.8
		c-3.8,2.7-8.2,3.4-12.6,4.1c-3.2,0.5-6.3,0.3-9.5,0.5c-2.1,0.1-4.2,0.2-6.3-0.2c-4.8-0.8-9-2.7-12.7-5.9c-1.1-1-2.3-1.9-3.3-2.9
		c-2.7-2.5-4.5-5.6-5.9-8.9c-0.2-0.5-0.4-1-0.5-1.4c-0.1,0-0.2-0.1-0.2,0c-3.3,1.7-6.7,1.2-10.1,0.6c-2-0.4-4-0.7-6-1.3
		c-1-0.4-1.7,0.4-2.4,1.2c-1.7,1.9-3.5,3.8-5.5,5.5c-1.8,1.5-3.7,2.7-5.8,3.6c-1.9,0.9-3.6,2-5.5,2.8c-2.8,1.2-5.8,1.9-8.8,2.3
		c-2.1,0.3-4.3,0.6-6.4,1c-6.5,1.4-12.7,0.6-19-1.4c-2.8-0.9-5.2-2.6-7.6-4c-1.8-1-3.2-2.5-4.1-4.5c-0.6-1.5-1.5-2.8-2.2-4.3
		C0,238.4,0,234.2,1.6,230c0.7-1.8,1.6-3.5,3.3-4.7c0.8-0.6,1.7-1,2.8-0.9c1.6,0,3.2-0.1,4.6,0.8c2.3,1.4,3.3,3.5,2.6,6.1
		c-0.3,1.1-0.8,2.1-1.2,3.1c0.9,1.2,2.3,1.1,3.4,1.4c1.1,0.3,2.3,0.4,3.5,0.4c1.5-0.1,3,0.6,4.5,0.3c2.4-0.5,4.9-0.3,7.3-1.2
		c13.3-3,11.9-40,12-41.9c0-0.8-13.4,0.5-24.1-12.5c-1.5-1.7-2.6-3.7-2.9-6c-0.4-3.1-1.6-6.1-1.8-9.2c0-0.6-0.4-0.9-0.9-1
		c-1.9-0.3-2.7-1.5-2.9-3.3c-0.1-0.5-0.3-0.9-0.8-1.1c-0.8-0.4-1.4-1.1-2.1-1.6c-1.5-1-2.1-2.5-1.9-4.3c0.1-0.5,0.1-1.1,0.2-1.6
		c0.1-0.9-0.2-1.6-1-2.1c-1.2-0.8-1.8-1.8-1.6-3.3c0.1-0.9-0.3-1.6-0.7-2.3c-1.3-2.1-1.6-4.4-0.9-6.8c0.3-1.2,0.5-2.5-0.7-3.5
		c-0.7-0.6-0.9-1.7-0.8-2.6c0.2-1.6-0.3-3.1-0.9-4.5c-0.4-1.1-0.6-2.1-0.6-3.3c0-1.1,0.1-2.1,0-3.2c-0.1-1.6,0.1-3.1,0.8-4.5
		c0.6-1.3,0.6-2.6,0.2-3.9c-1-3.2-1-6.4,0.1-9.6c0.1-0.4,0.1-0.9,0.1-1.4c0-2.5,0-5.1,0-7.6c0-1.2,0.2-2.3,0.8-3.2
		c0.6-0.9,0.7-1.8,0.7-2.9c0-1.7,0.4-3.2,1.4-4.6c1-1.4,1.4-3.1,1.5-4.8c0.3-3,1.6-5.5,3.2-7.9c1-1.5,1.8-3.1,2.2-5
		c0.3-1.6,1.3-2.9,2.5-4c0.9-0.9,1.5-1.8,1.9-2.9c0.5-1.4,1.2-2.6,2.3-3.5c1.8-1.5,2.9-3.5,4.2-5.4c1.5-2.1,3.5-3.8,5.7-5.2
		c0.9-0.5,1.8-0.9,2.4-1.7c1.9-2.4,4.7-3.6,7.3-4.9c0.8-0.4,1.6-0.9,2.3-1.6c0.7-0.9,1.7-1.4,2.8-1.7c0.5-0.1,1-0.3,1.3-0.9
		c1.1-2.2,2.8-4,4.1-6c2.3-3.4,5.2-6.4,8.3-9.2c3.1-2.8,6-5.6,9.6-7.8c3.3-2,6.6-4.2,10.2-5.6c3.8-1.6,7.8-2.9,12-3.5
		c1-0.2,2.1-0.4,3.1-0.6c6.8-1.5,13.7-1.3,20.6-0.8c3.2,0.3,6.4,1,9.6,1.5c2,0.4,3.8,1.2,5.7,1.9c2.6,0.9,5.1,1.9,7.4,3.2
		c0.5,0.3,1,0.4,1.4,0.8c2.6,2.1,5.5,3.7,8.2,5.6c2.2,1.6,4.1,3.6,5.9,5.6c2.3,2.4,4.7,4.8,6.7,7.6c2.5,3.6,4.9,7.3,6.8,11.4
		c2.9,6.1,4.3,12.6,6.1,19c0.2,0.8,0.4,1.1,1.3,1.2c3,0.2,5.9,0.9,8.9,1c1.1,0,2,0.6,2.9,1.2c1.2,0.8,0.7,2,0.7,3.1
		c0,0.9-0.7,1.4-1.6,1.6c-0.4,0.1-0.8,0.1-1.2,0.3c-0.4,0.1-0.5,0.4-0.5,0.8c0.1,4-0.4,7.8-1.6,11.6c-0.8,2.5-1.1,5.1-2.3,7.4
		c-0.7,1.3-1.5,2.6-2.2,3.8c-0.5,0.9-0.7,1.7-0.7,2.7c1,10.6,2.1,23.7,0.3,36.3c-2.3,15.2-2.6,19.5-5.4,35.2
		c-3.8,19.3,0.8,33.8,1.4,38c0.2,1.7,1.1,3.1,1.8,4.6c1.6,3.2,3.2,6.3,5.7,8.9c0.6,0.6,1.3,1,2,1.4c3.1,1.9,6.3,3.4,9.7,4.6
		c1.7,0.6,3.6,0.8,5.3,1.2c0.7,0.2,1.2-0.1,1.4-0.7c0.6-2,2.3-3.1,3.6-4.5c0.6-0.6,1.6-0.8,2.5-0.8c1.1,0,1.9-0.4,2.4-1.6
		c1.2-2.8,3.6-3.9,6.5-4.2c2.1-0.2,4.1,0.1,6,1.1c1.3,0.7,2.5,1.6,3.2,2.9c2.1,3.7,3.6,7.7,3.1,12c-0.3,3-1.3,5.9-3.9,8
		c-1.1,0.9-2.2,1.8-3.6,2.2c-0.7,0.3-0.9,0.9-1.2,1.5c-1.7,3-3.4,6-6.1,8.4c-0.9,0.8-1.8,1.5-2.7,2.2c-1.4,1-15.1,8.5-31.2,6.6
		c-4.5-0.5-8.9-1.5-13.2-3c-0.6-0.2-1.3-0.3-1.9-0.4c-1.3-0.3-2.6-0.6-3.8-1.3C151.9,248.4,148.5,246.5,144.9,245z"/>
	<path class="st1" d="M198,223.5c1.7-4,5.4-5.8,9.5-4.5c2.8,0.8,4.7,3.3,4.8,6.2c0,2.2,0,4.4,0,6.5c0,1.9-0.8,3.5-1.6,5.2
		c-1.3,2.6-3,4.9-5.1,6.9c-5.6,3.1-11.3,5-17.9,4.3c-4.6-0.5-9.2-1-13.9-1.5c-3.9-0.4-7.4-1.8-11.1-3c-6-2-11.5-5.1-17.2-7.9
		c-0.8-0.4-1.5-0.9-1.8-1.8c-1-2.2-2.1-4.3-3.7-6.2c-1.9-2.2-4.1-3.9-7.1-4.3c-0.5-0.1-0.9-0.3-1.3-0.4c-2.7-1.6-5-3.6-6.3-6.5
		c-0.4-1.5-0.8-3-1.5-4.3c-1-1.8-1.1-3.8-1.4-5.8c-0.4-2.7-0.2-5.4-0.3-8.1c0-1.8,0.2-3.5,0.5-5.3c0.1-0.9,0.2-1.7-0.2-2.7
		c-0.6,0.3-0.5,0.9-0.6,1.2c-0.4,2.9-1.5,5.7-1.5,8.7c0,5.1-0.6,10.2,0.7,15.1c0.7,2.6,1.7,5.1,2.8,7.6c0.5,1.1,0.5,1.1-0.6,1.4
		c-5,1.6-8.8,6.5-8.6,11.7c0.1,3.1,2.2,5.8,5.2,6.6c2,0.5,3.9,1,5.9,0c1.1-0.6,2.2-1.2,3.2-1.8c2.6-1.6,2.6-5.3-0.1-6.9
		c-0.6,0.3-1.2,0.1-1.7,0.1c-2.3-0.1-3.4,0.6-4.3,2.7c-0.2,0.5-0.5,0.9-1.1,0.9c-2.2,0-4.5-2.6-4.2-4.9c2-4.7,5.7-6.7,10.6-6.9
		c1.5-0.1,2.9,0,4.4,0.4c4.8,1.3,7.1,4.7,8.1,9.2c0.2,1,0.3,2,0.4,3c0.8,4.4-0.9,7.6-4.3,10.3c-4.8,3.7-10.1,5.5-16.2,4.5
		c-0.4-0.1-0.8-0.1-1.2,0c-9.9,1.2-17.8-3.1-24.9-9.5c-1.2-1.1-1.9-2.7-2.7-4.2c-1.2-2.4-2.5-4.7-4-6.9c-0.8-1.1-1.5-2.4-1.8-3.8
		c-0.9-3.4-2.1-6.6-3-10c-0.3-0.7-0.3-1.5-0.3-2.3c0-2.7-0.1-5.4,0-8.2c0.2-7.2-0.4-14.3-0.5-21.4c0-1.6-0.2-3.2-0.3-4.8
		c-0.6,0.1-0.6,0.4-0.6,0.7c-0.4,6-0.3,12-0.1,18.1c0.1,1.8,0,3.7-0.4,5.4c-0.4,1.8-0.6,3.6-0.8,5.4c-0.2,2.1-1,4-1.8,5.9
		c-0.4,1.1-0.9,2.2-1.2,3.3c-1,4-2.9,7.6-5.4,10.9c-2.4,3.1-5.3,5.8-7.8,9c-1,1.3-2.3,2.2-3.6,3.1c-2.6,1.9-4.9,4.3-7.7,5.8
		c-1.6,0.9-3.2,1.5-4.9,1.8c-2.7,0.5-5.3,1.2-7.9,1.6c-2.1,0.3-4.4,0.3-6.5,0.4c-4.1,0.6-7.8-0.1-11.4-2.2c-2.6-1.6-5.2-3.2-7.9-4.8
		c-3.2-1.9-4.5-5-5.1-8.5c-0.2-1,0.5-1.5,1.3-1.9c1.2-0.5,2-0.1,2.9,0.7c2,1.6,4.4,2.2,6.9,2.3c1.8,0.1,3.6,0,5.5-0.3
		c2-0.3,4-0.3,5.9-0.7c1.1-0.2,2.1-0.8,3.2-0.8c0.9,0.3,1.8,0.1,2.5-0.4c3.5-2.3,6.7-4.8,9.8-7.5c3.4-3,4.7-7.1,6-11.2
		c1.1-3.8,1.3-7.7,1.7-11.5c0.4-3.8,1.1-7.5,1.5-11.2c0.1-1.2,1-1.7,1.8-2.3c1.8-1.3,3.6-2.4,4.8-4.4c1.1-1.8,1.8-3.5,1.3-5.6
		c0.1-0.1,0.1-0.2,0.2-0.3c2.4-2.2,4.1-5,6.2-7.5c3.3-3.9,4.9-8.4,5.6-13.4c0.5-3.2,0.3-6.3-0.6-9.5c-0.4-1.2-1.4-2.2-1.5-3.4
		c0-1.1,0.8-2.2,0.8-3.4c0-1,0.3-1.7,1.1-2.5c1.1-1.1,1.4-2.7,1-4.1c-0.5-1.9-0.9-3.9-2.6-5.3c-0.3-0.3-0.5-0.7-0.6-1
		c-0.7-2.5-2-4.7-3.1-7.1c-1.1-2.7-2.8-5-4.3-7.5c-1.4-2.4-3.9-3.9-6.7-4.6c-1.8-0.4-3.5-0.8-5.3-1.2c-1.1-0.3-1.3-1.2-1.2-2.1
		c0.8-5.9-0.5-11.8,0-17.7c0.1-2-0.3-3.9-0.4-5.8c-0.2-5,0.2-9.9,1.2-14.8c1-5.5,1-11,1.7-16.5c0.6-5.1,1.4-10.2,3-15.1
		c0.1-0.4,0.3-0.9,0.4-1.4c1-6.9,5-12.1,9.4-17.1c1.7-1.9,3.6-3.4,5.7-4.8c2.1-0.2,4.2,0,6.3,0.3c1.4,0.1,2.8,0.1,4.2,0.1
		c1,0,1.1-0.4,1-1.5c-0.3-2.6-1.5-3.7-4.1-3.3c-0.5,0.1-1.1,0-1.3-0.6c0.7-1,1.8-0.5,2.7-0.9c0.6-0.3,1.3-0.5,1.9-0.9
		c2.5-0.5,4.9,0.3,7.3,0.2c0.4,0,0.9,0.3,1.2-0.1c0.4-0.5-0.1-0.9-0.3-1.3c-1.1-1.6-2.2-3.2-3.1-4.9c-0.2-0.4-0.6-0.7-0.5-1.3
		c1.8-0.6,3.6-1,5.4-1.2c4-0.5,8-0.4,11.9-0.2c2.7,2.3,6.1,2,9.2,2.7c1.1,0.2,2.2,0.5,3.3,0.6c0.3-0.5-0.2-1,0-1.4
		c3.8,0.8,7.5,1.7,11,3.4c0.6,0.3,1.2,0.5,1.7,0.8c1.4,1.2,2.6,2.4,3.4,4c0.3,0.7,1,1.2,1.7,1.5c2.8,1.4,5.7,2.6,8.4,4.1
		c1.5,0.8,2.5,2.1,3.7,3.3c3.2,3.5,6.3,7.1,8.7,11.1c2.4,4,4.5,8.1,6.4,12.4c1.6,3.6,2.3,7.3,3.1,11c0.4,1.7,0,2-1.8,1.8
		c-3.8-0.2-7.7-0.1-11.5,0.3c-1.7,0.2-3.4,0.1-5.1,0.3c-3.1,0.3-6,1.4-8.7,2.9c-0.7,0.4-1.1,0.4-1.4-0.3c-0.7-1.5-2.2-1.8-3.6-1.9
		c-2.2-0.1-4.5-0.2-6.7,0.3c-1.2,0.3-2.1,0.5-2.4,1.9c-0.1,0.5-0.6,0.8-1.2,0.8c-0.9,0-1.8,0-2.6-0.3c-1.7-0.5-3.5-0.4-5.3-0.4
		c-3.1,0.1-6.2,0-9.4,0.1c-5.9,0.3-11.6,1.7-17.5,2.4c-2.6,0.3-5.1,0.6-7.6,1.3c-0.9,0.2-1.6,0.6-2.4,0.9c-0.2,0.1-0.3,0.2-0.3,0.4
		c0.2,1.7-0.2,2.9-2,3.8c-1.9,1-1.7,3.4,0.3,4.5c1.1,0.6,1.8,1.5,2.2,2.6c0.6,1.8,0.9,3.7,1.4,5.5c2.2,8.6,7.7,14.2,16,16.6
		c4.5,1.3,9.3,1.4,13.9-0.5c0.6-0.2,1.2-0.5,1.8-0.7c5.6-1.7,9.6-5,11.9-10.5c1.3-3.2,2-6.4,2-9.8c0-2.1,0.5-4.2,0.7-6.3
		c1.6-1,3.1-0.1,4.6,0.1c2.4,0.3,2.4,0.5,2.9,3c1.5,7.1,4.1,13.6,9.8,18.4c3.9,3.2,8.5,4.5,13.6,3.8c1.5-0.2,3-0.4,4.5-0.8
		c2.3-1.1,4.5-2.3,6.9-3.5c0.4,0.6,0.7,1.8,0.7,2.3c2.7,27.3-2.6,46.1-3,49c-0.6,4.4-1.1,8.8-1.6,13.2c-0.8,6.1-3.8,22,0.4,42.5
		c0.4,2.5,0.6,5.1,1.6,7.6c0.8,1.9,1.8,3.7,3.2,5.2c1.9,2.1,4.2,3.7,5.9,6c0.7,1,1.8,1.5,2.9,2c3.2,1.7,6.7,2.9,10.3,3.8
		c1.3,0.3,2.6,0.8,3.9,1c0.8,0.2,0.8,0.8,0.9,1.3c0.2,1.4-0.9,1.7-1.7,2.1c-3.6,1.6-7.2,1.4-10.6-0.3c-3.6-1.8-7.3-3.5-10.8-5.6
		c-1.9-1.5-3.3-3.3-4.5-5.4c-1.2-2.1-2.8-3.9-3.9-6.1c-1.4-3-2.9-6-4.7-8.9c-0.2-0.3-0.4-0.6-0.4-1c-0.8-3.9-2.9-7.5-3.5-11.4
		c0-0.1-0.2-0.1-0.3-0.2c-0.6,0.4-0.4,0.9-0.3,1.4c0.6,3.1,1,6.3,1.8,9.3c0.5,1.8,1.1,3.5,1.9,5.1c0.7,1.3,1.4,2.6,1.8,4
		c1.1,3,2.9,5.7,4.3,8.5c1.9,3.7,4.9,6.5,8.3,8.8c3.6,2.4,7.1,4.9,11.1,6.6c1.4,0.6,2.9,1,4.4,1c2.1,0,4.3,0,6.3-0.8
		c2.3-0.9,4.4-2,6.3-3.5c1.8-1.4,2.4-3.5,1.7-5.3c-0.1-0.2-0.2-0.4-0.4-0.6c-1-1.5-1.9-1.5-2.7,0.1c-0.3,0.7-0.6,1.4-1.5,0.8l0,0
		C197.8,224.7,197.8,224.1,198,223.5z"/>
	<path class="st2" d="M73.9,17.6c-0.6,0.9-1.6,1.4-2.4,2.1c-2.9,2.3-5.1,5.2-7.2,8.2c-0.3,0.5-0.8,0.9-1.2,1.3
		c-0.5,0.5-0.9,1.1-1.2,1.7c-1,2.3-1.7,4.8-2.4,7.2c-0.8,2.8-1.8,5.6-2.3,8.5c-0.5,3.1-1.2,6.1-1.5,9.2c-0.3,3.3-0.6,6.7-0.7,10
		c-0.1,1.8-0.5,3.6-0.8,5.4C53.1,77,52.6,82.8,53,88.5c0.3,3.5,0.2,7.1,0.2,10.6c0,2.4,0.5,4.8,0.4,7.2c0,1.5-0.4,3-0.4,4.6
		c0,0.7,0.7,1.6,1.2,2c-1.7-0.6-3.8-0.6-5.5-0.6c-3.8-0.1-7.1,0.4-10.3,2.3c-0.1-0.1-0.3-0.2-0.3-0.2c0.1-3.7-1-7.2-1.6-10.8
		c-1-5.9-2-11.9-1.5-17.9c0.5-27.4,6.3-39.8,7-42.1c1.1-3.4,2.9-6.6,5-9.5c1.7-2.5,3.6-4.8,5.3-7.3c1.5-2.1,3.3-3.8,4.9-5.8
		c0.7-0.9,1.6-1.6,2.5-2.3c1.6-1.3,3.1-2.5,4.7-3.7c1.3,1.8,3.2,1.8,5.2,1.9C71.2,17.1,72.6,16.6,73.9,17.6z"/>
	<path class="st1" d="M61.5,135.3c-1,1.5-1.1,3.1-0.6,4.7c0.2,0.7,0.5,1.3,0.8,2c0.3,0.8,0.2,1.3-0.5,1.8c-1.7,1-3.3,2.1-4.9,3.1
		c-1.2,0.7-2.3,1.6-3.3,2.7c-2,2.3-4.3,4.2-6.4,6.4c-2.9,3-4.5,6.5-3.9,10.7c0.1,0.4,0.3,0.8-0.1,1.1c-0.3,0.2-0.7-0.1-0.9-0.3
		c-0.7-0.6-1.3-1.7-2.3-0.5c-0.8,1-0.4,2.1,0.4,3c2.2,2.5,5.2,3,8.3,3c1,0,2.1,0.1,3.1-0.2c1.8-0.4,3.5-1.2,5.2-2
		c1.5-0.7,2.7-1.8,3.8-3.1c2.6-3.2,4.8-6.5,5.9-10.5c0.4-0.5-0.3-1.6,0.9-1.6c1.5,0,1.6,1.5,2.3,2.6c0.6-0.9,0.5-1.8,0.5-2.7
		c0-0.9-0.1-1.8,0.4-2.6c1.1-0.8,1.6-0.7,1.9,0.6c0.4,1.8,0.9,3.6,0.8,5.6c-0.2,4.4-1.3,8.5-3.5,12.2c-0.4,0.7-0.8,1.4-1.5,1.9
		c-0.8,0.1-0.7-0.5-0.6-1c0.1-0.9,0.3-1.8,0.7-2.7c-2.8,5.4-7.6,8.6-12.5,11.5c-4.6,2.7-9.9,3.3-15.3,2.6c-1.3-0.2-2.7-0.6-4-0.9
		c-4.3-1.1-7.3-3.8-8.6-8.1c-0.1-0.3-0.2-0.7-0.3-1c-4.2-11.1-1.9-21.7,2.9-31.9c1.5-3.3,4.5-5.9,7.8-7.8c0.7-0.4,1.5-0.8,2.1-1.3
		c1-0.8,1.7-1.7,1.1-3.1c-0.5-1.3-1.4-2.2-3-2c-0.5,0-1.3,0.4-1.6-0.3c-0.3-0.6,0.3-1.1,0.7-1.6c1.4-2.1,3.6-2.7,6-3
		c8.8-1.1,15.3,5.7,18.4,10.9C62.1,134.2,62.1,134.8,61.5,135.3z"/>
	<path class="st2" d="M61.5,135.3c0.2-0.5,0.2-0.9-0.1-1.5c-2.6-4-5.8-7.3-10.2-9.5c-3.4-1.7-6.8-1.4-10.3-0.6c-2,0.4-3,2-4.1,3.6
		c0.6-0.1,1.1-0.1,1.6-0.2c1.4-0.2,2.3,0.4,3,1.7c0.9,1.9,0.8,2.6-0.7,4c-0.7,0.6-1.5,1-2.2,1.4c-2.2,1.2-4,2.9-5.5,4.8
		c0,0-0.1,0.1-0.1,0.1c-3.5,3.4-4.7,7.9-5.7,12.5c-0.6,2.7-1.1,5.4-1.4,8.2c-0.3,3.3-0.3,6.6,0.8,9.8c0.7,2.1,1.2,4.2,2.1,6.2
		c1.4,3.5,4.2,5.6,7.8,6.5c1,0.3,2.1,0.4,3.1,0.7c2.7,0.8,5.5,0.4,8.2,0c1.2-0.2,2.3-0.5,3.5-0.7c2.7-0.5,5-2,7.1-3.7
		c0.8-0.6,1.6-1.2,2.5-1.7c2.2-1.6,4.2-3.5,5.6-5.8c0.6-1,1.2-2.1,2.2-2.8c0.5,0.7,0.1,1.1-0.1,1.5c-0.6,0.9-0.6,2-0.8,3
		c0,0.1,0.2,0.3,0.3,0.4c-1.3,2.1-2.7,4.3-4.5,6.1c-1.9,2-3.9,3.7-6.3,5.1c-0.9,0.5-1.9,1-2.7,1.6c-3.3,2.2-6.9,3.4-11,3.1
		c-2.2-0.2-4.5,0-6.7-0.7c-1.7-0.6-3.2-1.3-4.8-2.3c-2-1.2-3.9-2.5-5.7-3.9c-1.6-1.2-2.9-2.6-4.2-4.1c-1.2-1.4-1.7-3.1-2-4.8
		c-0.1-0.4,0-0.9-0.2-1.2c-1.6-3.7-1.5-7.7-2.2-11.6c-0.1-0.5-0.1-1.1,0-1.6c0.6-3.2,1.1-6.5,2.1-9.7c0.8-2.4,2.1-4.6,3.1-7
		c1.6-3.9,4.3-7.1,6.6-10.5c0.2-0.3,0.5-0.7,0.7-1c1.6-2.9,4.1-5.1,6.7-7c3-2.2,6.4-3.3,10.4-2.7c4.8,0.6,8.1,3.2,11.2,6.5
		c1,1.1,2.1,2.1,2.9,3.3c0.5,0.7,0.8,1.5,1.1,2.2C62.8,134.1,62.6,134.9,61.5,135.3z"/>
	<path class="st3" d="M172.5,63.9c1.3,0.7,1.7,1.7,1.8,3.2c0.1,4.4-0.3,8.7-1.3,13c-0.8,2.9-2.1,5.7-4.1,8c-1.9,2.3-4.5,3.3-7.5,3.4
		c-3,0-6-0.3-8.8-1.5c-0.7-0.3-1.1-0.8-1.7-1.2c-2.9-1.8-4.3-4.8-5.9-7.6c-0.6-1.2-0.7-2.5-0.9-3.8c-0.3-1.7-0.6-3.4-0.6-5.1
		c0-1.1-0.1-2.1-0.5-3.1c0.1-1.4,1.3-1.4,2.2-1.6c4.7-0.9,9.4-2,14.3-2.3c3.2-0.2,6.2-1.2,9.4-1.5C170,63.5,171.3,63.5,172.5,63.9z"
		/>
	<path class="st3" d="M122.1,68.9c0.5,3.9,0.7,7.9-0.2,11.8c-1.5,6-4.5,10.9-10.5,13.3c-2.8,1.1-5.6,0.8-8.4-0.2
		c-0.9-0.3-1.8-0.6-2.6-1c-3.9-1.8-6.8-4.7-8.7-8.5c-1.2-2.4-2.1-5-2.3-7.7c-0.2-3.5-0.2-3.6,3-4.4c8.4-2,16.9-3.6,25.6-3.4
		C119.4,68.8,120.8,68.1,122.1,68.9z"/>
	<path class="st2" d="M63.6,183.5c1,1.7,0.9,3-0.2,4.5c-0.1,0.1-0.2,0.2-0.2,0.3c-1.1,2.8-3.6,4.3-5.9,5.9c-0.8,0.5-1.1,1-1.2,2
		c-0.3,2.1-0.4,4.2-0.8,6.3c-0.5,2.4-0.8,4.8-0.8,7.2c0,3.7-1,7.1-1.9,10.5c-0.5,1.9-1.1,3.7-2.1,5.4c-1.5,2.5-3.3,4.8-5.7,6.4
		c-2.5,1.7-4.7,3.8-7.2,5.4c-0.7,0.4-1.4,0.7-2.1,0.9c-0.6,0.2-1,0-1.3-0.6c3.8-1.7,5.8-5,7.7-8.4c5.6-6.9,4.8-37.3,5.8-37.3
		c1.7-0.2,3.1-1,4.6-1.7c1.7-0.7,3.3-1.5,5-2.3C59.7,186.9,61.5,185,63.6,183.5z"/>
	<path class="st2" d="M143.8,233.9c0.8,1,2,1.5,3.1,2c2.5,1.2,4.8,2.5,7.3,3.7c4.2,2,8.6,3.6,13,5c3.5,1.2,7.1,1.4,10.7,2.1
		c2.9,0.5,5.8,0.7,8.8,0.8c1.9,0.1,3.9,0.2,5.8,0.3c2.5,0.1,4.9-0.7,7.1-1.7c1.9-0.9,3.9-1.7,5.9-2.2c-10.7,7.8-22.9,9.6-35.8,6.5
		c-3.6-1.2-7.4-2-11.1-3.1c-0.3-0.1-0.7-0.1-1-0.3c-3.6-1.8-7.3-3.4-10.6-5.7c0,0-0.1-0.1-0.2-0.1c-1.5-0.6-2.4-1.6-2.2-3.5
		c0.1-0.8-0.5-1.7-0.8-2.5C143.8,234.8,143.8,234.3,143.8,233.9z"/>
	<path class="st2" d="M82.8,218.9c0.5,0.4,0.7,1.1,0.9,1.7c0.7,2.2,1.5,4.4,2,6.6c0.6,2.2,1.5,4.2,2.8,6c1.2,1.6,2.2,3.3,3,5.2
		c1.8,4.5,5.2,7.5,9.3,9.8c2.4,1.4,4.8,2.4,7.4,3.3c2.8,1.1,5.7,1.6,8.6,1.3c2.1-0.2,4.2,0,6.3,0c4.8,0.2,9-1.4,12.8-4.4
		c1.3-1,2.5-2.1,3.5-3.5c1.6-2.1,1.5-4.4,1.6-6.8c0.6,3.6,0.6,7-2.1,9.9c-1.4,1.5-2.7,3-4.3,4.2c-1.3,1-2.7,1.7-4.2,2.2
		c-3.7,1.2-7.6,1.8-11.5,1.9c-1.5,0-3,0.2-4.6,0.4c-4.3,0.6-8.4,0.1-12.3-2.1c-2.8-1.6-5.1-3.8-7.6-5.8c-1.2-0.9-2.2-2.3-3-3.7
		c-1.7-2.9-3.2-5.8-3.9-9.2c-0.6-3.2-1.8-6.3-2.9-9.5c-0.7-2.1-1.2-4.3-1.9-6.5C82.7,219.9,82.7,219.4,82.8,218.9z"/>
	<path class="st2" d="M111.5,99c-0.1,0.3-0.4,0.6-0.8,0.7c-2.7,0.6-5.3,1.6-8.1,0.8c-0.3-0.1-0.6-0.1-0.9-0.1
		c-3.4,0.3-6.3-1.1-9.3-2.4c-1.5-0.7-2.6-1.8-3.8-2.9c-0.7-0.6-1.3-1.4-2-2c-3.1-2.5-4.4-6-5.4-9.7c-0.6-2.1-0.8-4.4-1.7-6.5
		c-0.3-0.8-0.7-1.5-1.6-1.7c-1-0.3-1.9-0.7-2-1.9c-0.2-1.5,0.1-3,1.5-3.5c1.7-0.7,2.4-1.7,2.2-3.4c0-0.1,0.2-0.2,0.4-0.3
		c0,0.8-0.1,1.5-0.1,2.3c0,1.9,0.7,2.8,2.6,3c0.8,0.1,1.3,0.3,1.1,1.2c-0.4,2.6,0.6,5,1.2,7.4c0.7,2.6,1.8,5.1,2.9,7.6
		c0.6,1.4,1.5,2.8,2.5,4c2.6,3.1,5.6,5.5,9.5,6.7c2.8,0.9,5.5,1,8.3,1.1C109.3,99.5,110.4,99.2,111.5,99z"/>
	<path class="st2" d="M9.7,236.4c-1,0.8-1,1.7-0.7,2.8c0.7,2.5,1.6,4.9,3.9,6.5c0.5,0.4,1,0.8,1.6,1c0.8,0.3,1.5,0.8,2.3,1.3
		c3.1,2.1,6.3,3.9,9.7,5.3c0.7,0.3,1.4,0.3,2.1,0.4c1.4,0,2.8,0,4.2,0c-0.4,0.5-0.9,0.5-1.4,0.5c-2.6,0.4-10.2,0.1-13.2-1.2
		c-4.5-2.1-8.7-4.7-11.4-9.1c-1-1.6-2-3.1-2.5-4.9c-0.5-1.9-0.5-3.9-0.4-5.9c0.1-1.5,0.5-2.8,1.4-3.9c1.1-1.4,2.6-2.2,4.4-2.1
		c0.3,0,0.6,0.1,0.8,0.3c-0.5,0.5-0.2,0.9-0.1,1.4c0.4,1.9,0.1,2.8-1.8,3.6c-0.9,0.4-0.8,1.1-1,1.7c-0.4,0.2-1-0.7-1.4,0.2
		c-0.2,0.6,0.2,1.1,0.7,1.5C7.7,236.4,8.7,236.5,9.7,236.4z"/>
	<path class="st3" d="M43.2,115.2c2.9-0.8,5.9-0.8,8.9-0.8c3.4-0.1,6.3,1.2,9.2,2.8c1.5,0.8,2.5,2.1,3.4,3.5
		c2.3,3.7,4.4,7.5,5.6,11.7c0.4,1.2,0.6,2.4,1,3.5c0.3,0.7,0.1,1.5-0.2,2.3c-0.2,0.6-0.4,0.9-1,0.9c-0.6,0-1.1,0-1.2-0.9
		c-0.1-0.5-0.4-1-0.7-1.4c-1.6-1.6-2.3-3.7-2.9-5.8c-0.1-0.3-0.2-0.6-0.3-0.8c-0.8-1.6-1.5-3.3-2.3-4.9c-1.9-4.1-5.2-6.7-9.3-8.1
		C50,116.1,46.7,115.2,43.2,115.2z"/>
	<path class="st2" d="M122.1,68.9c-1.5,0.3-2.9,0.2-4.4,0.2c-3.8,0-7.5,0.6-11.3,0.9c-4.7,0.4-9.1,1.9-13.7,2.6
		c-0.5,0.1-1,0.3-1.5,0.5c-1.9,0.7-1.9,0.7-1.8,2.7c0,0.2,0,0.5,0,0.7c-0.5-1.7-0.4-3.5-0.1-5.2c0.2-0.9,0.9-1.5,1.8-1.8
		c3.2-1.1,6.5-2,9.9-2.3c2.8-0.3,5.5-1,8.4-0.9c1.7,0.1,3.4-0.3,5.1-0.4c1.7,0,3.4,0.1,5.1,0.1c1,0,1.7,0.3,1.9,1.3
		C121.7,67.9,122.2,68.3,122.1,68.9z"/>
	<path class="st3" d="M22.8,125.3c-1.9-0.6-3.8-1.2-5.7-1.8c-1.3-0.4-2.6-1-4.1-1c-0.6,0-1.2,0.2-1.5-0.5c-0.3-0.7-0.3-1.5,0.2-2.2
		c0.3-0.4,0.6-0.7,1-1c1.6-1.5,2.2-3.4,2.4-5.5c0-0.4-0.1-0.7-0.3-1c-0.5-0.6-0.7-1.3-1-2.2c0.7,0.4,1.3,0.7,1.7,1
		c2.4,2,5.4,3,7.7,5C25.4,118.7,25.2,123,22.8,125.3z"/>
	<path class="st2" d="M63.1,158.5c0.3,0.3,0.2,0.7,0,1c-1.5,3.7-3.9,6.7-7.2,9c-1.2,0.9-2.7,1.4-4.2,1.9c-1.9,0.7-3.6,0.1-5-1.2
		c-1.4-1.3-1.8-3-1.6-4.9c0-0.6,0.4-0.6,0.9-0.6c1.7,0.1,3.4-0.5,5-0.9c1.7-0.4,3.1-1.3,4.5-2.4c0.3-0.3,0.6-0.6,1.1-0.3
		c2.5,1.3,4.3,0.2,6-1.5c0.1-0.1,0.2-0.1,0.3-0.2C63,158.5,63,158.5,63.1,158.5z"/>
	<path class="st4" d="M163.3,96.2c-3.5,1.3-7.1,1.7-10.8,1c-2.4-0.5-4.3-1.8-6.4-2.8c-0.3-0.1-0.6-0.4-0.9-0.6
		c-2.6-2.5-4.9-5.1-6.6-8.4c-1.5-3.1-2.5-6.3-3.6-9.5c-0.3-0.9,0-1.8-0.4-2.6c-0.2-0.4-0.3-0.9-0.9-0.9c-2-0.1-3.9-0.7-5.9-0.7
		c0.3-1.2,0.9-1.7,2.1-1.6c2.4,0.2,4.8,0.1,7.2,0.5c0.7,0.1,0.9,0.4,0.9,1.1c0,1.1,0.1,2.1,0,3.2c-0.1,2.4,0.7,4.5,1.7,6.6
		c0.4,0.8,0.8,1.6,1.1,2.4c1.2,2.9,3,5.3,5.3,7.4c1.2,1.1,2.4,2.1,3.6,3.1c1,0.8,2.2,1.4,3.5,1.5c3,0.3,5.9,0.9,8.9,0.3
		C162.6,96.2,163,96.2,163.3,96.2z"/>
	<path class="st3" d="M23.9,102.2c-1.4-0.8-2.7-1.6-4.1-2.3c-0.4-0.2-0.8-0.4-1.3-0.6c-1.8-0.4-2.9-1.9-4-3.2
		c-0.5-0.5-0.3-2.2,0.2-2.6c2-1.5,2.8-3.7,3.3-6c0-0.2,0.2-0.3,0.3-0.5c2.3,1.1,4,3.1,5.9,4.7c2.1,2.9,2.6,6,1.1,9.3
		C25,101.5,24.8,102.3,23.9,102.2z"/>
	<path class="st2" d="M84.8,237.1c-4.2,1.8-8.3,1.5-12.6,0.1c4.1-4.6,5.5-10.3,7.6-15.8C80.4,222.4,83.9,233.3,84.8,237.1z"/>
	<path class="st3" d="M24.2,113.6c-3.4-1.5-6.9-3.1-10.3-4.5c-0.7-0.3-0.8-1-0.8-1.4c-0.1-1.4-0.1-2.9,1.3-3.7
		c0.3-0.2,0.7-0.5,1-0.8c1-0.8,1.6-1.8,1.4-3.4c3.1,2.3,6,4.5,8.9,6.7c1.2,1.8,0.9,5.3-0.5,6.8C24.8,113.5,24.6,113.7,24.2,113.6z"
		/>
	<path class="st3" d="M24.6,89.1c-1.3-1.2-2.7-2.2-4.3-2.9c-1.7-0.7-2.3-2.4-2.7-4.1c-0.1-0.5,0-1.1,0.4-1.5c1.6-1.5,3-3.2,3.5-5.4
		c2.5,1.3,4.7,2.5,6.3,4.6c1,2.8,0.3,5.4-1.1,7.9C26.2,88.5,25.6,89.2,24.6,89.1z"/>
	<path class="st5" d="M23.9,102.2c2.2-2.4,2.1-5.2,1.2-8.1c-0.2-0.8-0.6-1.7-0.9-2.5c2.2,1.4,4.2,3,6.3,4.5c0.9,0.7,1.2,1.6,1.2,2.6
		c0,2.6,0.6,5,1.2,7.5c0.2,0.6,0.4,1.2,0.1,2C29.9,106.2,26.9,104.2,23.9,102.2z"/>
	<path class="st4" d="M172.5,63.9c-3.7,0.2-7.3,0.9-11,1.6c-1.4,0.3-2.9,0.5-4.4,0.5c-2,0-3.8,0.6-5.7,0.9c-1.8,0.3-3.7,0.8-5.5,1.1
		c-1.1,0.2-2.3,0.1-3,1.2c-0.2-2.1,0.8-3.7,3-4.5c2.5-0.9,5-1.3,7.6-1.4c4.1-0.2,8.3-0.4,12.4-0.4C168.1,62.9,170.4,62.6,172.5,63.9
		z"/>
	<path class="st3" d="M26.7,76.3c-1.3-1-2.9-1.6-4.3-2.5c-1.6-1.1-1.7-2.6-1.7-4.2c0-0.5,0.4-0.8,0.8-1.1c1.3-1,2.6-2,3.2-3.6
		c2.5,1.9,4.4,4.2,5.8,6.9c0.2,1.6-0.6,2.8-1.5,4C28.4,76.6,27.6,76.7,26.7,76.3z"/>
	<path class="st6" d="M11,115c-1,1.7-2.3,3.3-2.6,5.4c0,0.2-0.2,0.4-0.4,0.6c-1.6,1.8-3.2,3.6-4.8,5.4c-0.1,0.1-0.3,0.2-0.7,0.4
		c-0.1-2.4-1.1-4.6-0.1-7.1c0.8-1.9,1.5-3.8,2.7-5.6c0.5-0.8,0.8-1.7,1.2-2.6c0.3-0.6,0.5-1.2,1.1-1.5C8.5,111.8,9.1,113.8,11,115z"
		/>
	<path class="st7" d="M24.2,113.6c1.9-2.1,2.1-4.5,1.5-7.1c3.5,2,6.6,4.4,8.7,7.8c0.4,0.7,0.7,1.5,0.9,2.3c0.3,0.9-0.6,1.2-0.9,1.8
		c-0.7,1.1-0.8,1.1-1.7,0.4C29.8,117.1,27,115.4,24.2,113.6z"/>
	<path class="st3" d="M21.4,134.1c-1.5-0.3-3.1-0.6-4.6-1c-0.8-0.2-1.7-0.3-2.6-0.2c-0.1-1,0.3-1.7,0.7-2.4c0.7-1.3,0.7-2.7,0.7-4.1
		c0-1-1.1-1.4-1.6-2.5c3.6,1.4,7,2.2,10,4.2C24.7,130.2,23.5,132.9,21.4,134.1z"/>
	<path class="st6" d="M22.8,125.3c0-0.3,0.1-0.6,0.3-0.8c1.5-2.2,1.5-4.6,0.6-7.1c-0.2-0.4-0.5-0.8-0.5-1.3c1.1,0.2,1.8,1,2.7,1.6
		c1.9,1.2,3.7,2.5,5.5,3.8c1.3,1,1.4,1.5,0.5,2.8c-0.7,1.1-1.3,2.2-2.4,3.1c-0.4,0.3-0.7,0.6-1.2,0.3
		C26.6,126.4,24.6,126.1,22.8,125.3z"/>
	<path class="st8" d="M73.9,17.9c-2.2-0.3-4.4-0.1-6.7-0.3c-1.6-0.1-2.3-0.7-2.5-2.2c0.5-0.7,1.1-1.2,1.8-1.6c0.2,0,0.5,0,0.6,0.2
		c0.8,1.9,2.5,1.9,4.2,1.8c1.5-0.1,3,0.5,4.6,0.3c1.6,0.1,3.1,0.4,4.7,0.5c0.4,0,1.2,0.5,1.2-0.4c0-0.7,0-1.6-1-1.9
		c-0.5-0.1-1-0.1-1.6-0.1c-3-0.4-6.1-0.4-9.1-0.9c-0.6-0.1-1.5,0-1.7-0.9c0.5-0.3,0.9-0.5,1.4-0.8c1.9-0.6,3.9-0.2,5.8,0.1
		c1.4,0.2,3-0.4,4.2,0.8c0.9,0.4,1.9,0.2,2.8,0.2c0.6,0.1,1.2,0,1.7,0.2c0.7,0.3,1.3,0.6,0.9,1.5c-0.2,0.6-0.1,1.3,0.3,1.8
		c0.2,0.3,0.3,0.7,0.5,1.1c0.3,0.7,0,1-0.7,1c-1.8,0-3.5,0.1-5.3-0.2C78.1,18.1,76,18.2,73.9,17.9z"/>
	<path class="st4" d="M172.2,222.9c3.2,1.3,6.3,2.6,9.2,4.3c3.6,2.2,7.6,2.9,11.7,1.3c0.9-0.4,1.9-0.7,2.2-1.8
		c0.6,0.7,0.7,1.8,1.7,2.3c-1.5,2.1-3.7,2.6-5.8,3c-0.6,0.1-1.3,0.1-1.9,0.2c-1.6,0.1-3.1-0.1-4.6-0.8c-4.4-2.1-8.3-5-12.2-8
		C172.3,223.2,172.2,223,172.2,222.9z"/>
	<path class="st5" d="M10,102.9c-1.2,2-3.1,3.5-4.6,5.2c-0.8,1-1.5,2.1-2.2,3.1c-0.4-0.1-0.4-0.4-0.5-0.7c-0.7-3.4,0-6.5,2.2-9.3
		c1.1-1.4,2.2-2.8,2.9-4.4c0.4-0.8,0.9-1.5,1.7-2C9.8,97.5,10.9,100.1,10,102.9z"/>
	<path class="st3" d="M30.3,67.8c-1.5-1.5-2.9-3.2-4.6-4.6c-0.3-0.3-0.5-0.6-0.7-1c-0.2-0.5-0.1-1,0.7-1.1c1.5-0.1,2.3-0.9,2.5-2.5
		c0.1-1,0.5-2,0.8-3.3c1.5,2.1,3.4,3.5,4.1,5.8c0.3,1.4,0.3,2.9,0,4.3C32.7,67,31.7,67.8,30.3,67.8z"/>
	<path class="st9" d="M214.4,220.4c-0.5-0.7-1-1.4-1.6-2.1c-1.6-1.9-3.6-2.8-6.2-2.6c0.2-1.7,1.5-2.3,2.7-2.8c3-1,6.4,0.1,7.9,2.7
		c0.7,1.3,1.5,2.5,1.9,4c0.2,0.5,0.1,1-0.4,0.8C217.2,220,215.8,220.7,214.4,220.4z"/>
	<path class="st5" d="M24.6,89.1c2.4-1.4,2.9-3.8,3.1-6.3c0.1-1,0.1-2,0.1-3c1.9,1.2,3.4,2.8,4,5.1c0.2,0.9,0.3,1.9,0.2,2.8
		c-0.2,1.1-0.3,2.2-0.2,3.3c0,0.8-0.4,1-1,1.1c-0.7,0.1-1.3-0.1-1.9-0.4C27.3,91.1,25.9,90.2,24.6,89.1z"/>
	<path class="st4" d="M117.5,232.8c0.2,2,2.4,4.4,4.3,4.6c0.3,0,0.6-0.1,0.6-0.5c0-1.2,0.3-2.1,1.4-2.6c1.5-0.7,3-1.2,4.6-0.5
		c0.2,0.1,0.3,0.1,0.5,0.1c-0.2,0.2-0.2,0.5-0.3,0.8c-0.3,3-2.2,5.1-5.2,5.6c-0.2,0-0.3,0.1-0.5,0.1c-3,0.5-5.2-1.1-5.5-4.2
		C117.4,235.1,116.7,233.9,117.5,232.8z"/>
	<path class="st10" d="M89.1,3.6c0.8,0.8,1.5,1.7,1.8,2.8c0.1,0.4,0.4,0.8,0.7,1.2c0.4,0.6,1.2,1,1.4,1.8c0.2,0.7,0.6,1.3,0.9,1.8
		c-0.5,0.7-1.1,0.5-1.7,0.4c-2.6-0.3-5.1-0.6-7.7-0.6c-2.1,0.8-4.3,0-6.5,0.1c-1.5,0.1-3-0.3-4.6-0.3c-0.6,0-1.2,0-1.4-0.8
		c0.6-0.4,1.2-0.8,1.8-1.2c2-0.9,4,0.1,6-0.1c2.8,0.3,5.6,0.6,8.4,0.7c0.2,0,0.5,0,0.6-0.3c-0.1-0.6-0.7-0.8-1-1.3
		c-0.2-1.3-1.3-2.2-1.2-3.6C87.4,3.8,88.2,3.5,89.1,3.6z"/>
	<path class="st11" d="M214.4,220.4c1.4-0.6,2.7-1,4.2-0.3c0.4,0.2,0.4-0.3,0.5-0.5c1.9,3.7,1.3,7.3-0.5,10.8
		c-0.5,1-1.5,1.6-2.7,2.3C215.9,228.4,216.2,224.2,214.4,220.4z"/>
	<path class="st12" d="M12.2,87.7c-0.2,0.3-0.3,0.7-0.6,0.9c-3.4,2.5-5.5,6-8.5,9.5C3.4,95.3,3,93,4.5,90.7c1.8-2.7,3.8-5.2,6.2-7.4
		C11.6,84.7,12,86.2,12.2,87.7z"/>
	<path class="st13" d="M68.5,12.5c1.5,0.7,3.2,0.6,4.8,0.7c2.1,0.2,4.2,0.2,6.3,0.6c0.1,1.3-1.2,1.4-1.9,2c-0.5,0.4-1.2,0.5-1.7,0.8
		c-2.4,0.1-4.8-0.5-7.2-0.3c-0.8,0.1-1.2-0.4-1.4-1.1c-0.2-0.5-0.2-1.2-0.8-1.5C67.2,13.4,67.8,12.9,68.5,12.5z"/>
	<path class="st14" d="M86.6,4.2c0.5,1.1,1.5,2,1.5,3.4C86.2,8.6,84,8.5,82,9c-0.6,0.1-1.2,0-1.7,0.2c-2.2,0.2-4.3-0.4-6.4-0.3
		c1.2-1,2.7-1.6,4.2-2.1C80.9,5.9,83.7,4.8,86.6,4.2z"/>
	<path class="st2" d="M51.2,172.9c-2.3,0.5-4.6,1-7,0.3c-1.9-0.5-3.4-1.4-4.8-2.7c-0.8-0.8-1.1-1.8-0.9-2.9c0.2-0.8,0.6-1.3,1.5-1.6
		c0.9-0.3,1.1,0.3,1.5,0.8c0.3,0.3,0.5,0.8,1.1,0.9c0.1-0.3,0.1-0.6,0.2-0.9c0.3,0.4,0.4,0.9,0.5,1.3c1,2.9,3.7,4.8,6.8,4.8
		C50.4,172.8,50.8,172.8,51.2,172.9z"/>
	<path class="st12" d="M11.1,127.4c0.2,0.2,0.3,0.5,0.1,0.8c-0.5,0.6-0.8,1.3-1.5,1.7c-1.4,0.8-2.5,2-3.4,3.3
		c-0.3,0.5-0.7,1.3-1.5,0.9c-0.7-0.3-0.9-1-0.9-1.8c-0.1-2.5,0.7-4.8,2.4-6.6c0.5-0.6,1-1.3,1.6-1.9c0.3,0.1,0.4,0.4,0.4,0.7
		C8.3,126.4,9.5,127.1,11.1,127.4z"/>
	<path class="st15" d="M73.8,139.5c0.5,1.6,0.3,2.5-0.8,3.1c-1.4,0.8-3,1.1-4.5,1.5c-0.9,0.2-1.9-0.1-2.7-0.5
		c-1.8-0.9-3.3-3.8-3.1-5.8c0.1-0.5,0.2-0.9,0.8-1c0.5-0.1,1-0.2,1.4,0.3c0.3,0.5,0.5,0.9,0.7,1.4c0.3,0.7,0.5,1.4,1,2.1
		c1.1,1.4,1.9,1.7,3.6,1.1C71.4,141.3,72.7,140.7,73.8,139.5z"/>
	<path class="st16" d="M15.7,75.9c0,0.4-0.2,0.7-0.5,0.9c-3,2.8-6,5.6-9.2,8.3C6,82.4,11.9,75.2,14.6,72
		C15.4,73.2,15,74.7,15.7,75.9z"/>
	<path class="st12" d="M13.5,146.5c-0.6,1.1-1.9,1.5-2.6,2.5c-0.4,0.5-0.8,0.8-1.3,1.2c-0.1,0-0.2,0-0.3-0.1c-2.3-2-2.3-2.3-1.4-5.1
		c0.7-2,2-3.6,3-5.4c0.1-0.3,0.4-0.5,0.7-0.5c0.3,0.3,0.2,0.6,0.1,1C11,142.7,11.5,144.8,13.5,146.5z"/>
	<path class="st4" d="M62.5,154.7c-0.1,1-0.7,1.7-1.3,2.4c-0.8,0.8-2.7,1.1-3.8,0.6c-0.9-0.4-1.3-1.7-1.3-3c0-1.8,0.8-3.3,1.8-4.7
		c0.5,1.5,1.2,2.6,3,2.8C61.8,152.9,62.3,153.8,62.5,154.7z"/>
	<path class="st17" d="M15.4,134.8c2.6,0.6,5.2,0.7,7.8,1.8c-0.8,1.5-1.5,2.9-2.2,4.3c-0.3,0.6-0.7,0.7-1.4,0.6
		c-2.2-0.4-2.3-0.4-2.2-2.5c0.1-1.1-0.4-1.9-1-2.7C16.1,135.8,15.5,135.6,15.4,134.8z"/>
	<path class="st17" d="M131.2,65.6c-1.2-1.1-1.9-2.4-3.2-3.2c-0.7-0.4-0.5-1.2,0.3-1.5c0.6-0.2,1.3-0.3,1.9-0.3
		c1.6-0.1,3.2-0.2,4.8,0.1c1.5,0.3,2.1,1.4,1.5,2.7c0,0.1,0,0.1-0.1,0.2c-0.9,0.4-1.7,0.7-2.6,1c0,0-0.1,0-0.2-0.1
		C132.1,64.1,132.1,64.1,131.2,65.6z"/>
	<path class="st14" d="M62.5,154.7c-0.9-1-1.7-2-3.3-1.8c-0.7,0.1-1.1-0.5-1.2-1.3c-0.1-0.5,0-1-0.1-1.6c0.6-1.5,1.9-2.2,3.2-2.8
		c0.3-0.2,0.7-0.2,1-0.3c0.6-0.1,1.4-0.3,1.8,0.3c0.5,0.7-0.3,1.2-0.7,1.6c-0.9,0.8-0.6,1.5,0,2.3C63.4,152.5,63,153.6,62.5,154.7z"
		/>
	<path class="st18" d="M60,125.4c-2.6-2.5-5.5-4.4-8.8-5.6c-2.9-1-6-0.9-9.1-0.7c-1.5,0.1-3,0.5-4.5,0.9c-0.5,0.1-1,0.3-1.5,0.1
		c1.3-1.8,8.8-2.9,13-2.3c4.5,0.6,7.1,4,10.4,6.3C59.8,124.4,60.1,124.8,60,125.4z"/>
	<path class="st19" d="M12.1,136.6c-0.3,0.8-0.9,1.2-1.7,1.4c-0.8,0.2-1.4,0.6-1.8,1.3c-0.7,1.3-2,2.3-2.6,3.9c-1.1-2.9-1-4,0.6-6.3
		c1-1.4,1.9-2.8,3.3-3.9C10.6,134.3,10.6,135.9,12.1,136.6z"/>
	<path class="st12" d="M16.1,154c0,0.7-0.2,1.2-0.7,1.7c-0.5,0.4-0.9,0.9-1.3,1.4c-0.9,1-1.2,1.1-2.3,0.3c-0.8-0.5-1.3-1.3-1.2-2.2
		c0.2-2,0.6-4,2.2-5.6c0.5,0.2,0.7,0.6,0.8,1.1C14,152.2,14.8,153.3,16.1,154z"/>
	<path class="st20" d="M34.7,57.3c-1.3-1.1-2.1-2.3-3.1-3.4c-0.4-0.5-0.2-0.9,0.1-1.2c0.7-0.7,1.1-1.5,1.2-2.5
		c0.1-0.8,0.7-0.8,1.3-1c0.6-0.2,0.9,0.1,1.1,0.6c0.2,0.3,0.5,0.7,0.7,1c0.6,0.7,0.7,1.4,0.1,2.2C35.3,54.2,35.1,55.7,34.7,57.3z"/>
	<path class="st21" d="M118.9,4c0.2,0.6,1.4,1,0.9,1.7c-0.5,0.9-1.4,0.1-2.1,0c-2.3-0.3-4.6-0.9-6.9-1.1c-1.8-0.1-3.5-0.7-4.4-2.4
		c1.5-0.2,3,0.2,4.5,0.5c2.4,0.5,4.8,0.8,7.3,1.1C118.5,3.8,118.7,3.9,118.9,4z"/>
	<path class="st22" d="M72.1,10.1c0.3,0.3,0.8,0.3,1.2,0.3c1.5,0,3.1,0.2,4.6,0.2c2.2,0.1,4.5,0.3,6.7,0.5c-1.3,1.3-2.9,1.4-4.6,1.5
		c-3.3-0.2-6.7-0.3-10-0.9C70.5,11,71.3,10.5,72.1,10.1z"/>
	<path class="st20" d="M10,102.9c-0.1-0.1-0.3-0.3-0.2-0.4c0.5-1.4,0.2-2.6-0.3-3.9c-0.4-1.2-0.3-2.4-0.1-3.7
		c0.4-0.3,0.8-0.7,1.3-1.1c0.6,1.5,1.3,2.8,2.4,4c0.3,0.3,0,0.6-0.1,1c-0.5,1.1-1,2.2-2,3C10.6,102.1,10.3,102.5,10,102.9z"/>
	<path class="st12" d="M26.7,76.3c1.5,0.2,2.2-0.9,2.7-2c0.4-0.8,0.7-1.7,1.1-2.6c1.7,1.2,2.3,2.8,1.9,4.9c-0.2,0.8-0.1,1.7-0.2,2.8
		C30.4,78.2,28.6,77.2,26.7,76.3z"/>
	<path class="st12" d="M21.4,134.1c1.6-1.7,2.6-3.6,2.5-6c1.1,0.2,1.9,0.8,2.9,1.3c0.5,0.3,0.6,0.6,0.3,1.1c-0.7,1.2-1.4,2.3-2,3.5
		c-0.3,0.6-0.7,0.9-1.4,0.6C22.9,134.4,22.1,134.3,21.4,134.1z"/>
	<path class="st20" d="M12.2,87.7c-0.8-1.4-1.6-2.7-1.5-4.4c0.9-1.5,2.2-2.5,3.6-4c0.2,1.4-0.1,2.5,0.5,3.6c0.1,0.3-0.1,0.8-0.3,1.2
		C13.9,85.5,13.1,86.6,12.2,87.7z"/>
	<path class="st23" d="M145.2,17.9c-0.3,0.3-0.7,0.1-1-0.1c-2.5-1.2-5.1-2.4-7.6-3.6c-1-0.5-1.8-1.1-2.2-2.2c-0.3-0.9-1-1.6-1.7-2.3
		c-0.5-0.4-1-0.8-1.1-1.5c1,0.3,2,0.7,2.9,1.4c1.5,1.8,2.9,3.8,5.4,4.5c1.1,0.3,1.8,1.4,2.9,1.9C143.8,16.3,144.4,17.3,145.2,17.9z"
		/>
	<path class="st24" d="M11,115c-0.5,0-0.9,0.1-1.3-0.3c-1.1-1.3-2.2-2.7-2.2-4.6c0.5-0.9,0.7-2,1.6-2.8c0.5,1.8,0.9,3.5,2.4,4.7
		c0.3,0.3,0.2,0.8,0.2,1.2C11.6,113.8,11.4,114.4,11,115z"/>
	<path class="st25" d="M17.1,67.5c-3,2.6-5.3,5.9-8.5,8.7c0-1.6,1-2.6,1.7-3.5c2-2.6,4-5.2,6.4-7.5C17.4,65.9,17.4,66.7,17.1,67.5z"
		/>
	<path class="st26" d="M7.6,234.1c-0.2-0.4-0.4-0.8-0.4-1.3c0-0.4,0.2-0.7,0.6-0.7c0.9,0,1.9-0.1,2.1-1.1c0.2-1.1,0.3-2.2-0.7-3.1
		c0,0,0-0.1,0-0.2c0.3-0.4,0.8-0.1,1.2-0.2c0.8,0.3,1.4,0.8,1.7,1.6c0.1,0.3,0.3,0.6,0.2,0.8c-0.3,1.4-1.1,2.6-2,3.7
		C9.7,234.5,8.6,234.4,7.6,234.1z"/>
	<path class="st27" d="M130.3,67.1c0.4,0,0.8,0,1.2,0.1c0.6,0,0.9-0.1,0.9-0.8c0-0.7,0.4-1,1.2-0.7c0.3,0.1,0.6,0.2,0.8,0.2
		c0.4,0,0.9-0.6,1.3-0.1c0.6,0.7,1.3,1.4,1.6,2.3c0.1,0.4-0.1,0.6-0.4,0.7c-0.3,0.1-0.6,0.2-0.9,0.1c-1.8-0.6-3.6-0.2-5.4-0.3
		c-0.5,0-1.1,0.2-1.2-0.7C129.4,67.2,129.5,66.8,130.3,67.1z"/>
	<path class="st28" d="M23.9,56.1c-1.3,0.5-2.2,1.5-3.1,2.5c-1.8,1.9-3.5,3.8-5.3,5.7c-0.5,0.5-1.1,1-1.8,1.6
		c0.5-2.4,4.7-7.2,9.8-11.2C24,55,24,55.5,23.9,56.1z"/>
	<path class="st19" d="M70.7,149.4c-1.2,1.2-2.6,1.9-4.1,2.6c-0.3,0.1-0.6,0.2-0.8,0c-0.2-0.3-0.1-0.6,0.1-0.8
		c0.3-0.6,0.6-1.1,1-1.6c0.6-0.7,1.2-1.5,1.4-2.4c0.2-1,0.8-1.2,1.7-1.2C71.7,146.8,71,148.2,70.7,149.4z"/>
	<path class="st29" d="M70.3,152.9c0,1.8,0.3,3.5-0.3,5.3c-0.1,0.4-0.3,0.8-0.7,1.1c-0.5-0.4-0.5-1-0.7-1.5
		c-0.2-0.4-0.4-0.9-0.6-1.3c-0.2-0.3-0.5-0.7-1-0.6c-0.6,0-0.5,0.6-0.6,0.9c0,0.2-0.2,0.3-0.3,0.4c0-0.2-0.1-0.4-0.1-0.5
		c0.2-0.6-0.5-1.3-0.1-1.8c0.4-0.5,1.2-0.7,1.8-1C68.6,153.6,69.4,153.2,70.3,152.9z"/>
	<path class="st30" d="M17.1,67.5c-0.4-0.7-0.5-1.5-0.4-2.3c1.2-1.9,2.7-3.6,4.6-5.5C21.5,63.6,19.6,65.7,17.1,67.5z"/>
	<path class="st30" d="M16.1,154c-0.5,0.2-0.9,0.1-1.3-0.2c-0.8-0.8-1.3-1.7-1.5-2.7c-0.1-0.5-0.1-0.9-0.5-1.3
		c0.4-0.6,0.9-1,1.5-1.4c0.2,0.2,0.3,0.5,0.5,0.6C17.1,150.2,16.8,152.1,16.1,154z"/>
	<path class="st31" d="M15.7,75.9c-0.8-0.4-1.1-1.1-1-2c0-0.6,0-1.3,0-1.9c0.3-1,1.3-1.5,2.1-2.5c0.1,1.5,0.2,2.7,0.8,3.7
		c0.2,0.4,0,0.7-0.4,0.9C16.4,74.6,16.1,75.3,15.7,75.9z"/>
	<path class="st32" d="M54.7,151.8c-0.2,0.8-0.5,1.6-0.5,2.4c0,1.6-1.1,2.1-2.3,2.5c-0.7,0.2-1.5,0.3-2.4,0.1c1.7-1.9,3.6-3.3,5-5.1
		C54.5,151.7,54.6,151.7,54.7,151.8z"/>
	<path class="st33" d="M197.9,224.7c0.6,0,1.1,0.5,1.3-0.2c0.3-1.4,0.9-1.8,2.1-1.7c1,0.1,1.3,0.6,1.4,2.2c-0.5-0.2-1.1-0.5-1.6-0.7
		c-0.1,0-0.2,0-0.4,0c-0.5,1.2-0.5,2.5-1.3,3.6C198.3,227.4,197.8,225.9,197.9,224.7z"/>
	<path class="st34" d="M30.3,67.8c1.8-0.6,2.6-2,2.8-3.8c0.1-1,0-2,0.1-2.9c0.6,0.9,0.2,1.9,0.3,2.9c0.1,1.7,0.4,3.5,0.1,5.2
		c-0.1,0.3,0.1,0.7-0.4,1C31.8,69.8,31.2,68.7,30.3,67.8z"/>
	<path class="st35" d="M63.2,151.2c-1.5-1.4-1.5-1.6,0.7-3.6c-0.9-0.5-1.9-0.2-2.8-0.3c1.3-1,2.8-0.8,4.2-0.7c0.6,0,0.9,0.5,0.7,1.1
		c-0.3,1-1,1.7-2,2.1C62.9,150.2,62.9,150.1,63.2,151.2z"/>
	<path class="st36" d="M16,81.7c-0.5-1.3-0.2-2.1,0.6-2.8c0.9-1,2.1-1.7,2.4-3.2c0.3-1.2,0.4-2.4-0.2-3.6c-0.5-1.2-0.6-2.3,0.5-3.4
		c-0.2,2,0.2,3.8,0.7,5.6c0.3,1.1-0.4,2.1-1.1,3C17.9,78.7,16.7,79.8,16,81.7z"/>
	<path class="st37" d="M23.9,56.1c-0.3-0.4-0.3-0.9-0.4-1.4c1.6-1.1,2.6-2.8,4.2-4.3C27.5,53.2,26.8,55.4,23.9,56.1z"/>
	<path class="st38" d="M17.8,147.1c-1.8-1.5-2.1-2.5-1.4-4.3c0.1-0.1,0.2-0.1,0.3-0.1C19.8,143.8,19.8,143.8,17.8,147.1z"/>
	<path class="st39" d="M142.9,16c-0.2,0-0.4,0.1-0.5,0c-1.4-1.2-3.2-1.8-4.9-2.4c-0.3-0.1-0.6-0.3-0.7-0.5c-0.7-1.1-1.7-2.1-2.2-3.4
		C137.4,11.6,140.2,13.6,142.9,16z"/>
	<path class="st40" d="M11.6,106.1c-0.6-0.9-0.7-1.5-0.2-2.2c0.2-0.2,0.3-0.5,0.5-0.7c1-1.4,2.2-2.5,2.8-4.3
		c0.9,1.4,0.9,2.3-0.2,3.2C13.2,103.1,12.3,104.4,11.6,106.1z"/>
	<path class="st35" d="M125.3,216.5c1.6,2.7,4.3,4.3,6.3,6.5c-0.5,0-1,0-1.6,0c-0.5,0-0.9-0.1-1.2-0.6c-1.1-1.6-2.3-3.2-3.4-4.9
		C125.3,217.2,125.3,216.8,125.3,216.5z"/>
	<path class="st41" d="M11.1,127.4c-1.6,0.5-3-0.3-3.2-1.8c-0.1-0.6-0.1-1.2-0.1-1.8c0.2-0.2,0.5-0.5,0.7-0.2
		C9.3,124.9,10.5,125.9,11.1,127.4z"/>
	<path class="st42" d="M12.5,91.9c-0.4-0.7-0.3-1.4,0.3-1.8c1.6-1.1,2.8-2.6,4-4.1c-0.4,1.7-0.8,3.3-2.5,4.1
		C13.6,90.6,13.6,91.6,12.5,91.9z"/>
	<path class="st43" d="M14.4,143c-0.6-2.1,0.8-3.8,0.5-5.8C16.9,138.6,16.7,140,14.4,143z"/>
	<path class="st44" d="M13.5,146.5c-1.2-0.1-1.8-0.8-2.1-1.9c-0.3-1.1-0.4-2.2-0.4-3.3c0-0.5,0.3-0.9,0.7-1.2c0,2.1,0.6,4.1,1.8,5.8
		C13.6,146.1,13.5,146.4,13.5,146.5z"/>
	<path class="st45" d="M12.1,136.6c-1.6-0.2-2.1-0.8-2.2-2.2c0-0.5,0-0.9,0-1.4c0.1-0.2,0.5-0.7,0.6-0.5c0.6,1.2,1.7,2.3,1.7,3.8
		C12.3,136.4,12.2,136.5,12.1,136.6z"/>
	<path class="st46" d="M54.3,157.9c-0.9,0.8-1.8,1.3-3,1.5c-1.2,0.2-2.3,0-3.5-0.1c-0.2,0-0.3-0.1-0.4-0.3c0-0.3,0.1-0.4,0.3-0.5
		c0.2-0.1,0.3-0.1,0.5-0.1C50.3,158.9,52.3,158.5,54.3,157.9z"/>
	<path class="st47" d="M23.6,60.6c-0.3-2.5,1.9-2.4,3.1-3.5c0,2.1,0,2.1-1.8,2.6C24.3,59.7,24,60.2,23.6,60.6z"/>
	<path class="st48" d="M28.2,47.3c1.1-1.2,2.5-1.6,4.2-2.4c-0.9,1.9-2.4,2.7-3.9,3.5C27.7,48.2,27.8,47.8,28.2,47.3z"/>
	<path class="st49" d="M50.4,161.2c-1.4,0.8-2.6,0.9-3.9,0.9c-0.4,0-0.9,0-0.8-0.6c0.1-0.5,0.3-1,1-0.9
		C47.9,160.8,49,161,50.4,161.2z"/>
	<path class="st50" d="M70.7,149.4c-0.5-0.4-0.1-0.8-0.1-1.3c0-0.8,0.1-1.6-0.6-2.3c0.7-0.2,1.5-0.9,2.1-0.3
		c0.6,0.7,0.1,1.7-0.3,2.5C71.5,148.6,71.3,149.2,70.7,149.4z"/>
	<path class="st51" d="M28.2,47.3c0,0.4-0.1,0.8,0.3,1.1c-1.4,0.6-2.6,1.4-3.6,2.6c-0.5,0.5-1,1-1.8,0.9l0,0
		C24.6,50,26.3,48.6,28.2,47.3z"/>
	<path class="st52" d="M13.3,130c-0.8-1.5,0.2-2.7-0.1-4.1c0.7,0.1,1,0.5,1.1,1C14.4,128,14.1,129,13.3,130z"/>
	<path class="st53" d="M15.7,158.8c0,0.8,0,1.6,0,2.3c0,0.2,0,0.5-0.2,0.6c-0.3,0.1-0.5-0.1-0.7-0.3c-0.5-0.6-0.7-1.2,0-1.8
		C14.9,159.3,15,158.9,15.7,158.8z"/>
	<path class="st54" d="M37.7,48.4c-0.7-0.1-0.9-0.5-0.7-1.2c0.3-0.9,0.3-1.9,1.6-2.3C38.2,46.3,38,47.4,37.7,48.4z"/>
	<path class="st55" d="M23.4,63.1c0.1,2.3-1.5,3.4-3.2,4.5c0.2-1,1.3-1.2,1.8-2.1C22.4,64.7,23,64,23.4,63.1z"/>
	<path class="st56" d="M33.1,47.9c0.6-1.1,1.7-1.6,2.7-2.4c0,0.9,0,1.6-0.7,2C34.6,47.7,33.8,47.5,33.1,47.9z"/>
	<path class="st57" d="M130.3,67.1c-0.6,0-0.8,0.3-0.8,0.8c-0.5-1.2-1.1-2.4-1.7-3.8c0.9,0,1.3,0.4,1.3,1
		C129.1,66,129.7,66.6,130.3,67.1z"/>
	<path class="st58" d="M12.8,114.2c0,1.8-1.6,2.8-2.2,4.3C10.8,116.7,12,115.6,12.8,114.2z"/>
	<path class="st59" d="M33.6,42.8c1-1.4,1.3-1.5,2.9-1.6C35.8,42.3,35.4,42.5,33.6,42.8z"/>
	<path class="st60" d="M137.6,63.2c0.2,0.7,0.3,1.1,0.4,1.6c0.1,0.4-0.1,0.7-0.4,0.8c-0.3,0.1-0.6,0.1-0.8-0.1
		c-0.4-0.3-0.1-0.6,0-0.9C137.1,64.2,137.3,63.8,137.6,63.2z"/>
	<path class="st53" d="M31.3,49.6c0.1,1.4-0.7,2.1-1.4,3C29.9,51.3,30.1,50.4,31.3,49.6z"/>
	<path class="st51" d="M23.1,51.8c0.1,0.6-0.4,0.9-1,1.3C22.4,52.5,22.8,52.1,23.1,51.8L23.1,51.8z"/>
	<path class="st10" d="M138.6,34.1c-0.4-0.2-0.7-0.2-0.9-0.4c-2.3-1.9-5.1-3-7.8-4c-2.1-0.8-4.3-1.6-6.6-2c-0.7-0.1-1.4-0.4-2-0.6
		c-1.3-0.5-1.2-0.5-1.3-1.9c-0.1-1.3-0.5-2.5-1.1-3.7c-0.3-0.6-0.6-1.3-0.6-2c0-0.7,0.4-0.9,1-0.8c2.9,0.6,5.8,1.3,8.7,2.3
		c2.6,0.9,5,2.1,7.5,3.1c1,0.4,2,1,2.8,1.9c0.8,0.8,1.1,1.8,0.9,2.9c-0.1,0.4-0.2,0.8-0.1,1.2C139.4,31.3,139.1,32.6,138.6,34.1z"/>
	<path class="st10" d="M116.5,37.3c0.8,0.1,1.5,0.2,2.3,0.4c3.8,0.8,7.6,1.7,11,3.6c1.9,1.1,2.1,1.6,1,3.5c-0.5,0.9-1.1,1.8-1.9,2.6
		c-0.6,0.6-1.1,1.2-1.5,2c-0.6,1.2-1,1.3-2.1,0.6c-1.3-0.8-2.5-1.9-4-2.6c-2.7-1.3-5.4-2.3-8.3-2.9c-1.2-0.2-1.3-0.4-0.6-1.5
		c0.8-1.4,1.8-2.8,2-4.5C114.5,37.7,115.4,37.3,116.5,37.3z"/>
	<path class="st61" d="M131.8,17.8c-0.3-0.1-0.7-0.2-1.1-0.3c-3.6-1.2-7.3-1.7-11-2.4c-0.8-0.2-1.4-0.4-1.8-1.1
		c-0.9-1.6-2-3.1-3.4-4.2c-0.2-0.2-0.5-0.4-0.4-0.7c0.1-0.4,0.5-0.3,0.8-0.2c4,0.8,8,1.7,12.1,2.5c1.1,0.2,2,0.9,2.7,1.6
		c1.2,1.2,2.1,2.5,2.6,4.2C132.3,17.3,132.5,17.6,131.8,17.8z"/>
	<path class="st10" d="M111.6,25.6c-1.9-0.3-4-0.6-6-0.9c-1.1-0.2-2.2-0.5-3.3-0.7c-2-0.5-2.4-1-2.4-3c0-1.8,0.9-2.6,2.8-2
		c1.8,0.5,3.7,0.8,5.5,1.2c1.3,0.3,2.7,0.5,4,0.9c1.4,0.4,1.5,0.6,1.2,2.2c0,0.3,0,0.6,0,0.9c-0.1,0.5,0.4,1,0.1,1.3
		C112.9,25.8,112.3,25.6,111.6,25.6z"/>
	<path class="st61" d="M110.5,9.4c-2.1-0.1-4.3-0.1-6.4-0.2c-1.4-0.1-2.8-0.4-4.2-0.6c-1.1-0.2-2-0.6-2.8-1.4
		c-0.9-0.9-1.7-1.9-2.9-2.6C94.1,4.4,93.9,4.2,94,4c0.1-0.1,0.3-0.3,0.4-0.3c3.4-0.1,6.7-0.3,10.1,0c0.5,0,1,0.4,1.4,0.7
		c1.7,1.4,3.3,3,4.8,4.7C110.6,9.2,110.6,9.3,110.5,9.4z"/>
	<path class="st10" d="M100.6,11c0.6-0.1,1.3,0.2,2.1,0.3c1.9,0.3,3.7,0.5,5.6,0.4c0.7,0,1.2,0.1,1.8,0.5c1.2,1.1,2,2.4,2.7,3.9
		c0.3,0.6,0,0.9-0.6,0.9c-3.2-0.3-6.3-0.6-9.4-1.1c-2-0.3-3.1-2-3.9-3.8c-0.3-0.7,0-1,0.9-1.1C99.9,11,100.1,11,100.6,11z"/>
	<path class="st61" d="M120.4,31.1c0-2.4,0.7-3,3-2.3c3,0.9,5.9,2.1,8.7,3.5c0.5,0.2,0.9,0.6,1.2,1c0.2,0.3,0.3,0.7,0.1,1
		c-0.8,0.7-0.8,1.6-1.1,2.5c-0.3,1.1-0.6,1.1-1.6,0.6c-1.5-0.7-3.1-1.5-4.6-2.3c-1.2-0.6-2.4-1.2-3.8-1.5
		C120.4,33.3,120.4,33.2,120.4,31.1z"/>
	<path class="st10" d="M116.8,31.3c0,1.4-0.3,1.8-1.8,1.7c-1.5-0.2-3-0.5-4.5-0.7c-1.3-0.2-2.5-0.5-3.8-0.6
		c-0.6-0.1-1.1-0.3-1.3-0.8c-0.4-1-0.7-2.1-0.6-3.3c0.1-0.6,0.5-1.1,1.1-0.8c2.8,1.1,5.8,1.1,8.6,1.7
		C116,28.8,116.8,29.8,116.8,31.3z"/>
	<path class="st61" d="M135.4,16.1c0.9,0,1.6,0.4,2.2,0.8c1.3,0.9,2.9,1.3,4.3,2.1c0.8,0.5,1.4,0.9,1.8,1.7c0.5,1.1,1,2.3,0.8,3.6
		c-0.1,0.5-0.4,0.6-0.7,0.4c-0.5-0.2-1-0.5-1.4-0.8c-1.2-0.8-2.5-1.5-3.9-2.1c-1.3-0.5-2.2-1.5-2.5-3
		C135.8,18,135.2,17.2,135.4,16.1z"/>
	<path class="st23" d="M148,34.4c-0.2,0.9,0,2.4-0.8,2.8c-0.8,0.4-1.5-1-2.2-1.6c-0.1-0.1-0.2-0.3-0.4-0.4c-2.4-1.6-2.8-4.1-3.2-6.7
		c-0.1-0.4-0.2-0.7,0.2-0.9c0.3-0.2,0.6-0.1,0.8,0.1c1.2,0.9,2.6,1.6,3.8,2.6C147.6,31.4,147.8,32.8,148,34.4z"/>
	<path class="st61" d="M140.2,37.9c0-1-0.1-2.3,1-2.6c1.1-0.4,1.6,0.9,2.3,1.6c0.3,0.3,0.5,0.7,0.8,0.9c1.3,0.8,1.2,2,0.7,3.2
		c-0.3,0.7-0.6,1.4-0.9,2.1c-0.3,0.5-0.7,0.7-1.1,0.1c-0.9-1.2-1.5-2.5-2.5-3.6C140,39.2,140.2,38.5,140.2,37.9z"/>
	<path class="st62" d="M135.2,92.6c-1.8,0-3.1-0.5-4.1-1.6c-0.3-0.3-0.5-0.7-0.2-1.1c0.3-0.5,0.8-0.5,1.2-0.2
		c0.3,0.2,0.6,0.3,0.9,0.5c1.1,0.6,2.2,0.7,3.2-0.4c0.5-0.5,1.2-1.1,2-0.6c0.5,0.4,0.3,1.3-0.5,2.2C137,92.3,136,92.7,135.2,92.6z"
		/>
	<path class="st63" d="M165.9,70c-1.3,0-2.2-0.9-2.3-2.2c0-1.1,0.8-2.1,1.9-2.1c1.2-0.1,2.2,1.1,2.2,2.5
		C167.7,69.3,167.1,69.9,165.9,70z"/>
	<path class="st64" d="M118.9,70.4c0.9,0,2.2,1.2,2.2,2.2c0,1-1.4,2.6-2.3,2.6c-0.8,0-2-1.7-2-2.7C116.8,71.5,117.9,70.4,118.9,70.4
		z"/>
	<path class="st65" d="M76,16.7c0.6-0.7,1.4-1.1,2.2-1.6c0.6-0.3,1.1-0.7,1.4-1.2c0.3,0,0.6,0,0.9,0c1.3,0,1.3,0,1.6,1.4
		c0.1,0.4,0.2,0.7,0.4,1c0.5,1,0.2,1.3-0.9,1.1C79.7,17,77.8,17,76,16.7z"/>
	<path class="st66" d="M80.3,9.2c2.5-1,5.1-1.4,7.8-1.7c0.5,0.4,1,0.8,1.5,1.2c0.2,0.2,0.3,0.5,0.2,0.8c-0.1,0.4-0.5,0.3-0.7,0.3
		c-2.5,0-4.9-0.2-7.3-0.5C81.2,9.3,80.8,9.3,80.3,9.2z"/>
	<path class="st1" d="M120.8,20.1c2.3,0.3,4.4,1,6.6,1.7c2.7,0.8,5.2,2.1,7.9,3.2c1.6,0.6,2.1,1.7,2.1,3.3c0,0.8-0.1,1.7,0.2,2.4
		c0.2,0.3,0.1,0.7-0.3,0.9c-0.3,0.2-0.5-0.1-0.8-0.2c-3.7-2.1-7.6-3.8-11.8-4.8c-1.7-0.4-2.6-1.1-2.7-2.8c0-0.7-0.6-1.1-0.8-1.7
		C121.1,21.5,120.6,21,120.8,20.1z"/>
	<path class="st1" d="M117.6,38.6c1.8,0.2,3.5,0.7,5.1,1.3c2.2,0.7,4.4,1.4,6.3,2.6c1,0.6,1,0.8,0.4,1.8c-0.8,1.3-1.9,2.3-2.9,3.3
		c-0.3,0.3-0.7,0.4-1.1,0.2c-3.2-2.1-6.7-3.3-10.4-4.2c-0.5-0.1-0.7-0.7-0.3-0.9c1.2-0.8,1.2-2.2,1.7-3.4
		C116.8,38.5,116.8,38.5,117.6,38.6z"/>
	<path class="st67" d="M130.2,16c-2.5-0.8-4.9-1.3-7.2-1.6c-1.8-0.2-3.3-0.7-4-2.5c-0.2-0.6-1-0.8-1.2-1.6c3.2,0.6,6.3,1.2,9.4,1.9
		C129,12.6,129.5,14.3,130.2,16z"/>
	<path class="st68" d="M110.9,21.7c0,0.3,0,0.3,0,0.4c-0.3,2.1-0.3,2-2.5,1.8c-1.4-0.2-2.8-0.6-4.2-0.5c-0.6,0-1.4-0.1-1.5-0.7
		c-0.1-0.7-0.5-1.6,0.1-2.4c0.2-0.2,0.4-0.4,0.7-0.3C106,20.8,108.5,21.2,110.9,21.7z"/>
	<path class="st68" d="M108.1,8.1c-1.6,0.2-2.7-0.3-3.9-0.4c-1-0.1-2-0.3-3-0.2c-0.8,0-1.5-0.2-2-0.8c-0.7-0.7-1.4-1.4-2.3-2.2
		c1.4,0,2.4-0.1,3.4,0c0.6,0.1,1.3,0.2,1.9,0.2c1.7-0.1,3.1,0.7,4.1,1.9C106.8,7,107.2,7.5,108.1,8.1z"/>
	<path class="st65" d="M101.5,12.3c2.3,0.1,4.2,0.7,6.2,0.6c0.5,0,0.9,0.2,1.3,0.5c0.4,0.4,0.9,0.9,0.7,1.5
		c-0.3,0.7-0.9,0.4-1.4,0.4c-1.5,0-3-0.4-4.5-0.4C102.4,14.8,102.2,13.4,101.5,12.3z"/>
	<path class="st67" d="M130.4,36.2c-2.2-1.5-4.4-2.4-6.7-3.3c-1.7-0.7-1.7-0.6-1.3-2.4c0.1-0.3,0.1-0.6,0.2-0.7
		c0.3-0.2,0.5-0.1,0.8-0.1c2.4,1,4.8,1.9,7.2,3c0.6,0.3,1,0.6,0.6,1.3C130.8,34.7,130.7,35.4,130.4,36.2z"/>
	<path class="st69" d="M108.6,28.4c1.5,0.2,3,0.7,4.7,0.8c0.8,0.1,1.1,0.8,1,1.6c0,0.5-0.3,0.8-0.8,0.7c-1.7-0.3-3.4-0.7-5.1-1
		c-0.4-0.1-0.6-0.3-0.8-0.7c-0.2-0.4-0.5-0.7-0.3-1.1C107.6,28.3,108.1,28.5,108.6,28.4z"/>
	<path class="st69" d="M137.4,17.8c1.5,0.7,2.7,1.3,4,1.9c1.1,0.5,1.5,1.4,1.3,2.6c-0.6-0.1-4.1-1.8-4.4-2.1
		C137.7,19.7,137.6,18.9,137.4,17.8z"/>
	<path class="st70" d="M146.4,35.5c-1.1-1-1.8-2.1-2.7-3c-0.6-0.6-0.8-1.8-0.5-2.8C146.4,30.3,147.3,32,146.4,35.5z"/>
	<path class="st71" d="M143.2,41.4c-1-0.7-1.2-1.7-1.8-2.5c-0.2-0.3-0.1-0.7-0.1-1c0-0.4,0.1-0.7,0.5-0.9c0.4-0.2,0.7,0.1,0.9,0.4
		c0.4,0.5,0.8,1,1.1,1.5C144.3,39.7,144.3,40,143.2,41.4z"/>
</g>
</svg>
