<?xml version="1.0" encoding="utf-8"?>
<!-- Generator: Adobe Illustrator 19.2.1, SVG Export Plug-In . SVG Version: 6.00 Build 0)  -->
<svg version="1.1" id="Ebene_1" xmlns="http://www.w3.org/2000/svg" xmlns:xlink="http://www.w3.org/1999/xlink" x="0px" y="0px"
	 viewBox="0 0 376 261.5" style="enable-background:new 0 0 376 261.5;" xml:space="preserve">
<style type="text/css">
	.st0{opacity:0.78;fill:url(#SVGID_1_);}
	.st1{fill:#010202;}
	.st2{fill:#4CA9DF;}
	.st3{fill:#3176A9;}
	.st4{fill:#FFFFFF;}
	.st5{fill:#3076A8;}
	.st6{fill:#95A1A1;}
	.st7{fill:#96A1A0;}
	.st8{fill:#96A1A1;}
	.st9{fill:#69C2BD;}
	.st10{fill:#4CA8DF;}
	.st11{fill:#69C2BE;}
	.st12{fill:#3075A8;}
	.st13{fill:#95A0A0;}
	.st14{fill:#3078AA;}
	.st15{fill:#4AA8DF;}
	.st16{fill:#DADB23;}
	.st17{fill:#95A09F;}
	.st18{fill:#FEFEFE;}
	.st19{fill:#8E9999;}
	.st20{fill:#94A0A0;}
	.st21{fill:#FCFCFC;}
	.st22{fill:#60C0C2;}
	.st23{fill:#2D7AAB;}
	.st24{fill:#67C1BE;}
	.st25{fill:#F9FAFA;}
	.st26{fill:#8F9C9B;}
	.st27{fill:#48A6DD;}
	.st28{fill:#FBFBFB;}
	.st29{fill:#8F9A99;}
	.st30{fill:#2F77A9;}
	.st31{fill:#F9F8F8;}
	.st32{fill:#F6F6F6;}
	.st33{fill:#2D6FA0;}
	.st34{fill:#2F73A4;}
	.st35{fill:#929D9D;}
	.st36{fill:#2E74A5;}
	.st37{fill:#7C8584;}
	.st38{fill:#F2F2F2;}
	.st39{fill:#F4F4F4;}
	.st40{fill:#42A6D9;}
	.st41{fill:#869191;}
	.st42{fill:#F1F1F1;}
	.st43{fill:#818A8A;}
	.st44{fill:#848E8E;}
	.st45{fill:#EFF0EF;}
	.st46{fill:#F2F3F3;}
	.st47{fill:#7D8686;}
	.st48{fill:#889292;}
	.st49{fill:#E5E5E5;}
	.st50{fill:#798383;}
	.st51{fill:#F8F7F7;}
	.st52{fill:#666F6F;}
	.st53{fill:#737D7C;}
	.st54{fill:#798281;}
	.st55{fill:#D3D3D3;}
	.st56{fill:#545B5B;}
	.st57{fill:#6D7574;}
	.st58{fill:#A9A9AA;}
	.st59{fill:#444A4A;}
	.st60{fill:#B4B8B6;}
	.st61{fill:#B7B7B7;}
	.st62{fill:#69C2BF;}
	.st63{fill:#040607;}
	.st64{fill:#050606;}
	.st65{fill:#080809;}
	.st66{fill:#48ABE1;}
	.st67{fill:#317FAF;}
	.st68{fill:#4BAAE0;}
	.st69{fill:#4AABE1;}
	.st70{fill:#46ADE2;}
	.st71{fill:#47ACE2;}
	.st72{fill:#45AEE3;}
</style>
<radialGradient id="SVGID_1_" cx="272.7571" cy="383.3074" r="295.2566" gradientUnits="userSpaceOnUse">
	<stop  offset="0.4386" style="stop-color:#0A0806"/>
	<stop  offset="1" style="stop-color:#0B77BD;stop-opacity:0"/>
</radialGradient>
<ellipse class="st0" cx="175.4" cy="242.5" rx="175.4" ry="19"/>
<g>
	<path class="st1" d="M298,245c-0.4,0.5-0.6,1.1-0.7,1.7c-0.2,1.7-1.1,3.1-2.2,4.4c-1.5,1.9-3.4,3.4-5.4,4.8
		c-3.8,2.7-8.2,3.4-12.6,4.1c-3.2,0.5-6.3,0.3-9.5,0.5c-2.1,0.1-4.2,0.2-6.3-0.2c-4.8-0.8-9-2.7-12.7-5.9c-1.1-1-2.3-1.9-3.3-2.9
		c-2.7-2.5-4.5-5.6-5.9-8.9c-0.2-0.5-0.4-1-0.5-1.4c-0.1,0-0.2-0.1-0.2,0c-3.3,1.7-6.7,1.2-10.1,0.6c-2-0.4-4-0.7-6-1.3
		c-1-0.4-1.7,0.4-2.4,1.2c-1.7,1.9-3.5,3.8-5.5,5.5c-1.8,1.5-3.7,2.7-5.8,3.6c-1.9,0.9-3.6,2-5.5,2.8c-2.8,1.2-5.8,1.9-8.8,2.3
		c-2.1,0.3-4.3,0.6-6.4,1c-6.5,1.4-12.7,0.6-19-1.4c-2.8-0.9-5.2-2.6-7.6-4c-1.8-1-3.2-2.5-4.1-4.5c-0.6-1.5-1.5-2.8-2.2-4.3
		c-2.1-4.1-2.1-8.3-0.4-12.5c0.7-1.8,1.6-3.5,3.3-4.7c0.8-0.6,1.7-1,2.8-0.9c1.6,0,3.2-0.1,4.6,0.8c2.3,1.4,3.3,3.5,2.6,6.1
		c-0.3,1.1-0.8,2.1-1.2,3.1c0.9,1.2,2.3,1.1,3.4,1.4c1.1,0.3,2.3,0.4,3.5,0.4c1.5-0.1,3,0.6,4.5,0.3c2.4-0.5,4.9-0.3,7.3-1.2
		c13.3-3,11.9-40,12-41.9c0-0.8-13.4,0.5-24.1-12.5c-1.5-1.7-2.6-3.7-2.9-6c-0.4-3.1-1.6-6.1-1.8-9.2c0-0.6-0.4-0.9-0.9-1
		c-1.9-0.3-2.7-1.5-2.9-3.3c-0.1-0.5-0.3-0.9-0.8-1.1c-0.8-0.4-1.4-1.1-2.1-1.6c-1.5-1-2.1-2.5-1.9-4.3c0.1-0.5,0.1-1.1,0.2-1.6
		c0.1-0.9-0.2-1.6-1-2.1c-1.2-0.8-1.8-1.8-1.6-3.3c0.1-0.9-0.3-1.6-0.7-2.3c-1.3-2.1-1.6-4.4-0.9-6.8c0.3-1.2,0.5-2.5-0.7-3.5
		c-0.7-0.6-0.9-1.7-0.8-2.6c0.2-1.6-0.3-3.1-0.9-4.5c-0.4-1.1-0.6-2.1-0.6-3.3c0-1.1,0.1-2.1,0-3.2c-0.1-1.6,0.1-3.1,0.8-4.5
		c0.6-1.3,0.6-2.6,0.2-3.9c-1-3.2-1-6.4,0.1-9.6c0.1-0.4,0.1-0.9,0.1-1.4c0-2.5,0-5.1,0-7.6c0-1.2,0.2-2.3,0.8-3.2
		c0.6-0.9,0.7-1.8,0.7-2.9c0-1.7,0.4-3.2,1.4-4.6c1-1.4,1.4-3.1,1.5-4.8c0.3-3,1.6-5.5,3.2-7.9c1-1.5,1.8-3.1,2.2-5
		c0.3-1.6,1.3-2.9,2.5-4c0.9-0.9,1.5-1.8,1.9-2.9c0.5-1.4,1.2-2.6,2.3-3.5c1.8-1.5,2.9-3.5,4.2-5.4c1.5-2.1,3.5-3.8,5.7-5.2
		c0.9-0.5,1.8-0.9,2.4-1.7c1.9-2.4,4.7-3.6,7.3-4.9c0.8-0.4,1.6-0.9,2.3-1.6c0.7-0.9,1.7-1.4,2.8-1.7c0.5-0.1,1-0.3,1.3-0.9
		c1.1-2.2,2.8-4,4.1-6c2.3-3.4,5.2-6.4,8.3-9.2c3.1-2.8,6-5.6,9.6-7.8c3.3-2,6.6-4.2,10.2-5.6c3.8-1.6,7.8-2.9,12-3.5
		c1-0.2,2.1-0.4,3.1-0.6c6.8-1.5,13.7-1.3,20.6-0.8c3.2,0.3,6.4,1,9.6,1.5c2,0.4,3.8,1.2,5.7,1.9c2.6,0.9,5.1,1.9,7.4,3.2
		c0.5,0.3,1,0.4,1.4,0.8c2.6,2.1,5.5,3.7,8.2,5.6c2.2,1.6,4.1,3.6,5.9,5.6c2.3,2.4,4.7,4.8,6.7,7.6c2.5,3.6,4.9,7.3,6.8,11.4
		c2.9,6.1,4.3,12.6,6.1,19c0.2,0.8,0.4,1.1,1.3,1.2c3,0.2,5.9,0.9,8.9,1c1.1,0,2,0.6,2.9,1.2c1.2,0.8,0.7,2,0.7,3.1
		c0,0.9-0.7,1.4-1.6,1.6c-0.4,0.1-0.8,0.1-1.2,0.3c-0.4,0.1-0.5,0.4-0.5,0.8c0.1,4-0.4,7.8-1.6,11.6c-0.8,2.5-1.1,5.1-2.3,7.4
		c-0.7,1.3-1.5,2.6-2.2,3.8c-0.5,0.9-0.7,1.7-0.7,2.7c1,10.6,2.1,23.7,0.3,36.3c-2.3,15.2-2.6,19.5-5.4,35.2
		c-3.8,19.3,0.8,33.8,1.4,38c0.2,1.7,1.1,3.1,1.8,4.6c1.6,3.2,3.2,6.3,5.7,8.9c0.6,0.6,1.3,1,2,1.4c3.1,1.9,6.3,3.4,9.7,4.6
		c1.7,0.6,3.6,0.8,5.3,1.2c0.7,0.2,1.2-0.1,1.4-0.7c0.6-2,2.3-3.1,3.6-4.5c0.6-0.6,1.6-0.8,2.5-0.8c1.1,0,1.9-0.4,2.4-1.6
		c1.2-2.8,3.6-3.9,6.5-4.2c2.1-0.2,4.1,0.1,6,1.1c1.3,0.7,2.5,1.6,3.2,2.9c2.1,3.7,3.6,7.7,3.1,12c-0.3,3-1.3,5.9-3.9,8
		c-1.1,0.9-2.2,1.8-3.6,2.2c-0.7,0.3-0.9,0.9-1.2,1.5c-1.7,3-3.4,6-6.1,8.4c-0.9,0.8-1.8,1.5-2.7,2.2c-1.4,1-15.1,8.5-31.2,6.6
		c-4.5-0.5-8.9-1.5-13.2-3c-0.6-0.2-1.3-0.3-1.9-0.4c-1.3-0.3-2.6-0.6-3.8-1.3C305,248.4,301.6,246.5,298,245z"/>
	<path class="st2" d="M351.1,223.5c1.7-4,5.4-5.8,9.5-4.5c2.8,0.8,4.7,3.3,4.8,6.2c0,2.2,0,4.4,0,6.5c0,1.9-0.8,3.5-1.6,5.2
		c-1.3,2.6-3,4.9-5.1,6.9c-5.6,3.1-11.3,5-17.9,4.3c-4.6-0.5-9.2-1-13.9-1.5c-3.9-0.4-7.4-1.8-11.1-3c-6-2-11.5-5.1-17.2-7.9
		c-0.8-0.4-1.5-0.9-1.8-1.8c-1-2.2-2.1-4.3-3.7-6.2c-1.9-2.2-4.1-3.9-7.1-4.3c-0.5-0.1-0.9-0.3-1.3-0.4c-2.7-1.6-5-3.6-6.3-6.5
		c-0.4-1.5-0.8-3-1.5-4.3c-1-1.8-1.1-3.8-1.4-5.8c-0.4-2.7-0.2-5.4-0.3-8.1c0-1.8,0.2-3.5,0.5-5.3c0.1-0.9,0.2-1.7-0.2-2.7
		c-0.6,0.3-0.5,0.9-0.6,1.2c-0.4,2.9-1.5,5.7-1.5,8.7c0,5.1-0.6,10.2,0.7,15.1c0.7,2.6,1.7,5.1,2.8,7.6c0.5,1.1,0.5,1.1-0.6,1.4
		c-5,1.6-8.8,6.5-8.6,11.7c0.1,3.1,2.2,5.8,5.2,6.6c2,0.5,3.9,1,5.9,0c1.1-0.6,2.2-1.2,3.2-1.8c2.6-1.6,2.6-5.3-0.1-6.9
		c-0.6,0.3-1.2,0.1-1.7,0.1c-2.3-0.1-3.4,0.6-4.3,2.7c-0.2,0.5-0.5,0.9-1.1,0.9c-2.2,0-4.5-2.6-4.2-4.9c2-4.7,5.7-6.7,10.6-6.9
		c1.5-0.1,2.9,0,4.4,0.4c4.8,1.3,7.1,4.7,8.1,9.2c0.2,1,0.3,2,0.4,3c0.8,4.4-0.9,7.6-4.3,10.3c-4.8,3.7-10.1,5.5-16.2,4.5
		c-0.4-0.1-0.8-0.1-1.2,0c-9.9,1.2-17.8-3.1-24.9-9.5c-1.2-1.1-1.9-2.7-2.7-4.2c-1.2-2.4-2.5-4.7-4-6.9c-0.8-1.1-1.5-2.4-1.8-3.8
		c-0.9-3.4-2.1-6.6-3-10c-0.3-0.7-0.3-1.5-0.3-2.3c0-2.7-0.1-5.4,0-8.2c0.2-7.2-0.4-14.3-0.5-21.4c0-1.6-0.2-3.2-0.3-4.8
		c-0.6,0.1-0.6,0.4-0.6,0.7c-0.4,6-0.3,12-0.1,18.1c0.1,1.8,0,3.7-0.4,5.4c-0.4,1.8-0.6,3.6-0.8,5.4c-0.2,2.1-1,4-1.8,5.9
		c-0.4,1.1-0.9,2.2-1.2,3.3c-1,4-2.9,7.6-5.4,10.9c-2.4,3.1-5.3,5.8-7.8,9c-1,1.3-2.3,2.2-3.6,3.1c-2.6,1.9-4.9,4.3-7.7,5.8
		c-1.6,0.9-3.2,1.5-4.9,1.8c-2.7,0.5-5.3,1.2-7.9,1.6c-2.1,0.3-4.4,0.3-6.5,0.4c-4.1,0.6-7.8-0.1-11.4-2.2c-2.6-1.6-5.2-3.2-7.9-4.8
		c-3.2-1.9-4.5-5-5.1-8.5c-0.2-1,0.5-1.5,1.3-1.9c1.2-0.5,2-0.1,2.9,0.7c2,1.6,4.4,2.2,6.9,2.3c1.8,0.1,3.6,0,5.5-0.3
		c2-0.3,4-0.3,5.9-0.7c1.1-0.2,2.1-0.8,3.2-0.8c0.9,0.3,1.8,0.1,2.5-0.4c3.5-2.3,6.7-4.8,9.8-7.5c3.4-3,4.7-7.1,6-11.2
		c1.1-3.8,1.3-7.7,1.7-11.5c0.4-3.8,1.1-7.5,1.5-11.2c0.1-1.2,1-1.7,1.8-2.3c1.8-1.3,3.6-2.4,4.8-4.4c1.1-1.8,1.8-3.5,1.3-5.6
		c0.1-0.1,0.1-0.2,0.2-0.3c2.4-2.2,4.1-5,6.2-7.5c3.3-3.9,4.9-8.4,5.6-13.4c0.5-3.2,0.3-6.3-0.6-9.5c-0.4-1.2-1.4-2.2-1.5-3.4
		c0-1.1,0.8-2.2,0.8-3.4c0-1,0.3-1.7,1.1-2.5c1.1-1.1,1.4-2.7,1-4.1c-0.5-1.9-0.9-3.9-2.6-5.3c-0.3-0.3-0.5-0.7-0.6-1
		c-0.7-2.5-2-4.7-3.1-7.1c-1.1-2.7-2.8-5-4.3-7.5c-1.4-2.4-3.9-3.9-6.7-4.6c-1.8-0.4-3.5-0.8-5.3-1.2c-1.1-0.3-1.3-1.2-1.2-2.1
		c0.8-5.9-0.5-11.8,0-17.7c0.1-2-0.3-3.9-0.4-5.8c-0.2-5,0.2-9.9,1.2-14.8c1-5.5,1-11,1.7-16.5c0.6-5.1,1.4-10.2,3-15.1
		c0.1-0.4,0.3-0.9,0.4-1.4c1-6.9,5-12.1,9.4-17.1c1.7-1.9,3.6-3.4,5.7-4.8c2.1-0.2,4.2,0,6.3,0.3c1.4,0.1,2.8,0.1,4.2,0.1
		c1,0,1.1-0.4,1-1.5c-0.3-2.6-1.5-3.7-4.1-3.3c-0.5,0.1-1.1,0-1.3-0.6c0.7-1,1.8-0.5,2.7-0.9c0.6-0.3,1.3-0.5,1.9-0.9
		c2.5-0.5,4.9,0.3,7.3,0.2c0.4,0,0.9,0.3,1.2-0.1c0.4-0.5-0.1-0.9-0.3-1.3c-1.1-1.6-2.2-3.2-3.1-4.9c-0.2-0.4-0.6-0.7-0.5-1.3
		c1.8-0.6,3.6-1,5.4-1.2c4-0.5,8-0.4,11.9-0.2c2.7,2.3,6.1,2,9.2,2.7c1.1,0.2,2.2,0.5,3.3,0.6c0.3-0.5-0.2-1,0-1.4
		c3.8,0.8,7.5,1.7,11,3.4c0.6,0.3,1.2,0.5,1.7,0.8c1.4,1.2,2.6,2.4,3.4,4c0.3,0.7,1,1.2,1.7,1.5c2.8,1.4,5.7,2.6,8.4,4.1
		c1.5,0.8,2.5,2.1,3.7,3.3c3.2,3.5,6.3,7.1,8.7,11.1c2.4,4,4.5,8.1,6.4,12.4c1.6,3.6,2.3,7.3,3.1,11c0.4,1.7,0,2-1.8,1.8
		c-3.8-0.2-7.7-0.1-11.5,0.3c-1.7,0.2-3.4,0.1-5.1,0.3c-3.1,0.3-6,1.4-8.7,2.9c-0.7,0.4-1.1,0.4-1.4-0.3c-0.7-1.5-2.2-1.8-3.6-1.9
		c-2.2-0.1-4.5-0.2-6.7,0.3c-1.2,0.3-2.1,0.5-2.4,1.9c-0.1,0.5-0.6,0.8-1.2,0.8c-0.9,0-1.8,0-2.6-0.3c-1.7-0.5-3.5-0.4-5.3-0.4
		c-3.1,0.1-6.2,0-9.4,0.1c-5.9,0.3-11.6,1.7-17.5,2.4c-2.6,0.3-5.1,0.6-7.6,1.3c-0.9,0.2-1.6,0.6-2.4,0.9c-0.2,0.1-0.3,0.2-0.3,0.4
		c0.2,1.7-0.2,2.9-2,3.8c-1.9,1-1.7,3.4,0.3,4.5c1.1,0.6,1.8,1.5,2.2,2.6c0.6,1.8,0.9,3.7,1.4,5.5c2.2,8.6,7.7,14.2,16,16.6
		c4.5,1.3,9.3,1.4,13.9-0.5c0.6-0.2,1.2-0.5,1.8-0.7c5.6-1.7,9.6-5,11.9-10.5c1.3-3.2,2-6.4,2-9.8c0-2.1,0.5-4.2,0.7-6.3
		c1.6-1,3.1-0.1,4.6,0.1c2.4,0.3,2.4,0.5,2.9,3c1.5,7.1,4.1,13.6,9.8,18.4c3.9,3.2,8.5,4.5,13.6,3.8c1.5-0.2,3-0.4,4.5-0.8
		c2.3-1.1,4.5-2.3,6.9-3.5c0.4,0.6,0.7,1.8,0.7,2.3c2.7,27.3-2.6,46.1-3,49c-0.6,4.4-1.1,8.8-1.6,13.2c-0.8,6.1-3.8,22,0.4,42.5
		c0.4,2.5,0.6,5.1,1.6,7.6c0.8,1.9,1.8,3.7,3.2,5.2c1.9,2.1,4.2,3.7,5.9,6c0.7,1,1.8,1.5,2.9,2c3.2,1.7,6.7,2.9,10.3,3.8
		c1.3,0.3,2.6,0.8,3.9,1c0.8,0.2,0.8,0.8,0.9,1.3c0.2,1.4-0.9,1.7-1.7,2.1c-3.6,1.6-7.2,1.4-10.6-0.3c-3.6-1.8-7.3-3.5-10.8-5.6
		c-1.9-1.5-3.3-3.3-4.5-5.4c-1.2-2.1-2.8-3.9-3.9-6.1c-1.4-3-2.9-6-4.7-8.9c-0.2-0.3-0.4-0.6-0.4-1c-0.8-3.9-2.9-7.5-3.5-11.4
		c0-0.1-0.2-0.1-0.3-0.2c-0.6,0.4-0.4,0.9-0.3,1.4c0.6,3.1,1,6.3,1.8,9.3c0.5,1.8,1.1,3.5,1.9,5.1c0.7,1.3,1.4,2.6,1.8,4
		c1.1,3,2.9,5.7,4.3,8.5c1.9,3.7,4.9,6.5,8.3,8.8c3.6,2.4,7.1,4.9,11.1,6.6c1.4,0.6,2.9,1,4.4,1c2.1,0,4.3,0,6.3-0.8
		c2.3-0.9,4.4-2,6.3-3.5c1.8-1.4,2.4-3.5,1.7-5.3c-0.1-0.2-0.2-0.4-0.4-0.6c-1-1.5-1.9-1.5-2.7,0.1c-0.3,0.7-0.6,1.4-1.5,0.8l0,0
		C350.9,224.7,350.9,224.1,351.1,223.5z"/>
	<path class="st3" d="M227,17.6c-0.6,0.9-1.6,1.4-2.4,2.1c-2.9,2.3-5.1,5.2-7.2,8.2c-0.3,0.5-0.8,0.9-1.2,1.3
		c-0.5,0.5-0.9,1.1-1.2,1.7c-1,2.3-1.7,4.8-2.4,7.2c-0.8,2.8-1.8,5.6-2.3,8.5c-0.5,3.1-1.2,6.1-1.5,9.2c-0.3,3.3-0.6,6.7-0.7,10
		c-0.1,1.8-0.5,3.6-0.8,5.4c-1.1,5.7-1.6,11.5-1.2,17.2c0.3,3.5,0.2,7.1,0.2,10.6c0,2.4,0.5,4.8,0.4,7.2c0,1.5-0.4,3-0.4,4.6
		c0,0.7,0.7,1.6,1.2,2c-1.7-0.6-3.8-0.6-5.5-0.6c-3.8-0.1-7.1,0.4-10.3,2.3c-0.1-0.1-0.3-0.2-0.3-0.2c0.1-3.7-1-7.2-1.6-10.8
		c-1-5.9-2-11.9-1.5-17.9c0.5-27.4,6.3-39.8,7-42.1c1.1-3.4,2.9-6.6,5-9.5c1.7-2.5,3.6-4.8,5.3-7.3c1.5-2.1,3.3-3.8,4.9-5.8
		c0.7-0.9,1.6-1.6,2.5-2.3c1.6-1.3,3.1-2.5,4.7-3.7c1.3,1.8,3.2,1.8,5.2,1.9C224.3,17.1,225.7,16.6,227,17.6z"/>
	<path class="st2" d="M214.6,135.3c-1,1.5-1.1,3.1-0.6,4.7c0.2,0.7,0.5,1.3,0.8,2c0.3,0.8,0.2,1.3-0.5,1.8c-1.7,1-3.3,2.1-4.9,3.1
		c-1.2,0.7-2.3,1.6-3.3,2.7c-2,2.3-4.3,4.2-6.4,6.4c-2.9,3-4.5,6.5-3.9,10.7c0.1,0.4,0.3,0.8-0.1,1.1c-0.3,0.2-0.7-0.1-0.9-0.3
		c-0.7-0.6-1.3-1.7-2.3-0.5c-0.8,1-0.4,2.1,0.4,3c2.2,2.5,5.2,3,8.3,3c1,0,2.1,0.1,3.1-0.2c1.8-0.4,3.5-1.2,5.2-2
		c1.5-0.7,2.7-1.8,3.8-3.1c2.6-3.2,4.8-6.5,5.9-10.5c0.4-0.5-0.3-1.6,0.9-1.6c1.5,0,1.6,1.5,2.3,2.6c0.6-0.9,0.5-1.8,0.5-2.7
		c0-0.9-0.1-1.8,0.4-2.6c1.1-0.8,1.6-0.7,1.9,0.6c0.4,1.8,0.9,3.6,0.8,5.6c-0.2,4.4-1.3,8.5-3.5,12.2c-0.4,0.7-0.8,1.4-1.5,1.9
		c-0.8,0.1-0.7-0.5-0.6-1c0.1-0.9,0.3-1.8,0.7-2.7c-2.8,5.4-7.6,8.6-12.5,11.5c-4.6,2.7-9.9,3.3-15.3,2.6c-1.3-0.2-2.7-0.6-4-0.9
		c-4.3-1.1-7.3-3.8-8.6-8.1c-0.1-0.3-0.2-0.7-0.3-1c-4.2-11.1-1.9-21.7,2.9-31.9c1.5-3.3,4.5-5.9,7.8-7.8c0.7-0.4,1.5-0.8,2.1-1.3
		c1-0.8,1.7-1.7,1.1-3.1c-0.5-1.3-1.4-2.2-3-2c-0.5,0-1.3,0.4-1.6-0.3c-0.3-0.6,0.3-1.1,0.7-1.6c1.4-2.1,3.6-2.7,6-3
		c8.8-1.1,15.3,5.7,18.4,10.9C215.2,134.2,215.2,134.8,214.6,135.3z"/>
	<path class="st3" d="M214.6,135.3c0.2-0.5,0.2-0.9-0.1-1.5c-2.6-4-5.8-7.3-10.2-9.5c-3.4-1.7-6.8-1.4-10.3-0.6c-2,0.4-3,2-4.1,3.6
		c0.6-0.1,1.1-0.1,1.6-0.2c1.4-0.2,2.3,0.4,3,1.7c0.9,1.9,0.8,2.6-0.7,4c-0.7,0.6-1.5,1-2.2,1.4c-2.2,1.2-4,2.9-5.5,4.8
		c0,0-0.1,0.1-0.1,0.1c-3.5,3.4-4.7,7.9-5.7,12.5c-0.6,2.7-1.1,5.4-1.4,8.2c-0.3,3.3-0.3,6.6,0.8,9.8c0.7,2.1,1.2,4.2,2.1,6.2
		c1.4,3.5,4.2,5.6,7.8,6.5c1,0.3,2.1,0.4,3.1,0.7c2.7,0.8,5.5,0.4,8.2,0c1.2-0.2,2.3-0.5,3.5-0.7c2.7-0.5,5-2,7.1-3.7
		c0.8-0.6,1.6-1.2,2.5-1.7c2.2-1.6,4.2-3.5,5.6-5.8c0.6-1,1.2-2.1,2.2-2.8c0.5,0.7,0.1,1.1-0.1,1.5c-0.6,0.9-0.6,2-0.8,3
		c0,0.1,0.2,0.3,0.3,0.4c-1.3,2.1-2.7,4.3-4.5,6.1c-1.9,2-3.9,3.7-6.3,5.1c-0.9,0.5-1.9,1-2.7,1.6c-3.3,2.2-6.9,3.4-11,3.1
		c-2.2-0.2-4.5,0-6.7-0.7c-1.7-0.6-3.2-1.3-4.8-2.3c-2-1.2-3.9-2.5-5.7-3.9c-1.6-1.2-2.9-2.6-4.2-4.1c-1.2-1.4-1.7-3.1-2-4.8
		c-0.1-0.4,0-0.9-0.2-1.2c-1.6-3.7-1.5-7.7-2.2-11.6c-0.1-0.5-0.1-1.1,0-1.6c0.6-3.2,1.1-6.5,2.1-9.7c0.8-2.4,2.1-4.6,3.1-7
		c1.6-3.9,4.3-7.1,6.6-10.5c0.2-0.3,0.5-0.7,0.7-1c1.6-2.9,4.1-5.1,6.7-7c3-2.2,6.4-3.3,10.4-2.7c4.8,0.6,8.1,3.2,11.2,6.5
		c1,1.1,2.1,2.1,2.9,3.3c0.5,0.7,0.8,1.5,1.1,2.2C215.8,134.1,215.7,134.9,214.6,135.3z"/>
	<path class="st4" d="M325.6,63.9c1.3,0.7,1.7,1.7,1.8,3.2c0.1,4.4-0.3,8.7-1.3,13c-0.8,2.9-2.1,5.7-4.1,8c-1.9,2.3-4.5,3.3-7.5,3.4
		c-3,0-6-0.3-8.8-1.5c-0.7-0.3-1.1-0.8-1.7-1.2c-2.9-1.8-4.3-4.8-5.9-7.6c-0.6-1.2-0.7-2.5-0.9-3.8c-0.3-1.7-0.6-3.4-0.6-5.1
		c0-1.1-0.1-2.1-0.5-3.1c0.1-1.4,1.3-1.4,2.2-1.6c4.7-0.9,9.4-2,14.3-2.3c3.2-0.2,6.2-1.2,9.4-1.5C323.1,63.5,324.3,63.5,325.6,63.9
		z"/>
	<path class="st4" d="M275.2,68.9c0.5,3.9,0.7,7.9-0.2,11.8c-1.5,6-4.5,10.9-10.5,13.3c-2.8,1.1-5.6,0.8-8.4-0.2
		c-0.9-0.3-1.8-0.6-2.6-1c-3.9-1.8-6.8-4.7-8.7-8.5c-1.2-2.4-2.1-5-2.3-7.7c-0.2-3.5-0.2-3.6,3-4.4c8.4-2,16.9-3.6,25.6-3.4
		C272.5,68.8,273.9,68.1,275.2,68.9z"/>
	<path class="st3" d="M216.7,183.5c1,1.7,0.9,3-0.2,4.5c-0.1,0.1-0.2,0.2-0.2,0.3c-1.1,2.8-3.6,4.3-5.9,5.9c-0.8,0.5-1.1,1-1.2,2
		c-0.3,2.1-0.4,4.2-0.8,6.3c-0.5,2.4-0.8,4.8-0.8,7.2c0,3.7-1,7.1-1.9,10.5c-0.5,1.9-1.1,3.7-2.1,5.4c-1.5,2.5-3.3,4.8-5.7,6.4
		c-2.5,1.7-4.7,3.8-7.2,5.4c-0.7,0.4-1.4,0.7-2.1,0.9c-0.6,0.2-1,0-1.3-0.6c3.8-1.7,5.8-5,7.7-8.4c5.6-6.9,4.8-37.3,5.8-37.3
		c1.7-0.2,3.1-1,4.6-1.7c1.7-0.7,3.3-1.5,5-2.3C212.8,186.9,214.6,185,216.7,183.5z"/>
	<path class="st3" d="M296.9,233.9c0.8,1,2,1.5,3.1,2c2.5,1.2,4.8,2.5,7.3,3.7c4.2,2,8.6,3.6,13,5c3.5,1.2,7.1,1.4,10.7,2.1
		c2.9,0.5,5.8,0.7,8.8,0.8c1.9,0.1,3.9,0.2,5.8,0.3c2.5,0.1,4.9-0.7,7.1-1.7c1.9-0.9,3.9-1.7,5.9-2.2c-10.7,7.8-22.9,9.6-35.8,6.5
		c-3.6-1.2-7.4-2-11.1-3.1c-0.3-0.1-0.7-0.1-1-0.3c-3.6-1.8-7.3-3.4-10.6-5.7c0,0-0.1-0.1-0.2-0.1c-1.5-0.6-2.4-1.6-2.2-3.5
		c0.1-0.8-0.5-1.7-0.8-2.5C296.9,234.8,296.9,234.3,296.9,233.9z"/>
	<path class="st3" d="M235.9,218.9c0.5,0.4,0.7,1.1,0.9,1.7c0.7,2.2,1.5,4.4,2,6.6c0.6,2.2,1.5,4.2,2.8,6c1.2,1.6,2.2,3.3,3,5.2
		c1.8,4.5,5.2,7.5,9.3,9.8c2.4,1.4,4.8,2.4,7.4,3.3c2.8,1.1,5.7,1.6,8.6,1.3c2.1-0.2,4.2,0,6.3,0c4.8,0.2,9-1.4,12.8-4.4
		c1.3-1,2.5-2.1,3.5-3.5c1.6-2.1,1.5-4.4,1.6-6.8c0.6,3.6,0.6,7-2.1,9.9c-1.4,1.5-2.7,3-4.3,4.2c-1.3,1-2.7,1.7-4.2,2.2
		c-3.7,1.2-7.6,1.8-11.5,1.9c-1.5,0-3,0.2-4.6,0.4c-4.3,0.6-8.4,0.1-12.3-2.1c-2.8-1.6-5.1-3.8-7.6-5.8c-1.2-0.9-2.2-2.3-3-3.7
		c-1.7-2.9-3.2-5.8-3.9-9.2c-0.6-3.2-1.8-6.3-2.9-9.5c-0.7-2.1-1.2-4.3-1.9-6.5C235.8,219.9,235.8,219.4,235.9,218.9z"/>
	<path class="st3" d="M264.6,99c-0.1,0.3-0.4,0.6-0.8,0.7c-2.7,0.6-5.3,1.6-8.1,0.8c-0.3-0.1-0.6-0.1-0.9-0.1
		c-3.4,0.3-6.3-1.1-9.3-2.4c-1.5-0.7-2.6-1.8-3.8-2.9c-0.7-0.6-1.3-1.4-2-2c-3.1-2.5-4.4-6-5.4-9.7c-0.6-2.1-0.8-4.4-1.7-6.5
		c-0.3-0.8-0.7-1.5-1.6-1.7c-1-0.3-1.9-0.7-2-1.9c-0.2-1.5,0.1-3,1.5-3.5c1.7-0.7,2.4-1.7,2.2-3.4c0-0.1,0.2-0.2,0.4-0.3
		c0,0.8-0.1,1.5-0.1,2.3c0,1.9,0.7,2.8,2.6,3c0.8,0.1,1.3,0.3,1.1,1.2c-0.4,2.6,0.6,5,1.2,7.4c0.7,2.6,1.8,5.1,2.9,7.6
		c0.6,1.4,1.5,2.8,2.5,4c2.6,3.1,5.6,5.5,9.5,6.7c2.8,0.9,5.5,1,8.3,1.1C262.4,99.5,263.5,99.2,264.6,99z"/>
	<path class="st3" d="M162.8,236.4c-1,0.8-1,1.7-0.7,2.8c0.7,2.5,1.6,4.9,3.9,6.5c0.5,0.4,1,0.8,1.6,1c0.8,0.3,1.5,0.8,2.3,1.3
		c3.1,2.1,6.3,3.9,9.7,5.3c0.7,0.3,1.4,0.3,2.1,0.4c1.4,0,2.8,0,4.2,0c-0.4,0.5-0.9,0.5-1.4,0.5c-2.6,0.4-10.2,0.1-13.2-1.2
		c-4.5-2.1-8.7-4.7-11.4-9.1c-1-1.6-2-3.1-2.5-4.9c-0.5-1.9-0.5-3.9-0.4-5.9c0.1-1.5,0.5-2.8,1.4-3.9c1.1-1.4,2.6-2.2,4.4-2.1
		c0.3,0,0.6,0.1,0.8,0.3c-0.5,0.5-0.2,0.9-0.1,1.4c0.4,1.9,0.1,2.8-1.8,3.6c-0.9,0.4-0.8,1.1-1,1.7c-0.4,0.2-1-0.7-1.4,0.2
		c-0.2,0.6,0.2,1.1,0.7,1.5C160.8,236.4,161.8,236.5,162.8,236.4z"/>
	<path class="st4" d="M196.2,115.2c2.9-0.8,5.9-0.8,8.9-0.8c3.4-0.1,6.3,1.2,9.2,2.8c1.5,0.8,2.5,2.1,3.4,3.5
		c2.3,3.7,4.4,7.5,5.6,11.7c0.4,1.2,0.6,2.4,1,3.5c0.3,0.7,0.1,1.5-0.2,2.3c-0.2,0.6-0.4,0.9-1,0.9c-0.6,0-1.1,0-1.2-0.9
		c-0.1-0.5-0.4-1-0.7-1.4c-1.6-1.6-2.3-3.7-2.9-5.8c-0.1-0.3-0.2-0.6-0.3-0.8c-0.8-1.6-1.5-3.3-2.3-4.9c-1.9-4.1-5.2-6.7-9.3-8.1
		C203.1,116.1,199.8,115.2,196.2,115.2z"/>
	<path class="st3" d="M275.2,68.9c-1.5,0.3-2.9,0.2-4.4,0.2c-3.8,0-7.5,0.6-11.3,0.9c-4.7,0.4-9.1,1.9-13.7,2.6
		c-0.5,0.1-1,0.3-1.5,0.5c-1.9,0.7-1.9,0.7-1.8,2.7c0,0.2,0,0.5,0,0.7c-0.5-1.7-0.4-3.5-0.1-5.2c0.2-0.9,0.9-1.5,1.8-1.8
		c3.2-1.1,6.5-2,9.9-2.3c2.8-0.3,5.5-1,8.4-0.9c1.7,0.1,3.4-0.3,5.1-0.4c1.7,0,3.4,0.1,5.1,0.1c1,0,1.7,0.3,1.9,1.3
		C274.8,67.9,275.3,68.3,275.2,68.9z"/>
	<path class="st4" d="M175.9,125.3c-1.9-0.6-3.8-1.2-5.7-1.8c-1.3-0.4-2.6-1-4.1-1c-0.6,0-1.2,0.2-1.5-0.5c-0.3-0.7-0.3-1.5,0.2-2.2
		c0.3-0.4,0.6-0.7,1-1c1.6-1.5,2.2-3.4,2.4-5.5c0-0.4-0.1-0.7-0.3-1c-0.5-0.6-0.7-1.3-1-2.2c0.7,0.4,1.3,0.7,1.7,1
		c2.4,2,5.4,3,7.7,5C178.5,118.7,178.3,123,175.9,125.3z"/>
	<path class="st3" d="M216.2,158.5c0.3,0.3,0.2,0.7,0,1c-1.5,3.7-3.9,6.7-7.2,9c-1.2,0.9-2.7,1.4-4.2,1.9c-1.9,0.7-3.6,0.1-5-1.2
		c-1.4-1.3-1.8-3-1.6-4.9c0-0.6,0.4-0.6,0.9-0.6c1.7,0.1,3.4-0.5,5-0.9c1.7-0.4,3.1-1.3,4.5-2.4c0.3-0.3,0.6-0.6,1.1-0.3
		c2.5,1.3,4.3,0.2,6-1.5c0.1-0.1,0.2-0.1,0.3-0.2C216.1,158.5,216.1,158.5,216.2,158.5z"/>
	<path class="st5" d="M316.4,96.2c-3.5,1.3-7.1,1.7-10.8,1c-2.4-0.5-4.3-1.8-6.4-2.8c-0.3-0.1-0.6-0.4-0.9-0.6
		c-2.6-2.5-4.9-5.1-6.6-8.4c-1.5-3.1-2.5-6.3-3.6-9.5c-0.3-0.9,0-1.8-0.4-2.6c-0.2-0.4-0.3-0.9-0.9-0.9c-2-0.1-3.9-0.7-5.9-0.7
		c0.3-1.2,0.9-1.7,2.1-1.6c2.4,0.2,4.8,0.1,7.2,0.5c0.7,0.1,0.9,0.4,0.9,1.1c0,1.1,0.1,2.1,0,3.2c-0.1,2.4,0.7,4.5,1.7,6.6
		c0.4,0.8,0.8,1.6,1.1,2.4c1.2,2.9,3,5.3,5.3,7.4c1.2,1.1,2.4,2.1,3.6,3.1c1,0.8,2.2,1.4,3.5,1.5c3,0.3,5.9,0.9,8.9,0.3
		C315.7,96.2,316,96.2,316.4,96.2z"/>
	<path class="st4" d="M176.9,102.2c-1.4-0.8-2.7-1.6-4.1-2.3c-0.4-0.2-0.8-0.4-1.3-0.6c-1.8-0.4-2.9-1.9-4-3.2
		c-0.5-0.5-0.3-2.2,0.2-2.6c2-1.5,2.8-3.7,3.3-6c0-0.2,0.2-0.3,0.3-0.5c2.3,1.1,4,3.1,5.9,4.7c2.1,2.9,2.6,6,1.1,9.3
		C178.1,101.5,177.9,102.3,176.9,102.2z"/>
	<path class="st3" d="M237.8,237.1c-4.2,1.8-8.3,1.5-12.6,0.1c4.1-4.6,5.5-10.3,7.6-15.8C233.5,222.4,237,233.3,237.8,237.1z"/>
	<path class="st4" d="M177.3,113.6c-3.4-1.5-6.9-3.1-10.3-4.5c-0.7-0.3-0.8-1-0.8-1.4c-0.1-1.4-0.1-2.9,1.3-3.7
		c0.3-0.2,0.7-0.5,1-0.8c1-0.8,1.6-1.8,1.4-3.4c3.1,2.3,6,4.5,8.9,6.7c1.2,1.8,0.9,5.3-0.5,6.8C177.9,113.5,177.6,113.7,177.3,113.6
		z"/>
	<path class="st4" d="M177.6,89.1c-1.3-1.2-2.7-2.2-4.3-2.9c-1.7-0.7-2.3-2.4-2.7-4.1c-0.1-0.5,0-1.1,0.4-1.5c1.6-1.5,3-3.2,3.5-5.4
		c2.5,1.3,4.7,2.5,6.3,4.6c1,2.8,0.3,5.4-1.1,7.9C179.3,88.5,178.7,89.2,177.6,89.1z"/>
	<path class="st6" d="M176.9,102.2c2.2-2.4,2.1-5.2,1.2-8.1c-0.2-0.8-0.6-1.7-0.9-2.5c2.2,1.4,4.2,3,6.3,4.5
		c0.9,0.7,1.2,1.6,1.2,2.6c0,2.6,0.6,5,1.2,7.5c0.2,0.6,0.4,1.2,0.1,2C183,106.2,180,104.2,176.9,102.2z"/>
	<path class="st5" d="M325.6,63.9c-3.7,0.2-7.3,0.9-11,1.6c-1.4,0.3-2.9,0.5-4.4,0.5c-2,0-3.8,0.6-5.7,0.9c-1.8,0.3-3.7,0.8-5.5,1.1
		c-1.1,0.2-2.3,0.1-3,1.2c-0.2-2.1,0.8-3.7,3-4.5c2.5-0.9,5-1.3,7.6-1.4c4.1-0.2,8.3-0.4,12.4-0.4C321.2,62.9,323.5,62.6,325.6,63.9
		z"/>
	<path class="st4" d="M179.8,76.3c-1.3-1-2.9-1.6-4.3-2.5c-1.6-1.1-1.7-2.6-1.7-4.2c0-0.5,0.4-0.8,0.8-1.1c1.3-1,2.6-2,3.2-3.6
		c2.5,1.9,4.4,4.2,5.8,6.9c0.2,1.6-0.6,2.8-1.5,4C181.5,76.6,180.7,76.7,179.8,76.3z"/>
	<path class="st7" d="M164.1,115c-1,1.7-2.3,3.3-2.6,5.4c0,0.2-0.2,0.4-0.4,0.6c-1.6,1.8-3.2,3.6-4.8,5.4c-0.1,0.1-0.3,0.2-0.7,0.4
		c-0.1-2.4-1.1-4.6-0.1-7.1c0.8-1.9,1.5-3.8,2.7-5.6c0.5-0.8,0.8-1.7,1.2-2.6c0.3-0.6,0.5-1.2,1.1-1.5
		C161.6,111.8,162.2,113.8,164.1,115z"/>
	<path class="st8" d="M177.3,113.6c1.9-2.1,2.1-4.5,1.5-7.1c3.5,2,6.6,4.4,8.7,7.8c0.4,0.7,0.7,1.5,0.9,2.3c0.3,0.9-0.6,1.2-0.9,1.8
		c-0.7,1.1-0.8,1.1-1.7,0.4C182.8,117.1,180.1,115.4,177.3,113.6z"/>
	<path class="st4" d="M174.4,134.1c-1.5-0.3-3.1-0.6-4.6-1c-0.8-0.2-1.7-0.3-2.6-0.2c-0.1-1,0.3-1.7,0.7-2.4
		c0.7-1.3,0.7-2.7,0.7-4.1c0-1-1.1-1.4-1.6-2.5c3.6,1.4,7,2.2,10,4.2C177.7,130.2,176.6,132.9,174.4,134.1z"/>
	<path class="st7" d="M175.9,125.3c0-0.3,0.1-0.6,0.3-0.8c1.5-2.2,1.5-4.6,0.6-7.1c-0.2-0.4-0.5-0.8-0.5-1.3c1.1,0.2,1.8,1,2.7,1.6
		c1.9,1.2,3.7,2.5,5.5,3.8c1.3,1,1.4,1.5,0.5,2.8c-0.7,1.1-1.3,2.2-2.4,3.1c-0.4,0.3-0.7,0.6-1.2,0.3
		C179.7,126.4,177.7,126.1,175.9,125.3z"/>
	<path class="st9" d="M227,17.9c-2.2-0.3-4.4-0.1-6.7-0.3c-1.6-0.1-2.3-0.7-2.5-2.2c0.5-0.7,1.1-1.2,1.8-1.6c0.2,0,0.5,0,0.6,0.2
		c0.8,1.9,2.5,1.9,4.2,1.8c1.5-0.1,3,0.5,4.6,0.3c1.6,0.1,3.1,0.4,4.7,0.5c0.4,0,1.2,0.5,1.2-0.4c0-0.7,0-1.6-1-1.9
		c-0.5-0.1-1-0.1-1.6-0.1c-3-0.4-6.1-0.4-9.1-0.9c-0.6-0.1-1.5,0-1.7-0.9c0.5-0.3,0.9-0.5,1.4-0.8c1.9-0.6,3.9-0.2,5.8,0.1
		c1.4,0.2,3-0.4,4.2,0.8c0.9,0.4,1.9,0.2,2.8,0.2c0.6,0.1,1.2,0,1.7,0.2c0.7,0.3,1.3,0.6,0.9,1.5c-0.2,0.6-0.1,1.3,0.3,1.8
		c0.2,0.3,0.3,0.7,0.5,1.1c0.3,0.7,0,1-0.7,1c-1.8,0-3.5,0.1-5.3-0.2C231.2,18.1,229,18.2,227,17.9z"/>
	<path class="st5" d="M325.3,222.9c3.2,1.3,6.3,2.6,9.2,4.3c3.6,2.2,7.6,2.9,11.7,1.3c0.9-0.4,1.9-0.7,2.2-1.8
		c0.6,0.7,0.7,1.8,1.7,2.3c-1.5,2.1-3.7,2.6-5.8,3c-0.6,0.1-1.3,0.1-1.9,0.2c-1.6,0.1-3.1-0.1-4.6-0.8c-4.4-2.1-8.3-5-12.2-8
		C325.4,223.2,325.3,223,325.3,222.9z"/>
	<path class="st6" d="M163.1,102.9c-1.2,2-3.1,3.5-4.6,5.2c-0.8,1-1.5,2.1-2.2,3.1c-0.4-0.1-0.4-0.4-0.5-0.7c-0.7-3.4,0-6.5,2.2-9.3
		c1.1-1.4,2.2-2.8,2.9-4.4c0.4-0.8,0.9-1.5,1.7-2C162.9,97.5,164,100.1,163.1,102.9z"/>
	<path class="st4" d="M183.3,67.8c-1.5-1.5-2.9-3.2-4.6-4.6c-0.3-0.3-0.5-0.6-0.7-1c-0.2-0.5-0.1-1,0.7-1.1c1.5-0.1,2.3-0.9,2.5-2.5
		c0.1-1,0.5-2,0.8-3.3c1.5,2.1,3.4,3.5,4.1,5.8c0.3,1.4,0.3,2.9,0,4.3C185.8,67,184.8,67.8,183.3,67.8z"/>
	<path class="st10" d="M367.4,220.4c-0.5-0.7-1-1.4-1.6-2.1c-1.6-1.9-3.6-2.8-6.2-2.6c0.2-1.7,1.5-2.3,2.7-2.8c3-1,6.4,0.1,7.9,2.7
		c0.7,1.3,1.5,2.5,1.9,4c0.2,0.5,0.1,1-0.4,0.8C370.3,220,368.9,220.7,367.4,220.4z"/>
	<path class="st6" d="M177.6,89.1c2.4-1.4,2.9-3.8,3.1-6.3c0.1-1,0.1-2,0.1-3c1.9,1.2,3.4,2.8,4,5.1c0.2,0.9,0.3,1.9,0.2,2.8
		c-0.2,1.1-0.3,2.2-0.2,3.3c0,0.8-0.4,1-1,1.1c-0.7,0.1-1.3-0.1-1.9-0.4C180.4,91.1,179,90.2,177.6,89.1z"/>
	<path class="st5" d="M270.6,232.8c0.2,2,2.4,4.4,4.3,4.6c0.3,0,0.6-0.1,0.6-0.5c0-1.2,0.3-2.1,1.4-2.6c1.5-0.7,3-1.2,4.6-0.5
		c0.2,0.1,0.3,0.1,0.5,0.1c-0.2,0.2-0.2,0.5-0.3,0.8c-0.3,3-2.2,5.1-5.2,5.6c-0.2,0-0.3,0.1-0.5,0.1c-3,0.5-5.2-1.1-5.5-4.2
		C270.5,235.1,269.7,233.9,270.6,232.8z"/>
	<path class="st11" d="M242.2,3.6c0.8,0.8,1.5,1.7,1.8,2.8c0.1,0.4,0.4,0.8,0.7,1.2c0.4,0.6,1.2,1,1.4,1.8c0.2,0.7,0.6,1.3,0.9,1.8
		c-0.5,0.7-1.1,0.5-1.7,0.4c-2.6-0.3-5.1-0.6-7.7-0.6c-2.1,0.8-4.3,0-6.5,0.1c-1.5,0.1-3-0.3-4.6-0.3c-0.6,0-1.2,0-1.4-0.8
		c0.6-0.4,1.2-0.8,1.8-1.2c2-0.9,4,0.1,6-0.1c2.8,0.3,5.6,0.6,8.4,0.7c0.2,0,0.5,0,0.6-0.3c-0.1-0.6-0.7-0.8-1-1.3
		c-0.2-1.3-1.3-2.2-1.2-3.6C240.5,3.8,241.3,3.5,242.2,3.6z"/>
	<path class="st12" d="M367.4,220.4c1.4-0.6,2.7-1,4.2-0.3c0.4,0.2,0.4-0.3,0.5-0.5c1.9,3.7,1.3,7.3-0.5,10.8
		c-0.5,1-1.5,1.6-2.7,2.3C368.9,228.4,369.3,224.2,367.4,220.4z"/>
	<path class="st13" d="M165.3,87.7c-0.2,0.3-0.3,0.7-0.6,0.9c-3.4,2.5-5.5,6-8.5,9.5c0.2-2.8-0.2-5.1,1.3-7.4
		c1.8-2.7,3.8-5.2,6.2-7.4C164.6,84.7,165.1,86.2,165.3,87.7z"/>
	<path class="st14" d="M221.6,12.5c1.5,0.7,3.2,0.6,4.8,0.7c2.1,0.2,4.2,0.2,6.3,0.6c0.1,1.3-1.2,1.4-1.9,2
		c-0.5,0.4-1.2,0.5-1.7,0.8c-2.4,0.1-4.8-0.5-7.2-0.3c-0.8,0.1-1.2-0.4-1.4-1.1c-0.2-0.5-0.2-1.2-0.8-1.5
		C220.2,13.4,220.9,12.9,221.6,12.5z"/>
	<path class="st15" d="M239.7,4.2c0.5,1.1,1.5,2,1.5,3.4c-1.9,1.1-4,0.9-6.1,1.4c-0.6,0.1-1.2,0-1.7,0.2c-2.2,0.2-4.3-0.4-6.4-0.3
		c1.2-1,2.7-1.6,4.2-2.1C234,5.9,236.8,4.8,239.7,4.2z"/>
	<path class="st3" d="M204.3,172.9c-2.3,0.5-4.6,1-7,0.3c-1.9-0.5-3.4-1.4-4.8-2.7c-0.8-0.8-1.1-1.8-0.9-2.9
		c0.2-0.8,0.6-1.3,1.5-1.6c0.9-0.3,1.1,0.3,1.5,0.8c0.3,0.3,0.5,0.8,1.1,0.9c0.1-0.3,0.1-0.6,0.2-0.9c0.3,0.4,0.4,0.9,0.5,1.3
		c1,2.9,3.7,4.8,6.8,4.8C203.5,172.8,203.9,172.8,204.3,172.9z"/>
	<path class="st13" d="M164.2,127.4c0.2,0.2,0.3,0.5,0.1,0.8c-0.5,0.6-0.8,1.3-1.5,1.7c-1.4,0.8-2.5,2-3.4,3.3
		c-0.3,0.5-0.7,1.3-1.5,0.9c-0.7-0.3-0.9-1-0.9-1.8c-0.1-2.5,0.7-4.8,2.4-6.6c0.5-0.6,1-1.3,1.6-1.9c0.3,0.1,0.4,0.4,0.4,0.7
		C161.3,126.4,162.6,127.1,164.2,127.4z"/>
	<path class="st16" d="M226.9,139.5c0.5,1.6,0.3,2.5-0.8,3.1c-1.4,0.8-3,1.1-4.5,1.5c-0.9,0.2-1.9-0.1-2.7-0.5
		c-1.8-0.9-3.3-3.8-3.1-5.8c0.1-0.5,0.2-0.9,0.8-1c0.5-0.1,1-0.2,1.4,0.3c0.3,0.5,0.5,0.9,0.7,1.4c0.3,0.7,0.5,1.4,1,2.1
		c1.1,1.4,1.9,1.7,3.6,1.1C224.5,141.3,225.8,140.7,226.9,139.5z"/>
	<path class="st17" d="M168.7,75.9c0,0.4-0.2,0.7-0.5,0.9c-3,2.8-6,5.6-9.2,8.3c-0.1-2.7,5.9-9.9,8.6-13.1
		C168.5,73.2,168.1,74.7,168.7,75.9z"/>
	<path class="st13" d="M166.6,146.5c-0.6,1.1-1.9,1.5-2.6,2.5c-0.4,0.5-0.8,0.8-1.3,1.2c-0.1,0-0.2,0-0.3-0.1
		c-2.3-2-2.3-2.3-1.4-5.1c0.7-2,2-3.6,3-5.4c0.1-0.3,0.4-0.5,0.7-0.5c0.3,0.3,0.2,0.6,0.1,1C164.1,142.7,164.6,144.8,166.6,146.5z"
		/>
	<path class="st5" d="M215.6,154.7c-0.1,1-0.7,1.7-1.3,2.4c-0.8,0.8-2.7,1.1-3.8,0.6c-0.9-0.4-1.3-1.7-1.3-3c0-1.8,0.8-3.3,1.8-4.7
		c0.5,1.5,1.2,2.6,3,2.8C214.9,152.9,215.4,153.8,215.6,154.7z"/>
	<path class="st18" d="M168.5,134.8c2.6,0.6,5.2,0.7,7.8,1.8c-0.8,1.5-1.5,2.9-2.2,4.3c-0.3,0.6-0.7,0.7-1.4,0.6
		c-2.2-0.4-2.3-0.4-2.2-2.5c0.1-1.1-0.4-1.9-1-2.7C169.2,135.8,168.6,135.6,168.5,134.8z"/>
	<path class="st18" d="M284.3,65.6c-1.2-1.1-1.9-2.4-3.2-3.2c-0.7-0.4-0.5-1.2,0.3-1.5c0.6-0.2,1.3-0.3,1.9-0.3
		c1.6-0.1,3.2-0.2,4.8,0.1c1.5,0.3,2.1,1.4,1.5,2.7c0,0.1,0,0.1-0.1,0.2c-0.9,0.4-1.7,0.7-2.6,1c0,0-0.1,0-0.2-0.1
		C285.2,64.1,285.2,64.1,284.3,65.6z"/>
	<path class="st15" d="M215.6,154.7c-0.9-1-1.7-2-3.3-1.8c-0.7,0.1-1.1-0.5-1.2-1.3c-0.1-0.5,0-1-0.1-1.6c0.6-1.5,1.9-2.2,3.2-2.8
		c0.3-0.2,0.7-0.2,1-0.3c0.6-0.1,1.4-0.3,1.8,0.3c0.5,0.7-0.3,1.2-0.7,1.6c-0.9,0.8-0.6,1.5,0,2.3
		C216.5,152.5,216.1,153.6,215.6,154.7z"/>
	<path class="st19" d="M213.1,125.4c-2.6-2.5-5.5-4.4-8.8-5.6c-2.9-1-6-0.9-9.1-0.7c-1.5,0.1-3,0.5-4.5,0.9c-0.5,0.1-1,0.3-1.5,0.1
		c1.3-1.8,8.8-2.9,13-2.3c4.5,0.6,7.1,4,10.4,6.3C212.9,124.4,213.2,124.8,213.1,125.4z"/>
	<path class="st20" d="M165.2,136.6c-0.3,0.8-0.9,1.2-1.7,1.4c-0.8,0.2-1.4,0.6-1.8,1.3c-0.7,1.3-2,2.3-2.6,3.9
		c-1.1-2.9-1-4,0.6-6.3c1-1.4,1.9-2.8,3.3-3.9C163.7,134.3,163.7,135.9,165.2,136.6z"/>
	<path class="st13" d="M169.2,154c0,0.7-0.2,1.2-0.7,1.7c-0.5,0.4-0.9,0.9-1.3,1.4c-0.9,1-1.2,1.1-2.3,0.3c-0.8-0.5-1.3-1.3-1.2-2.2
		c0.2-2,0.6-4,2.2-5.6c0.5,0.2,0.7,0.6,0.8,1.1C167.1,152.2,167.9,153.3,169.2,154z"/>
	<path class="st21" d="M187.8,57.3c-1.3-1.1-2.1-2.3-3.1-3.4c-0.4-0.5-0.2-0.9,0.1-1.2c0.7-0.7,1.1-1.5,1.2-2.5
		c0.1-0.8,0.7-0.8,1.3-1c0.6-0.2,0.9,0.1,1.1,0.6c0.2,0.3,0.5,0.7,0.7,1c0.6,0.7,0.7,1.4,0.1,2.2C188.4,54.2,188.2,55.7,187.8,57.3z
		"/>
	<path class="st22" d="M272,4c0.2,0.6,1.4,1,0.9,1.7c-0.5,0.9-1.4,0.1-2.1,0c-2.3-0.3-4.6-0.9-6.9-1.1c-1.8-0.1-3.5-0.7-4.4-2.4
		c1.5-0.2,3,0.2,4.5,0.5c2.4,0.5,4.8,0.8,7.3,1.1C271.6,3.8,271.8,3.9,272,4z"/>
	<path class="st23" d="M225.2,10.1c0.3,0.3,0.8,0.3,1.2,0.3c1.5,0,3.1,0.2,4.6,0.2c2.2,0.1,4.5,0.3,6.7,0.5
		c-1.3,1.3-2.9,1.4-4.6,1.5c-3.3-0.2-6.7-0.3-10-0.9C223.6,11,224.4,10.5,225.2,10.1z"/>
	<path class="st21" d="M163.1,102.9c-0.1-0.1-0.3-0.3-0.2-0.4c0.5-1.4,0.2-2.6-0.3-3.9c-0.4-1.2-0.3-2.4-0.1-3.7
		c0.4-0.3,0.8-0.7,1.3-1.1c0.6,1.5,1.3,2.8,2.4,4c0.3,0.3,0,0.6-0.1,1c-0.5,1.1-1,2.2-2,3C163.7,102.1,163.4,102.5,163.1,102.9z"/>
	<path class="st13" d="M179.8,76.3c1.5,0.2,2.2-0.9,2.7-2c0.4-0.8,0.7-1.7,1.1-2.6c1.7,1.2,2.3,2.8,1.9,4.9
		c-0.2,0.8-0.1,1.7-0.2,2.8C183.5,78.2,181.7,77.2,179.8,76.3z"/>
	<path class="st13" d="M174.4,134.1c1.6-1.7,2.6-3.6,2.5-6c1.1,0.2,1.9,0.8,2.9,1.3c0.5,0.3,0.6,0.6,0.3,1.1c-0.7,1.2-1.4,2.3-2,3.5
		c-0.3,0.6-0.7,0.9-1.4,0.6C175.9,134.4,175.2,134.3,174.4,134.1z"/>
	<path class="st21" d="M165.3,87.7c-0.8-1.4-1.6-2.7-1.5-4.4c0.9-1.5,2.2-2.5,3.6-4c0.2,1.4-0.1,2.5,0.5,3.6
		c0.1,0.3-0.1,0.8-0.3,1.2C167,85.5,166.2,86.6,165.3,87.7z"/>
	<path class="st24" d="M298.3,17.9c-0.3,0.3-0.7,0.1-1-0.1c-2.5-1.2-5.1-2.4-7.6-3.6c-1-0.5-1.8-1.1-2.2-2.2c-0.3-0.9-1-1.6-1.7-2.3
		c-0.5-0.4-1-0.8-1.1-1.5c1,0.3,2,0.7,2.9,1.4c1.5,1.8,2.9,3.8,5.4,4.5c1.1,0.3,1.8,1.4,2.9,1.9C296.9,16.3,297.5,17.3,298.3,17.9z"
		/>
	<path class="st25" d="M164.1,115c-0.5,0-0.9,0.1-1.3-0.3c-1.1-1.3-2.2-2.7-2.2-4.6c0.5-0.9,0.7-2,1.6-2.8c0.5,1.8,0.9,3.5,2.4,4.7
		c0.3,0.3,0.2,0.8,0.2,1.2C164.6,113.8,164.5,114.4,164.1,115z"/>
	<path class="st26" d="M170.2,67.5c-3,2.6-5.3,5.9-8.5,8.7c0-1.6,1-2.6,1.7-3.5c2-2.6,4-5.2,6.4-7.5
		C170.5,65.9,170.4,66.7,170.2,67.5z"/>
	<path class="st27" d="M160.6,234.1c-0.2-0.4-0.4-0.8-0.4-1.3c0-0.4,0.2-0.7,0.6-0.7c0.9,0,1.9-0.1,2.1-1.1c0.2-1.1,0.3-2.2-0.7-3.1
		c0,0,0-0.1,0-0.2c0.3-0.4,0.8-0.1,1.2-0.2c0.8,0.3,1.4,0.8,1.7,1.6c0.1,0.3,0.3,0.6,0.2,0.8c-0.3,1.4-1.1,2.6-2,3.7
		C162.7,234.5,161.7,234.4,160.6,234.1z"/>
	<path class="st28" d="M283.4,67.1c0.4,0,0.8,0,1.2,0.1c0.6,0,0.9-0.1,0.9-0.8c0-0.7,0.4-1,1.2-0.7c0.3,0.1,0.6,0.2,0.8,0.2
		c0.4,0,0.9-0.6,1.3-0.1c0.6,0.7,1.3,1.4,1.6,2.3c0.1,0.4-0.1,0.6-0.4,0.7c-0.3,0.1-0.6,0.2-0.9,0.1c-1.8-0.6-3.6-0.2-5.4-0.3
		c-0.5,0-1.1,0.2-1.2-0.7C282.4,67.2,282.6,66.8,283.4,67.1z"/>
	<path class="st29" d="M177,56.1c-1.3,0.5-2.2,1.5-3.1,2.5c-1.8,1.9-3.5,3.8-5.3,5.7c-0.5,0.5-1.1,1-1.8,1.6
		c0.5-2.4,4.7-7.2,9.8-11.2C177,55,177.1,55.5,177,56.1z"/>
	<path class="st20" d="M223.8,149.4c-1.2,1.2-2.6,1.9-4.1,2.6c-0.3,0.1-0.6,0.2-0.8,0c-0.2-0.3-0.1-0.6,0.1-0.8
		c0.3-0.6,0.6-1.1,1-1.6c0.6-0.7,1.2-1.5,1.4-2.4c0.2-1,0.8-1.2,1.7-1.2C224.8,146.8,224.1,148.2,223.8,149.4z"/>
	<path class="st30" d="M223.4,152.9c0,1.8,0.3,3.5-0.3,5.3c-0.1,0.4-0.3,0.8-0.7,1.1c-0.5-0.4-0.5-1-0.7-1.5
		c-0.2-0.4-0.4-0.9-0.6-1.3c-0.2-0.3-0.5-0.7-1-0.6c-0.6,0-0.5,0.6-0.6,0.9c0,0.2-0.2,0.3-0.3,0.4c0-0.2-0.1-0.4-0.1-0.5
		c0.2-0.6-0.5-1.3-0.1-1.8c0.4-0.5,1.2-0.7,1.8-1C221.7,153.6,222.5,153.2,223.4,152.9z"/>
	<path class="st31" d="M170.2,67.5c-0.4-0.7-0.5-1.5-0.4-2.3c1.2-1.9,2.7-3.6,4.6-5.5C174.6,63.6,172.7,65.7,170.2,67.5z"/>
	<path class="st31" d="M169.2,154c-0.5,0.2-0.9,0.1-1.3-0.2c-0.8-0.8-1.3-1.7-1.5-2.7c-0.1-0.5-0.1-0.9-0.5-1.3
		c0.4-0.6,0.9-1,1.5-1.4c0.2,0.2,0.3,0.5,0.5,0.6C170.2,150.2,169.9,152.1,169.2,154z"/>
	<path class="st32" d="M168.7,75.9c-0.8-0.4-1.1-1.1-1-2c0-0.6,0-1.3,0-1.9c0.3-1,1.3-1.5,2.1-2.5c0.1,1.5,0.2,2.7,0.8,3.7
		c0.2,0.4,0,0.7-0.4,0.9C169.5,74.6,169.2,75.3,168.7,75.9z"/>
	<path class="st33" d="M207.8,151.8c-0.2,0.8-0.5,1.6-0.5,2.4c0,1.6-1.1,2.1-2.3,2.5c-0.7,0.2-1.5,0.3-2.4,0.1
		c1.7-1.9,3.6-3.3,5-5.1C207.6,151.7,207.7,151.7,207.8,151.8z"/>
	<path class="st34" d="M351,224.7c0.6,0,1.1,0.5,1.3-0.2c0.3-1.4,0.9-1.8,2.1-1.7c1,0.1,1.3,0.6,1.4,2.2c-0.5-0.2-1.1-0.5-1.6-0.7
		c-0.1,0-0.2,0-0.4,0c-0.5,1.2-0.5,2.5-1.3,3.6C351.4,227.4,350.8,225.9,351,224.7z"/>
	<path class="st35" d="M183.3,67.8c1.8-0.6,2.6-2,2.8-3.8c0.1-1,0-2,0.1-2.9c0.6,0.9,0.2,1.9,0.3,2.9c0.1,1.7,0.4,3.5,0.1,5.2
		c-0.1,0.3,0.1,0.7-0.4,1C184.9,69.8,184.2,68.7,183.3,67.8z"/>
	<path class="st36" d="M216.3,151.2c-1.5-1.4-1.5-1.6,0.7-3.6c-0.9-0.5-1.9-0.2-2.8-0.3c1.3-1,2.8-0.8,4.2-0.7
		c0.6,0,0.9,0.5,0.7,1.1c-0.3,1-1,1.7-2,2.1C216,150.2,216,150.1,216.3,151.2z"/>
	<path class="st37" d="M169.1,81.7c-0.5-1.3-0.2-2.1,0.6-2.8c0.9-1,2.1-1.7,2.4-3.2c0.3-1.2,0.4-2.4-0.2-3.6
		c-0.5-1.2-0.6-2.3,0.5-3.4c-0.2,2,0.2,3.8,0.7,5.6c0.3,1.1-0.4,2.1-1.1,3C171,78.7,169.8,79.8,169.1,81.7z"/>
	<path class="st38" d="M177,56.1c-0.3-0.4-0.3-0.9-0.4-1.4c1.6-1.1,2.6-2.8,4.2-4.3C180.6,53.2,179.9,55.4,177,56.1z"/>
	<path class="st39" d="M170.9,147.1c-1.8-1.5-2.1-2.5-1.4-4.3c0.1-0.1,0.2-0.1,0.3-0.1C172.9,143.8,172.9,143.8,170.9,147.1z"/>
	<path class="st40" d="M295.9,16c-0.2,0-0.4,0.1-0.5,0c-1.4-1.2-3.2-1.8-4.9-2.4c-0.3-0.1-0.6-0.3-0.7-0.5c-0.7-1.1-1.7-2.1-2.2-3.4
		C290.5,11.6,293.3,13.6,295.9,16z"/>
	<path class="st41" d="M164.7,106.1c-0.6-0.9-0.7-1.5-0.2-2.2c0.2-0.2,0.3-0.5,0.5-0.7c1-1.4,2.2-2.5,2.8-4.3
		c0.9,1.4,0.9,2.3-0.2,3.2C166.3,103.1,165.4,104.4,164.7,106.1z"/>
	<path class="st36" d="M278.4,216.5c1.6,2.7,4.3,4.3,6.3,6.5c-0.5,0-1,0-1.6,0c-0.5,0-0.9-0.1-1.2-0.6c-1.1-1.6-2.3-3.2-3.4-4.9
		C278.4,217.2,278.4,216.8,278.4,216.5z"/>
	<path class="st42" d="M164.2,127.4c-1.6,0.5-3-0.3-3.2-1.8c-0.1-0.6-0.1-1.2-0.1-1.8c0.2-0.2,0.5-0.5,0.7-0.2
		C162.4,124.9,163.6,125.9,164.2,127.4z"/>
	<path class="st43" d="M165.6,91.9c-0.4-0.7-0.3-1.4,0.3-1.8c1.6-1.1,2.8-2.6,4-4.1c-0.4,1.7-0.8,3.3-2.5,4.1
		C166.7,90.6,166.6,91.6,165.6,91.9z"/>
	<path class="st44" d="M167.5,143c-0.6-2.1,0.8-3.8,0.5-5.8C169.9,138.6,169.8,140,167.5,143z"/>
	<path class="st45" d="M166.6,146.5c-1.2-0.1-1.8-0.8-2.1-1.9c-0.3-1.1-0.4-2.2-0.4-3.3c0-0.5,0.3-0.9,0.7-1.2
		c0,2.1,0.6,4.1,1.8,5.8C166.7,146.1,166.6,146.4,166.6,146.5z"/>
	<path class="st46" d="M165.2,136.6c-1.6-0.2-2.1-0.8-2.2-2.2c0-0.5,0-0.9,0-1.4c0.1-0.2,0.5-0.7,0.6-0.5c0.6,1.2,1.7,2.3,1.7,3.8
		C165.4,136.4,165.3,136.5,165.2,136.6z"/>
	<path class="st47" d="M207.3,157.9c-0.9,0.8-1.8,1.3-3,1.5c-1.2,0.2-2.3,0-3.5-0.1c-0.2,0-0.3-0.1-0.4-0.3c0-0.3,0.1-0.4,0.3-0.5
		c0.2-0.1,0.3-0.1,0.5-0.1C203.4,158.9,205.4,158.5,207.3,157.9z"/>
	<path class="st48" d="M176.6,60.6c-0.3-2.5,1.9-2.4,3.1-3.5c0,2.1,0,2.1-1.8,2.6C177.4,59.7,177.1,60.2,176.6,60.6z"/>
	<path class="st49" d="M181.2,47.3c1.1-1.2,2.5-1.6,4.2-2.4c-0.9,1.9-2.4,2.7-3.9,3.5C180.8,48.2,180.9,47.8,181.2,47.3z"/>
	<path class="st50" d="M203.5,161.2c-1.4,0.8-2.6,0.9-3.9,0.9c-0.4,0-0.9,0-0.8-0.6c0.1-0.5,0.3-1,1-0.9
		C201,160.8,202.1,161,203.5,161.2z"/>
	<path class="st51" d="M223.8,149.4c-0.5-0.4-0.1-0.8-0.1-1.3c0-0.8,0.1-1.6-0.6-2.3c0.7-0.2,1.5-0.9,2.1-0.3
		c0.6,0.7,0.1,1.7-0.3,2.5C224.6,148.6,224.4,149.2,223.8,149.4z"/>
	<path class="st52" d="M181.2,47.3c0,0.4-0.1,0.8,0.3,1.1c-1.4,0.6-2.6,1.4-3.6,2.6c-0.5,0.5-1,1-1.8,0.9l0,0
		C177.6,50,179.4,48.6,181.2,47.3z"/>
	<path class="st53" d="M166.4,130c-0.8-1.5,0.2-2.7-0.1-4.1c0.7,0.1,1,0.5,1.1,1C167.5,128,167.2,129,166.4,130z"/>
	<path class="st54" d="M168.8,158.8c0,0.8,0,1.6,0,2.3c0,0.2,0,0.5-0.2,0.6c-0.3,0.1-0.5-0.1-0.7-0.3c-0.5-0.6-0.7-1.2,0-1.8
		C168,159.3,168.1,158.9,168.8,158.8z"/>
	<path class="st55" d="M190.8,48.4c-0.7-0.1-0.9-0.5-0.7-1.2c0.3-0.9,0.3-1.9,1.6-2.3C191.3,46.3,191,47.4,190.8,48.4z"/>
	<path class="st56" d="M176.5,63.1c0.1,2.3-1.5,3.4-3.2,4.5c0.2-1,1.3-1.2,1.8-2.1C175.5,64.7,176.1,64,176.5,63.1z"/>
	<path class="st57" d="M186.2,47.9c0.6-1.1,1.7-1.6,2.7-2.4c0,0.9,0,1.6-0.7,2C187.6,47.7,186.9,47.5,186.2,47.9z"/>
	<path class="st58" d="M283.4,67.1c-0.6,0-0.8,0.3-0.8,0.8c-0.5-1.2-1.1-2.4-1.7-3.8c0.9,0,1.3,0.4,1.3,1
		C282.2,66,282.7,66.6,283.4,67.1z"/>
	<path class="st59" d="M165.9,114.2c0,1.8-1.6,2.8-2.2,4.3C163.8,116.7,165.1,115.6,165.9,114.2z"/>
	<path class="st60" d="M186.6,42.8c1-1.4,1.3-1.5,2.9-1.6C188.9,42.3,188.5,42.5,186.6,42.8z"/>
	<path class="st61" d="M290.7,63.2c0.2,0.7,0.3,1.1,0.4,1.6c0.1,0.4-0.1,0.7-0.4,0.8c-0.3,0.1-0.6,0.1-0.8-0.1
		c-0.4-0.3-0.1-0.6,0-0.9C290.2,64.2,290.4,63.8,290.7,63.2z"/>
	<path class="st54" d="M184.4,49.6c0.1,1.4-0.7,2.1-1.4,3C183,51.3,183.2,50.4,184.4,49.6z"/>
	<path class="st52" d="M176.2,51.8c0.1,0.6-0.4,0.9-1,1.3C175.5,52.5,175.8,52.1,176.2,51.8L176.2,51.8z"/>
	<path class="st11" d="M291.7,34.1c-0.4-0.2-0.7-0.2-0.9-0.4c-2.3-1.9-5.1-3-7.8-4c-2.1-0.8-4.3-1.6-6.6-2c-0.7-0.1-1.4-0.4-2-0.6
		c-1.3-0.5-1.2-0.5-1.3-1.9c-0.1-1.3-0.5-2.5-1.1-3.7c-0.3-0.6-0.6-1.3-0.6-2c0-0.7,0.4-0.9,1-0.8c2.9,0.6,5.8,1.3,8.7,2.3
		c2.6,0.9,5,2.1,7.5,3.1c1,0.4,2,1,2.8,1.9c0.8,0.8,1.1,1.8,0.9,2.9c-0.1,0.4-0.2,0.8-0.1,1.2C292.5,31.3,292.2,32.6,291.7,34.1z"/>
	<path class="st11" d="M269.6,37.3c0.8,0.1,1.5,0.2,2.3,0.4c3.8,0.8,7.6,1.7,11,3.6c1.9,1.1,2.1,1.6,1,3.5c-0.5,0.9-1.1,1.8-1.9,2.6
		c-0.6,0.6-1.1,1.2-1.5,2c-0.6,1.2-1,1.3-2.1,0.6c-1.3-0.8-2.5-1.9-4-2.6c-2.7-1.3-5.4-2.3-8.3-2.9c-1.2-0.2-1.3-0.4-0.6-1.5
		c0.8-1.4,1.8-2.8,2-4.5C267.6,37.7,268.5,37.3,269.6,37.3z"/>
	<path class="st62" d="M284.9,17.8c-0.3-0.1-0.7-0.2-1.1-0.3c-3.6-1.2-7.3-1.7-11-2.4c-0.8-0.2-1.4-0.4-1.8-1.1
		c-0.9-1.6-2-3.1-3.4-4.2c-0.2-0.2-0.5-0.4-0.4-0.7c0.1-0.4,0.5-0.3,0.8-0.2c4,0.8,8,1.7,12.1,2.5c1.1,0.2,2,0.9,2.7,1.6
		c1.2,1.2,2.1,2.5,2.6,4.2C285.4,17.3,285.5,17.6,284.9,17.8z"/>
	<path class="st11" d="M264.7,25.6c-1.9-0.3-4-0.6-6-0.9c-1.1-0.2-2.2-0.5-3.3-0.7c-2-0.5-2.4-1-2.4-3c0-1.8,0.9-2.6,2.8-2
		c1.8,0.5,3.7,0.8,5.5,1.2c1.3,0.3,2.7,0.5,4,0.9c1.4,0.4,1.5,0.6,1.2,2.2c0,0.3,0,0.6,0,0.9c-0.1,0.5,0.4,1,0.1,1.3
		C266,25.8,265.4,25.6,264.7,25.6z"/>
	<path class="st62" d="M263.6,9.4c-2.1-0.1-4.3-0.1-6.4-0.2c-1.4-0.1-2.8-0.4-4.2-0.6c-1.1-0.2-2-0.6-2.8-1.4
		c-0.9-0.9-1.7-1.9-2.9-2.6c-0.2-0.1-0.4-0.3-0.2-0.6c0.1-0.1,0.3-0.3,0.4-0.3c3.4-0.1,6.7-0.3,10.1,0c0.5,0,1,0.4,1.4,0.7
		c1.7,1.4,3.3,3,4.8,4.7C263.7,9.2,263.7,9.3,263.6,9.4z"/>
	<path class="st11" d="M253.6,11c0.6-0.1,1.3,0.2,2.1,0.3c1.9,0.3,3.7,0.5,5.6,0.4c0.7,0,1.2,0.1,1.8,0.5c1.2,1.1,2,2.4,2.7,3.9
		c0.3,0.6,0,0.9-0.6,0.9c-3.2-0.3-6.3-0.6-9.4-1.1c-2-0.3-3.1-2-3.9-3.8c-0.3-0.7,0-1,0.9-1.1C253,11,253.2,11,253.6,11z"/>
	<path class="st62" d="M273.5,31.1c0-2.4,0.7-3,3-2.3c3,0.9,5.9,2.1,8.7,3.5c0.5,0.2,0.9,0.6,1.2,1c0.2,0.3,0.3,0.7,0.1,1
		c-0.8,0.7-0.8,1.6-1.1,2.5c-0.3,1.1-0.6,1.1-1.6,0.6c-1.5-0.7-3.1-1.5-4.6-2.3c-1.2-0.6-2.4-1.2-3.8-1.5
		C273.5,33.3,273.5,33.2,273.5,31.1z"/>
	<path class="st11" d="M269.9,31.3c0,1.4-0.3,1.8-1.8,1.7c-1.5-0.2-3-0.5-4.5-0.7c-1.3-0.2-2.5-0.5-3.8-0.6
		c-0.6-0.1-1.1-0.3-1.3-0.8c-0.4-1-0.7-2.1-0.6-3.3c0.1-0.6,0.5-1.1,1.1-0.8c2.8,1.1,5.8,1.1,8.6,1.7
		C269.1,28.8,269.9,29.8,269.9,31.3z"/>
	<path class="st62" d="M288.5,16.1c0.9,0,1.6,0.4,2.2,0.8c1.3,0.9,2.9,1.3,4.3,2.1c0.8,0.5,1.4,0.9,1.8,1.7c0.5,1.1,1,2.3,0.8,3.6
		c-0.1,0.5-0.4,0.6-0.7,0.4c-0.5-0.2-1-0.5-1.4-0.8c-1.2-0.8-2.5-1.5-3.9-2.1c-1.3-0.5-2.2-1.5-2.5-3
		C288.9,18,288.3,17.2,288.5,16.1z"/>
	<path class="st24" d="M301.1,34.4c-0.2,0.9,0,2.4-0.8,2.8c-0.8,0.4-1.5-1-2.2-1.6c-0.1-0.1-0.2-0.3-0.4-0.4
		c-2.4-1.6-2.8-4.1-3.2-6.7c-0.1-0.4-0.2-0.7,0.2-0.9c0.3-0.2,0.6-0.1,0.8,0.1c1.2,0.9,2.6,1.6,3.8,2.6
		C300.7,31.4,300.9,32.8,301.1,34.4z"/>
	<path class="st62" d="M293.3,37.9c0-1-0.1-2.3,1-2.6c1.1-0.4,1.6,0.9,2.3,1.6c0.3,0.3,0.5,0.7,0.8,0.9c1.3,0.8,1.2,2,0.7,3.2
		c-0.3,0.7-0.6,1.4-0.9,2.1c-0.3,0.5-0.7,0.7-1.1,0.1c-0.9-1.2-1.5-2.5-2.5-3.6C293.1,39.2,293.3,38.5,293.3,37.9z"/>
	<path class="st63" d="M288.2,92.6c-1.8,0-3.1-0.5-4.1-1.6c-0.3-0.3-0.5-0.7-0.2-1.1c0.3-0.5,0.8-0.5,1.2-0.2
		c0.3,0.2,0.6,0.3,0.9,0.5c1.1,0.6,2.2,0.7,3.2-0.4c0.5-0.5,1.2-1.1,2-0.6c0.5,0.4,0.3,1.3-0.5,2.2
		C290.1,92.3,289.1,92.7,288.2,92.6z"/>
	<path class="st64" d="M318.9,70c-1.3,0-2.2-0.9-2.3-2.2c0-1.1,0.8-2.1,1.9-2.1c1.2-0.1,2.2,1.1,2.2,2.5
		C320.8,69.3,320.2,69.9,318.9,70z"/>
	<path class="st65" d="M272,70.4c0.9,0,2.2,1.2,2.2,2.2c0,1-1.4,2.6-2.3,2.6c-0.8,0-2-1.7-2-2.7C269.9,71.5,271,70.4,272,70.4z"/>
	<path class="st66" d="M229.1,16.7c0.6-0.7,1.4-1.1,2.2-1.6c0.6-0.3,1.1-0.7,1.4-1.2c0.3,0,0.6,0,0.9,0c1.3,0,1.3,0,1.6,1.4
		c0.1,0.4,0.2,0.7,0.4,1c0.5,1,0.2,1.3-0.9,1.1C232.8,17,230.9,17,229.1,16.7z"/>
	<path class="st67" d="M233.4,9.2c2.5-1,5.1-1.4,7.8-1.7c0.5,0.4,1,0.8,1.5,1.2c0.2,0.2,0.3,0.5,0.2,0.8c-0.1,0.4-0.5,0.3-0.7,0.3
		c-2.5,0-4.9-0.2-7.3-0.5C234.3,9.3,233.8,9.3,233.4,9.2z"/>
	<path class="st2" d="M273.9,20.1c2.3,0.3,4.4,1,6.6,1.7c2.7,0.8,5.2,2.1,7.9,3.2c1.6,0.6,2.1,1.7,2.1,3.3c0,0.8-0.1,1.7,0.2,2.4
		c0.2,0.3,0.1,0.7-0.3,0.9c-0.3,0.2-0.5-0.1-0.8-0.2c-3.7-2.1-7.6-3.8-11.8-4.8c-1.7-0.4-2.6-1.1-2.7-2.8c0-0.7-0.6-1.1-0.8-1.7
		C274.2,21.5,273.7,21,273.9,20.1z"/>
	<path class="st2" d="M270.7,38.6c1.8,0.2,3.5,0.7,5.1,1.3c2.2,0.7,4.4,1.4,6.3,2.6c1,0.6,1,0.8,0.4,1.8c-0.8,1.3-1.9,2.3-2.9,3.3
		c-0.3,0.3-0.7,0.4-1.1,0.2c-3.2-2.1-6.7-3.3-10.4-4.2c-0.5-0.1-0.7-0.7-0.3-0.9c1.2-0.8,1.2-2.2,1.7-3.4
		C269.9,38.5,269.9,38.5,270.7,38.6z"/>
	<path class="st68" d="M283.3,16c-2.5-0.8-4.9-1.3-7.2-1.6c-1.8-0.2-3.3-0.7-4-2.5c-0.2-0.6-1-0.8-1.2-1.6c3.2,0.6,6.3,1.2,9.4,1.9
		C282.1,12.6,282.6,14.3,283.3,16z"/>
	<path class="st69" d="M264,21.7c0,0.3,0,0.3,0,0.4c-0.3,2.1-0.3,2-2.5,1.8c-1.4-0.2-2.8-0.6-4.2-0.5c-0.6,0-1.4-0.1-1.5-0.7
		c-0.1-0.7-0.5-1.6,0.1-2.4c0.2-0.2,0.4-0.4,0.7-0.3C259.1,20.8,261.6,21.2,264,21.7z"/>
	<path class="st69" d="M261.1,8.1c-1.6,0.2-2.7-0.3-3.9-0.4c-1-0.1-2-0.3-3-0.2c-0.8,0-1.5-0.2-2-0.8c-0.7-0.7-1.4-1.4-2.3-2.2
		c1.4,0,2.4-0.1,3.4,0c0.6,0.1,1.3,0.2,1.9,0.2c1.7-0.1,3.1,0.7,4.1,1.9C259.8,7,260.3,7.5,261.1,8.1z"/>
	<path class="st66" d="M254.6,12.3c2.3,0.1,4.2,0.7,6.2,0.6c0.5,0,0.9,0.2,1.3,0.5c0.4,0.4,0.9,0.9,0.7,1.5
		c-0.3,0.7-0.9,0.4-1.4,0.4c-1.5,0-3-0.4-4.5-0.4C255.4,14.8,255.3,13.4,254.6,12.3z"/>
	<path class="st68" d="M283.5,36.2c-2.2-1.5-4.4-2.4-6.7-3.3c-1.7-0.7-1.7-0.6-1.3-2.4c0.1-0.3,0.1-0.6,0.2-0.7
		c0.3-0.2,0.5-0.1,0.8-0.1c2.4,1,4.8,1.9,7.2,3c0.6,0.3,1,0.6,0.6,1.3C283.9,34.7,283.8,35.4,283.5,36.2z"/>
	<path class="st70" d="M261.7,28.4c1.5,0.2,3,0.7,4.7,0.8c0.8,0.1,1.1,0.8,1,1.6c0,0.5-0.3,0.8-0.8,0.7c-1.7-0.3-3.4-0.7-5.1-1
		c-0.4-0.1-0.6-0.3-0.8-0.7c-0.2-0.4-0.5-0.7-0.3-1.1C260.7,28.3,261.2,28.5,261.7,28.4z"/>
	<path class="st70" d="M290.5,17.8c1.5,0.7,2.7,1.3,4,1.9c1.1,0.5,1.5,1.4,1.3,2.6c-0.6-0.1-4.1-1.8-4.4-2.1
		C290.8,19.7,290.7,18.9,290.5,17.8z"/>
	<path class="st71" d="M299.5,35.5c-1.1-1-1.8-2.1-2.7-3c-0.6-0.6-0.8-1.8-0.5-2.8C299.4,30.3,300.4,32,299.5,35.5z"/>
	<path class="st72" d="M296.3,41.4c-1-0.7-1.2-1.7-1.8-2.5c-0.2-0.3-0.1-0.7-0.1-1c0-0.4,0.1-0.7,0.5-0.9c0.4-0.2,0.7,0.1,0.9,0.4
		c0.4,0.5,0.8,1,1.1,1.5C297.4,39.7,297.3,40,296.3,41.4z"/>
</g>
</svg>
