<?xml version="1.0" encoding="utf-8"?>
<!-- Generator: Adobe Illustrator 19.2.1, SVG Export Plug-In . SVG Version: 6.00 Build 0)  -->
<svg version="1.1" id="Ebene_1" xmlns="http://www.w3.org/2000/svg" xmlns:xlink="http://www.w3.org/1999/xlink" x="0px" y="0px"
	 viewBox="0 0 413 155.8" style="enable-background:new 0 0 413 155.8;" xml:space="preserve">
<style type="text/css">
	.st0{opacity:0.63;fill:url(#SVGID_1_);}
	.st1{fill:#0766AB;stroke:#010202;stroke-width:2;stroke-miterlimit:10;}
	.st2{fill:#0B77BD;}
	.st3{fill:#009CBF;}
	.st4{opacity:0.53;fill:url(#SVGID_2_);}
	.st5{fill:#02818A;stroke:#010202;stroke-width:2;stroke-miterlimit:10;}
	.st6{fill:#17B8D3;}
</style>
<radialGradient id="SVGID_1_" cx="220.9873" cy="214.4517" r="220.5782" gradientTransform="matrix(1 0 0 0.6711 0 88.5529)" gradientUnits="userSpaceOnUse">
	<stop  offset="0.4386" style="stop-color:#0A0806"/>
	<stop  offset="1" style="stop-color:#0B77BD;stop-opacity:0"/>
</radialGradient>
<ellipse class="st0" cx="259.6" cy="135.5" rx="153.5" ry="8.3"/>
<path class="st1" d="M244.7,137.3c0.1-2.3,0.4-4.5,0.7-6.8c-1.9,0.3-3.7,0-5.3-1.3c-4-3.2-3.5-9.9-1.2-13.9
	c2.5-4.3,4.9-7.1,5.1-12.3c0.1-1.7,0-3.9-0.3-6.1c-1.9-1.6-3.5-3.5-4.6-5.6c-0.8,0-1.7-0.2-2.5-0.7c-1.2-0.7-2.2-1.5-3.1-2.3
	c-2-0.3-3.8-1.2-5.3-2.4c0,0.4-0.1,0.8-0.1,1.2c0.7,0.6,1.3,1.3,1.9,2.1c6.1,3.7,9.7,9.7,6.4,16.7c-2.8,6-8.7,10.1-13.9,13.9
	c-2.1,1.6-5.6,0.4-6.8-1.8c-0.7-1.3-1.4-2.6-1.7-4.1c-0.1-0.4-0.1-0.8-0.1-1.1c-0.2-1.5,0.3-3,1.4-4.3c1.9-2.3,5.5-4.6,5.9-7.7
	c0.1-1.1-0.1-1.9-0.6-2.3c-0.3-0.1-0.5-0.2-0.8-0.4c-0.7-0.1-1.6,0.1-2.6,0.6c-0.3,0.1-0.5,0.2-0.8,0.3c-0.6,1.3-1.3,2.4-2.3,3.2
	c-1.2,1-2.2,2.2-2.4,3.7c-0.1,0.9-0.5,1.7-1.1,2.5c-3.7,4.7-11.2,6.2-14.7,0.4c-3.5-5.7,0.9-13,6.6-15c0.4-0.1,0.9-0.3,1.4-0.4
	c0.9-2.6,2-5.2,3.1-7.8c0,0,0-0.1,0-0.1c-0.2-1.1-0.2-2,0.1-2.9c0.1-14.4-3.6-1.6-6.1-5.3c-0.7,0.2-1.2-6.6-2.4-6.9
	c-9.6-2.6,3.2,7.4,0.5,18c-1.8,6.9-10.5,6.1-16.1,2.7c-1.4-0.9-3.3-0.5-4.3,0.8c-3.8,4.6-8,8.7-10,9.2c-5.1,1.3-1.3-11.4,1.3-17.8
	c2.5-6.3,2.5-11.4-2.5-15.7c-5.1-4.3-3.8-5.9,1.3-12.2c3.6-4.5,4-7.7,3.9-9.2c0-0.5-0.2-1-0.4-1.5c-1.9-3.3-11.5-20.8-3.9-19.1
	c11.7,2.6,4.2-7-5.7-0.7c-9.9,6.3,8.6,6.3,0,19c-8.6,12.7-9.2,11.4-2.8,23.6c6.3,12.2,1.3,19.5-7.4,43.6c-8.7,24.1-1.5-3.7-0.2-15.2
	c1.3-11.4-3.8-11.4-7.1-19c-3.3-7.6-0.5-10.2-5.6-9.4c-5.1,0.8-7.6-6.8-6.3-13.5c2-10.7-4-7.8-6.1-6.5c-0.4,0.3-0.8,0.6-1.1,1.1
	c-1.8,2.8-8.6,13.7,1.4,3.1c6.6-7-4.3,14.7,4.6,18.1s5,11,10.1,21.2c5.1,10.2-4.3,32-9.8,16.7c-5.4-14.8-1.4-11.9-0.7-15.4
	c3.8-19-6-10.2-17.4-12.7c-11.3-2.5-6.5-10-1.5-28.5c0.1-0.5,0.3-0.9,0.7-1.3c3-3.6,19.3-24.1,13.9-29.9
	c-5.9-6.3-14.5-11.4-8.1-13.7c12.5-4.5,1.2,7.2,4.7,5.3c24.1-12.9-19.7-17.8-12.3,2c5.4,14.5,14,22.9,1.3,26.7
	c-5.4,1.6-11.7,6.5-11.1,12.6c0.6,6.2-7.2,11.7-13.5,13.5c-2.2,0.6-3.1,3.2-1.9,5.1c7.6,11.4,32.2,12.8,36.6,27.8
	c5.1,17-12.7,12.2-19.2,0C97,86.7,99.9,88.2,91,84.4s-36.8-1.5-39.8-13c-0.4-1.7,0.2-3.6,1.3-5.1c-3.4-0.9-6.6-0.8-8.5,2.9
	C39,79.4,55.5,89.5,70.7,89.5s14,14,29.2,24.3c6.2,4.2,1.5,18.8-5.6,9c-10.4-14.5-25.7-10.4-20-17.9c3.4-4.4-14.4,8-0.9,6.5
	c14.7-1.6-4.7,16-9.3,15.3c-14-2.3-37,16.1-37,16.1l222.8,0.1c0-0.3,0-0.6,0-0.9C247.3,142.4,244.5,140.8,244.7,137.3z"/>
<path class="st1" d="M64.2,67c-0.7-7.6-8.4-5.1-11.7-0.6C58.5,68,64.7,72.8,64.2,67z"/>
<path class="st1" d="M85.4,55.8c-7.2,7.9-5.6,10.9-1.2,10.8c-0.1-0.3-0.1-0.5-0.2-0.8C83.4,62,90,50.8,85.4,55.8z"/>
<g>
	<path class="st2" d="M45.3,74.6c-0.7-4.5,1-8.8,6.3-8.1"/>
	<g>
		<path class="st3" d="M46.8,74.2c-0.2-1.5-0.2-3.3,0.6-4.7c0.9-1.5,2.5-1.7,4.2-1.5c1.9,0.2,1.9-2.8,0-3c-2.6-0.3-5.1,0.5-6.6,2.7
			c-1.4,2.1-1.5,4.8-1.1,7.3C44.2,76.9,47.1,76,46.8,74.2L46.8,74.2z"/>
	</g>
</g>
<g>
	<path class="st2" d="M83.9,58.8c-1.3,0.6-2.3,2-2.5,3.5"/>
	<g>
		<path class="st3" d="M83.1,57.5c-1.7,0.9-2.9,2.5-3.2,4.4c-0.1,0.8,0.2,1.6,1,1.8c0.7,0.2,1.7-0.2,1.8-1c0.2-1.2,0.7-2,1.8-2.6
			C86.3,59.2,84.8,56.7,83.1,57.5L83.1,57.5z"/>
	</g>
</g>
<g>
	<path class="st2" d="M112.8,14.7c-2.8-5.8,0-11.1,6.6-12"/>
	<g>
		<path class="st3" d="M114.1,14c-2.3-5,0.5-9,5.7-9.8c1.9-0.3,1.1-3.2-0.8-2.9c-7.3,1.1-10.5,7.6-7.4,14.2
			C112.3,17.2,114.9,15.7,114.1,14L114.1,14z"/>
	</g>
</g>
<g>
	<path class="st2" d="M103,56.9c0.5-1.9,0.8-3.9,1.4-5.8"/>
	<g>
		<path class="st3" d="M104.4,57.3c0.5-1.9,0.8-3.9,1.4-5.8c0.6-1.9-2.3-2.6-2.9-0.8c-0.6,1.9-0.9,3.9-1.4,5.8
			C101.1,58.4,104,59.2,104.4,57.3L104.4,57.3z"/>
	</g>
</g>
<g>
	<path class="st2" d="M89.4,67c1.5,0,3-0.1,4.5-0.4"/>
	<g>
		<path class="st3" d="M89.4,68.5c1.7,0,3.3-0.1,4.9-0.5c1.9-0.4,1.1-3.3-0.8-2.9c-1.4,0.3-2.7,0.4-4.1,0.4
			C87.5,65.5,87.5,68.5,89.4,68.5L89.4,68.5z"/>
	</g>
</g>
<g>
	<path class="st2" d="M120.5,83c2.7-1,5.7-1,8.5-0.1"/>
	<g>
		<path class="st3" d="M120.9,84.5c2.6-0.8,5.1-0.9,7.7-0.1c1.9,0.5,2.7-2.4,0.8-2.9c-3.1-0.9-6.2-0.8-9.3,0.1
			C118.3,82.2,119.1,85.1,120.9,84.5L120.9,84.5z"/>
	</g>
</g>
<g>
	<path class="st2" d="M162.8,26.2c-0.6,0.1-1.3,0.3-1.5,0.8c-0.2,0.6,0.7,1.2,0.9,0.6"/>
	<g>
		<path class="st3" d="M162.4,24.8c-1.4,0.2-3,1.3-2.6,3c0.4,1.6,2.8,2.3,3.7,0.7c0.4-0.7,0.2-1.6-0.5-2.1c-0.7-0.4-1.7-0.2-2.1,0.5
			c0.3-0.2,0.7-0.4,1-0.5c0.2,0,0.3,0.1,0.5,0.1c-0.2-0.1,0,0,0.1,0.1c0.3,0.4,0.3,0.9,0,1.2c-0.1,0.1,0.2-0.1,0,0
			c-0.2,0.1,0.1,0,0.1,0c0.2-0.1,0.4-0.1,0.6-0.1c0.8-0.1,1.2-1.1,1-1.8C164,25,163.2,24.6,162.4,24.8L162.4,24.8z"/>
	</g>
</g>
<g>
	<path class="st2" d="M163.3,32.2"/>
	<g>
		<path class="st3" d="M163.3,33.7c1.9,0,1.9-3,0-3C161.3,30.7,161.3,33.7,163.3,33.7L163.3,33.7z"/>
	</g>
</g>
<g>
	<path class="st2" d="M164.5,44.5c-1.2-0.2-2.3,1-2.9,2c-1.9,3-3.4,6.1-4.5,9.4"/>
	<g>
		<path class="st3" d="M164.5,43c-2.6,0-3.9,2.1-5.1,4.2c-1.6,2.7-2.8,5.5-3.9,8.4c-0.7,1.8,2.2,2.6,2.9,0.8
			c0.7-1.9,1.5-3.8,2.4-5.6c0.7-1.3,2-4.8,3.6-4.8C166.4,46,166.4,43,164.5,43L164.5,43z"/>
	</g>
</g>
<g>
	<path class="st2" d="M123.8,53.8c-0.1-1,0.4-2.1,1.3-2.5"/>
	<g>
		<path class="st3" d="M125.3,53.8c0-0.1,0-0.6,0-0.3c0-0.1,0-0.2,0.1-0.3c0.1-0.2,0,0,0-0.1c0-0.1,0.1-0.2,0.1-0.2
			c0.1-0.2-0.1,0.1,0,0c0,0,0.2-0.2,0.1-0.1c-0.1,0.1,0.2-0.1,0.2-0.1c0.7-0.4,0.9-1.4,0.5-2.1c-0.4-0.7-1.3-0.9-2.1-0.5
			c-1.3,0.7-2.2,2.3-2,3.8c0.1,0.8,0.6,1.5,1.5,1.5C124.5,55.3,125.4,54.6,125.3,53.8L125.3,53.8z"/>
	</g>
</g>
<g>
	<path class="st2" d="M57.2,65.3"/>
	<g>
		<path class="st3" d="M57.2,66.8c1.9,0,1.9-3,0-3C55.2,63.8,55.2,66.8,57.2,66.8L57.2,66.8z"/>
	</g>
</g>
<g>
	<path class="st2" d="M60.6,64.8C60.2,64.8,60.2,64.8,60.6,64.8"/>
	<g>
		<path class="st3" d="M60.6,63.3c-0.1,0-0.2,0-0.3,0c-1.9,0-1.9,3,0,3c0.1,0,0.2,0,0.3,0C62.5,66.3,62.5,63.3,60.6,63.3
			c-0.1,0-0.2,0-0.3,0c-1.9,0-1.9,3,0,3c0.1,0,0.2,0,0.3,0C62.5,66.3,62.5,63.3,60.6,63.3L60.6,63.3z"/>
	</g>
</g>
<g>
	<path class="st2" d="M47.4,79.3c-0.1,0.3-0.3,0.6-0.4,0.8"/>
	<g>
		<path class="st3" d="M46.1,78.5c-0.1,0.3-0.3,0.6-0.4,0.8c-0.4,0.7-0.2,1.6,0.5,2.1c0.7,0.4,1.7,0.2,2.1-0.5
			c0.1-0.3,0.3-0.6,0.4-0.8c0.4-0.7,0.2-1.6-0.5-2.1C47.5,77.6,46.4,77.8,46.1,78.5L46.1,78.5z"/>
	</g>
</g>
<g>
	<path class="st2" d="M118.7,28.3c0.7,1.3,1.2,2.8,1.3,4.2"/>
	<g>
		<path class="st3" d="M117.4,29.1c0.6,1.1,1,2.3,1.1,3.5c0.1,0.8,0.6,1.5,1.5,1.5c0.7,0,1.6-0.7,1.5-1.5c-0.2-1.8-0.7-3.4-1.5-5
			C119.1,25.9,116.5,27.4,117.4,29.1L117.4,29.1z"/>
	</g>
</g>
<g>
	<line class="st2" x1="117.4" y1="38" x2="117.4" y2="38"/>
	<g>
		<path class="st3" d="M116.4,37.7c0,0.1,0,0.3,0,0.4c0,0.8,0.7,1.5,1.5,1.5c0.8,0,1.5-0.7,1.5-1.5c0-0.1,0-0.3,0-0.4
			c0-0.8-0.7-1.5-1.5-1.5C117,36.2,116.4,36.8,116.4,37.7L116.4,37.7z"/>
	</g>
</g>
<g>
	<path class="st2" d="M69.9,108.6"/>
	<g>
		<path class="st3" d="M69.9,110.1c1.9,0,1.9-3,0-3C68,107.1,68,110.1,69.9,110.1L69.9,110.1z"/>
	</g>
</g>
<g>
	<path class="st2" d="M77.5,90c5.8-0.4,11.1,3.5,14.9,7.9c3.8,4.4,6.7,9.6,11,13.6"/>
	<g>
		<path class="st3" d="M77.5,91.5c12.2,0,17.3,13.7,24.9,21.1c1.4,1.3,3.5-0.8,2.1-2.1c-8.3-8.1-13.5-21.9-27-22
			C75.6,88.5,75.6,91.5,77.5,91.5L77.5,91.5z"/>
	</g>
</g>
<g>
	<path class="st2" d="M142.1,86.7c2.3,4,4.8,8.2,5.2,12.9c0.4,3.9-0.8,7.9-3.1,11.1"/>
	<g>
		<path class="st3" d="M140.8,87.5c4.2,7.3,7.3,14.7,2,22.4c-1.1,1.6,1.5,3.1,2.6,1.5c5.8-8.6,2.7-17.2-2-25.4
			C142.4,84.3,139.8,85.8,140.8,87.5L140.8,87.5z"/>
	</g>
</g>
<g>
	<path class="st2" d="M161.7,66.7c2.6,6.7,2.7,14.3,0.2,21.1"/>
	<g>
		<path class="st3" d="M160.3,67c2.4,6.7,2.5,13.5,0.2,20.3c-0.6,1.8,2.3,2.6,2.9,0.8c2.5-7.2,2.4-14.7-0.2-21.9
			C162.5,64.5,159.6,65.2,160.3,67L160.3,67z"/>
	</g>
</g>
<g>
	<path class="st2" d="M175.1,97.1c1.4-2,3.4-3.6,5.6-4.6"/>
	<g>
		<path class="st3" d="M176.4,97.8c1.3-1.8,3.1-3.1,5-4.1c1.7-0.8,0.2-3.4-1.5-2.6c-2.5,1.2-4.5,3-6.1,5.2
			C172.7,97.9,175.3,99.4,176.4,97.8L176.4,97.8z"/>
	</g>
</g>
<g>
	<path class="st2" d="M197.1,71.2c0.1,1.4,0.8,2.8,1.8,3.8"/>
	<g>
		<path class="st3" d="M195.6,71.2c0.2,1.9,0.9,3.5,2.2,4.9c1.4,1.4,3.5-0.7,2.1-2.1c-0.7-0.7-1.2-1.7-1.3-2.7
			c-0.1-0.8-0.6-1.5-1.5-1.5C196.4,69.7,195.6,70.4,195.6,71.2L195.6,71.2z"/>
	</g>
</g>
<g>
	<path class="st2" d="M169.6,102.6c-0.1-0.1-0.3-0.3-0.4-0.4"/>
	<g>
		<path class="st3" d="M170.7,101.6c-0.1-0.1-0.3-0.3-0.4-0.4c-0.6-0.6-1.5-0.6-2.1,0c-0.6,0.6-0.6,1.5,0,2.1
			c0.1,0.1,0.3,0.3,0.4,0.4c0.6,0.6,1.5,0.6,2.1,0C171.3,103.1,171.3,102.1,170.7,101.6L170.7,101.6z"/>
	</g>
</g>
<g>
	<line class="st2" x1="199.4" y1="80" x2="199.4" y2="80"/>
	<g>
		<path class="st3" d="M201.3,80.1c0-0.1,0-0.3,0-0.4c0-0.8-0.7-1.5-1.5-1.5c-0.8,0-1.5,0.7-1.5,1.5c0,0.1,0,0.3,0,0.4
			c0,0.8,0.7,1.5,1.5,1.5C200.6,81.6,201.3,81,201.3,80.1L201.3,80.1z"/>
	</g>
</g>
<g>
	<path class="st2" d="M201,86.1"/>
	<g>
		<path class="st3" d="M201,87.6c1.9,0,1.9-3,0-3C199.1,84.6,199.1,87.6,201,87.6L201,87.6z"/>
	</g>
</g>
<g>
	<path class="st2" d="M215.5,102.2c-0.1,0.1-0.3,0.3-0.4,0.4"/>
	<g>
		<path class="st3" d="M214.4,101.1c-0.1,0.1-0.3,0.3-0.4,0.4c-0.6,0.6-0.6,1.5,0,2.1c0.6,0.6,1.5,0.6,2.1,0
			c0.1-0.1,0.3-0.3,0.4-0.4c0.6-0.6,0.6-1.5,0-2.1C216,100.6,215,100.6,214.4,101.1L214.4,101.1z"/>
	</g>
</g>
<g>
	<path class="st2" d="M218.4,98.7c-1.1,0.5-1.9,1.5-2.1,2.6"/>
	<g>
		<path class="st3" d="M217.7,97.4c-1.4,0.6-2.5,2-2.7,3.5c-0.2,0.8,0.2,1.6,1,1.8c0.7,0.2,1.7-0.2,1.8-1c0-0.1,0.1-0.2,0.1-0.4
			c0-0.1,0.1-0.3,0-0.1c0.1-0.1,0.1-0.2,0.2-0.3c0,0,0.2-0.3,0.1-0.1c0.1-0.1,0.1-0.2,0.2-0.2c0,0,0.3-0.3,0.2-0.2
			c0.1-0.1,0.4-0.3,0.6-0.4c0.7-0.3,0.9-1.4,0.5-2.1C219.3,97.2,218.4,97.1,217.7,97.4L217.7,97.4z"/>
	</g>
</g>
<g>
	<path class="st2" d="M232.5,90.2c0.8,0.6,1.7,1.2,2.5,1.8"/>
	<g>
		<path class="st3" d="M231.7,91.5c0.8,0.6,1.7,1.2,2.5,1.8c0.7,0.5,1.7,0.1,2.1-0.5c0.4-0.8,0.1-1.6-0.5-2.1
			c-0.8-0.6-1.7-1.2-2.5-1.8c-0.7-0.5-1.7-0.1-2.1,0.5C230.8,90.2,231.1,91.1,231.7,91.5L231.7,91.5z"/>
	</g>
</g>
<g>
	<path class="st2" d="M237.5,95.8"/>
	<g>
		<path class="st3" d="M237.5,97.3c1.9,0,1.9-3,0-3C235.6,94.3,235.6,97.3,237.5,97.3L237.5,97.3z"/>
	</g>
</g>
<g>
	<line class="st2" x1="237.4" y1="103" x2="237.4" y2="103"/>
	<g>
		<path class="st3" d="M236,103c0,0.1,0,0.3,0,0.4c0,0.8,0.7,1.5,1.5,1.5c0.8,0,1.5-0.7,1.5-1.5c0-0.1,0-0.3,0-0.4
			c0-0.8-0.7-1.5-1.5-1.5C236.7,101.6,236,102.2,236,103L236,103z"/>
	</g>
</g>
<radialGradient id="SVGID_2_" cx="68.8521" cy="172.2234" r="113.3317" gradientTransform="matrix(0.9995 -3.289925e-002 3.289925e-002 0.9995 -8.6023 21.4876)" gradientUnits="userSpaceOnUse">
	<stop  offset="0.4386" style="stop-color:#0A0806"/>
	<stop  offset="1" style="stop-color:#0B77BD;stop-opacity:0"/>
</radialGradient>
<path class="st4" d="M216.2,143.6H109.8c-2.5,0-4.1-1.6-4.6-3.5c-58.2,2-104.8,6.9-104.7,11c0.1,4.1,48.6,5.9,108.2,4
	s107.8-6.9,107.7-11.1C216.4,143.8,216.3,143.7,216.2,143.6z"/>
<path class="st5" d="M1.4,136.2c-1.3-1.5,10.5-1.4,19.2-6.1c1.4-0.8,2.6-0.6,2.6-0.6s-7.2-1.2-4-2.6c0,0,7.6-1.1,10.8-1.9
	c3.5-0.9,5.9-11.6,9.6-8.9s3.7-7.7,8.4-5.2c4.7,2.5,7.9-4.5,11-0.4s5.2,10.1,10.3,5.6c4.2-3.7,5.1,8.5,21.2,13.8
	c4,1.3,12.1,2.1,12.1,2.1l7.2,4.5c0,0,6.2,0.8,0.4,3.7c-5.8,2.9-10.2,0-14.9,0.8c-4.7,0.8-13.7-3.3-11.1-0.3
	c2.6,3,15.5,10.3,12,12.3c-3.5,2.1-13.5-1.2-13.5-1.2s-16.8-2.9-18.9-5c-2.1-2.1-10.8-2.9-13.9-2.9c-3.1,0-2.9-0.4-7,1.7
	c-4.2,2.1-13,2.7-16.7,3.5c-3.7,0.8-9,3.1-13.7,2.7s-7.2,2.6-11.2,0.5c-4-2.1,3.3-4.6,3.3-4.6l10-6.2
	C14.5,141.6,3.5,138.8,1.4,136.2z"/>
<path class="st6" d="M5.9,150.3c0,0-1.8-3.3,1.2-4s5.2,0.6,5,1.1c-0.2,0.5-1.1,3.6-1.8,2.9C9.5,149.5,5.9,150.3,5.9,150.3z"/>
<path class="st6" d="M13.9,143.9c0,0,0.7,1.9,2.3,2.1c1.6,0.2,3.4,0.7,4.8-1.1s2.7-4,0.9-4c-1.8,0-1.6-0.9-3.6,0
	S13.9,143.9,13.9,143.9z"/>
<path class="st6" d="M25.3,135.8c-1.1,1.4-1.1,2,0,3.3s3,0.7,4.1,0s3.4-2.2,2.7-3.3s-2.8-2.2-3.8-1.8
	C27.4,134.3,25.3,135.8,25.3,135.8z"/>
<path class="st6" d="M35.9,129.5c-2.1,1.1-2.7,0.3-1.8,2.1c0.9,1.8,1.8,2.3,1.8,2.3s3-1.4,3.7-2.2s1.4-1.9,0.9-2.2
	c-0.5-0.4-0.5-0.9-1.6-1.1C37.7,128.2,35.9,129.5,35.9,129.5z"/>
<path class="st6" d="M40.6,124.2c0.8-1.3,1.8-3.5,2.6-1.1s2.3,2.5,1.1,3.4c-1.1,0.9-1.7,0.7-1.7,0.7s-3.2,0.4-3.2-1.1
	S40.6,124.2,40.6,124.2z"/>
<path class="st6" d="M44.8,118.1c2.1-0.4,3.5-2.7,3,0c-0.5,2.7,0.5,4.8-1.5,4c-2-0.8-2-0.8-2-0.8L44.8,118.1z"/>
<path class="st6" d="M47.9,112.8c-1.5,1.4,0.1,1.6,1.3,2.2c1.1,0.5,2.1,0.9,2.3,0c0.2-0.9-0.5-1.6-1-1.7
	C49.8,113.2,47.9,112.8,47.9,112.8z"/>
<path class="st6" d="M53.8,111.1c-0.6,0.9-0.7,2,0,2.6c0.7,0.5,1.8-0.2,2.5,0c0.8,0.2,1.3-0.7,1.5-1.2s-0.1-0.9-0.8-1.4
	C56.4,110.6,53.8,111.1,53.8,111.1z"/>
<path class="st6" d="M60.4,118.5c-0.6,0.3-0.1,2.1,0,2.6s1.2-0.4,2.1,0s1.6-0.4,1.9-0.8c0.3-0.4,0.6-1.3-0.5-1.8
	C63,118.1,60.4,118.5,60.4,118.5z"/>
<path class="st6" d="M57.9,115.1c-0.4,0.4-1.1,1.2-0.7,1.6c0.3,0.4,0.5,0.2,1.4,0.5s1.6,0.5,2.3,0c0.7-0.5,1.1-1.3,0.9-1.7
	c-0.2-0.4-0.7-0.7-1.5-0.9S57.9,115.1,57.9,115.1z"/>
<path class="st6" d="M6.2,135.3c-1.3-0.5-2.5,1.8-1.9,1.6s0.9-0.3,1.9,0s2.3-0.5,2.5-0.8c0.2-0.3-0.6-1.8-1.1-1.7
	C7.2,134.4,6.2,135.3,6.2,135.3z"/>
<path class="st6" d="M9.6,133.9c0,0-1.2,1.9,0,1.7s1.9,0.5,2.5,0s1.5-1,1-1.7C12.5,133.2,9.6,133.9,9.6,133.9z"/>
<path class="st6" d="M15.7,132.2c-0.5,0.2,0.1,0.9,0,1.7s0.5,0.7,1.2,0.8c0.8,0.1,1.3-0.2,1.3-0.8c0-0.6,0-1.3-0.8-1.7
	S15.7,132.2,15.7,132.2z"/>
<path class="st6" d="M20,131.1c-0.9-0.2,0.2,1,0,1.5s-0.4,1.3,0.8,0.8c1.1-0.5,1.7-0.4,2-1.3c0.3-1-0.9-1.5-1.6-1.7
	C20.6,130.2,20,131.1,20,131.1z"/>
<path class="st6" d="M25.1,128.4c-1.9,1.2-0.2,1.2,0,2c0.2,0.8,2.9,0.6,3.3,0c0.3-0.6,0.9-3,0.9-3L25.1,128.4z"/>
<path class="st6" d="M32.3,124.7c-0.4,1.5-0.2,3.2,0.8,2.6c0.9-0.6,2.1-2.6,2.5-2.6s-1.7-0.9-1.7-0.9L32.3,124.7z"/>
<path class="st6" d="M35.6,122.1c0,0,0.3-3,2.2-2.3c1.9,0.7,3.2,2.1,1.7,2.4C38,122.6,35.8,124,35.6,122.1z"/>
<path class="st6" d="M41.9,116.1l-1.7,2.2c0,0,1.1,1.5,1.7,1.2c0.6-0.4,3-2.5,2.9-2.7C44.6,116.6,41.9,116.1,41.9,116.1z"/>
<polygon class="st6" points="44.4,113 44.4,115 46.4,115 46.4,112.2 "/>
<polygon class="st6" points="35.4,119 37.4,119 39.6,116.4 37.5,116.4 "/>
<path class="st6" d="M21.2,126.7c0.6-0.1,0.8-0.9,1.6-1.1c0.8-0.2,2.9,0.6,2.9,0.6l-1.2,1.3L21.2,126.7z"/>
<path class="st6" d="M28.1,125.6c0,0,0.6-2.1,1.2-1.8c0.6,0.3,3,0.9,3,0.9s-2.1,0-2.1,0.9C30.2,126.5,28.1,125.6,28.1,125.6z"/>
<path class="st6" d="M32.1,121.4c0,0,1.2-1.3,1.7-0.4c0.5,0.9,0.7,2.3-0.2,2.1C32.7,122.8,31,122.9,32.1,121.4z"/>
<path class="st6" d="M55.6,120.6c0,0-3,0.8-1.1,2.5c1.9,1.7,1.2,2.4,3.4,1.6c2.2-0.8,4.1-3,2.5-3.6C58.8,120.5,56.4,119,55.6,120.6z
	"/>
<path class="st6" d="M60.2,128.4c-1,3-4.3,3.9-2.2,5.2s2,1.9,4.6,0.7c2.6-1.1,4.5-3.7,2.3-4.7C62.6,128.6,60.2,128.4,60.2,128.4z"/>
<path class="st6" d="M63.4,134.9c-0.4,1.9-1.9,4,0,4c1.9,0,3.2,1.8,4.9,0.9c1.7-0.9,2.3-3.5,1.7-4.2c-0.6-0.6-4.3-1.3-4.3-1.3
	L63.4,134.9z"/>
<path class="st6" d="M70.2,140.6c0.5,1.7,1.5,2.6,2.8,2.8c1.3,0.2,2.3-1.1,3-1.4c0.8-0.3,1.9-1.3,1.3-2.2c-0.6-0.9-1.7-0.1-2.8-0.9
	c-1.1-0.8-2.1-0.4-2.6,0.1S70.2,140.6,70.2,140.6z"/>
<path class="st6" d="M77.5,144.1c1,1.2,1.7,2.2,3.1,2.2c1.3,0,1.9-0.3,2.3-1.1s-0.8-2-1.3-2.4c-0.6-0.4-2.1,0.1-2.6,0
	C78.3,142.6,77.5,144.1,77.5,144.1z"/>
<path class="st6" d="M85.9,146c-0.8,1-0.2,2,0,2.9s0.9-0.1,2.1,0.1c1.1,0.1,1.5-0.4,1.5-1.3c0-0.9-0.4-1.7-2-1.7
	C85.9,146,85.9,146,85.9,146z"/>
<path class="st6" d="M91.4,149h2c0,0,3.8,0.4,2.7,1.7s-2.5,1.7-3.2,1.7s-2.5-1.2-2.5-1.7S91.4,149,91.4,149z"/>
<path class="st6" d="M68.7,121.4c-1.7-0.3-3.2-0.1-2.9,1.1c0.3,1.2,0.2,3,1.5,3.1s1.3-0.1,3-0.9c1.7-0.8-0.2-2.2,0-2.9
	C70.4,121.2,68.7,121.4,68.7,121.4z"/>
<path class="st6" d="M73.9,124.9c0,0-3.7,1.5-2.2,2.5c1.5,0.9,2.5,2.5,3.2,3c0.8,0.5,2-1.4,2.6-2c0.6-0.6,1.9-2.5,0-2.7
	S73.9,124.9,73.9,124.9z"/>
<path class="st6" d="M78.5,131.1c1,1.6,2.3,2.9,3.4,2.8c1.1-0.1,3.6-1.5,3.6-1.8c0-0.4-0.2-3.1-1.5-3c-1.3,0.1-3-1.3-3.8,0
	C79.5,130.3,78.5,131.1,78.5,131.1z"/>
<path class="st6" d="M89.5,133.9c1.5,1.1,3.4,0.3,3.9,0s-1.9-2.3-1.9-2.3l-1.9-0.4c0,0-4,1.7-2,2.2L89.5,133.9z"/>
<path class="st6" d="M96.3,134.5c0.9,1.1,3.2,1.4,3.2,1.4s2.3-1,1.5-1.9s-2.5-1.6-3.2-1.1C97.1,133.3,96.3,134.5,96.3,134.5z"/>
<path class="st6" d="M103.4,135.8c1,1.7,2.2,1.3,3,1.4c0.8,0,2.4-1.1,2-1.4c-0.4-0.3-3.1-1.9-3-1.9s-2,1-2,1
	C103.4,135.8,103.4,135.8,103.4,135.8z"/>
<path class="st6" d="M66.4,117.6c0,1.7,0.1,2.1,2,2.3c1.9,0.2,2.8-0.2,2.6-1.1c-0.2-1-1.1-3-1.6-2.5c-0.5,0.5-2.9-0.3-2.9,0.6
	C66.4,117.6,66.4,117.6,66.4,117.6z"/>
<path class="st6" d="M73.2,118.5c-0.9,1.1,0,2.3,0,2.7c0,0.4,0.6,0.8,1.7,0.8c1.1,0,2.2-0.4,1.8-0.8c-0.4-0.4-1.6-1.8-1.8-2.1
	S73.2,118.5,73.2,118.5z"/>
<path class="st6" d="M78.4,123.3v1.6c0,0,0.8,2.2,1.8,1.4s0-3.1,0-3.1L78.4,123.3z"/>
<path class="st6" d="M43.2,129.1c0,0-1.6,2.6,0,2.5c1.6-0.1,2.5-0.3,2.2-1.3C45,129.3,43.2,129.1,43.2,129.1z"/>
<path class="st6" d="M35.4,135.8c-0.6,0.8-1.5,1.7,0.2,2s1.8-0.2,2.3-0.9c0.5-0.6,0.3-1.1-0.4-1.4C36.9,135.3,35.4,135.8,35.4,135.8
	z"/>
<path class="st6" d="M25.7,142.6c-0.2,0-1.7,1.9,0,1.9c1.7,0,2.4-1.4,2.7-1.9c0.3-0.4-1.6-0.7-1.6-0.7L25.7,142.6z"/>
<path class="st6" d="M47.9,125c-0.2,1-2.1,2.6,0,2.4c2.1-0.2,1.2-0.7,1.5-1.2S47.9,125,47.9,125z"/>
<path class="st6" d="M51.5,118c-1,1.2,1.8,1.6,1.8,1.7s0.7-0.9,0.5-1.2c-0.1-0.3-0.5-0.6-1.3-0.9S51.5,118,51.5,118z"/>
<path class="st6" d="M55.6,126.5c-1,1.1-1.7,2.4,0,2.6c1.7,0.2,1.8,0.3,2.3-0.7c0.5-1,0-2.4,0-2.4L55.6,126.5z"/>
<path class="st6" d="M67.5,131.2c-0.4,0.5-0.6,2.1,0,2.2c0.6,0.1,2.7-0.3,2.7-0.7c0-0.4-1.9-1.4-1.5-1.8
	C69,130.3,67.5,131.2,67.5,131.2z"/>
<path class="st6" d="M13.9,135.8c0,0-1.7,1.5-0.7,1.4c1-0.1,2,0,2.4-0.5c0.3-0.5,0-1.8,0-1.8L13.9,135.8z"/>
<path class="st6" d="M24.9,131.9c0,0-2.3,1.1-1.4,1.5s3.2,0.8,3.2,0.2c0-0.6,0.8-2,0.1-2C26.1,131.7,24.9,131.9,24.9,131.9z"/>
<path class="st6" d="M19.6,137.2c-0.4,0.9,0.3,2.8,1.6,2.6c1.3-0.2,3.2,0,3.2,0l-1.7-3.1c0,0,0-0.5-1.5,0
	C19.6,137.2,19.6,137.2,19.6,137.2z"/>
<path class="st6" d="M72.8,134.9c-0.3,0.5-0.4,2.1,0,2.3c0.4,0.2,1,1,2.1,0.7c1.1-0.2,2.7-0.5,1.9-1.4s-2.1-2-2.1-2L72.8,134.9z"/>
</svg>
