<?xml version="1.0" encoding="UTF-8" standalone="no"?>
<svg
   xmlns:dc="http://purl.org/dc/elements/1.1/"
   xmlns:cc="http://creativecommons.org/ns#"
   xmlns:rdf="http://www.w3.org/1999/02/22-rdf-syntax-ns#"
   xmlns:svg="http://www.w3.org/2000/svg"
   xmlns="http://www.w3.org/2000/svg"
   viewBox="0 0 2666.6667 2666.6667"
   height="2666.6667"
   width="2666.6667"
   xml:space="preserve"
   id="svg2"
   version="1.1"><metadata
     id="metadata8"><rdf:RDF><cc:Work
         rdf:about=""><dc:format>image/svg+xml</dc:format><dc:type
           rdf:resource="http://purl.org/dc/dcmitype/StillImage" /></cc:Work></rdf:RDF></metadata><defs
     id="defs6"><clipPath
       id="clipPath18"
       clipPathUnits="userSpaceOnUse"><path
         id="path16"
         d="M 0,2000 H 2000 V 0 H 0 Z" /></clipPath></defs><g
     transform="matrix(1.3333333,0,0,-1.3333333,0,2666.6667)"
     id="g10"><g
       id="g12"><g
         clip-path="url(#clipPath18)"
         id="g14"><g
           transform="translate(814.4103,1635.674)"
           id="g20"><path
             id="path22"
             style="fill:#000000;fill-opacity:1;fill-rule:nonzero;stroke:none"
             d="m 0,0 c 9.763,-0.493 18.067,1.898 25.549,7.864 16.05,12.797 35.381,18.728 54.119,25.907 15.056,5.768 30.636,10.057 46.335,13.197 22.466,4.494 44.734,10.832 68.062,10.054 9.686,-0.323 19.28,1.197 29.142,0.673 17.769,-0.945 34.788,-4.637 51.518,-9.887 26.08,-8.183 51.814,-17.374 75.31,-31.751 5.393,-3.3 10.786,-6.642 15.896,-10.354 4.371,-3.176 8.884,-4.683 14.371,-4.725 21.823,-0.165 43.644,-0.652 65.463,-1.159 7.463,-0.173 14.917,-1.071 22.374,-1.051 5.906,0.016 9.445,-2.386 12.342,-7.493 15.758,-27.781 274.022,-484.482 274.48,-485.205 8.294,-13.159 5.793,-14.68 -0.338,-25.593 -24.515,-43.634 -103.666,-182.491 -118.703,-208.296 -4.308,-7.393 -4.266,-7.252 0.792,-14.319 5.978,-8.352 12.727,-15.055 23.363,-17.703 16.643,-4.143 28.615,-15.644 39.351,-28.206 11.618,-13.593 21.429,-28.545 29.615,-44.443 3.016,-5.857 7.341,-9.239 13.296,-11.344 13.731,-4.855 28.042,-6.085 42.394,-6.858 9.18,-0.495 18.319,-0.971 27.486,-1.972 11.426,-1.249 23.009,-0.076 34.341,1.965 28.281,5.094 52.428,18.517 72.821,38.383 13.39,13.044 21.212,29.873 28.374,46.899 0.779,1.851 1.207,3.863 2.087,5.658 9.336,19.035 9.616,39.397 8.414,59.848 -0.608,10.341 -5.096,19.324 -12.201,26.991 -4.074,4.398 -8.621,6.413 -14.643,4.714 -4.973,-1.402 -10.13,-2.177 -15.059,-3.704 -11.747,-3.642 -21.033,0.48 -28.449,9.247 -5.154,6.095 -9.937,12.502 -13.042,20.128 -3.95,9.701 -4.214,20.017 -2.912,29.651 1.67,12.344 4.437,24.861 11.528,35.839 8.026,12.425 19.246,20.45 33.18,24.309 19.053,5.277 38.589,5.165 56.865,-2.031 23.445,-9.231 43.257,-23.811 55.079,-47.125 2.351,-4.635 5.131,-8.975 7.965,-13.314 9.97,-15.265 18.152,-31.583 22.813,-49.106 4.567,-17.17 9.05,-34.407 12.95,-51.766 0.252,-1.119 0.552,-2.266 0.547,-3.399 -0.081,-18.684 1.414,-37.415 -1.576,-56.016 -0.319,-1.985 -0.392,-4.104 -1.169,-5.908 -10.868,-25.238 -17.025,-52.717 -34.964,-74.602 -8.234,-10.045 -14.76,-21.232 -22.157,-31.833 -16.158,-23.154 -34.245,-44.515 -55.779,-63.058 -8.427,-7.256 -16.983,-13.396 -27.203,-17.593 -4.46,-1.832 -8.204,-5.497 -12.414,-7.615 -12.023,-6.049 -23.09,-14.058 -35.859,-18.479 -6.298,-2.181 -12.281,-4.569 -17.974,-8.094 -12.637,-7.824 -26.524,-12.081 -41.248,-14.34 -21.154,-3.245 -42.391,-3.578 -63.692,-3.451 -7.47,0.045 -7.626,0 -9.699,-6.701 -2.206,-7.136 -4.202,-14.344 -6.069,-21.577 -3.392,-13.139 -8.494,-25.589 -14.423,-37.764 -5.287,-10.855 -10.932,-21.519 -16.398,-32.277 -9.46,-18.618 -21.925,-35.109 -34.978,-51.201 -13.781,-16.988 -29.071,-32.639 -44.331,-48.275 -4.355,-4.463 -9.677,-8.288 -15.168,-11.283 -22.256,-12.139 -45.094,-22.816 -70.591,-26.532 -18.854,-2.748 -37.723,-2.381 -56.637,-1.357 -10.626,0.576 -21.254,0.897 -31.733,3.207 -8.211,1.81 -15.883,4.714 -23.292,8.677 -6.274,3.356 -13.039,5.574 -19.928,7.56 -9.117,2.629 -18.01,6.009 -25.015,12.973 -2.641,2.625 -5.465,5.234 -8.638,7.123 -9.247,5.505 -17.369,12.348 -24.541,20.255 -9.858,10.871 -22.049,19.152 -31.832,30.251 -10.027,11.377 -18.464,23.368 -24.794,37.084 -6.854,14.849 -12.12,30.438 -20.974,44.38 -2.261,3.56 -3.213,7.974 -4.634,12.041 -7.09,20.297 -14.113,40.617 -21.235,60.902 -0.657,1.871 -1.669,3.683 -2.825,5.302 -3.322,4.654 -7.352,7.029 -13.673,6.901 -22.409,-0.455 -44.833,-0.205 -67.251,-0.133 l -16.006,0.047 c -8.572,-0.243 -11.88,-1.483 -13.701,-9.303 -0.455,-1.954 -12.076,-34.788 -18.559,-48.779 -4.956,-10.696 -7.441,-22.216 -12.76,-32.837 -3.925,-7.838 -6.233,-16.636 -9.922,-24.76 -3.355,-7.387 -7.525,-14.178 -13.012,-20.221 -6.956,-7.661 -14.034,-15.245 -19.776,-23.923 -0.628,-0.949 -1.372,-1.922 -2.286,-2.566 -11.743,-8.275 -19.048,-20.655 -28.676,-30.881 -11.252,-11.949 -22.775,-23.594 -36.919,-32.246 -4.182,-2.558 -8.145,-5.433 -11.467,-9.085 -2.375,-2.61 -5.413,-4.161 -8.462,-5.832 -25.813,-14.142 -53.865,-18.607 -82.791,-19.432 -2.002,-0.057 -3.994,-0.438 -5.996,-0.591 -8.588,-0.653 -17.06,-0.138 -25.691,0.582 -13.107,1.095 -25.986,3.636 -39.06,4.836 -7.311,0.672 -14.728,2.402 -21.754,5.101 -19.908,7.649 -35.474,21.583 -51.669,34.827 -18.739,15.324 -32.701,34.482 -46.716,53.812 -16.075,22.17 -29.71,45.644 -41.607,70.307 -8.037,16.659 -15.057,33.489 -19.11,51.566 -1.707,7.614 -2.086,7.517 -9.712,7.615 -18.409,0.235 -36.836,-0.609 -55.219,1.209 -15.494,1.533 -30.775,3.846 -45.586,8.994 -6.762,2.351 -13.893,3.66 -20.884,5.327 -13.552,3.23 -26.285,7.977 -36.767,17.715 -5.272,4.899 -12.688,7.231 -17.787,11.933 -6.41,5.909 -13.832,10.24 -20.38,15.81 -9.413,8.007 -20.431,14.034 -29.771,21.906 -15.169,12.785 -27.635,28.405 -38.559,45.037 -4.576,6.967 -9.078,13.893 -14.511,20.27 -4.48,5.26 -6.122,12.238 -9.29,18.328 -8.38,16.108 -14.004,33.337 -20.416,50.274 -9.757,25.77 -12.629,52.307 -11.717,79.522 0.029,0.863 10e-4,1.743 0.162,2.583 4.175,21.689 6.273,43.807 13.895,64.781 3.162,8.701 9.135,16.107 11.604,24.991 4.422,15.912 14.926,28.345 23.341,41.931 7.847,12.669 18.885,22.683 32.081,29.329 7.325,3.688 15.157,6.763 22.83,9.91 7.84,3.216 16.394,3.231 24.616,1.134 5.302,-1.353 10.599,-2.547 15.983,-3.499 25.595,-4.528 41.772,-19.571 50.097,-44.049 4.752,-13.974 5.485,-28.209 4.714,-42.603 -0.573,-10.705 -8.039,-17.681 -15.96,-23.369 -12.839,-9.218 -27.71,-9.911 -42.853,-7.95 -0.835,0.108 -1.691,0.409 -2.436,0.81 -2.71,1.456 -5.102,3.943 -8.653,1.995 -4.125,-2.263 -7.978,-4.983 -9.739,-9.417 -5.521,-13.896 -10.812,-27.727 -9.738,-43.324 0.627,-9.106 2.672,-17.84 6.034,-25.884 4.863,-11.637 9.281,-23.553 15.616,-34.576 13.96,-24.289 33.441,-43.151 57.539,-56.975 15.61,-8.954 32.347,-14.184 51.071,-12.598 12.503,1.059 25.253,-0.147 37.854,-0.098 17.227,0.068 34.481,1.721 51.045,7.404 5.474,1.878 9.075,4.91 11.482,10.515 8.327,19.398 19.791,36.966 32.745,53.605 13.677,17.569 30.491,30.365 52.576,35.356 4.31,0.974 8.052,2.519 10.886,6.291 5.068,6.744 5.185,6.599 1.201,13.909 -22.16,40.655 -110.813,193.388 -132.067,229.618 -3.091,5.27 -2.71,9.502 -0.047,14.419 18.323,33.831 192.792,339.803 222.965,391.749 12.68,21.83 25.011,43.865 38.681,65.124 6.208,9.654 11.382,19.989 16.734,30.169 2.011,3.825 4.561,5.15 8.857,5.092 C -76.264,-0.206 -14.067,0.71 0,0" /></g><g
           transform="translate(1162.1084,1629.0253)"
           id="g24"><path
             id="path26"
             style="fill:#46aae5;fill-opacity:1;fill-rule:nonzero;stroke:none"
             d="m 0,0 c 5.23,-0.34 8.72,-4.121 12.508,-6.888 13.447,-9.822 27.016,-19.454 39.438,-30.686 17.012,-15.381 31.477,-32.678 43.224,-52.312 17.906,-29.927 33.848,-60.812 45.564,-93.743 9.177,-25.797 15.672,-52.142 19.996,-79.299 7.39,-46.409 5.353,-92.916 4.698,-139.473 -0.291,-20.718 1.505,-41.366 1.947,-62.055 0.497,-23.286 0.564,-46.581 0.863,-69.871 0.223,-17.371 1.748,-34.485 9.911,-50.312 2.535,-4.916 3.471,-10.39 4.44,-15.737 2.596,-14.312 8.357,-27.176 15.258,-39.965 12.579,-23.311 28.938,-44.281 41.129,-67.716 5.455,-10.486 13.66,-19.117 18.368,-29.981 1.101,-2.543 3.231,-4.64 5.163,-7.324 -1.507,-1.363 -3.551,-0.994 -5.372,-1.039 -16.001,-0.401 -29.097,-7.018 -41.142,-17.354 -20.488,-17.582 -26.68,-41.227 -31.13,-66.308 -4.4,-24.801 4.11,-45.118 18.873,-63.928 5.458,-6.954 12.128,-11.96 20.611,-14.952 13.924,-4.911 27.853,-9.463 42.878,-7.773 4.591,0.517 5.581,-1.779 5.6,-5.39 0.051,-9.761 0.017,-19.523 0.017,-29.143 -2.204,-1.28 -3.534,0.114 -4.788,1.162 -10.359,8.658 -22.706,14.612 -32.4,24.236 -4.148,4.118 -10.331,4.847 -15.648,6.974 -1.857,0.743 -4.206,0.63 -5.749,1.727 -9.93,7.06 -21.833,6.162 -32.94,8.216 -6.64,1.228 -13.956,2.475 -18.827,-4.664 -14.881,-18.618 -13.594,-40.866 -15.488,-62.904 -2.455,-28.554 4.694,-55.343 11.167,-82.301 5.042,-21.001 25.094,-36.049 46.513,-37.288 1.149,-0.067 -0.222,0.252 0.852,-0.076 20.717,-6.316 30.976,6.58 39.549,21.878 5.469,9.759 9.867,20.107 15.507,29.798 5.915,8.879 9.932,18.796 14.252,28.412 6.702,14.919 11.442,30.641 15.032,46.693 3.788,16.94 3.739,33.57 -2.253,49.974 -1.16,3.176 -0.641,4.872 2.327,7.065 9.136,6.75 14.924,15.833 16.417,27.327 1.368,10.526 3.733,21.034 1.045,31.68 -3.004,11.9 -9.74,21.352 -19.498,28.607 -4.64,3.45 -10.095,3.947 -15.676,2.79 -2.089,-0.434 -3.67,-1.659 -4.29,-3.796 -0.678,-2.338 0.668,-3.88 2.364,-5.086 2.341,-1.664 4.833,-3.113 7.191,-4.753 8.227,-5.72 13.53,-13.034 13.619,-23.587 0.066,-7.807 -0.133,-15.646 -2.114,-23.122 -3.896,-14.707 -11.096,-17.556 -25.967,-19.52 -6.308,-0.832 -12.488,0.772 -18.673,2.479 -20.25,5.586 -32.205,20.151 -41.54,37.606 -1.313,2.457 -1.941,5.472 -2.169,8.286 -1.704,21.064 0.385,41.784 11.279,60.154 8.761,14.774 21.177,27.051 37.841,32.601 12.053,4.013 24.99,3.05 37.509,-0.048 22.282,-5.516 40.428,-16.948 54.456,-35.505 17.522,-23.178 31.111,-48.464 41.216,-75.477 7.728,-20.658 10.21,-42.543 8.37,-64.584 -1.63,-19.523 -2.032,-39.073 -2.807,-58.62 -0.114,-2.866 0.045,-5.876 -0.772,-8.561 -6.691,-21.972 -11.096,-44.696 -21.019,-65.609 -4.315,-9.093 -7.923,-18.477 -12.334,-27.546 -10.891,-22.395 -24.394,-42.98 -40.318,-62.055 -4.814,-5.767 -10,-11.13 -16.14,-15.485 -7.566,-5.366 -13.588,-12.405 -20.214,-18.761 -11.779,-11.3 -25.143,-19.585 -40.203,-26.037 -16.911,-7.244 -34.707,-9.894 -52.421,-13.315 -7.104,-1.372 -14.277,-0.902 -21.471,0.182 -8.244,1.242 -16.59,1.553 -24.937,1.897 -24.633,1.017 -48.083,5.867 -70.3,17.764 -13.602,7.283 -25.766,16.077 -37.735,25.46 -1.354,1.062 -2.767,2.119 -3.872,3.417 -13.412,15.741 -28.835,29.741 -40.634,46.88 -0.977,1.42 -1.97,2.852 -3.124,4.126 -12.697,14.022 -21.881,30.215 -29.537,47.386 -4.333,9.716 -9.118,19.234 -13.279,29.021 -7.889,18.557 -14.173,37.777 -18.833,57.299 -3.645,15.271 -5.496,31.134 -4.73,47.069 0.361,7.494 0.217,7.61 -7.475,7.625 -39.646,0.079 -79.293,0.104 -118.939,0.119 -2.005,0 -4.065,-0.029 -6.005,-0.463 -7.994,-1.789 -9.602,-3.594 -8.816,-11.903 2.157,-22.805 -2.897,-44.254 -9.571,-65.947 -8.433,-27.409 -21.263,-52.757 -33.027,-78.635 -4.047,-8.901 -10.115,-16.687 -15.947,-24.565 -14.223,-19.213 -29.87,-37.257 -46.485,-54.339 -11.357,-11.676 -23.672,-22.695 -39.11,-29.224 -2.379,-1.005 -4.715,-2.177 -6.915,-3.527 -20.504,-12.581 -43.408,-16.211 -66.803,-17.524 -9.768,-0.548 -19.543,-0.755 -29.224,-2.258 -9.836,-1.527 -19.584,-0.48 -29.143,1.59 -5.888,1.276 -11.731,2.819 -17.676,3.879 -18.023,3.212 -34.295,11.401 -51.075,18.103 -5.928,2.367 -10.713,6.661 -15.231,11.158 -22.9,22.79 -44.13,46.95 -61.216,74.516 -7.897,12.74 -14.301,26.262 -20.642,39.803 -3.045,6.504 -5.382,13.339 -8.463,19.824 -7.967,16.766 -10.62,35.202 -16.748,52.547 -1.502,4.251 -2.212,8.936 -2.425,13.462 -1.228,26.143 -2.498,52.29 -3.144,78.451 -0.401,16.238 2.633,32.264 8.387,47.33 10.817,28.319 24.638,55.136 44.036,78.756 22.383,27.253 51.407,37.657 85.874,33.282 9.01,-1.143 16.164,-7.095 23.096,-12.818 25.968,-21.437 31.578,-50.149 29.234,-81.677 -0.188,-2.527 -0.804,-5.24 -2.004,-7.441 -9.144,-16.77 -20.421,-31.064 -39.848,-37.172 -11.195,-3.52 -21.992,-4.12 -32.938,-0.19 -7.73,2.775 -11.829,9.065 -13.481,16.663 -1.522,7.002 -2.104,14.192 -2.222,21.419 -0.187,11.509 5.219,19.693 14.441,25.83 2.154,1.434 4.428,2.696 6.524,4.206 1.669,1.203 3.082,2.752 2.399,5.08 -0.62,2.113 -2.215,3.385 -4.291,3.844 -6.246,1.381 -12.135,0.426 -17.07,-3.749 -11.684,-9.887 -19.369,-21.928 -19.346,-37.83 0.011,-7.504 1.215,-14.898 2.348,-22.288 1.701,-11.103 7.487,-19.858 16.28,-26.517 2.838,-2.149 3.461,-3.939 2.306,-7.165 -8.42,-23.501 -4.172,-46.529 3.167,-69.281 4.507,-13.974 10.86,-27.251 16.82,-40.651 5.286,-11.885 11.879,-23.001 21.432,-32.086 3.629,-4.03 7.44,-7.9 10.301,-12.572 4.582,-7.481 11.501,-11.05 20.087,-11.343 9.75,-0.332 19.509,-0.166 29.264,-0.068 8.166,0.081 13.968,4.327 18.815,10.489 17.683,22.479 26.453,47.854 26.039,76.575 -0.208,14.385 -0.261,28.663 -4.488,42.607 -1.339,4.416 -0.779,9.122 -0.795,13.708 -0.062,18.351 -0.794,19.214 -18.507,21.58 -9.267,0.65 -18.407,0.464 -26.959,-3.887 -2.349,-1.196 -4.917,-1.575 -7.521,-1.702 -12.217,-0.598 -23.71,-4.157 -35.034,-8.469 -3.296,-1.255 -6.022,-3.194 -8.581,-5.606 -8.13,-7.664 -17.732,-13.236 -28.414,-20.177 0,5.81 -0.417,10.341 0.091,14.766 0.923,8.028 1.423,16.043 0.929,24.097 -0.233,3.811 1.204,4.999 5.009,4.691 16.253,-1.312 31.182,3.863 45.987,9.666 7.892,3.092 13.159,9.092 17.972,15.602 2.215,2.996 3.66,6.589 6.011,9.453 10.771,13.12 13.005,28.237 11.79,44.62 -1.382,18.641 -4.925,37.056 -14.437,52.843 -12.859,21.342 -30.891,37.107 -57.849,38.248 -2.218,0.093 -4.588,-0.354 -7.299,1.514 4.386,5.875 8.283,12.14 13.201,17.462 9.711,10.509 14.947,23.836 23.179,35.247 2.512,3.482 4.193,7.566 6.716,11.038 9.23,12.702 13.645,27.79 20.771,41.534 3.697,7.13 6.737,14.625 10.885,21.533 3.603,5.999 5.924,12.403 7.3,19.245 2.325,11.556 5.36,22.995 7.123,34.63 1.627,10.731 2.091,21.572 1.298,32.561 -0.927,12.864 -3.084,25.613 -2.79,38.621 0.591,26.164 0.355,52.346 0.739,78.516 0.233,15.828 0.534,31.626 -1.412,47.389 -0.886,7.169 0.018,14.347 0.492,21.526 2.237,33.874 6.173,67.576 10.75,101.188 3.235,23.752 10.565,46.508 19.613,68.659 4.455,10.907 9.727,21.478 14.296,32.341 6.76,16.072 17.372,29.763 26.901,44.112 3.318,4.996 5.913,10.511 10.152,14.883 4.431,-6.069 2.137,-12.816 1.528,-19.187 -2.421,-25.349 5.326,-32.195 30.123,-26.822 10.397,2.253 19.838,5.721 27.193,13.754 3.527,3.853 8.191,4.748 13.269,5.179 15.179,1.288 30.406,1.935 45.566,3.441 18.02,1.791 21.811,5.169 24.207,22.959 1.188,8.815 2.394,17.655 2.637,26.594 0.316,11.636 3.819,15.836 15.113,18.737 3.065,0.787 6.186,1.335 9.312,1.829 6.772,1.071 10.744,-2.364 13.664,-8.062 8.097,-15.798 12.751,-18.04 30.234,-15.086 4.821,0.815 9.56,2.157 14.443,2.534 5.592,0.432 9.781,-1.955 10.948,-7.543 1.238,-5.933 2.055,-12.364 -3.327,-16.85 -3.396,-2.83 -7.084,-0.284 -10.484,1.238 -14.352,6.426 -29.304,7.496 -44.639,4.864 -3.447,-0.592 -6.583,-1.975 -9.326,-4.231 -12.568,-10.334 -15.173,-42.292 -3.651,-53.482 6.85,-6.653 8.586,-13.275 6.083,-22.401 -2.888,-10.533 -4.285,-21.422 -1.436,-32.414 2.409,-9.294 7.841,-14.8 17.365,-15.168 16.576,-0.642 33.602,-2.837 47.197,10.64 3.495,3.464 8.503,2.975 13.167,2.328 15.375,-2.133 30.864,-3.517 46.026,-7.055 3.376,-0.788 6.821,-1.038 10.287,-0.964 9.558,0.204 13.615,3.573 14.833,13.196 1.518,11.99 3.524,23.901 5.216,35.859 0.924,6.528 2.761,11.676 10.289,12.828 11.395,1.744 19.683,-1.174 23.386,-8.573 0.646,-1.289 1.165,-2.643 1.476,-4.047 1.903,-8.582 4.145,-17.251 13.008,-21.215 11.621,-5.197 23.76,-8.88 36.771,-7.052 5.819,0.817 8.634,4.939 10.374,10.287 3.104,9.541 0.421,18.901 -0.859,28.189 -1.086,7.883 -0.807,14.86 5.045,20.82 0.793,0.807 -0.106,-0.283 0.514,0.688 9.963,15.604 -1.04,50.004 -18.376,56.216 -12.171,4.361 -24.553,8.378 -37.835,3.98 -4.491,-1.487 -8.989,-0.161 -13.465,1.416 -28.948,10.2 -58.618,16.424 -89.503,15.498 -2.313,-0.069 -4.632,-0.239 -6.836,0.543 -4.421,1.569 -7.865,4.201 -6.953,9.443 0.895,5.149 4.881,5.327 9.29,5.299 20.953,-0.132 41.892,0.638 62.777,2.294 6.7,0.531 12.537,-0.521 17.612,-5.067 11.559,-10.356 26.183,-12.903 40.666,-14.874 10.731,-1.461 16.521,4.657 17.068,15.669 0.344,6.931 -0.323,13.772 -1.541,20.603 C -2.692,-4.878 -3.395,-1.747 0,0" /></g><g
           transform="translate(422.9952,627.3684)"
           id="g28"><path
             id="path30"
             style="fill:#46aae5;fill-opacity:1;fill-rule:nonzero;stroke:none"
             d="m 0,0 c -22.848,-0.732 -45.406,0.76 -67.256,8.28 -4.332,1.491 -8.878,2.397 -13.366,3.389 -9.858,2.181 -19.372,4.764 -27.907,10.823 -5.287,3.754 -12.035,5.383 -17.904,8.399 -12.644,6.499 -23.154,16.012 -34.116,24.858 -6.264,5.055 -12.339,10.33 -19.033,14.853 -5.029,3.398 -9.362,7.688 -13.164,12.396 -18.776,23.246 -39.06,45.321 -53.899,71.586 -9.506,16.825 -18.138,34.061 -25.101,52.025 -7.016,18.1 -6.71,37.341 -5.422,56.3 1.944,28.59 8.069,56.344 19.656,82.724 1.272,2.897 2.606,5.793 3.558,8.801 6.95,21.938 21.864,38.348 38.114,53.506 6.854,6.394 15.538,10.83 23.416,16.117 0.698,0.469 1.567,0.844 2.393,0.935 19.511,2.15 39.161,4.777 57.008,-6.626 9.008,-5.755 13.334,-14.893 15.405,-24.988 1.44,-7.024 1.967,-14.232 2.963,-21.349 1.953,-13.944 -5.667,-23.469 -14.866,-32.252 -0.578,-0.552 -1.57,-1.132 -2.267,-1.027 -6.742,1.022 -14.182,-0.004 -20.019,3.785 -7.172,4.654 -15.346,8.082 -20.911,15.033 -0.524,0.653 -1.32,1.109 -2.038,1.583 -4.361,2.877 -9.074,3.454 -11.145,1.023 -3.028,-3.553 -1.285,-6.968 0.823,-10.259 0.444,-0.693 0.722,-1.494 1.325,-2.773 -6.785,-3.178 -9.346,-9.555 -12.172,-15.861 -11.587,-25.857 -10.352,-52.526 -5.293,-79.466 0.211,-1.127 0.338,-2.356 0.885,-3.322 10.362,-18.29 16.875,-38.451 27.516,-56.597 7.173,-12.232 18.492,-20.489 29.239,-29.006 16.824,-13.334 35.958,-22.646 56.537,-28.909 9.175,-2.793 18.656,-3.409 28.121,-3.999 18.977,-1.184 37.97,-0.738 56.959,-0.208 3.53,1.425 4.75,-0.477 4.959,-3.565 0.139,-2.052 -0.482,-4.062 -1.531,-5.755 C -13.589,96.164 -10.606,69.902 -7.004,43.577 -5.446,32.194 -2.74,21.048 0.035,9.913 0.842,6.675 2.369,3.289 0,0" /></g><g
           transform="translate(1633.6462,768.8016)"
           id="g32"><path
             id="path34"
             style="fill:#46aae5;fill-opacity:1;fill-rule:nonzero;stroke:none"
             d="m 0,0 c 6.03,0.376 12.059,0.763 18.089,1.125 35.18,2.112 63.959,18.333 90.708,39.955 16.599,13.418 26.181,30.98 33.835,50.082 2.684,6.698 5.783,13.191 9.258,19.459 6.324,11.402 8.719,23.6 8.646,36.448 -0.03,5.18 -0.509,10.398 -0.046,15.532 1.519,16.847 -5.326,31.469 -11.773,46.227 -0.569,1.303 -1.187,2.859 -2.262,3.62 -4.789,3.393 -6.978,6.616 -3.558,12.909 2.463,4.532 -1.796,8.118 -7.21,6.922 -3.204,-0.707 -5.937,-2.364 -7.993,-4.841 -5.687,-6.854 -13.771,-10.512 -21.168,-14.61 -5.18,-2.87 -12.2,-2.477 -18.428,-3.33 -0.915,-0.125 -2.176,0.729 -2.966,1.464 -9.651,8.981 -16.652,19.092 -14.318,33.29 1.025,6.238 1.389,12.594 2.594,18.791 4.241,21.816 16.488,31.301 39.57,34.161 9.316,1.154 18.954,-0.217 28.441,-0.568 2.579,-0.096 5.257,-0.494 7.431,-1.997 12.267,-8.484 25.217,-15.965 35.058,-27.698 11.162,-13.307 20.397,-27.34 27.117,-43.641 10.071,-24.428 17.058,-49.464 20.906,-75.451 2.498,-16.874 1.936,-33.886 0.447,-50.815 -0.81,-9.198 -3.468,-18.028 -7.265,-26.526 -9.873,-22.095 -20.63,-43.727 -34.207,-63.801 -5.629,-8.323 -11.973,-16.18 -18.263,-24.031 -7.911,-9.875 -16.074,-19.549 -24.182,-29.264 -3.328,-3.989 -7.021,-7.671 -11.268,-10.652 -12.5,-8.772 -23.788,-19.056 -35.808,-28.421 -9.804,-7.639 -20.161,-14.328 -31.97,-18.522 -1.619,-0.575 -3.393,-1.101 -4.684,-2.154 -8.843,-7.214 -19.634,-9.227 -30.294,-11.668 -14.817,-3.393 -29.055,-9.405 -44.526,-9.846 -16.315,-1.684 -16.73,-1.347 -16.773,14.471 -0.037,13.77 -0.3,27.549 0.057,41.31 0.632,24.391 -0.757,48.517 -7.647,72.087 2.251,-0.005 4.501,-0.009 6.752,-0.014 C -18.467,-1.097 -9.233,-1.09 0,0" /></g><g
           transform="translate(1162.1084,1629.0253)"
           id="g36"><path
             id="path38"
             style="fill:#5ecbee;fill-opacity:1;fill-rule:nonzero;stroke:none"
             d="m 0,0 c -1.767,-3.116 -0.429,-6.444 0.349,-9.201 2.01,-7.127 1.424,-14.276 1.341,-21.409 -0.107,-9.282 -6.54,-15.641 -15.73,-15.941 -3.702,-0.121 -7.364,-0.139 -11.067,1.102 -5.961,1.997 -12.154,3.291 -18.213,5.009 -6.16,1.747 -11.86,4.331 -16.19,9.329 -3.677,4.243 -8.553,6.33 -13.921,5.108 -12.26,-2.789 -24.621,-1.16 -36.927,-1.509 -4.072,-0.115 -7.942,-1.319 -11.876,-1.561 -5.959,-0.367 -12.066,-1.213 -17.969,0.779 -2.917,0.985 -5.215,0.316 -6.178,-2.745 -0.869,-2.762 0.014,-5.087 2.6,-6.633 2.822,-1.688 5.79,-2.296 9.092,-1.764 10.722,1.729 21.473,0.4 32.011,-1.035 13.795,-1.88 27.418,-5.092 41.058,-7.995 4.466,-0.951 9.27,-1.914 13.021,-4.29 7.824,-4.958 15.822,-4.796 23.918,-2.14 5.883,1.93 11.217,1.29 16.774,-0.728 6.971,-2.531 14.469,-3.256 21.176,-6.914 5.38,-2.933 9.324,-6.822 11.229,-12.475 3.201,-9.494 5.417,-19.259 6.591,-29.221 0.86,-7.294 -1.407,-13.722 -6.618,-18.817 -2.964,-2.898 -4.543,-6.162 -3.615,-10.014 1.486,-6.17 0.883,-12.602 2.509,-18.665 1.973,-7.359 0.387,-14.259 -1.95,-21.051 -1.866,-5.424 -6.222,-7.969 -11.867,-8.534 -13.531,-1.353 -26.117,2.389 -38.211,7.691 -8.026,3.519 -11.149,11.082 -12.754,19.248 -0.944,4.797 -1.487,9.849 -6.419,12.489 -6.486,3.471 -13.445,2.403 -20.2,1.278 -2.53,-0.422 -4.246,-2.98 -4.369,-5.848 -0.587,-13.741 -4.464,-27.015 -5.493,-40.742 -0.836,-11.154 -6.884,-15.186 -16.099,-15.021 -9.604,0.172 -18.601,3.13 -27.95,4.293 -7.075,0.881 -14.126,1.963 -21.21,2.766 -2.558,0.289 -5.085,0.332 -7.634,1.053 -5.863,1.659 -10.809,0.746 -15.644,-3.929 -6.787,-6.561 -15.273,-9.901 -25.119,-9.236 -6.016,0.407 -12.082,0.042 -18.125,0.085 -12.737,0.091 -18.876,5.895 -22.019,18.239 -3.284,12.892 -0.304,25.099 2.615,37.253 1.284,5.345 0.554,8.774 -3.367,12.116 -2.183,1.861 -4.014,4.13 -6.152,6.05 -3.693,3.314 -5.278,7.691 -5.347,12.322 -0.176,11.801 1.168,23.44 5.785,34.466 1.846,4.41 5.235,8.187 9.244,9.864 7.607,3.183 15.76,5.472 24.24,3.776 2.249,-0.45 4.426,-1.245 6.752,-1.098 9.206,0.581 17.465,-2.024 25.286,-6.82 4.799,-2.943 7.394,-1.535 8.403,4.025 0.355,1.957 0.215,4.016 0.196,6.028 -0.09,9.386 -3.038,11.603 -12.337,9.632 -6.98,-1.479 -13.974,-2.976 -21.03,-3.991 -7.085,-1.02 -17.197,5.6 -20.733,13.119 -0.727,1.547 -1.069,3.271 -1.727,4.856 -2.972,7.146 -5.678,8.501 -13.401,6.742 -4.178,-0.952 -8.4,-1.768 -12.5,-2.989 -5.326,-1.585 -8.062,-5.484 -7.996,-10.962 0.149,-12.363 -1.912,-24.489 -3.471,-36.68 -1.396,-10.916 -4.899,-14.701 -15.579,-17.607 -8.924,-2.427 -18.155,-2.653 -27.136,-2.989 -10.328,-0.386 -20.502,-2.727 -30.844,-2.06 -3.829,0.247 -6.622,-1.246 -9.044,-4.001 -12.801,-14.562 -30.109,-16.558 -47.858,-16.594 -5.321,-0.01 -9.942,3.216 -11.898,8.481 -2.094,5.637 -3.749,11.616 -2.59,17.684 1.515,7.936 1.619,15.895 1.524,23.899 3.302,6.347 6.444,12.802 11.994,17.617 5.823,2.442 12.067,3.435 18.156,4.736 7.218,1.541 11.38,4.84 10.987,12.636 -0.144,2.86 0.931,5.626 0.926,8.493 8.716,7.753 18.103,14.539 28.54,19.814 4.384,-5.093 2.163,-10.852 1.642,-16.431 -0.682,-7.317 0.988,-9.179 8.174,-7.295 27.242,7.144 54.857,12.332 82.702,16.366 5.867,0.85 7.181,4.985 7.966,9.715 2.035,12.271 0.149,24.679 1.244,36.971 0.374,4.207 -0.362,7.934 -2.304,11.551 6.945,3.324 13.996,6.297 21.852,6.604 4.235,-6.672 6.294,-14.124 7.159,-21.838 0.802,-7.139 4.57,-9.064 11.213,-8.218 10.283,1.308 20.335,3.478 30.213,6.573 2.257,0.707 5.044,1.406 5.056,3.969 0.029,6.644 0.347,13.544 -5.113,19.753 -2.723,-4.582 -1.056,-8.494 -0.563,-12.224 0.751,-5.675 -1.173,-9.038 -7.143,-9.173 -6.071,-0.138 -11.979,-1.154 -17.852,-2.588 -5.905,-1.442 -9.066,1.189 -10.829,6.812 -5.004,15.958 -4.892,16.291 11.491,19.348 0.895,0.167 2.422,-0.43 2.115,1.491 8.15,1.978 16.515,1.897 24.799,2.482 44.309,3.128 86.356,-5.981 126.761,-23.744 9.243,-4.064 17.674,-9.631 26.492,-14.48 C -2.869,3.349 -1.933,1.188 0,0" /></g><g
           transform="translate(525.9899,1207.2679)"
           id="g40"><path
             id="path42"
             style="fill:#f7cf44;fill-opacity:1;fill-rule:nonzero;stroke:none"
             d="m 0,0 c 8.49,15.019 16.575,29.205 24.514,43.472 1.456,2.615 3.257,3.622 6.216,3.489 3.956,-0.178 7.237,-1.781 10.215,-4.116 2.257,-1.77 2.894,-3.896 1.577,-6.818 C 37.821,25.6 39.525,15.076 43.429,5.015 c 4.648,-11.976 15.377,-17.288 26.508,-21.544 3.216,-1.229 6.968,-0.329 10.147,1.026 5.822,2.482 11.869,5.512 15.536,10.458 12.291,16.579 20.691,34.583 15.686,56.143 -2.782,11.983 -4.416,24.202 -10.691,35.259 -7.518,13.245 -18.025,22.792 -31.732,29.073 -0.763,0.35 -1.416,0.937 -2.409,1.61 9.047,16.057 17.921,32.138 27.102,48.043 27.707,48.002 54.978,96.261 83.741,143.646 12.807,21.098 25.813,42.067 39.731,62.475 3.871,5.675 8.65,6.957 14.616,6.922 1.416,-0.008 3.009,0.085 3.703,-1.53 0.646,-1.502 -0.121,-2.802 -1.089,-3.888 -8.639,-9.691 -15.592,-20.635 -23.1,-31.16 -10.84,-15.198 -22.79,-29.566 -31.788,-46.12 -17.995,-33.11 -31.827,-67.761 -37.899,-104.965 -4.487,-27.488 -7.605,-55.234 -9.746,-83.047 -0.64,-8.309 -0.93,-16.659 -1.918,-24.926 -1.789,-14.983 -0.651,-29.899 0.775,-44.771 2.475,-25.802 2.5,-51.697 3.534,-77.553 0.38,-9.493 0.553,-18.966 3.494,-28.146 0.598,-1.863 0.698,-3.97 0.628,-5.95 -0.671,-18.95 -1.409,-37.897 -2.184,-56.842 -0.082,-2.003 -0.601,-3.984 -0.785,-5.987 -0.304,-3.29 -1.835,-4.072 -5.186,-3.808 -9.267,0.731 -17.198,5.126 -24.628,9.732 -10.22,6.336 -19.89,13.596 -30.372,19.576 -3.551,2.026 -5.431,4.603 -4.851,9.059 0.639,4.911 -0.736,9.669 -2.431,14.326 -2.85,7.829 -5.752,15.642 -7.702,23.776 -0.593,2.476 -1.499,5.062 -2.945,7.117 -9.92,14.098 -19.034,28.78 -30.281,41.926 -5.682,6.641 -13.44,9.64 -21.245,12.642 C 4.052,-1.799 2.499,-1.072 0,0" /></g><g
           transform="translate(1247.8115,1585.1163)"
           id="g44"><path
             id="path46"
             style="fill:#f7cf44;fill-opacity:1;fill-rule:nonzero;stroke:none"
             d="m 0,0 c 9.866,2.859 12.815,1.813 17.611,-6.493 55.942,-96.885 111.871,-193.778 167.785,-290.679 0.556,-0.964 0.859,-2.075 1.59,-3.886 -13.2,-2.24 -21.992,-10.842 -30.669,-19.647 -2.242,-2.274 -4.311,-4.677 -5.744,-7.507 -8.565,-16.915 -14.716,-34.216 -10.817,-53.787 1.689,-8.477 3.452,-16.768 6.52,-24.921 4.155,-11.04 11.766,-19.141 20.689,-25.943 6.945,-5.294 15.409,-7.539 24.379,-6.625 1.13,0.115 2.427,0.139 3.33,0.707 12.75,8.031 25.475,15.942 25.547,33.793 0.036,8.969 0.074,17.728 -3.302,26.285 -2.998,7.598 -1.017,12.823 5.819,16.589 11.299,-19.627 22.604,-39.265 34.098,-59.23 -5.619,-3.666 -10.975,-7.146 -16.991,-8.785 -15.538,-4.233 -26.813,-13.836 -35.815,-26.693 -4.435,-6.334 -9.006,-12.574 -13.28,-18.528 -3.259,-0.007 -3.844,2.172 -4.867,3.765 -1.086,1.691 -2.055,3.467 -2.95,5.268 -5.706,11.494 -14.451,19.245 -26.037,25.221 -13.093,6.752 -26.236,7.829 -40.091,5.582 -14.424,-2.339 -14.663,-2.541 -13.803,12.161 0.704,12.037 2.133,24.032 3.294,36.041 1.414,14.62 0.587,29.31 0.499,43.916 -0.174,28.729 0.684,57.645 -3.067,86.149 -4.91,37.316 -11.52,74.353 -24.665,109.983 C 66.094,-112.109 50.777,-78.117 32.684,-45.339 25.002,-31.422 15.411,-18.878 5.111,-6.838 3.259,-4.672 0.873,-2.899 0,0" /></g><g
           transform="translate(1353.9955,690.1379)"
           id="g48"><path
             id="path50"
             style="fill:#ffffff;fill-opacity:1;fill-rule:nonzero;stroke:none"
             d="m 0,0 c 8.421,0.276 16.973,-2.119 25.331,-5.329 6.582,-2.528 10.933,-8.25 16.725,-11.982 11.08,-7.137 21.066,-15.973 33.103,-21.617 4.043,-1.896 4.445,-4.06 2.873,-8.143 -5.271,-13.697 -10.542,-27.397 -19.799,-38.98 -7.86,-9.834 -17.018,-17.93 -30.646,-18.444 -2.572,-0.097 -5.121,-0.715 -7.695,-0.92 -4.922,-0.392 -8.896,1.504 -12.283,5.058 -13.524,14.19 -20.4,30.84 -19.827,50.643 0.408,14.077 -0.29,28.177 0.668,42.257 0.513,7.547 0.389,7.554 8.296,7.458 C -2.391,-0.009 -1.528,0 0,0" /></g><g
           transform="translate(684.1354,662.5529)"
           id="g52"><path
             id="path54"
             style="fill:#ffffff;fill-opacity:1;fill-rule:nonzero;stroke:none"
             d="m 0,0 c 0.137,-15.749 -3.255,-30.949 -9.221,-45.301 -5.684,-13.676 -17.235,-21.272 -31.619,-23.83 -7.021,-1.249 -14.309,-1.23 -21.483,-1.325 -7.987,-0.105 -13.58,4.97 -17.728,10.768 -7.368,10.301 -12.613,21.826 -16.478,33.945 -0.885,2.775 0.141,4.078 2.357,5.562 13.338,8.933 26.739,17.752 39.211,27.952 5.881,4.81 13.781,5.837 21.076,6.872 9.344,1.326 18.884,1.223 28.329,1.895 4.029,0.286 5.842,-1.156 5.601,-5.332 C -0.169,7.482 0,3.736 0,0" /></g><g
           transform="translate(640.5385,1048.7113)"
           id="g56"><path
             id="path58"
             style="fill:#2f75a9;fill-opacity:1;fill-rule:nonzero;stroke:none"
             d="m 0,0 c 3.676,-0.593 7.35,-1.195 11.028,-1.775 2.782,-0.439 3.173,-1.538 2.964,-4.636 -1.07,-15.845 -8.663,-29.009 -16.535,-42.033 -7.42,-12.276 -15.304,-24.273 -23.056,-36.346 -3.742,-5.829 -5.283,-12.774 -9.481,-18.361 -1.176,-1.566 -1.759,-3.628 -4.089,-4.677 -3.969,4.601 -6.512,10.091 -9.448,15.289 -8.756,15.501 -16.674,31.522 -26.181,46.541 -9.382,14.823 -17.829,30.15 -26.736,45.226 -1.449,2.453 -2.527,5.125 -3.777,7.695 2.763,3.751 6,2.115 9.23,0.836 8.358,-3.308 15.522,-8.64 22.628,-13.908 9.95,-7.378 20.974,-12.856 31.588,-19.069 6.839,-4.002 13.238,-3.115 19.124,1.637 5.944,4.8 12.659,8.886 15.486,16.742 C -6.085,-3.587 -3.608,-1.017 0,0" /></g><g
           transform="translate(1599.1941,768.8184)"
           id="g60"><path
             id="path62"
             style="fill:#2f75a9;fill-opacity:1;fill-rule:nonzero;stroke:none"
             d="m 0,0 c 5.385,-5.4 7.774,-11.822 6.867,-19.477 -0.198,-1.668 -0.193,-3.565 0.403,-5.089 3.656,-9.353 3.115,-19.114 3.09,-28.83 -0.055,-21.496 -0.124,-42.991 -0.219,-64.487 -0.044,-10.192 -0.207,-9.727 9.104,-9.581 1.703,0.027 3.412,-0.26 5.118,-0.403 -12.727,-1.458 -25.367,-4.128 -38.311,-2.411 -3.39,0.449 -6.866,0.622 -10.278,0.449 -4.586,-0.231 -5.909,1.81 -5.816,6.136 0.321,14.907 0.808,29.78 1.876,44.676 2.054,28.637 -1.576,56.607 -13.473,84.514 C -27.187,3.911 -13.525,2.607 0,0" /></g><g
           transform="translate(640.5385,1048.7113)"
           id="g64"><path
             id="path66"
             style="fill:#46aae5;fill-opacity:1;fill-rule:nonzero;stroke:none"
             d="m 0,0 c -3.588,-4.458 -5.885,-9.836 -9.212,-14.314 -5.541,-7.459 -13.2,-13.183 -22.096,-16.069 -3.317,-1.077 -7.631,1.033 -11.263,2.99 -14.094,7.594 -27.728,15.893 -40.629,25.384 -4.611,3.392 -9.638,5.986 -14.814,8.463 -2.734,1.308 -4.838,0.881 -7.297,0.47 -6.984,11.888 -13.871,23.834 -21.009,35.629 -2.153,3.557 -0.681,5.24 2.336,6.618 1.03,0.47 2.149,0.959 3.252,1.024 21.791,1.28 43.105,0.653 61.736,-13.252 11.954,-8.922 24.955,-16.327 36.901,-25.348 C -15.546,6.65 -7.417,3.797 0,0" /></g><g
           transform="translate(690.536,708.4556)"
           id="g68"><path
             id="path70"
             style="fill:#2f75a9;fill-opacity:1;fill-rule:nonzero;stroke:none"
             d="m 0,0 c 1.694,0.281 3.406,0.48 5.078,0.857 8.4,1.892 15.616,-2.301 15.458,-10.895 -0.289,-15.65 3.659,-30.645 5.093,-45.951 1.955,-20.857 1.041,-41.927 -4.983,-62.284 -4.814,-16.267 -15.026,-29.511 -25.401,-42.544 -1.196,-1.502 -3.151,-2.426 -4.815,-3.524 -3.445,-2.273 -7.152,-3.332 -11.385,-3.226 -9.488,0.239 -18.986,0.062 -28.478,0.171 -10.933,0.127 -19.335,4.471 -24.384,14.609 -2.028,4.072 -4.584,7.881 -6.899,11.811 0.771,-0.361 1.73,-0.539 2.286,-1.109 10.26,-10.508 23.743,-10.113 36.857,-10.906 0.688,-0.042 1.422,0.69 3.309,1.676 -10.96,2.023 -19.842,6.09 -27.523,12.835 5.002,0 10.012,0.186 15.004,-0.039 10.1,-0.455 18.486,2.837 25.43,10.305 5.474,5.888 11.427,11.329 17.066,17.067 12.583,12.802 17.357,28.739 18.255,46.166 0.593,11.515 -1,22.947 -1.483,34.421 -0.263,6.254 -1.168,12.524 -0.886,18.745 C 7.876,-5.701 5.64,-1.944 0,0" /></g><g
           transform="translate(1491.9836,1081.5583)"
           id="g72"><path
             id="path74"
             style="fill:#2f75a9;fill-opacity:1;fill-rule:nonzero;stroke:none"
             d="m 0,0 c -9.098,-18.21 -19.868,-35.485 -29.727,-53.268 -10.694,-19.288 -22.284,-38.062 -32.196,-57.812 -4.191,-8.35 -10.171,-15.857 -15.374,-25.445 -4.265,7.319 -8.396,13.643 -11.718,20.367 -2.413,4.887 -5.295,9.571 -7.439,14.514 -6.396,14.747 -15.073,28.172 -23.161,41.947 -0.58,0.988 -1.087,2.02 -1.615,3.038 -2.278,4.388 -1.038,8.824 1.447,12.204 2.213,3.011 6.324,1.534 9.647,0.864 1.093,-0.221 2.093,-0.908 3.135,-1.382 4.755,-2.945 7.433,-10.14 13.954,-9.066 12.768,2.103 26.129,-0.659 38.248,7.704 10.691,7.378 19.236,16.031 26.548,26.486 5.508,7.875 13.588,13.168 21.21,18.805 C -5.047,0.431 -2.699,2.089 0,0" /></g><g
           transform="translate(1422.6984,584.5338)"
           id="g76"><path
             id="path78"
             style="fill:#2f75a9;fill-opacity:1;fill-rule:nonzero;stroke:none"
             d="m 0,0 c -5.773,-17.164 -13.15,-33.438 -25.068,-47.399 -6.305,-7.385 -14.193,-9.285 -23.206,-7.752 -2.806,0.477 -5.54,1.62 -8.43,1.298 -12.982,-1.447 -22.306,5.826 -31.406,13.317 -12.138,9.992 -17.473,23.76 -20.394,38.664 -2.908,14.838 -4.583,29.896 -8.184,44.625 -0.93,3.803 -1.02,8.15 -0.207,11.973 1.879,8.839 1.188,17.707 1.288,26.563 0.12,10.668 2.752,20.904 4.636,31.293 1.497,8.257 6.523,13.658 12.872,18.311 -3.428,-15.441 -4.782,-31.173 -6.063,-46.872 -1.379,-16.906 -2.26,-33.834 4.1,-50.241 4.829,-12.458 11.806,-23.689 19.523,-34.365 3.941,-5.451 9.715,-9.708 15.094,-13.954 6.714,-5.299 14.413,-6.851 22.712,-3.911 2.739,0.971 5.494,0.989 9.385,0.062 -8.985,-5.078 -17.188,-9.338 -26.878,-7.925 -0.634,-2.074 0.239,-2.893 1.36,-2.961 11.019,-0.664 22.135,0.35 32.233,4.259 8.778,3.399 15.527,10.669 21.417,18.27 C -3.476,-4.499 -2.573,-1.598 0,0" /></g><g
           transform="translate(422.9952,627.3684)"
           id="g80"><path
             id="path82"
             style="fill:#2f75a9;fill-opacity:1;fill-rule:nonzero;stroke:none"
             d="m 0,0 c -5.42,19.574 -10.167,39.378 -11.619,59.617 -1.476,20.579 -2.359,41.456 10.037,59.92 1.261,1.877 2.124,4.084 2.84,6.248 0.907,2.741 -1.227,3.39 -3.219,3.988 3.658,1.611 7.256,3.198 11.461,2.996 4.422,-0.211 8.262,2.123 12.299,3.535 1.887,0.66 3.688,1.68 5.623,2.07 4.266,0.859 6.026,-0.904 4.721,-5.116 -2.724,-8.789 -4.198,-17.832 -6.027,-26.807 -3.475,-17.048 -2.637,-34.287 -1.414,-51.404 0.88,-12.313 1.119,-24.602 1.404,-36.913 0.093,-4.009 0.244,-8.02 0.52,-12.02 0.435,-6.309 0.485,-6.593 -5.433,-6.512 C 14.131,-0.303 7.035,-1.443 0,0" /></g><g
           transform="translate(1491.9836,1081.5583)"
           id="g84"><path
             id="path86"
             style="fill:#46aae5;fill-opacity:1;fill-rule:nonzero;stroke:none"
             d="m 0,0 c -11.045,-5.556 -20.588,-12.924 -27.946,-22.979 -3.705,-5.062 -7.52,-10.044 -11.304,-15.049 -1.6,-2.115 -3.854,-3.352 -6.156,-4.546 -2.277,-1.182 -5.018,-2.009 -6.643,-3.814 -7.059,-7.838 -16.514,-8.147 -25.886,-8.85 -3.416,-0.256 -6.909,0.108 -10.267,-0.433 -10.39,-1.675 -14.217,0.385 -18.799,10.698 14.426,-1.83 26.171,5.139 37.966,11.739 4.842,2.709 8.526,6.844 11.336,11.611 6.698,11.361 13.251,22.807 19.895,34.199 5.662,9.708 12.45,18.667 19.435,27.4 5.041,6.302 11.597,10.916 19.869,12.919 7.85,1.901 14.457,6.775 21.36,10.682 8.2,-10.166 8.108,-10.306 1.704,-21.181 C 16.277,28.322 8.179,14.137 0,0" /></g><g
           transform="translate(1434.6571,1160.6466)"
           id="g88"><path
             id="path90"
             style="fill:#46aae5;fill-opacity:1;fill-rule:nonzero;stroke:none"
             d="m 0,0 c -14.274,-1.395 -19.978,8.918 -25.123,18.081 -7.483,13.327 -9.701,28.696 -7.835,43.545 2.062,16.399 8.521,31.57 22.653,42.134 4.864,3.636 10.657,4.082 16.094,5.787 1.925,0.604 3.387,-0.386 4.322,-1.993 5.642,-9.694 11.209,-19.432 16.872,-29.114 1.346,-2.302 0.48,-3.936 -1.4,-5.074 C 21.172,70.697 18.108,67.172 17.242,61.935 16.808,59.309 14.73,59.246 12.628,59.16 2.135,58.73 -5.452,52.714 -12.603,45.907 c -1.78,-1.694 -3.041,-3.704 -1.379,-6.067 1.819,-2.585 4.43,-2.468 6.914,-1.128 2.011,1.086 4,2.346 5.686,3.874 4.119,3.732 9.053,3.053 13.914,2.947 2.223,-0.048 3.757,-1.259 4.914,-3.031 C 22.247,35.145 26.437,23.854 17.277,13.06 15.801,11.321 14.026,9.567 13.307,7.5 10.885,0.535 6.329,-1.917 0,0" /></g><g
           transform="translate(560.6283,1268.8212)"
           id="g92"><path
             id="path94"
             style="fill:#46aae5;fill-opacity:1;fill-rule:nonzero;stroke:none"
             d="m 0,0 c 8.154,14.421 15.79,27.873 23.368,41.358 2.052,3.652 4.446,3.886 7.583,1.3 2.681,-2.209 5.051,-4.661 7.124,-7.44 4.804,-6.438 9.26,-13.165 15.513,-18.399 1.064,-0.891 1.937,-2.152 2.558,-3.41 7.452,-15.099 10.787,-31.355 7.656,-47.659 -2.22,-11.564 -7.014,-23.226 -19.13,-29.242 -1.892,-0.94 -3.573,-1.597 -5.689,-1.134 -10.53,2.302 -21.848,19.743 -19.355,30.087 0.95,3.945 3.787,6.501 7.55,7.543 3.742,1.036 6.672,-0.981 8.928,-3.824 0.873,-1.1 1.258,-2.573 2.008,-3.788 1.347,-2.18 3.391,-3.088 5.89,-2.599 2.89,0.566 4.307,2.519 4.756,5.375 0.955,6.085 -2.102,12.585 -7.796,14.977 -3.93,1.651 -8.347,3.699 -12.328,3.314 -6.594,-0.638 -10.73,2.35 -14.864,6.423 C 10.218,-3.619 5.606,-1.914 0,0" /></g><g
           transform="translate(1354.0514,1085.1946)"
           id="g96"><path
             id="path98"
             style="fill:#46aae5;fill-opacity:1;fill-rule:nonzero;stroke:none"
             d="m 0,0 c -0.169,0.998 -0.338,1.995 -0.506,2.993 -1.461,2.818 -2.878,26.024 -3.13,34.596 -0.068,2.333 0.845,3.684 3.189,4.312 10.249,2.745 20.42,5.495 31.2,5.786 7.54,0.203 13.65,-2.353 18.527,-7.454 C 59.132,29.926 66.026,17.779 69.917,3.991 70.393,2.305 71.05,0.524 70.08,-1.016 64.997,-9.083 62.59,-19.362 51.921,-22.865 c -2.419,-0.794 -4.607,-2.292 -6.902,-3.466 -5.421,-1.533 -5.384,2.584 -5.954,5.875 C 35.927,-2.334 28.188,3.217 10.023,0.354 6.707,-0.169 3.403,-1.702 0,0" /></g><g
           transform="translate(507.6052,1174.7949)"
           id="g100"><path
             id="path102"
             style="fill:#46aae5;fill-opacity:1;fill-rule:nonzero;stroke:none"
             d="m 0,0 c 1.865,3.564 3.598,7.205 5.625,10.674 2.96,5.066 5.868,6.505 11.5,4.841 7.204,-2.13 13.683,-5.326 18.695,-11.591 8.644,-10.805 15.574,-22.787 24.059,-33.677 1.224,-1.57 2.346,-3.351 2.995,-5.216 3.391,-9.74 6.614,-19.538 10.173,-30.144 -4.68,-0.118 -7.548,3.209 -11.164,4.128 -3.887,0.988 -7.854,1.666 -11.786,2.479 -6.487,1.597 -13.085,0.675 -19.617,0.645 -4.256,-0.02 -5.7,1.608 -5.338,5.561 0.13,1.425 -0.017,2.879 0.144,4.297 1.957,17.217 -6.613,28.902 -19.891,38.204 C 2.071,-7.47 -2.936,-5.863 0,0" /></g><g
           transform="translate(507.6051,1174.7949)"
           id="g104"><path
             id="path106"
             style="fill:#2f75a9;fill-opacity:1;fill-rule:nonzero;stroke:none"
             d="m 0,0 c -0.33,-2.884 0.624,-4.894 3.5,-6.06 8.616,-3.493 13.817,-10.847 19.267,-17.758 3.42,-4.335 4.928,-9.621 4.924,-15.215 -0.004,-5.654 0.472,-11.31 -0.609,-17.712 5.333,0 10.136,0.079 14.934,-0.031 2.776,-0.063 5.796,0.726 8.081,-1.73 -10.597,0.046 -21.195,0.218 -31.79,0.089 -6.297,-0.077 -12.644,-0.323 -18.056,-4.367 -3.027,-2.263 -5.228,-1.166 -6.964,1.884 -3.684,6.474 -7.489,12.879 -11.176,19.352 -1.799,3.158 -2.431,6.721 -0.631,9.881 C -12.471,-21.041 -7.157,-9.978 0,0" /></g><g
           transform="translate(931.4721,1658.7712)"
           id="g108"><path
             id="path110"
             style="fill:#d0f7a3;fill-opacity:1;fill-rule:nonzero;stroke:none"
             d="m 0,0 c 4.326,-0.152 6.321,-2.208 5.477,-6.642 -1.895,-9.951 -1.511,-19.997 -1.03,-30.02 0.278,-5.796 -0.938,-11.407 -1.451,-17.104 -0.4,-4.442 -3.11,-6.479 -7.384,-6.867 -18.522,-1.68 -36.62,-6.037 -54.959,-8.887 -8.995,-1.397 -17.733,-4.454 -26.58,-6.785 -1.107,-0.291 -2.155,-0.805 -3.261,-1.097 -10.764,-2.842 -13.449,-0.507 -11.03,10.264 1.225,5.454 0.664,10.841 0.797,16.263 3.422,2.474 6.847,4.949 10.272,7.425 3.647,-3.058 2.548,-7.346 2.728,-11.206 0.215,-4.616 1.811,-7.347 6.835,-5.785 20.314,6.316 41.677,6.882 62.295,11.501 7.556,1.693 7.999,3.415 7.107,11.529 -1.273,11.574 -1.002,23.229 2.262,34.594 C -5.443,-1.423 -2.977,0.006 0,0" /></g><g
           transform="translate(923.5502,1655.9541)"
           id="g112"><path
             id="path114"
             style="fill:#5ecbed;fill-opacity:1;fill-rule:nonzero;stroke:none"
             d="m 0,0 c 0.748,-8.861 1.166,-17.699 -0.846,-26.488 -0.713,-3.112 -0.753,-6.209 1.495,-8.974 1.59,-1.956 1.11,-4.286 0.659,-6.586 -0.671,-3.432 -2.165,-5.135 -6.084,-5.814 -13.458,-2.33 -26.812,-5.403 -40.445,-6.452 -7.81,-0.6 -14.949,-3.628 -22.521,-4.968 -1.965,-0.348 -3.846,-1.156 -5.807,-1.542 -6.193,-1.22 -6.866,-0.618 -7.058,5.608 -0.149,4.864 -0.406,9.724 -0.618,14.584 1.682,2.463 3.93,4.225 6.674,5.373 3.701,1.693 5.231,-0.952 6.705,-3.462 2.369,-4.036 6.024,-4.984 10.324,-4.582 11.432,1.07 22.682,3.356 33.941,5.445 8.864,1.644 12.825,11.708 8.806,20.564 -1.559,3.434 -5.431,6.467 -2.167,10.882 C -11.421,-3.94 -5.953,-1.33 0,0" /></g><g
           transform="translate(906.6081,1649.5422)"
           id="g116"><path
             id="path118"
             style="fill:#47abe5;fill-opacity:1;fill-rule:nonzero;stroke:none"
             d="m 0,0 c -0.73,-4.255 2.53,-6.826 4.373,-9.904 6.02,-10.055 -0.335,-23.345 -12.041,-24.298 -9.655,-0.787 -18.966,-3.425 -28.567,-4.611 -10.538,-1.303 -12.119,-1.346 -17.765,7.99 -0.847,1.401 -2.237,1.627 -3.608,1.975 6.696,6.444 15.466,9.411 23.418,13.678 C -23.2,-9.273 -12.036,-3.611 0,0" /></g><g
           transform="translate(1354.0513,1085.1946)"
           id="g120"><path
             id="path122"
             style="fill:#2f75a8;fill-opacity:1;fill-rule:nonzero;stroke:none"
             d="m 0,0 c 7.532,3.571 15.588,3.718 23.616,3.167 8.673,-0.595 16.677,-9.834 17.486,-19.617 0.166,-2.001 0.122,-4.023 0.119,-6.034 -0.004,-2.563 1.656,-3.431 3.798,-3.847 -10.655,-3.533 -21.295,-2.984 -31.475,1.296 -5.31,2.233 -9.351,6.329 -10.482,12.663 C 2.318,-8.208 0.193,-4.336 0,0" /></g><g
           transform="translate(979.0717,1669.2808)"
           id="g124"><path
             id="path126"
             style="fill:#cef6a5;fill-opacity:1;fill-rule:nonzero;stroke:none"
             d="m 0,0 c 0.49,-0.621 2.933,-1.106 1.243,-1.786 -4.209,-1.693 -8.792,-2.452 -13.218,-3.609 -1.797,-0.469 -3.577,-1.375 -2.45,-3.494 2.22,-4.176 2.358,-8.845 3.56,-13.249 0.98,-3.595 2.934,-4.709 6.303,-3.673 6.919,2.127 13.948,3.161 21.211,2.726 3.32,-0.198 5.124,1.854 3.912,4.884 -1.558,3.896 -0.914,7.952 -1.782,11.857 -0.381,1.713 -2.493,3.73 0.243,5.245 2.453,1.358 7.083,0.019 8.319,-2.459 0.758,-1.518 1.189,-3.239 1.53,-4.917 0.855,-4.202 1.674,-8.416 2.323,-12.654 0.823,-5.381 -0.554,-7.59 -5.848,-8.609 -10.593,-2.04 -20.86,-5.688 -31.694,-6.501 -2.848,-0.214 -5.74,-0.325 -8.575,-0.07 -2.821,0.253 -5.288,2.166 -5.338,4.831 -0.16,8.503 -3.292,16.203 -5.589,24.149 -0.301,1.044 0.051,2.277 0.102,3.423 C -17.312,-1.633 -8.704,-0.502 0,0" /></g><g
           transform="translate(803.5081,1588.0806)"
           id="g128"><path
             id="path130"
             style="fill:#c8f2a6;fill-opacity:1;fill-rule:nonzero;stroke:none"
             d="m 0,0 c 1.342,-0.634 2.659,-1.414 2.174,-3.16 -0.857,-3.085 -0.903,-6.226 -0.8,-9.359 0.141,-4.313 -1.936,-7.659 -5.729,-8.604 -8.449,-2.106 -16.506,-6.721 -25.715,-4.746 0.732,2.617 2.723,4.411 4.637,5.957 C -17.057,-13.149 -8.494,-6.616 0,0" /></g><g
           transform="translate(1633.6462,768.8016)"
           id="g132"><path
             id="path134"
             style="fill:#2f75a9;fill-opacity:1;fill-rule:nonzero;stroke:none"
             d="M 0,0 C -9.234,-2.245 -18.467,-2.247 -27.7,0.003 -18.466,0.557 -9.233,0.554 0,0" /></g><g
           transform="translate(1036.6385,1140.7235)"
           id="g136"><path
             id="path138"
             style="fill:#000000;fill-opacity:1;fill-rule:nonzero;stroke:none"
             d="m 0,0 c -0.698,5.077 -1.081,10.209 -0.802,15.41 0.175,3.252 -1.057,5.36 -5.301,3.91 -12.643,-4.32 -25.606,-2.166 -38.478,-1.301 -2.853,0.192 -5.635,1.077 -8.565,0.589 -5.764,-0.961 -7.173,-2.417 -6.661,-8.4 0.402,-4.707 -0.835,-9.236 -2.008,-13.485 -2.399,-8.683 -3.242,-17.51 -4.131,-26.344 -2.998,-29.772 -15.404,-55.081 -36.763,-75.722 -13.956,-13.488 -31.604,-20.733 -50.191,-25.381 -5.24,-1.31 -10.61,-2.441 -15.974,-3.367 -28.253,-4.876 -55.01,0.151 -81.344,10.908 -18.916,7.726 -32.827,21.323 -45.194,36.365 -6.906,8.399 -12.627,18.227 -16.334,29.073 -4.269,12.489 -9.577,24.627 -12.65,37.526 -2.592,10.879 -5.271,21.742 -6.145,32.949 -0.318,4.075 0.379,8.041 0.983,12.012 0.564,3.705 -0.843,5.519 -4.567,5.451 -4.433,-0.079 -8.565,0.754 -12.118,3.615 -3.546,2.855 -5.793,6.33 -5.472,11.087 0.097,1.435 0.174,2.872 0.247,4.308 0.587,11.474 2.245,14.29 13.5,15.84 7.155,0.985 13.848,3.54 20.997,4.352 15.63,1.775 31.221,3.91 46.812,6.013 15.039,2.029 30.083,4.041 45.071,6.406 4.653,0.734 9.21,0.583 13.728,0.021 8.036,-1.001 15.986,-0.126 23.97,0.284 1.716,0.088 3.456,0.251 5.155,0.08 22.313,-2.243 44.61,-4.654 66.935,-6.768 9.543,-0.904 18.132,-5.325 27.549,-6.758 5.206,-0.792 10.278,0.27 15.426,-0.269 2.756,-0.288 5.048,2.049 5.752,4.525 1.962,6.898 7.492,8.064 13.269,9.074 14.883,2.601 29.871,1.528 44.649,-0.127 7.926,-0.888 16.586,-3.081 20.144,-12.438 1.336,-3.513 3.632,-3.365 6.873,-1.597 16.845,9.187 35.009,14.301 54.02,16.381 4.265,0.467 8.624,0.064 12.939,0.089 5.164,0.031 10.287,-0.073 15.455,0.914 4.732,0.903 40.913,-2.486 49.713,-1.899 7.3,0.486 20.51,-1.358 27.575,-2.444 4.539,-0.697 30.617,-3.83 40.202,-6.594 9.861,-2.845 19.979,-4.844 30.296,-5.849 9.654,-0.94 19.386,-1.946 28.089,-7.14 8.263,-4.93 10.971,-18.169 5.018,-25.576 -1.996,-2.484 -4.728,-3.117 -7.581,-3.576 -2.257,-0.363 -4.606,-0.33 -6.788,-0.931 -2.288,-0.632 -4.493,-2.018 -3.784,-4.885 1.678,-6.788 -1.27,-13.072 -2.227,-19.475 -2.669,-17.871 -7.852,-35.088 -14.679,-51.923 -4.618,-11.387 -7.899,-23.268 -14.536,-33.827 -3.384,-5.382 -7.209,-10.383 -11.123,-15.34 -3.373,-4.271 -6.328,-8.802 -9.363,-13.291 -4.815,-7.122 -11.967,-12.716 -20.163,-15.543 -7.826,-2.699 -15.715,-5.421 -23.532,-8.107 -20.54,-7.057 -41.089,-6.388 -61.951,-2.962 -4.807,0.789 -9.643,1.544 -14.496,1.889 -13.829,0.982 -23.808,9.19 -33.703,17.601 -2.181,1.853 -4.033,4.128 -6.337,5.794 C 37.298,-98.65 27.058,-84.807 19.756,-69.672 9.213,-47.818 -1.748,-25.595 0,0" /></g><g
           transform="translate(1098.124,1350.9382)"
           id="g140"><path
             id="path142"
             style="fill:#5ecaed;fill-opacity:1;fill-rule:nonzero;stroke:none"
             d="m 0,0 c 0.559,-9.138 0.447,-17.369 1.442,-25.699 1.824,-15.268 -6.833,-27.448 -23.924,-27.795 -7.326,-0.148 -14.783,-1.812 -21.892,-1.278 -8.328,0.625 -16.418,-0.872 -24.642,-0.499 -9.591,0.435 -19.164,-1.078 -28.728,-1.351 -13.324,-0.38 -21.328,6.197 -22.77,21.444 -0.901,9.517 -3.084,19.009 -0.798,28.971 1.172,5.108 -0.618,11.346 -1.766,16.858 -1.018,4.894 -1.131,9.671 -1.111,14.514 0.068,15.786 9.85,25.871 25.254,28.682 16.579,3.026 33.395,3.639 50.012,6.259 10.067,1.587 20.59,1.291 30.724,-1.736 C -10.748,56.146 -5.836,51.62 -3.31,44.223 0.365,33.46 0.236,22.294 0.504,11.173 0.6,7.17 0.156,3.153 0,0" /></g><g
           transform="translate(968.9949,1005.4572)"
           id="g144"><path
             id="path146"
             style="fill:#010102;fill-opacity:1;fill-rule:nonzero;stroke:none"
             d="m 0,0 c 7.588,1.017 14.429,-2.082 20.869,-6.98 8.097,-6.158 16.939,-7.579 25.414,-1.114 13.715,10.465 29.51,10.379 45.365,9.446 6.62,-0.39 12.881,-3.006 16.873,-9.123 1.461,-2.239 2.485,-4.517 2.262,-7.243 -0.281,-3.435 -1.487,-5.31 -5.505,-4.286 -9.843,2.507 -19.87,2.553 -29.969,2.088 -5.592,-0.257 -10.733,-1.347 -15.644,-4.096 -8.338,-4.668 -16.925,-8.682 -26.916,-7.679 -6.922,0.695 -14.041,1.492 -19.275,6.43 -6.961,6.569 -14.915,6.759 -23.298,4.861 -4.562,-1.033 -9.106,-1.128 -13.693,-1.308 -4.116,-0.162 -7.465,0.957 -8.618,5.406 -0.969,3.739 1.095,7.636 6.261,8.868 C -17.576,-2.753 -9.489,0.702 0,0" /></g><g
           transform="translate(1039.0173,1578.9833)"
           id="g148"><path
             id="path150"
             style="fill:#d1f7a3;fill-opacity:1;fill-rule:nonzero;stroke:none"
             d="m 0,0 c 14.778,0.702 28.124,-2.815 41.567,-5.812 7.831,-1.746 15.744,-3.133 23.643,-4.558 7.88,-1.422 14.023,-7.765 12.753,-15.391 -2.533,-15.202 -0.422,-30.446 -1.538,-45.627 -0.551,-7.49 -2.336,-8.906 -9.568,-7.983 -24.701,3.15 -49.252,7.857 -74.375,6.686 -5.363,-0.25 -10.608,-2.042 -16.224,-0.414 -7.455,2.161 -8.645,3.464 -6.674,10.587 3.218,11.627 1.509,23.45 0.862,35.142 -0.422,7.636 1.179,14.796 2.664,22.053 0.538,2.626 2.447,4.577 5.514,4.571 C -13.967,-0.76 -6.616,0.792 0,0" /></g><g
           transform="translate(1021.4534,1494.2505)"
           id="g152"><path
             id="path154"
             style="fill:#d0f7a4;fill-opacity:1;fill-rule:nonzero;stroke:none"
             d="m 0,0 c 16.235,-1.901 31.913,-3.45 47.497,-5.667 9.914,-1.41 11.997,-5.347 8.736,-14.914 -3.206,-9.406 -3.472,-19.108 -3.633,-28.871 -0.131,-7.912 -0.211,-7.77 -7.937,-7.29 -12.051,0.749 -23.73,3.784 -35.583,5.71 -5.16,0.838 -10.283,0.67 -15.405,1.175 -6.441,0.636 -7.9,2.182 -8.234,8.534 -0.544,10.362 1.108,20.603 1.77,30.893 C -12.38,-4.077 -6.285,0.234 0,0" /></g><g
           transform="translate(829.1539,1534.3452)"
           id="g156"><path
             id="path158"
             style="fill:#d0f7a4;fill-opacity:1;fill-rule:nonzero;stroke:none"
             d="m 0,0 c 0.558,8.899 0.95,16.063 1.471,23.217 0.491,6.736 4.73,11.25 11.403,13.167 7,2.011 14.264,1.132 21.345,2.551 8.977,1.8 18.106,3.056 27.231,3.838 8.697,0.745 10.443,-1.864 7.306,-10.089 C 65.388,23.857 65.558,14.681 65.378,5.499 65.216,-2.764 65.096,-2.351 57.325,-3.813 45.126,-6.107 32.735,-5.583 20.497,-7.033 16.521,-7.505 12.587,-8.381 8.604,-8.726 1.078,-9.377 0.15,-8.427 0.002,-0.843 -0.015,0.019 0,0.882 0,0" /></g><g
           transform="translate(1035.3101,1610.1477)"
           id="g160"><path
             id="path162"
             style="fill:#cff7a4;fill-opacity:1;fill-rule:nonzero;stroke:none"
             d="m 0,0 c -12.574,-0.115 -12.743,-0.12 -13.092,12.325 -0.197,7.029 -1.67,13.572 -4.733,19.899 -3.079,6.361 -1.23,10.415 5.813,10.341 17.18,-0.182 34.267,4.034 51.502,0.833 C 45.883,42.211 51.08,38.31 52.165,32.349 53.605,24.444 54.719,16.472 54.526,8.393 54.397,3.003 53.317,1.151 47.919,1.974 33.173,4.221 18.807,1.344 4.308,0.017 2.883,-0.113 1.436,0 0,0" /></g><g
           transform="translate(955.1645,1497.5339)"
           id="g164"><path
             id="path166"
             style="fill:#cff7a4;fill-opacity:1;fill-rule:nonzero;stroke:none"
             d="m 0,0 c -6.019,-1.384 -13.396,2.231 -21.156,2.229 -4.908,-10e-4 -7.133,3.387 -6.22,8.283 1.726,9.258 1.666,18.75 4.423,27.905 2.131,7.076 4.795,9.897 11.823,9.425 10.844,-0.729 21.683,-1.549 32.518,-2.399 6.582,-0.516 9.019,-3.032 7.5,-9.507 C 26.85,27.243 25.303,18.605 25.12,9.648 25.036,5.537 21.681,3.393 17.975,1.934 12.716,-0.138 7.216,0.632 0,0" /></g><g
           transform="translate(962.9034,1432.3979)"
           id="g168"><path
             id="path170"
             style="fill:#d0f7a4;fill-opacity:1;fill-rule:nonzero;stroke:none"
             d="m 0,0 c -4.878,0 -9.764,-0.179 -14.63,0.052 -4.589,0.218 -6.947,2.315 -7.141,6.891 -0.46,10.842 -1.072,21.717 0.223,32.542 0.706,5.899 2.443,6.559 8.47,4.575 5.845,-1.925 11.91,-1.133 17.842,-0.375 2.529,0.323 5.019,1.026 7.617,1.138 11.236,0.483 12.65,-0.227 13.805,-11.172 0.808,-7.66 0.581,-15.485 0.157,-23.201 C 26.001,4.208 21.766,0.726 14.627,0.224 9.774,-0.118 4.877,0.158 0,0.158 0,0.105 0,0.053 0,0" /></g><g
           transform="translate(1001.5613,1596.3156)"
           id="g172"><path
             id="path174"
             style="fill:#d0f7a4;fill-opacity:1;fill-rule:nonzero;stroke:none"
             d="m 0,0 c 0.526,-16.957 1.115,-14.662 -13.59,-17.394 -7.886,-1.465 -15.733,-3.145 -23.631,-4.54 -6.695,-1.182 -10.447,1.223 -11.876,7.997 -1.431,6.779 -1.528,13.742 -0.562,20.587 1.03,7.296 3.081,9.186 10.615,10.163 6.533,0.847 13.206,0.321 19.675,2.05 3.31,0.885 6.64,1.417 9.727,3.198 4.006,2.312 6.141,1.374 7.493,-3.183 C -0.259,12.499 0.592,5.943 0,0" /></g><g
           transform="translate(1183.0808,1520.8782)"
           id="g176"><path
             id="path178"
             style="fill:#cff7a4;fill-opacity:1;fill-rule:nonzero;stroke:none"
             d="m 0,0 c 0.022,-5.29 -1.26,-6.83 -5.531,-5.915 -9.179,1.967 -18.642,2.24 -27.647,5.396 -7.382,2.588 -12.535,5.951 -12.878,14.832 -0.229,5.916 -1.463,11.935 -3.798,17.578 -0.531,1.285 -0.604,2.803 -0.68,4.224 -0.35,6.52 1.739,8.544 8.039,7.463 6.208,-1.065 12.384,-3.525 18.542,-3.421 C -10.075,40.392 -4.547,32.941 -3.01,20.514 -2.133,13.419 -0.943,6.362 0,0" /></g><g
           transform="translate(1175.7733,1474.5062)"
           id="g180"><path
             id="path182"
             style="fill:#cff7a4;fill-opacity:1;fill-rule:nonzero;stroke:none"
             d="m 0,0 c -1.999,-3.754 -0.371,-7.688 -0.207,-11.648 0.217,-5.211 -1.489,-6.191 -6.782,-5.651 -8.824,0.899 -17.169,4.003 -25.989,5.045 -8.038,0.951 -11.554,5.219 -11.814,13.324 -0.236,7.36 -2.104,14.705 0.031,22.138 1.562,5.437 2.743,6.55 8.279,5.716 3.392,-0.511 6.737,-1.024 9.911,-2.591 5.196,-2.566 11.105,-4.344 16.556,-3.752 5.317,0.576 6.725,-1.179 7.39,-5.428 C -1.743,11.514 -0.896,5.87 0,0" /></g><g
           transform="translate(1153.5159,1604.4945)"
           id="g184"><path
             id="path186"
             style="fill:#cff7a4;fill-opacity:1;fill-rule:nonzero;stroke:none"
             d="m 0,0 c 0.098,-2.123 0.218,-3.557 0.222,-4.992 0.026,-7.746 -0.853,-8.179 -8.371,-6.263 -7.466,1.903 -15.067,3.298 -22.64,4.753 -11.588,2.227 -14.988,6.019 -15.522,17.939 -0.217,4.862 -0.818,9.758 0.47,14.576 1.379,5.158 2.513,5.927 7.934,5.504 2.609,-0.203 5.047,-0.982 7.461,-1.963 7.198,-2.923 14.562,-4.784 22.465,-3.892 4.109,0.464 5.283,-2.592 5.99,-5.86 C -0.531,13.051 0.659,6.271 0,0" /></g><g
           transform="translate(813.2959,1528.1228)"
           id="g188"><path
             id="path190"
             style="fill:#d0f7a4;fill-opacity:1;fill-rule:nonzero;stroke:none"
             d="m 0,0 c 0,-0.286 -0.022,-0.574 0.003,-0.858 1.075,-11.831 -2.036,-18.303 -16.444,-19.667 -6.395,-0.606 -12.776,-2.718 -19.267,-3.625 -4.649,-0.649 -7.258,1.245 -7.006,5.927 0.473,8.769 -0.143,17.576 1.212,26.319 1.012,6.535 1.146,6.77 7.909,6.453 6.097,-0.286 11.842,1.369 17.585,3.262 12.681,4.18 15.644,1.93 16.03,-11.801 C 0.078,4.008 0.03,2.004 0.03,0 Z" /></g><g
           transform="translate(943.1911,1138.9388)"
           id="g192"><path
             id="path194"
             style="fill:#ffffff;fill-opacity:1;fill-rule:nonzero;stroke:none"
             d="m 0,0 c 1.356,-12.379 -2.244,-25.171 -5.87,-37.777 -1.948,-6.769 -5.684,-13.18 -9.446,-19.234 -5.746,-9.247 -11.991,-18.211 -19.609,-26.101 -4.859,-5.033 -10.92,-8.418 -16.811,-11.925 -12.448,-7.412 -25.943,-12.291 -40.489,-12.599 -10.887,-0.231 -21.806,1.966 -31.756,6.229 -5.253,2.251 -10.772,3.739 -15.939,6.239 -24.894,12.05 -42.32,30.719 -52.965,56.365 -7.62,18.359 -11.042,37.164 -10.744,56.89 0.073,4.825 -0.716,9.625 0.996,14.349 1.801,4.97 5.022,8.652 10.221,9.488 3.493,0.561 6.626,1.811 9.788,3.059 17.567,6.929 36.022,8.716 54.63,9.542 6.018,0.268 11.805,1.996 17.92,1.982 4.566,-0.012 9.172,0.207 13.747,-0.045 13.716,-0.757 27.436,-1.245 41.137,0.032 14.607,1.361 27.537,-4.793 40.927,-8.866 2.2,-0.669 3.742,-2.678 4.98,-4.624 6.127,-9.632 9.208,-20.181 9.28,-31.6 C 0.018,7.954 0,4.504 0,0" /></g><g
           transform="translate(1148.0604,1195.3865)"
           id="g196"><path
             id="path198"
             style="fill:#ffffff;fill-opacity:1;fill-rule:nonzero;stroke:none"
             d="m 0,0 c 19.523,0.274 39.007,0.11 58.514,-1.361 12.84,-0.968 25.578,-2 38.02,-5.317 4.722,-1.259 8.954,-3.642 12.694,-6.998 4.369,-3.92 6.589,-8.348 6.02,-14.376 -0.701,-7.432 -0.859,-14.914 -1.282,-22.373 -0.796,-14.049 -3.52,-27.715 -7.827,-41.116 -2.797,-8.701 -4.606,-17.776 -9.503,-25.654 -4.689,-7.543 -9.053,-15.412 -14.652,-22.241 -13.792,-16.82 -32.161,-24.429 -53.757,-24.213 -19.975,0.2 -39.321,3.516 -57.794,11.614 -3.498,1.534 -4.933,4.572 -7.697,6.544 -12.83,9.149 -21.529,21.34 -29.148,35.288 -6.985,12.787 -7.621,26.036 -9.845,39.486 -2.159,13.057 0.04,26.261 -2.842,39.34 -2.362,10.72 5.225,18.628 16.555,23.181 10.817,4.347 22.337,6.695 34.195,7.556 C -18.878,0.047 -9.459,0.292 0,0" /></g><g
           transform="translate(995.1616,1183.3602)"
           id="g200"><path
             id="path202"
             style="fill:#ffffff;fill-opacity:1;fill-rule:nonzero;stroke:none"
             d="m 0,0 c -2.124,3.367 -4.779,6.138 -6.321,9.871 -1.623,3.929 -3.606,7.608 -7.12,10.54 -3.852,3.215 -2.659,7.443 2.408,8.808 4.387,1.182 9.02,2.021 13.541,2.009 8.876,-0.024 17.776,-0.124 26.595,-1.714 3.035,-0.548 5.334,-1.803 7.43,-3.873 4.31,-4.254 3.825,-11.029 -1.035,-14.827 C 34.714,10.201 33.854,9.898 33.191,10.325 27.689,13.873 25.749,8.561 22.808,6.098 10.88,11.464 10.479,11.36 0,0" /></g><g
           transform="translate(978.3907,1189.8417)"
           id="g204"><path
             id="path206"
             style="fill:#f9f9f9;fill-opacity:1;fill-rule:nonzero;stroke:none"
             d="m 0,0 c 3.579,-2.31 13.908,-15.13 17.958,-14.999 4.071,0.132 7.585,-0.091 8.54,5.784 0.784,4.821 3.023,5.116 8.275,3.396 2.146,-0.702 4.516,-2.557 6.563,-1.238 6.741,4.342 9.303,-2.602 13.574,-4.741 1.743,-0.873 1.467,-2.688 0.796,-4.526 -1.931,-5.292 -7.104,-9.317 -13.527,-8.557 -10.874,1.286 -21.76,1.74 -32.671,2.079 -2.98,0.093 -4.954,1.258 -5.353,4.41 C 3.192,-15.873 -4.455,-0.408 0,0" /></g><g
           transform="translate(1039.8364,1195.7928)"
           id="g208"><path
             id="path210"
             style="fill:#dbe1e1;fill-opacity:1;fill-rule:nonzero;stroke:none"
             d="M 0,0 C 1.197,-11.156 1.197,-11.156 -7.422,-10.165 -6.062,-5.711 -2.401,-3.346 0,0" /></g><g
           transform="translate(1087.5055,1359.876)"
           id="g212"><path
             id="path214"
             style="fill:#d1f7a3;fill-opacity:1;fill-rule:nonzero;stroke:none"
             d="m 0,0 c 1.384,-11.187 -2.112,-22.006 0.173,-32.853 0.53,-2.516 1.22,-5.012 1.544,-7.554 0.666,-5.218 -1.773,-8.698 -6.995,-10.113 -3.328,-0.903 -6.709,-1.295 -10.2,-1.299 -11.198,-0.013 -22.532,0.775 -33.56,-0.678 -13.684,-1.802 -27.498,-0.116 -41.082,-2.69 -5.401,-1.024 -7.514,0.728 -8.228,5.979 -1.2,8.82 -2.06,17.662 -1.75,26.591 0.38,10.933 -0.753,21.738 -2.702,32.498 -0.813,4.484 -1.649,9.227 0.348,13.569 2.67,5.806 6.112,9.557 13.834,10.1 20.506,1.442 40.692,6.364 61.398,6.258 5.734,-0.029 11.356,-0.285 17.014,-1.787 6.562,-1.743 7.818,-2.179 8.6,-8.379 C -0.351,19.694 1.58,9.77 0,0" /></g><g
           transform="translate(1038.8337,1568.4139)"
           id="g216"><path
             id="path218"
             style="fill:#5fcced;fill-opacity:1;fill-rule:nonzero;stroke:none"
             d="m 0,0 c 13.297,0.824 26.549,-1.981 39.677,-4.955 7.333,-1.662 14.835,-1.43 22.125,-3.23 3.196,-0.789 4.377,-2.117 4.37,-5.138 -0.012,-4.883 0.507,-9.799 -0.459,-14.63 -1.249,-6.254 -2.196,-12.405 0.488,-18.6 0.634,-1.463 0.212,-3.399 0.217,-5.117 0.01,-3.543 -1.395,-5.273 -5.293,-4.695 -7.664,1.137 -15.485,1.47 -23.029,3.113 -14.731,3.207 -29.563,3.783 -44.521,3.24 -1.149,-0.041 -2.302,-10e-4 -3.451,0.043 -6.517,0.25 -6.702,0.259 -6.537,6.886 0.258,10.372 -1.679,20.589 -1.909,30.915 -0.267,12.04 -0.206,12.044 11.936,12.165 C -4.373,0.017 -2.359,0 0,0" /></g><g
           transform="translate(1021.3617,1485.3044)"
           id="g220"><path
             id="path222"
             style="fill:#5ecbed;fill-opacity:1;fill-rule:nonzero;stroke:none"
             d="m 0,0 c 8.342,-1.542 17.08,-2.855 25.89,-3.788 5.381,-0.57 10.668,-1.988 16.037,-2.745 2.982,-0.42 4.025,-1.638 3.199,-4.555 -2.037,-7.204 -2.938,-14.552 -2.775,-22.046 0.083,-3.82 -1.399,-4.89 -5.368,-3.652 -11.21,3.496 -22.638,6.005 -34.471,6.395 -6.287,0.207 -6.974,0.981 -7.018,7.052 -0.046,6.304 0.23,12.611 0.399,18.916 C -4.041,-1.976 -3.669,0.288 0,0" /></g><g
           transform="translate(837.7426,1546.4491)"
           id="g224"><path
             id="path226"
             style="fill:#5dc9ec;fill-opacity:1;fill-rule:nonzero;stroke:none"
             d="m 0,0 c -0.079,2.186 0.398,5.285 0.96,8.416 1.416,7.89 1.312,8.067 8.758,8.309 10.923,0.355 21.734,1.705 32.548,3.114 5.493,0.715 6.767,-0.208 5.466,-5.3 C 46.13,8.264 46.472,1.977 46.312,-4.325 46.229,-7.577 45.01,-9.12 41.568,-8.557 30.381,-6.729 19.27,-8.952 8.158,-9.575 0.01,-10.031 0.049,-10.735 0,-2.719 -0.003,-2.144 0,-1.568 0,0" /></g><g
           transform="translate(1035.1543,1617.2382)"
           id="g228"><path
             id="path230"
             style="fill:#5fcced;fill-opacity:1;fill-rule:nonzero;stroke:none"
             d="m 0,0 c -3.467,8.249 -1.745,16.489 -5.36,23.573 -0.91,1.783 0.174,3.4 2.394,3.484 14.025,0.532 27.957,3.015 42.058,1.991 2.683,-0.194 4.267,-1.492 4.618,-4.155 C 44.383,19.781 45.081,14.669 45.62,9.541 45.948,6.423 44.58,4.596 41.204,4.744 40.344,4.781 39.481,4.755 38.621,4.799 25.655,5.46 12.852,4.654 0,0" /></g><g
           transform="translate(973.0878,1533.3329)"
           id="g232"><path
             id="path234"
             style="fill:#5fcced;fill-opacity:1;fill-rule:nonzero;stroke:none"
             d="m 0,0 c -0.495,-6.617 -2.816,-12.597 -2.945,-18.928 -0.072,-3.522 -2.503,-4.748 -5.886,-4.744 -7.144,0.008 -14.316,0.649 -21.354,-1.528 -2.288,-0.708 -5.487,0.135 -4.93,3.041 1.539,8.032 0.315,16.677 5.085,24.05 0.729,1.127 1.463,1.695 2.675,1.545 C -18.316,2.323 -9.283,1.171 0,0" /></g><g
           transform="translate(964.8573,1444.4697)"
           id="g236"><path
             id="path238"
             style="fill:#61cded;fill-opacity:1;fill-rule:nonzero;stroke:none"
             d="m 0,0 c -14.864,-0.12 -12.185,-1.041 -14.746,13.547 -1.249,7.112 0.501,8.469 7.834,8.606 5.153,0.097 10.293,-0.186 15.391,1.198 3.519,0.955 5.38,-1.084 5.729,-4.548 0.115,-1.141 0.158,-2.293 0.151,-3.44 C 14.259,-2.01 15.64,0.469 0,0" /></g><g
           transform="translate(991.268,1599.8511)"
           id="g240"><path
             id="path242"
             style="fill:#60cded;fill-opacity:1;fill-rule:nonzero;stroke:none"
             d="m 0,0 c -0.154,-9.43 -0.45,-9.869 -9.718,-11.721 -4.449,-0.889 -8.958,-1.482 -13.443,-2.196 -3.712,-0.59 -6.205,0.337 -6.048,4.749 0.061,1.705 -0.153,3.418 -0.169,5.128 -0.074,8.145 0.252,8.405 8.282,9.43 4.794,0.612 9.553,1.516 14.317,2.349 5.908,1.034 6.452,0.647 6.77,-5.174 C 0.038,1.712 -0.002,0.855 0,0" /></g><g
           transform="translate(1148.4666,1554.3986)"
           id="g244"><path
             id="path246"
             style="fill:#60cded;fill-opacity:1;fill-rule:nonzero;stroke:none"
             d="m 0,0 c 3.352,-1.186 7.099,-1.226 10.811,-1.494 8.633,-0.624 11.596,-3.075 13.159,-11.552 0.825,-4.474 0.437,-9.083 1.718,-13.583 0.816,-2.863 -0.906,-4.564 -3.933,-2.91 -5.635,3.081 -11.803,4.414 -17.981,5.541 -3.726,0.68 -5.398,2.415 -5.936,6.096 -0.619,4.234 -1.841,8.376 -2.692,12.58 C -5.825,-0.52 -4.89,0.508 0,0" /></g><g
           transform="translate(1139.7628,1484.3433)"
           id="g248"><path
             id="path250"
             style="fill:#62ceec;fill-opacity:1;fill-rule:nonzero;stroke:none"
             d="m 0,0 c 0,-0.614 0.002,-0.328 0,-0.043 -0.098,10.235 0.325,10.525 9.902,7.734 3.271,-0.953 6.6,-1.947 9.966,-2.287 5.201,-0.524 6.299,-3.345 6.299,-8.079 10e-4,-12.288 -1.127,-13.311 -13.239,-10.239 -1.103,0.28 -2.241,0.422 -3.34,0.714 C -0.525,-9.519 0.379,-12.275 0,0" /></g><g
           transform="translate(1144.6925,1614.1293)"
           id="g252"><path
             id="path254"
             style="fill:#62ceec;fill-opacity:1;fill-rule:nonzero;stroke:none"
             d="m 0,0 c -0.068,-8.585 -2.513,-10.634 -10.414,-8.923 -1.949,0.422 -3.833,1.154 -5.786,1.543 -10.795,2.149 -13.439,6.238 -11.252,17.269 0.497,2.505 1.766,3.573 4.165,2.804 6.263,-2.006 12.534,-3.847 19.088,-4.792 C 0.541,7.217 -0.24,3.056 0,0" /></g><g
           transform="translate(804.4191,1528.7351)"
           id="g256"><path
             id="path258"
             style="fill:#63ceec;fill-opacity:1;fill-rule:nonzero;stroke:none"
             d="m 0,0 c 0,-1.712 0.042,-3.426 -0.01,-5.137 -0.077,-2.57 -1.159,-4.56 -3.909,-4.743 -4.621,-0.309 -8.848,-1.984 -13.236,-3.178 -4.835,-1.316 -6.056,-0.173 -7.348,5.224 -0.199,0.832 -0.546,1.635 -0.688,2.474 -1.474,8.69 -0.306,10.558 8.247,12 3.39,0.572 6.672,1.364 9.958,2.331 C -1.454,10.6 -0.388,9.824 0.046,4.28 0.157,2.862 0.063,1.427 0.063,0 Z" /></g><g
           transform="translate(845.6435,1187.1166)"
           id="g260"><path
             id="path262"
             style="fill:#040404;fill-opacity:1;fill-rule:nonzero;stroke:none"
             d="m 0,0 c 38.654,-0.405 69.586,-32.195 69.238,-71.158 -0.349,-39.149 -32.324,-70.183 -71.686,-69.576 -38.846,0.6 -69.666,32.263 -69.267,71.163 C -71.313,-30.404 -39.544,0.415 0,0" /></g><g
           transform="translate(1233.2766,1117.0012)"
           id="g264"><path
             id="path266"
             style="fill:#040404;fill-opacity:1;fill-rule:nonzero;stroke:none"
             d="m 0,0 c -0.144,-39.357 -31.538,-70.267 -71.121,-70.027 -38.83,0.235 -69.697,31.635 -69.543,70.742 0.154,39.039 31.198,69.984 70.254,70.028 C -31.037,70.788 0.145,39.459 0,0" /></g><g
           transform="translate(1077.1974,1371.1973)"
           id="g268"><path
             id="path270"
             style="fill:#5ecbed;fill-opacity:1;fill-rule:nonzero;stroke:none"
             d="m 0,0 c -0.336,-13.732 -2.117,-27.419 -1.411,-41.205 0.154,-3.003 -0.716,-4.776 -4.08,-5.271 -3.689,-0.543 -7.321,-1.15 -11.084,-1.19 -12.602,-0.133 -25.161,-0.028 -37.67,-2.76 -6.579,-1.438 -13.67,-0.53 -20.53,-0.685 -2.271,-0.051 -3.991,0.687 -4.225,3.22 -0.41,4.449 -2.132,8.633 0.188,13.397 3.219,6.613 -0.289,13.549 -1.081,20.241 -0.781,6.605 -0.696,13.156 -0.963,19.733 -0.135,3.346 0.826,5.766 4.706,5.499 12.714,-0.877 25.064,2.43 37.619,3.429 11.453,0.912 22.752,1.528 34.206,0.612 3.03,-0.242 4.236,-1.11 4.302,-3.828 C 0.068,7.463 0,3.731 0,0" /></g><g
           transform="translate(1079.1135,1525.4905)"
           id="g272"><path
             id="path274"
             style="fill:#49aee6;fill-opacity:1;fill-rule:nonzero;stroke:none"
             d="m 0,0 c -4.438,-0.843 -8.519,0.974 -12.727,1.706 -7.367,1.281 -14.744,1.751 -22.224,1.824 -7.469,0.073 -10.686,3.547 -11.575,10.916 -0.205,1.695 -0.798,3.347 -0.957,5.043 -0.812,8.675 2.938,13.209 11.71,13.2 10.887,-0.012 21.604,-1.988 32.228,-4.222 C 0.886,27.536 5.47,27.222 9.558,24.657 16.59,20.245 17.518,6.317 10.872,1.412 7.509,-1.07 3.623,0.378 0,0" /></g><g
           transform="translate(781.8524,1118.0277)"
           id="g276"><path
             id="path278"
             style="fill:#ffffff;fill-opacity:1;fill-rule:nonzero;stroke:none"
             d="M 0,0 C -0.118,35.112 27.896,63.341 62.842,63.323 97.387,63.306 125.386,35.43 125.682,0.759 125.98,-34.159 97.771,-62.486 62.745,-62.442 27.955,-62.398 0.117,-34.694 0,0" /></g><g
           transform="translate(1161.9729,1182.3253)"
           id="g280"><path
             id="path282"
             style="fill:#ffffff;fill-opacity:1;fill-rule:nonzero;stroke:none"
             d="m 0,0 c 35.115,0.112 63.08,-27.85 63.033,-63.026 -0.046,-34.722 -27.777,-62.448 -62.582,-62.571 -34.805,-0.124 -62.785,27.456 -63.022,62.119 C -62.813,-28.233 -35.092,-0.111 0,0" /></g><g
           transform="translate(1055.9615,1376.3605)"
           id="g284"><path
             id="path286"
             style="fill:#47abe5;fill-opacity:1;fill-rule:nonzero;stroke:none"
             d="m 0,0 c 6.028,-0.018 12.554,-7.056 10.883,-15.747 -0.932,-4.844 -1.156,-9.61 -1.503,-14.45 -0.407,-5.673 -3.353,-9.545 -8.67,-10.321 -5.343,-0.779 -10.53,-2.566 -16.111,-2.183 -5.104,0.351 -10.176,-0.043 -15.323,-1.246 -8.047,-1.883 -14.848,2.308 -15.139,11.645 -0.169,5.397 -2.174,10.591 -1.737,16.145 0.505,6.432 2.36,9.312 8.517,11.212 2.179,0.672 4.408,1.341 6.661,1.593 C -22.514,-2.242 -12.589,-1.285 0,0" /></g></g></g></g></svg>